<svg data-name="Layer 1" xmlns="http://www.w3.org/2000/svg" xmlns:xlink="http://www.w3.org/1999/xlink" viewBox="0 0 420.07 204.87"><defs><linearGradient id="a" x1="-65" y1="72.16" x2="262.93" y2="255.66" gradientUnits="userSpaceOnUse"><stop offset="0" stop-opacity="0"/><stop offset=".99"/></linearGradient><linearGradient id="b" x1="217.16" y1="164.75" x2="115.32" y2="227.42" xlink:href="#a"/><linearGradient id="c" x1="425.36" y1="249.21" x2="137.36" y2="3.69" xlink:href="#a"/><linearGradient id="d" x1="295.89" y1="167.21" x2="-18.16" y2="154.47" xlink:href="#a"/><linearGradient id="e" x1="259.24" y1="105.38" x2="169.04" y2="201.94" xlink:href="#a"/><linearGradient id="f" x1="246.43" y1="180.33" x2="233.21" y2="117.97" xlink:href="#a"/><linearGradient id="g" x1="206.63" y1="128.36" x2="209.22" y2="127.46" xlink:href="#a"/><linearGradient id="h" x1="207.32" y1="138.38" x2="222.61" y2="150.91" xlink:href="#a"/></defs><path d="M24.04 168.23a61.89 61.89 0 01-6.31-92.33c9.16-9.24 21-15.18 31.16-23.18C66.46 38.97 79.47 19.11 99.07 8.61c23.6-12.65 52.2-9.31 78.12-3s51.96 15.35 78.54 13.07c15.83-1.37 31.07-6.73 46.75-9.34s32.88-2.14 46 7c19.1 13.39 23.64 40.45 39.31 57.9 7.59 8.46 17.67 14.48 24.39 23.68 10.81 14.79 10.53 37-.65 51.51-14.32 18.55-40.16 21.49-61 31.69-11.6 5.68-22 13.87-34 18.63-25.22 10-53.59 3.49-79.45-4.59s-52.5-17.8-79.27-13.84c-25 3.72-47.53 19.15-72.74 21.49-11.7 1.09-25.06-1-32.21-11.1-7.69-10.83-18.41-15.48-28.82-23.48z" fill="#2e7ce4" opacity=".18" style="isolation:isolate"/><path d="M30.82 110.92c6.79-7.55 6.79-7.55 14.49-16.61l32.77-38.35c7.25-8.31 10.12-12.08 14-18h31a217 217 0 00-1.21 25.06v49.11h4.38a105.88 105.88 0 0015-1.21v27.48a120.64 120.64 0 00-14.8-.9h-4.53v7.55a105.46 105.46 0 001.21 18.57H91.97a131 131 0 001.21-18.87v-7.4H50.45c-9.82 0-14 .15-19.63.6zm62.51-16c0-6.8.3-15.1.91-21.75-3 4.23-5.29 7.25-9.36 12.38l-22.05 26.88h30.5z" fill="#2e7ce4"/><path d="M31.09 174.69c6.79-7.55 6.79-7.55 14.49-16.61l32.77-38.35c7.25-8.31 10.12-12.08 14-18h31a217 217 0 00-1.21 25.06v49.11h4.38a105.88 105.88 0 0015-1.21v27.48a120.64 120.64 0 00-14.8-.9h-4.53v7.55a105.46 105.46 0 001.21 18.57H92.24a131 131 0 001.21-18.87v-7.4H50.72c-9.82 0-14 .15-19.63.6zm62.51-16c0-6.8.3-15.1.91-21.75-3 4.23-5.29 7.25-9.36 12.38L63.1 176.2h30.5z" transform="translate(-.27 -63.77)" fill="url(#a)"/><path d="M198.86 73.05c3 .5 5.79 2.34 8.8 3 2.63.6 5.4.29 8 1.21 4.85 1.72 8 7.57 8.69 13.44s-.54 11.81-1.94 17.51c-3.68 15.02-8.68 30.02-17.68 41.41-.63.79-1.39 1.62-2.32 1.6a3.22 3.22 0 01-1.73-.81 28.88 28.88 0 01-5.15-4.51c-2.4-2.89-3.79-6.7-5-10.48-3.41-10.64-9.92-17.38-11.13-28.66-1.32-11.83 5.15-36.07 19.46-33.71z" fill="#2e7ce4"/><path d="M189.45 144.4a5.39 5.39 0 00-3.71.67 10.08 10.08 0 00-4.59 6.54 25.28 25.28 0 00-.29 8.19 110.85 110.85 0 004.63 23.58c.7 2.22-1.3 7.49.15 9.31 1.18 1.48.59 10.37 2.13 11.47 4.27 3.08 13.14 1.38 17.41 4.46 5.53 4 5.16-6.56 4.28-10.91-1-4.85-8.51-4-14.26-20.38-7.65-21.8-3.79-32.48-5.75-32.93z" transform="translate(-.27 -63.77)" fill="url(#b)"/><path d="M263.97 110.36c6.79-7.55 6.79-7.55 14.49-16.61l32.77-38.36a150.72 150.72 0 0014-18h31a217 217 0 00-1.21 25.07v49.08h4.38a107.39 107.39 0 0014.95-1.21v27.48a118.69 118.69 0 00-14.8-.91h-4.53v7.55a105.32 105.32 0 001.21 18.57h-31.11a131 131 0 001.21-18.79v-7.4H283.6c-9.82 0-14.05.15-19.63.61zm62.51-16c0-6.8.3-15.1.9-21.74-3 4.22-5.28 7.24-9.36 12.38l-22 26.88h30.5z" fill="#2e7ce4"/><path d="M264.24 174.13c6.79-7.55 6.79-7.55 14.49-16.61l32.77-38.36a150.72 150.72 0 0014-18h31a217 217 0 00-1.21 25.07v49.08h4.38a107.39 107.39 0 0014.95-1.21v27.48a118.69 118.69 0 00-14.8-.91h-4.53v7.55a105.32 105.32 0 001.21 18.57h-31.11A131 131 0 00326.6 208v-7.4h-42.73c-9.82 0-14.05.15-19.63.61zm62.51-16c0-6.8.3-15.1.9-21.74-3 4.22-5.28 7.24-9.36 12.38l-22 26.88h30.5z" transform="translate(-.27 -63.77)" fill="url(#c)"/><path d="M166.26 151.17a47.64 47.64 0 01-11-16.77 100.34 100.34 0 01-5.89-34.58c0-15.85 3.78-32.31 9.52-41.82 9.21-15.41 24.91-23.86 43.94-23.86 14.65 0 27.48 5 36.69 14a47.6 47.6 0 0111 16.76 100.62 100.62 0 015.88 34.73c0 15.86-3.77 32.47-9.51 42-9.06 15.12-24.91 23.6-44.09 23.6-14.8 0-27.33-4.86-36.54-14.06zm14-52.55c0 27 7.7 40.92 22.65 40.92s22.35-13.59 22.35-40.47c0-25.82-7.85-39.41-22.5-39.41-14.15 0-22.46 14.34-22.46 38.96z" fill="#2e7ce4"/><path d="M166.53 214.94a47.64 47.64 0 01-11-16.77 100.34 100.34 0 01-5.89-34.58c0-15.85 3.78-32.31 9.52-41.82 9.21-15.41 24.91-23.86 43.94-23.86 14.65 0 27.48 5 36.69 14a47.6 47.6 0 0111 16.76 100.62 100.62 0 015.88 34.73c0 15.86-3.77 32.47-9.51 42-9.06 15.12-24.91 23.6-44.09 23.6-14.8 0-27.33-4.86-36.54-14.06zm14-52.55c0 27 7.7 40.92 22.65 40.92s22.35-13.59 22.35-40.47c0-25.82-7.85-39.41-22.5-39.41-14.15 0-22.46 14.34-22.46 38.96z" transform="translate(-.27 -63.77)" fill="url(#d)"/><path d="M34.21 110.36c6.8-7.55 6.8-7.55 14.5-16.61l32.77-38.36a150.72 150.72 0 0014-18h31a217 217 0 00-1.21 25.07v49.08h4.38a107.39 107.39 0 0015-1.21v27.48a118.69 118.69 0 00-14.8-.91h-4.53v7.55a105.32 105.32 0 001.21 18.57H95.37a131 131 0 001.21-18.79v-7.4H53.84c-9.81 0-14 .15-19.63.61zm62.52-16c0-6.8.3-15.1.9-21.74-3 4.22-5.28 7.24-9.36 12.38l-22 26.88h30.46zm72.92 57.37a47.62 47.62 0 01-11-16.76 100.34 100.34 0 01-5.92-34.58c0-15.85 3.78-32.31 9.52-41.83 9.21-15.4 24.91-23.85 43.94-23.85 14.64 0 27.48 5 36.69 14a47.48 47.48 0 0111 16.76 100.35 100.35 0 015.92 34.76c0 15.85-3.77 32.47-9.51 42-9.06 15.1-24.92 23.55-44.09 23.55-14.8-.01-27.33-4.84-36.55-14.05zm14.08-52.5c0 27 7.7 40.92 22.65 40.92 14.8 0 22.35-13.59 22.35-40.46 0-25.83-7.86-39.42-22.5-39.42-14.23-.04-22.5 14.3-22.5 38.96z" fill="#2e7ce4"/><path d="M231.1 110.45a7.06 7.06 0 012.71 7.34 14.34 14.34 0 019.74 5.2 18.8 18.8 0 013.75 9.77 51.3 51.3 0 01-.23 10.58 11 11 0 01-.74 3.54 7.5 7.5 0 01-5.13 3.85 22.09 22.09 0 01-6.6.31l-5.25-.28a1.08 1.08 0 01-.5-.11 1 1 0 01-.35-.72c-.36-2.15-.91-3.09-1.3-5.24a33.51 33.51 0 00-5.6-12.59 4.72 4.72 0 01-1-1.95 5.29 5.29 0 01.64-2.86A39.39 39.39 0 00223 122a55.82 55.82 0 011.65-6.38 9.36 9.36 0 014-5.08" transform="translate(-.27 -63.77)" fill="url(#e)"/><path d="M228.65 173.26s19.22 1.7 28-10c3.5-4.64-4.3-26.5-4.3-26.5l-8.87 15.88-14 3.18z" transform="translate(-.27 -63.77)" fill="url(#f)"/><path d="M267.65 110.36c6.79-7.55 6.79-7.55 14.49-16.61l32.77-38.36c7.25-8.3 10.12-12.08 14-18h31a217 217 0 00-1.18 25.1v49.08h4.38a107.39 107.39 0 0014.95-1.21v27.48a118.69 118.69 0 00-14.8-.91h-4.53v7.55a105.32 105.32 0 001.21 18.57H328.8a131 131 0 001.21-18.82v-7.4h-42.73c-9.82 0-14.05.15-19.63.61zm62.51-16c0-6.8.3-15.1.91-21.74-3 4.22-5.29 7.24-9.36 12.38l-22.05 26.88h30.5z" fill="#2e7ce4"/><path d="M183.28 75.29a10.18 10.18 0 00-1.5.69 3.47 3.47 0 00-1.16.95 1.48 1.48 0 00-.2 1.43 1.86 1.86 0 001.93.81c1.23-.12 2.37-.73 3.6-.94s2.39-1.06 1.52-2.37-2.96-1.03-4.19-.57z" fill="#f7af87"/><path d="M187.2 78.23c-1.8-.47-3.68.32-5.3 1.23a3.13 3.13 0 00-1 .77 1 1 0 00.69 1.78 3.39 3.39 0 001.1-.07l2.49-.43a5.34 5.34 0 001.67-.48c1.13-.66 2.09-2.37.35-2.8z" fill="#f7af87"/><path d="M183.73 81.54a11.38 11.38 0 00-1.5.7 3.47 3.47 0 00-1.16 1 1.49 1.49 0 00-.2 1.42 1.86 1.86 0 001.93.81c1.23-.12 2.37-.73 3.6-.94s2.39-1.05 1.52-2.37-2.98-1.08-4.19-.62z" fill="#f7af87"/><path d="M187.61 84.06c-1.85-.15-3.56 1-5 2.14a3.28 3.28 0 00-.87.95 1 1 0 001 1.62 3.3 3.3 0 001.06-.26l2.37-.87a5.34 5.34 0 001.57-.77c.99-.82 1.66-2.64-.13-2.81zm53-28.23a20.16 20.16 0 00-9.35-1.95 3.9 3.9 0 00-1.6.26 1.4 1.4 0 00-.84 1.28 1.94 1.94 0 00.76 1.18 17 17 0 003.94 2.68 3.51 3.51 0 011.16.75 1.06 1.06 0 01.17 1.27c-.33.46-1.09.48-1.34 1-.33.65.5 1.29 1.22 1.41a4.43 4.43 0 002.28-.21 4.25 4.25 0 011.64-.46 4 4 0 011.56.71c1.58.9 6.49.93 6.18-1.81-.29-2.54-3.76-5.06-5.78-6.11z" fill="#f7af87"/><path d="M216.45 77.88s22.11 9.11 24.64 8.64-1.56-22.29-1.56-22.29l7.54-3.45s17 33.7 3.08 38.6a40.45 40.45 0 01-26.48-.28z" fill="#2e7ce4"/><path d="M228.21 65.23a14.94 14.94 0 01-1.36 5.66 10 10 0 01-7.55 4.77 22.39 22.39 0 00-3.34.47 3.15 3.15 0 00-2.29 1.91c-.89 2.16-1.81 4.35-4.68 3.62a3.6 3.6 0 01-.78-.27 7.72 7.72 0 01-2.39-1.75 14.39 14.39 0 01-2.18-2.84 4.15 4.15 0 01-.62-1.58 5.16 5.16 0 01.24-2.05c1-4 1.16-8.53 2.58-12.43a18.24 18.24 0 017.86-9.42c3.59-2.09 8.58-2.12 11.63.73a10.5 10.5 0 013 6.2 29.12 29.12 0 01-.12 6.98z" fill="#f7af87"/><path d="M203.89 60.23c.19-1.88.18-3.79.55-5.64a8 8 0 012.67-4.87 4.44 4.44 0 011.2-.68c.39-.14.8-.22 1.2-.33a15.76 15.76 0 003.34-1.66 16.49 16.49 0 015.12-2 22.74 22.74 0 013.69-.26q3.4-.06 6.83-.06a3.36 3.36 0 011.57.26 2.53 2.53 0 011.11 1.48 7.05 7.05 0 010 4.24 20.22 20.22 0 01-1.75 3.92 6.84 6.84 0 01-1.46 2.09c-.53-.92-1-1.87-1.48-2.83-1.53 1.59-3.94 2-6.14 1.83s-4.36-.74-6.56-.77a4 4 0 00-2.94.87 4.6 4.6 0 00-1 2 49.56 49.56 0 00-1.13 5c-.26-.49-1.31-1.77-1.86-1.75a1.16 1.16 0 00-.81.45c-.91 1-.46 4.67.38 5.73a1.44 1.44 0 01.37.58 1.12 1.12 0 01-.24.83 2.23 2.23 0 01-1.9.78c-.88 0-1.05-1.68-1.14-2.3-.37-2.31.16-4.64.38-6.91z" fill="#606060"/><path d="M207.67 128.22a1.67 1.67 0 01-.16-.83 2.42 2.42 0 00-.09-.85 1.09 1.09 0 00-.51-.59.38.38 0 00-.21 0 .39.39 0 00-.23.28 5 5 0 00.11 3.35 1.33 1.33 0 00.77.86 1 1 0 00.91-.28 1.23 1.23 0 00.26-1.27c-.17-.4-.64-.31-.85-.67z" transform="translate(-.27 -63.77)" fill="url(#g)"/><path d="M216.23 139.88a3.15 3.15 0 00-2.29 1.91c-.89 2.16-1.81 4.35-4.68 3.62a3.6 3.6 0 01-.78-.27 2.33 2.33 0 01-.58-.75 2.69 2.69 0 01.08-2.1 4.69 4.69 0 014.22-2.9 13.45 13.45 0 012.27.3c.46.06 1 0 1.42.05a.87.87 0 01.34.14z" transform="translate(-.27 -63.77)" fill="url(#h)"/></svg>