<svg data-name="Layer 1" xmlns="http://www.w3.org/2000/svg" xmlns:xlink="http://www.w3.org/1999/xlink" viewBox="0 0 681.35 482.93"><defs><linearGradient id="a" x1="354.01" y1="474.38" x2="355.74" y2="323.41" gradientUnits="userSpaceOnUse"><stop offset="0" stop-color="#010101" stop-opacity="0"/><stop offset=".95" stop-color="#010101"/></linearGradient><linearGradient id="b" x1="360.1" y1="95.58" x2="362.1" y2="835.12" xlink:href="#a"/><linearGradient id="c" x1="245.89" y1="174.01" x2="200.06" y2="148.78" xlink:href="#a"/><linearGradient id="d" x1="211.76" y1="152.4" x2="174.2" y2="148.48" xlink:href="#a"/><linearGradient id="e" x1="355.41" y1="378.53" x2="355.56" y2="432.33" xlink:href="#a"/><linearGradient id="f" x1="584.16" y1="289.98" x2="620.13" y2="318.41" gradientTransform="rotate(-11.58 198.64 866.428)" gradientUnits="userSpaceOnUse"><stop offset="0" stop-color="#fff" stop-opacity="0"/><stop offset=".95" stop-color="#fff"/></linearGradient><linearGradient id="g" x1="255.18" y1="110.12" x2="216.32" y2="191.53" xlink:href="#a"/><linearGradient id="h" x1="213.36" y1="114.36" x2="172.32" y2="130.75" xlink:href="#a"/><linearGradient id="i" x1="218.89" y1="137.05" x2="160.13" y2="123.42" xlink:href="#a"/><linearGradient id="j" x1="336.24" y1="74.84" x2="353.68" y2="117.28" xlink:href="#a"/><linearGradient id="k" x1="230.85" y1="177.21" x2="261.45" y2="164.44" xlink:href="#a"/><linearGradient id="l" x1="203.37" y1="177.86" x2="263.41" y2="148.42" xlink:href="#a"/><linearGradient id="m" x1="214.12" y1="115.76" x2="161.13" y2="132.97" xlink:href="#a"/><linearGradient id="n" x1="219.44" y1="90.97" x2="256.64" y2="45.65" xlink:href="#a"/><linearGradient id="o" x1="218.83" y1="75.15" x2="225.9" y2="74.16" xlink:href="#a"/></defs><path d="M286.7 46.02c-55.33-11.85-119.47-2.61-156.86 39.86-16 18.24-25.91 41-34.94 63.55-11.66 29.13-22.63 59.06-41.38 84.23-17.17 23.08-40.95 42.36-49.83 69.7-13.07 40.27 10.67 83 37.94 115.41 14.63 17.38 31.06 34 51.63 43.65 17.5 8.19 37 10.85 56.2 12.92 110.31 11.9 221.65 7.35 332.51 2.79 31.18-1.28 62.5-2.58 93.17-8.4 24.17-4.59 48.26-12.21 68.21-26.62s35.39-36.38 37.69-60.88c2.06-22-6.39-43.64-17.5-62.69-8.88-15.22-19.83-30.17-21.74-47.68-1.72-15.78 4.18-31.25 7-46.87 8.76-47.91-14.18-100.07-55.41-126-27.75-17.46-61.1-23.07-93.47-28.32l-76.74-12.46c-22.75-3.69-41.6-1-64.05.27-24.67 1.43-48.6-7.31-72.43-12.46z" fill="#2e7ce4" opacity=".24" style="isolation:isolate"/><path fill="#2e7ce4" d="M428.61 465.31H279.29l26.06-51.61h103.5l19.76 51.61z"/><path fill="url(#a)" d="M425.6 457.79H282.8l22.55-44.09h103.5l16.75 44.09z"/><path fill="#2e7ce4" d="M267.09 461.58h175.32v12.5H267.09zm307.32-346.24v295.12a13.76 13.76 0 01-13.81 13.74H156.87a13.76 13.76 0 01-13.78-13.74V115.34a13.83 13.83 0 0113.81-13.81h403.7a13.83 13.83 0 0113.81 13.81z"/><path d="M576.32 173.32v246.79H145V173.32a13.83 13.83 0 0113.81-13.81h403.7a13.83 13.83 0 0113.81 13.81z" transform="translate(-1.91 -57.98)" fill="url(#b)"/><path fill="#fff" d="M158.88 118.92h401.49V351.4H158.88z"/><path d="M438.14 137.49l87.36-23.19a8.34 8.34 0 0110.22 6l22 86.24a8.35 8.35 0 01-6.08 10.16l-91.11 22.64a8.34 8.34 0 01-10.21-6.32l-18.23-85.73a8.35 8.35 0 016.05-9.8z" fill="#2e7ce4" opacity=".24" style="isolation:isolate"/><rect x="55.9" y="243.81" width="186.69" height="65.39" rx="18.35" fill="#2e7ce4" opacity=".24" style="isolation:isolate"/><rect x="454.59" y="312.02" width="186.69" height="65.39" rx="18.35" fill="#2e7ce4" opacity=".24" style="isolation:isolate"/><path d="M251.57 103.14c.29 6.22-7.66 37.17-9.39 38.32-1.44 1-4-.33-5.52-1.23-.29-.21-.5-.37-.7-.5-1.16-.86.7-24.64.7-24.64s.58-8.07-5.07-12.77c-6.3-5.23-13.52-10.06-13-13.76 0-.54 8.91-5.53 9.32-6 3.18-3.79 12.56 3.59 16.35 6.39a1.58 1.58 0 00.21.12.14.14 0 010 .08c.08.09.2.25.41.46.29.37.74.9 1.24 1.52a46 46 0 013.58 5.81 16.79 16.79 0 011.87 6.2z" fill="#606161"/><path d="M251.63 154.94c0 1.61-12.4-1.07-13.93 1.61s1.86 1.61 3.05 7.54 0 30.45-1.32 33a3 3 0 01-.86 1.07c-.29-.21-.5-.37-.7-.5-1.16-.86.7-24.64.7-24.64s.58-8.07-5.07-12.77c0 0 .87-5.36-3.05-8.41a47.05 47.05 0 00-10-5.35c.45-.17 12.45-7.31 13.44-6.81.12.08 3.4.35 12.48 7.42.08.09.2.25.41.46.29.37.74.9 1.24 1.52 1.55 2.07 3.61 4.92 3.61 5.86z" transform="translate(-1.91 -57.98)" fill="url(#c)"/><path d="M226.93 139.12a12.6 12.6 0 01-3.13 4.94c-1.52 1.28-3.83 1.81-5.48.78-1.94-1.19-2.31-3.75-2.51-6-.66-7.75-.7-21.22-1.36-29a3.45 3.45 0 00-1.11-2.27h-.05a10.35 10.35 0 00-3.29-1.69c-2.35-.78-5.28-1.4-7.46-2.84a7.28 7.28 0 01-2-1.85c-3.87-5.32-5.32-16.12-2.1-21.27a5.63 5.63 0 014.24-2.88c5.61-.7 15.7 3 18.05 8 .74 1.65 1.07 3.47 2.14 4.91 1.86 2.59 5.53 3.38 7.34 6a10.77 10.77 0 011.48 4.54 70.64 70.64 0 01-4.76 38.63z" fill="#606161"/><path d="M216.28 163.76a2.67 2.67 0 01-.09 2.39c-.33-.17-.61-.37-.94-.54h-.05c-1.07-.57-2.18-1.15-3.29-1.69-1.57-.7-3.22-1.36-4.86-1.93-.87-.29-1.74-.58-2.6-.91a7.28 7.28 0 01-2-1.85c-3.87-5.32-5.32-16.12-2.1-21.27 3.13.21 6.18 1.65 9 3 1.69.83 3.38 1.61 5 2.56 1.07.61 3.25 1.52 1.56 2.72-2.3 1.6-6.71-1.24-8.48 1.36a3.94 3.94 0 00-.5 1.93c-.08 1-.16 2-.25 3.05a7.51 7.51 0 00.17 2.72 6.1 6.1 0 002.39 2.72 61.34 61.34 0 015.52 3.83 6.29 6.29 0 011.52 1.91z" transform="translate(-1.91 -57.98)" fill="url(#d)"/><circle cx="355.45" cy="392.66" r="9.52" fill="url(#e)"/><path fill="#2e7ce4" opacity=".61" style="isolation:isolate" d="M278.56 225.96h168.23v17.98H278.56z"/><path fill="#fff" d="M280.11 227.62h164.94v14.4H280.11z"/><path fill="#2e7ce4" opacity=".61" style="isolation:isolate" d="M278.56 249.17h83.53v10.44h-83.53zm87.01 0h83.53v10.44h-83.53z"/><path d="M445.16 135.02l77-20.44a9 9 0 0110.93 6.44l19.33 75.9a9 9 0 01-6.52 10.9l-80.3 20a9 9 0 01-10.92-6.83l-16-75.42a9 9 0 016.48-10.55z" fill="#fff"/><path d="M488.88 136.95c5.34.21 9 3.07 12.42 7 10.59 12.29 21.44 24.35 32.13 36.55 5.39 6.15 4.34 15-2.18 19.51a12.64 12.64 0 01-16.58-1.77c-6.31-6.85-12.41-13.9-18.6-20.86-.43-.48-.9-.93-1.35-1.4-3.73-4.25-7.39-8.56-11.19-12.74-3.34-3.68-6.68-7.31-7.49-12.48.59-5.84 3.15-10.36 8.62-12.95z" fill="#2e7ce4"/><path d="M476.09 150.77c.81 5.17 4.15 8.8 7.49 12.48 3.8 4.18 7.46 8.49 11.19 12.74l-7.68 22.74a3.88 3.88 0 01-1 2v-1c-.44-9.24-8.08-14.8-16.91-12.33-2.89.81-4.82 2.92-6.82 4.93-.3-1 .34-1.87.63-2.76q6.18-18.8 12.42-37.55c.04-.42.09-1 .68-1.25z" fill="#2e7ce4"/><path d="M478 208.75c.81 5.17 4.15 8.8 7.49 12.48 3.8 4.18 7.46 8.49 11.19 12.74L489 256.71a3.88 3.88 0 01-1 2v-1c-.44-9.24-8.08-14.8-16.91-12.33-2.89.81-4.82 2.92-6.82 4.93-.3-1 .34-1.87.63-2.76q6.18-18.8 12.42-37.55c.04-.42.09-1 .68-1.25z" transform="translate(-1.91 -57.98)" fill="url(#f)"/><path d="M462.25 192.39c2-2 3.93-4.12 6.82-4.93 8.83-2.47 16.47 3.09 16.91 12.33v1c-.23 5.82-4.69 10.63-10.9 11.78a13 13 0 01-13.88-7.5c-1.9-4.23-1.09-8.23.57-12.24.32 0 .53-.07.46-.45zm18.86-69.18l-3.58-109.83.34-.09 3.58 109.83-.34.09zM235.77 34.09c5.61 2.83 15.46 8.17 20.46 12a5.87 5.87 0 002.29 1.26 5.75 5.75 0 003-.45l9.52-3.27a5.19 5.19 0 012.89-.4c1.72.42 2.54 2.55 2.17 4.28a10.41 10.41 0 01-2.79 4.46l-5 5.56c-1.88 2.11-3.9 4.31-6.59 5.17-4.06 1.29-8.36-.81-12-3-6.78-4.17-16.08-6.39-20-13.5-1.19-2.15-1.23-9.44 1-11.64 2.37-2.47 2.66-1.67 5.05-.47z" fill="#2e7ce4"/><path d="M238.31 110.88l.58-5.22s15.47 10 19.14 9.47 17.47-9.37 17.47-9.37-3.35 9.76-9.34 13.24-3.29 4.06-27.85-8.12z" transform="translate(-1.91 -57.98)" fill="url(#g)"/><path d="M197.29 76.95a6.13 6.13 0 00.87 3.61 6.75 6.75 0 002.45 1.75c4.59 2.3 9.25 4.63 14.3 5.59s10.61.36 14.7-2.74a8.87 8.87 0 003.22-4.24c.65-2.08.21-4.33.1-6.51-.28-5.44 1.53-10.73 2.8-16s1.93-11.1-.47-16c-1.89-3.84 2.18-7.07-1.4-9.42-5-3.31-11-4.91-19.23-3.68-3.2.48-14.12 5-15.3 8s2.27 6.08 1.86 9.29c-1.25 9.95-3.9 20.32-3.9 30.35z" fill="#2e7ce4"/><path d="M215.79 120.55a9.53 9.53 0 01-3.41-6.58c-.1-1.8.36-3.61.15-5.4a7.24 7.24 0 00-2.6-4.75 1.33 1.33 0 00-2.11.2c-3.22 3.09-3.7 8-3.88 12.47-.08 2.13-.08 4.47 1.3 6.1 1.21 1.44 3.2 1.93 5.06 2.18s8 1.14 9.41-.3c2.03-2.02-2.58-2.78-3.92-3.92z" transform="translate(-1.91 -57.98)" fill="url(#h)"/><path d="M205.74 135.84a1.26 1.26 0 01.42-.44 1.44 1.44 0 01.8-.08c1.57.16 11.82.83 12.23.55s8.88-4.14 8.68-4.59-14.49-1.63-15-1.74c-1.73-.4-4 2.41-5.57 1.59A25.94 25.94 0 00203 129c-1.21-.36-2.86-.22-3.28 1a3 3 0 00-.13.85l-.17 3.6a7.67 7.67 0 00.49 3.93c.83 1.61 2.64 2.42 4.32 3.11a2.52 2.52 0 001.63.23c-.86-1.93-1.36-3.95-.12-5.88z" transform="translate(-1.91 -57.98)" fill="url(#i)"/><path d="M214.53 77.51a418.32 418.32 0 0160.69-32.9 329.22 329.22 0 0165.41-21.59 342.82 342.82 0 0134.08-5.08q17.11-1.87 34.27-3.11c22.88-1.5 45.84-2.39 68.74-1.13-22.91-.92-45.84.32-68.66 2.16q-17.12 1.48-34.17 3.62a336.67 336.67 0 00-33.8 5.54 326.32 326.32 0 00-64.58 22.44 415.14 415.14 0 00-59.6 33.46z" fill="#2e7ce4"/><path d="M216.44 135.49c19.35-12.7 40.64-23 61.7-32.25A323.48 323.48 0 01343 81.7a337.06 337.06 0 0133.79-5c11.4-1.25 22.84-2.6 34.28-3.43 22.87-1.49 45.69-2.85 68.59-1.59-22.91-.92-45.84.32-68.66 2.16q-17.12 1.48-34.17 3.62A336.67 336.67 0 00343 83a326.32 326.32 0 00-64.58 22.44 415.14 415.14 0 00-59.6 33.46z" transform="translate(-1.91 -57.98)" fill="url(#j)"/><path d="M236.35 187.37c-.1 1.75-.18 3.67.87 5.07 2.77-1.65 3.6-5.22 3.95-8.42a69.65 69.65 0 00-.52-19 8.61 8.61 0 00-.87-2.91 7.89 7.89 0 00-3.62-2.88 6.07 6.07 0 00-2.86-.75 2.4 2.4 0 00-2.25 1.65 3.57 3.57 0 00.19 1.82 26.27 26.27 0 002.16 6.13 17.25 17.25 0 012.17 5.06 44.87 44.87 0 01.78 14.23z" transform="translate(-1.91 -57.98)" fill="url(#k)"/><path d="M198.58 164.27c2 1.59 4.72 2.08 7.3 2.26 1 .06 1.9.09 2.85.13a5.34 5.34 0 015.11 5.08q.1 3 .11 5.91c0 4.73-.16 9.67 1.91 13.91.44.88 1.14 1.83 2.12 1.84a2.38 2.38 0 001.44-.58 7.44 7.44 0 002.49-4.12 19.89 19.89 0 00.42-4.87c0-6.26-.55-12.65-3-18.41a13 13 0 00-1-1.9 11 11 0 00-6.77-4.51 26.76 26.76 0 00-8.29-.43c-1.32.08-2.63.19-4 .26-.74 0-3.5-.38-4 0-.97.91 2.52 4.83 3.31 5.43z" transform="translate(-1.91 -57.98)" fill="url(#l)"/><path d="M218.09 154.02a10.92 10.92 0 002.3 1.73l3.6 2.24c1.3.81 3 1.6 4.23.69s1-2.49.58-3.79a12 12 0 00-3.26-5 3 3 0 01-.79-.9 2.56 2.56 0 01-.16-1.17v-3.7c0-3.76-5.16-3.08-6.79-.86-2.01 2.7-2.07 8.26.29 10.76zm18-4.62a7.85 7.85 0 003.73 3.05 26.67 26.67 0 004.57 1.69 2.11 2.11 0 002-.17 1.93 1.93 0 00.48-1 7.42 7.42 0 00-1.81-6.66 12.3 12.3 0 01-2-2.15c-.7-1.24-.55-2.75-.68-4.17-.28-3.1-5.22-2.29-6.41-.28s-.88 7.74.12 9.69z" fill="#606161"/><path d="M205.89 117.34c.05-1.51 1.36-2.63 2.35-3.78a11 11 0 002.61-7.79c-.1-1.61-1.16-3.59-2.74-3.25a2.92 2.92 0 00-1 .51 18.74 18.74 0 00-7.41 10.34 9.76 9.76 0 00-.32 4.61 10.74 10.74 0 003.4 5.24 28.77 28.77 0 0010.7 6.39c1.06.35 4.29 1.42 3.57-.62-.44-1.14-11.2-10.16-11.16-11.65z" transform="translate(-1.91 -57.98)" fill="url(#m)"/><path d="M216.15 80.75l10.18.06s-2.16 3.55-3.94 3.75zm-19.75-36.8a69.71 69.71 0 00-1.79 15.16c0 3.61.29 7.46 2.51 10.31a12.26 12.26 0 008.16 4.24 36.52 36.52 0 009.39-.34l9.45-1.17a5 5 0 002.06-.57c1.9-1.2 1.22-4.36-.59-5.7s-3.9.77-6.06.12c-2.39-.72-10.91-2.46-12.67-4.23a2.39 2.39 0 01-.75-1.16 2.85 2.85 0 01.22-1.43c2.1-6.33 7.44-17.12 2.92-22.38-5.54-6.45-11.56 1.54-12.85 7.15z" fill="#2e7ce4"/><path d="M218.84 39.56a5.53 5.53 0 006-.53 4.59 4.59 0 001.47-2.7c.45-3-2-5.7-1.83-8.68.11-1.48.89-3 .36-4.39-.45-1.18-7.07-3.11-7.31-1.86-1.7 8.8-5.93 14.55 1.31 18.16z" fill="#f4a982"/><path d="M220.38 79.81s-.69 12.91 6.27 12c0 0 1.09-.15.76-1.74s-1.66-3.23-1.59-4.64-5.44-5.62-5.44-5.62z" transform="translate(-1.91 -57.98)" fill="url(#n)"/><path d="M235.84 13.81c-.42 3.7-2.81 7.91-4.29 10.5a14.47 14.47 0 01-3.67 4.5 5.83 5.83 0 01-5.52.82c-1.65-.7-2.68-2.35-3.46-4a17.84 17.84 0 01-1.73-8.24c.16-3 1.56-8.61 5.77-6.47.86.45 1.44 1.28 2.26 1.81a3.81 3.81 0 003.92.21c.45-.25.95-.62 1.44-.45a1.91 1.91 0 01.62.41 3 3 0 003.54 0 1.69 1.69 0 001.12.91zm1.34 49.53a6.36 6.36 0 012.64 3.27 1.85 1.85 0 01.2.79 1.51 1.51 0 01-.44.91c-1.76 2-5 1.25-7.36 2.41-.59.29-1.12.7-1.73.93a6.19 6.19 0 01-2.5.25c-.89 0-1.78-.12-2.67-.22-2.14-.25-2.58-2.6-1.91-4.36.61-1.59 1.6-1.93 3.15-2.19 3.21-.54 7.41-3.48 10.62-1.79z" fill="#f4a982"/><path d="M239.99 10.18c1.94-.66 2.6-3.38 1.57-5.16a6.2 6.2 0 00-5.15-2.84 1.48 1.48 0 01-1-.25 2.42 2.42 0 01-.49-.66C234.21.16 232.69 0 231.37 0a7.51 7.51 0 00-3.71.62c-.9.49-1.6 1.4-2.63 1.77a14.19 14.19 0 01-3.22.29 4.54 4.54 0 00-3.34 2.39 4.63 4.63 0 01-.7 1.27 10.21 10.21 0 01-.86.66 5 5 0 00-1.82 3.88 15.41 15.41 0 00.74 4.32 1.49 1.49 0 00.37.74c.45.37 2 1.51 2.29 1 .58-1 .28-3.28 1.47-3.85s1.06.44 2 1a3.73 3.73 0 003.17.33c.54-.21 1-.49 1.57-.7a2.21 2.21 0 011.64-.08c1 .45 1.12 1.85 2 2.51a2.21 2.21 0 003-.7 2.55 2.55 0 00.82 1.32 1.09 1.09 0 001.49-.08c.2-.25.24-.66.49-.91a1.4 1.4 0 01.91-.29 3.23 3.23 0 001.69 0 3.79 3.79 0 002.67-2.31 2.41 2.41 0 00-1.42-3z" fill="#606161"/><path d="M217.25 15.02a1.15 1.15 0 00-.55-.11 1 1 0 00-.69.54 2.24 2.24 0 00-.17.89 5.49 5.49 0 00.13 1.34 2.26 2.26 0 001.49 1.84 1.48 1.48 0 001.69-1 3.41 3.41 0 00-1.9-3.5z" fill="#f4a982"/><path d="M219.55 75.26c-.13-.24 0-.52 0-.79s-.36-.5-.73-.67a.22.22 0 00-.12.09 2.09 2.09 0 00-.17 1.73 1.31 1.31 0 00.3.57.67.67 0 00.59.22.83.83 0 00.54-.58c.04-.43-.23-.26-.41-.57z" transform="translate(-1.91 -57.98)" fill="url(#o)"/><path d="M276.33 40.26c-1.06.88-2.1 1.78-3.1 2.72a3.78 3.78 0 00-1.2 1.61c-.36 1.22.53 2.46 1.56 3.19a7.42 7.42 0 0010.62-2.1 4.61 4.61 0 00.59-4.15 4.06 4.06 0 00-2.77-2.21 6.72 6.72 0 00-5.7.94z" fill="#f4a982"/><path d="M357.84 210.42a14.82 14.82 0 1114.82-14.82 14.83 14.83 0 01-14.82 14.82zm0-25.52a10.7 10.7 0 1010.7 10.7 10.71 10.71 0 00-10.7-10.7z" fill="#2e7ce4"/><path fill="#2e7ce4" d="M363.066 206.014l3.49-2.76 9.839 12.44-3.49 2.76z"/><rect x="49.57" y="233.27" width="186.69" height="65.39" rx="18.35" fill="#fff"/><rect x="68.91" y="251.2" width="151.18" height="5.63" rx="2.81" fill="#2e7ce4" opacity=".24" style="isolation:isolate"/><rect x="68.91" y="266.75" width="106.4" height="5.32" rx="2.29" fill="#2e7ce4" opacity=".24" style="isolation:isolate"/><rect x="461.44" y="317.64" width="186.69" height="65.39" rx="18.35" fill="#fff"/><rect x="480.78" y="335.57" width="151.18" height="5.63" rx="2.81" fill="#2e7ce4" opacity=".24" style="isolation:isolate"/><rect x="480.78" y="351.13" width="106.4" height="5.32" rx="2.29" fill="#2e7ce4" opacity=".24" style="isolation:isolate"/></svg>