<svg data-name="Layer 1" xmlns="http://www.w3.org/2000/svg" xmlns:xlink="http://www.w3.org/1999/xlink" viewBox="0 0 382.53 318.69"><defs><linearGradient id="b" x1="146" y1="26.45" x2="157.8" y2="125.68" gradientUnits="userSpaceOnUse"><stop offset="0" stop-opacity="0"/><stop offset=".99"/></linearGradient><linearGradient id="a" x1="227.15" y1="-53.31" x2="196.61" y2="511.54" gradientUnits="userSpaceOnUse"><stop offset="0" stop-opacity="0"/><stop offset=".95"/></linearGradient><linearGradient id="c" x1="277.01" y1="281.3" x2="187.32" y2="285.3" xlink:href="#a"/><linearGradient id="d" x1="280.56" y1="263.11" x2="167.47" y2="248.23" xlink:href="#a"/><linearGradient id="e" x1="256.93" y1="271.8" x2="161" y2="270.58" xlink:href="#a"/><linearGradient id="f" x1="282.68" y1="271.73" x2="390.76" y2="270.86" xlink:href="#a"/><linearGradient id="g" x1="221.13" y1="261.85" x2="204.04" y2="293.85" xlink:href="#a"/><linearGradient id="h" x1="122.37" y1="253.77" x2="125.19" y2="323.2" xlink:href="#a"/></defs><path d="M78.07 16.35C62.19 27.61 48.64 76.81 37.64 92.03c-77.72 107.43-15.38 181.18 12.17 203.39 21.12 17 51.05 22.4 79.52 23.16 47.85 1.27 95.33-8.53 143.2-8.37 25.21.09 52.12 2.6 74-8.48 29.74-15 39-50 35.15-80.26s-17.55-58.95-21.58-89.17c-2.95-22.16-.81-45.46-10.87-65.9-12.81-26-43.38-42.16-74.47-48.7s-63.47-5.16-95.4-6c-17.5-.53-28.55-9.67-45.35-11.38-19.25-1.99-41.18 5.58-55.94 16.03z" fill="#2e7ce4" opacity=".24" style="isolation:isolate"/><path d="M50.91 103.71c-2.59 27.24 4.47 55.2-1.75 81.85-2.19 9.38-6 18.4-7.2 28s.8 20.27 8.22 26.47c4.23 3.51 9.69 5.1 14.5 7.77s9.33 7.23 9.08 12.69c-.14 3.28-2 6.41-1.55 9.66.77 5.85 7.83 8.21 13.64 9.26a875.68 875.68 0 00214.09 12c11.88-.8 25.36-2.73 32.09-12.55 6.24-9.12 3.62-22.55-4.45-30.1-2-1.87-4.34-3.52-5.59-6-3.06-6 1.68-12.72 4.8-18.67 7.6-14.52 5.64-32 3.48-48.22-1.18-8.91-2.49-18.16-7.46-25.65-5.09-7.66-13.37-12.49-21.39-17-35.55-20-71.91-39-110.7-51.62-37.08-12.01-133.96-39.5-139.81 22.11z" fill="#2e7ce4" opacity=".24" style="isolation:isolate"/><path d="M166.76 39.92H91.29a21.72 21.72 0 00-21.73 21.72v47.67h126.76V64.44z" fill="#2e7ce4"/><path d="M187 39.89h-75.47A21.72 21.72 0 0089.8 61.61v47.67h126.76V64.41z" transform="translate(-20.24 .03)" fill="url(#b)"/><rect x="69.52" y="65.36" width="256.8" height="179.73" rx="28.3" fill="#2e7ce4"/><path d="M152.18 136.77v-2.09a1.76 1.76 0 00.1-.3 24.26 24.26 0 012.34-7.68 15.06 15.06 0 013.06-4.51 4.08 4.08 0 014.41-1.11c.53.19 1.08.33 1.61.52a15.69 15.69 0 0010.6.16c3.47-1.22 6.27-3.3 7.53-7a21.89 21.89 0 00.49-12.89 4.72 4.72 0 011.19-4.84 11.32 11.32 0 012-1.66 26.55 26.55 0 0111.68-4.11c2.75-.34 4.23.59 5.28 3.17 0 .06 0 .12.07.18 1.71 3.92 4.31 7 8.37 8.57a14.32 14.32 0 0018.19-8.09 8.36 8.36 0 012.36-3.09 3.11 3.11 0 012.16-.76 21.84 21.84 0 017.4 1.63 17.25 17.25 0 017.32 5.13 4.31 4.31 0 01.82 4.6c-.1.26-.19.53-.3.79a14.22 14.22 0 00-1.2 4.71 13.6 13.6 0 007 13.31c4.7 2.45 9.5 2 14.2-.11a4.57 4.57 0 015.38.86 13.31 13.31 0 011.91 2.46 29.3 29.3 0 013.74 11.38 4.6 4.6 0 01-3 5.15 17 17 0 00-6.95 5 13.88 13.88 0 005.34 21.74 9.35 9.35 0 012.37 1.46 5.1 5.1 0 012 4.31 21.22 21.22 0 01-4.55 12.5 7 7 0 01-7.82 2.33 17.92 17.92 0 00-9.63-.73 10.92 10.92 0 00-5.48 2.38 13.86 13.86 0 00-3.42 4.78 15.18 15.18 0 00.27 12.09 6.71 6.71 0 01.51 2.64 5.08 5.08 0 01-2.21 4 25.3 25.3 0 01-12.89 5.15 4 4 0 01-3-.73 6.86 6.86 0 01-2.08-2.76 17.77 17.77 0 00-4-6 13 13 0 00-16.31-1.94 16.53 16.53 0 00-6.68 8 4.83 4.83 0 01-4 3.25 8.46 8.46 0 01-2.46.05 29.76 29.76 0 01-10.28-3.53 15.66 15.66 0 01-4.27-3.28 4.39 4.39 0 01-1-4.66c.29-.84.67-1.65 1-2.47a13.08 13.08 0 00-2.91-14.38 8.87 8.87 0 00-4-2.26 19.94 19.94 0 00-10.86.33c-3.18.93-5.49.1-7.29-2.69a24.94 24.94 0 01-3.31-7.32c-.38-1.44-.62-2.92-.92-4.38v-.91c0-.23.09-.46.12-.69a4.61 4.61 0 013-4.08 18.41 18.41 0 007.88-6.22 12.18 12.18 0 00-.45-15.48 19.49 19.49 0 00-7.51-5.46A4.06 4.06 0 01153 139c-.36-.7-.57-1.48-.82-2.23zm93.58 18a29.8 29.8 0 10-29.88 29.89 29.79 29.79 0 0029.88-29.85z" transform="translate(-20.24 .03)" fill="url(#a)"/><path d="M244.26 274.27H78.07c-2.88 0-15.62-1.64-15.62-3.65 0-2 12.74-3.64 15.62-3.64h166.19z" fill="#fff"/><path d="M334.54 269.9v2.49a15.77 15.77 0 01-15.78 15.75h-98.23a15.79 15.79 0 01-15.13-11.31 15.48 15.48 0 01-.65-4.44v-2.49a15.22 15.22 0 011.56-6.75 15.72 15.72 0 0114.22-9h98.23a15.78 15.78 0 0115.78 15.75z" fill="#2e7ce4"/><path d="M286.41 284v4.16h-45.64a15.79 15.79 0 01-15.13-11.31 15 15 0 013.42-.59s4.44 7.74 10.18 7.74z" transform="translate(-20.24 .03)" fill="url(#c)"/><path d="M199.04 262.39v16.11a4.4 4.4 0 01-3.72 4.37 3.17 3.17 0 01-.69.07 4.44 4.44 0 01-4.44-4.44v-16.11a4.46 4.46 0 014.44-4.44 3.17 3.17 0 01.69.07 4.42 4.42 0 013.72 4.37z" fill="#2e7ce4"/><path d="M298.09 259.2s-53.65-.69-59.91 0-9.71 8.33-9.71 8.33a19 19 0 01-1.92-4.41 15.72 15.72 0 0114.22-9h57z" transform="translate(-20.24 .03)" fill="url(#d)"/><path fill="#2e7ce4" d="M196.09 262.81h18.74v15.61h-18.74z"/><rect x="206.67" y="268.37" width="65.23" height="6.42" rx="3.21" fill="url(#e)"/><rect x="269.3" y="268.37" width="65.23" height="6.42" rx="3.21" fill="url(#f)"/><path d="M219.28 262.36v16.11a4.4 4.4 0 01-3.72 4.37V258a4.42 4.42 0 013.72 4.36z" transform="translate(-20.24 .03)" fill="url(#g)"/><path fill="#fff" d="M83.5 266.98l-4.34-3.99-23.07 3.12v7.63l20.82 3.99 6.42-3.81.17-6.94z"/><path fill="url(#h)" d="M190.19 271.66l-107.73-.17-7.29 3.21-18.68-2.06-.4 1.1 20.82 3.99 5.81-3.47 107.47.35v-2.95z"/></svg>