<svg xmlns="http://www.w3.org/2000/svg" viewBox="0 0 24 24"><path d="M7 20H4v-.1c0-.5.4-.9.9-.9 1.4 0 2.6-.9 3-2.2.4-1.6-.5-3.3-2.1-3.7-1.3-.4-2.7.2-3.4 1.4-.3.5-.1 1.1.4 1.4.5.3 1.1.1 1.4-.4.3-.5.9-.6 1.4-.3.1.1.2.1.2.2.2.3.2.6.2.9-.2.4-.6.7-1 .7-1.7 0-3 1.3-3 2.9V21c0 .6.4 1 1 1h4c.6 0 1-.4 1-1s-.4-1-1-1zm4-13h10c.6 0 1-.4 1-1s-.4-1-1-1H11c-.6 0-1 .4-1 1s.4 1 1 1zM7 9H6V3c0-.6-.4-1-1-1s-1 .4-1 1v1H3c-.6 0-1 .4-1 1s.4 1 1 1h1v3H3c-.6 0-1 .4-1 1s.4 1 1 1h4c.6 0 1-.4 1-1s-.4-1-1-1zm14 7H11c-.6 0-1 .4-1 1s.4 1 1 1h10c.6 0 1-.4 1-1s-.4-1-1-1z"/></svg>