<svg width="36" height="36" xmlns="http://www.w3.org/2000/svg"><defs><filter x="0%" y="0%" width="100%" height="100%" filterUnits="objectBoundingBox" id="a"><feGaussianBlur stdDeviation="0 0" in="SourceGraphic"/></filter></defs><g fill="none" fill-rule="evenodd"><circle fill="'#3b82f6'" cx="18" cy="18" r="18"/><path d="M18.071 25c3.572 0 6.215-2.436 6.929-5.416h-4.024c-.428.805-1.214 1.75-2.857 1.75-1.88 0-3.143-1.418-3.143-3.334 0-1.892 1.262-3.43 3.143-3.334 1.643 0 2.429.945 2.857 1.844h4c-.666-3.216-3.5-5.51-7-5.51C14.024 11 11 14.122 11 17.976 11 21.878 14.071 25 18.071 25Z" fill="#EFF6FF" fill-rule="nonzero" filter="url(#a)"/></g></svg>