<?xml version="1.0" standalone="no"?>
<!DOCTYPE svg PUBLIC "-//W3C//DTD SVG 20010904//EN"
 "http://www.w3.org/TR/2001/REC-SVG-20010904/DTD/svg10.dtd">
<svg version="1.0" xmlns="http://www.w3.org/2000/svg"
 width="512.000000pt" height="512.000000pt" viewBox="0 0 512.000000 512.000000"
 preserveAspectRatio="xMidYMid meet">
<metadata>
Created by potrace 1.14, written by Peter Selinger 2001-2017
</metadata>
<g transform="translate(0.000000,512.000000) scale(0.100000,-0.100000)"
fill="#000000" stroke="none">
<path d="M2447 5104 c-1 -1 -43 -5 -92 -8 -50 -4 -99 -8 -110 -10 -11 -2 -42
-7 -70 -10 -27 -4 -81 -14 -120 -22 -38 -8 -81 -17 -95 -20 -122 -23 -373
-116 -541 -199 -706 -352 -1224 -1035 -1364 -1799 -23 -126 -24 -137 -30 -201
-4 -33 -8 -76 -11 -95 -6 -44 -6 -321 0 -375 3 -22 8 -67 11 -100 65 -628 390
-1240 880 -1656 22 -19 42 -36 45 -39 37 -40 283 -203 405 -270 237 -128 606
-249 844 -276 25 -3 57 -7 71 -10 44 -10 473 -12 545 -3 137 17 161 20 255 39
220 44 450 124 643 224 131 68 178 95 198 112 8 8 19 14 23 14 12 0 132 87
238 172 168 135 365 346 479 513 19 28 36 52 39 55 11 11 119 199 154 268 237
472 325 1048 236 1552 -26 151 -30 172 -36 192 -3 9 -7 25 -9 35 -30 138 -124
384 -208 543 -112 211 -212 353 -383 544 -300 334 -702 588 -1143 722 -63 19
-129 37 -145 40 -17 3 -58 11 -91 18 -33 8 -82 17 -108 21 -27 3 -56 8 -65 10
-63 11 -436 27 -445 19z"/>
</g>
</svg>
