<svg xmlns="http://www.w3.org/2000/svg" enable-background="new 0 0 24 24" viewBox="0 0 24 24"><path d="M9.9169922,2.2236328C9.8242798,2.0839233,9.6677246,1.999939,9.5,2h-8C1.223999,1.9998169,1.0001831,2.2234497,1,2.4993896V21.5c-0.000061,0.2381592,0.1679077,0.4432983,0.4013672,0.4902344C1.4338379,21.9968262,1.4668579,22.000061,1.5,22c0.2011108-0.000061,0.3826294-0.1204834,0.4609375-0.3056641l8-19C10.0253296,2.539856,10.0088501,2.3635254,9.9169922,2.2236328z M2,19.0244141V3h6.7470703L2,19.0244141z M22.5006104,2H14.5c-0.276123-0.0001831-0.5001221,0.2235107-0.5003052,0.4995728c0,0.0668945,0.0133667,0.1331177,0.0393677,0.1947632l8,19C22.1173706,21.8795166,22.2988892,21.999939,22.5,22c0.0331421,0.000061,0.0661621-0.0031738,0.0986328-0.0097656C22.8320923,21.9432983,23.000061,21.7381592,23,21.5v-19C23.0001831,2.223999,22.7765503,2.0001831,22.5006104,2z M22,19.0244141L15.2529297,3H22V19.0244141z M12.4677734,9.3242188C12.3953247,9.1300049,12.2102051,9.0009155,12.0029297,9H12c-0.2059937,0.000061-0.3909302,0.1264038-0.4658203,0.3183594l-3.5,9c-0.1005249,0.256958,0.0262451,0.5467529,0.2832031,0.6472778C8.3755493,18.9884033,8.4375,19.000061,8.5,19h3.1914062l1.3613281,2.7236328C13.1376343,21.8928223,13.3106689,21.9997559,13.5,22h3c0.2756958,0.0004272,0.4995728-0.2226562,0.500061-0.4983521c0.000061-0.0606079-0.0108643-0.1207275-0.0322876-0.1774292L12.4677734,9.3242188z M13.8085938,21l-1.3613281-2.7236328C12.3623657,18.1071777,12.1893311,18.0002441,12,18H9.2304688l2.7607422-7.0986328L15.7783203,21H13.8085938z"/></svg>