<svg xmlns="http://www.w3.org/2000/svg" enable-background="new 0 0 24 24" viewBox="0 0 24 24"><path d="M10.5,12h-8C2.223877,12,2,12.223877,2,12.5S2.223877,13,2.5,13h8c0.276123,0,0.5-0.223877,0.5-0.5S10.776123,12,10.5,12z M10.5,16h-8C2.223877,16,2,16.223877,2,16.5S2.223877,17,2.5,17h8c0.276123,0,0.5-0.223877,0.5-0.5S10.776123,16,10.5,16z M13.5,5h8C21.776123,5,22,4.776123,22,4.5S21.776123,4,21.5,4h-8C13.223877,4,13,4.223877,13,4.5S13.223877,5,13.5,5z M10.5,20h-8C2.223877,20,2,20.223877,2,20.5S2.223877,21,2.5,21h8c0.276123,0,0.5-0.223877,0.5-0.5S10.776123,20,10.5,20z M10.5,8h-8C2.223877,8,2,8.223877,2,8.5S2.223877,9,2.5,9h8C10.776123,9,11,8.776123,11,8.5S10.776123,8,10.5,8z M17.5,20h-4c-0.276123,0-0.5,0.223877-0.5,0.5s0.223877,0.5,0.5,0.5h4c0.276123,0,0.5-0.223877,0.5-0.5S17.776123,20,17.5,20z M21.5,12h-8c-0.276123,0-0.5,0.223877-0.5,0.5s0.223877,0.5,0.5,0.5h8c0.276123,0,0.5-0.223877,0.5-0.5S21.776123,12,21.5,12z M10.5,4h-4C6.223877,4,6,4.223877,6,4.5S6.223877,5,6.5,5h4C10.776123,5,11,4.776123,11,4.5S10.776123,4,10.5,4z M21.5,8h-8C13.223877,8,13,8.223877,13,8.5S13.223877,9,13.5,9h8C21.776123,9,22,8.776123,22,8.5S21.776123,8,21.5,8z M21.5,16h-8c-0.276123,0-0.5,0.223877-0.5,0.5s0.223877,0.5,0.5,0.5h8c0.276123,0,0.5-0.223877,0.5-0.5S21.776123,16,21.5,16z"/></svg>