<svg xmlns="http://www.w3.org/2000/svg" enable-background="new 0 0 24 24" viewBox="0 0 24 24"><path d="M11.6464844,10.8535156C11.7401123,10.9474487,11.8673706,11.0001831,12,11c0.1326294,0.0001221,0.2598267-0.0525513,0.3534546-0.1464844l3.5-3.5c0.1871338-0.1937866,0.1871338-0.5009155,0-0.6947021c-0.1918335-0.1986084-0.5083618-0.2041626-0.7069702-0.0123291L12,9.7930298L8.8534546,6.6465454c-0.1937256-0.1871338-0.5009155-0.1871338-0.6947021,0C7.960144,6.8383789,7.9546509,7.1549072,8.1464844,7.3535156L11.6464844,10.8535156z M15.1464844,12.6464844L12,15.7930298l-3.1465454-3.1464844c-0.1937256-0.1871338-0.5009155-0.1871338-0.6947021,0c-0.1986084,0.1918335-0.2041016,0.5083618-0.0122681,0.7069702l3.5,3.5C11.7401123,16.9474487,11.8673706,17.0001831,12,17c0.1326294,0.0001221,0.2598267-0.0525513,0.3534546-0.1464844l3.5-3.5c0.1871338-0.1937866,0.1871338-0.5009155,0-0.6947021C15.6616211,12.4602051,15.3450928,12.4546509,15.1464844,12.6464844z"/></svg>