<svg xmlns="http://www.w3.org/2000/svg" enable-background="new 0 0 24 24" viewBox="0 0 24 24"><path d="M8.2069702,12l3.1464844-3.1464844c0.1871338-0.1937256,0.1871338-0.5009155,0-0.6947021c-0.1918335-0.1986084-0.5083618-0.2041016-0.7069702-0.0122681l-3.5,3.5c-0.000061,0-0.0001221,0.000061-0.0001221,0.0001221c-0.1951904,0.1951904-0.1951294,0.5117188,0.0001221,0.7068481l3.5,3.5C10.7401123,15.9474487,10.8673706,16.0001831,11,16c0.1325684,0,0.2597046-0.0526733,0.3533936-0.1464233c0.1953125-0.1952515,0.1953125-0.5118408,0.0001221-0.7070923L8.2069702,12z M17.3535156,15.1464844L14.2069702,12l3.1464844-3.1464844c0.1871948-0.1937866,0.1871948-0.5009766,0-0.6947021c-0.1918335-0.1986694-0.5083618-0.2041626-0.7069702-0.0122681l-3.5,3.5c-0.000061,0-0.0001221,0.000061-0.0001221,0.0001221c-0.1951904,0.1951904-0.1951294,0.5117188,0.0001221,0.7068481l3.5,3.5C16.7401123,15.9474487,16.8673706,16.0001831,17,16c0.1325684,0,0.2597046-0.0526733,0.3533936-0.1464233C17.5487061,15.6583252,17.5487061,15.3417358,17.3535156,15.1464844z"/></svg>