<svg xmlns="http://www.w3.org/2000/svg" enable-background="new 0 0 24 24" viewBox="0 0 24 24"><path d="M20.3261719,16.2069702c-1.4378052-0.6118164-2.3703613-2.024231-2.3681641-3.586853c0.0163574-1.3817139,0.7438965-2.6574097,1.9248047-3.375c0.2348022-0.1446533,0.3079224-0.4522705,0.163269-0.6871338c-0.0041504-0.0067139-0.0084229-0.0133667-0.0128784-0.0198364c-0.9196167-1.3247681-2.4089966-2.1394653-4.0205078-2.1992188c-0.171936-0.0177002-0.3449097-0.0232544-0.5175781-0.0166016c1.0227661-1.2186279,1.5263062-2.789978,1.4023438-4.3760376C16.876709,1.6810913,16.6463013,1.4819946,16.3808594,1.5c-2.8693237,0.2629395-5.1738892,2.4782715-5.5498047,5.335022c-0.6322021-0.2815552-1.3139648-0.4348755-2.0058594-0.4512329C6.9256592,6.4390869,5.1937866,7.4851074,4.2607422,9.140625c-1.7851562,3.1005859-0.6680298,7.78125,1.289978,10.6113281c0.7597656,1.0986328,1.9013672,2.7479858,3.5,2.7479858c0.0292969,0,0.0585938,0,0.0878906-0.0009766c0.5615845-0.0337524,1.1109009-0.1784668,1.6162109-0.4257812c0.510437-0.25354,1.0717163-0.3880615,1.6416016-0.3935547c0.5404053,0.0058594,1.0722656,0.135437,1.5546875,0.3789062c0.5474243,0.2654419,1.1465454,0.4071655,1.7548828,0.414978c1.6552734-0.0292969,2.6591797-1.4960938,3.4658203-2.6748047c0.6237793-0.9173584,1.1113281-1.9202881,1.4472656-2.9775391C20.6956787,16.5714722,20.5684204,16.3046265,20.3261719,16.2069702z M13.0507812,4.2441406c0.7547607-0.8527222,1.7613525-1.4430542,2.8740234-1.6855469c-0.045105,1.1608276-0.4771729,2.2732544-1.2275391,3.1601562c-0.3944702,0.4715576-0.8737793,0.8650513-1.4130859,1.1601562L13.265625,6.8896484l-0.1201172,0.046875c-0.3217163,0.1508179-0.6623535,0.2572632-1.0126953,0.3164062c-0.111084-0.0045166-0.2210693-0.0235596-0.3271484-0.0566406C11.8936157,6.104248,12.3300781,5.0693359,13.0507812,4.2441406z M18.3457031,19.234375c-0.8886719,1.2988281-1.5996094,2.2207031-2.6582031,2.2392578c-0.4655151-0.0097656-0.9229736-0.1235352-1.3388672-0.3330078c-0.6075439-0.2991943-1.2749634-0.4567871-1.9521484-0.4609375c-0.7045898,0.0042114-1.399292,0.1660156-2.0332031,0.4736328c-0.394104,0.1970825-0.8231812,0.3145752-1.2626953,0.3457031C9.0830078,21.5,9.0664062,21.5,9.0498047,21.5c-0.9902344,0-1.8320312-1.0947266-2.6767578-2.3164062c-1.5273438-2.2089844-2.9238281-6.6288452-1.2451172-9.5438843c0.7568359-1.3510742,2.1660156-2.2070923,3.7138672-2.2559204h0.0419922c0.6331177,0.0467529,1.2523804,0.2089233,1.8271484,0.4785156c0.1318359,0.0517578,0.2617188,0.1035156,0.3896484,0.1513672c0.024231,0.0112915,0.0493774,0.0204468,0.0751953,0.0273438c0.3045654,0.1246948,0.6282349,0.1963501,0.9570312,0.2119141c0.4789429-0.0469971,0.9459839-0.1775513,1.3798828-0.3857422c0.7553101-0.3691406,1.5882568-0.5513306,2.4287109-0.53125c1.1329346,0.0395508,2.2016602,0.5358887,2.9628906,1.3759766c-1.2265015,0.9291992-1.9468994,2.3793335-1.9462891,3.9180298c-0.0060425,1.7985229,0.9830933,3.4528809,2.5703125,4.2988281C19.2300415,17.7428589,18.8328247,18.5171509,18.3457031,19.234375z"/></svg>