<svg xmlns="http://www.w3.org/2000/svg" enable-background="new 0 0 24 24" viewBox="0 0 24 24"><path d="M16.1464844,11.6464844L12.5,15.2930298V7.5C12.5,7.223877,12.276123,7,12,7s-0.5,0.223877-0.5,0.5v7.7930298l-3.6465454-3.6464844c-0.1937256-0.1871338-0.5009155-0.1871338-0.6947021,0c-0.1986084,0.1918335-0.2041016,0.5083618-0.0122681,0.7069702l4.4995728,4.4995728c0.0458984,0.0459595,0.1005859,0.0828247,0.161377,0.1082153C11.8678589,16.9865112,11.9332275,17.0001221,12,17h0.0006104c0.0106201,0,0.0195312-0.0053711,0.0299683-0.0060425c0.0558472-0.003479,0.1112671-0.0115356,0.1621704-0.0328369c0.0610352-0.0255127,0.1159058-0.062561,0.1618652-0.1087646l4.4988403-4.4988403c0.1871948-0.1937866,0.1871948-0.5009766,0-0.6947632C16.6616211,11.460144,16.3450928,11.4546509,16.1464844,11.6464844z M12,2C6.4771729,2,2,6.4771729,2,12s4.4771729,10,10,10c5.5201416-0.0064697,9.9935303-4.4798584,10-10C22,6.4771729,17.5228271,2,12,2z M12,21c-4.9705811,0-9-4.0294189-9-9s4.0294189-9,9-9c4.9682617,0.0056152,8.9943848,4.0317383,9,9C21,16.9705811,16.9705811,21,12,21z"/></svg>