<svg xmlns="http://www.w3.org/2000/svg" enable-background="new 0 0 24 24" viewBox="0 0 24 24"><path d="M19.5,6H16V5c-0.0014038-1.1040039-0.8959961-1.9985962-2-2h-4C8.8959961,3.0014038,8.0014038,3.8959961,8,5v1H4.5C3.119812,6.0012817,2.0012817,7.119812,2,8.5v10c0.0012817,1.380188,1.119812,2.4987183,2.5,2.5h15c1.380188-0.0012817,2.4987183-1.119812,2.5-2.5v-10C21.9987183,7.119812,20.880188,6.0012817,19.5,6z M9,5c0.0003662-0.552124,0.447876-0.9996338,1-1h4c0.552124,0.0003662,0.9996338,0.447876,1,1v1H9V5z M21,18.5c-0.0009155,0.828064-0.671936,1.4990845-1.5,1.5h-15c-0.828064-0.0009155-1.4990845-0.671936-1.5-1.5v-6.4726562l5.8417969,1.9472656C8.8928833,13.991333,8.9462891,13.999939,9,14h6c0.053772-0.000061,0.1071777-0.008667,0.1582642-0.0253906L21,12.0273438V18.5z M21,11.0059204c-0.0525513,0-0.1055908,0.0019531-0.1581421,0.0194702L14.9190063,13H9.0810547l-5.9228516-1.9746094C3.1056519,11.0078735,3.0525513,11.0059204,3,11.0059204V8.5C3.0009155,7.671936,3.671936,7.0009155,4.5,7h15c0.828064,0.0009155,1.4990845,0.671936,1.5,1.5V11.0059204z"/></svg>