<svg xmlns="http://www.w3.org/2000/svg" enable-background="new 0 0 24 24" viewBox="0 0 24 24"><path d="M7.5,16h-4c-0.2759399-0.0005493-0.4994507-0.2240601-0.5-0.5v-7C3.0005493,8.2240601,3.2240601,8.0005493,3.5,8h3C6.776123,8,7,7.776123,7,7.5S6.776123,7,6.5,7h-3C2.671936,7.0009155,2.0009155,7.671936,2,8.5v7c0.0009155,0.828064,0.671936,1.4990845,1.5,1.5h4C7.776123,17,8,16.776123,8,16.5S7.776123,16,7.5,16z M13.4662476,11.8329468c-0.0101929-0.0285034-0.0250244-0.0529175-0.039978-0.0787354c-0.0169678-0.029541-0.0333862-0.0576782-0.0563354-0.0834961c-0.0218506-0.0245972-0.0475464-0.0431519-0.0737915-0.0629883c-0.0187378-0.0142212-0.0317993-0.0334473-0.0529785-0.0452271c-0.0085449-0.0047607-0.0180664-0.0042725-0.0267334-0.0084839c-0.0278931-0.0136108-0.0581055-0.0198975-0.088623-0.0281982c-0.0349121-0.0093384-0.0685425-0.0194092-0.1039429-0.0209961C13.0155029,11.5043945,13.0084839,11.5,13,11.5H8.8503418L10.9375,7.7431641c0.1342773-0.2416382,0.0473022-0.5463867-0.1943359-0.6806641S10.1967773,7.0151978,10.0625,7.2568359l-2.5,4.5c-0.0046997,0.0084839-0.0043335,0.0180054-0.0084839,0.0266724c-0.0137329,0.0281982-0.0200806,0.0587158-0.0283813,0.0896606c-0.0090942,0.0343628-0.019104,0.0673828-0.0206909,0.1022339C7.5045166,11.9840088,7.5,11.991272,7.5,12c0,0.0217896,0.0097046,0.0404053,0.0123901,0.0614624c0.0045776,0.0358887,0.0090332,0.0704346,0.0211182,0.1044922c0.010498,0.02948,0.0257568,0.0546875,0.0413208,0.0813599c0.0166016,0.0288086,0.0326538,0.0563354,0.0550537,0.081604c0.0219727,0.0247192,0.0476685,0.043457,0.0741577,0.0634155c0.0186768,0.0142212,0.0316772,0.0333862,0.0527954,0.045166c0.007019,0.0038452,0.015686,0.0023804,0.0228271,0.0058594C7.8468628,12.4769287,7.9197998,12.5,8,12.5h4.1496582L10.0625,16.2568359c-0.1338501,0.2416992-0.046936,0.5460815,0.1943359,0.6806641C10.3313599,16.9783936,10.414978,16.9998779,10.5,17c0.1815796-0.0001831,0.348877-0.0983887,0.4375-0.2568359l2.5-4.5c0.0047607-0.0085449,0.0042725-0.0180664,0.0084839-0.0267334c0.0136108-0.0278931,0.0198975-0.0581055,0.0281982-0.088623c0.0093384-0.0349121,0.0194092-0.0685425,0.0209961-0.1039429C13.4956055,12.0155029,13.5,12.0084839,13.5,12c0-0.0209961-0.0094604-0.0388794-0.0119629-0.0592041C13.4834595,11.9036865,13.4788208,11.868103,13.4662476,11.8329468z M17.5,7h-4C13.223877,7,13,7.223877,13,7.5S13.223877,8,13.5,8h4c0.2759399,0.0005493,0.4994507,0.2240601,0.5,0.5v7c-0.0005493,0.2759399-0.2240601,0.4994507-0.5,0.5h-3c-0.276123,0-0.5,0.223877-0.5,0.5s0.223877,0.5,0.5,0.5h3c0.828064-0.0009155,1.4990845-0.671936,1.5-1.5v-7C18.9990845,7.671936,18.328064,7.0009155,17.5,7z M21.5,10c-0.276123,0-0.5,0.223877-0.5,0.5v3.0005493C21.0001831,13.7765503,21.223999,14.0001831,21.5,14h0.0006104C21.7765503,13.9998169,22.0001831,13.776001,22,13.5v-3C22,10.223877,21.776123,10,21.5,10z"/></svg>