<svg xmlns="http://www.w3.org/2000/svg" enable-background="new 0 0 24 24" viewBox="0 0 24 24"><path d="M7.5,10C6.6715698,10,6,10.6715698,6,11.5S6.6715698,13,7.5,13c0.828064-0.0009155,1.4990845-0.671936,1.5-1.5C9,10.6715698,8.3284302,10,7.5,10z M7.5,12C7.223877,12,7,11.776123,7,11.5S7.223877,11,7.5,11c0.2759399,0.0005493,0.4994507,0.2240601,0.5,0.5C8,11.776123,7.776123,12,7.5,12z M11.5,18c-0.8284302,0-1.5,0.6715698-1.5,1.5s0.6715698,1.5,1.5,1.5c0.828064-0.0009155,1.4990845-0.671936,1.5-1.5C13,18.6715698,12.3284302,18,11.5,18z M11.5,20c-0.276123,0-0.5-0.223877-0.5-0.5s0.223877-0.5,0.5-0.5c0.2759399,0.0005493,0.4994507,0.2240601,0.5,0.5C12,19.776123,11.776123,20,11.5,20z M7.5,18C6.6715698,18,6,18.6715698,6,19.5S6.6715698,21,7.5,21c0.828064-0.0009155,1.4990845-0.671936,1.5-1.5C9,18.6715698,8.3284302,18,7.5,18z M7.5,20C7.223877,20,7,19.776123,7,19.5S7.223877,19,7.5,19c0.2759399,0.0005493,0.4994507,0.2240601,0.5,0.5C8,19.776123,7.776123,20,7.5,20z M21,3.5C21,3.223877,20.776123,3,20.5,3h-17C3.4998169,3,3.4996338,3,3.4993896,3C3.2234497,3.0001831,2.9998169,3.223999,3,3.5v17c0,0.0001831,0,0.0003662,0,0.0005493C3.0001831,20.7765503,3.223999,21.0001831,3.5,21c0.0001831,0,0.0003662,0,0.0006104,0C3.7765503,20.9998169,4.0001831,20.776001,4,20.5V4h16.5C20.776123,4,21,3.776123,21,3.5z M11.5,6C10.6715698,6,10,6.6715698,10,7.5S10.6715698,9,11.5,9c0.828064-0.0009155,1.4990845-0.671936,1.5-1.5C13,6.6715698,12.3284302,6,11.5,6z M11.5,8C11.223877,8,11,7.776123,11,7.5S11.223877,7,11.5,7c0.2759399,0.0005493,0.4994507,0.2240601,0.5,0.5C12,7.776123,11.776123,8,11.5,8z M19.5,10c-0.8284302,0-1.5,0.6715698-1.5,1.5s0.6715698,1.5,1.5,1.5c0.828064-0.0009155,1.4990845-0.671936,1.5-1.5C21,10.6715698,20.3284302,10,19.5,10z M19.5,12c-0.276123,0-0.5-0.223877-0.5-0.5s0.223877-0.5,0.5-0.5c0.2759399,0.0005493,0.4994507,0.2240601,0.5,0.5C20,11.776123,19.776123,12,19.5,12z M11.5,14c-0.8284302,0-1.5,0.6715698-1.5,1.5s0.6715698,1.5,1.5,1.5c0.828064-0.0009155,1.4990845-0.671936,1.5-1.5C13,14.6715698,12.3284302,14,11.5,14z M11.5,16c-0.276123,0-0.5-0.223877-0.5-0.5s0.223877-0.5,0.5-0.5c0.2759399,0.0005493,0.4994507,0.2240601,0.5,0.5C12,15.776123,11.776123,16,11.5,16z M19.5,6C18.6715698,6,18,6.6715698,18,7.5S18.6715698,9,19.5,9c0.828064-0.0009155,1.4990845-0.671936,1.5-1.5C21,6.6715698,20.3284302,6,19.5,6z M19.5,8C19.223877,8,19,7.776123,19,7.5S19.223877,7,19.5,7c0.2759399,0.0005493,0.4994507,0.2240601,0.5,0.5C20,7.776123,19.776123,8,19.5,8z M19.5,18c-0.8284302,0-1.5,0.6715698-1.5,1.5s0.6715698,1.5,1.5,1.5c0.828064-0.0009155,1.4990845-0.671936,1.5-1.5C21,18.6715698,20.3284302,18,19.5,18z M19.5,20c-0.276123,0-0.5-0.223877-0.5-0.5s0.223877-0.5,0.5-0.5c0.2759399,0.0005493,0.4994507,0.2240601,0.5,0.5C20,19.776123,19.776123,20,19.5,20z M19.5,14c-0.8284302,0-1.5,0.6715698-1.5,1.5s0.6715698,1.5,1.5,1.5c0.828064-0.0009155,1.4990845-0.671936,1.5-1.5C21,14.6715698,20.3284302,14,19.5,14z M19.5,16c-0.276123,0-0.5-0.223877-0.5-0.5s0.223877-0.5,0.5-0.5c0.2759399,0.0005493,0.4994507,0.2240601,0.5,0.5C20,15.776123,19.776123,16,19.5,16z M11.5,10c-0.8284302,0-1.5,0.6715698-1.5,1.5s0.6715698,1.5,1.5,1.5c0.828064-0.0009155,1.4990845-0.671936,1.5-1.5C13,10.6715698,12.3284302,10,11.5,10z M11.5,12c-0.276123,0-0.5-0.223877-0.5-0.5s0.223877-0.5,0.5-0.5c0.2759399,0.0005493,0.4994507,0.2240601,0.5,0.5C12,11.776123,11.776123,12,11.5,12z M15.5,18c-0.8284302,0-1.5,0.6715698-1.5,1.5s0.6715698,1.5,1.5,1.5c0.828064-0.0009155,1.4990845-0.671936,1.5-1.5C17,18.6715698,16.3284302,18,15.5,18z M15.5,20c-0.276123,0-0.5-0.223877-0.5-0.5s0.223877-0.5,0.5-0.5c0.2759399,0.0005493,0.4994507,0.2240601,0.5,0.5C16,19.776123,15.776123,20,15.5,20z M15.5,10c-0.8284302,0-1.5,0.6715698-1.5,1.5s0.6715698,1.5,1.5,1.5c0.828064-0.0009155,1.4990845-0.671936,1.5-1.5C17,10.6715698,16.3284302,10,15.5,10z M15.5,12c-0.276123,0-0.5-0.223877-0.5-0.5s0.223877-0.5,0.5-0.5c0.2759399,0.0005493,0.4994507,0.2240601,0.5,0.5C16,11.776123,15.776123,12,15.5,12z"/></svg>