<svg xmlns="http://www.w3.org/2000/svg" enable-background="new 0 0 24 24" viewBox="0 0 24 24"><path d="M12,10c0.828064-0.0009155,1.4990845-0.671936,1.5-1.5C13.5,7.6715698,12.8284302,7,12,7s-1.5,0.6715698-1.5,1.5S11.1715698,10,12,10z M12,8c0.2759399,0.0005493,0.4994507,0.2240601,0.5,0.5C12.5,8.776123,12.276123,9,12,9s-0.5-0.223877-0.5-0.5S11.723877,8,12,8z M16,14c0.828064-0.0009155,1.4990845-0.671936,1.5-1.5c0-0.8284302-0.6715698-1.5-1.5-1.5s-1.5,0.6715698-1.5,1.5S15.1715698,14,16,14z M16,12c0.2759399,0.0005493,0.4994507,0.2240601,0.5,0.5c0,0.276123-0.223877,0.5-0.5,0.5s-0.5-0.223877-0.5-0.5S15.723877,12,16,12z M20,6c0.828064-0.0009155,1.4990845-0.671936,1.5-1.5C21.5,3.6715698,20.8284302,3,20,3s-1.5,0.6715698-1.5,1.5S19.1715698,6,20,6z M20,4c0.2759399,0.0005493,0.4994507,0.2240601,0.5,0.5C20.5,4.776123,20.276123,5,20,5s-0.5-0.223877-0.5-0.5S19.723877,4,20,4z M16,6c0.828064-0.0009155,1.4990845-0.671936,1.5-1.5C17.5,3.6715698,16.8284302,3,16,3s-1.5,0.6715698-1.5,1.5S15.1715698,6,16,6z M16,4c0.2759399,0.0005493,0.4994507,0.2240601,0.5,0.5C16.5,4.776123,16.276123,5,16,5s-0.5-0.223877-0.5-0.5S15.723877,4,16,4z M12,6c0.828064-0.0009155,1.4990845-0.671936,1.5-1.5C13.5,3.6715698,12.8284302,3,12,3s-1.5,0.6715698-1.5,1.5S11.1715698,6,12,6z M12,4c0.2759399,0.0005493,0.4994507,0.2240601,0.5,0.5C12.5,4.776123,12.276123,5,12,5s-0.5-0.223877-0.5-0.5S11.723877,4,12,4z M4,6c0.828064-0.0009155,1.4990845-0.671936,1.5-1.5C5.5,3.6715698,4.8284302,3,4,3S2.5,3.6715698,2.5,4.5S3.1715698,6,4,6z M4,4c0.2759399,0.0005493,0.4994507,0.2240601,0.5,0.5C4.5,4.776123,4.276123,5,4,5S3.5,4.776123,3.5,4.5S3.723877,4,4,4z M12,14c0.828064-0.0009155,1.4990845-0.671936,1.5-1.5c0-0.8284302-0.6715698-1.5-1.5-1.5s-1.5,0.6715698-1.5,1.5S11.1715698,14,12,14z M12,12c0.2759399,0.0005493,0.4994507,0.2240601,0.5,0.5c0,0.276123-0.223877,0.5-0.5,0.5s-0.5-0.223877-0.5-0.5S11.723877,12,12,12z M21,20H3c-0.276123,0-0.5,0.223877-0.5,0.5S2.723877,21,3,21h18c0.276123,0,0.5-0.223877,0.5-0.5S21.276123,20,21,20z M20,15c-0.8284302,0-1.5,0.6715698-1.5,1.5S19.1715698,18,20,18c0.828064-0.0009155,1.4990845-0.671936,1.5-1.5C21.5,15.6715698,20.8284302,15,20,15z M20,17c-0.276123,0-0.5-0.223877-0.5-0.5S19.723877,16,20,16c0.2759399,0.0005493,0.4994507,0.2240601,0.5,0.5C20.5,16.776123,20.276123,17,20,17z M20,11c-0.8284302,0-1.5,0.6715698-1.5,1.5S19.1715698,14,20,14c0.828064-0.0009155,1.4990845-0.671936,1.5-1.5C21.5,11.6715698,20.8284302,11,20,11z M20,13c-0.276123,0-0.5-0.223877-0.5-0.5S19.723877,12,20,12c0.2759399,0.0005493,0.4994507,0.2240601,0.5,0.5C20.5,12.776123,20.276123,13,20,13z M20,7c-0.8284302,0-1.5,0.6715698-1.5,1.5S19.1715698,10,20,10c0.828064-0.0009155,1.4990845-0.671936,1.5-1.5C21.5,7.6715698,20.8284302,7,20,7z M20,9c-0.276123,0-0.5-0.223877-0.5-0.5S19.723877,8,20,8c0.2759399,0.0005493,0.4994507,0.2240601,0.5,0.5C20.5,8.776123,20.276123,9,20,9z M4,18c0.828064-0.0009155,1.4990845-0.671936,1.5-1.5C5.5,15.6715698,4.8284302,15,4,15s-1.5,0.6715698-1.5,1.5S3.1715698,18,4,18z M4,16c0.2759399,0.0005493,0.4994507,0.2240601,0.5,0.5C4.5,16.776123,4.276123,17,4,17s-0.5-0.223877-0.5-0.5S3.723877,16,4,16z M8,6c0.828064-0.0009155,1.4990845-0.671936,1.5-1.5C9.5,3.6715698,8.8284302,3,8,3S6.5,3.6715698,6.5,4.5S7.1715698,6,8,6z M8,4c0.2759399,0.0005493,0.4994507,0.2240601,0.5,0.5C8.5,4.776123,8.276123,5,8,5S7.5,4.776123,7.5,4.5S7.723877,4,8,4z M12,18c0.828064-0.0009155,1.4990845-0.671936,1.5-1.5c0-0.8284302-0.6715698-1.5-1.5-1.5s-1.5,0.6715698-1.5,1.5S11.1715698,18,12,18z M12,16c0.2759399,0.0005493,0.4994507,0.2240601,0.5,0.5c0,0.276123-0.223877,0.5-0.5,0.5s-0.5-0.223877-0.5-0.5S11.723877,16,12,16z M4,14c0.828064-0.0009155,1.4990845-0.671936,1.5-1.5C5.5,11.6715698,4.8284302,11,4,11s-1.5,0.6715698-1.5,1.5S3.1715698,14,4,14z M4,12c0.2759399,0.0005493,0.4994507,0.2240601,0.5,0.5C4.5,12.776123,4.276123,13,4,13s-0.5-0.223877-0.5-0.5S3.723877,12,4,12z M4,10c0.828064-0.0009155,1.4990845-0.671936,1.5-1.5C5.5,7.6715698,4.8284302,7,4,7S2.5,7.6715698,2.5,8.5S3.1715698,10,4,10z M4,8c0.2759399,0.0005493,0.4994507,0.2240601,0.5,0.5C4.5,8.776123,4.276123,9,4,9S3.5,8.776123,3.5,8.5S3.723877,8,4,8z M8,14c0.828064-0.0009155,1.4990845-0.671936,1.5-1.5C9.5,11.6715698,8.8284302,11,8,11s-1.5,0.6715698-1.5,1.5S7.1715698,14,8,14z M8,12c0.2759399,0.0005493,0.4994507,0.2240601,0.5,0.5C8.5,12.776123,8.276123,13,8,13s-0.5-0.223877-0.5-0.5S7.723877,12,8,12z"/></svg>