<svg xmlns="http://www.w3.org/2000/svg" enable-background="new 0 0 24 24" viewBox="0 0 24 24"><path d="M7.5,2.5C6.6715698,2.5,6,3.1715698,6,4s0.6715698,1.5,1.5,1.5C8.328064,5.4990845,8.9990845,4.828064,9,4C9,3.1715698,8.3284302,2.5,7.5,2.5z M7.5,4.5C7.223877,4.5,7,4.276123,7,4s0.223877-0.5,0.5-0.5C7.776001,3.5003662,7.9996338,3.723999,8,4C8,4.276123,7.776123,4.5,7.5,4.5z M7.5,10.5C6.6715698,10.5,6,11.1715698,6,12s0.6715698,1.5,1.5,1.5C8.328064,13.4990845,8.9990845,12.828064,9,12C9,11.1715698,8.3284302,10.5,7.5,10.5z M7.5,12.5C7.223877,12.5,7,12.276123,7,12s0.223877-0.5,0.5-0.5C7.776001,11.5003662,7.9996338,11.723999,8,12C8,12.276123,7.776123,12.5,7.5,12.5z M3.5,2.5C3.223877,2.5,3,2.723877,3,3v18.0005493C3.0001831,21.2765503,3.223999,21.5001831,3.5,21.5h0.0006104C3.7765503,21.4998169,4.0001831,21.276001,4,21V3C4,2.723877,3.776123,2.5,3.5,2.5z M19.5,5.5C20.328064,5.4990845,20.9990845,4.828064,21,4c0-0.8284302-0.6715698-1.5-1.5-1.5S18,3.1715698,18,4S18.6715698,5.5,19.5,5.5z M19.5,3.5C19.7759399,3.5005493,19.9994507,3.7240601,20,4c0,0.276123-0.223877,0.5-0.5,0.5S19,4.276123,19,4S19.223877,3.5,19.5,3.5z M11.5,18.5c-0.8284302,0-1.5,0.6715698-1.5,1.5s0.6715698,1.5,1.5,1.5c0.828064-0.0009155,1.4990845-0.671936,1.5-1.5C13,19.1715698,12.3284302,18.5,11.5,18.5z M11.5,20.5c-0.276123,0-0.5-0.223877-0.5-0.5s0.223877-0.5,0.5-0.5c0.276001,0.0003662,0.4996338,0.223999,0.5,0.5C12,20.276123,11.776123,20.5,11.5,20.5z M7.5,18.5C6.6715698,18.5,6,19.1715698,6,20s0.6715698,1.5,1.5,1.5C8.328064,21.4990845,8.9990845,20.828064,9,20C9,19.1715698,8.3284302,18.5,7.5,18.5z M7.5,20.5C7.223877,20.5,7,20.276123,7,20s0.223877-0.5,0.5-0.5C7.776001,19.5003662,7.9996338,19.723999,8,20C8,20.276123,7.776123,20.5,7.5,20.5z M15.5,18.5c-0.8284302,0-1.5,0.6715698-1.5,1.5s0.6715698,1.5,1.5,1.5c0.828064-0.0009155,1.4990845-0.671936,1.5-1.5C17,19.1715698,16.3284302,18.5,15.5,18.5z M15.5,20.5c-0.276123,0-0.5-0.223877-0.5-0.5s0.223877-0.5,0.5-0.5c0.2759399,0.0005493,0.4994507,0.2240601,0.5,0.5C16,20.276123,15.776123,20.5,15.5,20.5z M19.5,14.5c-0.8284302,0-1.5,0.6715698-1.5,1.5s0.6715698,1.5,1.5,1.5c0.828064-0.0009155,1.4990845-0.671936,1.5-1.5C21,15.1715698,20.3284302,14.5,19.5,14.5z M19.5,16.5c-0.276123,0-0.5-0.223877-0.5-0.5s0.223877-0.5,0.5-0.5c0.2759399,0.0005493,0.4994507,0.2240601,0.5,0.5C20,16.276123,19.776123,16.5,19.5,16.5z M19.5,18.5c-0.8284302,0-1.5,0.6715698-1.5,1.5s0.6715698,1.5,1.5,1.5c0.828064-0.0009155,1.4990845-0.671936,1.5-1.5C21,19.1715698,20.3284302,18.5,19.5,18.5z M19.5,20.5c-0.276123,0-0.5-0.223877-0.5-0.5s0.223877-0.5,0.5-0.5c0.2759399,0.0005493,0.4994507,0.2240601,0.5,0.5C20,20.276123,19.776123,20.5,19.5,20.5z M15.5,2.5C14.6715698,2.5,14,3.1715698,14,4s0.6715698,1.5,1.5,1.5C16.328064,5.4990845,16.9990845,4.828064,17,4C17,3.1715698,16.3284302,2.5,15.5,2.5z M15.5,4.5C15.223877,4.5,15,4.276123,15,4s0.223877-0.5,0.5-0.5C15.7759399,3.5005493,15.9994507,3.7240601,16,4C16,4.276123,15.776123,4.5,15.5,4.5z M19.5,6.5C18.6715698,6.5,18,7.1715698,18,8s0.6715698,1.5,1.5,1.5C20.328064,9.4990845,20.9990845,8.828064,21,8C21,7.1715698,20.3284302,6.5,19.5,6.5z M19.5,8.5C19.223877,8.5,19,8.276123,19,8s0.223877-0.5,0.5-0.5C19.7759399,7.5005493,19.9994507,7.7240601,20,8C20,8.276123,19.776123,8.5,19.5,8.5z M11.5,14.5c-0.8284302,0-1.5,0.6715698-1.5,1.5s0.6715698,1.5,1.5,1.5c0.828064-0.0009155,1.4990845-0.671936,1.5-1.5C13,15.1715698,12.3284302,14.5,11.5,14.5z M11.5,16.5c-0.276123,0-0.5-0.223877-0.5-0.5s0.223877-0.5,0.5-0.5c0.276001,0.0003662,0.4996338,0.223999,0.5,0.5C12,16.276123,11.776123,16.5,11.5,16.5z M19.5,10.5c-0.8284302,0-1.5,0.6715698-1.5,1.5s0.6715698,1.5,1.5,1.5c0.828064-0.0009155,1.4990845-0.671936,1.5-1.5C21,11.1715698,20.3284302,10.5,19.5,10.5z M19.5,12.5c-0.276123,0-0.5-0.223877-0.5-0.5s0.223877-0.5,0.5-0.5c0.2759399,0.0005493,0.4994507,0.2240601,0.5,0.5C20,12.276123,19.776123,12.5,19.5,12.5z M11.5,10.5c-0.8284302,0-1.5,0.6715698-1.5,1.5s0.6715698,1.5,1.5,1.5c0.828064-0.0009155,1.4990845-0.671936,1.5-1.5C13,11.1715698,12.3284302,10.5,11.5,10.5z M11.5,12.5c-0.276123,0-0.5-0.223877-0.5-0.5s0.223877-0.5,0.5-0.5c0.276001,0.0003662,0.4996338,0.223999,0.5,0.5C12,12.276123,11.776123,12.5,11.5,12.5z M11.5,6.5C10.6715698,6.5,10,7.1715698,10,8s0.6715698,1.5,1.5,1.5C12.328064,9.4990845,12.9990845,8.828064,13,8C13,7.1715698,12.3284302,6.5,11.5,6.5z M11.5,8.5C11.223877,8.5,11,8.276123,11,8s0.223877-0.5,0.5-0.5C11.776001,7.5003662,11.9996338,7.723999,12,8C12,8.276123,11.776123,8.5,11.5,8.5z M15.5,10.5c-0.8284302,0-1.5,0.6715698-1.5,1.5s0.6715698,1.5,1.5,1.5c0.828064-0.0009155,1.4990845-0.671936,1.5-1.5C17,11.1715698,16.3284302,10.5,15.5,10.5z M15.5,12.5c-0.276123,0-0.5-0.223877-0.5-0.5s0.223877-0.5,0.5-0.5c0.2759399,0.0005493,0.4994507,0.2240601,0.5,0.5C16,12.276123,15.776123,12.5,15.5,12.5z M11.5,2.5C10.6715698,2.5,10,3.1715698,10,4s0.6715698,1.5,1.5,1.5C12.328064,5.4990845,12.9990845,4.828064,13,4C13,3.1715698,12.3284302,2.5,11.5,2.5z M11.5,4.5C11.223877,4.5,11,4.276123,11,4s0.223877-0.5,0.5-0.5C11.776001,3.5003662,11.9996338,3.723999,12,4C12,4.276123,11.776123,4.5,11.5,4.5z"/></svg>