<svg xmlns="http://www.w3.org/2000/svg" enable-background="new 0 0 24 24" viewBox="0 0 24 24"><path d="M4,6.5C3.1715698,6.5,2.5,7.1715698,2.5,8S3.1715698,9.5,4,9.5C4.828064,9.4990845,5.4990845,8.828064,5.5,8C5.5,7.1715698,4.8284302,6.5,4,6.5z M4,8.5C3.723877,8.5,3.5,8.276123,3.5,8S3.723877,7.5,4,7.5C4.2759399,7.5005493,4.4994507,7.7240601,4.5,8C4.5,8.276123,4.276123,8.5,4,8.5z M4,10.5c-0.8284302,0-1.5,0.6715698-1.5,1.5s0.6715698,1.5,1.5,1.5c0.828064-0.0009155,1.4990845-0.671936,1.5-1.5C5.5,11.1715698,4.8284302,10.5,4,10.5z M4,12.5c-0.276123,0-0.5-0.223877-0.5-0.5s0.223877-0.5,0.5-0.5c0.2759399,0.0005493,0.4994507,0.2240601,0.5,0.5C4.5,12.276123,4.276123,12.5,4,12.5z M20,5.5c0.828064-0.0009155,1.4990845-0.671936,1.5-1.5c0-0.8284302-0.6715698-1.5-1.5-1.5S18.5,3.1715698,18.5,4S19.1715698,5.5,20,5.5z M20,3.5c0.2759399,0.0005493,0.4994507,0.2240601,0.5,0.5c0,0.276123-0.223877,0.5-0.5,0.5S19.5,4.276123,19.5,4S19.723877,3.5,20,3.5z M4,18.5c-0.8284302,0-1.5,0.6715698-1.5,1.5s0.6715698,1.5,1.5,1.5c0.828064-0.0009155,1.4990845-0.671936,1.5-1.5C5.5,19.1715698,4.8284302,18.5,4,18.5z M4,20.5c-0.276123,0-0.5-0.223877-0.5-0.5s0.223877-0.5,0.5-0.5c0.2759399,0.0005493,0.4994507,0.2240601,0.5,0.5C4.5,20.276123,4.276123,20.5,4,20.5z M4,14.5c-0.8284302,0-1.5,0.6715698-1.5,1.5s0.6715698,1.5,1.5,1.5c0.828064-0.0009155,1.4990845-0.671936,1.5-1.5C5.5,15.1715698,4.8284302,14.5,4,14.5z M4,16.5c-0.276123,0-0.5-0.223877-0.5-0.5s0.223877-0.5,0.5-0.5c0.2759399,0.0005493,0.4994507,0.2240601,0.5,0.5C4.5,16.276123,4.276123,16.5,4,16.5z M16,10.5c-0.8284302,0-1.5,0.6715698-1.5,1.5s0.6715698,1.5,1.5,1.5c0.828064-0.0009155,1.4990845-0.671936,1.5-1.5C17.5,11.1715698,16.8284302,10.5,16,10.5z M16,12.5c-0.276123,0-0.5-0.223877-0.5-0.5s0.223877-0.5,0.5-0.5c0.2759399,0.0005493,0.4994507,0.2240601,0.5,0.5C16.5,12.276123,16.276123,12.5,16,12.5z M20,18.5c-0.8284302,0-1.5,0.6715698-1.5,1.5s0.6715698,1.5,1.5,1.5c0.828064-0.0009155,1.4990845-0.671936,1.5-1.5C21.5,19.1715698,20.8284302,18.5,20,18.5z M20,20.5c-0.276123,0-0.5-0.223877-0.5-0.5s0.223877-0.5,0.5-0.5c0.2759399,0.0005493,0.4994507,0.2240601,0.5,0.5C20.5,20.276123,20.276123,20.5,20,20.5z M20,14.5c-0.8284302,0-1.5,0.6715698-1.5,1.5s0.6715698,1.5,1.5,1.5c0.828064-0.0009155,1.4990845-0.671936,1.5-1.5C21.5,15.1715698,20.8284302,14.5,20,14.5z M20,16.5c-0.276123,0-0.5-0.223877-0.5-0.5s0.223877-0.5,0.5-0.5c0.2759399,0.0005493,0.4994507,0.2240601,0.5,0.5C20.5,16.276123,20.276123,16.5,20,16.5z M16,2.5c-0.8284302,0-1.5,0.6715698-1.5,1.5s0.6715698,1.5,1.5,1.5c0.828064-0.0009155,1.4990845-0.671936,1.5-1.5C17.5,3.1715698,16.8284302,2.5,16,2.5z M16,4.5c-0.276123,0-0.5-0.223877-0.5-0.5s0.223877-0.5,0.5-0.5c0.2759399,0.0005493,0.4994507,0.2240601,0.5,0.5C16.5,4.276123,16.276123,4.5,16,4.5z M20,6.5c-0.8284302,0-1.5,0.6715698-1.5,1.5s0.6715698,1.5,1.5,1.5c0.828064-0.0009155,1.4990845-0.671936,1.5-1.5C21.5,7.1715698,20.8284302,6.5,20,6.5z M20,8.5c-0.276123,0-0.5-0.223877-0.5-0.5s0.223877-0.5,0.5-0.5c0.2759399,0.0005493,0.4994507,0.2240601,0.5,0.5C20.5,8.276123,20.276123,8.5,20,8.5z M20,10.5c-0.8284302,0-1.5,0.6715698-1.5,1.5s0.6715698,1.5,1.5,1.5c0.828064-0.0009155,1.4990845-0.671936,1.5-1.5C21.5,11.1715698,20.8284302,10.5,20,10.5z M20,12.5c-0.276123,0-0.5-0.223877-0.5-0.5s0.223877-0.5,0.5-0.5c0.2759399,0.0005493,0.4994507,0.2240601,0.5,0.5C20.5,12.276123,20.276123,12.5,20,12.5z M8,2.5C7.1715698,2.5,6.5,3.1715698,6.5,4S7.1715698,5.5,8,5.5C8.828064,5.4990845,9.4990845,4.828064,9.5,4C9.5,3.1715698,8.8284302,2.5,8,2.5z M8,4.5C7.723877,4.5,7.5,4.276123,7.5,4S7.723877,3.5,8,3.5C8.2759399,3.5005493,8.4994507,3.7240601,8.5,4C8.5,4.276123,8.276123,4.5,8,4.5z M8,10.5c-0.8284302,0-1.5,0.6715698-1.5,1.5s0.6715698,1.5,1.5,1.5c0.828064-0.0009155,1.4990845-0.671936,1.5-1.5C9.5,11.1715698,8.8284302,10.5,8,10.5z M8,12.5c-0.276123,0-0.5-0.223877-0.5-0.5s0.223877-0.5,0.5-0.5c0.2759399,0.0005493,0.4994507,0.2240601,0.5,0.5C8.5,12.276123,8.276123,12.5,8,12.5z M8,18.5c-0.8284302,0-1.5,0.6715698-1.5,1.5s0.6715698,1.5,1.5,1.5c0.828064-0.0009155,1.4990845-0.671936,1.5-1.5C9.5,19.1715698,8.8284302,18.5,8,18.5z M8,20.5c-0.276123,0-0.5-0.223877-0.5-0.5s0.223877-0.5,0.5-0.5c0.2759399,0.0005493,0.4994507,0.2240601,0.5,0.5C8.5,20.276123,8.276123,20.5,8,20.5z M4,2.5C3.1715698,2.5,2.5,3.1715698,2.5,4S3.1715698,5.5,4,5.5C4.828064,5.4990845,5.4990845,4.828064,5.5,4C5.5,3.1715698,4.8284302,2.5,4,2.5z M4,4.5C3.723877,4.5,3.5,4.276123,3.5,4S3.723877,3.5,4,3.5C4.2759399,3.5005493,4.4994507,3.7240601,4.5,4C4.5,4.276123,4.276123,4.5,4,4.5z M12,2.5c-0.276123,0-0.5,0.223877-0.5,0.5v18.0005493C11.5001831,21.2765503,11.723999,21.5001831,12,21.5h0.0006104C12.2765503,21.4998169,12.5001831,21.276001,12.5,21V3C12.5,2.723877,12.276123,2.5,12,2.5z M16,18.5c-0.8284302,0-1.5,0.6715698-1.5,1.5s0.6715698,1.5,1.5,1.5c0.828064-0.0009155,1.4990845-0.671936,1.5-1.5C17.5,19.1715698,16.8284302,18.5,16,18.5z M16,20.5c-0.276123,0-0.5-0.223877-0.5-0.5s0.223877-0.5,0.5-0.5c0.2759399,0.0005493,0.4994507,0.2240601,0.5,0.5C16.5,20.276123,16.276123,20.5,16,20.5z"/></svg>