<svg xmlns="http://www.w3.org/2000/svg" enable-background="new 0 0 24 24" viewBox="0 0 24 24"><path d="M12,5.5c0.828064-0.0009155,1.4990845-0.671936,1.5-1.5c0-0.8284302-0.6715698-1.5-1.5-1.5S10.5,3.1715698,10.5,4S11.1715698,5.5,12,5.5z M12,3.5c0.2759399,0.0005493,0.4994507,0.2240601,0.5,0.5c0,0.276123-0.223877,0.5-0.5,0.5S11.5,4.276123,11.5,4S11.723877,3.5,12,3.5z M4,5.5C4.828064,5.4990845,5.4990845,4.828064,5.5,4c0-0.8284302-0.6715698-1.5-1.5-1.5S2.5,3.1715698,2.5,4S3.1715698,5.5,4,5.5z M4,3.5C4.2759399,3.5005493,4.4994507,3.7240601,4.5,4c0,0.276123-0.223877,0.5-0.5,0.5S3.5,4.276123,3.5,4S3.723877,3.5,4,3.5z M16,5.5c0.828064-0.0009155,1.4990845-0.671936,1.5-1.5c0-0.8284302-0.6715698-1.5-1.5-1.5S14.5,3.1715698,14.5,4S15.1715698,5.5,16,5.5z M16,3.5c0.2759399,0.0005493,0.4994507,0.2240601,0.5,0.5c0,0.276123-0.223877,0.5-0.5,0.5S15.5,4.276123,15.5,4S15.723877,3.5,16,3.5z M20,5.5c0.828064-0.0009155,1.4990845-0.671936,1.5-1.5c0-0.8284302-0.6715698-1.5-1.5-1.5S18.5,3.1715698,18.5,4S19.1715698,5.5,20,5.5z M20,3.5c0.2759399,0.0005493,0.4994507,0.2240601,0.5,0.5c0,0.276123-0.223877,0.5-0.5,0.5S19.5,4.276123,19.5,4S19.723877,3.5,20,3.5z M8,5.5C8.828064,5.4990845,9.4990845,4.828064,9.5,4c0-0.8284302-0.6715698-1.5-1.5-1.5S6.5,3.1715698,6.5,4S7.1715698,5.5,8,5.5z M8,3.5C8.2759399,3.5005493,8.4994507,3.7240601,8.5,4c0,0.276123-0.223877,0.5-0.5,0.5S7.5,4.276123,7.5,4S7.723877,3.5,8,3.5z M12,9.5c0.828064-0.0009155,1.4990845-0.671936,1.5-1.5c0-0.8284302-0.6715698-1.5-1.5-1.5S10.5,7.1715698,10.5,8S11.1715698,9.5,12,9.5z M12,7.5c0.2759399,0.0005493,0.4994507,0.2240601,0.5,0.5c0,0.276123-0.223877,0.5-0.5,0.5S11.5,8.276123,11.5,8S11.723877,7.5,12,7.5z M20,14.5c-0.8284302,0-1.5,0.6715698-1.5,1.5s0.6715698,1.5,1.5,1.5c0.828064-0.0009155,1.4990845-0.671936,1.5-1.5C21.5,15.1715698,20.8284302,14.5,20,14.5z M20,16.5c-0.276123,0-0.5-0.223877-0.5-0.5s0.223877-0.5,0.5-0.5c0.2759399,0.0005493,0.4994507,0.2240601,0.5,0.5C20.5,16.276123,20.276123,16.5,20,16.5z M4,9.5C4.828064,9.4990845,5.4990845,8.828064,5.5,8c0-0.8284302-0.6715698-1.5-1.5-1.5S2.5,7.1715698,2.5,8S3.1715698,9.5,4,9.5z M4,7.5C4.2759399,7.5005493,4.4994507,7.7240601,4.5,8c0,0.276123-0.223877,0.5-0.5,0.5S3.5,8.276123,3.5,8S3.723877,7.5,4,7.5z M16,18.5c-0.8284302,0-1.5,0.6715698-1.5,1.5s0.6715698,1.5,1.5,1.5c0.828064-0.0009155,1.4990845-0.671936,1.5-1.5C17.5,19.1715698,16.8284302,18.5,16,18.5z M16,20.5c-0.276123,0-0.5-0.223877-0.5-0.5s0.223877-0.5,0.5-0.5c0.2759399,0.0005493,0.4994507,0.2240601,0.5,0.5C16.5,20.276123,16.276123,20.5,16,20.5z M21,11.5H3c-0.276123,0-0.5,0.223877-0.5,0.5s0.223877,0.5,0.5,0.5h18c0.276123,0,0.5-0.223877,0.5-0.5S21.276123,11.5,21,11.5z M20,6.5c-0.8284302,0-1.5,0.6715698-1.5,1.5s0.6715698,1.5,1.5,1.5c0.828064-0.0009155,1.4990845-0.671936,1.5-1.5C21.5,7.1715698,20.8284302,6.5,20,6.5z M20,8.5c-0.276123,0-0.5-0.223877-0.5-0.5s0.223877-0.5,0.5-0.5c0.2759399,0.0005493,0.4994507,0.2240601,0.5,0.5C20.5,8.276123,20.276123,8.5,20,8.5z M20,18.5c-0.8284302,0-1.5,0.6715698-1.5,1.5s0.6715698,1.5,1.5,1.5c0.828064-0.0009155,1.4990845-0.671936,1.5-1.5C21.5,19.1715698,20.8284302,18.5,20,18.5z M20,20.5c-0.276123,0-0.5-0.223877-0.5-0.5s0.223877-0.5,0.5-0.5c0.2759399,0.0005493,0.4994507,0.2240601,0.5,0.5C20.5,20.276123,20.276123,20.5,20,20.5z M4,14.5c-0.8284302,0-1.5,0.6715698-1.5,1.5s0.6715698,1.5,1.5,1.5c0.828064-0.0009155,1.4990845-0.671936,1.5-1.5C5.5,15.1715698,4.8284302,14.5,4,14.5z M4,16.5c-0.276123,0-0.5-0.223877-0.5-0.5s0.223877-0.5,0.5-0.5c0.2759399,0.0005493,0.4994507,0.2240601,0.5,0.5C4.5,16.276123,4.276123,16.5,4,16.5z M4,18.5c-0.8284302,0-1.5,0.6715698-1.5,1.5s0.6715698,1.5,1.5,1.5c0.828064-0.0009155,1.4990845-0.671936,1.5-1.5C5.5,19.1715698,4.8284302,18.5,4,18.5z M4,20.5c-0.276123,0-0.5-0.223877-0.5-0.5s0.223877-0.5,0.5-0.5c0.2759399,0.0005493,0.4994507,0.2240601,0.5,0.5C4.5,20.276123,4.276123,20.5,4,20.5z M12,18.5c-0.8284302,0-1.5,0.6715698-1.5,1.5s0.6715698,1.5,1.5,1.5c0.828064-0.0009155,1.4990845-0.671936,1.5-1.5C13.5,19.1715698,12.8284302,18.5,12,18.5z M12,20.5c-0.276123,0-0.5-0.223877-0.5-0.5s0.223877-0.5,0.5-0.5c0.2759399,0.0005493,0.4994507,0.2240601,0.5,0.5C12.5,20.276123,12.276123,20.5,12,20.5z M8,18.5c-0.8284302,0-1.5,0.6715698-1.5,1.5s0.6715698,1.5,1.5,1.5c0.828064-0.0009155,1.4990845-0.671936,1.5-1.5C9.5,19.1715698,8.8284302,18.5,8,18.5z M8,20.5c-0.276123,0-0.5-0.223877-0.5-0.5s0.223877-0.5,0.5-0.5c0.2759399,0.0005493,0.4994507,0.2240601,0.5,0.5C8.5,20.276123,8.276123,20.5,8,20.5z M12,14.5c-0.8284302,0-1.5,0.6715698-1.5,1.5s0.6715698,1.5,1.5,1.5c0.828064-0.0009155,1.4990845-0.671936,1.5-1.5C13.5,15.1715698,12.8284302,14.5,12,14.5z M12,16.5c-0.276123,0-0.5-0.223877-0.5-0.5s0.223877-0.5,0.5-0.5c0.2759399,0.0005493,0.4994507,0.2240601,0.5,0.5C12.5,16.276123,12.276123,16.5,12,16.5z"/></svg>