<svg xmlns="http://www.w3.org/2000/svg" enable-background="new 0 0 24 24" viewBox="0 0 24 24"><path d="M4,7C3.1715698,7,2.5,7.6715698,2.5,8.5S3.1715698,10,4,10c0.828064-0.0009155,1.4990845-0.671936,1.5-1.5C5.5,7.6715698,4.8284302,7,4,7z M4,9C3.723877,9,3.5,8.776123,3.5,8.5S3.723877,8,4,8c0.2759399,0.0005493,0.4994507,0.2240601,0.5,0.5C4.5,8.776123,4.276123,9,4,9z M4,15c-0.8284302,0-1.5,0.6715698-1.5,1.5S3.1715698,18,4,18c0.828064-0.0009155,1.4990845-0.671936,1.5-1.5C5.5,15.6715698,4.8284302,15,4,15z M4,17c-0.276123,0-0.5-0.223877-0.5-0.5S3.723877,16,4,16c0.2759399,0.0005493,0.4994507,0.2240601,0.5,0.5C4.5,16.776123,4.276123,17,4,17z M8,19c-0.8284302,0-1.5,0.6715698-1.5,1.5S7.1715698,22,8,22c0.828064-0.0009155,1.4990845-0.671936,1.5-1.5C9.5,19.6715698,8.8284302,19,8,19z M8,21c-0.276123,0-0.5-0.223877-0.5-0.5S7.723877,20,8,20c0.2759399,0.0005493,0.4994507,0.2240601,0.5,0.5C8.5,20.776123,8.276123,21,8,21z M4,19c-0.8284302,0-1.5,0.6715698-1.5,1.5S3.1715698,22,4,22c0.828064-0.0009155,1.4990845-0.671936,1.5-1.5C5.5,19.6715698,4.8284302,19,4,19z M4,21c-0.276123,0-0.5-0.223877-0.5-0.5S3.723877,20,4,20c0.2759399,0.0005493,0.4994507,0.2240601,0.5,0.5C4.5,20.776123,4.276123,21,4,21z M4,3C3.1715698,3,2.5,3.6715698,2.5,4.5S3.1715698,6,4,6c0.828064-0.0009155,1.4990845-0.671936,1.5-1.5C5.5,3.6715698,4.8284302,3,4,3z M4,5C3.723877,5,3.5,4.776123,3.5,4.5S3.723877,4,4,4c0.2759399,0.0005493,0.4994507,0.2240601,0.5,0.5C4.5,4.776123,4.276123,5,4,5z M4,11c-0.8284302,0-1.5,0.6715698-1.5,1.5S3.1715698,14,4,14c0.828064-0.0009155,1.4990845-0.671936,1.5-1.5C5.5,11.6715698,4.8284302,11,4,11z M4,13c-0.276123,0-0.5-0.223877-0.5-0.5S3.723877,12,4,12c0.2759399,0.0005493,0.4994507,0.2240601,0.5,0.5C4.5,12.776123,4.276123,13,4,13z M20,6c0.828064-0.0009155,1.4990845-0.671936,1.5-1.5C21.5,3.6715698,20.8284302,3,20,3s-1.5,0.6715698-1.5,1.5S19.1715698,6,20,6z M20,4c0.2759399,0.0005493,0.4994507,0.2240601,0.5,0.5C20.5,4.776123,20.276123,5,20,5s-0.5-0.223877-0.5-0.5S19.723877,4,20,4z M16,3c-0.8284302,0-1.5,0.6715698-1.5,1.5S15.1715698,6,16,6c0.828064-0.0009155,1.4990845-0.671936,1.5-1.5C17.5,3.6715698,16.8284302,3,16,3z M16,5c-0.276123,0-0.5-0.223877-0.5-0.5S15.723877,4,16,4c0.2759399,0.0005493,0.4994507,0.2240601,0.5,0.5C16.5,4.776123,16.276123,5,16,5z M20,15c-0.8284302,0-1.5,0.6715698-1.5,1.5S19.1715698,18,20,18c0.828064-0.0009155,1.4990845-0.671936,1.5-1.5C21.5,15.6715698,20.8284302,15,20,15z M20,17c-0.276123,0-0.5-0.223877-0.5-0.5S19.723877,16,20,16c0.2759399,0.0005493,0.4994507,0.2240601,0.5,0.5C20.5,16.776123,20.276123,17,20,17z M20,19c-0.8284302,0-1.5,0.6715698-1.5,1.5S19.1715698,22,20,22c0.828064-0.0009155,1.4990845-0.671936,1.5-1.5C21.5,19.6715698,20.8284302,19,20,19z M20,21c-0.276123,0-0.5-0.223877-0.5-0.5S19.723877,20,20,20c0.2759399,0.0005493,0.4994507,0.2240601,0.5,0.5C20.5,20.776123,20.276123,21,20,21z M16,11c-0.8284302,0-1.5,0.6715698-1.5,1.5S15.1715698,14,16,14c0.828064-0.0009155,1.4990845-0.671936,1.5-1.5C17.5,11.6715698,16.8284302,11,16,11z M16,13c-0.276123,0-0.5-0.223877-0.5-0.5S15.723877,12,16,12c0.2759399,0.0005493,0.4994507,0.2240601,0.5,0.5C16.5,12.776123,16.276123,13,16,13z M20,11c-0.8284302,0-1.5,0.6715698-1.5,1.5S19.1715698,14,20,14c0.828064-0.0009155,1.4990845-0.671936,1.5-1.5C21.5,11.6715698,20.8284302,11,20,11z M20,13c-0.276123,0-0.5-0.223877-0.5-0.5S19.723877,12,20,12c0.2759399,0.0005493,0.4994507,0.2240601,0.5,0.5C20.5,12.776123,20.276123,13,20,13z M16,19c-0.8284302,0-1.5,0.6715698-1.5,1.5S15.1715698,22,16,22c0.828064-0.0009155,1.4990845-0.671936,1.5-1.5C17.5,19.6715698,16.8284302,19,16,19z M16,21c-0.276123,0-0.5-0.223877-0.5-0.5S15.723877,20,16,20c0.2759399,0.0005493,0.4994507,0.2240601,0.5,0.5C16.5,20.776123,16.276123,21,16,21z M20,7c-0.8284302,0-1.5,0.6715698-1.5,1.5S19.1715698,10,20,10c0.828064-0.0009155,1.4990845-0.671936,1.5-1.5C21.5,7.6715698,20.8284302,7,20,7z M20,9c-0.276123,0-0.5-0.223877-0.5-0.5S19.723877,8,20,8c0.2759399,0.0005493,0.4994507,0.2240601,0.5,0.5C20.5,8.776123,20.276123,9,20,9z M8,3C7.1715698,3,6.5,3.6715698,6.5,4.5S7.1715698,6,8,6c0.828064-0.0009155,1.4990845-0.671936,1.5-1.5C9.5,3.6715698,8.8284302,3,8,3z M8,5C7.723877,5,7.5,4.776123,7.5,4.5S7.723877,4,8,4c0.2759399,0.0005493,0.4994507,0.2240601,0.5,0.5C8.5,4.776123,8.276123,5,8,5z M12,19c-0.8284302,0-1.5,0.6715698-1.5,1.5S11.1715698,22,12,22c0.828064-0.0009155,1.4990845-0.671936,1.5-1.5C13.5,19.6715698,12.8284302,19,12,19z M12,21c-0.276123,0-0.5-0.223877-0.5-0.5S11.723877,20,12,20c0.2759399,0.0005493,0.4994507,0.2240601,0.5,0.5C12.5,20.776123,12.276123,21,12,21z M8,11c-0.8284302,0-1.5,0.6715698-1.5,1.5S7.1715698,14,8,14c0.828064-0.0009155,1.4990845-0.671936,1.5-1.5C9.5,11.6715698,8.8284302,11,8,11z M8,13c-0.276123,0-0.5-0.223877-0.5-0.5S7.723877,12,8,12c0.2759399,0.0005493,0.4994507,0.2240601,0.5,0.5C8.5,12.776123,8.276123,13,8,13z M12,3c-0.8284302,0-1.5,0.6715698-1.5,1.5S11.1715698,6,12,6c0.828064-0.0009155,1.4990845-0.671936,1.5-1.5C13.5,3.6715698,12.8284302,3,12,3z M12,5c-0.276123,0-0.5-0.223877-0.5-0.5S11.723877,4,12,4c0.2759399,0.0005493,0.4994507,0.2240601,0.5,0.5C12.5,4.776123,12.276123,5,12,5z M12,15c-0.8284302,0-1.5,0.6715698-1.5,1.5S11.1715698,18,12,18c0.828064-0.0009155,1.4990845-0.671936,1.5-1.5C13.5,15.6715698,12.8284302,15,12,15z M12,17c-0.276123,0-0.5-0.223877-0.5-0.5S11.723877,16,12,16c0.2759399,0.0005493,0.4994507,0.2240601,0.5,0.5C12.5,16.776123,12.276123,17,12,17z M12,11c-0.8284302,0-1.5,0.6715698-1.5,1.5S11.1715698,14,12,14c0.828064-0.0009155,1.4990845-0.671936,1.5-1.5C13.5,11.6715698,12.8284302,11,12,11z M12,13c-0.276123,0-0.5-0.223877-0.5-0.5S11.723877,12,12,12c0.2759399,0.0005493,0.4994507,0.2240601,0.5,0.5C12.5,12.776123,12.276123,13,12,13z M12,7c-0.8284302,0-1.5,0.6715698-1.5,1.5S11.1715698,10,12,10c0.828064-0.0009155,1.4990845-0.671936,1.5-1.5C13.5,7.6715698,12.8284302,7,12,7z M12,9c-0.276123,0-0.5-0.223877-0.5-0.5S11.723877,8,12,8c0.2759399,0.0005493,0.4994507,0.2240601,0.5,0.5C12.5,8.776123,12.276123,9,12,9z"/></svg>