<svg xmlns="http://www.w3.org/2000/svg" enable-background="new 0 0 24 24" viewBox="0 0 24 24"><path d="M4,6C3.1715698,6,2.5,6.6715698,2.5,7.5S3.1715698,9,4,9c0.828064-0.0009155,1.4990845-0.671936,1.5-1.5C5.5,6.6715698,4.8284302,6,4,6z M4,8C3.723877,8,3.5,7.776123,3.5,7.5S3.723877,7,4,7c0.2759399,0.0005493,0.4994507,0.2240601,0.5,0.5C4.5,7.776123,4.276123,8,4,8z M3,4h18c0.276123,0,0.5-0.223877,0.5-0.5S21.276123,3,21,3H3C2.723877,3,2.5,3.223877,2.5,3.5S2.723877,4,3,4z M8,18c-0.8284302,0-1.5,0.6715698-1.5,1.5S7.1715698,21,8,21c0.828064-0.0009155,1.4990845-0.671936,1.5-1.5C9.5,18.6715698,8.8284302,18,8,18z M8,20c-0.276123,0-0.5-0.223877-0.5-0.5S7.723877,19,8,19c0.2759399,0.0005493,0.4994507,0.2240601,0.5,0.5C8.5,19.776123,8.276123,20,8,20z M4,10c-0.8284302,0-1.5,0.6715698-1.5,1.5S3.1715698,13,4,13c0.828064-0.0009155,1.4990845-0.671936,1.5-1.5C5.5,10.6715698,4.8284302,10,4,10z M4,12c-0.276123,0-0.5-0.223877-0.5-0.5S3.723877,11,4,11c0.2759399,0.0005493,0.4994507,0.2240601,0.5,0.5C4.5,11.776123,4.276123,12,4,12z M4,14c-0.8284302,0-1.5,0.6715698-1.5,1.5S3.1715698,17,4,17c0.828064-0.0009155,1.4990845-0.671936,1.5-1.5C5.5,14.6715698,4.8284302,14,4,14z M4,16c-0.276123,0-0.5-0.223877-0.5-0.5S3.723877,15,4,15c0.2759399,0.0005493,0.4994507,0.2240601,0.5,0.5C4.5,15.776123,4.276123,16,4,16z M4,18c-0.8284302,0-1.5,0.6715698-1.5,1.5S3.1715698,21,4,21c0.828064-0.0009155,1.4990845-0.671936,1.5-1.5C5.5,18.6715698,4.8284302,18,4,18z M4,20c-0.276123,0-0.5-0.223877-0.5-0.5S3.723877,19,4,19c0.2759399,0.0005493,0.4994507,0.2240601,0.5,0.5C4.5,19.776123,4.276123,20,4,20z M20,10c-0.8284302,0-1.5,0.6715698-1.5,1.5S19.1715698,13,20,13c0.828064-0.0009155,1.4990845-0.671936,1.5-1.5C21.5,10.6715698,20.8284302,10,20,10z M20,12c-0.276123,0-0.5-0.223877-0.5-0.5S19.723877,11,20,11c0.2759399,0.0005493,0.4994507,0.2240601,0.5,0.5C20.5,11.776123,20.276123,12,20,12z M16,18c-0.8284302,0-1.5,0.6715698-1.5,1.5S15.1715698,21,16,21c0.828064-0.0009155,1.4990845-0.671936,1.5-1.5C17.5,18.6715698,16.8284302,18,16,18z M16,20c-0.276123,0-0.5-0.223877-0.5-0.5S15.723877,19,16,19c0.2759399,0.0005493,0.4994507,0.2240601,0.5,0.5C16.5,19.776123,16.276123,20,16,20z M16,10c-0.8284302,0-1.5,0.6715698-1.5,1.5S15.1715698,13,16,13c0.828064-0.0009155,1.4990845-0.671936,1.5-1.5C17.5,10.6715698,16.8284302,10,16,10z M16,12c-0.276123,0-0.5-0.223877-0.5-0.5S15.723877,11,16,11c0.2759399,0.0005493,0.4994507,0.2240601,0.5,0.5C16.5,11.776123,16.276123,12,16,12z M20,18c-0.8284302,0-1.5,0.6715698-1.5,1.5S19.1715698,21,20,21c0.828064-0.0009155,1.4990845-0.671936,1.5-1.5C21.5,18.6715698,20.8284302,18,20,18z M20,20c-0.276123,0-0.5-0.223877-0.5-0.5S19.723877,19,20,19c0.2759399,0.0005493,0.4994507,0.2240601,0.5,0.5C20.5,19.776123,20.276123,20,20,20z M20,14c-0.8284302,0-1.5,0.6715698-1.5,1.5S19.1715698,17,20,17c0.828064-0.0009155,1.4990845-0.671936,1.5-1.5C21.5,14.6715698,20.8284302,14,20,14z M20,16c-0.276123,0-0.5-0.223877-0.5-0.5S19.723877,15,20,15c0.2759399,0.0005493,0.4994507,0.2240601,0.5,0.5C20.5,15.776123,20.276123,16,20,16z M20,6c-0.8284302,0-1.5,0.6715698-1.5,1.5S19.1715698,9,20,9c0.828064-0.0009155,1.4990845-0.671936,1.5-1.5C21.5,6.6715698,20.8284302,6,20,6z M20,8c-0.276123,0-0.5-0.223877-0.5-0.5S19.723877,7,20,7c0.2759399,0.0005493,0.4994507,0.2240601,0.5,0.5C20.5,7.776123,20.276123,8,20,8z M12,14c-0.8284302,0-1.5,0.6715698-1.5,1.5S11.1715698,17,12,17c0.828064-0.0009155,1.4990845-0.671936,1.5-1.5C13.5,14.6715698,12.8284302,14,12,14z M12,16c-0.276123,0-0.5-0.223877-0.5-0.5S11.723877,15,12,15c0.2759399,0.0005493,0.4994507,0.2240601,0.5,0.5C12.5,15.776123,12.276123,16,12,16z M12,18c-0.8284302,0-1.5,0.6715698-1.5,1.5S11.1715698,21,12,21c0.828064-0.0009155,1.4990845-0.671936,1.5-1.5C13.5,18.6715698,12.8284302,18,12,18z M12,20c-0.276123,0-0.5-0.223877-0.5-0.5S11.723877,19,12,19c0.2759399,0.0005493,0.4994507,0.2240601,0.5,0.5C12.5,19.776123,12.276123,20,12,20z M8,10c-0.8284302,0-1.5,0.6715698-1.5,1.5S7.1715698,13,8,13c0.828064-0.0009155,1.4990845-0.671936,1.5-1.5C9.5,10.6715698,8.8284302,10,8,10z M8,12c-0.276123,0-0.5-0.223877-0.5-0.5S7.723877,11,8,11c0.2759399,0.0005493,0.4994507,0.2240601,0.5,0.5C8.5,11.776123,8.276123,12,8,12z M12,10c-0.8284302,0-1.5,0.6715698-1.5,1.5S11.1715698,13,12,13c0.828064-0.0009155,1.4990845-0.671936,1.5-1.5C13.5,10.6715698,12.8284302,10,12,10z M12,12c-0.276123,0-0.5-0.223877-0.5-0.5S11.723877,11,12,11c0.2759399,0.0005493,0.4994507,0.2240601,0.5,0.5C12.5,11.776123,12.276123,12,12,12z M12,6c-0.8284302,0-1.5,0.6715698-1.5,1.5S11.1715698,9,12,9c0.828064-0.0009155,1.4990845-0.671936,1.5-1.5C13.5,6.6715698,12.8284302,6,12,6z M12,8c-0.276123,0-0.5-0.223877-0.5-0.5S11.723877,7,12,7c0.2759399,0.0005493,0.4994507,0.2240601,0.5,0.5C12.5,7.776123,12.276123,8,12,8z"/></svg>