<svg xmlns="http://www.w3.org/2000/svg" enable-background="new 0 0 24 24" viewBox="0 0 24 24"><path d="M19.5,4h-3V2.5C16.5,2.223877,16.276123,2,16,2s-0.5,0.223877-0.5,0.5V4h-7V2.5C8.5,2.223877,8.276123,2,8,2S7.5,2.223877,7.5,2.5V4H4.4995117c-1.380127,0.0014648-2.4985352,1.119873-2.5,2.5v13c0.0014648,1.380127,1.119873,2.4985352,2.5,2.5H19.5c1.380188-0.0012817,2.4987183-1.119812,2.5-2.5v-13C21.9987183,5.119812,20.880188,4.0012817,19.5,4z M21,19.5c-0.0009155,0.828064-0.671936,1.4990845-1.5,1.5H4.4995117c-0.828064-0.0009155-1.4990845-0.671936-1.5-1.5V11H21V19.5z M21,10H2.9995117V6.5c0.0009155-0.828064,0.671936-1.4990845,1.5-1.5H7.5v1.5c0,0.0001831,0,0.0003662,0,0.0006104C7.5001831,6.7765503,7.723999,7.0001831,8,7c0.0001831,0,0.0003662,0,0.0006104,0C8.2765503,6.9998169,8.5001831,6.776001,8.5,6.5V5h7v1.5c0,0.0001831,0,0.0003662,0,0.0006104C15.5001831,6.7765503,15.723999,7.0001831,16,7c0.0001831,0,0.0003662,0,0.0006104,0C16.2765503,6.9998169,16.5001831,6.776001,16.5,6.5V5h3c0.828064,0.0009155,1.4990845,0.671936,1.5,1.5V10z"/></svg>