<svg xmlns="http://www.w3.org/2000/svg" enable-background="new 0 0 24 24" viewBox="0 0 24 24"><path d="M15.8085327,8.6464844l-5.6464233,5.6464844l-2.4707031-2.4697266c-0.0023804-0.0023804-0.0047607-0.0047607-0.0072021-0.0071411c-0.1972046-0.1932373-0.5137329-0.1900635-0.7069702,0.0071411c-0.1932983,0.1972656-0.1900635,0.5137939,0.0071411,0.7070312l2.8242188,2.8232422C9.9022217,15.4474487,10.02948,15.5001831,10.1621094,15.5c0.1326294,0.0001221,0.2598267-0.0525513,0.3534546-0.1464844l6-6c0.0023804-0.0023804,0.0047607-0.0046997,0.0071411-0.0071411c0.1932373-0.1972046,0.1900635-0.5137329-0.0071411-0.7069702C16.3183594,8.446106,16.0018311,8.4493408,15.8085327,8.6464844z M12,2C6.4771729,2,2,6.4771729,2,12s4.4771729,10,10,10c5.5201416-0.0064697,9.9935303-4.4798584,10-10C22,6.4771729,17.5228271,2,12,2z M12,21c-4.9705811,0-9-4.0294189-9-9s4.0294189-9,9-9c4.9683228,0.0054321,8.9945679,4.0316772,9,9C21,16.9705811,16.9705811,21,12,21z"/></svg>