<svg xmlns="http://www.w3.org/2000/svg" enable-background="new 0 0 24 24" viewBox="0 0 24 24"><path d="M11.999939,6.5c-0.276123,0-0.5,0.223877-0.5,0.5v4.6914062l-2.7059937,1.3623047c-0.168457,0.0848999-0.2747803,0.2573853-0.2749634,0.4460449C8.5187988,13.7758789,8.7424927,13.9998169,9.0185547,14c0.078064,0.0003662,0.1550903-0.0180664,0.2245483-0.0537109l2.9814453-1.5C12.3933105,12.3615112,12.4998169,12.1888428,12.499939,12V7C12.499939,6.723877,12.276123,6.5,11.999939,6.5z M12,2C6.4771729,2,2,6.4771729,2,12s4.4771729,10,10,10c5.5201416-0.0064697,9.9935303-4.4798584,10-10C22,6.4771729,17.5228271,2,12,2z M12,21c-4.9705811,0-9-4.0294189-9-9s4.0294189-9,9-9c4.9683228,0.0054321,8.9945679,4.0316772,9,9C21,16.9705811,16.9705811,21,12,21z"/></svg>