<svg xmlns="http://www.w3.org/2000/svg" enable-background="new 0 0 24 24" viewBox="0 0 24 24"><path d="M8.8535156,9.8535156L12,6.7069702l3.1464844,3.1465454C15.2401123,9.9474487,15.3673706,10.0001831,15.5,10c0.1325073,0,0.2596436-0.0526733,0.3533936-0.1463623c0.1953125-0.1952515,0.1953735-0.5118408,0.0001221-0.7070923l-3.5-3.5c-0.000061-0.000061-0.000061-0.0001221-0.0001221-0.0001831c-0.1952515-0.1951294-0.5117188-0.1950684-0.7068481,0.0001831l-3.5,3.5c-0.1871338,0.1937256-0.1871338,0.5009155,0,0.6947021C8.3383789,10.039856,8.6549072,10.0453491,8.8535156,9.8535156z M15.1464844,14.1464844L12,17.2929688l-3.1465454-3.1464233c-0.1937256-0.1871338-0.5009155-0.1871338-0.6947021,0c-0.1986084,0.1918335-0.2041016,0.5083618-0.0122681,0.7069702l3.5,3.5C11.7401123,18.4474487,11.8673706,18.5001831,12,18.5c0.1326294,0.0001221,0.2598267-0.0525513,0.3534546-0.1464844l3.5-3.5c0.1871338-0.1937866,0.1871338-0.5009766,0-0.6947021C15.6616211,13.9602051,15.3450928,13.9546509,15.1464844,14.1464844z"/></svg>