<svg xmlns="http://www.w3.org/2000/svg" enable-background="new 0 0 24 24" viewBox="0 0 24 24"><path d="M12,7c1.1040039-0.0014038,1.9985962-0.8959961,2-2c0-1.1045532-0.8954468-2-2-2s-2,0.8954468-2,2S10.8954468,7,12,7z M12,4c0.552124,0.0003662,0.9996338,0.447876,1,1c0,0.5523071-0.4476929,1-1,1s-1-0.4476929-1-1S11.4476929,4,12,4z M12,10c-1.1045532,0-2,0.8954468-2,2s0.8954468,2,2,2c1.1040039-0.0014038,1.9985962-0.8959961,2-2C14,10.8954468,13.1045532,10,12,10z M12,13c-0.5523071,0-1-0.4476929-1-1s0.4476929-1,1-1c0.552124,0.0003662,0.9996338,0.447876,1,1C13,12.5523071,12.5523071,13,12,13z M12,17c-1.1045532,0-2,0.8954468-2,2s0.8954468,2,2,2c1.1040039-0.0014038,1.9985962-0.8959961,2-2C14,17.8954468,13.1045532,17,12,17z M12,20c-0.5523071,0-1-0.4476929-1-1s0.4476929-1,1-1c0.552124,0.0003662,0.9996338,0.447876,1,1C13,19.5523071,12.5523071,20,12,20z"/></svg>