<svg xmlns="http://www.w3.org/2000/svg" enable-background="new 0 0 24 24" viewBox="0 0 24 24"><path d="M12,15.875c-0.3451538,0-0.625,0.2798462-0.625,0.625s0.2798462,0.625,0.625,0.625s0.625-0.2798462,0.625-0.625S12.3451538,15.875,12,15.875z M12,14h0.0006104c0.2759399-0.0001831,0.4995728-0.223999,0.4993896-0.5v-4C12.5,9.223877,12.276123,9,12,9s-0.5,0.223877-0.5,0.5v4.0005493C11.5001831,13.7765503,11.723999,14.0001831,12,14z M22.7128906,17.546875L14.5644531,3.4785156c-0.2591553-0.4470215-0.6307373-0.8186035-1.0777588-1.0777588c-1.4163208-0.8210449-3.2300415-0.338562-4.0511475,1.0777588L1.2861328,17.5498047c-0.2616577,0.4516602-0.3994141,0.9644165-0.399353,1.4863892C0.887085,20.6733398,2.2144165,22.0002441,3.8515625,22h16.2939453c0.5223999,0.0001221,1.0355835-0.1376953,1.4876709-0.3995972C23.0506592,20.7792358,23.5340576,18.9644165,22.7128906,17.546875z M20.1455688,21H3.8515625c-0.3449707-0.0002441-0.6837769-0.0912476-0.9824219-0.263916c-0.9396973-0.543335-1.2611084-1.7455444-0.7177734-2.6853027l8.1494141-14.0703125C10.6489258,3.3712769,11.2983398,2.9969482,12,3.0009766c0.7016602-0.0040283,1.3510742,0.3703003,1.6992188,0.9794922l8.1484985,14.0683594c0.1734009,0.2995605,0.2647095,0.6395874,0.2645874,0.9857178C22.1119385,20.1204224,21.2313843,21.0003662,20.1455688,21z"/></svg>