<svg xmlns="http://www.w3.org/2000/svg" enable-background="new 0 0 24 24" viewBox="0 0 24 24"><path d="M17.9902344,1.5957031c-1.0087891-0.1067505-2.0227051-0.1586304-3.0371094-0.1552734C11.5898438,1.4404297,9.5,3.5819702,9.5,7.0302734v2.3408203H6.6748047c-0.276001-0.0001831-0.4998779,0.2234497-0.5,0.4994507v3.8511353c-0.0001831,0.276001,0.2234497,0.4998169,0.4994507,0.5H9.5v7.71875c-0.0001831,0.276001,0.2234497,0.4998169,0.4994507,0.5h3.9780884c0.276001,0.0001831,0.4998169-0.2234497,0.5-0.4994507v-7.7192993h2.8164673c0.2512207-0.000061,0.463501-0.1864014,0.4960938-0.4355469l0.4970703-3.8505859c0.0357056-0.2736816-0.1572266-0.5245361-0.4309692-0.5602417c-0.0216064-0.0028076-0.043335-0.0042114-0.0651245-0.0042114h-3.3135376V7.4121094c0-0.9697266,0.1953125-1.375,1.4082031-1.375l2.0390625-0.0009766c0.276001,0.0001221,0.4998169-0.2234497,0.5-0.4994507V2.0917969C18.4248657,1.8408203,18.2390137,1.6286621,17.9902344,1.5957031z M17.4248047,5.0361328l-1.5390625,0.0009766c-2.1582031,0-2.4082031,1.3554688-2.4082031,2.375v2.4590454c-0.0001221,0.2759399,0.2234497,0.4998169,0.4994507,0.499939h3.2456665l-0.3681641,2.8505859h-2.8769531c-0.276001-0.0001221-0.4998169,0.2234497-0.5,0.4994507v7.7192993H10.5v-7.71875c0.0001831-0.276001-0.2234497-0.4998169-0.4993896-0.5H7.1748047v-2.8505859H10c0.276001,0.0001831,0.4998169-0.2234497,0.5-0.4994507V7.0302734c0-2.8740234,1.664978-4.5898438,4.453125-4.5898438c1.0087891,0,1.9199219,0.0546875,2.4716797,0.1025391V5.0361328z"/></svg>