<svg xmlns="http://www.w3.org/2000/svg" enable-background="new 0 0 24 24" viewBox="0 0 24 24"><path d="M16.1171875,8.90625l-2.5888672,3.0859375l-3.7148438-2.28125c-0.2109375-0.130249-0.4855347-0.0856934-0.6445312,0.1044922l-3.0517578,3.6357422c-0.1774292,0.2114258-0.1499023,0.5266724,0.0615234,0.7041016s0.5266724,0.1499023,0.7041016-0.0615234l2.7744141-3.3056641l3.7148438,2.28125c0.2111816,0.1291504,0.4849854,0.0847778,0.6445312-0.1044922l2.8662109-3.4160156c0.1774292-0.2114258,0.1499023-0.5266724-0.0615234-0.7041016S16.2946167,8.6948242,16.1171875,8.90625z M12,1C5.7148438,1,0.9746094,5.59375,0.9746094,11.6855469c-0.0385132,3.0127563,1.2272949,5.8950806,3.4716797,7.9052734c0.0709229,0.0610962,0.1136475,0.1486816,0.1181641,0.2421875l0.0576172,1.8671875c0.0240479,0.7242432,0.6181641,1.2988892,1.3427734,1.2988281c0.185791-0.000061,0.3695679-0.038269,0.539978-0.1123047l2.0878906-0.9189453c0.0709839-0.0327759,0.1512451-0.0393677,0.2265625-0.0185547C9.8557739,22.2319336,10.9256592,22.3738403,12,22.3710938c6.2851562,0,11.0253906-4.59375,11.0253906-10.6855469S18.2851562,1,12,1z M12,21.3710938c-0.9849854,0.0027466-1.9658203-0.1273804-2.9160156-0.3867188c-0.296875-0.0791016-0.6118164-0.0553589-0.8935547,0.0673828l-2.0869141,0.9189453c-0.1052856,0.0456543-0.2263794,0.0361328-0.3232422-0.0253906c-0.0958862-0.0596313-0.1553345-0.1635132-0.1582031-0.2763672l-0.0576172-1.8710938c-0.0143433-0.3656006-0.1773071-0.7095337-0.4511719-0.9521484c-2.031189-1.8214111-3.1755981-4.4321289-3.1386719-7.1601562C1.9746094,6.1640625,6.2841797,2,12,2s10.0253906,4.1640625,10.0253906,9.6855469S17.7158203,21.3710938,12,21.3710938z"/></svg>