<svg xmlns="http://www.w3.org/2000/svg" enable-background="new 0 0 24 24" viewBox="0 0 24 24"><path d="M5.8261719,10.0566406l0.4179688-1.5546875C6.2444458,8.5009766,6.2446899,8.5,6.2449341,8.4990234C6.3158569,8.2323608,6.1572266,7.9586792,5.890564,7.8877563S5.3502197,7.9755249,5.2793579,8.2421875L4.8613281,9.796875C4.8502808,9.8383789,4.8446045,9.8811035,4.8444824,9.9240723c-0.0009766,0.2766724,0.2225952,0.501709,0.4992676,0.5026855C5.5697021,10.4265747,5.7674561,10.2748413,5.8261719,10.0566406z M3.25,20H3.1513672l0.0263672-0.0947266c0.071106-0.2669067-0.0869141-0.5410767-0.3535156-0.6132812c-0.2664185-0.0675659-0.538208,0.0891113-0.6132812,0.3535156l-0.1943359,0.7246094c-0.0112305,0.0420532-0.0169678,0.0854492-0.0169678,0.1289673C1.9995117,20.7755737,2.2235107,20.9998779,2.5,21h0.75c0.276123,0,0.5-0.223877,0.5-0.5S3.526123,20,3.25,20z M7.8212891,3h-0.75C6.8450928,3.000061,6.6469727,3.1517334,6.5879517,3.3701172L6.3936157,4.0947266c-0.071106,0.2669067,0.0869141,0.5410767,0.3535156,0.6132812C6.7896118,4.71875,6.8331909,4.7243042,6.8770142,4.7246094c0.2260742-0.0004883,0.4239502-0.1519775,0.4833374-0.3701172L7.4550781,4h0.3662109c0.276123,0,0.5-0.223877,0.5-0.5S8.0974121,3,7.8212891,3z M4.3574829,13.5917969c-0.2664795-0.0717163-0.5405884,0.0861206-0.6123047,0.3525391l-0.4180298,1.5546875c-0.0110474,0.0415039-0.0167236,0.0842285-0.0168457,0.1271973c-0.0009766,0.2766724,0.2225952,0.50177,0.4992676,0.5026855c0.2259521-0.0001831,0.4237061-0.1519165,0.4824219-0.3701172l0.4180298-1.5546875C4.7817383,13.9376831,4.6239014,13.6635132,4.3574829,13.5917969z M7.0126953,20H5.9863281c-0.276123,0-0.5,0.223877-0.5,0.5s0.223877,0.5,0.5,0.5h1.0263672c0.276123,0,0.5-0.223877,0.5-0.5S7.2888184,20,7.0126953,20z M21.9824219,20.3701172l-4.5712891-17C17.3528442,3.1516113,17.1548462,2.9996948,16.9287109,3H13.5c-0.0001831,0-0.0003662,0-0.0005493,0C13.2234497,3.0001831,12.9998169,3.223999,13,3.5v17c0,0.0001831,0,0.0003662,0,0.0005493C13.0001831,20.7765503,13.223999,21.0001831,13.5,21h8c0.0441895,0,0.0881348-0.0057983,0.1307373-0.017334C21.8970337,20.9106445,22.0544434,20.6363525,21.9824219,20.3701172z M14,20V4h2.5449219l4.3027344,16H14z M10.5,3H9.75c-0.276123,0-0.5,0.223877-0.5,0.5S9.473877,4,9.75,4H10v0.25c0,0.0001831,0,0.0003662,0,0.0006104C10.0001831,4.5265503,10.223999,4.7501831,10.5,4.75c0.0001831,0,0.0003662,0,0.0006104,0C10.7765503,4.7498169,11.0001831,4.526001,11,4.25V3.5c0-0.0001831,0-0.0003662,0-0.0006104C10.9998169,3.2234497,10.776001,2.9998169,10.5,3z M10.5,19.25c-0.276123,0-0.5,0.223877-0.5,0.5V20H9.75c-0.276123,0-0.5,0.223877-0.5,0.5S9.473877,21,9.75,21h0.75c0.0001831,0,0.0003662,0,0.0006104,0C10.7765503,20.9998169,11.0001831,20.776001,11,20.5v-0.75C11,19.473877,10.776123,19.25,10.5,19.25z M10.5,13.5673828c-0.276123,0-0.5,0.223877-0.5,0.5v1.5498047c0,0.0001831,0,0.0003662,0,0.0005493c0.0001831,0.276001,0.223999,0.4996338,0.5,0.4994507c0.0001831,0,0.0003662,0,0.0005493,0c0.276001-0.0001831,0.4996338-0.223999,0.4994507-0.5v-1.5498047C11,13.7912598,10.776123,13.5673828,10.5,13.5673828z M10.5,7.8837891c-0.276123,0-0.5,0.223877-0.5,0.5v1.5498047c0,0.0001831,0,0.0003662,0,0.0005493c0.0001831,0.276001,0.223999,0.4996338,0.5,0.4994507c0.0001831,0,0.0003662,0,0.0006104,0c0.2759399-0.0001831,0.4995728-0.223999,0.4993896-0.5V8.3837891C11,8.107666,10.776123,7.8837891,10.5,7.8837891z"/></svg>