<svg xmlns="http://www.w3.org/2000/svg" enable-background="new 0 0 24 24" viewBox="0 0 24 24"><path d="M5.4658203,14.3016968c-0.0028076-0.0029297-0.0056763-0.0057983-0.0085449-0.008667c-0.1960449-0.194519-0.5125732-0.1932983-0.7070923,0.0027466s-0.1932983,0.5125732,0.0027466,0.7070923l0.78125,0.7940063c0.0938721,0.0957031,0.2223511,0.1495972,0.3564453,0.1494141v-0.000061c0.1311646,0,0.257019-0.0515137,0.3505249-0.1434937c0.1968994-0.1936035,0.1995239-0.5101929,0.0059204-0.7070923L5.4658203,14.3016968z M5.5341797,8.2021484l-0.78125,0.7939453C4.6609497,9.0895996,4.609436,9.2155151,4.609436,9.3466187c-0.000061,0.2761841,0.2238159,0.500061,0.499939,0.500061c0.1340942,0.0001831,0.2625732-0.0537109,0.3564453-0.1494141l0.78125-0.7939453C6.249939,8.9004517,6.2528076,8.897583,6.2556152,8.8946533c0.1912231-0.1992188,0.1847534-0.5157471-0.0144653-0.7069702S5.7254028,8.0029297,5.5341797,8.2021484z M3.2011719,12l0.1816406-0.1845703c0.1879272-0.1958008,0.1853638-0.5057373-0.0057983-0.6984253c-0.194519-0.1959839-0.5110474-0.1972656-0.7070923-0.0027466l-0.5263672,0.5351562c-0.1914062,0.194519-0.1914062,0.5066528,0,0.7011719l0.5263672,0.5351562c0.0938721,0.0957031,0.2223511,0.1495972,0.3564453,0.1494141c0.1311646,0,0.257019-0.0515747,0.3505249-0.1434937c0.1968994-0.1936646,0.1995239-0.5101929,0.0059204-0.7070923L3.2011719,12z M8.0810547,17.0771484c-0.1651001-0.0363159-0.3372803,0.0133057-0.4578247,0.1317749c-0.1968994,0.1936035-0.199646,0.5101318-0.0060425,0.7070923l0.5263672,0.5341797C8.2375488,18.5457764,8.3659668,18.5996094,8.5,18.5996094c0.0650024,0.0001831,0.1293335-0.0124512,0.1894531-0.0371094C8.8771973,18.4853516,8.9998169,18.3025513,9,18.0996094v-0.75c0.000061-0.1693115-0.0855713-0.3271484-0.2275391-0.4193726C8.5409546,16.7799072,8.2314453,16.8456421,8.0810547,17.0771484z M21.8564453,11.6494141l-6-6.0996094c-0.0940552-0.0957031-0.2225952-0.1495972-0.3568115-0.1495361C15.2235718,5.4003906,14.9998779,5.6243286,15,5.9003906v12.1992188c0.0001831,0.2029419,0.1228027,0.3857422,0.3105469,0.4628906c0.0601196,0.0246582,0.1245117,0.0372925,0.1894531,0.0371094c0.1340942,0.0001831,0.2625732-0.0536499,0.3564453-0.1494141l6-6.0996094C22.0478516,12.1560669,22.0478516,11.8439331,21.8564453,11.6494141z M16,16.8779297V7.1220703L20.7988281,12L16,16.8779297z M8.5,10.6552734c-0.276123,0-0.5,0.223877-0.5,0.5v1.6894531c0,0.0001831,0,0.0003662,0,0.0005493c0.0001831,0.276001,0.223999,0.4996338,0.5,0.4994507c0.0001831,0,0.0003662,0,0.0005493,0c0.276001-0.0001221,0.4996338-0.223999,0.4994507-0.5v-1.6894531C9,10.8791504,8.776123,10.6552734,8.5,10.6552734z M12,2c-0.276123,0-0.5,0.223877-0.5,0.5v19c0,0.0001831,0,0.0003662,0,0.0005493C11.5001831,21.7765503,11.723999,22.0001831,12,22c0.0001831,0,0.0003662,0,0.0006104,0c0.2759399-0.0001831,0.4995728-0.223999,0.4993896-0.5v-19C12.5,2.223877,12.276123,2,12,2z M8.1434937,5.5498657L7.6171265,6.0840454c0,0-0.000061,0.000061-0.0001221,0.0001221C7.4234619,6.2810059,7.4261475,6.5974731,7.6229858,6.7910156C7.742981,6.9105835,7.9158325,6.9603271,8.0809937,6.9228516C8.1730347,7.0648193,8.3308105,7.1505127,8.5,7.1503906c0.0001831,0,0.0003662,0,0.0006104,0C8.7765503,7.1502075,9.0001831,6.9263916,9,6.6503906v-0.75c0.000061-0.1342163-0.053833-0.2628174-0.1495972-0.3568726C8.6534424,5.3500366,8.3369751,5.3529053,8.1434937,5.5498657z"/></svg>