<svg xmlns="http://www.w3.org/2000/svg" enable-background="new 0 0 24 24" viewBox="0 0 24 24"><path d="M3.5,8.3212891c0.0001831,0,0.0003662,0,0.0006104,0C3.7765503,8.321106,4.0001831,8.09729,4,7.8212891V7.4550781l0.3544922-0.0947266C4.62146,7.2886353,4.7797241,7.0140381,4.7080078,6.7470703S4.3616943,6.3218384,4.0947266,6.3935547L3.3701172,6.5878906C3.1517334,6.6469116,3,6.8450317,3,7.0712891v0.75c0,0.0001831,0,0.0003662,0,0.0006104C3.0001831,8.0978394,3.223999,8.3214722,3.5,8.3212891z M9.9335938,10H8.3837891c-0.276123,0-0.5,0.223877-0.5,0.5s0.223877,0.5,0.5,0.5h1.5498047c0.276123,0,0.5-0.223877,0.5-0.5S10.2097168,10,9.9335938,10z M8.3720703,6.2617188c0.0438843-0.0001221,0.0875244-0.0060425,0.1298828-0.0175781l1.5546875-0.4180298c0.0009766-0.0002441,0.0019531-0.0004883,0.0029297-0.0007935c0.2662354-0.0725098,0.4232178-0.3471069,0.350708-0.6133423c-0.0725708-0.2662354-0.347168-0.4232178-0.6134033-0.350647L8.2421875,5.2792969C8.0241699,5.3380737,7.8726196,5.5358276,7.8724976,5.7616577C7.8723755,6.0376587,8.0960083,6.2615967,8.3720703,6.2617188z M14.0673828,11h1.5498047c0.276123,0,0.5-0.223877,0.5-0.5s-0.223877-0.5-0.5-0.5h-1.5498047c-0.276123,0-0.5,0.223877-0.5,0.5S13.7912598,11,14.0673828,11z M14.0742188,4.7275391c0.0438843-0.0001221,0.0875244-0.0060425,0.1298828-0.0175171l1.5546875-0.4180908c0.0006104-0.0001221,0.0012207-0.0003052,0.00177-0.0004272c0.2662964-0.0722656,0.423645-0.3466797,0.3514404-0.6129761c-0.0722656-0.2662964-0.3466797-0.423645-0.6129761-0.3513794l-1.5546875,0.4179688C13.7263184,3.803894,13.5747681,4.0016479,13.574646,4.227478C13.5745239,4.503479,13.7981567,4.727417,14.0742188,4.7275391z M20.5,13h-17c-0.0001831,0-0.0003662,0-0.0006104,0C3.2234497,13.0001831,2.9998169,13.223999,3,13.5v3.75c0,0.2295532,0.15625,0.4296265,0.3789062,0.4853516l17,4.25C20.4185181,21.9950562,20.4592285,21.999939,20.5,22c0.0004883,0,0.0009155,0,0.0014038,0C20.7771606,21.9996338,21.0003662,21.7757568,21,21.5v-8c0-0.0001831,0-0.0003662,0-0.0006104C20.9998169,13.2234497,20.776001,12.9998169,20.5,13z M20,20.859375l-16-4V14h16V20.859375z M20.9830322,2.3710327c-0.0713501-0.2671509-0.3457642-0.4257812-0.612915-0.3544312l-0.7246094,0.1943359c-0.0005493,0.0001831-0.0011597,0.0003052-0.001709,0.0004883c-0.2668457,0.0722046-0.4246216,0.3470459-0.352417,0.6138916s0.3470459,0.4246216,0.6138916,0.352417L20,3.1513672V3.25c0,0.0001831,0,0.0003662,0,0.0006104C20.0001831,3.5265503,20.223999,3.7501831,20.5,3.75c0.0001831,0,0.0003662,0,0.0006104,0C20.7765503,3.7498169,21.0001831,3.526001,21,3.25V2.5C21,2.4564819,20.9942627,2.4130859,20.9830322,2.3710327z M20.5,5.4873047c-0.276123,0-0.5,0.223877-0.5,0.5v1.0263672c0,0.0001831,0,0.0003662,0,0.0005493c0.0001831,0.276001,0.223999,0.4996338,0.5,0.4994507c0.0001831,0,0.0003662,0,0.0006104,0c0.2759399-0.0001831,0.4995728-0.223999,0.4993896-0.5V5.9873047C21,5.7111816,20.776123,5.4873047,20.5,5.4873047z M20.5,9.25c-0.276123,0-0.5,0.223877-0.5,0.5V10h-0.25c-0.276123,0-0.5,0.223877-0.5,0.5s0.223877,0.5,0.5,0.5h0.75c0.0001831,0,0.0003662,0,0.0006104,0C20.7765503,10.9998169,21.0001831,10.776001,21,10.5V9.75C21,9.473877,20.776123,9.25,20.5,9.25z M3.5,11h0.75c0.276123,0,0.5-0.223877,0.5-0.5S4.526123,10,4.25,10H4V9.75c0-0.276123-0.223877-0.5-0.5-0.5S3,9.473877,3,9.75v0.75c0,0.0001831,0,0.0003662,0,0.0005493C3.0001831,10.7765503,3.223999,11.0001831,3.5,11z"/></svg>