<svg xmlns="http://www.w3.org/2000/svg" enable-background="new 0 0 24 24" viewBox="0 0 24 24"><path d="M21.7319336,15.1376953c-0.0018921-0.0333252-0.0109253-0.0648193-0.0196533-0.0977173c-0.0087891-0.0328369-0.0167847-0.0644531-0.0317383-0.0942383c-0.0046387-0.0092773-0.0043945-0.0195923-0.0096436-0.0287476L15.5126953,4.25C15.4235229,4.0953369,15.258606,4.000061,15.0800781,4H8.9208984C8.833252,4.000061,8.7471924,4.0231934,8.6712646,4.0670166C8.5995483,4.1083984,8.5473633,4.1674805,8.5056152,4.2327271C8.5006104,4.239502,8.492981,4.2429199,8.4882812,4.25L2.3291016,14.9169922c-0.0898438,0.154541-0.0898438,0.345459,0,0.5L5.4091797,20.75c0.0072021,0.0125122,0.0214233,0.0179443,0.0296021,0.0296631c0.0339355,0.0488281,0.0745239,0.0894775,0.1233521,0.1234741c0.0183716,0.0127563,0.0338135,0.026062,0.0537109,0.0362549C5.6845093,20.9749756,5.7591553,20.999939,5.8417969,21h12.3173828c0.1785278-0.000061,0.3434448-0.0953369,0.4326172-0.25l3.0791016-5.3330078c0.0070801-0.0122681,0.0048828-0.0276489,0.0108643-0.0404663c0.0253296-0.053894,0.0402832-0.109314,0.0452881-0.1686401c0.0012207-0.0140991,0.0108643-0.0262451,0.0108643-0.0404663C21.737915,15.1568604,21.7325439,15.1480713,21.7319336,15.1376953z M14.7910156,5l5.5810547,9.6669922h-5.0029297L9.7871094,5H14.7910156z M14.2144165,14.6669922H9.7861938l2.2139282-3.8348389L14.2144165,14.6669922z M3.3388672,15.1669922L8.9208984,5.5l2.5019531,4.3330078L5.8417969,19.5L3.3388672,15.1669922z M17.8701172,20H6.7080078l2.5020142-4.3330078h11.1621094L17.8701172,20z"/></svg>