<svg xmlns="http://www.w3.org/2000/svg" enable-background="new 0 0 24 24" viewBox="0 0 24 24"><path d="M22.1318359,10.0332031c-0.0428467-0.2381592-0.2501831-0.411377-0.4921875-0.4111328h-9.4179688c-0.276001-0.0001831-0.4998779,0.2234497-0.5,0.4993896c0,0.0002441,0,0.0004272,0,0.0006104v3.8681641c-0.0001831,0.276001,0.2233887,0.4998169,0.4993896,0.5c0.0001831,0,0.0003662,0,0.0006104,0h4.7353516c-0.2963257,0.8607178-0.8681641,1.5997314-1.6269531,2.1025391c-0.927063,0.5915527-2.0089722,0.8944092-3.1083984,0.8701172c-2.343811-0.0240479-4.407959-1.5483398-5.1206665-3.78125l-0.0007935-0.0012817c-0.3829956-1.1286621-0.3829956-2.3521729,0-3.480835l0.0007935-0.0012817c0.7128296-2.2328491,2.7769165-3.7570801,5.1206665-3.78125c1.2922974-0.020874,2.5411377,0.4666138,3.4775391,1.3574219c0.1962891,0.1882935,0.5072021,0.1848145,0.6992188-0.0078125l2.8681641-2.8681641c0.1953735-0.1953125,0.1954346-0.5119629,0.0001221-0.7073364c-0.0042114-0.0042114-0.0084839-0.0083618-0.0128174-0.0123901c-1.9041748-1.7839966-4.4230347-2.7647705-7.0322266-2.7382812C8.2489624,1.4284668,4.612915,3.6699829,2.8388672,7.2246094c-1.489563,2.9671021-1.489563,6.463562,0,9.4306641c1.7741699,3.5546875,5.4099731,5.7964478,9.3828125,5.7851562c2.5581055,0.0670166,5.0452271-0.8458862,6.9525146-2.5519409l0.0045166-0.0027466c2.0888672-2.0148926,3.2304077-4.817749,3.1435547-7.71875C22.3220825,11.4514771,22.2583618,10.7374268,22.1318359,10.0332031z M12.2216797,2.4404297c2.177002-0.022583,4.2908325,0.7315674,5.9619141,2.1270142l-2.1601562,2.1600952c-1.0762329-0.8657837-2.4206543-1.3292236-3.8017578-1.3105469C9.7005005,5.4344482,7.4238892,6.928772,6.4050293,9.2349854l-2.4805908-1.923645C5.5953369,4.2964478,8.7747192,2.4299316,12.2216797,2.4404297z M2.7216797,11.9404297C2.7191162,10.6651611,2.9753418,9.4026489,3.4748535,8.229248l2.5728149,1.9952393c-0.3129272,1.1222534-0.3129272,2.3086548,0,3.4309082l-2.5717773,1.9944458C2.9795532,14.4760742,2.7231445,13.2148438,2.7216797,11.9404297z M12.2216797,21.4404297c-3.4471436,0.0102539-6.6265869-1.8566284-8.2972412-4.8718872l2.4805908-1.923645c1.0186157,2.3063965,3.2954102,3.8008423,5.8167114,3.8179932c1.1734619,0.0178833,2.3309326-0.2741699,3.3554688-0.8466797l0.1091309,0.0847778l2.3634644,1.8361206C16.3822021,20.8199463,14.3249512,21.4917603,12.2216797,21.4404297z M18.8037109,18.8564453l-2.3779297-1.8466797c0.8726807-0.7584229,1.4613037-1.7913208,1.6689453-2.9287109c0.0504761-0.2711182-0.1282959-0.5318604-0.3994141-0.5823975c-0.0302734-0.0056152-0.0610352-0.0084839-0.0917969-0.0084229h-4.8818359v-2.8681641h8.4921875c0.0722656,0.5117798,0.1085205,1.0280151,0.1083984,1.5449219C21.3942871,14.6411133,20.489563,17.0441284,18.8037109,18.8564453z"/></svg>