<svg xmlns="http://www.w3.org/2000/svg" enable-background="new 0 0 24 24" viewBox="0 0 24 24"><path d="M14.9921875,8c-1.1045532,0-2,0.8954468-2,2s0.8954468,2,2,2c0.3582764-0.0018311,0.7092896-0.1009521,1.015625-0.2868042V12c-0.0003662,0.552124-0.447876,0.9996338-1,1c-0.276123,0-0.5,0.223877-0.5,0.5s0.223877,0.5,0.5,0.5c1.1040039-0.0014038,1.9985962-0.8959961,2-2v-2c-0.0019531-0.0532227-0.0125122-0.1057739-0.0313721-0.1555786C16.8971558,8.8062744,16.0333252,8.0033569,14.9921875,8z M14.9921875,11c-0.5523071,0-1-0.4476929-1-1s0.4476929-1,1-1s1,0.4476929,1,1C15.9918213,10.552124,15.5443115,10.9996338,14.9921875,11z M13.3394165,1.0818481C12.8953857,1.0235596,12.4478149,0.9962158,12,1c-5.371521-0.0146484-9.737793,4.3280029-9.7524414,9.6994629C2.2333984,15.8971558,6.3084717,20.1873779,11.5,20.4404297V22.5c-0.0001221,0.276001,0.2234497,0.4998779,0.4994507,0.5H12c0.0401611,0,0.0802002-0.0049438,0.1191406-0.0146484c5.2094727-1.2819214,9.0397949-5.7161865,9.5507812-11.0566406C22.3648071,6.6329956,18.6350708,1.7767334,13.3394165,1.0818481z M20.6757812,11.8212891C20.2313232,16.5093994,17.0032959,20.4666138,12.5,21.84375v-1.890625c0.0001831-0.276001-0.2234497-0.4998779-0.4994507-0.5H12c-4.8534546,0.0198364-8.8040771-3.8986206-8.8239136-8.7520752C3.15625,5.8475342,7.074707,1.8969727,11.9282227,1.8771362c4.8534546-0.0198364,8.8040161,3.8986206,8.8238525,8.7520752C20.7537231,11.027832,20.7282104,11.4261475,20.6757812,11.8212891z M8.9921875,8c-1.1045532,0-2,0.8954468-2,2s0.8954468,2,2,2c0.3582764-0.0018311,0.7092896-0.1009521,1.015625-0.2868042V12c-0.0003662,0.552124-0.447876,0.9996338-1,1c-0.276123,0-0.5,0.223877-0.5,0.5s0.223877,0.5,0.5,0.5c1.1040039-0.0014038,1.9985962-0.8959961,2-2v-2c-0.0019531-0.0532227-0.0125122-0.1057739-0.0313721-0.1555786C10.8971558,8.8062744,10.0333252,8.0033569,8.9921875,8z M8.9921875,11c-0.5523071,0-1-0.4476929-1-1s0.4476929-1,1-1s1,0.4476929,1,1C9.9918213,10.552124,9.5443115,10.9996338,8.9921875,11z"/></svg>