<svg xmlns="http://www.w3.org/2000/svg" enable-background="new 0 0 24 24" viewBox="0 0 24 24"><path d="M16.727478,3.1801758C12.3098755,0.8085327,6.9154053,2.1032715,4,5.9990845V3.5C4,3.223877,3.776123,3,3.5,3S3,3.223877,3,3.5v4c0,0.0001831,0,0.0003662,0,0.0006104C3.0001831,7.7765503,3.223999,8.0001831,3.5,8h4C7.776123,8,8,7.776123,8,7.5S7.776123,7,7.5,7H4.5216064c1.6455688-2.4667358,4.4089966-3.9888916,7.4118042-4c4.9522095-0.0183716,8.9816284,3.9812622,9,8.9334106s-3.9812012,8.9816284-8.9334106,9C7.0478516,20.9517822,3.0183716,16.9521484,3,12c0-0.1601562-0.0004883-0.3115234,0.0087891-0.4716797c0-0.0001221,0-0.0003052,0-0.0004272c0.015686-0.2753906-0.1948853-0.5112915-0.4702148-0.5269165C2.5328369,11.0005493,2.5270996,11.0002441,2.5213623,11c-0.2712402-0.0107422-0.4998779,0.2004395-0.5106201,0.4716797C2.0004883,11.6513672,2,11.8203125,2,12c0.0062866,5.5202026,4.4797974,9.9937134,10,10c3.6833496-0.0018311,7.067749-2.0272827,8.8099976-5.272522C23.423645,11.8591309,21.5958252,5.7938232,16.727478,3.1801758z M12,8c-0.276123,0-0.5,0.223877-0.5,0.5V12c0,0.0001831,0,0.0003662,0,0.0005493C11.5001831,12.2765503,11.723999,12.5001831,12,12.5h2.5c0.276123,0,0.5-0.223877,0.5-0.5s-0.223877-0.5-0.5-0.5h-2v-3C12.5,8.223877,12.276123,8,12,8z"/></svg>