<svg xmlns="http://www.w3.org/2000/svg" enable-background="new 0 0 24 24" viewBox="0 0 24 24"><path d="M21.5,11H16V6.5c0-0.0001831,0-0.0003662,0-0.0006104C15.9998169,6.2234497,15.776001,5.9998169,15.5,6H3V2.5C3,2.223877,2.776123,2,2.5,2S2,2.223877,2,2.5v4v5v0.0005493V17.5v0.0005493V21.5c0,0.0001831,0,0.0003662,0,0.0005493C2.0001831,21.7765503,2.223999,22.0001831,2.5,22c0.0001831,0,0.0003662,0,0.0006104,0C2.7765503,21.9998169,3.0001831,21.776001,3,21.5V18h18.5c0.0001831,0,0.0003662,0,0.0006104,0C21.7765503,17.9998169,22.0001831,17.776001,22,17.5v-6c0-0.0001831,0-0.0003662,0-0.0006104C21.9998169,11.2234497,21.776001,10.9998169,21.5,11z M3,7h12v4H3V7z M21,17H3v-5h12.5h0.0006104H21V17z"/></svg>