<svg xmlns="http://www.w3.org/2000/svg" enable-background="new 0 0 24 24" viewBox="0 0 24 24"><path d="M9.9994507,14.5H10c0.276001,0.0001831,0.4998169-0.2234497,0.5-0.4994507V6c0-0.276123-0.223877-0.5-0.5-0.5S9.5,5.723877,9.5,6v8C9.4998169,14.276001,9.7234497,14.4998169,9.9994507,14.5z M13.9994507,14.5H14c0.276001,0.0001831,0.4998169-0.2234497,0.5-0.4994507V6c0-0.276123-0.223877-0.5-0.5-0.5S13.5,5.723877,13.5,6v8C13.4998169,14.276001,13.7234497,14.4998169,13.9994507,14.5z M20,1H4C2.3438721,1.0018311,1.0018311,2.3438721,1,4v16c0.0018311,1.6561279,1.3438721,2.9981689,3,3h16c1.6561279-0.0018311,2.9981689-1.3438721,3-3V4C22.9981689,2.3438721,21.6561279,1.0018311,20,1z M22,20c-0.0014038,1.1040039-0.8959961,1.9985962-2,2H4c-1.1040039-0.0014038-1.9985962-0.8959961-2-2V4c0.0014038-1.1040039,0.8959961-1.9985962,2-2h16c1.1040039,0.0014038,1.9985962,0.8959961,2,2V20z M5.9993896,12.5H6c0.276001,0.0001831,0.4998169-0.2234497,0.5-0.4994507V8c0-0.276123-0.223877-0.5-0.5-0.5S5.5,7.723877,5.5,8v4C5.4998169,12.276001,5.7234497,12.4998169,5.9993896,12.5z M18.0006104,7.5H18c-0.276001-0.0001831-0.4998169,0.2234497-0.5,0.4993896V12c0,0.276123,0.223877,0.5,0.5,0.5s0.5-0.223877,0.5-0.5V8C18.5001831,7.723999,18.2765503,7.5001831,18.0006104,7.5z M17.6796875,15.7910156C16.0186768,16.954895,14.0274658,17.5540161,12,17.5c-2.02771,0.0545044-4.019104-0.5450439-5.6796875-1.710022c-0.2116699-0.177124-0.5269165-0.1491699-0.7041016,0.0625c-0.1771851,0.211731-0.1491699,0.5269775,0.0625,0.7041016C7.5133667,17.8847046,9.736084,18.5680542,12,18.5c2.2637329,0.0681152,4.4863892-0.6148071,6.3212891-1.9423828c0.2116699-0.1771851,0.2396851-0.4924316,0.0625-0.7041016S17.8913574,15.6138306,17.6796875,15.7910156z"/></svg>