<svg xmlns="http://www.w3.org/2000/svg" enable-background="new 0 0 24 24" viewBox="0 0 24 24"><path d="M21.8534546,2.1587524c-0.1918335-0.1986084-0.5083618-0.2041016-0.7069702-0.0122681l-1.8901367,1.8901367c-0.0096436,0.0084229-0.0219116,0.0117798-0.0310059,0.0210571c-0.0082397,0.0084229-0.0109253,0.0195312-0.0184326,0.0283813l-9.9123535,9.9123535C8.5249023,13.3831787,7.5619507,13,6.5,13C4.0147095,13,2,15.0147095,2,17.5S4.0147095,22,6.5,22c2.4841309-0.0026855,4.4973145-2.0158691,4.5-4.5c0-1.0619507-0.3831787-2.0249634-0.9984131-2.7946167l6.7575684-6.7576294l2.4732666,2.4741211c0.0936279,0.0939331,0.2208862,0.1466675,0.3535156,0.1464844c0.1325684,0,0.2596436-0.0526733,0.3533936-0.1463623c0.1953125-0.1952515,0.1953125-0.5118408,0.000061-0.7071533l-2.4732056-2.4741211l2.1211548-2.1211548l1.0591431,1.0591431C20.7401123,6.272644,20.8673706,6.3253784,21,6.3251953c0.1325073,0,0.2596436-0.0526733,0.3533936-0.1463623c0.1952515-0.1952515,0.1953125-0.5118408,0.0001221-0.7071533l-1.0592041-1.059082l1.5591431-1.5591431C22.0406494,2.659729,22.0406494,2.3525391,21.8534546,2.1587524z M6.5,21C4.5670166,21,3,19.4329834,3,17.5S4.5670166,14,6.5,14c1.9320068,0.0023193,3.4976807,1.5679932,3.5,3.5C10,19.4329834,8.4329834,21,6.5,21z"/></svg>