<svg xmlns="http://www.w3.org/2000/svg" enable-background="new 0 0 24 24" viewBox="0 0 24 24"><path d="M5.8837891,9.1796875C5.7069092,8.9677124,5.3916626,8.9393311,5.1796875,9.1162109l-3,2.5c-0.0231323,0.0192871-0.0444946,0.0406494-0.0637817,0.0637817c-0.1767578,0.2119751-0.1481934,0.5270386,0.0637817,0.7037964l3,2.5C5.2694702,14.9589844,5.3828735,15.0001221,5.5,15c0.1481323-0.000061,0.2886353-0.0657959,0.383606-0.1795044c0.177002-0.2119751,0.1486816-0.5272827-0.0632935-0.7042847L3.28125,12l2.5390625-2.1162109C6.0322876,9.7069092,6.0606689,9.3916626,5.8837891,9.1796875z M12.5,7h9C21.776123,7,22,6.776123,22,6.5S21.776123,6,21.5,6h-9C12.223877,6,12,6.223877,12,6.5S12.223877,7,12.5,7z M9.0449219,5H9.0419922c-0.2749023,0.0001831-0.4981689,0.222168-0.5,0.4970703l-0.0839844,13C8.456543,18.7731323,8.6790161,18.99823,8.9550781,19h0.0029297c0.2749023-0.0001831,0.4981689-0.222168,0.5-0.4970703l0.0839844-13C9.543457,5.2268677,9.3209839,5.00177,9.0449219,5z M21.5,18h-9c-0.276123,0-0.5,0.223877-0.5,0.5s0.223877,0.5,0.5,0.5h9c0.276123,0,0.5-0.223877,0.5-0.5S21.776123,18,21.5,18z M21.5,10h-9c-0.276123,0-0.5,0.223877-0.5,0.5s0.223877,0.5,0.5,0.5h9c0.276123,0,0.5-0.223877,0.5-0.5S21.776123,10,21.5,10z M21.5,14h-9c-0.276123,0-0.5,0.223877-0.5,0.5s0.223877,0.5,0.5,0.5h9c0.276123,0,0.5-0.223877,0.5-0.5S21.776123,14,21.5,14z"/></svg>