<svg xmlns="http://www.w3.org/2000/svg" enable-background="new 0 0 24 24" viewBox="0 0 24 24"><path d="M2.5,10.5h11c0.276123,0,0.5-0.223877,0.5-0.5s-0.223877-0.5-0.5-0.5h-11C2.223877,9.5,2,9.723877,2,10S2.223877,10.5,2.5,10.5z M2.5,6.5h19C21.776123,6.5,22,6.276123,22,6s-0.223877-0.5-0.5-0.5h-19C2.223877,5.5,2,5.723877,2,6S2.223877,6.5,2.5,6.5z M21.8446045,9.3519897C21.609314,9.0689697,21.189209,9.0303345,20.90625,9.265625l-2.6660156,2.2226562c-0.0315552,0.0261841-0.0606079,0.0552368-0.086792,0.086792c-0.2346802,0.2826538-0.1958008,0.7019653,0.086792,0.9366455L20.90625,14.734375c0.1194458,0.1005249,0.2706299,0.1555176,0.4267578,0.1552734c0.1973267-0.0002441,0.3843994-0.0878906,0.5109253-0.2393188c0.236145-0.2826538,0.1984863-0.7032471-0.0841675-0.9393921L19.7080078,12l2.0517578-1.7109375C22.0414429,10.0534668,22.0794067,9.6343384,21.8446045,9.3519897z M2.5,14.5h11c0.276123,0,0.5-0.223877,0.5-0.5s-0.223877-0.5-0.5-0.5h-11C2.223877,13.5,2,13.723877,2,14S2.223877,14.5,2.5,14.5z M21.5,17.5h-19C2.223877,17.5,2,17.723877,2,18s0.223877,0.5,0.5,0.5h19c0.276123,0,0.5-0.223877,0.5-0.5S21.776123,17.5,21.5,17.5z"/></svg>