<svg xmlns="http://www.w3.org/2000/svg" enable-background="new 0 0 24 24" viewBox="0 0 24 24"><path d="M5.2421875,10.2177734C5.46875,10.2179565,5.6671143,10.0658569,5.725769,9.8470459C5.7972412,9.5802002,5.638916,9.3059082,5.3720703,9.234375L2.6464844,8.5039062C2.380127,8.4368286,2.1086426,8.5933228,2.0332031,8.8574219C1.961853,9.1243286,2.1199951,9.3986816,2.3867188,9.4707031l2.7255859,0.7304688C5.1547852,10.2119141,5.1983643,10.2174683,5.2421875,10.2177734z M13.8065796,15.3869629c-0.1932373-0.1972046-0.5097656-0.2003784-0.7069702-0.0071411l-3.8886719,3.8876953c-1.2528076,1.1972656-3.225769,1.1972656-4.4785767,0c-0.0001831-0.0002441-0.0004272-0.0004272-0.0006714-0.0006714c-1.2363281-1.2366943-1.2360229-3.2415161,0.0006714-4.4778442l3.8877563-3.8886719c0.1904907-0.194397,0.1904907-0.5054932,0-0.6998901c-0.1932983-0.1972046-0.5098267-0.2003784-0.7070312-0.0070801l-3.8876953,3.8886108c-0.7816772,0.7815552-1.2208252,1.8416748-1.2207642,2.9470215c0.0002441,2.3011475,1.8658447,4.1665039,4.1670532,4.1663208c1.1057129,0.0029907,2.166687-0.4365845,2.9463501-1.2207031l3.8885498-3.8878174C13.9970703,15.8924561,13.9970703,15.5813599,13.8065796,15.3869629z M5.8828125,6.5898438c0.0936279,0.0939331,0.2208862,0.1466675,0.3535156,0.1464844c0.1325684,0,0.2597046-0.0526733,0.3534546-0.1464233c0.1952515-0.1952515,0.1953125-0.5118408,0.000061-0.7070923L4.5947266,3.8877563c-0.194397-0.1905518-0.5054932-0.1905518-0.6998901,0C3.6976318,4.0809937,3.694458,4.397522,3.8876953,4.5947266L5.8828125,6.5898438z M9.234375,5.3720703C9.2937622,5.59021,9.4916992,5.7417603,9.7177734,5.7421875c0.0438232-0.0003052,0.0874023-0.0058594,0.1298828-0.0166016c0.2667847-0.0720215,0.4248657-0.3463745,0.3535156-0.6132812L9.4707031,2.3867188c-0.0744629-0.2648315-0.3467407-0.421814-0.6132812-0.3535156C8.5906982,2.1052246,8.4325562,2.3795776,8.5039062,2.6464844L9.234375,5.3720703z M19.9746094,4.0253906c-1.6271973-1.6271973-4.2653809-1.6271973-5.8926392,0L10.1934204,7.913147c-0.1904907,0.1943359-0.1904907,0.5054321,0,0.6998291c0.1932373,0.1972046,0.5097656,0.2003784,0.7069702,0.0071411l3.8886719-3.8876953c1.2528076-1.1972656,3.225708-1.1972656,4.4785156,0l0.0006714,0.0006714c1.2363281,1.2366943,1.2360229,3.2415161-0.0006714,4.4778442l-3.8876953,3.8886719c-0.09375,0.09375-0.1463623,0.2208862-0.1464233,0.3534546c0,0.276123,0.2238159,0.5,0.499939,0.500061c0.1326294,0.0001831,0.2598877-0.0525513,0.3535156-0.1464844l3.8876953-3.8886108C21.6018066,8.2907715,21.6018066,5.6525879,19.9746094,4.0253906z M21.6132812,14.5292969l-2.7255859-0.7304688c-0.2663574-0.0673218-0.5380249,0.0892944-0.6132812,0.3535156c-0.0713501,0.2669067,0.086792,0.5412598,0.3535156,0.6132812l2.7255859,0.7304688c0.0424805,0.0107422,0.0860596,0.0162964,0.1298828,0.0166016c0.2265015,0.0001831,0.4248657-0.1519165,0.4835205-0.3707275C22.0384521,14.8751221,21.880127,14.6008301,21.6132812,14.5292969z M18.1171875,17.4102173c-0.0023804-0.0023804-0.0046997-0.0047607-0.0070801-0.0070801c-0.1972046-0.1932983-0.5137329-0.1901245-0.7070312,0.0070801c-0.1932373,0.1971436-0.1901245,0.5136719,0.0070801,0.7069702l1.9951172,1.9951172c0.0936279,0.0939331,0.2208862,0.1466675,0.3535156,0.1464844c0.1325073,0,0.2596436-0.0526733,0.3533936-0.1463623c0.1953125-0.1952515,0.1953125-0.5118408,0.000061-0.7071533L18.1171875,17.4102173z M14.765625,18.6279297c-0.0717163-0.2669678-0.3463135-0.4252319-0.6132812-0.3535156s-0.4252319,0.3463135-0.3535156,0.6132812l0.7304688,2.7255859c0.0593872,0.2181396,0.2573242,0.3696899,0.4833984,0.3701172c0.0438232-0.0003052,0.0874023-0.0058594,0.1298828-0.0166016c0.2667236-0.0720215,0.4248657-0.3463745,0.3535156-0.6132812L14.765625,18.6279297z"/></svg>