<svg xmlns="http://www.w3.org/2000/svg" enable-background="new 0 0 24 24" viewBox="0 0 24 24"><path d="M3.5,12C3.223877,12,3,12.223877,3,12.5S3.223877,13,3.5,13S4,12.776123,4,12.5S3.776123,12,3.5,12z M6.5,8h15C21.776123,8,22,7.776123,22,7.5S21.776123,7,21.5,7h-15C6.223877,7,6,7.223877,6,7.5S6.223877,8,6.5,8z M3.5,17C3.223877,17,3,17.223877,3,17.5S3.223877,18,3.5,18S4,17.776123,4,17.5S3.776123,17,3.5,17z M21.5,12h-15C6.223877,12,6,12.223877,6,12.5S6.223877,13,6.5,13h15c0.276123,0,0.5-0.223877,0.5-0.5S21.776123,12,21.5,12z M3.5,7C3.223877,7,3,7.223877,3,7.5S3.223877,8,3.5,8S4,7.776123,4,7.5S3.776123,7,3.5,7z M21.5,17h-15C6.223877,17,6,17.223877,6,17.5S6.223877,18,6.5,18h15c0.276123,0,0.5-0.223877,0.5-0.5S21.776123,17,21.5,17z"/></svg>