<svg xmlns="http://www.w3.org/2000/svg" enable-background="new 0 0 24 24" viewBox="0 0 24 24"><path d="M17,18.5c0.828064-0.0009155,1.4990845-0.671936,1.5-1.5c0-0.8284302-0.6715698-1.5-1.5-1.5s-1.5,0.6715698-1.5,1.5S16.1715698,18.5,17,18.5z M17,16.5c0.2759399,0.0005493,0.4994507,0.2240601,0.5,0.5c0,0.276123-0.223877,0.5-0.5,0.5s-0.5-0.223877-0.5-0.5S16.723877,16.5,17,16.5z M21.9871216,13.4356079c-0.0043335-0.0326538-0.008667-0.0636597-0.0192261-0.0947876c-0.0111084-0.0326538-0.0267334-0.0611572-0.0440063-0.090332c-0.0150146-0.0256348-0.0296021-0.0500488-0.0491943-0.072876c-0.0241089-0.0280151-0.0518799-0.0499878-0.081543-0.0720825c-0.015625-0.0117188-0.0258179-0.0281372-0.0431519-0.038147l-15.5791016-9C5.9319458,3.9293213,5.6263428,4.0110474,5.4882812,4.25S5.4319458,4.7945557,5.6708984,4.9326172L19.6356201,13H3.5c-0.0001831,0-0.0003662,0-0.0006104,0C3.2234497,13.0001831,2.9998169,13.223999,3,13.5v5c0.0012817,1.380188,1.119812,2.4987183,2.5,2.5h14c1.380188-0.0012817,2.4987183-1.119812,2.5-2.5v-5c0-0.0001831,0-0.0003662,0-0.0006104C22,13.4767456,21.9900513,13.4573975,21.9871216,13.4356079z M21,18.5c-0.0009155,0.828064-0.671936,1.4990845-1.5,1.5h-14c-0.828064-0.0009155-1.4990845-0.671936-1.5-1.5V14h17V18.5z"/></svg>