<svg xmlns="http://www.w3.org/2000/svg" enable-background="new 0 0 24 24" viewBox="0 0 24 24"><path d="M21,19.0917969V4.9077148C21.5808716,4.7007446,21.9992676,4.1517944,22,3.5C22,2.6715698,21.3284302,2,20.5,2c-0.6521606,0-1.2015991,0.4187622-1.4082031,1H4.9082031C4.7015991,2.4187622,4.1521606,2,3.5,2C2.6715698,2,2,2.6715698,2,3.5c0,0.6521606,0.4187622,1.2015991,1,1.4082031v14.1835938C2.4187622,19.2984009,2,19.8478394,2,20.5C2,21.3284302,2.6715698,22,3.5,22c0.6517944-0.0007324,1.2007446-0.4191284,1.4077148-1h14.184082c0.206604,0.5812378,0.7560425,1,1.4082031,1c0.828064-0.0009155,1.4990845-0.671936,1.5-1.5C22,19.8478394,21.5812378,19.2984009,21,19.0917969z M20.5,3c0.2759399,0.0005493,0.4994507,0.2240601,0.5,0.5C21,3.776123,20.776123,4,20.5,4S20,3.776123,20,3.5S20.223877,3,20.5,3z M3.5,3C3.7759399,3.0005493,3.9994507,3.2240601,4,3.5C4,3.776123,3.776123,4,3.5,4S3,3.776123,3,3.5S3.223877,3,3.5,3z M3.5,21C3.223877,21,3,20.776123,3,20.5S3.223877,20,3.5,20c0.2759399,0.0005493,0.4994507,0.2240601,0.5,0.5C4,20.776123,3.776123,21,3.5,21z M19.0899658,20.0059814C19.0895386,20.0053711,19.0859375,20,19.0859375,20H4.9140625c0,0-0.0036011,0.0053711-0.0040283,0.0059814c-0.1504517-0.428833-0.4871826-0.765564-0.9160156-0.9160156C3.9946289,19.0895386,4,19.0859375,4,19.0859375V4.9140625c0,0-0.0057373-0.0038452-0.0064087-0.0043335c0.428833-0.1506348,0.7655029-0.4873047,0.9161377-0.9161377C4.9102173,3.9942627,4.9140625,4,4.9140625,4h14.171875c0,0,0.0036011-0.0053711,0.0040283-0.0059814c0.1504517,0.428833,0.4871826,0.765564,0.9160156,0.9160156C20.0053711,4.9104614,20,4.9140625,20,4.9140625v14.171875c0,0,0.0053711,0.0036011,0.0059814,0.0040283C19.5771484,19.2404175,19.2404175,19.5771484,19.0899658,20.0059814z M20.5,21c-0.276123,0-0.5-0.223877-0.5-0.5s0.223877-0.5,0.5-0.5c0.2759399,0.0005493,0.4994507,0.2240601,0.5,0.5C21,20.776123,20.776123,21,20.5,21z M16.5,10H14V7.5c0-0.0001831,0-0.0003662,0-0.0006104C13.9998169,7.2234497,13.776001,6.9998169,13.5,7h-6C7.4998169,7,7.4996338,7,7.4993896,7C7.2234497,7.0001831,6.9998169,7.223999,7,7.5v6c0,0.0001831,0,0.0003662,0,0.0005493C7.0001831,13.7765503,7.223999,14.0001831,7.5,14H10v2.5c0,0.0001831,0,0.0003662,0,0.0005493C10.0001831,16.7765503,10.223999,17.0001831,10.5,17h6c0.0001831,0,0.0003662,0,0.0006104,0C16.7765503,16.9998169,17.0001831,16.776001,17,16.5v-6c0-0.0001831,0-0.0003662,0-0.0006104C16.9998169,10.2234497,16.776001,9.9998169,16.5,10z M10.4994507,10C10.2234497,10.0001831,9.9998169,10.223999,10,10.5V13H8V8h5v2h-2.5C10.4998169,10,10.4996338,10,10.4994507,10z M16,16h-5v-5h5V16z"/></svg>