<svg xmlns="http://www.w3.org/2000/svg" enable-background="new 0 0 24 24" viewBox="0 0 24 24"><path d="M18.1875,13.3789062l-6.0107422,6.0097656c-1.9523926,1.9526978-5.118103,1.9528809-7.0708008,0.0004883s-1.9528809-5.118103-0.0004883-7.0708008l8.4853516-8.4853516c1.1714478-1.1717529,3.0709839-1.171936,4.2426758-0.0004883c1.1717529,1.1714478,1.171936,3.0709839,0.0004883,4.2426758l-7.7783203,7.7783203c-0.3956299,0.3779297-1.0184937,0.3779297-1.4140625,0c-0.3896484-0.3908081-0.3896484-1.0232544,0-1.4140625l5.3026733-5.303772c0.0024414-0.0023193,0.0048218-0.0046997,0.0072021-0.0071411c0.1932373-0.1972046,0.1900635-0.5137329-0.0072021-0.7069702c-0.1972046-0.1932983-0.5137329-0.1900635-0.7069702,0.0071411l-5.3027344,5.3037109c-0.0002441,0.0002441-0.0004883,0.0004883-0.0007324,0.0007324c-0.7805786,0.7809448-0.7802124,2.046814,0.0007324,2.8273926c0.7913818,0.7553711,2.0367432,0.7553711,2.828125,0l7.7783203-7.7783203c1.5517578-1.5604248,1.5515747-4.0812988-0.0004883-5.6414795c-1.5579834-1.5661011-4.0905762-1.5727539-5.6567383-0.0147705l-8.4853516,8.4853516c-1.124939,1.1251831-1.756897,2.6511841-1.756897,4.2422485c0,3.3137207,2.6863403,6,6.000061,5.999939c1.5921631,0.0045166,3.119812-0.62854,4.2421875-1.7578125l6.0107422-6.0097656c0.0023804-0.0023804,0.0047607-0.0047607,0.0070801-0.0071411c0.1932983-0.1972046,0.1900635-0.5137329-0.0070801-0.7070312C18.6973267,13.1785278,18.3807983,13.1817017,18.1875,13.3789062z"/></svg>