<svg xmlns="http://www.w3.org/2000/svg" enable-background="new 0 0 24 24" viewBox="0 0 24 24"><path d="M19.6542969,7.5869141c-0.2009888-0.2196655-0.4307251-0.4111938-0.6829224-0.569397c0.2329712-1.2444458-0.1186523-2.5269165-0.9537964-3.4784546c-0.9375-1.0605469-2.5751953-1.5986328-4.8681641-1.5986328H7.2646484c-0.6590576,0.0014038-1.2197266,0.480957-1.3232422,1.1318359l-2.453125,15.5898438c-0.0911865,0.5485229,0.279541,1.0670776,0.828064,1.1582642c0.0548706,0.0090942,0.1104126,0.0136719,0.1660767,0.0136108h3.0460815l-0.1593628,1.0136719c-0.0817261,0.5153809,0.2698364,0.9993896,0.7852173,1.0811157c0.0480957,0.0076294,0.0967407,0.0115356,0.1454468,0.0116577h3.0634766c0.6047363,0.0022583,1.12146-0.4353638,1.218689-1.0322266l0.6065063-3.8271484l0.0409546-0.2167969c0.0169067-0.1159668,0.116272-0.2019653,0.2333984-0.2021484h0.4580078c3.6289062,0,5.8027344-1.7197266,6.4619141-5.1123047C20.7811279,10.1879883,20.5109253,8.7180176,19.6542969,7.5869141z M7.8912964,17.5264893l-0.2067261,1.3065186l-3.2089844-0.0107422L6.9296875,3.2236328c0.0270996-0.1637573,0.1690063-0.2837524,0.335022-0.2832031h5.8847656c1.9941406,0,3.3798828,0.4238281,4.1162109,1.2587891c0.7022095,0.8255005,0.9553833,1.942627,0.6777344,2.9902344l0.0020752,0.0003052l-0.0001221,0.0006714c-0.0166016,0.1054688-0.0351562,0.2138672-0.0566406,0.3251953l-0.0010376,0.0029297c-0.6494141,3.3476562-2.7207031,4.9755859-6.3330078,4.9755859H9.8271484c-0.661499-0.0014648-1.2243652,0.4816284-1.3232422,1.1357422L7.8912964,17.5264893z M19.4003906,11.359375c-0.5625,2.8955078-2.3544922,4.3027344-5.4794922,4.3027344h-0.4580078c-0.6051636-0.0033569-1.1224976,0.4347534-1.21875,1.0322266l-0.6152344,3.8729858l-0.0322266,0.1708984c-0.017334,0.1160889-0.1170044,0.2020874-0.234375,0.2021484l-3.0048828,0.0644531l0.6048584-3.8487549l0.5338135-3.3699951l-0.0040894-0.0006104l0.0001831-0.0012817c0.024353-0.1663208,0.1668701-0.2897339,0.335022-0.289978h1.7275391c3.9599609,0,6.3896484-1.8076172,7.2275391-5.375c0.0419922,0.0410156,0.0820312,0.0830078,0.1201172,0.1259766C19.5513916,9.1461182,19.7360229,10.3009644,19.4003906,11.359375z"/></svg>