<svg xmlns="http://www.w3.org/2000/svg" enable-background="new 0 0 24 24" viewBox="0 0 24 24"><path d="M21.9335938,11.7509766l-4.75-8.2548828C17.0942383,3.3410034,16.9289551,3.2453613,16.75,3.2451172h-9.5C7.0710449,3.2453613,6.9057617,3.3410034,6.8164062,3.4960938l-4.75,8.2548828c-0.0888672,0.1541138-0.0888672,0.3439331,0,0.4979858l4.75,8.2549438C6.9057617,20.6589355,7.0710449,20.7546387,7.25,20.7548828h9.5c0.1789551-0.0002441,0.3442383-0.0959473,0.4335938-0.2509766l4.75-8.2549438C22.0224609,12.0949097,22.0224609,11.9050903,21.9335938,11.7509766z M16.4609375,19.7548828h-8.921875L3.0771484,12l4.4619141-7.7548828h8.921875L20.9228516,12L16.4609375,19.7548828z"/></svg>