<svg xmlns="http://www.w3.org/2000/svg" enable-background="new 0 0 24 24" viewBox="0 0 24 24"><path d="M7.5,7C7.223877,7,7,7.223877,7,7.5v9.0005493C7.0001831,16.7765503,7.223999,17.0001831,7.5,17h0.0006104C7.7765503,16.9998169,8.0001831,16.776001,8,16.5v-9C8,7.223877,7.776123,7,7.5,7z M16.8535156,16.1464844L12.6982422,12l4.1552124-4.1464844c0.1871948-0.1937866,0.1871948-0.5009766,0-0.6947021c-0.1918335-0.1986694-0.5083618-0.2041626-0.7069702-0.0122681l-4.5097656,4.5c-0.000061,0-0.0001221,0.000061-0.0001831,0.0001221c-0.1951294,0.1952515-0.1950684,0.5117188,0.0001831,0.7068481l4.5097656,4.5C16.2401123,16.9474487,16.3673706,17.0001831,16.5,17c0.1325684,0,0.2597046-0.0526733,0.3534546-0.1464233C17.0487061,16.6583252,17.0487671,16.3417358,16.8535156,16.1464844z"/></svg>