<svg xmlns="http://www.w3.org/2000/svg" enable-background="new 0 0 24 24" viewBox="0 0 24 24"><path d="M9,7H5.1450195C6.7410889,4.8068848,9.2875977,3.5067139,12,3.5c0.4752808-0.0004272,0.9498291,0.0374756,1.4190063,0.1132812c0.2723389,0.0447388,0.5294189-0.1397705,0.5742188-0.4121094c0.0447388-0.2723999-0.1397705-0.52948-0.4121094-0.5742188C13.0583496,2.5421753,12.5296021,2.4997559,12,2.5C9.0670776,2.5049438,6.3001099,3.8615723,4.5,6.177124V2.5C4.5,2.223877,4.276123,2,4,2S3.5,2.223877,3.5,2.5v5C3.4998169,7.776001,3.7234497,7.9998169,3.9993896,8C3.9996338,8,3.9998169,8,4,8h5c0.276123,0,0.5-0.223877,0.5-0.5S9.276123,7,9,7z M7.5006104,14.5c-0.0002441,0-0.0004272,0-0.0006104,0c-0.276001-0.0001831-0.4998169,0.2234497-0.5,0.4993896C7,14.9996338,7,14.9998169,7,15v3.8549805C4.8068848,17.2589111,3.5067139,14.7124023,3.5,12c-0.0004272-0.4752808,0.0374756-0.9498291,0.1132812-1.4190063c0.041626-0.2728271-0.145752-0.527832-0.4186401-0.569458c-0.2684937-0.0410156-0.5205688,0.1399536-0.567627,0.4074707C2.5422363,10.9417114,2.4997559,11.470459,2.5,12c0.0049438,2.9329224,1.3615723,5.6998901,3.677124,7.5H2.5C2.223877,19.5,2,19.723877,2,20s0.223877,0.5,0.5,0.5h5c0.276001,0.0001831,0.4998169-0.2234497,0.5-0.4994507C8,20.0003662,8,20.0001831,8,20v-5C8.0001831,14.723999,7.7765503,14.5001831,7.5006104,14.5z M20.0006104,16C20.0003662,16,20.0001831,16,20,16h-5c-0.276123,0-0.5,0.223877-0.5,0.5S14.723877,17,15,17h3.8549805C17.2589111,19.1931152,14.7124023,20.4932861,12,20.5c-0.4752808,0.0004272-0.9498291-0.0374756-1.4190063-0.1132812c-0.2723389-0.0447388-0.5294189,0.1397705-0.5742188,0.4121094c-0.0447388,0.2723999,0.1397705,0.52948,0.4121094,0.5742188C10.9416504,21.4578247,11.4703979,21.5002441,12,21.5c2.9329834-0.0049438,5.6998901-1.3615723,7.5-3.677124V21.5c0,0.276123,0.223877,0.5,0.5,0.5s0.5-0.223877,0.5-0.5v-5C20.5001831,16.223999,20.2765503,16.0001831,20.0006104,16z M21.5,3.5h-5c-0.276001-0.0001831-0.4998169,0.2234497-0.5,0.4993896C16,3.9996338,16,3.9998169,16,4v5c0,0.276123,0.223877,0.5,0.5,0.5S17,9.276123,17,9V5.1392212c0.9638672,0.6923218,1.7680664,1.583252,2.3583984,2.612793C20.107666,9.0422363,20.5015869,10.5079956,20.5,12c0.0004272,0.4752808-0.0374146,0.9498291-0.1132812,1.4190063c-0.0452881,0.2716064,0.1381836,0.5285034,0.40979,0.5737915c0.0007935,0.0001831,0.0015259,0.0003052,0.0023193,0.0004272c0.0270996,0.0046997,0.0545044,0.006958,0.0820312,0.0068359c0.2445068-0.0003662,0.4527588-0.1776733,0.4921875-0.4190063C21.4577637,13.0582886,21.5002441,12.5296021,21.5,12c0.0014038-1.6671753-0.4386597-3.3050537-1.2753906-4.7470703C19.6156616,6.1859131,18.8012695,5.2502441,17.8284302,4.5H21.5C21.776123,4.5,22,4.276123,22,4S21.776123,3.5,21.5,3.5z"/></svg>