<svg xmlns="http://www.w3.org/2000/svg" enable-background="new 0 0 24 24" viewBox="0 0 24 24"><path d="M20.6816406,6.9750977l-0.8275757-0.8278198c-0.0002441-0.0002441-0.0003052-0.0005493-0.0005493-0.0007935l-2.9746094-2.9750977c-0.1953125-0.1953125-0.5117188-0.1953125-0.7070312,0s-0.1953125,0.5117188,0,0.7070312l1.7471924,1.7474976L16.984375,8.1181641c-0.34375,0.9150391-0.1191406,1.9536133,0.5722656,2.6459961L21,14.2070312V19c0,1.1025391-0.8974609,2-2,2s-2-0.8974609-2-2v-2.5c0-1.3789062-1.1210938-2.5-2.5-2.5H14V4.5C14,3.121582,12.8789062,2,11.5,2h-7C3.121582,2,2,3.121582,2,4.5v15C2,20.8789062,3.121582,22,4.5,22h7c1.3789062,0,2.5-1.1210938,2.5-2.5V15h0.5c0.8271484,0,1.5,0.6728516,1.5,1.5V19c0,1.6542969,1.3457031,3,3,3s3-1.3457031,3-3v-8.8432617C22,8.9726562,21.5195312,7.8129883,20.6816406,6.9750977z M13,19.5c0,0.8271484-0.6728516,1.5-1.5,1.5h-7C3.6728516,21,3,20.3271484,3,19.5V11h10V19.5z M13,10H3V4.5C3,3.6728516,3.6728516,3,4.5,3h7C12.3271484,3,13,3.6728516,13,4.5V10z M21,12.7929688l-2.7363281-2.7353516c-0.4140625-0.4155273-0.5488281-1.0390625-0.34375-1.5878906l0.7753906-2.0668945l1.2792969,1.2792969C20.6259766,8.3339844,21,9.2358398,21,10.1567383V12.7929688z"/></svg>