<svg xmlns="http://www.w3.org/2000/svg" enable-background="new 0 0 24 24" viewBox="0 0 24 24"><path d="M12.59552,8.1052856c-1.3356934-0.3458862-2.6988525,0.4564819-3.0447388,1.7921753c-0.0690308,0.2675171,0.0918579,0.5403442,0.359375,0.609375s0.5403442-0.0918579,0.609375-0.359375c0.126709-0.4932251,0.4951172-0.8884277,0.9782104-1.0494995c0.7857666-0.2619629,1.6350708,0.1627197,1.8969727,0.9484253c0.2619629,0.7857666-0.1626587,1.6350708-0.9484253,1.8969727c-0.6036377,0.2243042-0.9979858,0.8074341-0.9814453,1.4511719v0.628479c0.0001221,0.276001,0.223999,0.4996338,0.5,0.4994507h0.0005493c0.276001-0.0001831,0.4996338-0.223999,0.4994507-0.5v-0.6279297c-0.0135498-0.2148438,0.1074219-0.4155884,0.3037109-0.5039062c0.7988892-0.2697754,1.4077759-0.9243774,1.6191406-1.7406616C14.7335815,9.8143311,13.9311523,8.4511719,12.59552,8.1052856z M11.9646606,15.3973999c-0.3452148,0-0.625,0.2798462-0.625,0.625s0.2797852,0.625,0.625,0.625c0.3451538,0,0.625-0.2798462,0.625-0.625S12.3098145,15.3973999,11.9646606,15.3973999z M12,2C6.4771729,2,2,6.4771729,2,12s4.4771729,10,10,10c5.5201416-0.0064697,9.9935303-4.4798584,10-10C22,6.4771729,17.5228271,2,12,2z M12,21c-4.9705811,0-9-4.0294189-9-9s4.0294189-9,9-9c4.9683228,0.0054321,8.9945679,4.0316772,9,9C21,16.9705811,16.9705811,21,12,21z"/></svg>