<svg xmlns="http://www.w3.org/2000/svg" enable-background="new 0 0 24 24" viewBox="0 0 24 24"><path d="M22.5,11.7197266c0.0007935-1.8103027-1.4660645-3.2785034-3.2763672-3.2792969c-1.1583252-0.0004883-2.230896,0.6103516-2.8214111,1.6068726c-1.2459717-0.3519897-2.5304565-0.5496826-3.824646-0.5887451l1.0278931-6.8521118l3.0219116,1.0269775c-0.0169678,0.0941162-0.0285645,0.1890869-0.0346069,0.2845459c-0.0123291,1.3806763,1.0969238,2.5100098,2.4776611,2.5223389c1.3806763,0.0123291,2.5100098-1.0969238,2.5223389-2.4776611c0.0001221-0.0148926,0.0001221-0.0297852,0-0.0446777V3.9072266c-0.0317383-1.3619385-1.1377563-2.4533081-2.5-2.4667969c-0.8834229,0.0078125-1.6968384,0.4822998-2.1385498,1.2473755l-3.5928955-1.2210083c-0.2619629-0.088501-0.5460815,0.052124-0.6345825,0.3141479c-0.0093994,0.027771-0.0162964,0.0562744-0.0206909,0.0852661L11.567688,9.4539795c-1.3430786,0.0289917-2.677063,0.2283325-3.9699097,0.5933228C6.6914062,8.4853516,4.6904297,7.9539185,3.128479,8.8602905c-1.5618896,0.9063721-2.0933838,2.9073486-1.1870117,4.4692993c0.069397,0.1195679,0.1463013,0.2345581,0.2302246,0.3444214C1.7434082,14.3532104,1.5109863,15.1375122,1.5,15.9404297c0,3.5839844,4.710022,6.5,10.5,6.5s10.5-2.9160156,10.5-6.5c-0.0109863-0.8026733-0.2432861-1.586792-0.6713867-2.2658691C22.2572021,13.1123047,22.4926758,12.4266357,22.5,11.7197266z M17.5927734,3.9287109c0.0076294-0.8233032,0.6766357-1.4870605,1.5-1.4882812c0.8284302,0,1.5,0.6716309,1.499939,1.500061c0,0.8284302-0.6716309,1.499939-1.500061,1.499939c-0.8283691,0-1.499939-0.6716309-1.499939-1.500061C17.5927124,3.9365234,17.5927124,3.9326172,17.5927734,3.9287109z M20.5570679,9.8577881c0.9408569,0.6755371,1.2196655,1.9524536,0.6460571,2.9586182c-1.053772-1.1068726-2.3584595-1.9439087-3.803833-2.4403687C18.1281738,9.3609619,19.5419922,9.1289062,20.5570679,9.8577881z M3.6365356,9.7376709c0.3480835-0.1989136,0.7428589-0.3015137,1.1436768-0.2972412h0.000061c0.7208862,0.0054321,1.3964233,0.3526611,1.8204346,0.9356689c-1.4452515,0.4963989-2.7497559,1.333313-3.8034668,2.4400024C2.1789551,11.7342529,2.5546875,10.355957,3.6365356,9.7376709z M12,21.4404297c-5.2382812,0-9.5-2.4677734-9.5-5.5c0-2.0952759,2.0360718-3.9197998,5.0219727-4.8480835c0.0056763-0.0021362,0.0115356-0.0011597,0.0170898-0.003479l0.0030518-0.0021362C8.9876709,10.6508789,10.4901733,10.4330444,12,10.4404297c1.5098267-0.0073853,3.0123291,0.2104492,4.4578857,0.6463013l0.0030518,0.0021362l0.0167847,0.003418C19.4638062,12.0205078,21.5,13.8450928,21.5,15.9404297C21.5,18.9726562,17.2382812,21.4404297,12,21.4404297z M15.2001953,12.4414062c-0.8284302,0-1.5,0.6715698-1.5,1.5s0.6715698,1.5,1.5,1.5c0.828064,0,1.4994507-0.6709595,1.5-1.4990234C16.6994019,13.1141357,16.0284424,12.442749,15.2001953,12.4414062z M15.7001953,13.9423828c-0.0006104,0.2757568-0.2242432,0.4989624-0.5,0.4990234c-0.276123,0-0.5-0.223877-0.5-0.5s0.223877-0.5,0.5-0.5s0.5,0.223877,0.5,0.5C15.7001953,13.9417725,15.7001953,13.9420776,15.7001953,13.9423828z M9.2001953,15.4414062c0.8274536-0.0014038,1.4981079-0.6715698,1.5-1.4990234c0.0005493-0.8284302-0.6705933-1.5004272-1.4990234-1.5009766c-0.8283691-0.0005493-1.5004272,0.6705322-1.5009766,1.4989624s0.6705933,1.5004272,1.4990234,1.5010376C9.1995239,15.4414062,9.1998901,15.4414062,9.2001953,15.4414062z M8.7001953,13.9423828c-0.0005493-0.276123,0.2228394-0.5004272,0.4990234-0.5009766c0.276123-0.0005493,0.5004272,0.2228394,0.5009766,0.4989624s-0.2228394,0.5004272-0.4990234,0.5010376c-0.0003052,0-0.0006104,0-0.0009766,0C8.9247437,14.4407349,8.701416,14.2178345,8.7001953,13.9423828z M14.7637329,17.1621094h-0.000061c-0.7713623,0.6037598-1.7477417,0.8829346-2.7216797,0.7783203c-0.9736328,0.1048584-1.9497681-0.1744385-2.7207031-0.7783203c-0.1972046-0.1932983-0.5137329-0.1900635-0.7069702,0.0071411c-0.1905518,0.194397-0.1905518,0.5054321,0,0.6998291c0.953186,0.8013916,2.1878052,1.1872559,3.4276733,1.0713501c1.2401733,0.1155396,2.4749756-0.2702637,3.4287109-1.0712891c0.1932983-0.1972046,0.1900635-0.5137329-0.0070801-0.7070312C15.2692261,16.9716187,14.9581299,16.9716187,14.7637329,17.1621094z"/></svg>