<svg xmlns="http://www.w3.org/2000/svg" enable-background="new 0 0 24 24" viewBox="0 0 24 24"><path d="M21.5,5h-4C17.223877,5,17,5.223877,17,5.5S17.223877,6,17.5,6H21v12H10.7069702l1.6464844-1.6464844c0.1871948-0.1937866,0.1871948-0.5009766,0-0.6947021c-0.1918335-0.1986694-0.5083618-0.2041626-0.7069702-0.0122681l-2.5,2.5c-0.000061,0-0.0001221,0.000061-0.0001221,0.0001221c-0.1951904,0.1951904-0.1951294,0.5117188,0.0001221,0.7068481l2.5,2.5C11.7401123,21.4474487,11.8673706,21.5001831,12,21.5c0.1325684,0,0.2597046-0.0526733,0.3533936-0.1464233c0.1953125-0.1952515,0.1953125-0.5118408,0.0001221-0.7070923L10.7069702,19h10.7936401C21.7765503,18.9998169,22.0001831,18.776001,22,18.5V5.4993896C21.9998169,5.2234497,21.776001,4.9998169,21.5,5z M5.5,18H3V6h10.2930298l-1.6465454,1.6464844c-0.09375,0.09375-0.1464233,0.2208862-0.1464233,0.3534546C11.5,8.276062,11.723877,8.499939,12,8.5c0.1326294,0.0001221,0.2598267-0.0525513,0.3534546-0.1464844l2.5-2.5c0.000061-0.000061,0.0001221-0.000061,0.0001831-0.0001221c0.1951294-0.1952515,0.1950684-0.5117188-0.0001831-0.7068481l-2.5-2.5c-0.1937256-0.1871338-0.5009155-0.1871338-0.6947021,0c-0.1986084,0.1918335-0.2041016,0.5083618-0.0122681,0.7069702L13.2930298,5H2.4993896C2.2234497,5.0001831,1.9998169,5.223999,2,5.5v13.0005493C2.0001831,18.7765503,2.223999,19.0001831,2.5,19h3C5.776123,19,6,18.776123,6,18.5S5.776123,18,5.5,18z"/></svg>