<svg xmlns="http://www.w3.org/2000/svg" enable-background="new 0 0 24 24" viewBox="0 0 24 24"><path d="M21.6,2.7c0-0.2-0.2-0.3-0.4-0.4c-3.8-1-7.9,0.3-10.4,3.3L9.5,7.1L6.8,6.4C5.7,6,4.6,6.5,4.1,7.5L2,11.2c0,0,0,0.1-0.1,0.1c-0.1,0.3,0.1,0.5,0.4,0.6l3.4,0.7c-0.3,0.9-0.6,1.8-0.7,2.7c0,0.2,0,0.3,0.1,0.4l3,2.9c0.1,0.1,0.2,0.1,0.4,0.1c0,0,0,0,0,0c0.9-0.1,1.9-0.3,2.8-0.6l0.7,3.3c0,0.2,0.3,0.4,0.5,0.4c0.1,0,0.2,0,0.2-0.1l3.7-2.1c0.9-0.5,1.3-1.6,1.1-2.6l-0.7-2.9l1.4-1.3C21.3,10.5,22.6,6.5,21.6,2.7z M3.2,11.1L4.9,8c0.3-0.6,0.9-0.8,1.5-0.6l2.3,0.6L7.7,9.2c-0.6,0.8-1.2,1.6-1.6,2.5L3.2,11.1z M16,19l-3.1,1.8l-0.6-2.9c0.9-0.4,1.7-1,2.5-1.6l1.3-1.2l0.6,2.3C16.7,18,16.5,18.7,16,19z M17.6,12.3l-3.5,3.2c-1.5,1.3-3.4,2.1-5.4,2.3l-2.6-2.6c0.3-2,1.1-3.9,2.4-5.4L10.1,8c0,0,0.1-0.1,0.1-0.1l1.4-1.6c2.2-2.6,5.8-3.8,9.1-3.1C21.4,6.6,20.3,10.1,17.6,12.3z M16.4,5.6c-1.1,0-1.9,0.9-1.9,1.9s0.9,1.9,1.9,1.9c1.1,0,1.9-0.9,1.9-1.9C18.3,6.5,17.5,5.6,16.4,5.6z M16.4,8.5c-0.5,0-0.9-0.4-0.9-0.9c0-0.5,0.4-0.9,0.9-0.9c0.5,0,0.9,0.4,0.9,0.9C17.3,8.1,16.9,8.5,16.4,8.5z"/></svg>