<svg xmlns="http://www.w3.org/2000/svg" enable-background="new 0 0 24 24" viewBox="0 0 24 24"><path d="M12.59552,8.0828247C11.2598267,7.7369385,9.8966675,8.5393066,9.5507812,9.875c-0.0690308,0.2675171,0.0918579,0.5403442,0.359375,0.609375s0.5403442-0.0918579,0.609375-0.359375c0.12677-0.4927979,0.494812-0.8876953,0.9775391-1.0487671c0.7855225-0.262146,1.6348267,0.1621704,1.8969727,0.9476929c0.262085,0.7855835-0.1622314,1.6348267-0.9477539,1.8969727c-0.6036377,0.2243042-0.9979858,0.8074341-0.9814453,1.4511719v0.628479c0.0001221,0.276001,0.223999,0.4996338,0.5,0.4994507h0.0005493c0.276001-0.0001831,0.4996338-0.223999,0.4994507-0.5v-0.6279297c-0.0114746-0.2142944,0.1088257-0.4140015,0.3037109-0.5039062c0.7988892-0.2697754,1.4077759-0.9243774,1.6191406-1.7406616C14.7335815,9.7918701,13.9311523,8.4287109,12.59552,8.0828247z M11.9646606,15.375c-0.3452148,0-0.625,0.2798462-0.625,0.625s0.2797852,0.625,0.625,0.625c0.3451538,0,0.625-0.2798462,0.625-0.625S12.3098145,15.375,11.9646606,15.375z M19.9894409,3.753418c-0.0565796-0.2703857-0.3215942-0.4437256-0.59198-0.387207c-2.4692383,0.5216064-5.0441895-0.0049438-7.1103516-1.4541016c-0.1722412-0.1210938-0.4019775-0.1210938-0.5742188,0c-2.0661621,1.4491577-4.6411133,1.975708-7.1103516,1.4541016C4.5689697,3.3591919,4.53479,3.3556519,4.5004883,3.3556519C4.2242432,3.3554688,4.0001831,3.5792236,4,3.8554688v8.0185547c0.0016479,2.9362183,1.4152222,5.6925659,3.7988281,7.4072266l3.9101562,2.8037109C11.7937622,22.1459961,11.8955688,22.178833,12,22.1787109c0.1044312,0.0001221,0.2062378-0.0326538,0.2910156-0.093689l3.9101562-2.803772C18.5847778,17.5665894,19.9983521,14.8102417,20,11.8740234V3.8554688C20,3.821167,19.99646,3.7869873,19.9894409,3.753418z M19,11.8740234c-0.0010986,2.6139526-1.2591553,5.0679321-3.3808594,6.5947266L12,21.0634766L8.3808594,18.46875C6.2591553,16.9418945,5.0010986,14.4879761,5,11.8740234V4.453125c2.4417725,0.3648682,4.9324951-0.1789551,7-1.5283203c2.067627,1.348999,4.5582275,1.8928223,7,1.5283203V11.8740234z"/></svg>