<svg xmlns="http://www.w3.org/2000/svg" enable-background="new 0 0 24 24" viewBox="0 0 24 24"><path d="M8.2851562,4.3935547C9.6113892,4.1651001,10.8761597,3.6651001,12,2.9248047c2.071228,1.3405151,4.5584717,1.8839111,7,1.5292969v7.4160156c0.0018921,0.9202271-0.1570435,1.8337402-0.4697266,2.6992188C18.5100098,14.6240234,18.4997559,14.6818848,18.5,14.7402344v0.0137939c0.0024414,0.2736816,0.2263184,0.4935303,0.5,0.4910889c0.2178345-0.0011597,0.4100342-0.1428223,0.4755859-0.3505859C19.8243408,13.9243774,20.00177,12.901001,20,11.8701172V3.8603516c-0.000061-0.0328369-0.0033569-0.0656128-0.0098267-0.0978394c-0.0545044-0.2712402-0.3185425-0.4468994-0.5897827-0.392395c-2.4703979,0.5043335-5.0396118-0.0223389-7.1123047-1.4580078c-0.1723633-0.1230469-0.4038086-0.1230469-0.5761719,0c-1.0722046,0.7607422-2.3012085,1.2716064-3.5966797,1.4951172C8.1138916,3.4074707,8.1124878,3.4077148,8.111145,3.407959C7.8389893,3.4559937,7.6572876,3.7155762,7.7053223,3.9877319C7.753418,4.2598877,8.0130005,4.4415894,8.2851562,4.3935547z M21.8534546,21.1465454l-19-19c-0.1937256-0.1871948-0.5009155-0.1871948-0.6947021,0C1.960144,2.3383789,1.9546509,2.6549072,2.1464844,2.8535156L4,4.7070312v7.1630859c0.0003662,2.9360352,1.4138184,5.6925049,3.7978516,7.40625l3.9101562,2.8095703c0.085083,0.0610962,0.1872559,0.0938721,0.2919922,0.09375c0.1047363,0,0.2068481-0.0327759,0.2919922-0.09375l3.9111328-2.8105469c0.4567261-0.3250732,0.8687134-0.7050171,1.2546387-1.1105957l3.6887207,3.6887207C21.2401123,21.9474487,21.3673706,22.0001831,21.5,22c0.1325073-0.000061,0.2595825-0.0526733,0.3533325-0.1463623C22.048645,21.6583862,22.0487061,21.3417969,21.8534546,21.1465454z M15.6181641,18.4638672L12,21.0644531l-3.6191406-2.6005859C6.2585449,16.9380493,5.0002441,14.4840088,5,11.8701172V5.7070312l11.7515869,11.7515869C16.4033203,17.8259888,16.0310059,18.1697998,15.6181641,18.4638672z"/></svg>