<svg xmlns="http://www.w3.org/2000/svg" enable-background="new 0 0 24 24" viewBox="0 0 24 24"><path d="M12,13c0.0001831,0,0.0003662,0,0.0006104,0c0.2759399-0.0001831,0.4995728-0.223999,0.4993896-0.5v-3C12.5,9.223877,12.276123,9,12,9s-0.5,0.223877-0.5,0.5v3c0,0.0001831,0,0.0003662,0,0.0005493C11.5001831,12.7765503,11.723999,13.0001831,12,13z M19.9894409,3.753418c-0.0565796-0.2703857-0.3215942-0.4437256-0.59198-0.387207c-2.4692383,0.5215454-5.0441284-0.0050659-7.1103516-1.4541016c-0.1722412-0.1210938-0.4019775-0.1210938-0.5742188,0C9.6466064,3.361084,7.0717773,3.8876343,4.6025391,3.3662109C4.5689697,3.3591919,4.53479,3.3556519,4.5004883,3.3556519C4.2242432,3.3554688,4.0001831,3.5792236,4,3.8554688v8.0185547c0.0016479,2.9362183,1.4152222,5.6925659,3.7988281,7.4072266l3.9101562,2.8037109C11.7937622,22.1459961,11.8955688,22.178833,12,22.1787109c0.1044312,0.0001221,0.2062378-0.0326538,0.2910156-0.093689l3.9101562-2.803772C18.5847778,17.5665894,19.9983521,14.8102417,20,11.8740234V3.8554688C20,3.821167,19.99646,3.7869873,19.9894409,3.753418z M19,11.8740234c-0.0010986,2.6139526-1.2591553,5.0679321-3.3808594,6.5947266L12,21.0634766L8.3808594,18.46875C6.2591553,16.9418945,5.0010986,14.4879761,5,11.8740234V4.453125c2.4417725,0.3648682,4.9324951-0.1789551,7-1.5283203c2.0675659,1.3491211,4.5582275,1.8929443,7,1.5283203V11.8740234z M12,13.875c-0.3451538,0-0.625,0.2798462-0.625,0.625s0.2798462,0.625,0.625,0.625s0.625-0.2798462,0.625-0.625S12.3451538,13.875,12,13.875z"/></svg>