<svg xmlns="http://www.w3.org/2000/svg" enable-background="new 0 0 24 24" viewBox="0 0 24 24"><path d="M13.8964233,9.9463501l-3.046875,3.046814l-1.2460938-1.2470703c-0.1943359-0.1904907-0.5054321-0.1904907-0.6998291,0c-0.1972046,0.1932983-0.2003784,0.5098267-0.0071411,0.7070312l1.5996094,1.6005859c0.09375,0.093811,0.2208862,0.1464844,0.3535156,0.1464844c0.1325684,0,0.2597046-0.0526733,0.3534546-0.1464844l3.4075317-3.4075317c0.1932373-0.1972046,0.1900635-0.5137939-0.0071411-0.7070312S14.0897217,9.7490845,13.8964233,9.9463501z M19.9894409,3.753418c-0.0565796-0.2703857-0.3215942-0.4437256-0.59198-0.387207c-2.4692383,0.5214233-5.0440674-0.005127-7.1103516-1.4541016c-0.1722412-0.1210938-0.4019775-0.1210938-0.5742188,0C9.6466675,3.361145,7.0717773,3.8877563,4.6025391,3.3662109C4.5689697,3.3591919,4.53479,3.3556519,4.5004883,3.3556519C4.2242432,3.3554688,4.0001831,3.5792236,4,3.8554688v8.0185547c0.0016479,2.9362183,1.4152222,5.6925659,3.7988281,7.4072266l3.9101562,2.8037109C11.7937622,22.1459961,11.8955688,22.178833,12,22.1787109c0.1044312,0.0001221,0.2062378-0.0326538,0.2910156-0.093689l3.9101562-2.803772C18.5847778,17.5665894,19.9983521,14.8102417,20,11.8740234V3.8554688C20,3.821167,19.99646,3.7869873,19.9894409,3.753418z M19,11.8740234c-0.0010986,2.6139526-1.2591553,5.0679321-3.3808594,6.5947266L12,21.0634766L8.3808594,18.46875C6.2591553,16.9418945,5.0010986,14.4879761,5,11.8740234V4.453125c2.4417725,0.3647461,4.9324951-0.1790161,7-1.5283203c2.067688,1.348938,4.5582886,1.8927002,7,1.5283203V11.8740234z"/></svg>