<svg xmlns="http://www.w3.org/2000/svg" enable-background="new 0 0 24 24" viewBox="0 0 24 24"><path d="M14.8671265,12.2324829l0.000061-0.000061c-0.3607788-0.2322998-0.7526855-0.4121704-1.1640625-0.5341797c-0.2651367-0.0805054-0.5577393-0.1587524-0.861084-0.234314c-0.2763672-0.0785522-0.6150513-0.1591797-1.0358887-0.2520142c-0.517395-0.1088257-1.0252075-0.2590942-1.5185547-0.4492188c-0.3204346-0.1264648-0.602417-0.3341064-0.8183594-0.6025391C9.2822876,9.9091187,9.1887207,9.600708,9.2045898,9.2880859C9.2042847,8.9638062,9.3114014,8.6485596,9.5092773,8.3916016c0.2409668-0.2963867,0.5604248-0.519043,0.921875-0.6425781C10.9452515,7.5693359,11.487854,7.4849243,12.0322266,7.5c0.4250488-0.0057373,0.8485718,0.0515747,1.2568359,0.1699219c0.2973022,0.0842896,0.5765991,0.2223511,0.8242188,0.4072266c0.1828613,0.133606,0.3369751,0.3026733,0.453125,0.4970703c0.1310425,0.2432251,0.4345093,0.3341675,0.6777344,0.203125s0.3341675-0.4345093,0.203125-0.6777344c-0.1799316-0.3131104-0.4214478-0.5864868-0.710022-0.8037109c-0.3447266-0.2629395-0.7350464-0.4598999-1.1513062-0.5810547C13.081604,6.5663452,12.5579224,6.4939575,12.0322266,6.5c-0.6676636-0.015564-1.3325195,0.0916748-1.9614258,0.3164062c-0.5355835,0.1919556-1.007019,0.52948-1.3613281,0.9746094c-0.3271484,0.430542-0.5044556,0.9562988-0.5048828,1.4970703c-0.0147705,0.5349731,0.152771,1.059082,0.4750977,1.4863281c0.3240356,0.4057007,0.7476196,0.7205811,1.2294922,0.9140625c0.4119263,0.1578369,0.8336182,0.2888794,1.2624512,0.392334c0.0088501,0.0032349,0.0150757,0.0101929,0.0241699,0.0129395c0.1835938,0.0546875,0.4780273,0.1279297,0.9008789,0.2207031c0.1724854,0.0366211,0.3345947,0.0775757,0.4973145,0.118103c0.0298462,0.008728,0.0706787,0.0177612,0.0983887,0.0264282c0.0117798,0.0037231,0.0237427,0.0026245,0.0356445,0.0053711c0.2406006,0.0620728,0.4711304,0.1262817,0.684082,0.190918c0.3179932,0.093811,0.6213989,0.2315063,0.9013672,0.4091797c0.2103882,0.1368408,0.3864746,0.3203125,0.5146484,0.5361328c0.1289673,0.2512207,0.1918335,0.531189,0.1826172,0.8134766c0.0183716,0.3731689-0.0911865,0.7414551-0.3105469,1.0440063c-0.2567749,0.3410645-0.6063232,0.6010742-1.0068359,0.7489624c-0.5361938,0.2102051-1.109375,0.3098755-1.6850586,0.2930298c-0.6676025,0.0232544-1.3310547-0.1140137-1.9345703-0.4003906c-0.3196411-0.1708374-0.5941162-0.4152222-0.8007812-0.7128906c-0.1690063-0.2268066-0.2682495-0.4979858-0.2856445-0.7802734c0-0.2761841-0.223877-0.5-0.5-0.5s-0.5,0.2238159-0.5,0.5c0.0164795,0.4852295,0.1774902,0.9545288,0.4624023,1.3476562c0.2995605,0.4329224,0.6989746,0.7873535,1.1645508,1.0332031c0.7449341,0.3614502,1.5663452,0.5373535,2.3939819,0.5126953c0.7075806,0.0179443,1.411438-0.1079712,2.0688477-0.3701172c0.5749512-0.2178345,1.0745239-0.5973511,1.4384766-1.0927734c0.3441162-0.4763794,0.5184937-1.0544434,0.4951172-1.6416016C16.0419312,13.5223389,15.6063232,12.6983643,14.8671265,12.2324829z M21.8408203,13.7675781c0.9810791-5.4300537-2.6255493-10.6273193-8.055603-11.6083984c-1.1748047-0.2122192-2.3780518-0.2122192-3.5527954,0C7.2830811,0.6495972,3.668396,1.8167725,2.1588745,4.7661133c-0.878418,1.7162476-0.878479,3.750061-0.0001831,5.4663086c-0.980835,5.4302979,2.6261597,10.6276245,8.0564575,11.6084595c1.1746216,0.2121582,2.3778076,0.2121582,3.5524292-0.000061c2.9489136,1.5098267,6.5634155,0.3432617,8.0732422-2.6055908C22.7197266,17.5186157,22.7197266,15.4841919,21.8408203,13.7675781z M18.9126587,20.8798828C18.1737061,21.2868652,17.343689,21.5001831,16.5,21.5c-0.8428345-0.0001221-1.671936-0.2134399-2.4101562-0.6201172c-0.0742188-0.0407715-0.1574707-0.0623169-0.2421875-0.0625c-0.0324707-0.0001221-0.0648804,0.0031128-0.0966797,0.0097656C13.1742554,20.9411011,12.5878906,20.9989624,12,21c-4.9671021,0.003479-8.996521-4.0203247-9-8.9874268c-0.0004272-0.5921631,0.0576172-1.1828613,0.1733398-1.7635498c0.022644-0.1154175,0.0037842-0.2350464-0.0532227-0.3378906C1.788208,7.4924316,2.6692505,4.4520264,5.0878906,3.1201172c1.5014648-0.8268433,3.3217773-0.8268433,4.8232422,0C10.0137939,3.1786499,10.1343994,3.1973877,10.25,3.1728516c4.8723755-0.9692383,9.6079102,2.1948853,10.5771484,7.0672607C20.9424438,10.8196411,21.0003052,11.4091187,21,12c-0.0009766,0.5878906-0.0588989,1.1742554-0.1728516,1.7509766c-0.0229492,0.1156616-0.0042725,0.2357178,0.0527344,0.3388672C22.2116699,16.5081177,21.3309326,19.5480957,18.9126587,20.8798828z"/></svg>