<svg xmlns="http://www.w3.org/2000/svg" enable-background="new 0 0 24 24" viewBox="0 0 24 24"><path d="M21.2,12c0.8-0.5,1.3-1.5,1.3-2.5c0-1.7-1.3-3-3-3c-0.8,0-1.5,0.3-2,0.8V4.5c0-1.7-1.3-3-3-3c-1,0-2,0.5-2.5,1.3C11.5,2,10.5,1.5,9.5,1.5c-1.7,0-3,1.3-3,3c0,0.8,0.3,1.5,0.8,2H4.5c-1.7,0-3,1.3-3,3c0,1,0.5,2,1.3,2.5c-0.8,0.5-1.3,1.5-1.3,2.5c0,1.7,1.3,3,3,3c0.8,0,1.5-0.3,2-0.8v2.8c0,1.7,1.3,3,3,3c1,0,2-0.5,2.5-1.3c0.5,0.8,1.5,1.3,2.5,1.3c1.7,0,3-1.3,3-3c0-0.8-0.3-1.5-0.8-2h2.8c1.7,0,3-1.3,3-3C22.5,13.5,22,12.5,21.2,12z M17.5,9.5c0-1.1,0.9-2,2-2s2,0.9,2,2s-0.9,2-2,2h-2V9.5z M12.5,4.5c0-1.1,0.9-2,2-2c1.1,0,2,0.9,2,2v5c0,1.1-0.9,2-2,2s-2-0.9-2-2V4.5z M9.5,2.5c1.1,0,2,0.9,2,2v2h-2c-1.1,0-2-0.9-2-2S8.4,2.5,9.5,2.5z M6.5,14.5c0,1.1-0.9,2-2,2s-2-0.9-2-2s0.9-2,2-2h2V14.5z M4.5,11.5c-1.1,0-2-0.9-2-2s0.9-2,2-2h5c1.1,0,2,0.9,2,2s-0.9,2-2,2H4.5z M11.5,19.5c0,1.1-0.9,2-2,2s-2-0.9-2-2v-5c0-1.1,0.9-2,2-2c1.1,0,2,0.9,2,2V19.5z M12,12.8c-0.2-0.3-0.5-0.6-0.8-0.8c0.3-0.2,0.6-0.5,0.8-0.8c0.2,0.3,0.5,0.6,0.8,0.8C12.5,12.2,12.2,12.5,12,12.8z M14.5,21.5c-1.1,0-2-0.9-2-2v-2h2c1.1,0,2,0.9,2,2S15.6,21.5,14.5,21.5z M19.5,16.5h-5c-1.1,0-2-0.9-2-2s0.9-2,2-2h5c1.1,0,2,0.9,2,2S20.6,16.5,19.5,16.5z"/></svg>