<svg xmlns="http://www.w3.org/2000/svg" enable-background="new 0 0 24 24" viewBox="0 0 24 24"><path d="M3.9,11.2C3.9,11.2,3.9,11.2,3.9,11.2c0.3,0.1,0.5-0.1,0.6-0.4c0.1-0.1,0.3-0.2,0.4-0.2C5.3,10.8,5.7,11,6.1,11c0.3,0,0.7-0.1,0.9-0.4c0.1-0.1,0.2-0.2,0.2-0.4l0-0.6C7,8.4,7.1,7.1,7.4,5.8C8.2,4.1,9.9,3,11.8,3l0.4,0c1.9,0,3.6,1.1,4.4,2.8c0.3,1.3,0.4,2.6,0.2,3.9l0,0.5c0,0.1,0.1,0.3,0.2,0.4c0.2,0.2,0.6,0.4,0.9,0.4c0.4,0,0.8-0.2,1.1-0.4c0.1,0,0.2,0,0.3,0c0.1,0.1,0.2,0.1,0.2,0.1c0,0.3,0.2,0.5,0.5,0.5l0,0h0c0.3,0,0.5-0.2,0.5-0.5c-0.1-0.5-0.4-0.9-0.9-1c-0.3-0.2-0.7-0.2-1.1,0c-0.2,0.1-0.5,0.2-0.7,0.3l0,0l0-0.3c0.2-1.4,0.1-2.9-0.3-4.3c-0.9-2.1-3-3.5-5.3-3.4l-0.4,0C9.5,2,7.4,3.3,6.5,5.4C6.1,6.8,6,8.3,6.2,9.7l0,0.3c-0.3,0-0.6-0.1-0.9-0.3C5.2,9.7,5,9.6,4.9,9.6c-0.6,0-1.2,0.4-1.4,0.9C3.5,10.8,3.6,11.1,3.9,11.2z M21.9,16.6c-1.4-0.3-2.6-1.2-3.3-2.4c0,0,0,0,0,0c-0.2-0.2-0.5-0.3-0.7-0.1c-0.2,0.2-0.3,0.5-0.1,0.7c0.8,1.3,2,2.2,3.5,2.7c-0.6,0.2-1.2,0.4-1.9,0.5c-0.5,0.1-0.6,0.6-0.7,1l0,0.2c0,0,0,0.1,0,0.1c-0.1,0-0.1,0-0.2,0c-0.7-0.2-1.4-0.2-2.1-0.1c-0.6,0.1-1.2,0.4-1.7,0.9c-0.7,0.6-1.5,0.9-2.4,1h-0.3c-0.9,0-1.7-0.4-2.4-1c-0.5-0.4-1.1-0.7-1.7-0.9c-0.7-0.1-1.4-0.1-2.1,0.1c0,0-0.1,0-0.2,0l0-0.1l0-0.2c-0.1-0.4-0.2-0.9-0.7-1c-0.6-0.1-1.3-0.2-1.9-0.5c1.1-0.3,2.2-1,2.9-1.9c0.2-0.3,0.4-0.5,0.6-0.8c0.1-0.2,0.1-0.5-0.2-0.7c-0.2-0.1-0.5-0.1-0.7,0.2c-0.1,0.2-0.3,0.5-0.5,0.7c-0.7,0.9-1.7,1.5-2.8,1.7c-0.4,0.1-0.6,0.4-0.6,0.7c0,0.1,0,0.2,0.1,0.3c0.2,0.4,0.6,0.9,2.7,1.2c0,0.1,0.1,0.2,0.1,0.3l0,0.2c0,0.1,0.1,0.2,0.1,0.3c0.1,0.4,0.4,0.6,0.8,0.6c0.2,0,0.3,0,0.5-0.1c0.6-0.1,1.2-0.1,1.8,0c0.5,0.1,0.9,0.4,1.3,0.7C9.8,21.6,10.8,22,12,22h0.2c1.1,0,2.1-0.4,3-1.2c0.4-0.3,0.8-0.6,1.3-0.7c0.6-0.1,1.2-0.1,1.8,0.1c0.2,0,0.4,0.1,0.5,0.1c0.4,0,0.7-0.2,0.8-0.6c0-0.1,0.1-0.2,0.1-0.3l0-0.2c0-0.1,0-0.2,0.1-0.3c2.1-0.4,2.6-0.9,2.7-1.2c0-0.1,0.1-0.1,0.1-0.2C22.6,17.1,22.3,16.7,21.9,16.6z"/></svg>