<svg xmlns="http://www.w3.org/2000/svg" enable-background="new 0 0 24 24" viewBox="0 0 24 24"><path d="M21.9946289,9.9328613c0.0401611-0.2733765-0.1489868-0.5275269-0.4223633-0.567627l-6.3046875-0.9189453l-2.8193359-5.7294922c-0.0447998-0.0761719-0.1083374-0.1397095-0.1845093-0.1845093c-0.2475586-0.1456299-0.5663452-0.0630493-0.7119751,0.1845093L8.7324219,8.4462891L2.4277344,9.3652344C2.319458,9.3811035,2.2193604,9.4320679,2.1428223,9.5102539c-0.1932983,0.1974487-0.1898804,0.5142212,0.0075684,0.7075195l4.5625,4.4609375l-1.0771484,6.2998047c-0.0183105,0.1082153-0.0005493,0.2194214,0.0505981,0.3165283c0.1286621,0.2445679,0.4313354,0.338562,0.6759644,0.2098389L12,18.5322266l5.6376953,2.9726562c0.0720215,0.0376587,0.1520996,0.0574341,0.2333984,0.0576172c0.027832,0,0.055542-0.0023193,0.0830078-0.006958c0.272583-0.0460815,0.4562378-0.3044434,0.4101562-0.5770264l-1.0771484-6.2998047l4.5625-4.4609375C21.9277954,10.1412354,21.9787598,10.0411377,21.9946289,9.9328613z M16.4003906,14.1473999c-0.1171875,0.1148071-0.1708374,0.2796631-0.1435547,0.4414062l0.9501953,5.5585938l-4.9736328-2.6229858C12.161377,17.4867554,12.0812988,17.46698,12,17.4667969c-0.0812988,0.0001831-0.1613159,0.0199585-0.2333984,0.0576782l-4.9735718,2.6229858l0.9501343-5.5585938c0.0272827-0.1617432-0.0263672-0.3265991-0.1435547-0.4414062l-4.0273438-3.9384766l5.5644531-0.8105469c0.1627808-0.0241699,0.3033447-0.12677,0.3759766-0.2744141L12,4.0703125l2.4873047,5.0537109c0.0726318,0.1477051,0.2131958,0.2503052,0.3759766,0.2744141l5.5644531,0.8105469L16.4003906,14.1473999z"/></svg>