<svg xmlns="http://www.w3.org/2000/svg" enable-background="new 0 0 24 24" viewBox="0 0 24 24"><path d="M21.9189453,10.1265259c0.0802612-0.546814-0.2979736-1.0551147-0.8447266-1.135376L15.4228516,8.164978l-2.5253906-5.1464844c-0.0909424-0.1569824-0.2214355-0.2873535-0.37854-0.3781128c-0.4960327-0.2866821-1.1306152-0.1170044-1.4173584,0.3790894L8.5771484,8.164978L2.9257812,8.9912109C2.7097168,9.0228882,2.5100098,9.1244507,2.3569946,9.2802734c-0.387146,0.3943481-0.3812256,1.0278931,0.0131226,1.4150391l4.0927734,4.0126953l-0.9658203,5.6640625c-0.0091553,0.0541992-0.013855,0.1090698-0.0139771,0.1641235c-0.0015259,0.5534058,0.4458618,1.0032959,0.9993286,1.0048218c0.163147-0.0002441,0.3237915-0.0404663,0.4677734-0.1171875L12,18.7539062l5.0488281,2.6689453c0.1951294,0.1035767,0.4190063,0.1396484,0.6367798,0.1025391c0.5441895-0.0928345,0.9100952-0.6091309,0.8173218-1.1533203l-0.9658203-5.6640625l4.09375-4.0137329C21.7861328,10.5414429,21.8872681,10.3421021,21.9189453,10.1265259z M11.5,17.8869629L6.4833984,20.539978l1.0097046-5.921814c0.0271606-0.1617432-0.0264282-0.3265381-0.1435547-0.4414062L3.0702515,9.9814453l5.9121094-0.8642578C9.1456299,9.0927734,9.286499,8.9898682,9.359375,8.8417969L11.5,4.4790649V17.8869629z M16.6503906,14.1766968c-0.1170654,0.1148682-0.1706543,0.2796631-0.1435547,0.4414062l1.0097656,5.9208984L12.5,17.8869019V4.4790649l2.140564,4.3626709c0.072876,0.1480713,0.2138062,0.2509766,0.3770142,0.2753906l5.9130859,0.8632812L16.6503906,14.1766968z"/></svg>