<svg xmlns="http://www.w3.org/2000/svg" enable-background="new 0 0 24 24" viewBox="0 0 24 24"><path d="M7.8534546,7.1465454c-0.1937256-0.1871948-0.5009155-0.1871948-0.6947021,0C6.960144,7.3383789,6.9546509,7.6549072,7.1464844,7.8535156L11.3017578,12l-4.1552734,4.1464844c-0.09375,0.09375-0.1464233,0.2208862-0.1464233,0.3534546C7,16.776062,7.223877,16.999939,7.5,17c0.1326294,0.0001221,0.2598267-0.0525513,0.3534546-0.1464844l4.5097656-4.5l0.0001831-0.0001831c0.1951294-0.1951904,0.1950684-0.5116577-0.0001831-0.7067871L7.8534546,7.1465454z M16.5,7C16.223877,7,16,7.223877,16,7.5v9.0005493C16.0001831,16.7765503,16.223999,17.0001831,16.5,17h0.0006104C16.7765503,16.9998169,17.0001831,16.776001,17,16.5v-9C17,7.223877,16.776123,7,16.5,7z"/></svg>