<svg xmlns="http://www.w3.org/2000/svg" enable-background="new 0 0 24 24" viewBox="0 0 24 24"><path d="M21.8534546,2.1587524c-0.1918335-0.1986084-0.5083618-0.2041016-0.7069702-0.0122681l-2.4527588,2.4527588c-0.5944214-0.5365601-1.2362671-1.0185547-1.9421997-1.3991699C12.3310547,0.8165283,6.9251099,2.1050415,4,6.0041504V3.5C4,3.223877,3.776123,3,3.5,3S3,3.223877,3,3.5v4c0,0.0001831,0,0.0003662,0,0.0006104C3.0001831,7.7765503,3.223999,8.0001831,3.5,8h4C7.776123,8,8,7.776123,8,7.5S7.776123,7,7.5,7H4.5290527c0.3227539-0.4802246,0.6738892-0.9404907,1.0834961-1.3510742c3.3984375-3.4064941,8.8372803-3.5180664,12.381897-0.3504028L5.2970581,17.9959106C3.8208008,16.3522949,2.9926147,14.2210693,3,12c-0.0004272-0.4752197,0.0374756-0.9497681,0.1133423-1.4188843c0.0447388-0.2723999-0.1397705-0.52948-0.4121094-0.5742188c-0.2723999-0.0447998-0.52948,0.1397095-0.5742188,0.4121094c-0.4829102,3.0008545,0.440979,6.0383301,2.4674072,8.279541l-2.447937,2.447937c-0.09375,0.09375-0.1464233,0.2208862-0.1464233,0.3534546C2,21.776062,2.223877,21.999939,2.5,22c0.1326294,0.0001221,0.2598267-0.0526123,0.3534546-0.1465454l19-19C22.0406494,2.659729,22.0406494,2.3525391,21.8534546,2.1587524z M20.5,16h-4c-0.276123,0-0.5,0.223877-0.5,0.5s0.223877,0.5,0.5,0.5h2.9874878c-2.5872192,3.8673096-7.7496338,5.1635742-11.882019,2.8544922C7.3656006,19.72052,7.062561,19.8052979,6.927002,20.0443115c-0.1361694,0.2401123-0.0518799,0.545105,0.1882324,0.6812744C8.6075439,21.5615845,10.2894897,22.0004272,12,22c3.1759033,0.0014038,6.1253052-1.5064697,8-3.9985352V20.5c0,0.0001831,0,0.0003662,0,0.0005493C20.0001831,20.7765503,20.223999,21.0001831,20.5,21c0.0001831,0,0.0003662,0,0.0006104,0C20.7765503,20.9998169,21.0001831,20.776001,21,20.5v-4c0-0.0001831,0-0.0003662,0-0.0006104C20.9998169,16.2234497,20.776001,15.9998169,20.5,16z M20.7255859,7.1152344c-0.135498-0.2390137-0.4385986-0.3237915-0.6784668-0.1898193c-0.2409668,0.1345825-0.3272095,0.4390869-0.192627,0.6800537C20.605896,8.9482422,21.0003052,10.4613037,21,12c0.0004272,0.4752808-0.0374146,0.9497681-0.1132202,1.4189453c-0.0001831,0.0007935-0.0003052,0.0015259-0.0004272,0.0023193c-0.0440063,0.2718506,0.140686,0.5278931,0.4125366,0.5718994C21.3259277,13.9978638,21.3533936,14.0001221,21.3808594,14c0.2445068-0.0003662,0.4527588-0.1776733,0.4921265-0.4190063C21.9577637,13.0582886,22.0002441,12.529541,22,12C22.0004272,10.2894897,21.5615845,8.6075439,20.7255859,7.1152344z"/></svg>