<svg xmlns="http://www.w3.org/2000/svg" enable-background="new 0 0 24 24" viewBox="0 0 24 24"><path d="M12,5c-1.1045532,0-2,0.8954468-2,2s0.8954468,2,2,2c1.1040039-0.0014038,1.9985962-0.8959961,2-2C14,5.8954468,13.1045532,5,12,5z M12,8c-0.5523071,0-1-0.4476929-1-1s0.4476929-1,1-1c0.552124,0.0003662,0.9996338,0.447876,1,1C13,7.5523071,12.5523071,8,12,8z M12,15c-1.1045532,0-2,0.8954468-2,2s0.8954468,2,2,2c1.1040039-0.0014038,1.9985962-0.8959961,2-2C14,15.8954468,13.1045532,15,12,15z M12,18c-0.5523071,0-1-0.4476929-1-1s0.4476929-1,1-1c0.552124,0.0003662,0.9996338,0.447876,1,1C13,17.5523071,12.5523071,18,12,18z M23,4.5c0-0.0001831,0-0.0003662,0-0.0006104C22.9998169,4.2234497,22.776001,3.9998169,22.5,4h-4.5910034c-0.2927246-1.1469116-1.3234863-1.9988403-2.5613403-2H8.6523438C7.4144897,2.0011597,6.383728,2.8530884,6.0910034,4H1.5C1.4998169,4,1.4996338,4,1.4993896,4C1.2234497,4.0001831,0.9998169,4.223999,1,4.5C1.0004883,6.3621216,1.9285278,8.0049438,3.3446655,9H1.5C1.4998169,9,1.4996338,9,1.4993896,9C1.2234497,9.0001831,0.9998169,9.223999,1,9.5c0.0004883,1.8621216,0.9285278,3.5049438,2.3446655,4.5H1.5c-0.0001831,0-0.0003662,0-0.0006104,0C1.2234497,14.0001831,0.9998169,14.223999,1,14.5c0.0007324,2.8969727,2.2420044,5.2652588,5.0844727,5.4789429C6.3696289,21.1367798,7.4067383,21.9987793,8.6523438,22h6.6953125c1.2456055-0.0012207,2.2827148-0.8632202,2.5678711-2.0210571C20.7579956,19.7652588,22.9992676,17.3969727,23,14.5c0-0.0001831,0-0.0003662,0-0.0006104C22.9998169,14.2234497,22.776001,13.9998169,22.5,14h-1.8446655C22.0714722,13.0049438,22.9995117,11.3621216,23,9.5c0-0.0001831,0-0.0003662,0-0.0006104C22.9998169,9.2234497,22.776001,8.9998169,22.5,9h-1.8446655C22.0714722,8.0049438,22.9995117,6.3621216,23,4.5z M6,18.9716797C3.9108887,18.7380371,2.2619629,17.0891113,2.0283203,15H6V18.9716797z M6,13.9716797C3.9108887,13.7380371,2.2619629,12.0891113,2.0283203,10H6V13.9716797z M6,8.9716797C3.9108887,8.7380371,2.2619629,7.0891113,2.0283203,5H6V8.9716797z M17,9.5v0.0005493V14.5v0.0005493v4.8471069C16.9989624,20.2598267,16.2598267,20.9989624,15.3476562,21H8.6523438C7.7401733,20.9989624,7.0010376,20.2598267,7,19.3476562V14.5v-0.0006104V9.5V9.4993896V4.6523438C7.0010376,3.7401733,7.7401733,3.0010376,8.6523438,3h6.6953125C16.2598267,3.0010376,16.9989624,3.7401733,17,4.6523438V9.5z M21.9716797,15C21.7380371,17.0891113,20.0891113,18.7380371,18,18.9716797V15H21.9716797z M21.9716797,10C21.7380371,12.0891113,20.0891113,13.7380371,18,13.9716797V10H21.9716797z M18,8.9716797V5h3.9716797C21.7380371,7.0891113,20.0891113,8.7380371,18,8.9716797z M12,10c-1.1045532,0-2,0.8954468-2,2s0.8954468,2,2,2c1.1040039-0.0014038,1.9985962-0.8959961,2-2C14,10.8954468,13.1045532,10,12,10z M12,13c-0.5523071,0-1-0.4476929-1-1s0.4476929-1,1-1c0.552124,0.0003662,0.9996338,0.447876,1,1C13,12.5523071,12.5523071,13,12,13z"/></svg>