<svg xmlns="http://www.w3.org/2000/svg" enable-background="new 0 0 24 24" viewBox="0 0 24 24"><path d="M16.96875,20.6669922l-0.9619141-2.8525391c-0.0886841-0.2615967-0.3726807-0.4017334-0.6342163-0.3129883c-0.0184937,0.0062866-0.0366211,0.0136108-0.0542603,0.0219727c-0.4509277,0.1779175-0.9287109,0.2783203-1.4130859,0.296875c-0.3664551,0.0422363-0.7341919-0.0675049-1.0175781-0.3037109c-0.2745361-0.3257446-0.4155273-0.7434082-0.3945312-1.1689453V11.5h3.5166016c0.276001,0.0001831,0.4998779-0.2234497,0.5-0.4994507V7.0947266c0.0001831-0.276001-0.2234497-0.4998169-0.4994507-0.5h-3.5015259V2c0.0001221-0.276001-0.2234497-0.4998169-0.4994507-0.5H9.078125C8.7436523,1.5041504,8.4669189,1.7614746,8.4384766,2.0947266C8.3419189,4.3262329,6.9214478,6.2841187,4.8300781,7.0683594C4.631958,7.1401978,4.5,7.3283081,4.5,7.5390625v3.5830078c-0.0001831,0.276001,0.2234497,0.4998169,0.4993896,0.5h1.5250244v5.0351562c0.015686,1.5492554,0.6400757,3.0301514,1.7382812,4.1229858C9.5131836,21.9468994,11.1777344,22.565979,12.8867188,22.5c0.0507812,0,0.1025391,0,0.1542969-0.0009766c1.5722656-0.0273438,3.3798828-0.6767578,3.8671875-1.3896484C16.9966431,20.9795532,17.019043,20.8157959,16.96875,20.6669922z M13.0234375,21.4990234c-1.493103,0.1057129-2.9631348-0.4127197-4.0595703-1.4316406c-0.9088135-0.9037476-1.4258423-2.1286011-1.4394531-3.4101562v-5.5351562c0.0001831-0.276001-0.2234497-0.4998169-0.4994507-0.5H5.5V7.8808594C7.6760254,6.9238892,9.1654053,4.8660889,9.3945312,2.5h2.1142578v4.5947266c-0.0001831,0.276001,0.2234497,0.4998779,0.4994507,0.5h3.5015259V10.5h-3.5166016c-0.276001-0.0001831-0.4998779,0.2234497-0.5,0.4994507v5.3569946c-0.0281372,0.6965942,0.2252808,1.3751831,0.703125,1.8828125c0.4754028,0.4222412,1.1025391,0.6320801,1.7363281,0.5809937c0.4362183-0.0180664,0.8687744-0.0869141,1.2890625-0.2050781l0.7011719,2.0791016C15.0420532,21.208252,14.0431519,21.4854736,13.0234375,21.4990234z"/></svg>