<svg xmlns="http://www.w3.org/2000/svg" enable-background="new 0 0 24 24" viewBox="0 0 24 24"><path d="M12.5,3.0118408V2.5C12.5,2.223877,12.276123,2,12,2s-0.5,0.223877-0.5,0.5v0.5118408C6.897644,3.149231,3.1424561,6.840271,3,11.5v0.0005493C3.0001831,11.7765503,3.223999,12.0001831,3.5,12h5.0189819c0.0066528,0.0003052,0.0133667,0.0009155,0.0200806,0.0009155C8.5407104,12.0009155,8.5419922,12,8.5436401,12H11.5v7.25c0,0.9664917-0.7835083,1.75-1.75,1.75S8,20.2164917,8,19.25c0-0.276123-0.223877-0.5-0.5-0.5S7,18.973877,7,19.25c0.0015259,1.5181274,1.2318726,2.7484741,2.75,2.75c1.5181274-0.0015259,2.7484741-1.2318726,2.75-2.75V12h8.0006104C20.7765503,11.9998169,21.0001831,11.776001,21,11.5C20.8577271,6.84021,17.102417,3.1491089,12.5,3.0118408z M8.0505371,11h-4.032959c0.3521729-3.3762207,2.8185425-6.046875,5.9850464-6.789917C8.9051514,5.6862183,8.2294312,8.3179932,8.0505371,11z M9.0524292,11C9.3445435,6.6643066,10.7764282,4,12,4s2.6558838,2.6643066,2.9484863,7H9.0524292z M15.949585,11c-0.1782837-2.6819458-0.8540039-5.3135986-1.9516602-6.7897339C17.1640015,4.9535522,19.630188,7.6240845,19.9824219,11H15.949585z"/></svg>