<svg xmlns="http://www.w3.org/2000/svg" enable-background="new 0 0 24 24" viewBox="0 0 24 24"><path d="M6.6,6.9l2.5,2.5c0.1,0.1,0.2,0.1,0.4,0.1c0.1,0,0.3-0.1,0.4-0.1c0.2-0.2,0.2-0.5,0-0.7L8.2,7h7.6l-1.6,1.6C14.1,8.7,14,8.9,14,9c0,0.3,0.2,0.5,0.5,0.5c0.1,0,0.3-0.1,0.4-0.1l2.5-2.5c0,0,0,0,0,0c0.2-0.2,0.2-0.5,0-0.7l-2.5-2.5c-0.2-0.2-0.5-0.2-0.7,0c-0.2,0.2-0.2,0.5,0,0.7L15.8,6H8.2l1.6-1.6c0.2-0.2,0.2-0.5,0-0.7c-0.2-0.2-0.5-0.2-0.7,0L6.6,6.1c0,0-0.1,0.1-0.1,0.2c0,0.1,0,0.1,0,0.2c0,0,0,0,0,0v0c0,0.1,0,0.1,0,0.2S6.6,6.8,6.6,6.9z M7.9,15.9c0.8-0.6,1.4-1.5,1.4-2.6C9.2,11.5,7.8,10,6,10s-3.2,1.5-3.2,3.2c0,1.1,0.5,2,1.4,2.6C2.3,16.6,1,18.4,1,20.5C1,20.8,1.2,21,1.5,21S2,20.8,2,20.5c0-2.2,1.8-4,4-4s4,1.8,4,4v0c0,0.3,0.2,0.5,0.5,0.5h0c0.3,0,0.5-0.2,0.5-0.5C11,18.4,9.7,16.6,7.9,15.9z M6,15.5c-1.2,0-2.2-1-2.2-2.2S4.8,11,6,11c1.2,0,2.2,1,2.2,2.2C8.2,14.5,7.2,15.5,6,15.5z M19.9,15.9c0.8-0.6,1.4-1.5,1.4-2.6c0-1.8-1.5-3.2-3.2-3.2s-3.2,1.5-3.2,3.2c0,1.1,0.5,2,1.4,2.6c-1.8,0.7-3.1,2.5-3.1,4.6c0,0.3,0.2,0.5,0.5,0.5s0.5-0.2,0.5-0.5c0-2.2,1.8-4,4-4s4,1.8,4,4v0c0,0.3,0.2,0.5,0.5,0.5h0c0.3,0,0.5-0.2,0.5-0.5C23,18.4,21.7,16.6,19.9,15.9z M18,15.5c-1.2,0-2.2-1-2.2-2.2s1-2.2,2.2-2.2c1.2,0,2.2,1,2.2,2.2C20.2,14.5,19.2,15.5,18,15.5z"/></svg>