<svg xmlns="http://www.w3.org/2000/svg" enable-background="new 0 0 24 24" viewBox="0 0 24 24"><path d="M15.375,13.8671875c-0.4400024-0.4725952-0.9667969-0.8561401-1.5516968-1.1296997c1.6803589-1.0357666,2.8744507-2.7028198,3.3143921-4.6271362c0.0609741-0.269104-0.1077881-0.5366821-0.3769531-0.5976562c-0.269104-0.0609741-0.5366821,0.1078491-0.5976562,0.3769531c-0.4504395,1.9788208-1.8178711,3.6240234-3.6809692,4.4286499c-0.1081543-0.0181274-0.2183838-0.0233765-0.3278198-0.0344238V8.0020142c-0.0028076-0.0439453-0.0115356-0.0873413-0.026001-0.1289062c-0.0029907-0.0217285-0.0073242-0.0432739-0.0130005-0.0644531c-0.0233765-0.0528564-0.0557861-0.1012573-0.0957031-0.1430054c-0.0043945-0.0047607-0.0062866-0.0114136-0.0108032-0.0159912c-0.0360107-0.0330811-0.0766602-0.06073-0.1206665-0.0820312c-0.0136108-0.0073853-0.0238037-0.0196533-0.038147-0.0257568c-0.0335693-0.0105591-0.0681152-0.0177002-0.1030884-0.0211792c-0.029541-0.0091553-0.0599365-0.0153809-0.0906372-0.0186768L11.0020142,7.5H11c-0.276123-0.0005493-0.5004272,0.2228394-0.5009766,0.4990234C10.4984741,8.2751465,10.7218628,8.4994507,10.9979858,8.5l0.1523438,0.0004272v5.4595947c0,0.006897,0.0036011,0.0125732,0.0039062,0.0194092v0.9981689c-2.1287842-1.8045654-3.548584-4.3057251-4.0067749-7.0585938C7.0967407,7.6497192,6.8423462,7.4686279,6.5712891,7.5088501C6.2990723,7.5548706,6.1155396,7.8126831,6.1611328,8.085022c0.5628662,3.3532715,2.4330444,6.3463135,5.2001953,8.3222656c0.0090942,0.0065308,0.0212402,0.0039673,0.0306396,0.0098877c0.0773926,0.0529785,0.1685181,0.0824585,0.2623291,0.0848389c0.0736084-0.0009155,0.1461182-0.0183716,0.2120972-0.0510254l0.0154419-0.0037231c0.0109863-0.0056763,0.0158081-0.0180054,0.0263062-0.0244141c0.0571899-0.0346069,0.1066895-0.0805054,0.1454468-0.1350098c0.0125732-0.0162354,0.0240479-0.0332642,0.0344238-0.0509644c0.041687-0.0714111,0.0645142-0.1522217,0.0662842-0.2348633v-2.7393188c0.9535522,0.1192627,1.8338623,0.572937,2.484375,1.2803345l1.6474609,1.796814c0.0945435,0.1033325,0.2281494,0.1621704,0.3681641,0.1621094c0.1253052,0.0005493,0.2460938-0.0465698,0.3378906-0.1317749c0.203186-0.1867065,0.2167358-0.5026855,0.0302734-0.7061157L15.375,13.8671875z M15.0732422,1.5H8.9375C3.0292969,1.5,1.5,3.0273438,1.5,8.9267578V15.0625C1.5,20.9707031,3.0273438,22.5,8.9267578,22.5H15.0625c5.9082031,0,7.4375-1.5273438,7.4375-7.4267578V8.9375C22.5,3.0292969,20.9726562,1.5,15.0732422,1.5z M21.5,15.0732422C21.5,20.4190063,20.4169922,21.5,15.0625,21.5H8.9267578C3.5810547,21.5,2.5,20.4169922,2.5,15.0625V8.9267578C2.5,3.5810547,3.5830078,2.5,8.9375,2.5h6.1357422C20.4190063,2.5,21.5,3.5830078,21.5,8.9375V15.0732422z"/></svg>