<svg xmlns="http://www.w3.org/2000/svg" enable-background="new 0 0 24 24" viewBox="0 0 24 24"><path d="M22.9335938,3.2558594C22.8446045,3.1004028,22.6791382,3.0046387,22.5,3.0048828l-4.9899902-0.0028687L17.5029297,3l-4-0.0263672H13.5c-0.1765747-0.0002441-0.3400269,0.0930176-0.4296875,0.2451172l-1.0723267,1.8056641l-1.0692749-1.78125C10.8394775,3.0933228,10.6783447,3.0010986,10.5039062,3l-4-0.0273438H6.5C6.465332,2.9780273,6.4313965,2.9872437,6.3987427,3H1.5C1.223999,2.999939,1.0001831,3.2236328,1.000061,3.4996338c0,0.0886841,0.0235596,0.1757812,0.0682983,0.2523193l10.5,18c0.138916,0.2384033,0.4447632,0.3190308,0.6831665,0.1801147c0.074585-0.043457,0.1366577-0.1055298,0.1801147-0.1801147l10.5-17.9951172C23.0220947,3.6022949,23.0228271,3.4111328,22.9335938,3.2558594z M10.2158203,3.9980469l1.3554688,2.2587891C11.661438,6.4077148,11.8242798,6.500061,12,6.5h0.0009766c0.1761475-0.0004272,0.3389893-0.0935669,0.4287109-0.2451172l1.3535156-2.2792969l2.8291016,0.0185547l-3.0053711,4.9179077l-1.6061401,2.6276855L7.3935547,3.9785156L10.2158203,3.9980469z M12,20.5078125L2.3701172,4h3.8496094l5.3535156,8.7607422c0.0386353,0.0569458,0.0888062,0.1052246,0.1472168,0.1416016c0.0133057,0.0093384,0.020874,0.0256958,0.0349731,0.0336304c0.2344971,0.1316528,0.5311279,0.0542603,0.6713867-0.1752319l5.3534546-8.758728l3.8496094,0.0020142L12,20.5078125z"/></svg>