<svg xmlns="http://www.w3.org/2000/svg" enable-background="new 0 0 24 24" viewBox="0 0 24 24"><path d="M19.5,7H18V6c-0.0018311-1.6561279-1.3438721-2.9981689-3-3H4.5C3.119812,3.0012817,2.0012817,4.119812,2,5.5V18c0.0018311,1.6561279,1.3438721,2.9981689,3,3h14.5c1.380188-0.0012817,2.4987183-1.119812,2.5-2.5v-9C21.9987183,8.119812,20.880188,7.0012817,19.5,7z M4.5,4H15c1.1040039,0.0014038,1.9985962,0.8959961,2,2v1H4.5C3.6715698,7,3,6.3284302,3,5.5S3.6715698,4,4.5,4z M21,16h-2c-1.1045532,0-2-0.8954468-2-2s0.8954468-2,2-2h2V16z M21,11h-2c-1.6568604,0-3,1.3431396-3,3s1.3431396,3,3,3h2v1.5c-0.0009155,0.828064-0.671936,1.4990845-1.5,1.5H5c-1.1040039-0.0014038-1.9985962-0.8959961-2-2V7.4990234C3.4321899,7.8247681,3.9588013,8.0006714,4.5,8h15c0.828064,0.0009155,1.4990845,0.671936,1.5,1.5V11z"/></svg>