<svg xmlns="http://www.w3.org/2000/svg" enable-background="new 0 0 24 24" viewBox="0 0 24 24"><path d="M2.5,7h19C21.776123,7,22,6.776123,22,6.5S21.776123,6,21.5,6h-19C2.223877,6,2,6.223877,2,6.5S2.223877,7,2.5,7z M19,11H2.5C2.223877,11,2,11.223877,2,11.5S2.223877,12,2.5,12H19c1.1045532,0,2,0.8954468,2,2s-0.8954468,2-2,2h-5.0742188L15.3125,14.890625c0.2157593-0.1726074,0.2507324-0.4873657,0.078125-0.703125s-0.4873657-0.2507324-0.703125-0.078125l-2.5,2c-0.0106201,0.0085449-0.0189209,0.0194702-0.0288086,0.0288086c-0.0071411,0.0067749-0.0136719,0.0133057-0.0204468,0.0204468c-0.0091553,0.0097046-0.0198364,0.0177612-0.0281982,0.0281982c-0.0142212,0.0177002-0.0185547,0.0391235-0.0299683,0.0580444c-0.0180054,0.02948-0.0352783,0.0578613-0.046936,0.0909424c-0.0117188,0.0332642-0.0159302,0.0664062-0.0203247,0.1008301C12.0099487,16.458313,12,16.4775391,12,16.5c0,0.0093994,0.0048218,0.0171509,0.0053101,0.0264282c0.0018921,0.0352173,0.0114136,0.0679932,0.0206299,0.1020508c0.0080566,0.0296021,0.0137329,0.05896,0.0267944,0.0861206c0.0132446,0.027832,0.0330811,0.0512085,0.0516357,0.0765381c0.0204468,0.02771,0.0394897,0.0549316,0.0650635,0.0778809c0.0072021,0.0064697,0.010437,0.0155029,0.0180664,0.0216064l2.5,2C14.7763062,18.9614258,14.8864746,18.999939,15,19c0.1521606,0.0001221,0.2960205-0.0690308,0.3909912-0.1878662c0.1723633-0.2157593,0.1372681-0.5303955-0.0784912-0.7027588L13.9257812,17H19c1.6568604,0,3-1.3431396,3-3S20.6568604,11,19,11z M9.5,16h-7C2.223877,16,2,16.223877,2,16.5S2.223877,17,2.5,17h7c0.276123,0,0.5-0.223877,0.5-0.5S9.776123,16,9.5,16z"/></svg>