<svg xmlns="http://www.w3.org/2000/svg" enable-background="new 0 0 24 24" viewBox="0 0 24 24"><path d="M14.7919922,10.7753906l-3.6679688-2.1123047c-0.2145386-0.1235962-0.4577637-0.1888428-0.7053223-0.1891479C9.6362305,8.4728394,9.0010986,9.1062622,9,9.8886719v4.2226562c-0.0030518,0.5054932,0.2669067,0.9733276,0.7060547,1.2236328c0.2157593,0.1260986,0.4610596,0.1928101,0.7109375,0.1933594c0.2486572-0.0010986,0.4926758-0.0670776,0.7080078-0.1914062l3.6669922-2.1123047c0.2159424-0.1243286,0.3952026-0.3035889,0.5195312-0.5195312C15.7009277,12.0287476,15.4683228,11.1647949,14.7919922,10.7753906z M14.2920532,12.3574219l-3.6659546,2.1123047c-0.1293945,0.0759277-0.2896729,0.0759277-0.4190063,0c-0.1290283-0.072937-0.208313-0.2102051-0.2070312-0.3583984V9.8886719c-0.0012817-0.1481934,0.0780029-0.2854614,0.2070312-0.3583984c0.0646362-0.0368652,0.1375122-0.0567017,0.2119141-0.0576172C10.4916382,9.4729004,10.5628052,9.4927979,10.625,9.5302734l3.6670532,2.1123047c0.0644531,0.0366211,0.1177979,0.0899048,0.1543579,0.1543579C14.5585938,11.9943237,14.489502,12.2452393,14.2920532,12.3574219z M19,4H5C3.3438721,4.0018311,2.0018311,5.3438721,2,7v10c0.0018311,1.6561279,1.3438721,2.9981689,3,3h14c1.6561279-0.0018311,2.9981689-1.3438721,3-3V7C21.9981689,5.3438721,20.6561279,4.0018311,19,4z M21,17c-0.0014038,1.1040039-0.8959961,1.9985962-2,2H5c-1.1040039-0.0014038-1.9985962-0.8959961-2-2V7c0.0014038-1.1040039,0.8959961-1.9985962,2-2h14c1.1040039,0.0014038,1.9985962,0.8959961,2,2V17z"/></svg>