<svg xmlns="http://www.w3.org/2000/svg" viewBox="0 0 24 24"><path class="uim-primary" d="M10.396 11.519h-.108l.24-.132a2.333 2.333 0 0 0 1.095-1.203 3.464 3.464 0 0 0 .145-1.697 2.815 2.815 0 0 0-1.732-2.297 4.728 4.728 0 0 0-1.925-.385H2v12.354h5.582a9.448 9.448 0 0 0 1.587-.132 3.465 3.465 0 0 0 2.659-1.973 3.741 3.741 0 0 0 .3-2.406 2.694 2.694 0 0 0-1.732-2.13ZM4.9 7.959h2.406a4.67 4.67 0 0 1 1.203.156 1.035 1.035 0 0 1 .794.926 1.9 1.9 0 0 1 0 .746.999.999 0 0 1-.517.65 2.478 2.478 0 0 1-1.203.264H4.875Zm4.655 6.904a1.395 1.395 0 0 1-1.202 1.13 4.363 4.363 0 0 1-.794.085H4.875v-3.272h2.863a2.72 2.72 0 0 1 .902.156 1.311 1.311 0 0 1 .914 1.203 2.549 2.549 0 0 1 0 .698Zm12.439-.806c.012-.024.012-.048-.024-.024v-1.335a4.379 4.379 0 0 0-.41-1.769 3.729 3.729 0 0 0-1.924-1.852 5.137 5.137 0 0 0-2.947-.289 3.886 3.886 0 0 0-3.212 2.815 6.7 6.7 0 0 0-.144 3.465 3.5 3.5 0 0 0 .866 1.732 4.523 4.523 0 0 0 2.069 1.203 5.45 5.45 0 0 0 2.321.12 4.006 4.006 0 0 0 2.515-1.323 3.165 3.165 0 0 0 .71-1.203.523.523 0 0 0 .084-.349h-2.358a.12.12 0 0 0-.12.072 1.708 1.708 0 0 1-1.203.902 2.681 2.681 0 0 1-1.083 0 1.9 1.9 0 0 1-1.432-1.058 2.406 2.406 0 0 1-.204-.722v-.385Zm-6.352-1.732a4.515 4.515 0 0 1 .193-.566 1.732 1.732 0 0 1 1.576-1.082 2.287 2.287 0 0 1 1.046.144 1.78 1.78 0 0 1 1.13 1.444v.252l-3.945.036a2.099 2.099 0 0 1 0-.228Zm4.415-6.015h-5.004v1.444l5.004-.012Z" data-name="Brand Logos"/></svg>