<svg xmlns="http://www.w3.org/2000/svg" enable-background="new 0 0 24 24" viewBox="0 0 24 24"><path class="uim-tertiary" d="M7.188 13.352H5.27l.523-2.415h1.838c1.195 0 1.48.586 1.48 1.05 0 .657-.428 1.365-1.923 1.365zm.661-3.637H5.936l.52-2.416h1.84c1.194 0 1.479.587 1.479 1.051 0 .657-.428 1.365-1.926 1.365zm3.754 7.425H9.685l.522-2.418h1.84c1.193 0 1.476.589 1.476 1.054 0 .658-.425 1.364-1.92 1.364zm.708-3.788h-1.914l.521-2.415h1.84c1.193 0 1.476.586 1.476 1.05 0 .657-.425 1.365-1.923 1.365zm.664-3.637h-1.914l.523-2.416h1.836c1.196 0 1.48.587 1.48 1.051 0 .657-.427 1.365-1.925 1.365zm3.747 5.605h-1.915l.522-2.418h1.838c1.194 0 1.478.59 1.478 1.053 0 .657-.425 1.365-1.923 1.365zm.713-3.443H15.52l.522-2.416h1.84c1.194 0 1.476.587 1.476 1.052 0 .657-.425 1.364-1.923 1.364z"/><path class="uim-primary" d="M12 2C6.477 2 2 6.477 2 12s4.477 10 10 10 10-4.477 10-10S17.523 2 12 2zM7.188 13.352H5.27l.523-2.415h1.838c1.195 0 1.48.586 1.48 1.05 0 .657-.428 1.365-1.923 1.365zm.661-3.637H5.936l.52-2.416h1.84c1.194 0 1.479.587 1.479 1.051 0 .657-.428 1.365-1.926 1.365zm3.754 7.425H9.685l.522-2.418h1.84c1.193 0 1.476.589 1.476 1.054 0 .658-.425 1.364-1.92 1.364zm.708-3.788h-1.914l.521-2.415h1.84c1.193 0 1.476.586 1.476 1.05 0 .657-.425 1.365-1.923 1.365zm.664-3.637h-1.914l.523-2.416h1.836c1.196 0 1.48.587 1.48 1.051 0 .657-.427 1.365-1.925 1.365zm3.747 5.605h-1.915l.522-2.418h1.838c1.194 0 1.478.59 1.478 1.053 0 .657-.425 1.365-1.923 1.365zm.713-3.443H15.52l.522-2.416h1.84c1.194 0 1.476.587 1.476 1.052 0 .657-.425 1.364-1.923 1.364z"/></svg>