<svg xmlns="http://www.w3.org/2000/svg" viewBox="0 0 24 24"><path class="uim-tertiary" d="M20 11a.99.99 0 0 1-.71-.29 1.16 1.16 0 0 1-.21-.33.941.941 0 0 1 0-.76 1.029 1.029 0 0 1 .21-.33 1.047 1.047 0 0 1 1.42 0 1.147 1.147 0 0 1 .21.33.941.941 0 0 1 0 .76 1.16 1.16 0 0 1-.21.33.993.993 0 0 1-.71.29zm-1-4.5a1.003 1.003 0 0 1 1-1 1.003 1.003 0 0 1 1 1 1.003 1.003 0 0 1-1 1 1.003 1.003 0 0 1-1-1zM20 4a.99.99 0 0 1-.92-1.38 1.029 1.029 0 0 1 .21-.33 1.047 1.047 0 0 1 1.42 0 1.029 1.029 0 0 1 .21.33.99.99 0 0 1-.21 1.09 1.16 1.16 0 0 1-.33.21A1 1 0 0 1 20 4zM7.03 6.24a.994.994 0 0 1 .73-1.21.99.99 0 0 1 1.21.73.999.999 0 0 1-.73 1.21A.965.965 0 0 1 8 7a.991.991 0 0 1-.97-.76zm4-1a.994.994 0 0 1 .73-1.21.99.99 0 0 1 1.21.73.999.999 0 0 1-.73 1.21A.965.965 0 0 1 12 6a1.003 1.003 0 0 1-.97-.76zm4-1a.998.998 0 0 1 .73-1.21 1.003 1.003 0 0 1 1.21.73.999.999 0 0 1-.73 1.21A.965.965 0 0 1 16 5a.991.991 0 0 1-.97-.76zM4 8a.99.99 0 0 1-1-1 .832.832 0 0 1 .08-.38 1.029 1.029 0 0 1 .21-.33 1.047 1.047 0 0 1 1.42 0 1.029 1.029 0 0 1 .21.33A.99.99 0 0 1 4 8zm0 3a.99.99 0 0 1-.71-.29 1.16 1.16 0 0 1-.21-.33.941.941 0 0 1 0-.76 1.147 1.147 0 0 1 .21-.33 1.047 1.047 0 0 1 1.42 0 1.147 1.147 0 0 1 .21.33.941.941 0 0 1 0 .76 1.16 1.16 0 0 1-.21.33A.993.993 0 0 1 4 11zm11-1a1.003 1.003 0 0 1 1-1 1.003 1.003 0 0 1 1 1 1.003 1.003 0 0 1-1 1 1.003 1.003 0 0 1-1-1zm-4 0a1.003 1.003 0 0 1 1-1 1.003 1.003 0 0 1 1 1 1.003 1.003 0 0 1-1 1 1.003 1.003 0 0 1-1-1zm-4 0a1.003 1.003 0 0 1 1-1 1.003 1.003 0 0 1 1 1 1.003 1.003 0 0 1-1 1 1.003 1.003 0 0 1-1-1z"/><path class="uim-primary" d="M20 14v7L4 17v-3h16z"/><path class="uim-primary" d="M20 22a.974.974 0 0 1-.242-.03l-16-4A1 1 0 0 1 3 17v-3a1 1 0 0 1 1-1h16a1 1 0 0 1 1 1v7a1 1 0 0 1-1 1ZM5 16.219l14 3.5V15H5Z"/></svg>