<svg xmlns="http://www.w3.org/2000/svg" viewBox="0 0 24 24"><path class="uim-quaternary" d="M12 22a1 1 0 0 1-1-1V3a1 1 0 0 1 2 0v18a1 1 0 0 1-1 1Z"/><path class="uim-primary" d="m21 12-5-5v10l5-5z"/><path class="uim-primary" d="M16 18a1 1 0 0 1-1-1V7a1 1 0 0 1 1.707-.707l5 5a1 1 0 0 1 0 1.414l-5 5A.999.999 0 0 1 16 18Zm1-8.586v5.172L19.586 12Z"/><path class="uim-tertiary" d="M3 13a.99.99 0 0 1-.92-1.38 1.149 1.149 0 0 1 .21-.33 1.047 1.047 0 0 1 1.42 0 1.037 1.037 0 0 1 .21.33A.838.838 0 0 1 4 12a.99.99 0 0 1-1 1zm1.79 2.21a1.008 1.008 0 0 1 0-1.42 1.007 1.007 0 0 1 1.42 0 1.008 1.008 0 0 1 0 1.42 1.027 1.027 0 0 1-.71.29 1.026 1.026 0 0 1-.71-.29zM8 18a.992.992 0 0 1-.71-.29 1.162 1.162 0 0 1-.21-.33A1 1 0 0 1 7 17a1.05 1.05 0 0 1 .29-.71 1.039 1.039 0 0 1 1.09-.21 1.154 1.154 0 0 1 .33.21A1.052 1.052 0 0 1 9 17a1 1 0 0 1-.08.38 1.171 1.171 0 0 1-.21.33A.992.992 0 0 1 8 18zm-1-4.33a.996.996 0 0 1 1-1 .996.996 0 0 1 1 1 1.003 1.003 0 0 1-1 1 1.003 1.003 0 0 1-1-1zm0-3.34a1.003 1.003 0 0 1 1-1 1.003 1.003 0 0 1 1 1 .997.997 0 0 1-1 1 .997.997 0 0 1-1-1zM8 8a.99.99 0 0 1-.92-1.38 1.03 1.03 0 0 1 .21-.33.985.985 0 0 1 1.63.33A.99.99 0 0 1 8 8zm-3.21 2.21a1.008 1.008 0 0 1 0-1.42 1.007 1.007 0 0 1 1.42 0 1.008 1.008 0 0 1 0 1.42 1.027 1.027 0 0 1-.71.29 1.026 1.026 0 0 1-.71-.29z"/></svg>