<svg xmlns="http://www.w3.org/2000/svg" viewBox="0 0 24 24"><path class="uim-tertiary" d="M10 21a.99.99 0 0 1-.71-.29 1.16 1.16 0 0 1-.21-.33A.832.832 0 0 1 9 20a1 1 0 1 1 2 0 .99.99 0 0 1-1 1zm-4.5-1a1.003 1.003 0 0 1 1-1 1.003 1.003 0 0 1 1 1 1.003 1.003 0 0 1-1 1 1.003 1.003 0 0 1-1-1zM3 21a.99.99 0 0 1-.71-.29 1.16 1.16 0 0 1-.21-.33A1 1 0 0 1 2 20a1.048 1.048 0 0 1 .29-.71 1.047 1.047 0 0 1 1.42 0A1.052 1.052 0 0 1 4 20a1 1 0 0 1-.08.38 1.16 1.16 0 0 1-.21.33A.993.993 0 0 1 3 21zm.76-4.03a.998.998 0 0 1-.73-1.21.994.994 0 0 1 1.21-.73.999.999 0 0 1 .73 1.21A.992.992 0 0 1 4 17a.965.965 0 0 1-.24-.03zm.99-4a.992.992 0 0 1-.72-1.21.998.998 0 0 1 1.21-.73.999.999 0 0 1 .73 1.21A1 1 0 0 1 5 13a1.104 1.104 0 0 1-.25-.03zm1.01-4a.998.998 0 0 1-.73-1.21.994.994 0 0 1 1.21-.73.999.999 0 0 1 .73 1.21A.992.992 0 0 1 6 9a.965.965 0 0 1-.24-.03zM7 5a.99.99 0 0 1-1-1 1.048 1.048 0 0 1 .29-.71 1.034 1.034 0 0 1 1.41 0A1.018 1.018 0 0 1 8 4a1.007 1.007 0 0 1-1 1zm3 0a.99.99 0 0 1-1-1 1.048 1.048 0 0 1 .29-.71 1.047 1.047 0 0 1 1.42 0A1.052 1.052 0 0 1 11 4a.99.99 0 0 1-1 1zM9 16a1.003 1.003 0 0 1 1-1 1.003 1.003 0 0 1 1 1 1.003 1.003 0 0 1-1 1 1.003 1.003 0 0 1-1-1zm0-4a1.003 1.003 0 0 1 1-1 1.003 1.003 0 0 1 1 1 1.003 1.003 0 0 1-1 1 1.003 1.003 0 0 1-1-1zm0-4a1.003 1.003 0 0 1 1-1 1.003 1.003 0 0 1 1 1 1.003 1.003 0 0 1-1 1 1.003 1.003 0 0 1-1-1z"/><path class="uim-primary" d="M14 20h7L17 4h-3v16z"/><path class="uim-primary" d="M21 21h-7a1 1 0 0 1-1-1V4a1 1 0 0 1 1-1h3a1 1 0 0 1 .97.758l4 16A1 1 0 0 1 21 21Zm-6-2h4.719l-3.5-14H15Z"/></svg>