<svg xmlns="http://www.w3.org/2000/svg" enable-background="new 0 0 24 24" viewBox="0 0 24 24"><path class="uim-tertiary" d="M8.854 21.57a9.91 9.91 0 0 0 6.29.001.493.493 0 0 1-.644-.475c0-.338.013-1.413.013-2.75a2.368 2.368 0 0 0-.675-1.85c2.225-.25 4.562-1.1 4.562-4.938a3.87 3.87 0 0 0-1.025-2.687 3.594 3.594 0 0 0-.1-2.65s-.838-.275-2.75 1.025a9.427 9.427 0 0 0-5 0C7.612 5.958 6.775 6.22 6.775 6.22a3.593 3.593 0 0 0-.1 2.65 3.892 3.892 0 0 0-1.025 2.687c0 3.825 2.325 4.688 4.55 4.938-.368.354-.594.829-.638 1.337a2.137 2.137 0 0 1-2.91-.82l-.002-.005a2.001 2.001 0 0 0-1.538-1.025c-.837.013-.337.475.013.663.451.38.803.865 1.025 1.412.2.563.85 1.638 3.362 1.175 0 .838.013 1.625.013 1.863 0 .259-.185.551-.67.475z"/><path class="uim-primary" d="M12 2.083c-5.523 0-10 4.477-10 10 0 4.423 2.875 8.169 6.855 9.488.485.075.67-.216.67-.475 0-.238-.012-1.025-.012-1.863-2.513.463-3.163-.612-3.363-1.175a3.637 3.637 0 0 0-1.025-1.412c-.35-.188-.85-.65-.013-.663.65.07 1.223.453 1.538 1.025l.003.006a2.137 2.137 0 0 0 2.91.82c.043-.51.27-.984.637-1.338-2.225-.25-4.55-1.113-4.55-4.938a3.892 3.892 0 0 1 1.025-2.687 3.594 3.594 0 0 1 .1-2.65s.837-.263 2.75 1.025a9.427 9.427 0 0 1 5 0c1.912-1.3 2.75-1.025 2.75-1.025.37.838.406 1.786.1 2.65a3.87 3.87 0 0 1 1.025 2.687c0 3.838-2.338 4.688-4.562 4.938.482.49.729 1.164.675 1.85 0 1.337-.013 2.412-.013 2.75a.493.493 0 0 0 .643.476C19.124 20.253 22 16.507 22 12.083c0-5.523-4.477-10-10-10z"/></svg>