<svg xmlns="http://www.w3.org/2000/svg" enable-background="new 0 0 24 24" viewBox="0 0 24 24"><path class="uim-tertiary" d="M18.223 14.278c-.041.06-.087.116-.136.17l-.004.004a6.36 6.36 0 0 1-.798.796c-2.03 1.876-5.37 4.109-5.81 3.764-.383-.299.63-1.764-.54-2.007a9.241 9.241 0 0 1-.243-.031h-.002c-3.437-.489-6.047-2.893-6.047-5.785 0-3.245 3.285-5.876 7.338-5.876s7.337 2.63 7.337 5.876a5.021 5.021 0 0 1-1.095 3.089z"/><path class="uim-primary" d="M17.907 2H6.093A4.093 4.093 0 0 0 2 6.093v11.814A4.093 4.093 0 0 0 6.093 22h11.814A4.093 4.093 0 0 0 22 17.907V6.093A4.093 4.093 0 0 0 17.907 2zm.316 12.278a1.53 1.53 0 0 1-.136.17l-.004.004a6.364 6.364 0 0 1-.798.796c-2.03 1.876-5.37 4.109-5.81 3.764-.383-.299.631-1.764-.54-2.007a9.284 9.284 0 0 1-.243-.031h-.002c-3.437-.489-6.047-2.893-6.047-5.785 0-3.245 3.285-5.876 7.338-5.876s7.337 2.63 7.337 5.876a5.022 5.022 0 0 1-1.095 3.089z"/><path class="uim-primary" d="M9.203 12.265H8.138V9.842a.384.384 0 0 0-.383-.383h-.032a.384.384 0 0 0-.382.383v2.838c0 .211.171.382.382.383h1.48a.384.384 0 0 0 .383-.383v-.032a.384.384 0 0 0-.383-.383zm4.572-2.806h-.032a.384.384 0 0 0-.382.383v1.666l-1.383-1.855a.383.383 0 0 0-.333-.194h-.032a.384.384 0 0 0-.382.383v2.838c0 .211.171.382.382.383h.032a.384.384 0 0 0 .383-.383v-1.697l1.393 1.903a.401.401 0 0 0 .028.038.32.32 0 0 0 .15.11c.045.019.095.029.144.029h.032a.379.379 0 0 0 .18-.045.27.27 0 0 0 .092-.07.382.382 0 0 0 .111-.268V9.842a.384.384 0 0 0-.383-.383zm-3.498 0h.032c.212 0 .383.171.383.383v2.838a.383.383 0 0 1-.383.383h-.032a.383.383 0 0 1-.382-.383V9.842c0-.212.17-.383.382-.383zm6.234.007h-1.48a.384.384 0 0 0-.383.383v2.838c0 .21.172.382.383.382h1.48a.384.384 0 0 0 .382-.382v-.032a.384.384 0 0 0-.382-.383h-1.066v-.606h1.066a.384.384 0 0 0 .382-.382v-.032a.384.384 0 0 0-.382-.383h-1.066v-.606h1.066a.384.384 0 0 0 .382-.383V9.85a.384.384 0 0 0-.382-.383z"/></svg>