<svg xmlns="http://www.w3.org/2000/svg" viewBox="0 0 24 24"><path class="uim-quaternary" d="M12.6 6.5c.1.1.2.1.4.2.1 0 .3.1.5.2h.1c.2-.3.3-.6.3-.9.1-.6-.4-1.2-1-1.2-.6.1-1 .7-1 1.3v.1c.2 0 .5.1.7.3zm4.5 8c-.3-.2-.6-.2-1-.3-.2-.9-.5-1.7-.9-2.5-.6-1.2-1.1-2.4-1.4-3.7-.2.3-.5.5-.9.6-.1.1-.3.1-.4.2-.3.2-.7.4-1.1.4h-.1c-.4 0-.7-.2-.9-.4-.1-.1-.2-.2-.3-.2-.1 0-.1-.1-.2-.1-.1 1.5-1 3.2-1.5 4.3-.3.8-.5 1.6-.5 2.4-.8-1.2-.2-2.7.1-3.3.4-.8.4-.9.3-.8-.7 1.1-2.1 3.5-.1 4.8 2.1 1.3 2.2 2.6 1 2.5.1.2.3.4.4.5 1.2 1 2.9 1.1 4.2.3 0-.1.1-.3.1-.4.1-.3.2-.7.2-1 .1-1.1.1-2.2.9-2.6.5-.2 1.2-.1 1.6.2.1.1.2.1.3.2.2.1.4.1.5.1h.6c.3-.4-.1-.8-.9-1.2zm-6.9-7.7.1-.1c.2-.3.5-.4.8-.5V6c0-.6-.4-1.1-.8-1.1-.3.1-.6.6-.6 1.2 0 .3.1.6.3.8.1 0 .2-.1.2-.1z"/><path class="uim-quaternary" d="M8.5 17.4s0 .1 0 0c-.1-.1-.1-.3-.2-.4.1.2.1.3.2.4z"/><path class="uim-tertiary" d="M15.4 22h-.2c-.6-.1-1.1-.4-1.3-1-.2-.7-.2-1.5.2-2.2.1-.3.2-.7.2-1 .1-1.1.1-2.2.9-2.6.5-.2 1.2-.1 1.6.2.1.1.2.1.3.2.2.1.4.1.5.1.4-.1.8 0 1.1.3.3.3.4.6.5 1 0 .2.1.5.2.6.5.5.7 1 .6 1.3-.1.5-.6.7-1.1 1-.5.2-1 .5-1.4.9-.5.7-1.3 1.1-2.1 1.2z"/><path class="uim-primary" d="M17.9 15.9c-.4.5-1 .8-1.6.8-.6-.1-.8-.9-.7-1.5.1-.7.7-.7 1.5-.4.8.3 1.1.7.8 1.1zm-5.3-9.3c.1.1.3.1.4.2.2-.2.2-.4.2-.6 0-.4-.2-.7-.4-.7s-.5.3-.5.7v.3c.1.1.2.1.3.1zm-2.2.2.3-.3v-.3c0-.3-.2-.6-.4-.5-.2 0-.3.3-.3.6.1.3.3.5.4.5z"/><path class="uim-primary" d="M17.3 10.8c-.8-1.3-2-2.1-2-3.7 0-1.9.2-5.4-3.3-5.1-3.5.3-2.5 4-2.6 5.3 0 1.1-.5 2.2-1.3 3.1-.1.1-.2.3-.3.4-.9 1.3-1.9 3-1.8 4.6.2-.1.4-.1.5-.1.8.1 1.2.9 1.7 1.8.1.1.1.3.2.4l.6.9.1.1c1.2.1 1.2-1.2-1-2.5-2-1.3-.6-3.7.1-4.8.1-.1.1 0-.3.8-.3.6-.9 2.1-.1 3.2 0-.8.2-1.6.5-2.4.5-1 1.4-2.8 1.5-4.3-.1-.2-.3-.5-.3-.8 0-.2.1-.4.3-.6.1 0 .2-.1.3-.2-.2-.2-.4-.5-.4-.8 0-.6.3-1.1.7-1.1.4 0 .7.4.8 1.1v.2c.2-.1.5-.1.7 0v-.1c-.1-.6.3-1.2 1-1.3.6.1 1.1.6 1 1.2 0 .3-.1.6-.3.9.3.1.5.4.5.7 0 .2-.1.3-.2.5.4 1.3.8 2.5 1.4 3.7.4.8.7 1.6.9 2.5.3 0 .7.1 1 .3.3.2.6.3.8.5.1.1.1.2.2.2 0 0 0 .1.1.1v.3c.1 0 .3.1.4.2.5-2-.5-3.9-1.4-5.2z"/><path class="uim-secondary" d="M11.4 8.5c-.5 0-1-.3-1.4-.7l-.1-.1c-.1 0-.1 0-.1-.1s.1-.1.1-.1c.1 0 .1.1.3.2.3.4.7.6 1.2.6.5-.1 1-.2 1.4-.5.2-.1.4-.2.7-.3.1 0 .1 0 .1.1s0 .1-.1.1c-.2.1-.4.1-.6.3-.5.3-1 .5-1.5.5z"/><path class="uim-tertiary" d="M13.5 6.9c-.2-.1-.3-.1-.5-.2-.1 0-.3-.1-.4-.2-.6-.6-1.7-.5-2.3.2l-.1.1s-.2.2-.4.3c-.2.2-.3.4-.3.6.1.4.3.7.7.9.1.1.2.2.3.2.2.3.6.4.9.4h.1c.4 0 .8-.1 1.1-.4.1-.1.2-.2.4-.2.5-.1 1-.5 1.1-1.1 0-.2-.3-.5-.6-.6zm-.1.8c-.2.1-.4.1-.6.3-.4.3-.9.5-1.5.6-.5 0-1-.3-1.4-.7l-.1-.1c-.1 0-.1 0-.1-.1s.1-.1.1-.1c.1 0 .1.1.3.2.3.4.7.6 1.2.6.5-.1 1-.2 1.4-.5.2-.1.4-.2.7-.3.1-.1.1-.1 0 .1.1-.1.1 0 0 0zm-5 14.1c-.6 0-1.2-.2-1.7-.5-.5-.2-1-.4-1.6-.4-.7-.1-1.2-.1-1.5-.6-.2-.4-.2-1 0-1.4v-.7c-.1-.4-.1-.7.1-1.1.2-.3.5-.6.9-.7.2 0 .4-.1.5-.3.1-.1.2-.2.2-.3.2-.5.8-.8 1.3-.8.9.1 1.4 1.1 1.9 2.2l.6.9c.5.7 1.1 1.3 1 2 0 .5-.3 1-.8 1.2-.2.4-.6.5-.9.5z"/><path class="uim-primary" d="M13.8 19.4c-1.3.7-3 .6-4.2-.4.1.2.2.3.3.5v.1c.1.3.2.5.2.8 0 .2-.1.3-.1.5.5 0 1.1-.2 2-.3.5 0 1.1.1 1.8.2-.1-.5-.1-1 0-1.4z"/></svg>