<svg xmlns="http://www.w3.org/2000/svg" viewBox="0 0 24 24"><path class="uim-primary" d="M21 8H7a1 1 0 0 1 0-2h14a1 1 0 0 1 0 2zm0 5H7a1 1 0 0 1 0-2h14a1 1 0 0 1 0 2zm0 5H7a1 1 0 0 1 0-2h14a1 1 0 0 1 0 2zM3 8a1 1 0 0 1-.38-.08 1.151 1.151 0 0 1-.33-.21 1.162 1.162 0 0 1-.21-.33.946.946 0 0 1 0-.76 1.149 1.149 0 0 1 .21-.33.998.998 0 0 1 1.09-.21 1.034 1.034 0 0 1 .33.21 1.158 1.158 0 0 1 .21.33.941.941 0 0 1 0 .76 1.171 1.171 0 0 1-.21.33A.992.992 0 0 1 3 8zm0 5a1 1 0 0 1-.38-.08 1.151 1.151 0 0 1-.33-.21 1.162 1.162 0 0 1-.21-.33.946.946 0 0 1 0-.76 1.03 1.03 0 0 1 .21-.33 1.151 1.151 0 0 1 .33-.21.999.999 0 0 1 1.09.21 1.037 1.037 0 0 1 .21.33.941.941 0 0 1 0 .76 1.171 1.171 0 0 1-.21.33 1.154 1.154 0 0 1-.33.21A1 1 0 0 1 3 13zm0 5a1 1 0 0 1-.38-.08 1.151 1.151 0 0 1-.33-.21.991.991 0 0 1-.21-1.09 1.03 1.03 0 0 1 .21-.33 1.027 1.027 0 0 1 .33-.21.995.995 0 0 1 .76 0 1.034 1.034 0 0 1 .33.21 1.037 1.037 0 0 1 .21.33.99.99 0 0 1-.21 1.09 1.154 1.154 0 0 1-.33.21A1 1 0 0 1 3 18z"/></svg>