<svg xmlns="http://www.w3.org/2000/svg" data-name="Layer 1" viewBox="0 0 24 24"><path class="uim-tertiary" d="M7 18a1 1 0 0 1 0-2c1.66 0 2.856-2.177 4.124-4.482C12.616 8.805 14.159 6 17 6a1 1 0 0 1 0 2c-1.66 0-2.856 2.177-4.124 4.482C11.384 15.195 9.841 18 7 18Z"/><path class="uim-primary" d="M19 2H5a3.003 3.003 0 0 0-3 3v14a3.003 3.003 0 0 0 3 3h14a3.003 3.003 0 0 0 3-3V5a3.003 3.003 0 0 0-3-3Zm-2 6c-1.66 0-2.856 2.177-4.124 4.482C11.384 15.195 9.841 18 7 18a1 1 0 0 1 0-2c1.66 0 2.856-2.177 4.124-4.482C12.616 8.805 14.159 6 17 6a1 1 0 0 1 0 2Z"/></svg>