<svg xmlns="http://www.w3.org/2000/svg" enable-background="new 0 0 24 24" viewBox="0 0 24 24"><path class="uim-tertiary" d="M4 16a2 2 0 1 1 0-4 2 2 0 0 1 0 4zm0-2.002zM4 6a2 2 0 1 1 0-4 2 2 0 0 1 0 4zm0-2.002zM14 6a2 2 0 1 1 0-4 2 2 0 0 1 0 4zm0-2.002zM14 16a2 2 0 1 1 0-4 2 2 0 0 1 0 4zm0-2.002z"/><path class="uim-primary" d="M10 22a2 2 0 1 1 0-4 2 2 0 0 1 0 4zm0-2.002zM10 12a2 2 0 1 1 0-4 2 2 0 0 1 0 4zm0-2.002zM20 12a2 2 0 1 1 0-4 2 2 0 0 1 0 4zm0-2.002zM20 22a2 2 0 1 1 0-4 2 2 0 0 1 0 4zm0-2.002z"/><path class="uim-quaternary" d="M12.278 5a1.936 1.936 0 0 1 0-2H5.722a1.936 1.936 0 0 1 0 2h6.556zM4 12c.352.002.697.098 1 .278V5.722a1.936 1.936 0 0 1-2 0v6.556c.303-.18.648-.276 1-.278z"/><path class="uim-tertiary" d="M20 18c.352.002.697.098 1 .278v-6.556a1.936 1.936 0 0 1-2 0v6.556c.303-.18.648-.276 1-.278zm-10 0c.352.002.697.098 1 .278v-6.556a1.936 1.936 0 0 1-2 0v6.556c.303-.18.648-.276 1-.278z"/><path class="uim-quaternary" d="M12.278 13H11v2h1.278a1.936 1.936 0 0 1 0-2zM9 15v-2H5.722a1.936 1.936 0 0 1 0 2H9z"/><path class="uim-tertiary" d="M18.278 19h-6.556a1.936 1.936 0 0 1 0 2h6.556a1.936 1.936 0 0 1 0-2zm0-8a1.936 1.936 0 0 1 0-2h-6.556a1.936 1.936 0 0 1 0 2h6.556z"/><path class="uim-quaternary" d="M15 9V5.722a1.936 1.936 0 0 1-2 0V9h2zm-2 2v1.278a1.936 1.936 0 0 1 2 0V11h-2z"/></svg>