<svg xmlns="http://www.w3.org/2000/svg" enable-background="new 0 0 24 24" viewBox="0 0 24 24"><path class="uim-quaternary" d="M13.5 9a1.5 1.5 0 1 1 0-3 1.5 1.5 0 0 1 0 3z"/><path class="uim-tertiary" d="M19 2H5a3.009 3.009 0 0 0-3 3v8.86l3.88-3.88a3.075 3.075 0 0 1 4.24 0l2.871 2.887.888-.888a3.008 3.008 0 0 1 4.242 0L22 15.86V5a3.009 3.009 0 0 0-3-3zm-5.5 7a1.5 1.5 0 1 1 0-3 1.5 1.5 0 0 1 0 3z"/><path class="uim-primary" d="M10.12 9.98a3.075 3.075 0 0 0-4.24 0L2 13.86V19a3.009 3.009 0 0 0 3 3h14c.815 0 1.595-.333 2.16-.92L10.12 9.98z"/><path class="uim-quaternary" d="m22 15.858-3.879-3.879a3.008 3.008 0 0 0-4.242 0l-.888.888 8.165 8.209c.542-.555.845-1.3.844-2.076v-3.142z"/></svg>