<svg xmlns="http://www.w3.org/2000/svg" enable-background="new 0 0 24 24" viewBox="0 0 24 24"><path class="uim-tertiary" d="M19.174 15.652a4.522 4.522 0 0 1-3.079-2.582l-.004-.009a.784.784 0 0 1-.074-.657c.14-.332.607-.48.916-.578.077-.024.15-.048.207-.07.559-.22.672-.45.67-.602a.485.485 0 0 0-.368-.398l-.004-.002a.694.694 0 0 0-.26-.05.552.552 0 0 0-.23.046 1.86 1.86 0 0 1-.7.195.602.602 0 0 1-.387-.13l.023-.389.003-.047c.141-.987.081-1.992-.176-2.955a3.843 3.843 0 0 0-3.568-2.298l-.295.002a3.837 3.837 0 0 0-3.562 2.298 7.388 7.388 0 0 0-.177 2.951l.027.438a.621.621 0 0 1-.428.13 1.796 1.796 0 0 1-.742-.195.42.42 0 0 0-.18-.036.61.61 0 0 0-.593.39c-.06.315.39.544.664.652.057.023.13.046.207.07.309.098.775.246.916.578.073.22.046.46-.075.658l-.004.008c-.202.44-.465.85-.782 1.217a3.818 3.818 0 0 1-2.296 1.365.176.176 0 0 0-.147.183c.002.033.01.065.023.095.129.301.775.55 1.869.718.102.016.145.183.205.456.024.11.048.223.083.34.023.107.124.18.234.167a1.82 1.82 0 0 0 .31-.044c.27-.06.545-.09.821-.093.198 0 .396.017.592.05.413.105.797.3 1.124.574a3.253 3.253 0 0 0 1.97.776c.024 0 .048 0 .072-.003.03.002.07.003.112.003a3.257 3.257 0 0 0 1.97-.776c.327-.273.71-.47 1.123-.574.196-.033.393-.05.592-.05.275.001.55.03.82.087.102.022.207.035.311.04h.017a.204.204 0 0 0 .217-.163c.034-.115.059-.225.083-.337.06-.272.103-.438.205-.454 1.094-.169 1.74-.417 1.868-.716a.28.28 0 0 0 .023-.096.176.176 0 0 0-.146-.183z"/><path class="uim-primary" d="M17.508 2h-11a4.5 4.5 0 0 0-4.5 4.5v11a4.5 4.5 0 0 0 4.5 4.5h11a4.5 4.5 0 0 0 4.5-4.5v-11a4.5 4.5 0 0 0-4.5-4.5zm1.79 13.93c-.129.3-.775.548-1.869.717-.102.016-.146.182-.205.454-.024.112-.05.222-.083.337a.204.204 0 0 1-.217.162h-.017a1.751 1.751 0 0 1-.31-.04 4.094 4.094 0 0 0-.821-.086c-.199 0-.396.017-.592.05-.413.105-.796.3-1.123.574a3.257 3.257 0 0 1-1.97.776c-.042 0-.082-.001-.112-.003a.85.85 0 0 1-.073.003 3.253 3.253 0 0 1-1.97-.776 2.84 2.84 0 0 0-1.123-.574 3.63 3.63 0 0 0-.592-.05c-.276.003-.55.034-.82.093a1.822 1.822 0 0 1-.311.044.214.214 0 0 1-.234-.167 4.753 4.753 0 0 1-.083-.34c-.06-.273-.103-.44-.205-.456-1.094-.168-1.74-.417-1.869-.718a.279.279 0 0 1-.023-.095.176.176 0 0 1 .147-.183 3.818 3.818 0 0 0 2.296-1.365c.317-.367.58-.776.783-1.217l.003-.008a.785.785 0 0 0 .075-.658c-.14-.332-.607-.48-.916-.578-.077-.024-.15-.047-.207-.07-.274-.108-.724-.337-.664-.652a.61.61 0 0 1 .593-.39.42.42 0 0 1 .18.036c.23.118.484.185.742.196a.622.622 0 0 0 .428-.131 47.507 47.507 0 0 0-.027-.438c-.14-.985-.08-1.99.177-2.951a3.837 3.837 0 0 1 3.562-2.298l.295-.002a3.843 3.843 0 0 1 3.568 2.298 7.4 7.4 0 0 1 .176 2.955l-.003.047-.023.389c.11.087.247.133.388.13a1.86 1.86 0 0 0 .7-.195.552.552 0 0 1 .228-.046c.09 0 .178.017.261.05l.004.002a.485.485 0 0 1 .367.398c.003.153-.11.381-.669.602-.057.022-.13.046-.207.07-.31.098-.776.246-.916.578a.784.784 0 0 0 .074.657l.004.009a4.522 4.522 0 0 0 3.079 2.582.176.176 0 0 1 .146.183.281.281 0 0 1-.023.096z"/></svg>