<svg xmlns="http://www.w3.org/2000/svg" enable-background="new 0 0 24 24" viewBox="0 0 24 24"><path class="uim-tertiary" d="M15.174 17.152a.705.705 0 0 1-1.002.352l-2.715-2.11-1.742 1.608a.3.3 0 0 1-.285.039l.334-2.989.01.009.007-.059s4.885-4.448 5.084-4.637c.202-.189.135-.23.135-.23.012-.23-.361 0-.361 0l-6.473 4.164-2.695-.918s-.414-.148-.453-.475c-.041-.324.466-.5.466-.5l10.717-4.258s.881-.392.881.258l-1.908 9.746z"/><path class="uim-primary" d="M11.994 2c-5.523 0-10 4.477-10 10s4.477 10 10 10 10-4.477 10-10-4.477-10-10-10zm3.18 15.152a.705.705 0 0 1-1.002.352l-2.715-2.11-1.742 1.608a.3.3 0 0 1-.285.039l.334-2.989.01.009.007-.059s4.885-4.448 5.084-4.637c.202-.189.135-.23.135-.23.012-.23-.361 0-.361 0l-6.473 4.164-2.695-.918s-.414-.149-.453-.475c-.041-.324.466-.5.466-.5l10.717-4.258s.881-.392.881.258l-1.908 9.746z"/></svg>