<svg xmlns="http://www.w3.org/2000/svg" data-name="Layer 1" viewBox="0 0 24 24"><circle cx="9" cy="15" r="1" class="uim-primary"/><circle cx="15" cy="9" r="1" class="uim-primary"/><path class="uim-quaternary" d="M12 8a1 1 0 0 1-1-1V2a1 1 0 0 1 2 0v5a1 1 0 0 1-1 1zm0 15a1 1 0 0 1-1-1v-5a1 1 0 0 1 2 0v5a1 1 0 0 1-1 1zm10-10h-4a1 1 0 0 1 0-2h4a1 1 0 0 1 0 2z"/><path class="uim-primary" d="m4.98 17.607-.758.757a1 1 0 1 0 1.414 1.414l.758-.757a9.06 9.06 0 0 1-1.415-1.414zM19.02 6.394l.758-.758a1 1 0 0 0-1.414-1.414l-.757.757a9.06 9.06 0 0 1 1.414 1.415z"/><path class="uim-quaternary" d="M6 13H2a1 1 0 0 1 0-2h4a1 1 0 0 1 0 2Z"/><path class="uim-primary" d="M22 23.002a.997.997 0 0 1-.707-.293l-20-20a1 1 0 0 1 1.414-1.414l20 20A1 1 0 0 1 22 23.002Z"/><path class="uim-secondary" d="M15.746 14.334a1.5 1.5 0 0 0-2.08-2.08zM8.252 9.668a1.5 1.5 0 0 0 2.08 2.08z"/><path class="uim-tertiary" d="m17.606 19.022-7.274-7.274a1.5 1.5 0 0 1-2.08-2.08L4.978 6.394A8.943 8.943 0 0 0 3.06 11H6a1 1 0 0 1 0 2H3.059A9.012 9.012 0 0 0 11 20.94V17a1 1 0 0 1 2 0v3.941a8.949 8.949 0 0 0 4.606-1.919zM9 16a1 1 0 1 1 1-1 1 1 0 0 1-1 1zM6.392 4.98l7.274 7.274a1.5 1.5 0 0 1 2.08 2.08l3.275 3.274A8.949 8.949 0 0 0 20.94 13H18a1 1 0 0 1 0-2h2.94A9.012 9.012 0 0 0 13 3.059V7a1 1 0 0 1-2 0V3.06a8.953 8.953 0 0 0-4.608 1.92zM15 8a1 1 0 1 1-1 1 1 1 0 0 1 1-1z"/></svg>