<?xml version="1.0" standalone="no"?>
<!DOCTYPE svg PUBLIC "-//W3C//DTD SVG 1.1//EN" "http://www.w3.org/Graphics/SVG/1.1/DTD/svg11.dtd">
<svg xmlns="http://www.w3.org/2000/svg">
<metadata>IconScout</metadata>
<defs>
<font id="unicons-1" horiz-adv-x="1000" >
<font-face font-family="unicons-1" font-weight="400" font-stretch="normal" units-per-em="1000" ascent="850" descent="-150" />
<missing-glyph horiz-adv-x="1000" />
<glyph glyph-name="wheel-barrow" unicode="&#xe83c;" d="M875 767h-83l-4 0-9 0-6-3-8-5a33 33 0 0 1-5-5 36 36 0 0 1-4-7 30 30 0 0 1-3-7l0-4-29-136h-47l-130 130a128 128 0 0 1-177 0l-130-130h-115a42 42 0 0 1-36-21 42 42 0 0 1 0-41l166-292h0l-32-63a92 92 0 0 1-15 0 125 125 0 1 1 125-125 125 125 0 0 1-35 87l42 83 57 6 164-246a122 122 0 0 1 106-55 133 133 0 0 1 47 9 125 125 0 0 1 78 138l-42 228 75 375h50a42 42 0 0 1 0 84z m-667-750a42 42 0 1 0 42 41 42 42 0 0 0-42-41z m221 654a42 42 0 0 0 59 0l71-71h-201z m-114-360l-118 206h511l-34-170z m367-292a42 42 0 0 0-50 16l-139 208 182 18 33-195a42 42 0 0 0-26-46z" horiz-adv-x="1000" />

<glyph glyph-name="comment-message" unicode="&#xe83d;" d="M500 767a417 417 0 0 1-417-417 412 412 0 0 1 95-264l-84-83a42 42 0 0 1-9-46 42 42 0 0 1 40-24h375a417 417 0 0 1 0 834z m0-750h-275l39 38a42 42 0 0 1 0 59 333 333 0 1 0 236-97z m208 375h-416a42 42 0 0 1 0-84h416a42 42 0 0 1 0 84z m-83-167h-250a42 42 0 0 1 0-83h250a42 42 0 0 1 0 83z m-250 250h250a42 42 0 0 1 0 83h-250a42 42 0 0 1 0-83z" horiz-adv-x="1000" />

<glyph glyph-name="shovel" unicode="&#xe83e;" d="M905 543l-212 212a42 42 0 0 1-59 0 42 42 0 0 1 0-60l74-76-225-227-42 41h0a125 125 0 0 1-177 0l-144-142a125 125 0 0 1-37-89v-144a125 125 0 0 1 125-125h144a125 125 0 0 1 89 37l142 143a125 125 0 0 1 0 177l-41 42 227 226 76-76a42 42 0 0 1 60 0 42 42 0 0 1 0 61z m-380-371l-143-143a42 42 0 0 0-30-12h-144a42 42 0 0 0-41 41v144a42 42 0 0 0 12 30l143 143a42 42 0 0 0 59 0l42-42-38-37a42 42 0 0 1 0-59 42 42 0 0 1 32-12 42 42 0 0 1 29 12l37 37 42-41a42 42 0 0 0 0-61z" horiz-adv-x="1000" />

<glyph glyph-name="keyhole-square" unicode="&#xe83f;" d="M792 767h-584a125 125 0 0 1-125-125v-584a125 125 0 0 1 125-125h584a125 125 0 0 1 125 125v584a125 125 0 0 1-125 125z m41-709a42 42 0 0 0-41-41h-584a42 42 0 0 0-41 41v584a42 42 0 0 0 41 41h584a42 42 0 0 0 41-41z m-333 459a83 83 0 0 1-83-84 83 83 0 0 1 41-71v-137a42 42 0 0 1 84 0v137a83 83 0 0 1 41 71 83 83 0 0 1-83 84z" horiz-adv-x="1000" />

<glyph glyph-name="keyhole-circle" unicode="&#xe840;" d="M500 517a83 83 0 0 1-83-84 83 83 0 0 1 41-71v-137a42 42 0 0 1 84 0v137a83 83 0 0 1 41 71 83 83 0 0 1-83 84z m0 250a417 417 0 1 1 417-417 417 417 0 0 1-417 417z m0-750a333 333 0 1 0 333 333 333 333 0 0 0-333-333z" horiz-adv-x="1000" />

<glyph glyph-name="traffic-barrier" unicode="&#xe841;" d="M875 642h-42v41a42 42 0 0 1-83 0v-41h-500v41a42 42 0 0 1-83 0v-41h-42a42 42 0 0 1-42-42v-250a42 42 0 0 1 42-42h42v-291a42 42 0 0 1 83 0v291h500v-291a42 42 0 0 1 83 0v291h42a42 42 0 0 1 42 42v250a42 42 0 0 1-42 42z m-708-189v105h105z m55-61l167 166h139l-167-166z m257 0l166 166h133l-167-166z m354 0h-104l104 104z" horiz-adv-x="1000" />

<glyph glyph-name="keyhole-square-full" unicode="&#xe842;" d="M458 362v-137a42 42 0 0 1 84 0v137a83 83 0 0 1 41 71 83 83 0 0 1-166 0 83 83 0 0 1 41-71z m417 405h-750a42 42 0 0 1-42-42v-750a42 42 0 0 1 42-42h750a42 42 0 0 1 42 42v750a42 42 0 0 1-42 42z m-42-750h-666v666h666z" horiz-adv-x="1000" />

<glyph glyph-name="wall" unicode="&#xe843;" d="M875 475a42 42 0 0 1 0 83h-42v84h42a42 42 0 0 1 0 83h-750a42 42 0 0 1 0-83h125v-84h-125a42 42 0 0 1 0-83h42v-83h-42a42 42 0 0 1 0-84h125v-83h-125a42 42 0 0 1 0-83h42v-84h-42a42 42 0 0 1 0-83h750a42 42 0 0 1 0 83h-125v84h125a42 42 0 0 1 0 83h-42v83h42a42 42 0 0 1 0 84h-125v83z m-542 167h167v-84h-167z m334-167v-83h-167v83z m-417 0h167v-83h-167z m250-167v-83h-167v83z m-83-250h-167v84h167z m250 0h-167v84h167z m83 167h-167v83h167z m-167 333v84h167v-84z" horiz-adv-x="1000" />

<glyph glyph-name="constructor" unicode="&#xe844;" d="M833 447v7a331 331 0 0 1-233 318l-2 0a347 347 0 0 1-108 15 342 342 0 0 1-323-340 125 125 0 0 1 0-236 333 333 0 0 1 333-299h10a339 339 0 0 1 320 299 125 125 0 0 1 3 236z m-326-451a250 250 0 0 0-253 208h490a254 254 0 0 0-237-208z m285 292h-584a42 42 0 0 0 0 83h84a42 42 0 0 1 0 83h-42a267 267 0 0 0 125 215v-131a42 42 0 0 1 83 0v162a306 306 0 0 0 35 4h7a277 277 0 0 0 42-4v-162a42 42 0 0 1 83 0v132a277 277 0 0 0 49-36 250 250 0 0 0 76-180h-42a42 42 0 0 1 0-83h84a42 42 0 0 0 0-83z" horiz-adv-x="1000" />

<glyph glyph-name="hard-hat" unicode="&#xe845;" d="M833 301v7a333 333 0 0 1-101 240 327 327 0 0 1-132 78l-2 0a343 343 0 0 1-108 16 342 342 0 0 1-323-341 125 125 0 0 1 41-243h584a125 125 0 0 1 41 243z m-41-159h-584a42 42 0 0 0 0 83h84a42 42 0 0 1 0 83h-42a267 267 0 0 0 125 215v-131a42 42 0 0 1 83 0v163a306 306 0 0 0 35 3h7a232 232 0 0 0 42-4v-162a42 42 0 0 1 83 0v132a277 277 0 0 0 49-36 250 250 0 0 0 76-180h-42a42 42 0 0 1 0-83h84a42 42 0 0 0 0-83z" horiz-adv-x="1000" />

<glyph glyph-name="shield-exclamation" unicode="&#xe846;" d="M538 225a23 23 0 0 1-3 7l-5 6a42 42 0 0 1-60 0 25 25 0 0 1-5-6 23 23 0 0 1-3-7 29 29 0 0 1-3-8 51 51 0 0 1 0-8 37 37 0 0 1 3-16 42 42 0 0 1 55-23 50 50 0 0 1 13 10 42 42 0 0 1 9 13 42 42 0 0 1 4 16 51 51 0 0 1 0 8 29 29 0 0 1-5 8z m-38 318a42 42 0 0 1-42-41v-125a42 42 0 0 1 84 0v125a42 42 0 0 1-42 41z m318 155a42 42 0 0 1-35 8 333 333 0 0 0-259 53 42 42 0 0 1-48 0 333 333 0 0 0-259-53 42 42 0 0 1-35-8 42 42 0 0 1-15-33v-310a375 375 0 0 1 157-305l152-109a42 42 0 0 1 48 0l152 109a375 375 0 0 1 157 305v310a42 42 0 0 1-15 33z m-68-343a292 292 0 0 0-122-237l-128-92-128 92a292 292 0 0 0-122 237v263a417 417 0 0 1 250 57 417 417 0 0 1 250-57z" horiz-adv-x="1000" />

<glyph glyph-name="lock-open-alt" unicode="&#xe847;" d="M500 308a62 62 0 0 1-42-108v-58a42 42 0 0 1 84 0v58a62 62 0 0 1-42 108z m208 167h-333v83a125 125 0 0 0 213 89 128 128 0 0 0 33-57 42 42 0 1 1 81 20 212 212 0 0 1-55 96 208 208 0 0 1-355-148v-83a125 125 0 0 1-125-125v-292a125 125 0 0 1 125-125h416a125 125 0 0 1 125 125v292a125 125 0 0 1-125 125z m42-417a42 42 0 0 0-42-41h-416a42 42 0 0 0-42 41v292a42 42 0 0 0 42 42h416a42 42 0 0 0 42-42z" horiz-adv-x="1000" />

<glyph glyph-name="unlock" unicode="&#xe848;" d="M708 475h-333v83a125 125 0 0 0 213 89 128 128 0 0 0 33-57 42 42 0 1 1 81 20 212 212 0 0 1-55 96 208 208 0 0 1-355-148v-83a125 125 0 0 1-125-125v-292a125 125 0 0 1 125-125h416a125 125 0 0 1 125 125v292a125 125 0 0 1-125 125z m42-417a42 42 0 0 0-42-41h-416a42 42 0 0 0-42 41v292a42 42 0 0 0 42 42h416a42 42 0 0 0 42-42z" horiz-adv-x="1000" />

<glyph glyph-name="unlock-alt" unicode="&#xe849;" d="M500 308a42 42 0 0 1-42-41v-125a42 42 0 0 1 84 0v125a42 42 0 0 1-42 41z m208 167h-333v83a125 125 0 0 0 213 89 128 128 0 0 0 33-57 42 42 0 1 1 81 20 212 212 0 0 1-55 96 208 208 0 0 1-355-148v-83a125 125 0 0 1-125-125v-292a125 125 0 0 1 125-125h416a125 125 0 0 1 125 125v292a125 125 0 0 1-125 125z m42-417a42 42 0 0 0-42-41h-416a42 42 0 0 0-42 41v292a42 42 0 0 0 42 42h416a42 42 0 0 0 42-42z" horiz-adv-x="1000" />

<glyph glyph-name="heart-alt" unicode="&#xe84a;" d="M840 658a261 261 0 0 1-340 25 261 261 0 0 1-340-395l310-310a42 42 0 0 1 60 0l310 310a261 261 0 0 1 0 370z m-59-311l-281-281-281 281a178 178 0 0 0 125 304 177 177 0 0 0 125-52 42 42 0 0 1 59 0 178 178 0 0 0 250-252z" horiz-adv-x="1000" />

<glyph glyph-name="octagon" unicode="&#xe84b;" d="M905 535l-220 220a44 44 0 0 1-30 12h-310a44 44 0 0 1-30-12l-220-220a42 42 0 0 1-12-30v-310a42 42 0 0 1 12-30l220-220a44 44 0 0 1 30-12h310a44 44 0 0 1 30 12l220 220a42 42 0 0 1 12 30v310a42 42 0 0 1-12 30z m-72-323l-195-195h-276l-195 195v276l195 195h276l195-195z" horiz-adv-x="1000" />

<glyph glyph-name="lock" unicode="&#xe84c;" d="M708 475v83a208 208 0 0 1-416 0v-83a125 125 0 0 1-125-125v-292a125 125 0 0 1 125-125h416a125 125 0 0 1 125 125v292a125 125 0 0 1-125 125z m-333 83a125 125 0 0 0 250 0v-83h-250z m375-500a42 42 0 0 0-42-41h-416a42 42 0 0 0-42 41v292a42 42 0 0 0 42 42h416a42 42 0 0 0 42-42z" horiz-adv-x="1000" />

<glyph glyph-name="triangle" unicode="&#xe84d;" d="M911 46l-375 649a42 42 0 0 1-72 0l-375-649a42 42 0 0 1 0-41 42 42 0 0 1 36-21h750a42 42 0 0 1 36 21 42 42 0 0 1 0 41z m-714 21l303 524 303-524z" horiz-adv-x="1000" />

<glyph glyph-name="star" unicode="&#xe84e;" d="M917 447a42 42 0 0 1-36 28l-237 35-106 215a42 42 0 0 1-75 0l-107-215-237-35a42 42 0 0 1-34-28 42 42 0 0 1 11-42l172-167-42-236a42 42 0 0 1 17-42 42 42 0 0 1 44-3l213 111 213-111a39 39 0 0 1 19-5 42 42 0 0 1 24 8 42 42 0 0 1 17 41l-42 237 172 167a42 42 0 0 1 14 42z m-257-167a42 42 0 0 1-12-37l30-174-156 83a42 42 0 0 1-40 0l-156-83 30 174a42 42 0 0 1-12 37l-125 125 175 26a42 42 0 0 1 32 23l74 159 78-160a42 42 0 0 1 32-23l175-25z" horiz-adv-x="1000" />

<glyph glyph-name="shield-slash" unicode="&#xe84f;" d="M905 5l-667 666h0l-83 84a42 42 0 0 1-60-60l72-70v-270a375 375 0 0 1 157-305l152-109a42 42 0 0 1 48 0l152 109a342 342 0 0 1 36 29l133-134a42 42 0 0 1 60 0 42 42 0 0 1 0 60z m-277 113l-128-92-128 92a292 292 0 0 0-122 237v186l403-403c-8-7-16-14-25-20z m-208 521a423 423 0 0 1 80 36 409 409 0 0 1 250-57v-263a287 287 0 0 0-4-49 42 42 0 0 1 34-48h7a42 42 0 0 1 42 35 407 407 0 0 1 5 62v310a42 42 0 0 1-16 33 42 42 0 0 1-34 8 329 329 0 0 0-260 53 42 42 0 0 1-47 0 333 333 0 0 0-84-41 42 42 0 1 1 27-80z" horiz-adv-x="1000" />

<glyph glyph-name="lock-access" unicode="&#xe850;" d="M875 767h-250a42 42 0 0 1 0-84h208v-208a42 42 0 0 1 84 0v250a42 42 0 0 1-42 42z m0-500a42 42 0 0 1-42-42v-208h-208a42 42 0 0 1 0-84h250a42 42 0 0 1 42 42v250a42 42 0 0 1-42 42z m-375 333a125 125 0 0 1-125-125v-42a83 83 0 0 1-83-83v-167a83 83 0 0 1 83-83h250a83 83 0 0 1 83 83v167a83 83 0 0 1-83 83v42a125 125 0 0 1-125 125z m-42-125a42 42 0 0 0 84 0v-42h-84z m167-292h-250v167h250z m-500 250a42 42 0 0 1 42 42v208h208a42 42 0 0 1 0 84h-250a42 42 0 0 1-42-42v-250a42 42 0 0 1 42-42z m250-416h-208v208a42 42 0 0 1-84 0v-250a42 42 0 0 1 42-42h250a42 42 0 0 1 0 84z" horiz-adv-x="1000" />

<glyph glyph-name="pentagon" unicode="&#xe851;" d="M900 468l-375 272a42 42 0 0 1-50 0l-375-272a42 42 0 0 1-15-47l144-441a42 42 0 0 1 41-28h462a42 42 0 0 1 41 28l144 441a42 42 0 0 1-17 47z m-198-433h-404l-125 383 327 237 326-237z" horiz-adv-x="1000" />

<glyph glyph-name="shield-check" unicode="&#xe852;" d="M818 698a42 42 0 0 1-35 8 333 333 0 0 0-259 53 42 42 0 0 1-48 0 333 333 0 0 0-259-53 42 42 0 0 1-35-8 42 42 0 0 1-15-33v-310a375 375 0 0 1 157-305l152-109a42 42 0 0 1 48 0l152 109a375 375 0 0 1 157 305v310a42 42 0 0 1-15 33z m-68-343a292 292 0 0 0-122-237l-128-92-128 92a292 292 0 0 0-122 237v263a417 417 0 0 1 250 57 417 417 0 0 1 250-57z m-186 95l-112-112-37 37a42 42 0 0 1-59-59l67-66a42 42 0 0 1 59 0l143 142a42 42 0 0 1-59 59z" horiz-adv-x="1000" />

<glyph glyph-name="square" unicode="&#xe853;" d="M875 767h-750a42 42 0 0 1-42-42v-750a42 42 0 0 1 42-42h750a42 42 0 0 1 42 42v750a42 42 0 0 1-42 42z m-42-750h-666v666h666z" horiz-adv-x="1000" />

<glyph glyph-name="shield-question" unicode="&#xe854;" d="M470 239a42 42 0 0 1-12-29 42 42 0 0 1 4-16 42 42 0 0 1 80 16 42 42 0 0 1-12 29 42 42 0 0 1-60 0z m348 459a42 42 0 0 1-35 8 333 333 0 0 0-259 53 42 42 0 0 1-48 0 333 333 0 0 0-259-53 42 42 0 0 1-35-8 42 42 0 0 1-15-33v-310a375 375 0 0 1 157-305l152-109a42 42 0 0 1 48 0l152 109a375 375 0 0 1 157 305v310a42 42 0 0 1-15 33z m-68-343a292 292 0 0 0-122-237l-128-92-128 92a292 292 0 0 0-122 237v263a417 417 0 0 1 250 57 417 417 0 0 1 250-57z m-250 188a125 125 0 0 1-108-62 42 42 0 0 1 72-42 42 42 0 1 0 36-62 42 42 0 0 1 0-84 125 125 0 1 1 0 250z" horiz-adv-x="1000" />

<glyph glyph-name="padlock" unicode="&#xe855;" d="M500 308a62 62 0 0 1-42-108v-58a42 42 0 0 1 84 0v58a62 62 0 0 1-42 108z m208 167v83a208 208 0 0 1-416 0v-83a125 125 0 0 1-125-125v-292a125 125 0 0 1 125-125h416a125 125 0 0 1 125 125v292a125 125 0 0 1-125 125z m-333 83a125 125 0 0 0 250 0v-83h-250z m375-500a42 42 0 0 0-42-41h-416a42 42 0 0 0-42 41v292a42 42 0 0 0 42 42h416a42 42 0 0 0 42-42z" horiz-adv-x="1000" />

<glyph glyph-name="wheelchair" unicode="&#xe856;" d="M500 579a83 83 0 1 1-83 84 83 83 0 0 1 83-84z m313-583h-42v208a42 42 0 0 1-42 42h-208v83h208a42 42 0 0 1 0 84h-208v83a42 42 0 0 1-83 0v-292a42 42 0 0 1 41-41h209v-209a42 42 0 0 1 41-41h84a42 42 0 0 1 0 83z m-284 67a167 167 0 0 0-300 100 167 167 0 0 0 100 152 42 42 0 1 1-33 77 250 250 0 1 1 300-379 42 42 0 0 1-67 50z" horiz-adv-x="1000" />

<glyph glyph-name="lock-alt" unicode="&#xe857;" d="M500 308a42 42 0 0 1-42-41v-125a42 42 0 0 1 84 0v125a42 42 0 0 1-42 41z m208 167v83a208 208 0 0 1-416 0v-83a125 125 0 0 1-125-125v-292a125 125 0 0 1 125-125h416a125 125 0 0 1 125 125v292a125 125 0 0 1-125 125z m-333 83a125 125 0 0 0 250 0v-83h-250z m375-500a42 42 0 0 0-42-41h-416a42 42 0 0 0-42 41v292a42 42 0 0 0 42 42h416a42 42 0 0 0 42-42z" horiz-adv-x="1000" />

<glyph glyph-name="polygon" unicode="&#xe858;" d="M911 371l-187 324a42 42 0 0 1-36 21h-375a42 42 0 0 1-37-21l-187-324a42 42 0 0 1 0-42l187-324a42 42 0 0 1 37-21h375a42 42 0 0 1 36 21l187 324a42 42 0 0 1 0 42z m-250-304h-324l-164 283 164 283h326l164-283z" horiz-adv-x="1000" />

<glyph glyph-name="circle" unicode="&#xe859;" d="M500 767a417 417 0 1 1 417-417 417 417 0 0 1-417 417z m0-750a333 333 0 1 0 333 333 333 333 0 0 0-333-333z" horiz-adv-x="1000" />

<glyph glyph-name="copyright" unicode="&#xe85a;" d="M458 475h84a42 42 0 0 0 41-42 42 42 0 0 1 84 0 125 125 0 0 1-125 125h-84a125 125 0 0 1-125-125v-166a125 125 0 0 1 125-125h84a125 125 0 0 1 125 125 42 42 0 0 1-84 0 42 42 0 0 0-41-42h-84a42 42 0 0 0-41 42v166a42 42 0 0 0 41 42z m42 292a417 417 0 1 1 417-417 417 417 0 0 1-417 417z m0-750a333 333 0 1 0 333 333 333 333 0 0 0-333-333z" horiz-adv-x="1000" />

<glyph glyph-name="closed-captioning" unicode="&#xe85b;" d="M468 303a42 42 0 0 1-57-15 42 42 0 0 0-66-8 39 39 0 0 0-12 28v84a42 42 0 0 0 79 20 42 42 0 0 1 57-14 42 42 0 0 1 14 57 128 128 0 0 1-19 25 125 125 0 0 1-89 37 125 125 0 0 1-125-125v-84a125 125 0 0 1 233-62 42 42 0 0 1-15 57z m250 0a42 42 0 0 1-57-15 42 42 0 0 0-66-8 39 39 0 0 0-12 28v84a42 42 0 0 0 79 20 42 42 0 0 1 57-14 42 42 0 0 1 14 57 128 128 0 0 1-19 25 125 125 0 0 1-89 37 125 125 0 0 1-125-125v-84a125 125 0 0 1 233-62 42 42 0 0 1-15 57z m-218 464a417 417 0 1 1 417-417 417 417 0 0 1-417 417z m0-750a333 333 0 1 0 333 333 333 333 0 0 0-333-333z" horiz-adv-x="1000" />

<glyph glyph-name="trademark" unicode="&#xe85c;" d="M396 558h-250a42 42 0 0 1 0-83h83v-292a42 42 0 0 1 83 0v292h84a42 42 0 0 1 0 83z m497-25a42 42 0 0 1-23 22 42 42 0 0 1-32 0 42 42 0 0 1-13-9l-117-116-116 116a42 42 0 0 1-14 9 42 42 0 0 1-31 0 42 42 0 0 1-23-22 42 42 0 0 1-3-16v-334a42 42 0 0 1 83 0v233l75-75a42 42 0 0 1 59 0l75 75v-233a42 42 0 0 1 83 0v334a42 42 0 0 1-3 16z" horiz-adv-x="1000" />

<glyph glyph-name="heart" unicode="&#xe85d;" d="M840 642a262 262 0 0 1-340 26 261 261 0 0 1-340-395l259-259a116 116 0 0 1 162 0l259 259a261 261 0 0 1 0 369z m-59-311l-258-259a32 32 0 0 0-45 0l-259 260a179 179 0 0 0 0 250 178 178 0 0 0 250 0 42 42 0 0 1 59 0 178 178 0 0 0 250 0 179 179 0 0 0 3-250z" horiz-adv-x="1000" />

<glyph glyph-name="parking-circle" unicode="&#xe85e;" d="M542 558h-125a42 42 0 0 1-42-41v-334a42 42 0 0 1 83 0v84h84a125 125 0 0 1 125 125v41a125 125 0 0 1-125 125z m41-166a42 42 0 0 0-41-42h-84v125h84a42 42 0 0 0 41-42z m-83 375a417 417 0 1 1 417-417 417 417 0 0 1-417 417z m0-750a333 333 0 1 0 333 333 333 333 0 0 0-333-333z" horiz-adv-x="1000" />

<glyph glyph-name="mars" unicode="&#xe85f;" d="M851 678a42 42 0 0 1-23 23 42 42 0 0 1-15 3h-167a42 42 0 0 1 0-83h66l-100-100a292 292 0 1 1 59-59l100 100v-66a42 42 0 0 1 83 0v167a42 42 0 0 1-3 15z m-268-536a208 208 0 1 0 0 291h0a208 208 0 0 0 0-291z" horiz-adv-x="1000" />

<glyph glyph-name="sad-squint" unicode="&#xe860;" d="M378 341l63 63a42 42 0 0 1 0 59l-63 62a42 42 0 0 1-59-59l33-33-33-33a42 42 0 0 1 0-59 42 42 0 0 1 30-12 42 42 0 0 1 29 12z m-30-130a42 42 0 0 1-5-58 42 42 0 0 1 59-5 157 157 0 0 0 196 0 42 42 0 0 1 59 5 42 42 0 0 1-5 58 242 242 0 0 1-304 0z m343 314a42 42 0 0 1-59 0l-63-62a42 42 0 0 1 0-59l63-63a42 42 0 0 1 29-12 42 42 0 0 1 30 12 42 42 0 0 1 0 59l-33 33 33 33a42 42 0 0 1 0 59z m-191 242a417 417 0 1 1 417-417 417 417 0 0 1-417 417z m0-750a333 333 0 1 0 333 333 333 333 0 0 0-333-333z" horiz-adv-x="1000" />

<glyph glyph-name="registered" unicode="&#xe861;" d="M500 767a417 417 0 1 1 417-417 417 417 0 0 1-417 417z m0-750a333 333 0 1 0 333 333 333 333 0 0 0-333-333z m21 541h-125a42 42 0 0 1-42-41v-334a42 42 0 0 1 84 0v84h83a42 42 0 0 0 42-42v-42a42 42 0 0 1 83 0v42a125 125 0 0 1-33 83 125 125 0 0 1 33 84v41a125 125 0 0 1-125 125z m42-166a42 42 0 0 0-42-42h-83v125h83a42 42 0 0 0 42-42z" horiz-adv-x="1000" />

<glyph glyph-name="nerd" unicode="&#xe862;" d="M892 490s0 0 0 2a417 417 0 0 1-782 3 35 35 0 0 1-4-10 411 411 0 0 1-23-135 417 417 0 1 1 809 140z m-392 193a333 333 0 0 0 288-166h-50a125 125 0 0 1-192-9 132 132 0 0 1-46 9 132 132 0 0 1-46-9 125 125 0 0 1-192 9h-50a333 333 0 0 0 288 166z m188-250a42 42 0 1 0-42 42 42 42 0 0 0 42-42z m-292 0a42 42 0 1 0-42 42 42 42 0 0 0 42-42z m104-416a333 333 0 0 0-333 333 343 343 0 0 0 11 83h51a125 125 0 0 1 250-7 42 42 0 0 0 42 0 125 125 0 0 1 250 7h51a343 343 0 0 0 11-83 333 333 0 0 0-333-333z m98 240a157 157 0 0 0-196 0 42 42 0 0 1-54-64 237 237 0 0 1 304 0 42 42 0 1 1-54 64z" horiz-adv-x="1000" />

<glyph glyph-name="smile" unicode="&#xe863;" d="M598 257a157 157 0 0 0-196 0 42 42 0 0 1-54-64 237 237 0 0 1 304 0 42 42 0 1 1-54 64z m-223 135a42 42 0 1 1-42 41 42 42 0 0 1 42-41z m250 83a42 42 0 1 1 42-42 42 42 0 0 1-42 42z m-125 292a417 417 0 1 1 417-417 417 417 0 0 1-417 417z m0-750a333 333 0 1 0 333 333 333 333 0 0 0-333-333z" horiz-adv-x="1000" />

<glyph glyph-name="meh-alt" unicode="&#xe864;" d="M375 392h42a42 42 0 0 1 0 83h-42a42 42 0 0 1 0-83z m250-125h-250a42 42 0 0 1 0-84h250a42 42 0 0 1 0 84z m0 208h-42a42 42 0 0 1 0-83h42a42 42 0 0 1 0 83z m-125 292a417 417 0 1 1 417-417 417 417 0 0 1-417 417z m0-750a333 333 0 1 0 333 333 333 333 0 0 0-333-333z" horiz-adv-x="1000" />

<glyph glyph-name="annoyed" unicode="&#xe865;" d="M375 475a42 42 0 1 1 42-42 42 42 0 0 1-42 42z m250-167a208 208 0 0 1-182-107 42 42 0 0 1 15-56 42 42 0 0 1 21-6 42 42 0 0 1 36 21 125 125 0 0 0 110 65 42 42 0 0 1 0 83z m0 167a42 42 0 1 1 42-42 42 42 0 0 1-42 42z m-125 292a417 417 0 1 1 417-417 417 417 0 0 1-417 417z m0-750a333 333 0 1 0 333 333 333 333 0 0 0-333-333z" horiz-adv-x="1000" />

<glyph glyph-name="sad-dizzy" unicode="&#xe866;" d="M375 362l12 13 12-13a42 42 0 0 1 59 0 42 42 0 0 1 0 59l-12 12 12 12a42 42 0 0 1-61 60l-12-13-10 13a42 42 0 1 1-61-60l13-12-13-12a42 42 0 0 1 0-59 42 42 0 0 1 59 0z m-25-151a42 42 0 0 1-5-58 42 42 0 0 1 58-5 157 157 0 0 0 197 0 42 42 0 0 1 59 5 42 42 0 0 1-6 58 242 242 0 0 1-305 0z m150 556a417 417 0 1 1 417-417 417 417 0 0 1-417 417z m0-750a333 333 0 1 0 333 333 333 333 0 0 0-333-333z m208 488a42 42 0 0 1-59 0l-12-13-12 13a42 42 0 0 1-59-60l12-12-12-12a42 42 0 0 1 0-59 42 42 0 0 1 59 0l12 13 12-13a42 42 0 0 1 59 0 42 42 0 0 1 0 59l-12 12 12 12a42 42 0 0 1 0 60z" horiz-adv-x="1000" />

<glyph glyph-name="sad" unicode="&#xe867;" d="M348 211a42 42 0 0 1-5-58 42 42 0 0 1 59-5 157 157 0 0 0 196 0 42 42 0 0 1 27-10 42 42 0 0 1 27 73 242 242 0 0 1-304 0z m36 200a42 42 0 0 1 59 0 42 42 0 0 1 0 59 128 128 0 0 1-177 0 42 42 0 1 1 59-59 42 42 0 0 0 59 0z m116 356a417 417 0 1 1 417-417 417 417 0 0 1-417 417z m0-750a333 333 0 1 0 333 333 333 333 0 0 0-333-333z m234 453a128 128 0 0 1-176 0 42 42 0 0 1 58-59 42 42 0 0 0 59 0 42 42 0 0 1 59 0 42 42 0 0 1 0 59z" horiz-adv-x="1000" />

<glyph glyph-name="servicemark" unicode="&#xe868;" d="M229 475h167a42 42 0 0 1 0 83h-167a125 125 0 0 1 0-250h84a42 42 0 0 0 0-83h-167a42 42 0 0 1 0-83h167a125 125 0 0 1 0 250h-84a42 42 0 0 0 0 83z m664 58a42 42 0 0 1-23 22 42 42 0 0 1-32 0 42 42 0 0 1-13-9l-117-116-116 116a42 42 0 0 1-14 9 42 42 0 0 1-31 0 42 42 0 0 1-23-22 42 42 0 0 1-3-16v-334a42 42 0 0 1 83 0v233l75-75a42 42 0 0 1 59 0l75 75v-233a42 42 0 0 1 83 0v334a42 42 0 0 1-3 16z" horiz-adv-x="1000" />

<glyph glyph-name="closed-captioning-slash" unicode="&#xe869;" d="M500 767a417 417 0 1 1 417-417 417 417 0 0 1-417 417z m0-750a333 333 0 0 0-333 333 330 330 0 0 0 70 204l63-63a125 125 0 0 1-50-99v-84a125 125 0 0 1 233-62 42 42 0 1 1-72 42 42 42 0 0 0-66-8 39 39 0 0 0-12 28v84a42 42 0 0 0 28 38l139-141a125 125 0 0 1 106-106l98-98a330 330 0 0 0-204-68z m263 129l-63 63a122 122 0 0 1 33 37 42 42 0 1 1-72 41 42 42 0 0 0-23-17l-55 55v67a42 42 0 0 0 79 20 42 42 0 0 1 57-14 42 42 0 0 1 14 57 128 128 0 0 1-19 25 125 125 0 0 1-214-72l-15 14a42 42 0 0 1-4 33 128 128 0 0 1-19 25 122 122 0 0 1-69 35l-97 98a330 330 0 0 0 204 70 333 333 0 0 0 333-333 330 330 0 0 0-70-204z" horiz-adv-x="1000" />

<glyph glyph-name="venus" unicode="&#xe86a;" d="M792 475a292 292 0 1 1-334-288v-87h-41a42 42 0 0 1 0-83h41v-42a42 42 0 0 1 84 0v42h41a42 42 0 0 1 0 83h-41v87a292 292 0 0 1 250 288z m-292-208a208 208 0 1 0 208 208 208 208 0 0 0-208-208z" horiz-adv-x="1000" />

<glyph glyph-name="creative-commons-pd" unicode="&#xe86b;" d="M500 767a417 417 0 1 1 417-417 417 417 0 0 1-417 417z m0-750a333 333 0 0 0-333 333 330 330 0 0 0 70 204l98-99a128 128 0 0 1-2-22v-166a125 125 0 0 1 125-125h84a125 125 0 0 1 78 28l84-83a330 330 0 0 0-204-70z m-83 250v108l144-145a38 38 0 0 0-19-5h-84a42 42 0 0 0-41 42z m346-121l-96 99a128 128 0 0 1 0 22 42 42 0 0 1-42 41 38 38 0 0 1-19-5l-167 167a38 38 0 0 0 19 5h84a42 42 0 0 0 41-42 42 42 0 0 1 84 0 125 125 0 0 1-125 125h-84a125 125 0 0 1-78-28l-84 83a330 330 0 0 0 204 70 333 333 0 0 0 333-333 330 330 0 0 0-70-204z" horiz-adv-x="1000" />

<glyph glyph-name="frown" unicode="&#xe86c;" d="M348 211a42 42 0 0 1-5-58 42 42 0 0 1 59-5 157 157 0 0 0 196 0 42 42 0 0 1 59 5 42 42 0 0 1-5 58 242 242 0 0 1-304 0z m27 181a42 42 0 1 1-42 41 42 42 0 0 1 42-41z m125 375a417 417 0 1 1 417-417 417 417 0 0 1-417 417z m0-750a333 333 0 1 0 333 333 333 333 0 0 0-333-333z m125 458a42 42 0 1 1 42-42 42 42 0 0 1-42 42z" horiz-adv-x="1000" />

<glyph glyph-name="accessible-icon-alt" unicode="&#xe86d;" d="M667 558a83 83 0 1 1-84 84 83 83 0 0 1 84-84z m-138-475a167 167 0 1 0-152 267 42 42 0 1 1-9 83 250 250 0 0 1 28-500 250 250 0 0 1 200 100 42 42 0 0 1-67 50z m284-66h-42v208a42 42 0 0 1-42 42h-190l70 194s0 3 0 4l0 9a46 46 0 0 1 0 7 44 44 0 0 1 0 8 58 58 0 0 1-4 7 30 30 0 0 1-4 6 27 27 0 0 1-6 6s0 2-4 3l-186 108-5 0a44 44 0 0 1-8 2h-17a33 33 0 0 1-8-3l-5 0-112-65a42 42 0 0 1 20-78 42 42 0 0 1 22 5l93 55 135-79-79-217a37 37 0 0 1 0-6 24 24 0 0 1 0-8l0 0a125 125 0 0 1 3-16l5-6a24 24 0 0 1 4-7 28 28 0 0 1 6-3 51 51 0 0 1 8-5h0a42 42 0 0 1 14-3h209v-208a42 42 0 0 1 41-42h84a42 42 0 0 1 0 83z" horiz-adv-x="1000" />

<glyph glyph-name="squint" unicode="&#xe86e;" d="M625 267h-250a42 42 0 0 1 0-84h250a42 42 0 0 1 0 84z m-247 74l63 63a42 42 0 0 1 0 59l-63 62a42 42 0 0 1-59-59l33-33-33-33a42 42 0 0 1 0-59 42 42 0 0 1 30-12 42 42 0 0 1 29 12z m122 426a417 417 0 1 1 417-417 417 417 0 0 1-417 417z m0-750a333 333 0 1 0 333 333 333 333 0 0 0-333-333z m191 508a42 42 0 0 1-59 0l-63-62a42 42 0 0 1 0-59l63-63a42 42 0 0 1 29-12 42 42 0 0 1 30 12 42 42 0 0 1 0 59l-33 33 33 33a42 42 0 0 1 0 59z" horiz-adv-x="1000" />

<glyph glyph-name="meh" unicode="&#xe86f;" d="M375 392a42 42 0 1 1-42 41 42 42 0 0 1 42-41z m250-125h-250a42 42 0 0 1 0-84h250a42 42 0 0 1 0 84z m0 208a42 42 0 1 1 42-42 42 42 0 0 1-42 42z m-125 292a417 417 0 1 1 417-417 417 417 0 0 1-417 417z m0-750a333 333 0 1 0 333 333 333 333 0 0 0-333-333z" horiz-adv-x="1000" />

<glyph glyph-name="silence" unicode="&#xe870;" d="M375 392a42 42 0 1 1-42 41 42 42 0 0 1 42-41z m250 0a42 42 0 1 1-42 41 42 42 0 0 1 42-41z m42-125a42 42 0 0 1-84 0h-41a42 42 0 0 1-84 0h-41a42 42 0 0 1-84 0 42 42 0 0 1 0-84 42 42 0 0 1 84 0h41a42 42 0 0 1 84 0h41a42 42 0 0 1 84 0 42 42 0 0 1 0 84z m-167 500a417 417 0 1 1 417-417 417 417 0 0 1-417 417z m0-750a333 333 0 1 0 333 333 333 333 0 0 0-333-333z" horiz-adv-x="1000" />

<glyph glyph-name="dizzy-meh" unicode="&#xe871;" d="M375 362l12 13 12-13a42 42 0 0 1 59 0 42 42 0 0 1 0 59l-12 12 12 12a42 42 0 0 1-61 60l-12-13-10 13a42 42 0 1 1-61-60l13-12-13-12a42 42 0 0 1 0-59 42 42 0 0 1 59 0z m250-95h-250a42 42 0 0 1 0-84h250a42 42 0 0 1 0 84z m-125 500a417 417 0 1 1 417-417 417 417 0 0 1-417 417z m0-750a333 333 0 1 0 333 333 333 333 0 0 0-333-333z m208 488a42 42 0 0 1-59 0l-12-13-12 13a42 42 0 0 1-59-60l12-12-12-12a42 42 0 0 1 0-59 42 42 0 0 1 59 0l12 13 12-13a42 42 0 0 1 59 0 42 42 0 0 1 0 59l-12 12 12 12a42 42 0 0 1 0 60z" horiz-adv-x="1000" />

<glyph glyph-name="parking-square" unicode="&#xe872;" d="M500 600h-125a42 42 0 0 1-42-42v-416a42 42 0 0 1 84 0v125h83a167 167 0 0 1 0 333z m0-250h-83v167h83a83 83 0 0 0 0-167z m292 417h-584a125 125 0 0 1-125-125v-584a125 125 0 0 1 125-125h584a125 125 0 0 1 125 125v584a125 125 0 0 1-125 125z m41-709a42 42 0 0 0-41-41h-584a42 42 0 0 0-41 41v584a42 42 0 0 0 41 41h584a42 42 0 0 0 41-41z" horiz-adv-x="1000" />

<glyph glyph-name="shield" unicode="&#xe873;" d="M818 698a42 42 0 0 1-35 8 333 333 0 0 0-259 53 42 42 0 0 1-48 0 333 333 0 0 0-259-53 42 42 0 0 1-35-8 42 42 0 0 1-15-33v-310a375 375 0 0 1 157-305l152-109a42 42 0 0 1 48 0l152 109a375 375 0 0 1 157 305v310a42 42 0 0 1-15 33z m-68-343a292 292 0 0 0-122-237l-128-92-128 92a292 292 0 0 0-122 237v263a417 417 0 0 1 250 57 417 417 0 0 1 250-57z" horiz-adv-x="1000" />

<glyph glyph-name="smile-dizzy" unicode="&#xe874;" d="M598 257a157 157 0 0 0-196 0 42 42 0 0 1-54-64 237 237 0 0 1 304 0 42 42 0 1 1-54 64z m-223 105l12 13 12-13a42 42 0 0 1 59 0 42 42 0 0 1 0 59l-12 12 12 12a42 42 0 0 1-61 60l-12-13-10 13a42 42 0 1 1-61-60l13-12-13-12a42 42 0 0 1 0-59 42 42 0 0 1 59 0z m125 405a417 417 0 1 1 417-417 417 417 0 0 1-417 417z m0-750a333 333 0 1 0 333 333 333 333 0 0 0-333-333z m208 488a42 42 0 0 1-59 0l-12-13-12 13a42 42 0 0 1-59-60l12-12-12-12a42 42 0 0 1 0-59 42 42 0 0 1 59 0l12 13 12-13a42 42 0 0 1 59 0 42 42 0 0 1 0 59l-12 12 12 12a42 42 0 0 1 0 60z" horiz-adv-x="1000" />

<glyph glyph-name="ninja" unicode="&#xe875;" d="M810 628l-2 2a417 417 0 0 1-615 0l-3-2a417 417 0 1 1 727-278 414 414 0 0 1-107 278z m-310 55a328 328 0 0 0 161-41h-322a328 328 0 0 0 161 41z m-260-125h520a333 333 0 0 0 70-166h-660a333 333 0 0 0 70 166z m260-541a333 333 0 0 0-330 291h660a333 333 0 0 0-330-291z m-167 500a42 42 0 1 1 42-42 42 42 0 0 1-42 42z m250 0a42 42 0 1 1 42-42 42 42 0 0 1-42 42z m-125-414a42 42 0 0 1 21-5 42 42 0 0 1 36 21 125 125 0 0 0 110 64 42 42 0 0 1 0 84 208 208 0 0 1-182-107 42 42 0 0 1 15-57z" horiz-adv-x="1000" />

<glyph glyph-name="smile-beam" unicode="&#xe876;" d="M598 257a157 157 0 0 0-196 0 42 42 0 0 1-54-64 237 237 0 0 1 304 0 42 42 0 1 1-54 64z m-214 154a42 42 0 0 1 59 0 42 42 0 0 1 0 59 128 128 0 0 1-177 0 42 42 0 1 1 59-59 42 42 0 0 0 59 0z m350 59a128 128 0 0 1-176 0 42 42 0 0 1 58-59 42 42 0 0 0 59 0 42 42 0 0 1 59 0 42 42 0 0 1 0 59z m-234 297a417 417 0 1 1 417-417 417 417 0 0 1-417 417z m0-750a333 333 0 1 0 333 333 333 333 0 0 0-333-333z" horiz-adv-x="1000" />

<glyph glyph-name="laughing" unicode="&#xe877;" d="M590 341a42 42 0 0 1 30-12 42 42 0 0 1 29 12 42 42 0 0 1 0 59l-33 33 33 33a42 42 0 1 1-59 59l-63-62a42 42 0 0 1 0-59z m-212 0l63 63a42 42 0 0 1 0 59l-63 62a42 42 0 0 1-59-59l33-33-33-33a42 42 0 0 1 0-59 42 42 0 0 1 30-12 42 42 0 0 1 29 12z m220-83a157 157 0 0 0-196 0 42 42 0 0 1-54-64 237 237 0 0 1 304 0 42 42 0 1 1-54 64z m-98 509a417 417 0 1 1 417-417 417 417 0 0 1-417 417z m0-750a333 333 0 1 0 333 333 333 333 0 0 0-333-333z" horiz-adv-x="1000" />
</font>
</defs>
</svg>
