<?xml version="1.0" standalone="no"?>
<!DOCTYPE svg PUBLIC "-//W3C//DTD SVG 1.1//EN" "http://www.w3.org/Graphics/SVG/1.1/DTD/svg11.dtd">
<svg xmlns="http://www.w3.org/2000/svg">
<metadata>IconScout</metadata>
<defs>
<font id="unicons-19" horiz-adv-x="1000" >
<font-face font-family="unicons-19" font-weight="400" font-stretch="normal" units-per-em="1000" ascent="850" descent="-150" />
<missing-glyph horiz-adv-x="1000" />
<glyph glyph-name="android-alt" unicode="&#xec7a;" d="M125 475a42 42 0 0 1-42-42v-166a42 42 0 0 1 83 0v166a42 42 0 0 1-41 42z m750 0a42 42 0 0 1-42-42v-166a42 42 0 0 1 83 0v166a42 42 0 0 1-41 42z m-173 229a42 42 0 1 1-72 42l-25-44a247 247 0 0 1-210 0l-26 44a42 42 0 1 1-72-42l29-50a249 249 0 0 1-76-179v-333a42 42 0 0 1 41-42h84v-125a42 42 0 0 1 83 0v125h83v-125a42 42 0 0 1 84 0v125h83a42 42 0 0 1 42 42v333a249 249 0 0 1-76 179z m-36-521h-333v209h333z m-333 292a167 167 0 0 0 333 0z" horiz-adv-x="1000" />

<glyph glyph-name="shield-plus" unicode="&#xec7b;" d="M583 392h-41v41a42 42 0 0 1-84 0v-41h-41a42 42 0 0 1 0-84h41v-41a42 42 0 0 1 84 0v41h41a42 42 0 0 1 0 84z m235 306a42 42 0 0 1-35 8 333 333 0 0 0-259 53 42 42 0 0 1-48 0 332 332 0 0 0-259-53 42 42 0 0 1-50-40v-311a376 376 0 0 1 157-305l152-109a42 42 0 0 1 48 0l152 109a376 376 0 0 1 157 305v311a42 42 0 0 1-15 32z m-68-343a292 292 0 0 0-122-237l-128-92-128 92a292 292 0 0 0-122 237v262a415 415 0 0 1 250 58 415 415 0 0 1 250-58z" horiz-adv-x="1000" />

<glyph glyph-name="user-md" unicode="&#xec7c;" d="M662 299l0 0c-2 1-5 2-8 3a250 250 0 0 1 96 197 220 220 0 0 1-2 26 39 39 0 0 1 2 5l11 100a125 125 0 0 1-101 137l-33 6a705 705 0 0 1-254 0l-33-6a125 125 0 0 1-101-137l11-100a39 39 0 0 1 2-5 220 220 0 0 1-2-26 250 250 0 0 1 96-197c-3-1-6-2-8-3l0 0a415 415 0 0 1-252-338 42 42 0 0 1 83-9 331 331 0 0 0 176 258l126-126a42 42 0 0 1 58 0l126 126a331 331 0 0 0 176-258 42 42 0 0 1 41-37 44 44 0 0 1 5 0 42 42 0 0 1 37 46 415 415 0 0 1-252 338z m-341 341a42 42 0 0 0 34 45l33 6a622 622 0 0 0 224 0l33-6a42 42 0 0 0 34-45l-8-64h-342z m179-468l-69 69a327 327 0 0 0 138 0z m0 160a167 167 0 0 0-167 161h334a167 167 0 0 0-167-161z" horiz-adv-x="1000" />

<glyph glyph-name="transaction" unicode="&#xec7d;" d="M833 767h-416a125 125 0 0 1-125-125v-292a125 125 0 0 1 125-125h416a125 125 0 0 1 125 125v292a125 125 0 0 1-125 125z m42-417a42 42 0 0 0-42-42h-416a42 42 0 0 0-42 42v292a42 42 0 0 0 42 41h416a42 42 0 0 0 42-41z m-146 167a62 62 0 0 1-42-17 63 63 0 1 1 0-92 63 63 0 1 1 42 109z m-62-375a42 42 0 0 1-42-42v-42a42 42 0 0 0-42-41h-416a42 42 0 0 0-42 41v167h42a42 42 0 0 1 0 83h-42v42a42 42 0 0 0 42 42 42 42 0 0 1 0 83 125 125 0 0 1-125-125v-292a125 125 0 0 1 125-125h416a125 125 0 0 1 125 125v42a42 42 0 0 1-41 42z m-417-42h42a42 42 0 0 1 0 83h-42a42 42 0 0 1 0-83z" horiz-adv-x="1000" />

<glyph glyph-name="store-slash" unicode="&#xec7e;" d="M362 683h401l70-173a83 83 0 0 0-166 7 42 42 0 0 1-84 0 76 76 0 0 0-5-30 42 42 0 0 1 22-54 39 39 0 0 1 8-2 166 166 0 0 1 142-81v-54a42 42 0 0 1 83 0v77a166 166 0 0 1 84 142c0 0 0 1 0 1l0 1a40 40 0 0 1-2 7 40 40 0 0 1-1 8l-84 208a42 42 0 0 1-38 27h-430a42 42 0 1 1 0-84z m584-720l-122 122a39 39 0 0 1-6 6l-415 415a41 41 0 0 1-9 9l-178 178a40 40 0 0 1-5 5l-98 98a42 42 0 0 1-59-59l82-82-49-122-1-1a40 40 0 0 1-1-8 39 39 0 0 1-2-7l0-1 1-1a166 166 0 0 1 83-142v-398a42 42 0 0 1 41-42h584a41 41 0 0 1 38 28l57-57a42 42 0 0 1 59 59z m-779 547l33 81 120-119a82 82 0 0 0-70-39 83 83 0 0 0-83 77z m208-285v-208h-125v333a165 165 0 0 1 129 62l145-145h-107a42 42 0 0 1-42-42z m167-208h-84v166h84z m208 0h-125v149l125-125z" horiz-adv-x="1000" />

<glyph glyph-name="code-branch" unicode="&#xec7f;" d="M708 598a125 125 0 0 1-48-241 83 83 0 0 0-77-51h-166a163 163 0 0 1-84-23v239a125 125 0 1 1-83 0v-349a125 125 0 1 1 90-2 83 83 0 0 0 77 52h166a167 167 0 0 1 163 131 125 125 0 0 1-38 244z m-416 83a42 42 0 1 0-42-42 42 42 0 0 0 42 42z m0-667a42 42 0 1 0 41 42 42 42 0 0 0-41-42z m416 417a42 42 0 1 0 42 42 42 42 0 0 0-42-42z" horiz-adv-x="1000" />

<glyph glyph-name="google-drive-alt" unicode="&#xec80;" d="M917 248a26 26 0 0 1 0 6 25 25 0 0 0 0 5l-2 5h0l-250 429a42 42 0 0 1-40 20h-250a42 42 0 0 1-21-5l-4-4a30 30 0 0 1-4-3 24 24 0 0 1-4-5s0 0-3-3h0l-250-431a42 42 0 0 1 0-42l125-211h0a35 35 0 0 1 5-6l0-3a46 46 0 0 1 18-11h0a35 35 0 0 1 9 0h504a42 42 0 0 1 36 21l125 214h0l2 5a25 25 0 0 0 0 5 22 22 0 0 1 0 5 21 21 0 0 1 0 6 25 25 0 0 1 4 3z m-667-137l-75 129 200 349 36-63 42-69-161-270z m250 264l53-90h-106z m226-305h-405l77 131h405z m-77 215l-201 345h153l202-345z" horiz-adv-x="1000" />

<glyph glyph-name="envelope-block" unicode="&#xec81;" d="M729 298a208 208 0 1 1-146 61 208 208 0 0 1 146-61z m89 120a125 125 0 0 0-142-25l167 167a125 125 0 0 0-25-142z m-177 176a125 125 0 0 0 88 37 125 125 0 0 0 54-13l-167-166a125 125 0 0 0 25 142z m213-338a42 42 0 0 1-41-42v-166a42 42 0 0 0-42-42h-583a42 42 0 0 0-42 42v399l245-245a125 125 0 0 1 88-37 125 125 0 0 1 90 38 42 42 0 0 1 0 58 42 42 0 0 1-60 0 42 42 0 0 0-58 0l-246 245h191a42 42 0 0 1 0 83h-208a125 125 0 0 1-125-125v-416a125 125 0 0 1 125-126h583a125 125 0 0 1 125 126v166a42 42 0 0 1-42 42z" horiz-adv-x="1000" />

<glyph glyph-name="mailbox-alt" unicode="&#xec82;" d="M458 308h84a42 42 0 0 1 0 84h-84a42 42 0 0 1 0-84z m334-291h-42v458h42a42 42 0 0 1 0 83h-46a250 250 0 0 1-492 0h-46a42 42 0 0 1 0-83h42v-458h-42a42 42 0 0 1 0-84h584a42 42 0 0 1 0 84z m-292 666a167 167 0 0 0 161-125h-322a167 167 0 0 0 161 125z m167-666h-334v83h334z m0 166h-334v292h334z" horiz-adv-x="1000" />

<glyph glyph-name="signout" unicode="&#xec83;" d="M167 350a42 42 0 0 1 41-42h317l-96-95a42 42 0 0 1 0-59 42 42 0 0 1 59 0l167 166a42 42 0 0 1 8 14 42 42 0 0 1 0 32 42 42 0 0 1-8 14l-167 166a42 42 0 1 1-59-59l96-95h-317a42 42 0 0 1-41-42z m541 417h-416a125 125 0 0 1-125-125v-125a42 42 0 0 1 83 0v125a42 42 0 0 0 42 41h416a42 42 0 0 0 42-41v-584a42 42 0 0 0-42-41h-416a42 42 0 0 0-42 41v125a42 42 0 0 1-83 0v-125a125 125 0 0 1 125-125h416a125 125 0 0 1 125 125v584a125 125 0 0 1-125 125z" horiz-adv-x="1000" />

<glyph glyph-name="slider-h" unicode="&#xec84;" d="M875 392h-133a124 124 0 0 1-234 0h-383a42 42 0 0 1 0-84h383a124 124 0 0 1 234 0h133a42 42 0 0 1 0 84z m-250-84a42 42 0 1 0 42 42 42 42 0 0 0-42-42z" horiz-adv-x="1000" />

<glyph glyph-name="lira-sign" unicode="&#xec85;" d="M750 350a42 42 0 0 1-42-42 292 292 0 0 0-291-291v369l217 48a42 42 0 0 1-18 82l-199-45v82l217 48a42 42 0 1 1-18 81l-199-44v87a42 42 0 0 1-84 0v-105l-92-21a42 42 0 1 1 18-81l74 16v-81l-92-21a42 42 0 1 1 18-81l74 17v-393a42 42 0 0 1 42-42h42a375 375 0 0 1 375 375 42 42 0 0 1-42 42z" horiz-adv-x="1000" />

<glyph glyph-name="slider-h-range" unicode="&#xec86;" d="M875 392h-49a124 124 0 0 1-235 0h-182a124 124 0 0 1-235 0h-49a42 42 0 0 1 0-84h49a124 124 0 0 1 235 0h182a124 124 0 0 1 235 0h49a42 42 0 0 1 0 84z m-583-84a42 42 0 1 0 41 42 42 42 0 0 0-41-42z m416 0a42 42 0 1 0 42 42 42 42 0 0 0-42-42z" horiz-adv-x="1000" />

<glyph glyph-name="file-graph" unicode="&#xec87;" d="M375 433h42a42 42 0 0 1 0 84h-42a42 42 0 0 1 0-84z m217-99l-70-90-36 33a42 42 0 0 1-60-5l-84-104a42 42 0 1 1 66-52l55 69 37-33a42 42 0 0 1 61 6l97 125a42 42 0 0 1-66 51z m241 144a42 42 0 0 1-12 26l0 0-250 250 0 1a41 41 0 0 1-12 8c-1 0-2 0-4 1a41 41 0 0 1-11 2c-1 0-1 1-2 1h-250a125 125 0 0 1-125-125v-584a125 125 0 0 1 125-125h416a125 125 0 0 1 125 125v417c0 1 0 2 0 3z m-250 146l108-107h-66a42 42 0 0 0-42 41z m167-566a42 42 0 0 0-42-41h-416a42 42 0 0 0-42 41v584a42 42 0 0 0 42 41h208v-125a125 125 0 0 1 125-125h125z" horiz-adv-x="1000" />

<glyph glyph-name="wordpress-simple" unicode="&#xec88;" d="M500 767a417 417 0 1 1 417-417 417 417 0 0 1-417 417z m-375-417a373 373 0 0 0 33 152l179-489a375 375 0 0 0-212 337z m375-375a374 374 0 0 0-106 16l113 326 115-315a35 35 0 0 1 2-5 374 374 0 0 0-124-22z m52 551c22 1 43 3 43 3a15 15 0 0 1-3 31s-61-5-100-5c-37 0-98 5-98 5a15 15 0 0 1-3-31s19-2 40-3l58-160-82-246-137 406c23 1 43 3 43 3a15 15 0 0 1-2 31s-61-5-100-5c-7 0-15 0-24 1a375 375 0 0 0 566 70c-2 0-3 1-5 1a65 65 0 0 1-63-67 175 175 0 0 1 37-88 197 197 0 0 0 31-103 453 453 0 0 0-29-121l-37-125z m136-500l115 331a354 354 0 0 1 28 134 288 288 0 0 1-2 39 375 375 0 0 0-141-504z" horiz-adv-x="1000" />

<glyph glyph-name="bing" unicode="&#xec89;" d="M421 492l71-179 116-55-233-137v587l-167 59v-742l167-92 417 242v188l-371 129z" horiz-adv-x="1000" />

<glyph glyph-name="wordpress" unicode="&#xec8a;" d="M153 350c0-133 76-254 195-312l-165 453c-20-44-30-92-30-141z m353-30l-104-303c70-21 145-19 213 5-1 2-1 4-2 5l-107 293z m228 48c0 33-10 67-28 95-19 24-31 52-34 82-1 33 25 60 58 61 2 0 3 0 4 0-141 130-360 120-490-21-13-14-24-29-34-44 8-1 16-1 22-1 37 0 93 5 93 5 8 0 14-6 15-14 0-7-5-14-13-15 0 0-19-2-40-3l127-376 76 228-54 148c-19 1-37 3-37 3-8 1-13 8-13 16 1 7 8 13 15 13 0 0 58-5 92-5 36 0 92 5 92 5 8 0 15-6 16-14 0-7-6-14-13-15 0 0-19-2-40-3l125-373 36 113c14 37 23 75 25 115z m73 113c-1-43-10-85-26-124l-106-307c162 95 220 301 130 467 1-12 2-24 2-36z m-307 286c-230 0-417-187-417-417s187-417 417-417 417 187 417 417-187 417-417 417z m152-778c-121-52-261-38-371 36-63 43-112 103-142 173-52 121-38 261 36 371 43 63 103 112 173 142 121 51 261 38 371-36 63-43 112-103 142-173 52-121 38-261-36-371-43-63-103-112-173-142z" horiz-adv-x="1000" />

<glyph glyph-name="html5" unicode="&#xec8b;" d="M133 767l66-750 301-84 300 84 67 750z m589-246h-352l8-94h336l-26-282-188-52v0l0-1-189 53-13 144h93l6-73 103-28 0 0v0l102 28 11 119h-319l-25 278h461z" horiz-adv-x="1000" />

<glyph glyph-name="programming-language" unicode="&#xec8c;" d="M917 725l-125-629-379-125-330 125 34 171h141l-16-71 200-75 229 75 33 158h-571l30 142h566l21 87h-571l29 142h709z" horiz-adv-x="1000" />

<glyph glyph-name="css3-simple" unicode="&#xec8d;" d="M865 710a42 42 0 0 1-32 15h-583a42 42 0 0 1 0-83h533l-33-167h-542a42 42 0 0 1 0-83h526l-48-248-264-84-225 71 8 45a42 42 0 0 1-82 15l-15-81a42 42 0 0 1 28-47l274-86a42 42 0 0 1 25 0l299 95a42 42 0 0 1 29 31l111 572a42 42 0 0 1-9 35z" horiz-adv-x="1000" />

<glyph glyph-name="html5-alt" unicode="&#xec8e;" d="M894 753a42 42 0 0 1-30 14h-728a42 42 0 0 1-41-46l63-708a42 42 0 0 1 30-36l300-84a42 42 0 0 1 12-1 42 42 0 0 1 11 1l301 84a42 42 0 0 1 30 36l63 708a42 42 0 0 1-11 32z m-133-704l-261-72-261 72-57 634h636z m-435 259h287l-14-136-107-38-131 47a42 42 0 1 1-28-79l145-52a42 42 0 0 1 29 0l145 52a42 42 0 0 1 28 36l21 208a42 42 0 0 1-42 46h-295l-13 125h329a42 42 0 0 1 0 83h-375a42 42 0 0 1-41-46l20-208a42 42 0 0 1 42-38z" horiz-adv-x="1000" />

<glyph glyph-name="discord" unicode="&#xec8f;" d="M422 407h0a44 44 0 1 1 0 0z m157 0a48 48 0 1 1 44-47 46 46 0 0 1-44 47z m208 360h-574a88 88 0 0 1-88-89v-579a88 88 0 0 1 88-88h486l-23 79 55-51 52-48 92-81v768a88 88 0 0 1-88 89z m-165-560v0s-16 18-29 35a135 135 0 0 1 78 51 245 245 0 0 0-49-26 282 282 0 0 0-62-18 300 300 0 0 0-111 0 360 360 0 0 0-63 19 252 252 0 0 0-32 14c-1 1-2 2-4 3a6 6 0 0 0-1 1c-8 4-12 7-12 7a133 133 0 0 1 75-50c-13-17-29-36-29-36a155 155 0 0 0-131 65 574 574 0 0 0 62 250 212 212 0 0 0 120 45l5-5a289 289 0 0 1-113-56s9 5 25 12a322 322 0 0 0 98 27 42 42 0 0 0 7 1 363 363 0 0 0 86 1 349 349 0 0 0 129-41 285 285 0 0 1-106 54l6 7a212 212 0 0 0 120-45 574 574 0 0 0 62-250 157 157 0 0 0-131-65z" horiz-adv-x="1000" />

<glyph glyph-name="draggabledots" unicode="&#xec90;" d="M354 433a83 83 0 1 1 83-83 83 83 0 0 1-83 83z m0-291a83 83 0 1 1 83-84 83 83 0 0 1-83 84z m292 416a83 83 0 1 1-84 84 83 83 0 0 1 84-84z m-292 167a83 83 0 1 1 83-83 83 83 0 0 1-83 83z m292-583a83 83 0 1 1 83-84 83 83 0 0 1-83 84z m0 291a83 83 0 1 1 83-83 83 83 0 0 1-83 83z" horiz-adv-x="1000" />

<glyph glyph-name="font" unicode="&#xec91;" d="M875 17h-42v708a42 42 0 0 1-41 42h-146a42 42 0 0 1-36-21l-425-729h-60a42 42 0 0 1 0-84h167a42 42 0 0 1 0 84h-11l146 250h323v-250h-42a42 42 0 0 1 0-84h167a42 42 0 0 1 0 84z m-125 333h-275l195 333h80z" horiz-adv-x="1000" />

<glyph glyph-name="video-question" unicode="&#xec92;" d="M425 130a44 44 0 0 1-59 0 43 43 0 0 1-8-14 39 39 0 0 1 0-32 48 48 0 0 1 8-14 42 42 0 0 1 72 30 42 42 0 0 1-4 16 48 48 0 0 1-9 14z m-29 345a125 125 0 0 1-108-62 42 42 0 1 1 72-42 42 42 0 1 0 36-63 42 42 0 0 1-42-41v-42a42 42 0 0 1 83 0v8a125 125 0 0 1-41 242z m501 119a42 42 0 0 1-41 2l-148-75a125 125 0 0 1-125 121h-375a125 125 0 0 1-125-125v-250a125 125 0 0 1 125-125h42a42 42 0 0 1 0 83h-42a42 42 0 0 0-41 42v250a42 42 0 0 0 41 41h375a42 42 0 0 0 42-41v-250a42 42 0 0 0-42-42h-21a42 42 0 0 1 0-83h21a125 125 0 0 1 125 120l148-74a42 42 0 0 1 61 37v333a42 42 0 0 1-20 36z m-64-302l-125 63v73l125 63z" horiz-adv-x="1000" />

<glyph glyph-name="headphone-slash" unicode="&#xec93;" d="M795 603a414 414 0 0 1-392 111 42 42 0 0 1 19-81 334 334 0 0 0 411-325h-14a42 42 0 0 1 0-83h14v-14a42 42 0 1 1 84 0v97a412 412 0 0 1-122 295z m-641 151a42 42 0 0 1-58-58l101-102a415 415 0 0 1-114-286v-291a42 42 0 0 1 42-42h125a125 125 0 0 1 125 125v83a125 125 0 0 1-125 125h-83a332 332 0 0 0 89 227l369-369v-66a125 125 0 0 1 125-125h66l30-29a42 42 0 0 1 58 58z m96-529a42 42 0 0 0 42-42v-83a42 42 0 0 0-42-42h-83v167z" horiz-adv-x="1000" />

<glyph glyph-name="info" unicode="&#xec94;" d="M500 433a42 42 0 0 1-42-41v-250a42 42 0 0 1 84 0v250a42 42 0 0 1-42 41z m0 167a52 52 0 1 1 52-52 52 52 0 0 1-52 52z" horiz-adv-x="1000" />

<glyph glyph-name="letter-chinese-a" unicode="&#xec95;" d="M833 642h-291v41a42 42 0 0 1-84 0v-41h-291a42 42 0 0 1 0-84h495a604 604 0 0 0-164-331 601 601 0 0 0-137 220 42 42 0 0 1-79-27 684 684 0 0 1 154-249 596 596 0 0 0-241-114 42 42 0 0 1 9-82 42 42 0 0 1 9 1 679 679 0 0 1 285 138 683 683 0 0 1 285-138 42 42 0 0 1 18 81 599 599 0 0 0-242 114 687 687 0 0 1 187 387h87a42 42 0 0 1 0 84z" horiz-adv-x="1000" />

<glyph glyph-name="letter-hindi-a" unicode="&#xec96;" d="M834 725h-208a42 42 0 0 1 0-83h62v-250h-206a206 206 0 0 1 43 125 208 208 0 0 1-389 104 42 42 0 1 1 72-42 125 125 0 1 0 109-187 42 42 0 0 1 0-84 125 125 0 1 0-109-187 42 42 0 0 1-72-42 208 208 0 0 1 389 104 206 206 0 0 1-43 125h206v-291a42 42 0 0 1 84 0v625h62a42 42 0 0 1 0 83z" horiz-adv-x="1000" />

<glyph glyph-name="english-to-chinese" unicode="&#xec97;" d="M584 558h42a42 42 0 0 0 42-41v-42a42 42 0 0 1 83 0v42a125 125 0 0 1-125 125h-42a42 42 0 0 1 0-84z m-166-375h-42a42 42 0 0 0-42 42v42a42 42 0 0 1-83 0v-42a125 125 0 0 1 125-125h42a42 42 0 0 1 0 83z m458 42a42 42 0 0 1 0 83h-125v21a42 42 0 0 1-83 0v-21h-125a42 42 0 0 1 0-83h216a280 280 0 0 0-51-105 278 278 0 0 0-27 41 42 42 0 1 1-74-38 362 362 0 0 1 40-62 276 276 0 0 0-101-45 42 42 0 0 1 18-82 360 360 0 0 1 143 68 363 363 0 0 1 145-68 42 42 0 1 1 18 82 280 280 0 0 0-102 45 364 364 0 0 1 75 164z m-499 157a42 42 0 0 1 81 20l-73 293a95 95 0 0 1-185 0l-73-293a42 42 0 0 1 81-20l23 93h123z m-125 176l29 116a12 12 0 0 0 23 0l29-116z" horiz-adv-x="1000" />

<glyph glyph-name="question" unicode="&#xec98;" d="M639 454a146 146 0 0 1-272 73 42 42 0 0 1 72-42 63 63 0 0 0 54 32 63 63 0 1 0 0-125h0a40 40 0 0 1-8-2 43 43 0 0 1-8-2 41 41 0 0 1-7-4 42 42 0 0 1-6-5 42 42 0 0 1-5-7 41 41 0 0 1-4-6 43 43 0 0 1-2-9 40 40 0 0 1-2-7v-42l0 0 0-21a42 42 0 0 1 42-41h0a42 42 0 0 1 42 42l0 27a146 146 0 0 1 104 139z m-175-283a42 42 0 0 1 29-71 43 43 0 0 1 30 12 42 42 0 0 1 0 59 43 43 0 0 1-59 0z" horiz-adv-x="1000" />

<glyph glyph-name="letter-english-a" unicode="&#xec99;" d="M790 27l-150 603a125 125 0 0 1-122 95h-36a125 125 0 0 1-122-95l-150-603a42 42 0 0 1 80-20l55 218h310l55-218a42 42 0 0 1 80 20z m-424 281l75 302a42 42 0 0 0 41 32h36a42 42 0 0 0 41-32l75-302z" horiz-adv-x="1000" />

<glyph glyph-name="hindi-to-chinese" unicode="&#xec9a;" d="M459 767h-83a42 42 0 0 1 0-84v-83h-49a124 124 0 0 1 7 42 125 125 0 0 1-233 62 42 42 0 1 1 72-41 42 42 0 0 0 36 20 42 42 0 0 0 0-83 42 42 0 0 1 0-83 42 42 0 0 0 0-84 42 42 0 0 0-36 21 42 42 0 1 1-72-41 125 125 0 0 1 233 62 124 124 0 0 1-7 42h49v-125a42 42 0 0 1 83 0v291a42 42 0 0 1 0 84z m125-209h42a42 42 0 0 0 42-41v-42a42 42 0 0 1 83 0v42a125 125 0 0 1-125 125h-42a42 42 0 0 1 0-84z m-166-375h-42a42 42 0 0 0-42 42v42a42 42 0 0 1-83 0v-42a125 125 0 0 1 125-125h42a42 42 0 0 1 0 83z m458 42a42 42 0 0 1 0 83h-125v21a42 42 0 0 1-83 0v-21h-125a42 42 0 0 1 0-83h216a280 280 0 0 0-51-105 278 278 0 0 0-27 41 42 42 0 1 1-74-38 362 362 0 0 1 40-62 276 276 0 0 0-101-45 42 42 0 0 1 18-82 360 360 0 0 1 143 68 363 363 0 0 1 145-68 42 42 0 1 1 18 82 280 280 0 0 0-102 45 364 364 0 0 1 75 164z" horiz-adv-x="1000" />

<glyph glyph-name="inbox" unicode="&#xec9b;" d="M794 767h-583a125 125 0 0 1-125-125v-584a125 125 0 0 1 125-125h583a125 125 0 0 1 125 125v584a125 125 0 0 1-125 125z m-583-84h583a42 42 0 0 0 42-41v-334h-103a83 83 0 0 1-69-37l-59-88h-205l-59 88a83 83 0 0 1-69 37h-103v334a42 42 0 0 0 42 41z m583-666h-583a42 42 0 0 0-42 41v167h103l58-88a83 83 0 0 1 70-37h205a83 83 0 0 1 69 37l59 88h103v-167a42 42 0 0 0-42-41z" horiz-adv-x="1000" />

<glyph glyph-name="letter-japanese-a" unicode="&#xec9c;" d="M853 350a203 203 0 0 1-167 92 233 233 0 0 1-5 43 42 42 0 1 1-81-20 148 148 0 0 0 3-25 566 566 0 0 1-135-34c0 50 3 100 8 150l1 16a1393 1393 0 0 1 145 28l5 1a42 42 0 1 1-20 81l-5-1c-38-10-77-17-116-23l6 63a42 42 0 0 1-83 8l-8-81c-39-4-78-6-117-6a42 42 0 0 1 0-84c36 0 73 2 109 5a1944 1944 0 0 1-9-196c-5-3-11-6-17-9a684 684 0 0 1-81-54l-1-1a572 572 0 0 1-110-113 125 125 0 0 1 123-196 406 406 0 0 1 118 42 41 41 0 0 1 76 29c-1 6-2 12-3 18a577 577 0 0 1 55 49 549 549 0 0 1 88 113c1 2 2 4 2 5 5 9 10 18 14 27 3 4 5 9 7 14 2 5 4 11 7 17 2 6 4 12 6 17 2 4 3 8 4 12 2 7 4 14 6 21l0 1a126 126 0 0 0 103-51c42-73-40-207-184-298a42 42 0 1 1 44-70c188 118 279 294 212 410z m-570-274a42 42 0 0 0-41 65 496 496 0 0 0 96 97l1 1c15 12 31 22 48 33 2-50 7-99 13-149a341 341 0 0 0-117-47z m306 274a340 340 0 0 0-14-33c-2-4-5-9-7-14q-6-12-13-24c-4-5-7-11-11-17a478 478 0 0 0-59-72c-3-2-6-5-9-8q-6 67-8 134a521 521 0 0 0 122 38c0-1-1-3-1-4z" horiz-adv-x="1000" />

<glyph glyph-name="exclamation" unicode="&#xec9d;" d="M500 267a42 42 0 0 1 42 41v250a42 42 0 0 1-84 0v-250a42 42 0 0 1 42-41z m0-167a52 52 0 1 1-52 52 52 52 0 0 1 52-52z" horiz-adv-x="1000" />

<glyph glyph-name="language" unicode="&#xec9e;" d="M877 350h-83a42 42 0 0 1 0-83v-84h-49a124 124 0 0 1 7 42 125 125 0 0 1-233 62 42 42 0 1 1 72-41 42 42 0 0 0 36 21 42 42 0 0 0 0-84 42 42 0 0 1 0-83 42 42 0 1 0 0-83 42 42 0 0 0-36 20 42 42 0 1 1-72-41 125 125 0 0 1 233 62 124 124 0 0 1-7 42h49v-125a42 42 0 0 1 83 0v292a42 42 0 1 1 0 83z m-498 32a42 42 0 1 1 80 20l-73 293a95 95 0 0 1-184 0l-73-293a42 42 0 1 1 80-20l24 93h122z m-125 176l29 116a12 12 0 0 0 22 0l29-116z m332 0h41a42 42 0 0 0 42-41v-42a42 42 0 0 1 83 0v42a125 125 0 0 1-125 125h-41a42 42 0 0 1 0-84z m-167-375h-42a42 42 0 0 0-41 42v42a42 42 0 0 1-84 0v-42a125 125 0 0 1 125-125h42a42 42 0 0 1 0 83z" horiz-adv-x="1000" />

<glyph glyph-name="backspace" unicode="&#xec9f;" d="M792 642h-382a125 125 0 0 1-89-37l-226-225a42 42 0 0 1 0-60l226-225a125 125 0 0 1 89-37h382a125 125 0 0 1 125 125v334a125 125 0 0 1-125 125z m41-459a42 42 0 0 0-41-41h-382a44 44 0 0 0-30 12l-196 196 196 196a44 44 0 0 0 30 12h382a42 42 0 0 0 41-41z m-137 280a42 42 0 0 1-59 0l-54-54-53 54a42 42 0 0 1-60-59l55-54-55-54a42 42 0 0 1 0-59 42 42 0 0 1 60 0l53 54 54-54a42 42 0 0 1 59 0 42 42 0 0 1 0 59l-54 54 54 54a42 42 0 0 1 0 59z" horiz-adv-x="1000" />

<glyph glyph-name="window-grid" unicode="&#xeca0;" d="M875 767h-750a42 42 0 0 1-42-42v-750a42 42 0 0 1 42-42h750a42 42 0 0 1 42 42v750a42 42 0 0 1-42 42z m-542-750h-166v666h166z m500 0h-416v291h416z m0 375h-416v291h416z" horiz-adv-x="1000" />

<glyph glyph-name="cloud-sun" unicode="&#xeca1;" d="M875 475h-33a177 177 0 0 1-22 53l23 23a42 42 0 0 1-58 59l-24-23a177 177 0 0 1-53 21v34a42 42 0 0 1-83 0v-34a171 171 0 0 1-53-21l-23 23a42 42 0 0 1-59-59l23-23c-3-7-6-14-10-20a244 244 0 0 1-65 9 250 250 0 0 1-248-214 146 146 0 0 1 39-286h382a180 180 0 0 1 181 180 175 175 0 0 1-13 65l6-5a42 42 0 0 1 29-12 42 42 0 0 1 29 12 42 42 0 0 1 0 58l-23 24a177 177 0 0 1 22 53h33a42 42 0 0 1 0 83z m-264-375h-382a63 63 0 0 0 0 125 42 42 0 0 1 42 42 167 167 0 0 0 324 53 42 42 0 0 1 33-27 97 97 0 0 0-17-193z m125 265h0a90 90 0 0 0-25-17 187 187 0 0 1-44 21 255 255 0 0 1-87 104 94 94 0 0 0 19 29h0a101 101 0 0 0 137 0h0a99 99 0 0 0 0-138z" horiz-adv-x="1000" />

<glyph glyph-name="vertical-align-center" unicode="&#xeca2;" d="M875 392h-125v208a42 42 0 0 1-42 42h-125v83a42 42 0 0 1-41 42h-250a42 42 0 0 1-42-42v-333h-125a42 42 0 0 1 0-84h125v-333a42 42 0 0 1 42-42h250a42 42 0 0 1 41 42v83h125a42 42 0 0 1 42 42v208h125a42 42 0 0 1 0 84z m-375-375h-167v666h167z m167 125h-84v416h84z" horiz-adv-x="1000" />

<glyph glyph-name="raindrops-alt" unicode="&#xeca3;" d="M375 527c0 115-107 188-112 191a42 42 0 0 1-47 0c-4-3-112-76-112-191a135 135 0 0 1 271 0z m-135-52a52 52 0 0 0-52 52 153 153 0 0 0 52 102 150 150 0 0 0 52-102 52 52 0 0 0-52-52z m252-49a42 42 0 0 1-47 0c-7-5-174-121-174-295a198 198 0 0 1 396 0c0 177-167 291-175 295z m-23-409a115 115 0 0 0-115 114c0 97 76 174 115 209 39-33 114-110 114-209a115 115 0 0 0-114-114z m283 743a42 42 0 0 1-46 0c-6-5-143-100-143-243a167 167 0 0 1 333 0c0 145-138 239-144 243z m-23-327a83 83 0 0 0-83 84 227 227 0 0 0 83 155 225 225 0 0 0 84-155 83 83 0 0 0-84-84z" horiz-adv-x="1000" />

<glyph glyph-name="sanitizer-alt" unicode="&#xeca4;" d="M583 225h-83a42 42 0 0 1 0-83h83a42 42 0 0 1 0 83z m84 292v125a42 42 0 0 1-42 41h-42v42h42a42 42 0 0 1 0 83h-198a191 191 0 0 1-173-106 42 42 0 0 1 75-37 108 108 0 0 0 97 60h74v-42h-42a42 42 0 0 1-41-41v-125a125 125 0 0 1-125-125v-375a125 125 0 0 1 125-125h250a125 125 0 0 1 125 125v375a125 125 0 0 1-125 125z m-167 83h83v-83h-83z m208-583a42 42 0 0 0-41-42h-250a42 42 0 0 0-42 42v375a42 42 0 0 0 42 41h250a42 42 0 0 0 41-41z" horiz-adv-x="1000" />

<glyph glyph-name="estate" unicode="&#xeca5;" d="M833 517h0l-250 219a125 125 0 0 1-166 0l-250-219a125 125 0 0 1-42-94v-365a125 125 0 0 1 125-125h500a125 125 0 0 1 125 125v365a125 125 0 0 1-42 94z m-250-500h-166v208a42 42 0 0 0 41 42h84a42 42 0 0 0 41-42z m209 41a42 42 0 0 0-42-41h-83v208a125 125 0 0 1-125 125h-84a125 125 0 0 1-125-125v-208h-83a42 42 0 0 0-42 41v365a42 42 0 0 0 15 31l250 219a42 42 0 0 0 55 0l250-219a42 42 0 0 0 14-31z" horiz-adv-x="1000" />

<glyph glyph-name="file-contract" unicode="&#xeca6;" d="M550 225c-8-4-17-4-25-8-4 8-8 16-13 21-33 29-83 33-125 8-33-21-54-63-54-104 0-21 21-42 42-38 21 0 42 21 42 42 0 12 4 21 12 29 4 0 9 4 13 4-13-25-4-54 21-71 8-4 12-4 20-4 17 0 34 9 46 21 4 4 13 8 21 13 4-17 21-34 42-34h33c25 0 42 17 42 42 0 21-17 37-38 41-4 9-4 13-12 21-13 13-42 21-67 17z m283 254c0 4 0 9-4 13v4c0 4-4 8-8 12l-250 250c-4 5-9 5-13 9h-4c-4 0-8 0-12 4h-250c-71-4-125-58-125-129v-584c0-70 54-125 125-125h416c71 0 125 55 125 125v421c0-4 0-4 0 0z m-250 146l109-108h-67c-25 0-42 16-42 41v67z m167-567c0-25-17-41-42-41h-416c-25 0-42 16-42 41v584c0 25 17 41 42 41h208v-125c0-70 54-125 125-125h125v-375z m-375 375h42c25 0 41 17 41 42s-16 42-41 42h-42c-25 0-42-17-42-42s17-42 42-42z" horiz-adv-x="1000" />

<glyph glyph-name="fidget-spinner" unicode="&#xeca7;" d="M500 558a42 42 0 1 1 42-41 42 42 0 0 1-42 41z m-237-380a42 42 0 1 1 57-15 42 42 0 0 1-57 15z m474 0a42 42 0 1 1 16-57 42 42 0 0 1-16 57z m122 116a205 205 0 0 1-189 50l-17 32a208 208 0 0 1-105 344 210 210 0 0 1-178-40 207 207 0 0 1-78-163 205 205 0 0 1 56-142l-17-31a208 208 0 0 1-247-262 210 210 0 0 1 123-134 207 207 0 0 1 275 133l36-1a208 208 0 0 1 198-147 209 209 0 0 1 200 149 206 206 0 0 1-57 212z m-22-187a125 125 0 0 0-183-74 124 124 0 0 0-56 71 83 83 0 0 1-80 60h-36a83 83 0 0 1-80-60 124 124 0 0 0-164-79 125 125 0 0 0 73 238 82 82 0 0 1 91 39l18 32a83 83 0 0 1-12 98 124 124 0 0 0 14 182 125 125 0 0 0 170-182 83 83 0 0 1-12-98l18-32a82 82 0 0 1 91-39 124 124 0 0 0 148-156z" horiz-adv-x="1000" />

<glyph glyph-name="spinner" unicode="&#xeca8;" d="M212 183c-12 21-37 25-58 17-21-12-25-37-17-58 13-21 38-25 59-17 21 13 25 38 16 58z m-16 392c-21 8-46 4-58-17-9-20-5-45 16-58 21-8 46-4 59 17 8 21 4 46-17 58z m650-75c21 13 25 38 16 58-12 21-37 25-58 17-21-12-25-37-17-58 13-21 38-25 59-17z m-679-150c0 25-17 42-42 42s-42-17-42-42 17-42 42-42 42 17 42 42z m133-283c-21-4-37-29-29-50 4-21 29-38 50-29 21 4 37 29 29 50-4 20-25 33-50 29z m575 325c-25 0-42-17-42-42s17-42 42-42 42 17 42 42-17 42-42 42z m-29-192c-21 13-46 4-58-17-13-20-5-45 16-58 21-12 46-4 59 17 8 21 4 46-17 58z m-138 513c-21 12-46 4-58-17-13-21-4-46 17-58 20-13 45-5 58 16 8 21 4 46-17 59z m-8-646c-21 4-46-9-50-29-4-21 8-46 29-50 21-5 46 8 50 29 4 21-8 41-29 50z m-200-50c-25 0-42-17-42-42s17-42 42-42 42 17 42 42-17 42-42 42z m0 750c-25 0-42-17-42-42s17-42 42-42 42 17 42 42-17 42-42 42z" horiz-adv-x="1000" />

<glyph glyph-name="spinner-alt" unicode="&#xeca9;" d="M284 225a42 42 0 0 1-57 15l-73-41a42 42 0 0 1 42-73l72 42a42 42 0 0 1 16 57z m-130 276l73-41a42 42 0 1 1 41 72l-72 42a42 42 0 0 1-42-73z m96-151a42 42 0 0 1-42 42h-83a42 42 0 0 1 0-84h83a42 42 0 0 1 42 42z m467 125a42 42 0 0 1 56-15l73 41a42 42 0 1 1-42 73l-72-42a42 42 0 0 1-15-57z m-92 92a42 42 0 0 1 57 15l42 72a42 42 0 1 1-73 42l-41-73a42 42 0 0 1 15-56z m221-368l-73 41a42 42 0 1 1-41-72l72-42a42 42 0 0 1 42 73z m-164-81a42 42 0 1 1-72-41l41-73a42 42 0 1 1 73 42z m193 274h-83a42 42 0 0 1 0-84h83a42 42 0 0 1 0 84z m-375-292a42 42 0 0 1-42-42v-83a42 42 0 0 1 84 0v83a42 42 0 0 1-42 42z m-125 34a42 42 0 0 1-57-16l-42-72a42 42 0 0 1 73-42l41 73a42 42 0 0 1-15 57z m125 633a42 42 0 0 1-42-42v-83a42 42 0 0 1 84 0v83a42 42 0 0 1-42 42z" horiz-adv-x="1000" />

<glyph glyph-name="elipsis-double-v-alt" unicode="&#xecaa;" d="M354 142c-46 0-83-38-83-84s37-83 83-83 83 38 83 83-37 84-83 84z m292 416c46 0 83 38 83 84s-37 83-83 83-84-37-84-83 38-84 84-84z m-292-125c-46 0-83-37-83-83s37-83 83-83 83 37 83 83-37 83-83 83z m292 0c-46 0-84-37-84-83s38-83 84-83 83 37 83 83-37 83-83 83z m0-291c-46 0-84-38-84-84s38-83 84-83 83 38 83 83-37 84-83 84z m-292 583c-46 0-83-37-83-83s37-84 83-84 83 38 83 84-37 83-83 83z" horiz-adv-x="1000" />

<glyph glyph-name="list-ol" unicode="&#xecab;" d="M292 17h-125v4c0 21 16 37 37 37 59 0 109 38 125 92 17 67-21 138-87 154-55 17-113-8-142-58-13-21-4-46 17-59 20-12 45-4 58 17 12 21 37 25 58 13 4-5 9-5 9-9 8-12 8-25 8-37-8-17-25-29-42-29-70 0-125-55-125-121v-46c0-25 17-42 42-42h167c25 0 41 17 41 42s-16 42-41 42z m166 541h417c25 0 42 17 42 42s-17 42-42 42h-417c-25 0-41-17-41-42s16-42 41-42z m-166-83h-42v250c0 25-17 42-42 42s-41-17-41-42v-42h-42c-25 0-42-16-42-41s17-42 42-42h42v-125h-42c-25 0-42-17-42-42s17-41 42-41h167c25 0 41 16 41 41s-16 42-41 42z m583-292h-417c-25 0-41-16-41-41s16-42 41-42h417c25 0 42 17 42 42s-17 41-42 41z" horiz-adv-x="1000" />

<glyph glyph-name="list-ol-alt" unicode="&#xecac;" d="M292 17h-125v4c0 21 16 37 37 37 59 0 109 38 125 92 17 67-21 138-87 154-55 17-113-8-142-58-13-21-4-46 17-59 20-12 45-4 58 17 12 21 37 25 58 13 4-5 9-5 9-9 8-12 8-25 8-37-8-17-25-29-42-29-70 0-125-55-125-121v-46c0-25 17-42 42-42h167c25 0 41 17 41 42s-16 42-41 42z m0 458h-42v250c0 25-17 42-42 42s-41-17-41-42v-42h-42c-25 0-42-16-42-41s17-42 42-42h42v-125h-42c-25 0-42-17-42-42s17-41 42-41h167c25 0 41 16 41 41s-16 42-41 42z m166 125h417c25 0 42 17 42 42s-17 41-42 41h-417c-25 0-41-16-41-41s16-42 41-42z m417-583h-417c-25 0-41-17-41-42s16-42 41-42h417c25 0 42 17 42 42s-17 42-42 42z m0 458h-417c-25 0-41-17-41-42s16-41 41-41h417c25 0 42 16 42 41s-17 42-42 42z m0-250h-417c-25 0-41-17-41-42s16-41 41-41h417c25 0 42 16 42 41s-17 42-42 42z" horiz-adv-x="1000" />

<glyph glyph-name="docker" unicode="&#xecad;" d="M367 483h75c4 0 8 5 8 9v62c0 4-4 9-8 9h-75c-4 0-9-5-9-9v-66s5-5 9-5z m100-95h75c4 0 8 4 8 8v67c0 4-4 8-8 8h-75c-5 0-9-4-9-8v-67c0-4 5-8 9-8z m0 95h75c4 0 8 5 8 9v62l-8 9h-75c-5 0-9-5-9-9v-66s5-5 9-5z m104-95h75c4 0 8 4 8 8v67c0 4-4 8-8 8h-75c-4 0-8-4-8-8v-67c0-4 4-8 8-8z m-104 191h75c4 0 8 4 8 9v62c0 4-4 8-8 8h-75c-5 0-9-4-9-8v-67c0-4 5-4 9-4z m-309-191h75c5 0 9 4 9 8v67c0 4-4 8-9 8h-75c-4 0-8-4-8-8v-67l8-8z m750 41c-20 13-45 21-66 17-13 0-25 0-34-4-8 37-29 71-58 87l-12 9-9-13c-12-8-21-25-25-46-8-33-4-66 13-91-21-9-42-13-63-17h-546c-12 0-25-13-25-25 0-50 9-96 25-142 17-46 46-83 84-108 58-29 121-42 183-38 33 0 67 4 100 9 46 8 92 25 133 50 34 21 63 46 92 75 38 46 67 96 88 154h8c33 0 67 12 92 33 12 8 20 21 25 38l4 8-9 4z m-645-41h70c5 0 9 4 9 8v67c0 4-5 8-9 8h-70c-5 0-9-4-9-8v-67c0-4 4-8 9-8z m0 95h70c5 0 9 5 9 9v62c0 4-5 9-9 9h-70c-5 0-9-5-9-9v-66s4-5 9-5z m104-95h75c4 0 8 4 8 8v67c0 4-4 8-8 8h-75c-4 0-9-4-9-8v-67c0-4 5-8 9-8z" horiz-adv-x="1000" />

<glyph glyph-name="linux" unicode="&#xecae;" d="M821 117c-4 8-9 16-9 25 0 16-8 29-20 41-5 4-13 9-17 9 25 75-13 150-54 204-34 50-84 87-79 154 0 79 8 225-138 212-150-8-108-162-112-216 0-46-21-92-55-129-8-9-16-21-20-30-42-50-63-116-63-179-8-8-17-16-21-25-4-4-8-8-8-12-4-4-13-9-21-13-17-4-29-12-37-29-5-12-9-29-5-46 5-8 5-16 0-29-8-17-8-37 0-58 13-17 34-21 63-25 21 0 46-9 67-17 20-12 45-21 70-21 13 0 30 4 42 9 13 8 21 16 25 29 17 0 42 8 71 8 25 0 50-8 83-4 0-4 0-8 4-13 9-20 30-37 55-41h8c33 4 67 21 87 46 17 16 38 29 59 37 25 13 41 21 46 42 4 29-4 46-21 71z m-288 533c25-4 46-25 42-50 0-12-4-25-12-37h-5c-8 4-12 4-16 8 4 4 4 12 8 21 0 16-8 29-17 29-12 0-20-13-20-29v-4c-5 4-13 4-17 8v4c-4 21 12 46 37 50z m-12-83c4-4 12-9 17-9 4 0 12-4 16-8 9-4 17-8 17-21s-13-25-38-33c-8-4-12-4-16-8-13-9-25-13-42-13-13 0-25 8-33 17-5 4-9 8-17 12-4 4-13 13-17 25 0 4 4 9 9 13 12 8 16 12 20 16l5 5c8 12 25 20 41 20 13-4 25-8 38-16z m-88 75c17 0 30-17 34-46v-8c-5 0-13-5-17-9v9c0 12-8 25-17 20-8 0-12-12-12-25 0-8 4-12 8-16 0 0-4-4-8-4-9 8-17 20-17 33 0 25 13 46 29 46z m-41-671c-30-13-67-9-92 8-25 13-46 17-75 17-21 4-42 4-46 12-4 9-4 21 4 42 4 12 4 25 0 37-4 13-4 21 0 34 4 12 13 16 25 21 13 4 21 8 29 16 5 4 9 9 13 17 12 17 21 25 33 25 25-4 46-42 63-79 8-13 16-29 29-42 17-21 37-50 37-66 0-21-8-34-20-42z m204 91c0-4 0-4-4-8-50-37-117-42-171-12l-25 37c37 4 29 54-50 104-83 54-25 154 4 200 4 4 4 0-12-33-13-25-38-88-5-133 0 33 9 66 21 100 29 54 50 116 63 179 4-4 4-4 8-4 4-5 8-9 12-9 9-12 25-16 38-16h4c17 0 34 4 46 16 4 4 8 9 17 9 12 4 25 12 37 25 17-55 34-105 59-150 16-34 29-67 37-105 13 0 29-4 42-12 33-17 46-29 41-50h-8c0 12-8 25-37 37-30 13-55 13-63-16-4 0-8-4-12-4-34-17-34-63-38-109 4-16 0-29-4-46z m191-25c-25-8-45-25-62-45-17-25-46-42-79-38-17 0-34 13-38 29-4 25-4 50 9 75 4 17 8 29 12 46 4 50 4 79 25 92 0-21 13-34 29-42 21 0 42 4 59 21h8c13 0 21 0 29-8 9-9 13-21 13-30 0-12 8-25 12-37 21-21 21-33 21-38-4-8-21-16-37-25z m-375 500c-4 0-4 0-4-4 0 0 0-4 4-4s5-4 5-4c12-17 33-25 58-29 21 4 42 8 62 25l25 12c5 0 5 4 5 4 0 5 0 5-5 5-8-5-20-9-29-13-16-12-37-21-58-21-21 0-38 13-50 25-4 0-8 4-13 4z" horiz-adv-x="1000" />

<glyph glyph-name="hipchat" unicode="&#xecaf;" d="M729 271c0 8-8 17-16 17-5 0-9 0-13-5-54-45-125-70-200-70-71 0-142 25-200 70-4 5-8 5-12 5-9 0-17-9-17-17s4-13 8-21c54-67 138-104 221-100 83-4 163 33 217 100 8 8 8 13 12 21z m113-288c-34 17-59 50-71 84-4 8 0 12 4 16 87 63 137 163 137 267 0 200-187 358-416 358s-417-162-417-358c0-200 188-358 417-358 29 0 58 4 87 8 4 0 13 0 17-4 67-38 142-63 217-63 16-4 29 9 33 25v5c4 8 0 16-8 20z m-113 34v-4c0-5-4-5-4-5-46 13-83 34-121 63-4 4-12 4-21 4-29-8-58-8-87-8-192 0-346 129-346 287 0 159 154 288 346 288 192 0 346-129 346-288-4-96-59-183-142-229-8-4-12-12-12-17 12-37 25-66 41-91z" horiz-adv-x="1000" />

<glyph glyph-name="gitlab" unicode="&#xecb0;" d="M914 314l-44 137 0-1v1l-88 271a35 35 0 0 1-34 24 34 34 0 0 1-32-24l-84-258h-264l-84 258a34 34 0 0 1-33 24h0a35 35 0 0 1-33-24l-88-271 0-1 0 1-44-137a50 50 0 0 1 18-56l384-279 1 0 0-1 0 1 0 0 0 0a19 19 0 0 1 2-2l0 0 0 0 0 0h0l0 0 1 0 1-1h0l1 0 0 0h0l0 0h0c1 0 1 0 2 0l0-1h0l1 0 0 0h0a19 19 0 0 1 3 0h0a20 20 0 0 1 3 0h0l0 0 0 0h1l0 1 2 0h0l0 0h0l0 0 0 0h0l1 1 1 0 1 0h0l0 0 0 0 0 0a20 20 0 0 1 2 2l0 0 0 0 385 279a50 50 0 0 1 18 56z m-165 382l75-232h-151z m-498 0l76-232h-151z m-124-406a11 11 0 0 0-4 12l33 101 243-311z m62 135h151l107-330z m299-446l-1 0 0 1-1 1 0 0 0 0a20 20 0 0 1 2-2l0 0z m12 79l-63 195-56 172h238z m13-78l-1-1 0 0 0 0 0 0 0 0a19 19 0 0 1 2 1l0 1 0 0z m147 445h151l-31-39-227-291z m213-135l-272-198 243 311 33-101a11 11 0 0 0-4-12z" horiz-adv-x="1000" />

<glyph glyph-name="lottiefiles-alt" unicode="&#xecb1;" d="M792 767h-584a125 125 0 0 1-125-125v-584a125 125 0 0 1 125-125h584a125 125 0 0 1 125 125v584a125 125 0 0 1-125 125z m-84-250c-69 0-119-91-171-187-63-113-127-230-245-230a42 42 0 0 0 0 83c69 0 119 91 171 187 63 113 127 230 245 230a42 42 0 0 0 0-83z" horiz-adv-x="1000" />

<glyph glyph-name="pagerduty" unicode="&#xecb2;" d="M708 725c-66 33-112 42-216 42h-242v-504h242c96 0 166 4 229 45 66 46 108 125 104 209 4 87-42 166-117 208z m-191-358h-146v291h137c125 0 188-41 188-141 4-109-75-150-179-150z m-267-434h121v221h-121v-221z" horiz-adv-x="1000" />

<glyph glyph-name="microsoft" unicode="&#xecb3;" d="M83-67h396v396h-396v-396z m0 438h396v396h-396v-396z m438 396v-396h396v396h-396z m0-834h396v396h-396v-396z" horiz-adv-x="1000" />

<glyph glyph-name="windows" unicode="&#xecb4;" d="M917 767l-450-67v-333l450 4v396z m-492-438l-342 4v-283l338-46 4 325z m-342 321v-283h338v329l-338-46z m379-321v-329l455-67v392l-454 4z" horiz-adv-x="1000" />

<glyph glyph-name="pagelines" unicode="&#xecb5;" d="M787 267c73 38 95 140 95 140s-96 41-169 3a175 175 0 0 1-71-76 374 374 0 0 1 3 41 291 291 0 0 1 66 197c-15 115-140 195-140 195s-101-108-87-223a284 284 0 0 1 105-168 388 388 0 0 0-3-42 183 183 0 0 1-79 86c-74 35-169-9-169-9s25-101 99-137a197 197 0 0 1 136-3 393 393 0 0 0-61-121 183 183 0 0 1-84 83c-76 32-168-17-168-17s30-100 106-132a156 156 0 0 1 72-10 392 392 0 0 0-243-85 28 28 0 0 1 0-56 449 449 0 0 1 332 147 206 206 0 0 1 139-49c81 8 139 95 139 95s-75 73-156 65a148 148 0 0 1-57-19 448 448 0 0 1 37 94 215 215 0 0 1 158 1z" horiz-adv-x="1000" />
</font>
</defs>
</svg>
