<?xml version="1.0" standalone="no"?>
<!DOCTYPE svg PUBLIC "-//W3C//DTD SVG 1.1//EN" "http://www.w3.org/Graphics/SVG/1.1/DTD/svg11.dtd">
<svg xmlns="http://www.w3.org/2000/svg">
<metadata>IconScout</metadata>
<defs>
<font id="unicons-9" horiz-adv-x="1000" >
<font-face font-family="unicons-9" font-weight="400" font-stretch="normal" units-per-em="1000" ascent="850" descent="-150" />
<missing-glyph horiz-adv-x="1000" />
<glyph glyph-name="window-maximize" unicode="&#xea1e;" d="M875 767h-750a42 42 0 0 1-42-42v-750a42 42 0 0 1 42-42h750a42 42 0 0 1 42 42v750a42 42 0 0 1-42 42z m-42-750h-666v416h666z m0 500h-666v166h666z" horiz-adv-x="1000" />

<glyph glyph-name="web-section-alt" unicode="&#xea1f;" d="M875 767h-750a42 42 0 0 1-42-42v-750a42 42 0 0 1 42-42h750a42 42 0 0 1 42 42v750a42 42 0 0 1-42 42z m-542-750h-166v666h166z m500 0h-416v666h416z" horiz-adv-x="1000" />

<glyph glyph-name="web-grid" unicode="&#xea20;" d="M875 767h-750a42 42 0 0 1-42-42v-750a42 42 0 0 1 42-42h750a42 42 0 0 1 42 42v750a42 42 0 0 1-42 42z m-292-750h-416v291h416z m0 375h-416v291h416z m250-375h-166v666h166z" horiz-adv-x="1000" />

<glyph glyph-name="server-connection" unicode="&#xea21;" d="M458 308a42 42 0 1 1 42-41 42 42 0 0 1-42 41z m-166 0a42 42 0 1 1 41-41 42 42 0 0 1-41 41z m625 375a125 125 0 0 1-125 125h-584a125 125 0 0 1-125-125v-166a125 125 0 0 1 33-84 125 125 0 0 1-33-83v-167a125 125 0 0 1 125-125h250v-83h-333a42 42 0 0 1 0-83h750a42 42 0 0 1 0 83h-333v83h250a125 125 0 0 1 125 125v167a125 125 0 0 1-33 83 125 125 0 0 1 33 84z m-84-500a42 42 0 0 0-41-41h-584a42 42 0 0 0-41 41v167a42 42 0 0 0 41 42h584a42 42 0 0 0 41-42z m0 334a42 42 0 0 0-41-42h-584a42 42 0 0 0-41 42v166a42 42 0 0 0 41 42h584a42 42 0 0 0 41-42z m-375 125a42 42 0 1 1 42-42 42 42 0 0 1-42 42z m-166 0a42 42 0 1 1 41-42 42 42 0 0 1-41 42z" horiz-adv-x="1000" />

<glyph glyph-name="cloud-slash" unicode="&#xea22;" d="M696 171h0l-541 542a42 42 0 0 1-60-59l140-140a292 292 0 0 1-24-83 167 167 0 0 1 39-331h400l112-113a42 42 0 0 1 59 0 42 42 0 0 1 0 59z m-446 12a83 83 0 0 0 0 167 42 42 0 0 1 42 42 208 208 0 0 0 8 58l266-267z m518 325a292 292 0 0 1-268 175 281 281 0 0 1-97-16 42 42 0 0 1 28-79 205 205 0 0 0 69 12 208 208 0 0 0 197-141 42 42 0 0 1 33-28 125 125 0 0 0 77-200 42 42 0 0 1 6-58 42 42 0 0 1 26-9 42 42 0 0 1 33 16 208 208 0 0 1-104 328z" horiz-adv-x="1000" />

<glyph glyph-name="cloud-upload" unicode="&#xea23;" d="M768 508a292 292 0 0 1-557-79 167 167 0 0 1 39-329 42 42 0 0 1 0 83 83 83 0 0 0 0 167 42 42 0 0 1 42 42 208 208 0 0 0 405 67 42 42 0 0 1 33-28 125 125 0 0 0 10-243 42 42 0 0 1 20-81 208 208 0 0 1 8 400z m-238-87a42 42 0 0 1-14 9 42 42 0 0 1-32 0 42 42 0 0 1-14-9l-125-125a42 42 0 0 1 60-59l53 54v-233a42 42 0 0 1 84 0v233l53-54a42 42 0 0 1 60 0 42 42 0 0 1 0 59z" horiz-adv-x="1000" />

<glyph glyph-name="cloud-exclamation" unicode="&#xea24;" d="M530 67a48 48 0 0 1-14 9 42 42 0 0 1-46-9 44 44 0 0 1-12-29 42 42 0 0 1 12-30 48 48 0 0 1 14-9 42 42 0 0 1 54 54 42 42 0 0 1-8 14z m-30 262a42 42 0 0 1-42-41v-125a42 42 0 0 1 84 0v125a42 42 0 0 1-42 41z m268 200a292 292 0 0 1-557-79 167 167 0 0 1 39-329h83a42 42 0 0 1 0 83h-83a83 83 0 0 0 0 167 42 42 0 0 1 42 42 208 208 0 0 0 405 67 42 42 0 0 1 33-28 125 125 0 0 0-22-248h-41a42 42 0 0 1 0-83h41a208 208 0 0 1 59 408z" horiz-adv-x="1000" />

<glyph glyph-name="database" unicode="&#xea25;" d="M333 163a42 42 0 1 1 42-42 42 42 0 0 1-42 42z m167 604c-167 0-333-57-333-167v-500c0-110 166-167 333-167s333 57 333 167v500c0 110-166 167-333 167z m250-667c0-30-95-83-250-83s-250 53-250 83v136a548 548 0 0 1 250-53 548 548 0 0 1 250 53z m0 250c0-30-95-83-250-83s-250 53-250 83v136a548 548 0 0 1 250-53 548 548 0 0 1 250 53z m-250 167c-155 0-250 53-250 83s95 83 250 83 250-53 250-83-95-83-250-83z m-167-104a42 42 0 1 1 42-42 42 42 0 0 1-42 42z" horiz-adv-x="1000" />

<glyph glyph-name="server" unicode="&#xea26;" d="M625 142a42 42 0 1 1 42-42 42 42 0 0 1-42 42z m-250 0h-125a42 42 0 0 1 0-84h125a42 42 0 0 1 0 84z m375 0a42 42 0 1 1 42-42 42 42 0 0 1-42 42z m-125 250a42 42 0 1 1 42-42 42 42 0 0 1-42 42z m-250 0h-125a42 42 0 0 1 0-84h125a42 42 0 0 1 0 84z m375 250a42 42 0 1 1 42-42 42 42 0 0 1-42 42z m0-250a42 42 0 1 1 42-42 42 42 0 0 1-42 42z m167 250a125 125 0 0 1-125 125h-584a125 125 0 0 1-125-125v-84a125 125 0 0 1 33-83 125 125 0 0 1-33-83v-84a125 125 0 0 1 33-83 125 125 0 0 1-33-83v-84a125 125 0 0 1 125-125h584a125 125 0 0 1 125 125v84a125 125 0 0 1-33 83 125 125 0 0 1 33 83v84a125 125 0 0 1-33 83 125 125 0 0 1 33 83z m-84-584a42 42 0 0 0-41-41h-584a42 42 0 0 0-41 41v84a42 42 0 0 0 41 41h584a42 42 0 0 0 41-41z m0 250a42 42 0 0 0-41-41h-584a42 42 0 0 0-41 41v84a42 42 0 0 0 41 41h584a42 42 0 0 0 41-41z m0 250a42 42 0 0 0-41-41h-584a42 42 0 0 0-41 41v84a42 42 0 0 0 41 41h584a42 42 0 0 0 41-41z m-208 84a42 42 0 1 1 42-42 42 42 0 0 1-42 42z m-250 0h-125a42 42 0 0 1 0-84h125a42 42 0 0 1 0 84z" horiz-adv-x="1000" />

<glyph glyph-name="cloud-unlock" unicode="&#xea27;" d="M583 204h-125v42a42 42 0 0 0 79 21 42 42 0 0 1 57-14 42 42 0 0 1 14 55 128 128 0 0 1-19 25 125 125 0 0 1-89 38 125 125 0 0 1-125-125v-49a125 125 0 0 1 42-243h166a125 125 0 0 1 0 250z m0-166h-166a42 42 0 0 0 0 83h166a42 42 0 0 0 0-83z m185 532a292 292 0 0 1-557-79 167 167 0 0 1-16-319 47 47 0 0 1 13-2 42 42 0 0 1 14 83 83 83 0 0 0-55 76 83 83 0 0 0 83 84 42 42 0 0 1 42 41 208 208 0 0 0 405 67 42 42 0 0 1 33-28 125 125 0 0 0 41-230 42 42 0 1 1 42-73 208 208 0 0 1 104 181 208 208 0 0 1-149 199z" horiz-adv-x="1000" />

<glyph glyph-name="cloud-share" unicode="&#xea28;" d="M604 225a83 83 0 1 1-83 83l-79-36a83 83 0 0 1-46 14 83 83 0 0 1 0-167 78 78 0 0 1 38 10l88-41a83 83 0 1 1 33 76l-73 34 80 36a83 83 0 0 1 42-9z m164 324a292 292 0 0 1-557-79 167 167 0 0 1-16-319 47 47 0 0 1 13-2 42 42 0 0 1 14 84 83 83 0 0 0-55 75 83 83 0 0 0 83 84 42 42 0 0 1 42 41 208 208 0 0 0 405 67 42 42 0 0 1 33-27 125 125 0 0 0 41-231 42 42 0 1 1 42-72 208 208 0 0 1 104 180 208 208 0 0 1-149 199z" horiz-adv-x="1000" />

<glyph glyph-name="envelope-send" unicode="&#xea29;" d="M667 413h-334a125 125 0 0 1-125-125v-209a125 125 0 0 1 125-125h334a125 125 0 0 1 125 125v209a125 125 0 0 1-125 125z m-18-84l-120-120a42 42 0 0 0-58 0l-120 120z m59-250a42 42 0 0 0-41-41h-334a42 42 0 0 0-41 41v191l120-119a122 122 0 0 1 88-37 125 125 0 0 1 88 36l120 120z m-333 500h150l-13-12a42 42 0 0 1 0-59 42 42 0 0 1 59 0l84 83a42 42 0 0 1 8 14 42 42 0 0 1 0 32 42 42 0 0 1-8 13l-84 84a42 42 0 0 1-59-59l13-12h-150a42 42 0 0 1 0-84z" horiz-adv-x="1000" />

<glyph glyph-name="cloud-shield" unicode="&#xea2a;" d="M768 549a292 292 0 0 1-557-79 167 167 0 0 1-16-319 47 47 0 0 1 13-2 42 42 0 0 1 14 84 83 83 0 0 0-55 75 83 83 0 0 0 83 84 42 42 0 0 1 42 41 208 208 0 0 0 405 67 42 42 0 0 1 33-27 125 125 0 0 0 41-231 42 42 0 1 1 42-72 208 208 0 0 1 104 180 208 208 0 0 1-149 199z m-152-185a114 114 0 0 0-91 20 42 42 0 0 1-50 0 113 113 0 0 0-91-20 42 42 0 0 1-35-8 42 42 0 0 1-16-32v-141a193 193 0 0 1 77-154l65-48a42 42 0 0 1 50 0l65 49a192 192 0 0 1 77 153v141a42 42 0 0 1-16 32 42 42 0 0 1-35 8z m-33-181a109 109 0 0 0-41-83l-42-30-42 30a109 109 0 0 0-41 83v95a195 195 0 0 1 83 23 195 195 0 0 1 83-23z" horiz-adv-x="1000" />

<glyph glyph-name="laptop-connection" unicode="&#xea2b;" d="M875 100h-257a125 125 0 0 1-76 76v132h291a42 42 0 0 1 0 84h-41v250a125 125 0 0 1-125 125h-334a125 125 0 0 1-125-125v-250h-41a42 42 0 0 1 0-84h291v-132a125 125 0 0 1-76-76h-257a42 42 0 0 1 0-83h257a125 125 0 0 1 235 0h258a42 42 0 0 1 0 83z m-583 292v250a42 42 0 0 0 41 41h334a42 42 0 0 0 41-41v-250z m208-375a42 42 0 1 0 42 41 42 42 0 0 0-42-41z" horiz-adv-x="1000" />

<glyph glyph-name="server-network-alt" unicode="&#xea2c;" d="M333 600h125a42 42 0 0 1 0 83h-125a42 42 0 0 1 0-83z m334 0a42 42 0 1 1-42 42 42 42 0 0 1 42-42z m0-167a42 42 0 1 1 41-41 42 42 0 0 1-41 41z m208-375h-257a125 125 0 0 1-76 76v91h166a125 125 0 0 1 125 125v83a125 125 0 0 1-32 84 125 125 0 0 1 32 83v83a125 125 0 0 1-125 125h-416a125 125 0 0 1-125-125v-83a125 125 0 0 1 32-83 125 125 0 0 1-32-84v-83a125 125 0 0 1 125-125h166v-91a125 125 0 0 1-76-76h-257a42 42 0 0 1 0-83h257a125 125 0 0 1 235 0h258a42 42 0 0 1 0 83z m-625 625a42 42 0 0 0 42 42h416a42 42 0 0 0 42-42v-83a42 42 0 0 0-42-42h-416a42 42 0 0 0-42 42z m42-375a42 42 0 0 0-42 42v83a42 42 0 0 0 42 42h416a42 42 0 0 0 42-42v-83a42 42 0 0 0-42-42z m208-333a42 42 0 1 0 42 42 42 42 0 0 0-42-42z m-42 458h-125a42 42 0 0 1 0-83h125a42 42 0 0 1 0 83z" horiz-adv-x="1000" />

<glyph glyph-name="cloud-redo" unicode="&#xea2d;" d="M625 329a42 42 0 0 1-38-25 167 167 0 1 1 23-266 42 42 0 1 1-55 62 83 83 0 0 0-55-21 83 83 0 1 0 42 156h-9a42 42 0 0 1 0-83h92a42 42 0 0 1 42 42v94a42 42 0 0 1-42 41z m143 199a292 292 0 0 1-557-78 167 167 0 0 1-16-320 47 47 0 0 1 13-2 42 42 0 0 1 14 84 83 83 0 0 0-55 76 83 83 0 0 0 83 83 42 42 0 0 1 42 42 208 208 0 0 0 405 67 42 42 0 0 1 33-28 125 125 0 0 0 41-231 42 42 0 1 1 42-72 208 208 0 0 1 104 180 208 208 0 0 1-149 199z" horiz-adv-x="1000" />

<glyph glyph-name="servers" unicode="&#xea2e;" d="M625 142a42 42 0 1 1 42-42 42 42 0 0 1-42 42z m-167 0h-83a42 42 0 0 1 0-84h83a42 42 0 0 1 0 84z m0 250h-83a42 42 0 0 1 0-84h83a42 42 0 0 1 0 84z m167 0a42 42 0 1 1 42-42 42 42 0 0 1-42 42z m333 125a125 125 0 0 1-125 125h-41a125 125 0 0 1-125 125h-334a125 125 0 0 1-125-125h-41a125 125 0 0 1-125-125v-84a125 125 0 0 1 32-83 125 125 0 0 1-32-83v-84a125 125 0 0 1 125-125h41a125 125 0 0 1 125-125h334a125 125 0 0 1 125 125h41a125 125 0 0 1 125 125v84a125 125 0 0 1-32 83 125 125 0 0 1 32 83z m-750-375h-41a42 42 0 0 0-42 41v84a42 42 0 0 0 42 41h41a125 125 0 0 1 33-83 125 125 0 0 1-33-83z m0 250h-41a42 42 0 0 0-42 41v84a42 42 0 0 0 42 41h41a125 125 0 0 1 33-83 125 125 0 0 1-33-83z m500-334a42 42 0 0 0-41-41h-334a42 42 0 0 0-41 41v84a42 42 0 0 0 41 41h334a42 42 0 0 0 41-41z m0 250a42 42 0 0 0-41-41h-334a42 42 0 0 0-41 41v84a42 42 0 0 0 41 41h334a42 42 0 0 0 41-41z m0 250a42 42 0 0 0-41-41h-334a42 42 0 0 0-41 41v84a42 42 0 0 0 41 41h334a42 42 0 0 0 41-41z m167-375a42 42 0 0 0-42-41h-41a125 125 0 0 1-33 83 125 125 0 0 1 33 83h41a42 42 0 0 0 42-41z m0 250a42 42 0 0 0-42-41h-41a125 125 0 0 1-33 83 125 125 0 0 1 33 83h41a42 42 0 0 0 42-41z m-250 209a42 42 0 1 1 42-42 42 42 0 0 1-42 42z m-167 0h-83a42 42 0 0 1 0-84h83a42 42 0 0 1 0 84z" horiz-adv-x="1000" />

<glyph glyph-name="server-network" unicode="&#xea2f;" d="M333 600a42 42 0 1 1-41 42 42 42 0 0 1 41-42z m542-542h-257a125 125 0 0 1-76 76v91h166a125 125 0 0 1 125 125v83a125 125 0 0 1-32 84 125 125 0 0 1 32 83v83a125 125 0 0 1-125 125h-416a125 125 0 0 1-125-125v-83a125 125 0 0 1 32-83 125 125 0 0 1-32-84v-83a125 125 0 0 1 125-125h166v-91a125 125 0 0 1-76-76h-257a42 42 0 0 1 0-83h257a125 125 0 0 1 235 0h258a42 42 0 0 1 0 83z m-625 625a42 42 0 0 0 42 42h416a42 42 0 0 0 42-42v-83a42 42 0 0 0-42-42h-416a42 42 0 0 0-42 42z m42-375a42 42 0 0 0-42 42v83a42 42 0 0 0 42 42h416a42 42 0 0 0 42-42v-83a42 42 0 0 0-42-42z m208-333a42 42 0 1 0 42 42 42 42 0 0 0-42-42z m-167 458a42 42 0 1 1 42-41 42 42 0 0 1-42 41z" horiz-adv-x="1000" />

<glyph glyph-name="cloud-heart" unicode="&#xea30;" d="M768 528a292 292 0 0 1-557-78 167 167 0 0 1-16-320 47 47 0 0 1 13-2 42 42 0 0 1 14 84 83 83 0 0 0-55 76 83 83 0 0 0 83 83 42 42 0 0 1 42 42 208 208 0 0 0 405 67 42 42 0 0 1 33-28 125 125 0 0 0 41-231 42 42 0 1 1 42-72 208 208 0 0 1 104 180 208 208 0 0 1-149 199z m-268-213a122 122 0 0 1-143-22 122 122 0 0 1 0-172l113-113a42 42 0 0 1 60 0l113 113a122 122 0 0 1 0 172 122 122 0 0 1-143 22z m83-135l-83-83-83 83a37 37 0 0 0-12 28 37 37 0 0 0 12 27 38 38 0 0 0 54 0 42 42 0 0 1 59 0 39 39 0 0 0 54 0 37 37 0 0 0 11-27 37 37 0 0 0-12-28z" horiz-adv-x="1000" />

<glyph glyph-name="database-alt" unicode="&#xea31;" d="M333 142a42 42 0 1 1 42-42 42 42 0 0 1-42 42z m0 250a42 42 0 1 1 42-42 42 42 0 0 1-42 42z m334 375h-334a167 167 0 0 1-166-167v-500a167 167 0 0 1 166-167h334a167 167 0 0 1 166 167v500a167 167 0 0 1-166 167z m83-667a83 83 0 0 0-83-83h-334a83 83 0 0 0-83 83v107a163 163 0 0 1 83-24h334a163 163 0 0 1 83 24z m0 250a83 83 0 0 0-83-83h-334a83 83 0 0 0-83 83v107a163 163 0 0 1 83-24h334a163 163 0 0 1 83 24z m-83 167h-334a83 83 0 0 0 0 166h334a83 83 0 0 0 0-166z" horiz-adv-x="1000" />

<glyph glyph-name="cloud-lock" unicode="&#xea32;" d="M768 570a292 292 0 0 1-557-79 167 167 0 0 1-16-319 47 47 0 0 1 13-2 42 42 0 0 1 14 83 83 83 0 0 0-55 76 83 83 0 0 0 83 84 42 42 0 0 1 42 41 208 208 0 0 0 405 67 42 42 0 0 1 33-28 125 125 0 0 0 41-230 42 42 0 1 1 42-73 208 208 0 0 1 104 181 208 208 0 0 1-149 199z m-143-375v51a125 125 0 0 1-250 0v-49a125 125 0 0 1 42-243h166a125 125 0 0 1 42 243z m-167 51a42 42 0 0 0 84 0v-42h-84z m125-208h-166a42 42 0 0 0 0 83h166a42 42 0 0 0 0-83z" horiz-adv-x="1000" />

<glyph glyph-name="cloud-info" unicode="&#xea33;" d="M470 338a42 42 0 0 1 30-71l8 0a25 25 0 0 1 8 2 23 23 0 0 1 7 4l6 5a42 42 0 0 1 0 59 42 42 0 0 1-59 1z m30-113a42 42 0 0 1-42-42v-125a42 42 0 0 1 84 0v125a42 42 0 0 1-42 42z m268 283a292 292 0 0 1-557-79 167 167 0 0 1 39-329h83a42 42 0 0 1 0 83h-83a83 83 0 0 0 0 167 42 42 0 0 1 42 42 208 208 0 0 0 405 67 42 42 0 0 1 33-28 125 125 0 0 0 103-123 125 125 0 0 0-125-125h-41a42 42 0 0 1 0-83h41a208 208 0 0 1 59 407z" horiz-adv-x="1000" />

<glyph glyph-name="phone-pause" unicode="&#xea34;" d="M810 308c-9 0-19 3-28 5a393 393 0 0 0-54 17 83 83 0 0 1-104-42l-9-19a507 507 0 0 0-111 84 507 507 0 0 0-83 110l17 12a83 83 0 0 1 42 103 430 430 0 0 0-16 55c-2 9-4 19-5 28a125 125 0 0 1-125 104h-125a125 125 0 0 1-125-142 792 792 0 0 1 688-686l16 0a125 125 0 0 1 83 32 125 125 0 0 1 42 94v125a125 125 0 0 1-103 120z m21-250a42 42 0 0 0-14-31 42 42 0 0 0-34-10 708 708 0 0 0-613 616 45 45 0 0 0 10 34 42 42 0 0 0 31 14h125a42 42 0 0 0 42-33q2-17 6-34a463 463 0 0 1 19-64l-58-27a42 42 0 0 1-20-56 604 604 0 0 1 291-292 42 42 0 0 1 32 0 42 42 0 0 1 24 22l26 58a570 570 0 0 1 65-19q17-3 34-6a42 42 0 0 0 33-42z m-39 375a42 42 0 0 1 41 42v167a42 42 0 0 1-83 0v-167a42 42 0 0 1 42-42z m-167 0a42 42 0 0 1 42 42v167a42 42 0 0 1-84 0v-167a42 42 0 0 1 42-42z" horiz-adv-x="1000" />

<glyph glyph-name="user-square" unicode="&#xea35;" d="M617 338a155 155 0 0 1 42 105 157 157 0 0 1-315 0 155 155 0 0 1 41-105 248 248 0 0 1-135-192 42 42 0 0 1 83-9 167 167 0 0 0 331 0 42 42 0 0 1 44-37h5a42 42 0 0 1 37 46 248 248 0 0 1-133 192z m-117 30a74 74 0 1 0 74 75 74 74 0 0 0-74-75z m292 399h-584a125 125 0 0 1-125-125v-584a125 125 0 0 1 125-125h584a125 125 0 0 1 125 125v584a125 125 0 0 1-125 125z m41-709a42 42 0 0 0-41-41h-584a42 42 0 0 0-41 41v584a42 42 0 0 0 41 41h584a42 42 0 0 0 41-41z" horiz-adv-x="1000" />

<glyph glyph-name="user-exclamation" unicode="&#xea36;" d="M606 341a205 205 0 0 1 71 155 208 208 0 0 1-417 0 205 205 0 0 1 73-155 333 333 0 0 1-196-303 42 42 0 0 1 84 0 250 250 0 0 0 500 0 42 42 0 0 1 83 0 333 333 0 0 1-198 303z m-137 30a125 125 0 1 0 125 125 125 125 0 0 0-125-125z m354 208a42 42 0 0 1-42-41v-84a42 42 0 0 1 84 0v84a42 42 0 0 1-42 41z m-31-220a44 44 0 0 1-12-30 42 42 0 0 1 12-29 48 48 0 0 1 13-9 39 39 0 0 1 32 0 38 38 0 0 1 23 22 35 35 0 0 1 3 16 42 42 0 0 1-71 30z" horiz-adv-x="1000" />

<glyph glyph-name="cloud-download" unicode="&#xea37;" d="M595 130l-53-55v233a42 42 0 0 1-84 0v-233l-53 55a42 42 0 0 1-60-60l125-125a42 42 0 0 1 14-8 39 39 0 0 1 32 0 42 42 0 0 1 14 8l125 125a42 42 0 0 1-60 60z m173 461a292 292 0 0 1-557-79 167 167 0 0 1 39-329 42 42 0 0 1 0 84 83 83 0 0 0 0 166 42 42 0 0 1 42 42 208 208 0 0 0 405 67 42 42 0 0 1 33-28 125 125 0 0 0 10-243 42 42 0 1 1 20-81 208 208 0 0 1 8 401z" horiz-adv-x="1000" />

<glyph glyph-name="user-circle" unicode="&#xea38;" d="M500 767a417 417 0 0 1-306-699h0a417 417 0 0 1 612 0h0a417 417 0 0 1-306 699z m0-750a333 333 0 0 0-231 93 250 250 0 0 0 462 0 333 333 0 0 0-231-93z m-83 416a83 83 0 1 0 83-83 83 83 0 0 0-83 83z m371-250a333 333 0 0 1-163 141 167 167 0 1 1-250 0 333 333 0 0 1-163-141 330 330 0 0 0-45 167 333 333 0 0 0 666 0 330 330 0 0 0-45-167z" horiz-adv-x="1000" />

<glyph glyph-name="cloud-wifi" unicode="&#xea39;" d="M354 603a296 296 0 0 0 292 0 42 42 0 0 1 57 15 42 42 0 0 1-15 57 381 381 0 0 1-375 0 42 42 0 0 1-16-57 42 42 0 0 1 57-15z m414-220a246 246 0 0 1-15 30 42 42 0 0 1-58 13 42 42 0 0 1-14-57 191 191 0 0 0 16-35 42 42 0 0 1 33-28 125 125 0 0 0 103-123 125 125 0 0 0-125-125l-472 0a83 83 0 0 0-69 67 83 83 0 0 0 83 100 42 42 0 0 1 42 42 205 205 0 0 0 28 103 42 42 0 0 1-16 57 42 42 0 0 1-56-15 281 281 0 0 1-37-108 167 167 0 0 1-89-56 167 167 0 0 1 105-273h6l475 0a208 208 0 0 1 59 408z m-148 92s0 0 0 3a38 38 0 0 1 5 8 42 42 0 0 1-24 54 265 265 0 0 1-72 15c-4 0-9 0-13 0a228 228 0 0 1-33 0 125 125 0 0 1-13 0 265 265 0 0 1-73-15 42 42 0 0 1-22-54 51 51 0 0 1 5-8 25 25 0 0 1 0-5 42 42 0 0 1 57-15 128 128 0 0 0 125 0 42 42 0 0 1 58 17z m-162-125a42 42 0 1 1 42 42 42 42 0 0 1-42-42z" horiz-adv-x="1000" />

<glyph glyph-name="data-sharing" unicode="&#xea3a;" d="M855 689a208 208 0 0 1-378-6h-185a125 125 0 0 1-125-125v-166a42 42 0 0 1 83 0v166a42 42 0 0 0 42 42h115a125 125 0 0 1-32-83 125 125 0 0 1 125-125h305a153 153 0 0 1 50 297z m-50-214h-305a42 42 0 0 0 0 83 42 42 0 0 1 42 42 125 125 0 0 0 243 42 42 42 0 0 1 33-28 69 69 0 0 0 57-69 70 70 0 0 0-70-70z m-13-167a42 42 0 0 1-42-41v-125a42 42 0 0 0-42-42h-94a153 153 0 0 1-92 89 208 208 0 0 1-394-54 125 125 0 0 1 39-243h305a153 153 0 0 1 150 125h86a125 125 0 0 1 125 125v125a42 42 0 0 1-41 41z m-320-333h-305a42 42 0 0 0 0 83 42 42 0 0 1 41 42 125 125 0 0 0 244 42 42 42 0 0 1 32-28 69 69 0 0 0 58-69 70 70 0 0 0-70-70z" horiz-adv-x="1000" />

<glyph glyph-name="cloud-data-connection" unicode="&#xea3b;" d="M875 79h-257a125 125 0 0 1-76 76v133h132a180 180 0 0 1 54 354 250 250 0 0 1-476-68 146 146 0 0 1 40-286h166v-133a125 125 0 0 1-76-76h-257a42 42 0 0 1 0-83h257a125 125 0 0 1 235 0h258a42 42 0 0 1 0 83z m-583 292a63 63 0 0 0 0 125 42 42 0 0 1 41 42 167 167 0 0 0 325 53 42 42 0 0 1 32-28 96 96 0 0 0 81-95 97 97 0 0 0-97-97z m208-375a42 42 0 1 0 42 42 42 42 0 0 0-42-42z" horiz-adv-x="1000" />

<glyph glyph-name="backward" unicode="&#xea3c;" d="M861 606a110 110 0 0 1-111 0l-167-96h0a111 111 0 0 1-166 97l-278-161a111 111 0 0 1 0-192l278-161a111 111 0 0 1 111 0 110 110 0 0 1 55 97h0l167-97a112 112 0 0 1 55-15 109 109 0 0 1 56 16 110 110 0 0 1 56 96v320a110 110 0 0 1-56 96z m-361-416a28 28 0 0 0-14-25 29 29 0 0 0-28 0l-278 161a28 28 0 0 0 0 48l278 161a28 28 0 0 0 28 0 28 28 0 0 0 14-25z m333 0a28 28 0 0 0-41-24l-209 120v128l209 120a28 28 0 0 0 41-24z" horiz-adv-x="1000" />

<glyph glyph-name="camera" unicode="&#xea3d;" d="M792 579h-54l-13 42a125 125 0 0 1-118 83h-214a125 125 0 0 1-118-85l-13-42h-54a125 125 0 0 1-125-125v-333a125 125 0 0 1 125-125h584a125 125 0 0 1 125 125v333a125 125 0 0 1-125 127z m41-458a42 42 0 0 0-41-42h-584a42 42 0 0 0-41 42v333a42 42 0 0 0 41 42h84a42 42 0 0 1 41 28l23 69a42 42 0 0 0 39 28h214a42 42 0 0 0 39-28l23-69a42 42 0 0 1 37-28h84a42 42 0 0 0 41-42z m-333 375a167 167 0 1 1 167-167 167 167 0 0 1-167 167z m0-250a83 83 0 1 0 83 83 83 83 0 0 0-83-83z" horiz-adv-x="1000" />

<glyph glyph-name="music-tune-slash" unicode="&#xea3e;" d="M500 545a42 42 0 0 1 42 41v23l250 63v-123l-180-45a42 42 0 0 1 10-83l10 0 211 54 3 0 8 4 6 4a39 39 0 0 1 6 6 33 33 0 0 1 4 6 23 23 0 0 1 2 8 27 27 0 0 1 0 8 10 10 0 0 1 3 6v208a42 42 0 0 1-52 42l-333-84a42 42 0 0 1-32-41v-56a42 42 0 0 1 42-41z m405-542l-375 375h0l-375 375a42 42 0 0 1-60-58l363-362v-123a144 144 0 0 1-62 15 146 146 0 1 1 146-146v171l303-305a42 42 0 0 1 60 0 42 42 0 0 1 0 60z m-509 14a63 63 0 1 0 62 62 63 63 0 0 0-62-62z" horiz-adv-x="1000" />

<glyph glyph-name="user-times" unicode="&#xea3f;" d="M554 341a205 205 0 0 1 71 155 208 208 0 0 1-417 0 205 205 0 0 1 71-155 333 333 0 0 1-196-303 42 42 0 0 1 84 0 250 250 0 0 0 500 0 42 42 0 0 1 83 0 333 333 0 0 1-196 303z m-137 30a125 125 0 1 0 125 125 125 125 0 0 0-125-125z m454-21l34 33a42 42 0 0 1-60 59l-32-33-33 33a42 42 0 0 1-60-59l34-33-34-33a42 42 0 0 1 0-59 42 42 0 0 1 60 0l33 33 32-33a42 42 0 0 1 60 0 42 42 0 0 1 0 59z" horiz-adv-x="1000" />

<glyph glyph-name="scenery" unicode="&#xea40;" d="M792 767h-584a125 125 0 0 1-125-125v-584a125 125 0 0 1 125-125h584a117 117 0 0 1 20 2l13 3 2 0h0l3 0 15 6 5 3c5 3 9 5 13 8a158 158 0 0 1 16 13l3 4a112 112 0 0 1 11 13l4 5a96 96 0 0 1 8 15 42 42 0 0 1 2 6c3 5 4 11 5 16l0 6a108 108 0 0 1 5 25v584a125 125 0 0 1-125 125z m-584-750a42 42 0 0 0-41 41v180l137 137h0a42 42 0 0 0 59 0l358-358z m625 41a42 42 0 0 0-3-15 42 42 0 0 0-3-5 39 39 0 0 0-4-5l-223 222 37 37a42 42 0 0 0 59 0h0l137-137z m0 215l-78 77a128 128 0 0 1-177 0l-36-37-120 120a128 128 0 0 1-177 0l-78-77v286a42 42 0 0 0 41 41h584a42 42 0 0 0 41-41z m-270 327a63 63 0 1 1 62-62 63 63 0 0 1-62 62z" horiz-adv-x="1000" />

<glyph glyph-name="user-check" unicode="&#xea41;" d="M554 341a205 205 0 0 1 71 155 208 208 0 0 1-417 0 205 205 0 0 1 71-155 333 333 0 0 1-196-303 42 42 0 0 1 84 0 250 250 0 0 0 500 0 42 42 0 0 1 83 0 333 333 0 0 1-196 303z m-137 30a125 125 0 1 0 125 125 125 125 0 0 0-125-125z m488 99a42 42 0 0 1-60 0l-83-84-26 27a42 42 0 0 1-59 0 42 42 0 0 1 0-59l56-56a42 42 0 0 1 59 0l111 111a42 42 0 0 1 2 61z" horiz-adv-x="1000" />

<glyph glyph-name="headphones" unicode="&#xea42;" d="M500 725a417 417 0 0 1-417-417v-291a42 42 0 0 1 42-42h125a125 125 0 0 1 125 125v83a125 125 0 0 1-125 125h-83a333 333 0 0 0 666 0h-83a125 125 0 0 1-125-125v-83a125 125 0 0 1 125-125h125a42 42 0 0 1 42 42v291a417 417 0 0 1-417 417z m-250-500a42 42 0 0 0 42-42v-83a42 42 0 0 0-42-42h-83v167z m583-167h-83a42 42 0 0 0-42 42v83a42 42 0 0 0 42 42h83z" horiz-adv-x="1000" />

<glyph glyph-name="step-backward" unicode="&#xea43;" d="M845 707a135 135 0 0 1-137 0l-375-225v118a125 125 0 0 1-250 0v-500a125 125 0 0 1 250 0v118l375-223a137 137 0 0 1 70-20 135 135 0 0 1 67 18 141 141 0 0 1 72 125v465a141 141 0 0 1-72 124z m-595-607a42 42 0 0 0-83 0v500a42 42 0 0 0 83 0z m583 18a58 58 0 0 0-29-53 51 51 0 0 0-54 0l-388 234a60 60 0 0 0 0 102l388 233a51 51 0 0 0 28 8 54 54 0 0 0 26-7 58 58 0 0 0 29-52z" horiz-adv-x="1000" />

<glyph glyph-name="image-search" unicode="&#xea44;" d="M792 308a42 42 0 0 1-42-41v-17l-62 62a116 116 0 0 1-163 0l-30-29-103 104a120 120 0 0 1-164 0l-61-62v233a42 42 0 0 0 41 42h167a42 42 0 0 1 0 83h-167a125 125 0 0 1-125-125v-500a125 125 0 0 1 125-125h500a125 125 0 0 1 125 125v209a42 42 0 0 1-41 41z m-584-291a42 42 0 0 0-41 41v149l121 121a33 33 0 0 0 45 0l132-133 0 0 179-178z m542 41a42 42 0 0 0-7-22l-188 189 29 29a32 32 0 0 0 46 0l120-121z m155 363l-72 72a180 180 0 1 1-280-33 178 178 0 0 1 125-52 181 181 0 0 1 96 25l71-72a42 42 0 0 1 60 0 42 42 0 0 1 0 60z m-155 96a97 97 0 1 0 0 136 97 97 0 0 0 0-136z" horiz-adv-x="1000" />

<glyph glyph-name="image-minus" unicode="&#xea45;" d="M875 683h-167a42 42 0 0 1 0-83h167a42 42 0 0 1 0 83z m-83-166a42 42 0 0 1-42-42v-225l-62 62a116 116 0 0 1-163 0l-29-29-104 104a116 116 0 0 1-164 0l-61-62v233a42 42 0 0 0 41 42h334a42 42 0 0 1 0 83h-334a125 125 0 0 1-125-125v-500a125 125 0 0 1 125-125h500a125 125 0 0 1 125 125v417a42 42 0 0 1-41 42z m-584-500a42 42 0 0 0-41 41v149l120 121a33 33 0 0 0 46 0l132-132c0-1 1-1 1-2l178-177z m542 41a40 40 0 0 0-7-22l-189 188 30 29a32 32 0 0 0 45 0l121-120z" horiz-adv-x="1000" />

<glyph glyph-name="window-section" unicode="&#xea46;" d="M875 767h-750a42 42 0 0 1-42-42v-750a42 42 0 0 1 42-42h750a42 42 0 0 1 42 42v750a42 42 0 0 1-42 42z m-542-750h-166v416h166z m250 0h-166v416h166z m250 0h-166v416h166z m0 500h-666v166h666z" horiz-adv-x="1000" />

<glyph glyph-name="play-circle" unicode="&#xea47;" d="M667 422l-209 121a83 83 0 0 1-125-73v-240a83 83 0 0 1 42-72 83 83 0 0 1 83 0l209 120a83 83 0 0 1 0 144z m-42-72l-208-120v240l208-120z m-125 417a417 417 0 1 1 417-417 417 417 0 0 1-417 417z m0-750a333 333 0 1 0 333 333 333 333 0 0 0-333-333z" horiz-adv-x="1000" />

<glyph glyph-name="pause-circle" unicode="&#xea48;" d="M417 558a42 42 0 0 1-42-41v-334a42 42 0 0 1 83 0v334a42 42 0 0 1-41 41z m83 209a417 417 0 1 1 417-417 417 417 0 0 1-417 417z m0-750a333 333 0 1 0 333 333 333 333 0 0 0-333-333z m83 541a42 42 0 0 1-41-41v-334a42 42 0 0 1 83 0v334a42 42 0 0 1-42 41z" horiz-adv-x="1000" />

<glyph glyph-name="image-shield" unicode="&#xea4a;" d="M922 752a42 42 0 0 1-35 8 113 113 0 0 0-92 20 42 42 0 0 1-49 0 113 113 0 0 0-91-20 42 42 0 0 1-35-8 42 42 0 0 1-16-33v-138a193 193 0 0 1 77-154l65-48a42 42 0 0 1 49 0l66 48a193 193 0 0 1 76 154v138a42 42 0 0 1-15 33z m-68-171a109 109 0 0 0-41-87l-42-30-42 30a109 109 0 0 0-41 87v93a200 200 0 0 1 83 23 200 200 0 0 1 83-23z m-83-293a42 42 0 0 1-42-42v-16l-62 61a115 115 0 0 1-164 0l-29-29-103 104a119 119 0 0 1-163 0l-62-62v234a42 42 0 0 0 41 41h292a42 42 0 0 1 0 84h-291a125 125 0 0 1-125-125v-500a125 125 0 0 1 125-126h500a125 125 0 0 1 125 126v208a42 42 0 0 1-42 42z m-583-292a42 42 0 0 0-42 42v148l121 122a33 33 0 0 0 45 0l132-132 0 0 181-180z m541 42a42 42 0 0 0-7-23l-188 188 29 29a33 33 0 0 0 46 0l120-120z" horiz-adv-x="1000" />

<glyph glyph-name="window" unicode="&#xea4b;" d="M417 642a42 42 0 1 1 41-42 42 42 0 0 1-41 42z m-167 0a42 42 0 1 1 42-42 42 42 0 0 1-42 42z m333 0a42 42 0 1 1 42-42 42 42 0 0 1-42 42z m250 166h-666a125 125 0 0 1-125-125v-666a125 125 0 0 1 125-125h666a125 125 0 0 1 125 125v666a125 125 0 0 1-125 125z m42-791a42 42 0 0 0-42-42h-666a42 42 0 0 0-42 42v375h750z m0 458h-750v208a42 42 0 0 0 42 42h666a42 42 0 0 0 42-42z" horiz-adv-x="1000" />

<glyph glyph-name="pause" unicode="&#xea4c;" d="M667 767a125 125 0 0 1-125-125v-584a125 125 0 0 1 250 0v584a125 125 0 0 1-125 125z m41-709a42 42 0 0 0-83 0v584a42 42 0 0 0 83 0z m-375 709a125 125 0 0 1-125-125v-584a125 125 0 0 1 250 0v584a125 125 0 0 1-125 125z m42-709a42 42 0 0 0-83 0v584a42 42 0 0 0 83 0z" horiz-adv-x="1000" />

<glyph glyph-name="server-alt" unicode="&#xea4d;" d="M333 142a42 42 0 1 1 42-42 42 42 0 0 1-42 42z m0 250a42 42 0 1 1 42-42 42 42 0 0 1-42 42z m0 250a42 42 0 1 1 42-42 42 42 0 0 1-42 42z m500 0a125 125 0 0 1-125 125h-416a125 125 0 0 1-125-125v-84a125 125 0 0 1 32-83 125 125 0 0 1-32-83v-84a125 125 0 0 1 32-83 125 125 0 0 1-32-83v-84a125 125 0 0 1 125-125h416a125 125 0 0 1 125 125v84a125 125 0 0 1-32 83 125 125 0 0 1 32 83v84a125 125 0 0 1-32 83 125 125 0 0 1 32 83z m-83-584a42 42 0 0 0-42-41h-416a42 42 0 0 0-42 41v84a42 42 0 0 0 42 41h416a42 42 0 0 0 42-41z m0 250a42 42 0 0 0-42-41h-416a42 42 0 0 0-42 41v84a42 42 0 0 0 42 41h416a42 42 0 0 0 42-41z m0 250a42 42 0 0 0-42-41h-416a42 42 0 0 0-42 41v84a42 42 0 0 0 42 41h416a42 42 0 0 0 42-41z" horiz-adv-x="1000" />

<glyph glyph-name="image-question" unicode="&#xea4e;" d="M792 308a42 42 0 0 1-42-41v-17l-62 62a115 115 0 0 1-163 0l-30-29-103 104a119 119 0 0 1-164 0l-61-62v233a42 42 0 0 0 41 42h334a42 42 0 0 1 0 83h-334a125 125 0 0 1-125-125v-500a125 125 0 0 1 125-125h500a125 125 0 0 1 125 125v209a42 42 0 0 1-41 41z m-584-291a42 42 0 0 0-41 41v149l121 121a33 33 0 0 0 45 0l132-132 0 0 179-179z m542 41a42 42 0 0 0-7-22l-188 189 29 29a33 33 0 0 0 46 0l120-121z m42 709a125 125 0 0 1-109-63 42 42 0 0 1 16-57 42 42 0 0 1 56 16 42 42 0 0 0 78-21 42 42 0 0 0-41-42 42 42 0 0 1 0-83 125 125 0 0 1 0 250z m16-295a42 42 0 0 1-25 3l-7-2-8-4-6-6a42 42 0 0 1-12-30 42 42 0 0 1 12-29 42 42 0 0 1 59 0 42 42 0 0 1 12 29 42 42 0 0 1-26 39z" horiz-adv-x="1000" />

<glyph glyph-name="music" unicode="&#xea4f;" d="M902 757a42 42 0 0 1-33 9l-542-83a42 42 0 0 1-35-41v-432a144 144 0 0 1-63 15 146 146 0 1 1 146-146v319l458 70v-174a144 144 0 0 1-62 14 146 146 0 1 1 146-145v562a42 42 0 0 1-15 32z m-673-740a63 63 0 1 0 63 62 63 63 0 0 0-63-62z m542 83a63 63 0 1 0 62 63 63 63 0 0 0-62-63z m62 453l-458-71v125l458 69z" horiz-adv-x="1000" />

<glyph glyph-name="image-block" unicode="&#xea50;" d="M856 748a208 208 0 1 1 61-148 208 208 0 0 1-61 148z m-273-148a125 125 0 0 0 125 125 125 125 0 0 0 54-12l-167-167a125 125 0 0 0-12 54z m214-88a128 128 0 0 0-142-24l167 167a125 125 0 0 0 11-55 125 125 0 0 0-36-88z m-5-204a42 42 0 0 1-42-41v-17l-62 63a120 120 0 0 1-163 0l-30-30-103 104a120 120 0 0 1-164 0l-61-62v233a42 42 0 0 0 41 42h167a42 42 0 0 1 0 83h-167a125 125 0 0 1-125-125v-500a125 125 0 0 1 125-125h500a125 125 0 0 1 40 7l4 0a125 125 0 0 1 81 100 60 60 0 0 1 0 9v218a42 42 0 0 1-41 41z m-584-291a42 42 0 0 0-41 41v149l121 121a33 33 0 0 0 45 0l133-133h0l178-178z m542 41a42 42 0 0 0-7-22l-189 189 30 29a33 33 0 0 0 45 0l121-121z" horiz-adv-x="1000" />

<glyph glyph-name="music-note" unicode="&#xea51;" d="M797 758a42 42 0 0 1-36 9l-333-84a42 42 0 0 1-32-41v-432a144 144 0 0 1-63 15 146 146 0 1 1 146-146v322l302 74 3 0 8 6 6 4a39 39 0 0 1 5 7 33 33 0 0 1 4 6 23 23 0 0 1 3 7 24 24 0 0 1 0 8 10 10 0 0 1 0 4v208a42 42 0 0 1-13 33z m-464-741a63 63 0 1 0 63 62 63 63 0 0 0-63-62z m396 532l-250-62v122l250 63z" horiz-adv-x="1000" />

<glyph glyph-name="step-forward" unicode="&#xea52;" d="M363 546a42 42 0 1 1-59-59l137-137-137-137a42 42 0 0 1 0-59 42 42 0 0 1 59 0l167 166a42 42 0 0 1 0 60z m304 12a42 42 0 0 1-42-41v-334a42 42 0 0 1 83 0v334a42 42 0 0 1-41 41z" horiz-adv-x="1000" />

<glyph glyph-name="image-redo" unicode="&#xea53;" d="M896 788a42 42 0 0 1-42-42h0a208 208 0 1 1 13-323 42 42 0 0 1-55 63 125 125 0 1 0 10 177h-51a42 42 0 0 1 0-83h125a42 42 0 0 1 41 41v125a42 42 0 0 1-41 42z m-125-500a42 42 0 0 1-42-42v-16l-62 61a115 115 0 0 1-164 0l-29-29-103 104a116 116 0 0 1-163 0l-62-62v234a42 42 0 0 0 41 41h209a42 42 0 0 1 0 84h-209a125 125 0 0 1-125-125v-500a125 125 0 0 1 125-126h501a125 125 0 0 1 125 126v208a42 42 0 0 1-42 42z m-583-292a42 42 0 0 0-42 42v148l121 122a33 33 0 0 0 45 0l132-132 0 0 181-180z m541 42a42 42 0 0 0-7-23l-188 188 29 29a33 33 0 0 0 46 0l120-120z" horiz-adv-x="1000" />

<glyph glyph-name="image" unicode="&#xea54;" d="M792 683h-584a125 125 0 0 1-125-125v-416a125 125 0 0 1 125-125h584a125 125 0 0 1 125 125v416a125 125 0 0 1-125 125z m-584-583a42 42 0 0 0-41 42v101l137 137a42 42 0 0 0 58 0l280-280z m625 42a42 42 0 0 0-41-42h-32l-159 160 36 36a42 42 0 0 0 59 0l137-137z m0 135l-78 78a128 128 0 0 1-177 0l-36-37-120 120a128 128 0 0 1-177 0l-78-78v198a42 42 0 0 0 41 42h584a42 42 0 0 0 41-42z" horiz-adv-x="1000" />

<glyph glyph-name="picture" unicode="&#xea55;" d="M833 683a42 42 0 0 1 30 71 42 42 0 0 1-59 0 42 42 0 0 1-9-13 35 35 0 0 1-3-16 42 42 0 0 1 41-42z m0-375a42 42 0 0 1-41-41v-17l-62 62a115 115 0 0 1-164 0l-29-29-103 104a119 119 0 0 1-164 0l-62-62v233a42 42 0 0 0 42 42h417a42 42 0 0 1 0 83h-417a125 125 0 0 1-125-125v-500a125 125 0 0 1 125-125h500a125 125 0 0 1 125 125v209a42 42 0 0 1-42 41z m-583-291a42 42 0 0 0-42 41v149l121 121a33 33 0 0 0 46 0l132-132 0 0 178-179z m542 41a42 42 0 0 0-8-22l-188 189 29 29a33 33 0 0 0 46 0l121-121z m41 584a42 42 0 0 1-41-42v-167a42 42 0 0 1 83 0v167a42 42 0 0 1-42 42z" horiz-adv-x="1000" />

<glyph glyph-name="image-download" unicode="&#xea56;" d="M946 588a42 42 0 0 1-59 0l-54-54v233a42 42 0 0 1-83 0v-233l-54 54a42 42 0 0 1-59-59l125-125a42 42 0 0 1 14-9 39 39 0 0 1 31 0 42 42 0 0 1 14 9l125 125a42 42 0 0 1 0 59z m-154-280a42 42 0 0 1-42-41v-16l-62 62a116 116 0 0 1-163 0l-30-30-103 104a119 119 0 0 1-164 0l-61-62v233a42 42 0 0 0 41 42h334a42 42 0 0 1 0 83h-334a125 125 0 0 1-125-125v-500a125 125 0 0 1 125-125h500a125 125 0 0 1 125 125v209a42 42 0 0 1-41 41z m-584-291a42 42 0 0 0-41 41v149l121 121a33 33 0 0 0 45 0l132-132 0 0 179-179z m542 41a37 37 0 0 0-7-22l-188 189 29 29a32 32 0 0 0 46 0l120-121z" horiz-adv-x="1000" />

<glyph glyph-name="image-v" unicode="&#xea57;" d="M792 767h-584a125 125 0 0 1-125-125v-584a125 125 0 0 1 125-125h584a117 117 0 0 1 20 2l13 3 2 0h0l3 0 15 6 5 3c5 3 9 5 13 8a158 158 0 0 1 16 13l3 4a112 112 0 0 1 11 13l4 5a96 96 0 0 1 8 15 42 42 0 0 1 2 6c3 5 4 11 5 16l0 6a108 108 0 0 1 5 25v584a125 125 0 0 1-125 125z m-584-750a42 42 0 0 0-41 41v180l137 137h0a42 42 0 0 0 59 0l358-358z m625 41a42 42 0 0 0-3-15 42 42 0 0 0-3-5 39 39 0 0 0-4-5l-223 222 37 37a42 42 0 0 0 59 0h0l137-137z m0 215l-78 77a128 128 0 0 1-177 0l-36-37-120 120a128 128 0 0 1-177 0l-78-77v286a42 42 0 0 0 41 41h584a42 42 0 0 0 41-41z" horiz-adv-x="1000" />

<glyph glyph-name="forward" unicode="&#xea58;" d="M861 446l-278 161a111 111 0 0 1-166-97h0l-167 97a111 111 0 0 1-167-97v-320a110 110 0 0 1 56-96 109 109 0 0 1 56-16 112 112 0 0 1 55 15l167 97h0a110 110 0 0 1 55-97 111 111 0 0 1 111 0l278 161a111 111 0 0 1 0 192z m-444-160l-209-120a28 28 0 0 0-41 24v320a28 28 0 0 0 41 24l209-120z m403 42l-278-163a29 29 0 0 0-28 0 28 28 0 0 0-14 25v320a28 28 0 0 0 14 25 33 33 0 0 0 14 3 26 26 0 0 0 14-3l278-161a28 28 0 0 0 0-48z" horiz-adv-x="1000" />

<glyph glyph-name="image-times" unicode="&#xea59;" d="M792 433a42 42 0 0 1-42-41v-142l-62 62a115 115 0 0 1-163 0l-30-29-103 104a116 116 0 0 1-164 0l-61-62v233a42 42 0 0 0 41 42h334a42 42 0 0 1 0 83h-334a125 125 0 0 1-125-125v-500a125 125 0 0 1 125-125h500a125 125 0 0 1 125 125v334a42 42 0 0 1-41 41z m-584-416a42 42 0 0 0-41 41v149l121 121a33 33 0 0 0 45 0l132-132 0 0 179-179z m542 41a37 37 0 0 0-7-22l-188 189 29 29a33 33 0 0 0 46 0l120-121z m100 584l55 53a42 42 0 0 1 0 59 42 42 0 0 1-60 0l-53-54-54 54a42 42 0 0 1-59 0 42 42 0 0 1 0-59l54-53-54-54a42 42 0 0 1 0-59 42 42 0 0 1 59 0l54 54 53-54a42 42 0 0 1 60 0 42 42 0 0 1 0 59z" horiz-adv-x="1000" />

<glyph glyph-name="headphones-alt" unicode="&#xea5a;" d="M833 301v91a333 333 0 0 1-666 0v-91a125 125 0 0 1-84-118v-83a125 125 0 0 1 125-125h125a42 42 0 0 1 42 42v250a42 42 0 0 1-42 41h-83v84a250 250 0 0 0 500 0v-84h-83a42 42 0 0 1-42-41v-250a42 42 0 0 1 42-42h125a125 125 0 0 1 125 125v83a125 125 0 0 1-84 118z m-541-76v-167h-84a42 42 0 0 0-41 42v83a42 42 0 0 0 41 42z m541-125a42 42 0 0 0-41-42h-84v167h84a42 42 0 0 0 41-42z" horiz-adv-x="1000" />
</font>
</defs>
</svg>
