<?xml version="1.0" standalone="no"?>
<!DOCTYPE svg PUBLIC "-//W3C//DTD SVG 1.1//EN" "http://www.w3.org/Graphics/SVG/1.1/DTD/svg11.dtd">
<svg xmlns="http://www.w3.org/2000/svg">
<metadata>IconScout</metadata>
<defs>
<font id="unicons-6" horiz-adv-x="1000" >
<font-face font-family="unicons-6" font-weight="400" font-stretch="normal" units-per-em="1000" ascent="850" descent="-150" />
<missing-glyph horiz-adv-x="1000" />
<glyph glyph-name="tablet" unicode="&#xe968;" d="M708 767h-416a125 125 0 0 1-125-125v-584a125 125 0 0 1 125-125h416a125 125 0 0 1 125 125v584a125 125 0 0 1-125 125z m42-709a42 42 0 0 0-42-41h-416a42 42 0 0 0-42 41v584a42 42 0 0 0 42 41h416a42 42 0 0 0 42-41z m-220 113a42 42 0 0 1-38 12l-8-2a32 32 0 0 1-7-4l-7-5a42 42 0 0 1-8-14 42 42 0 0 1 8-45 61 61 0 0 1 14-9 42 42 0 0 1 46 9 42 42 0 0 1 12 29 35 35 0 0 1-4 16 48 48 0 0 1-8 13z" horiz-adv-x="1000" />

<glyph glyph-name="desktop" unicode="&#xe969;" d="M792 725h-584a125 125 0 0 1-125-125v-333a125 125 0 0 1 125-125h250v-84h-166a42 42 0 0 1 0-83h416a42 42 0 0 1 0 83h-166v84h250a125 125 0 0 1 125 125v333a125 125 0 0 1-125 125z m41-458a42 42 0 0 0-41-42h-584a42 42 0 0 0-41 42v333a42 42 0 0 0 41 42h584a42 42 0 0 0 41-42z" horiz-adv-x="1000" />

<glyph glyph-name="mobile-android-alt" unicode="&#xe96a;" d="M667 767h-334a125 125 0 0 1-125-125v-584a125 125 0 0 1 125-125h334a125 125 0 0 1 125 125v584a125 125 0 0 1-125 125z m41-709a42 42 0 0 0-41-41h-334a42 42 0 0 0-41 41v42h416z m0 125h-416v459a42 42 0 0 0 41 41h334a42 42 0 0 0 41-41z" horiz-adv-x="1000" />

<glyph glyph-name="search-alt" unicode="&#xe96b;" d="M878 149l-86 88a128 128 0 0 1-142 24l-37 37a292 292 0 1 1-59-58l37-37a125 125 0 0 1 22-145l88-88a125 125 0 0 1 177 0 125 125 0 0 1 0 179z m-353 176a208 208 0 1 0 0 295 208 208 0 0 0 0-295z m294-294a42 42 0 0 0-59 0l-88 88a42 42 0 0 0 0 59 42 42 0 0 0 59 0l88-88a42 42 0 0 0 0-59z" horiz-adv-x="1000" />

<glyph glyph-name="volume-up" unicode="&#xe96c;" d="M518 679a42 42 0 0 1-42-5l-199-157h-152a42 42 0 0 1-42-42v-250a42 42 0 0 1 42-42h152l197-157a42 42 0 0 1 26-9 38 38 0 0 1 18 4 42 42 0 0 1 24 37v584a42 42 0 0 1-24 37z m-60-534l-140 113a42 42 0 0 1-26 9h-125v166h125a42 42 0 0 1 25 10l141 112z m173 535a42 42 0 1 1-12-84 250 250 0 0 0 0-494 42 42 0 0 1 6-83h6a333 333 0 0 1 0 659z m-19-408a42 42 0 0 1 13-83 47 47 0 0 1 13 2 167 167 0 0 1 0 314 42 42 0 0 1-26-79 83 83 0 0 0 0-156z" horiz-adv-x="1000" />

<glyph glyph-name="mouse" unicode="&#xe96d;" d="M500 767a292 292 0 0 1-292-292v-250a292 292 0 0 1 584 0v250a292 292 0 0 1-292 292z m-208-292a208 208 0 0 0 166 204v-246h-166z m416-250a208 208 0 0 0-416 0v125h416z m0 208h-166v246a208 208 0 0 0 166-204z" horiz-adv-x="1000" />

<glyph glyph-name="mouse-alt-2" unicode="&#xe96e;" d="M500 767a292 292 0 0 1-292-292v-250a292 292 0 0 1 584 0v250a292 292 0 0 1-292 292z m208-542a208 208 0 0 0-416 0v250a208 208 0 0 0 166 204v-329a42 42 0 0 1 84 0v329a208 208 0 0 0 166-204z" horiz-adv-x="1000" />

<glyph glyph-name="mobile-android" unicode="&#xe96f;" d="M530 171l-7 5a32 32 0 0 1-7 4l-8 3a42 42 0 0 1-38-11 48 48 0 0 1-8-14 42 42 0 0 1 54-54 61 61 0 0 1 14 9 42 42 0 0 1 8 45 42 42 0 0 1-8 13z m137 596h-334a125 125 0 0 1-125-125v-584a125 125 0 0 1 125-125h334a125 125 0 0 1 125 125v584a125 125 0 0 1-125 125z m41-709a42 42 0 0 0-41-41h-334a42 42 0 0 0-41 41v584a42 42 0 0 0 41 41h334a42 42 0 0 0 41-41z" horiz-adv-x="1000" />

<glyph glyph-name="laptop" unicode="&#xe970;" d="M875 267h-42v291a125 125 0 0 1-125 125h-416a125 125 0 0 1-125-125v-291h-42a42 42 0 0 1-42-42v-83a125 125 0 0 1 125-125h584a125 125 0 0 1 125 125v83a42 42 0 0 1-42 42z m-625 291a42 42 0 0 0 42 42h416a42 42 0 0 0 42-42v-291h-500z m583-416a42 42 0 0 0-41-42h-584a42 42 0 0 0-41 42v41h666z" horiz-adv-x="1000" />

<glyph glyph-name="search-minus" unicode="&#xe971;" d="M905 5l-155 153a375 375 0 1 1-58-58l153-153a42 42 0 0 1 60 0 42 42 0 0 1 0 58z m-447 95a292 292 0 1 0 292 292 292 292 0 0 0-292-292z m167 333h-333a42 42 0 0 1 0-83h333a42 42 0 0 1 0 83z" horiz-adv-x="1000" />

<glyph glyph-name="bluetooth-b" unicode="&#xe972;" d="M559 350l158 158a42 42 0 0 1 0 59l-187 188a42 42 0 0 1-14 8 42 42 0 0 1-32 0 42 42 0 0 1-22-22 42 42 0 0 1-4-16v-275l-116 117a42 42 0 1 1-59-59l158-158-158-158a42 42 0 1 1 59-59l116 117v-275a42 42 0 0 1 4-16 42 42 0 0 1 22-22 39 39 0 0 1 32 0 42 42 0 0 1 14 8l187 188a42 42 0 0 1 0 59z m-17 275l87-87-87-88z m0-550v175l87-87z" horiz-adv-x="1000" />

<glyph glyph-name="video-slash" unicode="&#xe973;" d="M321 588h0l-166 167a42 42 0 0 1-60-60l98-95a125 125 0 0 1-110-125v-250a125 125 0 0 1 125-125h375a125 125 0 0 1 79 29l183-184a42 42 0 0 1 60 0 42 42 0 0 1 0 60z m262-405h-375a42 42 0 0 0-41 42v250a42 42 0 0 0 41 42h67l328-329a42 42 0 0 0-20-5z m314 369a42 42 0 0 1-42 0l-147-72a125 125 0 0 1-125 120h-55a42 42 0 0 1 0-83h55a42 42 0 0 0 42-42v-62h0a68 68 0 0 1 0-8 27 27 0 0 1 2-9h0s2-2 3-4a42 42 0 0 1 6-9s4-2 6-4l8-4a35 35 0 0 1 9 0 29 29 0 0 1 6 0h0a68 68 0 0 1 8 0 27 27 0 0 1 8 2h0l152 72v-238a42 42 0 1 1 84 0v306a42 42 0 0 1-20 35z" horiz-adv-x="1000" />

<glyph glyph-name="search-plus" unicode="&#xe974;" d="M625 433h-125v125a42 42 0 0 1-83 0v-125h-125a42 42 0 0 1 0-83h125v-125a42 42 0 0 1 83 0v125h125a42 42 0 0 1 0 83z m280-428l-155 153a375 375 0 1 1-58-58l153-153a42 42 0 0 1 60 0 42 42 0 0 1 0 58z m-447 95a292 292 0 1 0 292 292 292 292 0 0 0-292-292z" horiz-adv-x="1000" />

<glyph glyph-name="tv-retro" unicode="&#xe975;" d="M750 600h-150l96 95a42 42 0 1 1-59 60l-137-136-49 84a42 42 0 1 1-72-42l38-61h-167a125 125 0 0 1-125-125v-333a125 125 0 0 1 125-125v-42a42 42 0 0 1 83 0v42h334v-42a42 42 0 0 1 83 0v42a125 125 0 0 1 125 125v333a125 125 0 0 1-125 125z m42-458a42 42 0 0 0-42-42h-500a42 42 0 0 0-42 42v333a42 42 0 0 0 42 42h500a42 42 0 0 0 42-42z" horiz-adv-x="1000" />

<glyph glyph-name="toggle-on" unicode="&#xe976;" d="M667 496a146 146 0 1 1 146-146 146 146 0 0 1-146 146z m0-208a63 63 0 1 0 62 62 63 63 0 0 0-62-62z m0 354h-334a292 292 0 0 1 0-584h334a292 292 0 0 1 0 584z m0-500h-334a208 208 0 0 0 0 416h334a208 208 0 0 0 0-416z" horiz-adv-x="1000" />

<glyph glyph-name="toggle-off" unicode="&#xe977;" d="M333 496a146 146 0 1 1 146-146 146 146 0 0 1-146 146z m0-208a63 63 0 1 0 63 62 63 63 0 0 0-63-62z m334 354h-334a292 292 0 0 1 0-584h334a292 292 0 0 1 0 584z m0-500h-334a208 208 0 0 0 0 416h334a208 208 0 0 0 0-416z" horiz-adv-x="1000" />

<glyph glyph-name="traffic-light" unicode="&#xe978;" d="M500 621a63 63 0 1 1 63-63 63 63 0 0 1-63 63z m417-125h-23a250 250 0 0 1 64 167 42 42 0 0 1-41 41h-174a125 125 0 0 1-118 84h-250a125 125 0 0 1-117-84h-175a42 42 0 0 1-41-41 250 250 0 0 1 64-167h-23a42 42 0 0 1-41-42 250 250 0 0 1 64-166h-23a42 42 0 0 1-41-42 250 250 0 0 1 215-247 125 125 0 0 1 118-87h250a125 125 0 0 1 118 87 250 250 0 0 1 215 247 42 42 0 0 1-41 42h-23a250 250 0 0 1 64 166 42 42 0 0 1-41 42z m-667-411a167 167 0 0 0-120 119h120z m0 208a167 167 0 0 0-120 120h120z m0 208a170 170 0 0 0-76 42 170 170 0 0 0-42 76h118z m417-463a42 42 0 0 0-42-42h-250a42 42 0 0 0-42 42v625a42 42 0 0 0 42 41h250a42 42 0 0 0 42-41z m159 90a170 170 0 0 0-76-42v118h120a170 170 0 0 0-44-76z m0 208a170 170 0 0 0-76-41v118h120a170 170 0 0 0-44-77z m0 209a170 170 0 0 0-76-42v118h120a170 170 0 0 0-44-76z m-326-341a63 63 0 1 1 63-62 63 63 0 0 1-63 62z m0 209a63 63 0 1 1 63-63 63 63 0 0 1-63 63z" horiz-adv-x="1000" />

<glyph glyph-name="bolt" unicode="&#xe979;" d="M828 492a42 42 0 0 1-36 25h-191l53 197a42 42 0 0 1-7 36 42 42 0 0 1-33 17h-292a42 42 0 0 1-42-31l-111-417a42 42 0 0 1 7-36 42 42 0 0 1 33-16h161l-75-281a42 42 0 0 1 71-39l454 500a42 42 0 0 1 8 45z m-408-362l45 167a42 42 0 0 1-7 36 42 42 0 0 1-33 16h-160l89 334h205l-53-197a42 42 0 0 1 42-53h149z" horiz-adv-x="1000" />

<glyph glyph-name="trash-alt" unicode="&#xe97a;" d="M417 100a42 42 0 0 1 41 42v250a42 42 0 0 1-83 0v-250a42 42 0 0 1 42-42z m416 500h-166v42a125 125 0 0 1-125 125h-84a125 125 0 0 1-125-125v-42h-166a42 42 0 0 1 0-83h41v-459a125 125 0 0 1 125-125h334a125 125 0 0 1 125 125v459h41a42 42 0 0 1 0 83z m-416 42a42 42 0 0 0 41 41h84a42 42 0 0 0 41-41v-42h-166z m291-584a42 42 0 0 0-41-41h-334a42 42 0 0 0-41 41v459h416z m-125 42a42 42 0 0 1 42 42v250a42 42 0 0 1-83 0v-250a42 42 0 0 1 41-42z" horiz-adv-x="1000" />

<glyph glyph-name="star-half-alt" unicode="&#xe97b;" d="M917 447a42 42 0 0 1-36 28l-237 35-106 215a42 42 0 0 1-75 0l-107-215-237-35a42 42 0 0 1-34-28 42 42 0 0 1 11-42l172-167-42-236a42 42 0 0 1 62-45l212 111 213-111a39 39 0 0 1 19-5 42 42 0 0 1 24 8 42 42 0 0 1 17 41l-42 237 172 167a42 42 0 0 1 14 42z m-459-305l-134-71 30 175a42 42 0 0 1-12 37l-125 125 175 25a42 42 0 0 1 32 23l34 72z m200 141a42 42 0 0 1-12-37l30-175-134 71v386l36-75a42 42 0 0 1 32-23l175-25z" horiz-adv-x="1000" />

<glyph glyph-name="utensils-alt" unicode="&#xe97c;" d="M647 261a42 42 0 0 1-59 0 42 42 0 0 1 0-58l257-258a42 42 0 0 1 60 0 42 42 0 0 1 0 59z m51 104a125 125 0 0 1 89 37l118 118a42 42 0 0 1 0 58 42 42 0 0 1-60 0l-117-118a42 42 0 0 0-59 0l147 148a42 42 0 0 1 0 59 42 42 0 0 1-59 0l-147-147h0a42 42 0 0 0 0 58l118 118a42 42 0 1 1-59 59l-118-118a125 125 0 0 1 0-177h0l-51-51-65 64a173 173 0 0 1-31 208c-60 60-215 127-289 53s-7-229 52-289a182 182 0 0 1 122-53h6a162 162 0 0 1 80 22l65-64-345-345a42 42 0 1 1 60-59l375 375 0 0 0 0 80 80a125 125 0 0 1 88-36z m-347 133a80 80 0 0 0-59-23 94 94 0 0 0-65 29c-45 45-76 147-52 171a42 42 0 0 0 27 8 245 245 0 0 0 143-61 88 88 0 0 0 6-124z" horiz-adv-x="1000" />

<glyph glyph-name="share-alt" unicode="&#xe97d;" d="M750 267a167 167 0 0 1-128-62l-213 98a152 152 0 0 1 0 94l213 98a167 167 0 1 1-39 105 174 174 0 0 1 3-30l-220-101a167 167 0 1 1 0-238l220-101a174 174 0 0 1-3-30 167 167 0 1 1 167 167z m0 416a83 83 0 1 0-83-83 83 83 0 0 0 83 83z m-500-416a83 83 0 1 0 83 83 83 83 0 0 0-83-83z m500-250a83 83 0 1 0 83 83 83 83 0 0 0-83-83z" horiz-adv-x="1000" />

<glyph glyph-name="volume-down" unicode="&#xe97e;" d="M785 468a42 42 0 1 1-60-59 83 83 0 0 0 25-59 83 83 0 0 0-30-64 42 42 0 0 1-5-58 42 42 0 0 1 59-5 167 167 0 0 1 59 127 169 169 0 0 1-48 118z m-184 211a42 42 0 0 1-41-5l-200-157h-152a42 42 0 0 1-41-42v-250a42 42 0 0 1 41-42h152l198-157a42 42 0 0 1 25-9 38 38 0 0 1 18 4 42 42 0 0 1 24 37v584a42 42 0 0 1-24 37z m-59-534l-141 113a42 42 0 0 1-26 9h-125v166h125a42 42 0 0 1 26 10l141 112z" horiz-adv-x="1000" />

<glyph glyph-name="wifi" unicode="&#xe97f;" d="M500 225a125 125 0 1 1 125-125 125 125 0 0 1-125 125z m0-167a42 42 0 1 0 42 42 42 42 0 0 0-42-42z m0 334a294 294 0 0 1-206-86 42 42 0 0 1 0-58 42 42 0 0 1 59 0 208 208 0 0 0 295 0 42 42 0 0 1 29-13 42 42 0 0 1 31 71 294 294 0 0 1-208 86z m0 166a462 462 0 0 1-324-134 42 42 0 0 1 59-59 375 375 0 0 0 530 0 42 42 0 0 1 30-12 42 42 0 0 1 29 12 42 42 0 0 1 0 59 462 462 0 0 1-324 134z m442-16a625 625 0 0 1-884 0 42 42 0 0 1 59-59 542 542 0 0 0 766 0 42 42 0 0 1 59 0 42 42 0 0 1 0 59z" horiz-adv-x="1000" />

<glyph glyph-name="cog" unicode="&#xe980;" d="M888 452l-78 26 37 75a42 42 0 0 1-8 47l-89 89a42 42 0 0 1-48 8l-74-37-26 78a42 42 0 0 1-39 29h-125a42 42 0 0 1-40-29l-26-78-75 37a42 42 0 0 1-47-8l-89-89a42 42 0 0 1-8-48l37-74-78-26a42 42 0 0 1-29-39v-125a42 42 0 0 1 29-40l78-26-37-74a42 42 0 0 1 8-48l89-89a42 42 0 0 1 48-8l74 37 26-78a42 42 0 0 1 40-29h125a42 42 0 0 1 39 29l27 78 74-37a42 42 0 0 1 47 8l89 89a42 42 0 0 1 8 48l-37 74 78 26a42 42 0 0 1 29 40v125a42 42 0 0 1-29 39z m-55-134l-50-17a83 83 0 0 1-48-118l24-47-46-46-46 25a83 83 0 0 1-117-48l-16-50h-66l-17 50a83 83 0 0 1-118 48l-47-24-46 46 25 46a83 83 0 0 1-48 118l-50 17v65l50 16a83 83 0 0 1 48 118l-24 46 46 46 46-24a83 83 0 0 1 118 48l17 50h65l16-50a83 83 0 0 1 118-48l47 24 46-46-25-46a83 83 0 0 1 48-117l50-16z m-333 199a167 167 0 1 1 167-167 167 167 0 0 1-167 167z m0-250a83 83 0 1 0 83 83 83 83 0 0 0-83-83z" horiz-adv-x="1000" />

<glyph glyph-name="bookmark" unicode="&#xe981;" d="M667 767h-334a125 125 0 0 1-125-125v-667a42 42 0 0 1 21-36 42 42 0 0 1 42 0l229 132 229-132a42 42 0 0 1 21-6 42 42 0 0 1 21 6 42 42 0 0 1 21 36v667a125 125 0 0 1-125 125z m41-720l-187 108a42 42 0 0 1-42 0l-187-108v595a42 42 0 0 0 41 41h334a42 42 0 0 0 41-41z" horiz-adv-x="1000" />

<glyph glyph-name="wallet" unicode="&#xe982;" d="M792 558h-42v42a125 125 0 0 1-125 125h-417a125 125 0 0 1-125-125h0v-500a125 125 0 0 1 125-125h584a125 125 0 0 1 125 125v333a125 125 0 0 1-125 125z m-584 84h417a42 42 0 0 0 42-42v-42h-459a42 42 0 0 0 0 84z m625-417h-41a42 42 0 0 0 0 83h41z m0 167h-41a125 125 0 0 1 0-250h41v-42a42 42 0 0 0-41-42h-584a42 42 0 0 0-41 42v382a125 125 0 0 1 41-7h584a42 42 0 0 0 41-42z" horiz-adv-x="1000" />

<glyph glyph-name="minus" unicode="&#xe983;" d="M792 392h-584a42 42 0 0 1 0-84h584a42 42 0 0 1 0 84z" horiz-adv-x="1000" />

<glyph glyph-name="rss" unicode="&#xe984;" d="M120 147a125 125 0 0 1 0-177 125 125 0 0 1 177 0 125 125 0 0 1-177 177z m118-118a42 42 0 0 0-59 59 42 42 0 0 0 59 0 42 42 0 0 0 0-59z m-30 321a42 42 0 0 1 0-83 208 208 0 0 0 209-209 42 42 0 0 1 83 0 292 292 0 0 1-292 292z m0 167a42 42 0 0 1 0-84 375 375 0 0 0 375-375 42 42 0 0 1 84 0 462 462 0 0 1-134 325 462 462 0 0 1-325 134z m442-17a630 630 0 0 1-442 183 42 42 0 0 1 0-83 542 542 0 0 0 542-542 42 42 0 0 1 83 0 630 630 0 0 1-183 442z" horiz-adv-x="1000" />

<glyph glyph-name="sync" unicode="&#xe985;" d="M830 204h-189a42 42 0 0 1 0-84h100a333 333 0 0 0-574 230 42 42 0 0 1-84 0 417 417 0 0 1 704-301v-74a42 42 0 0 1 83 0v188a42 42 0 0 1-40 41z m-330 563a417 417 0 0 1-287-116v74a42 42 0 0 1-83 0v-187a42 42 0 0 1 42-42h187a42 42 0 0 1 0 83h-100a333 333 0 0 0 574-229 42 42 0 0 1 84 0 417 417 0 0 1-417 417z" horiz-adv-x="1000" />

<glyph glyph-name="redo" unicode="&#xe986;" d="M875 392a42 42 0 0 1-42-42 335 335 0 1 0-92 229h-100a42 42 0 0 1 0-83h189a42 42 0 0 1 41 42v187a42 42 0 0 1-83 0v-74a417 417 0 1 1 129-301 42 42 0 0 1-42 42z" horiz-adv-x="1000" />

<glyph glyph-name="bookmark-full" unicode="&#xe987;" d="M750 767h-500a42 42 0 0 1-42-42v-750a42 42 0 0 1 69-32l223 187 220-185a42 42 0 0 1 30-12 35 35 0 0 1 16 4 42 42 0 0 1 26 38v750a42 42 0 0 1-42 42z m-42-703l-181 153a42 42 0 0 1-54 0l-181-153v619h416z" horiz-adv-x="1000" />

<glyph glyph-name="umbrella" unicode="&#xe988;" d="M875 382s0 0 0 0a9 9 0 0 0 0 3l0 8c0 10-2 19-4 29a31 31 0 0 0 0 6c-2 11-5 21-8 31v0a371 371 0 0 1-244 244l-4 0c-9 3-18 6-28 8l-7 0a217 217 0 0 1-23 3l-10 0v11a42 42 0 0 1-84 0v-2a362 362 0 0 1-41-8 196 196 0 0 1-26-7l-6 0c-10-3-20-7-30-10l0 0a372 372 0 0 1-217-235 13 13 0 0 1 0-3 266 266 0 0 1-8-30l0-7q-4-15-5-31s0-3 0-4 0-3 0-4 0 0 0-2c0-11 0-21 0-32a42 42 0 0 1 41-42h292v-250a42 42 0 0 0-83 0 42 42 0 0 1-84 0 125 125 0 0 1 250 0v250h292a42 42 0 0 1 42 42c-5 11-5 21-5 32z m-542 10h-121s0 3 0 4 0 12 3 17 0 6 0 8 3 14 5 20l0 4a292 292 0 0 0 159 170 670 670 0 0 1-46-223z m84 0c8 163 60 250 83 250s75-87 83-250z m250 0a670 670 0 0 1-46 223 292 292 0 0 0 155-172v0a192 192 0 0 0 6-22 35 35 0 0 1 0-6c0-6 3-12 4-18s0-3 0-4z" horiz-adv-x="1000" />

<glyph glyph-name="trash" unicode="&#xe989;" d="M833 600h-166v42a125 125 0 0 1-125 125h-84a125 125 0 0 1-125-125v-42h-166a42 42 0 0 1 0-83h41v-459a125 125 0 0 1 125-125h334a125 125 0 0 1 125 125v459h41a42 42 0 0 1 0 83z m-416 42a42 42 0 0 0 41 41h84a42 42 0 0 0 41-41v-42h-166z m291-584a42 42 0 0 0-41-41h-334a42 42 0 0 0-41 41v459h416z" horiz-adv-x="1000" />

<glyph glyph-name="wifi-slash" unicode="&#xe98a;" d="M288 620h0l-133 135a42 42 0 0 1-60-60l95-95a634 634 0 0 1-132-100 42 42 0 0 1 0-58 42 42 0 0 1 30-13 42 42 0 0 1 29 12 545 545 0 0 0 135 98l62-64a449 449 0 0 1-138-95 42 42 0 1 1 59-58 367 367 0 0 0 144 88l67-67a295 295 0 0 1-152-80 42 42 0 1 1 59-59 208 208 0 0 0 147 63 172 172 0 0 0 26-2l319-320a42 42 0 0 1 60 0 42 42 0 0 1 0 60z m212-437a125 125 0 1 1 125-125 125 125 0 0 1-125 125z m0-166a42 42 0 1 0 42 41 42 42 0 0 0-42-41z m442 483a625 625 0 0 1-513 179 42 42 0 1 1 9-83 545 545 0 0 0 445-155 42 42 0 0 1 59 59z m-177-176a42 42 0 0 1 59 58 448 448 0 0 1-201 118 42 42 0 1 1-22-80 372 372 0 0 0 164-96z" horiz-adv-x="1000" />

<glyph glyph-name="plus-square" unicode="&#xe98b;" d="M375 308h83v-83a42 42 0 0 1 84 0v83h83a42 42 0 0 1 0 84h-83v83a42 42 0 0 1-84 0v-83h-83a42 42 0 0 1 0-84z m500 459h-750a42 42 0 0 1-42-42v-750a42 42 0 0 1 42-42h750a42 42 0 0 1 42 42v750a42 42 0 0 1-42 42z m-42-750h-666v666h666z" horiz-adv-x="1000" />

<glyph glyph-name="plus" unicode="&#xe98c;" d="M792 392h-250v250a42 42 0 0 1-84 0v-250h-250a42 42 0 0 1 0-84h250v-250a42 42 0 0 1 84 0v250h250a42 42 0 0 1 0 84z" horiz-adv-x="1000" />

<glyph glyph-name="signal-alt" unicode="&#xe98d;" d="M417 267a42 42 0 0 1-42-42v-250a42 42 0 0 1 83 0v250a42 42 0 0 1-41 42z m-209-167a42 42 0 0 1-41-42v-83a42 42 0 0 1 83 0v83a42 42 0 0 1-42 42z m625 667a42 42 0 0 1-41-42v-750a42 42 0 0 1 83 0v750a42 42 0 0 1-42 42z m-208-292a42 42 0 0 1-42-42v-458a42 42 0 0 1 84 0v458a42 42 0 0 1-42 42z" horiz-adv-x="1000" />

<glyph glyph-name="pen" unicode="&#xe98e;" d="M917 548a42 42 0 0 1-12 30l-177 177a42 42 0 0 1-30 12 42 42 0 0 1-29-12l-118-118h0l-456-456a42 42 0 0 1-12-29v-177a42 42 0 0 1 42-42h177a42 42 0 0 1 31 12l453 456h0l119 116a50 50 0 0 1 9 13 42 42 0 0 1 0 10 29 29 0 0 1 0 6z m-632-531h-118v118l413 413 118-118z m472 472l-118 118 59 59 118-118z" horiz-adv-x="1000" />

<glyph glyph-name="package" unicode="&#xe98f;" d="M792 767h-584a125 125 0 0 1-125-125v-584a125 125 0 0 1 125-125h584a125 125 0 0 1 125 125v584a125 125 0 0 1-125 125z m-375-84h166v-130l-60 42a42 42 0 0 1-46 0l-60-42z m416-625a42 42 0 0 0-41-41h-584a42 42 0 0 0-41 41v584a42 42 0 0 0 41 41h125v-208a42 42 0 0 1 22-37 42 42 0 0 1 42 2l103 68 102-68a42 42 0 0 1 65 35v208h125a42 42 0 0 0 41-41z" horiz-adv-x="1000" />

<glyph glyph-name="edit" unicode="&#xe990;" d="M875 350a42 42 0 0 1-42-42v-250a42 42 0 0 0-41-41h-584a42 42 0 0 0-41 41v584a42 42 0 0 0 41 41h250a42 42 0 0 1 0 84h-250a125 125 0 0 1-125-125v-584a125 125 0 0 1 125-125h584a125 125 0 0 1 125 125v250a42 42 0 0 1-42 42z m-625-32v-176a42 42 0 0 1 42-42h176a42 42 0 0 1 30 12l288 289h0l119 116a42 42 0 0 1 0 59l-177 179a42 42 0 0 1-59 0l-118-118h0l-289-289a42 42 0 0 1-12-30z m448 348l118-118-59-59-118 118z m-365-365l247 247 118-118-247-247h-118z" horiz-adv-x="1000" />

<glyph glyph-name="signal" unicode="&#xe991;" d="M250 225a42 42 0 0 1-42-42v-125a42 42 0 0 1 84 0v125a42 42 0 0 1-42 42z m167 125a42 42 0 0 1-42-42v-250a42 42 0 0 1 83 0v250a42 42 0 0 1-41 42z m333 333a42 42 0 0 1-42-41v-584a42 42 0 0 1 84 0v584a42 42 0 0 1-42 41z m-167-166a42 42 0 0 1-41-42v-417a42 42 0 0 1 83 0v417a42 42 0 0 1-42 42z" horiz-adv-x="1000" />

<glyph glyph-name="glass-martini-alt" unicode="&#xe992;" d="M908 699a42 42 0 0 1 5 44 42 42 0 0 1-38 24h-750a42 42 0 0 1-37-24 42 42 0 0 1 5-44l365-457v-225h-239a42 42 0 0 1 0-84h562a42 42 0 0 1 0 84h-239v225z m-696-16h576l-100-125h-375z m288-360l-122 152h244z" horiz-adv-x="1000" />

<glyph glyph-name="file-plus" unicode="&#xe993;" d="M833 478a55 55 0 0 1-2 11l0 4a45 45 0 0 1-8 11h0l-250 250h0a45 45 0 0 1-12 8 13 13 0 0 1-3 0 37 37 0 0 1-14 5h-252a125 125 0 0 1-125-125v-584a125 125 0 0 1 125-125h416a125 125 0 0 1 125 125v417s0 0 0 3z m-250 147l108-108h-66a42 42 0 0 0-42 41z m167-567a42 42 0 0 0-42-41h-416a42 42 0 0 0-42 41v584a42 42 0 0 0 42 41h208v-125a125 125 0 0 1 125-125h125z m-167 209h-41v41a42 42 0 0 1-84 0v-41h-41a42 42 0 0 1 0-84h41v-41a42 42 0 0 1 84 0v41h41a42 42 0 0 1 0 84z" horiz-adv-x="1000" />

<glyph glyph-name="minus-circle" unicode="&#xe994;" d="M500 767a417 417 0 1 1 417-417 417 417 0 0 1-417 417z m0-750a333 333 0 1 0 333 333 333 333 0 0 0-333-333z m167 375h-334a42 42 0 0 1 0-84h334a42 42 0 0 1 0 84z" horiz-adv-x="1000" />

<glyph glyph-name="microphone" unicode="&#xe995;" d="M500 225a167 167 0 0 1 167 167v250a167 167 0 0 1-334 0v-250a167 167 0 0 1 167-167z m-83 417a83 83 0 0 0 166 0v-250a83 83 0 0 0-166 0z m416-250a42 42 0 0 1-83 0 250 250 0 0 0-500 0 42 42 0 0 1-83 0 333 333 0 0 1 291-331v-86h-83a42 42 0 0 1 0-83h250a42 42 0 0 1 0 83h-83v86a333 333 0 0 1 291 331z" horiz-adv-x="1000" />

<glyph glyph-name="minus-square" unicode="&#xe996;" d="M792 767h-584a125 125 0 0 1-125-125v-584a125 125 0 0 1 125-125h584a125 125 0 0 1 125 125v584a125 125 0 0 1-125 125z m41-709a42 42 0 0 0-41-41h-584a42 42 0 0 0-41 41v584a42 42 0 0 0 41 41h584a42 42 0 0 0 41-41z m-166 334h-334a42 42 0 0 1 0-84h334a42 42 0 0 1 0 84z" horiz-adv-x="1000" />

<glyph glyph-name="minus-square-full" unicode="&#xe997;" d="M375 308h250a42 42 0 0 1 0 84h-250a42 42 0 0 1 0-84z m500 459h-750a42 42 0 0 1-42-42v-750a42 42 0 0 1 42-42h750a42 42 0 0 1 42 42v750a42 42 0 0 1-42 42z m-42-750h-666v666h666z" horiz-adv-x="1000" />

<glyph glyph-name="volume-mute" unicode="&#xe998;" d="M518 679a42 42 0 0 1-42-5l-199-157h-152a42 42 0 0 1-42-42v-250a42 42 0 0 1 42-42h152l197-157a42 42 0 0 1 26-9 38 38 0 0 1 18 4 42 42 0 0 1 24 37v584a42 42 0 0 1-24 37z m-60-534l-140 113a42 42 0 0 1-26 9h-125v166h125a42 42 0 0 1 25 10l141 112z m372 205l75 75a42 42 0 0 1-60 59l-74-75-75 75a42 42 0 0 1-59-59l75-75-75-75a42 42 0 0 1 0-59 42 42 0 0 1 59 0l75 75 74-75a42 42 0 0 1 60 0 42 42 0 0 1 0 59z" horiz-adv-x="1000" />

<glyph glyph-name="link-h" unicode="&#xe999;" d="M333 350a42 42 0 0 1 42-42h250a42 42 0 0 1 0 84h-250a42 42 0 0 1-42-42z m84-125h-125a125 125 0 0 0 0 250h125a42 42 0 0 1 0 83h-125a208 208 0 0 1 0-416h125a42 42 0 0 1 0 83z m291 333h-125a42 42 0 0 1 0-83h125a125 125 0 0 0 0-250h-125a42 42 0 0 1 0-83h125a208 208 0 0 1 0 416z" horiz-adv-x="1000" />

<glyph glyph-name="search" unicode="&#xe99a;" d="M905 5l-155 153a375 375 0 1 1-58-58l153-153a42 42 0 0 1 60 0 42 42 0 0 1 0 58z m-447 95a292 292 0 1 0 292 292 292 292 0 0 0-292-292z" horiz-adv-x="1000" />

<glyph glyph-name="ellipsis-v" unicode="&#xe99b;" d="M500 558a83 83 0 1 1-83 84 83 83 0 0 1 83-84z m0-416a83 83 0 1 1 83-84 83 83 0 0 1-83 84z m0 291a83 83 0 1 1 83-83 83 83 0 0 1-83 83z" horiz-adv-x="1000" />

<glyph glyph-name="ellipsis-h" unicode="&#xe99c;" d="M500 433a83 83 0 1 1 83-83 83 83 0 0 1-83 83z m-292 0a83 83 0 1 1 84-83 83 83 0 0 1-84 83z m584 0a83 83 0 1 1 83-83 83 83 0 0 1-83 83z" horiz-adv-x="1000" />

<glyph glyph-name="link-alt" unicode="&#xe99d;" d="M505 209l-162-162a105 105 0 0 0-146 0 103 103 0 0 0 0 146l162 162a42 42 0 1 1-59 59l-162-162a187 187 0 0 1 264-264l162 162a42 42 0 0 1-59 59z m357 503a187 187 0 0 1-264 0l-162-162a42 42 0 1 1 59-59l162 162a105 105 0 0 0 146 0 103 103 0 0 0 0-146l-162-162a42 42 0 0 1 0-59 42 42 0 0 1 59 0l162 162a187 187 0 0 1 0 264z m-494-494a42 42 0 0 1 29-12 42 42 0 0 1 30 12l205 205a42 42 0 1 1-59 59l-205-205a42 42 0 0 1 0-59z" horiz-adv-x="1000" />

<glyph glyph-name="calculator" unicode="&#xe99e;" d="M530 130a42 42 0 0 1-7 5 23 23 0 0 1-7 3 25 25 0 0 1-8 3 39 39 0 0 1-24-3 38 38 0 0 1-22-22 35 35 0 0 1-4-16 42 42 0 0 1 3-16 61 61 0 0 1 9-14 42 42 0 0 1 30-12 35 35 0 0 1 16 4 48 48 0 0 1 14 8 42 42 0 0 1 12 30 42 42 0 0 1-4 16 42 42 0 0 1-8 14z m-174 171a23 23 0 0 1-7 4 25 25 0 0 1-8 3 36 36 0 0 1-16 0l-8-2-7-4-6-5a44 44 0 0 1-12-30 42 42 0 0 1 12-30 48 48 0 0 1 13-9 42 42 0 0 1 58 39 44 44 0 0 1-12 29z m7-171a42 42 0 0 1-14 8 42 42 0 0 1-24 4l-7-3a32 32 0 0 1-8-4 66 66 0 0 1-6-5 42 42 0 0 1-9-13 39 39 0 0 1 0-32 48 48 0 0 1 9-14 42 42 0 0 1 29-13 35 35 0 0 1 16 4 48 48 0 0 1 14 8 48 48 0 0 1 9 14 39 39 0 0 1 0 32 42 42 0 0 1-9 14z m121 175a42 42 0 0 1-14-9 44 44 0 0 1-12-29 42 42 0 0 1 58-39 48 48 0 0 1 14 9 42 42 0 0 1 12 30 44 44 0 0 1-12 29 42 42 0 0 1-46 9z m212-175a48 48 0 0 1-13 8 42 42 0 0 1-46-8 42 42 0 0 1-9-14 39 39 0 0 1 0-32 48 48 0 0 1 9-14 42 42 0 0 1 30-12 35 35 0 0 1 16 4 48 48 0 0 1 13 8 42 42 0 0 1 9 46 42 42 0 0 1-9 14z m-29 512h-334a42 42 0 0 1-41-42v-167a42 42 0 0 1 41-41h334a42 42 0 0 1 41 41v167a42 42 0 0 1-41 42z m-42-167h-250v83h250z m125 333h-500a125 125 0 0 1-125-125v-666a125 125 0 0 1 125-125h500a125 125 0 0 1 125 125v666a125 125 0 0 1-125 125z m42-791a42 42 0 0 0-42-42h-500a42 42 0 0 0-42 42v666a42 42 0 0 0 42 42h500a42 42 0 0 0 42-42z m-102 284a23 23 0 0 1-8 4 25 25 0 0 1-7 3 36 36 0 0 1-17 0l-7-3-8-4-6-5a44 44 0 0 1-12-29 42 42 0 0 1 58-39 48 48 0 0 1 13 9 42 42 0 0 1 12 30 44 44 0 0 1-12 29z" horiz-adv-x="1000" />

<glyph glyph-name="layer-group" unicode="&#xe99f;" d="M104 481l375-217a42 42 0 0 1 42 0l375 217a42 42 0 0 1 21 36 42 42 0 0 1-21 36l-375 216a42 42 0 0 1-42 0l-375-216a42 42 0 0 1-21-36 42 42 0 0 1 21-36z m396 202l292-166-292-167-292 167z m354-298l-354-202-354 203a42 42 0 0 1-57-15 42 42 0 0 1 15-57l375-216a42 42 0 0 1 42 0l375 216a42 42 0 0 1 15 57 42 42 0 0 1-57 15z m0-167l-354-201-354 203a42 42 0 0 1-57-16 42 42 0 0 1 15-56l375-217a42 42 0 0 1 42 0l375 217a42 42 0 0 1 15 56 42 42 0 0 1-57 16z" horiz-adv-x="1000" />

<glyph glyph-name="car" unicode="&#xe9a0;" d="M276 305a38 38 0 0 1-23-22 42 42 0 0 1 55-55 48 48 0 0 1 13 9 48 48 0 0 1 9 14 35 35 0 0 1 3 16 44 44 0 0 1-12 29 42 42 0 0 1-45 9z m547 167l-56 168a125 125 0 0 1-119 83h-296a125 125 0 0 1-119-83l-56-170a125 125 0 0 1-94-120v-167a125 125 0 0 1 84-117v-49a42 42 0 0 1 83 0v41h500v-41a42 42 0 0 1 83 0v49a125 125 0 0 1 84 117v167a125 125 0 0 1-94 120z m-511 141a42 42 0 0 0 40 29h296a42 42 0 0 0 42-29l44-138h-468z m521-430a42 42 0 0 0-41-41h-584a42 42 0 0 0-41 41v167a42 42 0 0 0 41 42h584a42 42 0 0 0 41-42z m-140 122a38 38 0 0 1-23-22 42 42 0 0 1 54-55 38 38 0 0 1 23 23 35 35 0 0 1 3 16 44 44 0 0 1-12 29 42 42 0 0 1-45 9z m-151 3h-84a42 42 0 0 1 0-83h84a42 42 0 0 1 0 83z" horiz-adv-x="1000" />

<glyph glyph-name="thumbs-up" unicode="&#xe9a1;" d="M888 430a125 125 0 0 1-96 45h-190l23 60a172 172 0 0 1-162 232 42 42 0 0 1-38-25l-119-267h-98a125 125 0 0 1-125-125v-292a125 125 0 0 1 125-125h531a125 125 0 0 1 123 103l53 292a125 125 0 0 1-27 102z m-596-413h-84a42 42 0 0 0-41 41v292a42 42 0 0 0 41 42h84z m541 326l-53-292a42 42 0 0 0-41-34h-364v408l113 255a88 88 0 0 0 58-116l-22-60a83 83 0 0 1 78-112h190a42 42 0 0 0 32-15 42 42 0 0 0 9-34z" horiz-adv-x="1000" />

<glyph glyph-name="link" unicode="&#xe9a2;" d="M417 119l-74-72a103 103 0 0 0-146 146l189 190a102 102 0 0 0 142 3l5-4a42 42 0 0 1 58 60 115 115 0 0 1-8 8 186 186 0 0 1-253-9l-192-189a187 187 0 0 1 264-264l72 70a42 42 0 0 1-57 61z m445 593a187 187 0 0 1-264 0l-72-70a42 42 0 0 1 57-61l72 72a103 103 0 0 0 146-146l-189-189a102 102 0 0 0-141-4l-5 4a42 42 0 0 1-58-60 115 115 0 0 1 9-8 186 186 0 0 1 254 9l189 189a187 187 0 0 1 2 264z" horiz-adv-x="1000" />

<glyph glyph-name="home" unicode="&#xe9a4;" d="M903 423l-375 333a42 42 0 0 1-55 0l-375-333a42 42 0 0 1-12-46 42 42 0 0 1 39-27h42v-375a42 42 0 0 1 41-42h584a42 42 0 0 1 41 42v375h42a42 42 0 0 1 39 27 42 42 0 0 1-11 46z m-361-406h-84v125a42 42 0 0 0 84 0z m208 0h-125v125a125 125 0 0 1-250 0v-125h-125v333h500z m-515 416l265 236 265-236z" horiz-adv-x="1000" />
</font>
</defs>
</svg>
