<?xml version="1.0" encoding="UTF-8"?><!DOCTYPE svg PUBLIC "-//W3C//DTD SVG 1.1//EN" "http://www.w3.org/Graphics/SVG/1.1/DTD/svg11.dtd"><svg xmlns="http://www.w3.org/2000/svg" xmlns:xlink="http://www.w3.org/1999/xlink"><defs/><symbol id="airplay" viewBox="0 0 24 24"><path d="M12.8,13.4c-0.1-0.1-0.1-0.2-0.2-0.2c-0.5-0.3-1.1-0.2-1.5,0.2l-4,6C7.1,19.6,7,19.8,7,20c0,0.6,0.4,1,1,1h8c0.2,0,0.4-0.1,0.6-0.2c0.5-0.3,0.6-0.9,0.3-1.4L12.8,13.4z M19,3H5C3.3,3,2,4.3,2,6v9c0,1.7,1.3,3,3,3h0.8c0.6,0,1-0.4,1-1s-0.4-1-1-1H5c-0.6,0-1-0.4-1-1V6c0-0.6,0.4-1,1-1h14c0.6,0,1,0.4,1,1v9c0,0.6-0.4,1-1,1h-0.8c-0.6,0-1,0.4-1,1s0.4,1,1,1H19c1.7,0,3-1.3,3-3V6C22,4.3,20.7,3,19,3z"/></symbol><symbol id="align-alt" viewBox="0 0 24 24"><path d="M10,15H3c-0.6,0-1,0.4-1,1s0.4,1,1,1h7c0.6,0,1-0.4,1-1S10.6,15,10,15z M10,11H3c-0.6,0-1,0.4-1,1s0.4,1,1,1h7c0.6,0,1-0.4,1-1S10.6,11,10,11z M10,7H3C2.4,7,2,7.4,2,8s0.4,1,1,1h7c0.6,0,1-0.4,1-1S10.6,7,10,7z M14,5h7c0.6,0,1-0.4,1-1s-0.4-1-1-1h-7c-0.6,0-1,0.4-1,1S13.4,5,14,5z M10,19H3c-0.6,0-1,0.4-1,1s0.4,1,1,1h7c0.6,0,1-0.4,1-1S10.6,19,10,19z M21,15h-7c-0.6,0-1,0.4-1,1s0.4,1,1,1h7c0.6,0,1-0.4,1-1S21.6,15,21,15z M21,7h-7c-0.6,0-1,0.4-1,1s0.4,1,1,1h7c0.6,0,1-0.4,1-1S21.6,7,21,7z M10,3H7C6.4,3,6,3.4,6,4s0.4,1,1,1h3c0.6,0,1-0.4,1-1S10.6,3,10,3z M21,11h-7c-0.6,0-1,0.4-1,1s0.4,1,1,1h7c0.6,0,1-0.4,1-1S21.6,11,21,11z M17,19h-3c-0.6,0-1,0.4-1,1s0.4,1,1,1h3c0.6,0,1-0.4,1-1S17.6,19,17,19z"/></symbol><symbol id="align-center-justify" viewBox="0 0 24 24"><path d="M17,19H7c-0.6,0-1,0.4-1,1s0.4,1,1,1h10c0.6,0,1-0.4,1-1S17.6,19,17,19z M3,5h18c0.6,0,1-0.4,1-1s-0.4-1-1-1H3C2.4,3,2,3.4,2,4S2.4,5,3,5z M21,15H3c-0.6,0-1,0.4-1,1s0.4,1,1,1h18c0.6,0,1-0.4,1-1S21.6,15,21,15z M21,11H3c-0.6,0-1,0.4-1,1s0.4,1,1,1h18c0.6,0,1-0.4,1-1S21.6,11,21,11z M21,7H3C2.4,7,2,7.4,2,8s0.4,1,1,1h18c0.6,0,1-0.4,1-1S21.6,7,21,7z"/></symbol><symbol id="align-center" viewBox="0 0 24 24"><path d="M7,9c-0.6,0-1,0.4-1,1s0.4,1,1,1h10c0.6,0,1-0.4,1-1s-0.4-1-1-1H7z M3,7h18c0.6,0,1-0.4,1-1s-0.4-1-1-1H3C2.4,5,2,5.4,2,6S2.4,7,3,7z M17,17H7c-0.6,0-1,0.4-1,1s0.4,1,1,1h10c0.6,0,1-0.4,1-1S17.6,17,17,17z M21,13H3c-0.6,0-1,0.4-1,1s0.4,1,1,1h18c0.6,0,1-0.4,1-1S21.6,13,21,13z"/></symbol><symbol id="align-justify" viewBox="0 0 24 24"><path d="M3,7h18c0.6,0,1-0.4,1-1s-0.4-1-1-1H3C2.4,5,2,5.4,2,6S2.4,7,3,7z M21,9H3c-0.6,0-1,0.4-1,1s0.4,1,1,1h18c0.6,0,1-0.4,1-1S21.6,9,21,9z M21,13H3c-0.6,0-1,0.4-1,1s0.4,1,1,1h18c0.6,0,1-0.4,1-1S21.6,13,21,13z M21,17H3c-0.6,0-1,0.4-1,1s0.4,1,1,1h18c0.6,0,1-0.4,1-1S21.6,17,21,17z"/></symbol><symbol id="align-left-justify" viewBox="0 0 24 24"><path d="M21,15H3c-0.6,0-1,0.4-1,1s0.4,1,1,1h18c0.6,0,1-0.4,1-1S21.6,15,21,15z M15,19H3c-0.6,0-1,0.4-1,1s0.4,1,1,1h12c0.6,0,1-0.4,1-1S15.6,19,15,19z M3,5h18c0.6,0,1-0.4,1-1s-0.4-1-1-1H3C2.4,3,2,3.4,2,4S2.4,5,3,5z M21,7H3C2.4,7,2,7.4,2,8s0.4,1,1,1h18c0.6,0,1-0.4,1-1S21.6,7,21,7z M21,11H3c-0.6,0-1,0.4-1,1s0.4,1,1,1h18c0.6,0,1-0.4,1-1S21.6,11,21,11z"/></symbol><symbol id="align-left" viewBox="0 0 24 24"><path d="M3,7h18c0.6,0,1-0.4,1-1s-0.4-1-1-1H3C2.4,5,2,5.4,2,6S2.4,7,3,7z M3,11h14c0.6,0,1-0.4,1-1s-0.4-1-1-1H3c-0.6,0-1,0.4-1,1S2.4,11,3,11z M21,13H3c-0.6,0-1,0.4-1,1s0.4,1,1,1h18c0.6,0,1-0.4,1-1S21.6,13,21,13z M17,17H3c-0.6,0-1,0.4-1,1s0.4,1,1,1h14c0.6,0,1-0.4,1-1S17.6,17,17,17z"/></symbol><symbol id="align-letter-right" viewBox="0 0 24 24"><path d="M21,20H3c-0.6,0-1,0.4-1,1s0.4,1,1,1h18c0.6,0,1-0.4,1-1S21.6,20,21,20z M10,4h11c0.6,0,1-0.4,1-1s-0.4-1-1-1H10C9.4,2,9,2.4,9,3S9.4,4,10,4z M21,16H11c-0.6,0-1,0.4-1,1s0.4,1,1,1h10c0.6,0,1-0.4,1-1S21.6,16,21,16z M21,10H3c-0.6,0-1,0.4-1,1s0.4,1,1,1h18c0.6,0,1-0.4,1-1S21.6,10,21,10z M21,6H3C2.4,6,2,6.4,2,7s0.4,1,1,1h18c0.6,0,1-0.4,1-1S21.6,6,21,6z"/></symbol><symbol id="align-right-justify" viewBox="0 0 24 24"><path d="M3,5h18c0.6,0,1-0.4,1-1s-0.4-1-1-1H3C2.4,3,2,3.4,2,4S2.4,5,3,5z M21,19H11c-0.6,0-1,0.4-1,1s0.4,1,1,1h10c0.6,0,1-0.4,1-1S21.6,19,21,19z M21,11H3c-0.6,0-1,0.4-1,1s0.4,1,1,1h18c0.6,0,1-0.4,1-1S21.6,11,21,11z M21,15H3c-0.6,0-1,0.4-1,1s0.4,1,1,1h18c0.6,0,1-0.4,1-1S21.6,15,21,15z M21,7H3C2.4,7,2,7.4,2,8s0.4,1,1,1h18c0.6,0,1-0.4,1-1S21.6,7,21,7z"/></symbol><symbol id="align-right" viewBox="0 0 24 24"><path d="M3,7h18c0.6,0,1-0.4,1-1s-0.4-1-1-1H3C2.4,5,2,5.4,2,6S2.4,7,3,7z M21,9H7c-0.6,0-1,0.4-1,1s0.4,1,1,1h14c0.6,0,1-0.4,1-1S21.6,9,21,9z M21,13H3c-0.6,0-1,0.4-1,1s0.4,1,1,1h18c0.6,0,1-0.4,1-1S21.6,13,21,13z M21,17H7c-0.6,0-1,0.4-1,1s0.4,1,1,1h14c0.6,0,1-0.4,1-1S21.6,17,21,17z"/></symbol><symbol id="analysis" viewBox="0 0 24 24"><path d="M21.7,7.3c-0.4-0.4-1-0.4-1.4,0L14,13.6L9.7,9.3C9.5,9.1,9.3,9,9,9C8.7,9,8.5,9.1,8.3,9.3l-6,6C2.1,15.5,2,15.7,2,16c0,0.6,0.4,1,1,1c0.3,0,0.5-0.1,0.7-0.3L9,11.4l4.3,4.3c0.1,0.1,0.2,0.2,0.3,0.2C13.7,16,13.9,16,14,16c0.2,0,0.5-0.1,0.6-0.3c0,0,0,0,0.1,0c0,0,0,0,0,0s0,0,0,0l7-7C22.1,8.3,22.1,7.7,21.7,7.3z"/></symbol><symbol id="analytics" viewBox="0 0 24 24"><path d="M10,2C9.4,2,9,2.4,9,3c0,0,0,0,0,0v18c0,0.6,0.4,1,1,1s1-0.4,1-1V3C11,2.4,10.6,2,10,2C10,2,10,2,10,2z M5,12c-0.6,0-1,0.4-1,1c0,0,0,0,0,0v8c0,0.6,0.4,1,1,1s1-0.4,1-1v-8C6,12.4,5.6,12,5,12C5,12,5,12,5,12z M15,8c-0.6,0-1,0.4-1,1c0,0,0,0,0,0v12c0,0.6,0.4,1,1,1s1-0.4,1-1V9C16,8.4,15.6,8,15,8C15,8,15,8,15,8z M20,16c-0.6,0-1,0.4-1,1c0,0,0,0,0,0v4c0,0.6,0.4,1,1,1s1-0.4,1-1v-4C21,16.4,20.6,16,20,16C20,16,20,16,20,16z"/></symbol><symbol id="anchor" viewBox="0 0 24 24"><path d="M19,13h-2c-0.6,0-1,0.4-1,1s0.4,1,1,1h0.9c-0.4,2.5-2.4,4.5-4.9,4.9V11h1c0.6,0,1-0.4,1-1s-0.4-1-1-1h-1V7.8c1.2-0.4,2-1.5,2-2.8c0-1.7-1.3-3-3-3S9,3.3,9,5c0,1.3,0.8,2.4,2,2.8V9h-1c-0.6,0-1,0.4-1,1s0.4,1,1,1h1v8.9c-2.5-0.4-4.5-2.4-4.9-4.9H7c0.6,0,1-0.4,1-1s-0.4-1-1-1H5c-0.6,0-1,0.4-1,1c0,4.4,3.6,8,8,8c4.4,0,8-3.6,8-8C20,13.4,19.6,13,19,13z M12,4c0.6,0,1,0.4,1,1c0,0.6-0.4,1-1,1s-1-0.4-1-1S11.4,4,12,4z"/></symbol><symbol id="angle-double-down" viewBox="0 0 24 24"><path d="M11.3,11.5c0.2,0.2,0.4,0.3,0.7,0.3c0.3,0,0.5-0.1,0.7-0.3l3-3c0.4-0.4,0.4-1,0-1.4c-0.4-0.4-1-0.4-1.4,0L12,9.3L9.7,7c-0.4-0.4-1-0.4-1.4,0c-0.4,0.4-0.4,1,0,1.4L11.3,11.5z M14.3,12.5L12,14.8l-2.3-2.3c-0.4-0.4-1-0.4-1.4,0c-0.4,0.4-0.4,1,0,1.4l3,3c0.2,0.2,0.4,0.3,0.7,0.3c0.3,0,0.5-0.1,0.7-0.3l3-3c0.4-0.4,0.4-1,0-1.4C15.3,12.2,14.7,12.2,14.3,12.5z"/></symbol><symbol id="angle-double-left" viewBox="0 0 24 24"><path d="M17,14.3L14.7,12L17,9.7c0.4-0.4,0.4-1,0-1.4c-0.4-0.4-1-0.4-1.4,0l-3,3c0,0,0,0,0,0c-0.4,0.4-0.4,1,0,1.4l3,3c0.2,0.2,0.4,0.3,0.7,0.3c0.3,0,0.5-0.1,0.7-0.3C17.3,15.3,17.3,14.7,17,14.3z M9.2,12l2.3-2.3c0.4-0.4,0.4-1,0-1.4c-0.4-0.4-1-0.4-1.4,0l-3,3c0,0,0,0,0,0c-0.4,0.4-0.4,1,0,1.4l3,3c0.2,0.2,0.4,0.3,0.7,0.3c0.3,0,0.5-0.1,0.7-0.3c0.4-0.4,0.4-1,0-1.4L9.2,12z"/></symbol><symbol id="angle-double-right" viewBox="0 0 24 24"><path d="M8.5,8.3c-0.4-0.4-1-0.4-1.4,0c-0.4,0.4-0.4,1,0,1.4L9.3,12L7,14.3c-0.2,0.2-0.3,0.4-0.3,0.7c0,0.6,0.4,1,1,1c0.3,0,0.5-0.1,0.7-0.3l3-3c0,0,0,0,0,0c0.4-0.4,0.4-1,0-1.4L8.5,8.3z M17,11.3l-3-3c-0.4-0.4-1-0.4-1.4,0c-0.4,0.4-0.4,1,0,1.4l2.3,2.3l-2.3,2.3c-0.2,0.2-0.3,0.4-0.3,0.7c0,0.6,0.4,1,1,1c0.3,0,0.5-0.1,0.7-0.3l3-3C17.3,12.3,17.3,11.7,17,11.3z"/></symbol><symbol id="angle-double-up" viewBox="0 0 24 24"><path d="M12.7,12.5C12.7,12.5,12.7,12.5,12.7,12.5c-0.4-0.4-1-0.4-1.4,0l-3,3c-0.4,0.4-0.4,1,0,1.4c0.4,0.4,1,0.4,1.4,0l2.3-2.3l2.3,2.3c0.2,0.2,0.4,0.3,0.7,0.3c0.3,0,0.5-0.1,0.7-0.3c0.4-0.4,0.4-1,0-1.4L12.7,12.5z M9.7,11.5L12,9.2l2.3,2.3c0.2,0.2,0.4,0.3,0.7,0.3c0.3,0,0.5-0.1,0.7-0.3c0.4-0.4,0.4-1,0-1.4l-3-3c0,0,0,0,0,0c-0.4-0.4-1-0.4-1.4,0l-3,3c-0.4,0.4-0.4,1,0,1.4C8.7,11.8,9.3,11.8,9.7,11.5z"/></symbol><symbol id="angle-down" viewBox="0 0 24 24"><path d="M16.9,9.2c-0.4-0.4-1-0.4-1.4,0L12,12.7L8.5,9.2c-0.4-0.4-1-0.4-1.4,0s-0.4,1,0,1.4l4.2,4.2c0.2,0.2,0.4,0.3,0.7,0.3c0.3,0,0.5-0.1,0.7-0.3l4.2-4.2C17.3,10.2,17.3,9.6,16.9,9.2z"/></symbol><symbol id="angle-left" viewBox="0 0 24 24"><path d="M11.3,12l3.5-3.5c0.4-0.4,0.4-1,0-1.4c-0.4-0.4-1-0.4-1.4,0l-4.2,4.2l0,0c-0.4,0.4-0.4,1,0,1.4l4.2,4.2c0.2,0.2,0.4,0.3,0.7,0.3l0,0c0.3,0,0.5-0.1,0.7-0.3c0.4-0.4,0.4-1,0-1.4L11.3,12z"/></symbol><symbol id="angle-right-b" viewBox="0 0 24 24"><path d="M15.5,11.3L9.9,5.6c-0.4-0.4-1-0.4-1.4,0s-0.4,1,0,1.4l4.9,4.9l-4.9,4.9c-0.2,0.2-0.3,0.4-0.3,0.7c0,0.6,0.4,1,1,1c0.3,0,0.5-0.1,0.7-0.3l5.7-5.7c0,0,0,0,0,0C15.9,12.3,15.9,11.7,15.5,11.3z"/></symbol><symbol id="angle-right" viewBox="0 0 24 24"><path d="M9.9,17.2c-0.6,0-1-0.4-1-1c0-0.3,0.1-0.5,0.3-0.7l3.5-3.5L9.2,8.5c-0.4-0.4-0.4-1,0-1.4c0.4-0.4,1-0.4,1.4,0l4.2,4.2c0.4,0.4,0.4,1,0,1.4c0,0,0,0,0,0l-4.2,4.2C10.4,17.1,10.1,17.2,9.9,17.2z"/></symbol><symbol id="angle-up" viewBox="0 0 24 24"><path d="M16.9,13.4l-4.2-4.2l0,0c-0.4-0.4-1-0.4-1.4,0l-4.2,4.2c-0.4,0.4-0.4,1,0,1.4s1,0.4,1.4,0l3.5-3.5l3.5,3.5c0.2,0.2,0.4,0.3,0.7,0.3l0,0c0.3,0,0.5-0.1,0.7-0.3C17.3,14.4,17.3,13.8,16.9,13.4z"/></symbol><symbol id="apps" viewBox="0 0 24 24"><path d="M10,2H3C2.4,2,2,2.4,2,3v7c0,0.6,0.4,1,1,1h7c0.6,0,1-0.4,1-1V3C11,2.4,10.6,2,10,2z M10,13H3c-0.6,0-1,0.4-1,1v7c0,0.6,0.4,1,1,1h7c0.6,0,1-0.4,1-1v-7C11,13.4,10.6,13,10,13z M21,2h-7c-0.6,0-1,0.4-1,1v7c0,0.6,0.4,1,1,1h7c0.6,0,1-0.4,1-1V3C22,2.4,21.6,2,21,2z M21,13h-7c-0.6,0-1,0.4-1,1v7c0,0.6,0.4,1,1,1h7c0.6,0,1-0.4,1-1v-7C22,13.4,21.6,13,21,13z"/></symbol><symbol id="arrow-circle-down" viewBox="0 0 24 24"><path d="M12,2C6.5,2,2,6.5,2,12s4.5,10,10,10s10-4.5,10-10S17.5,2,12,2z M15.7,12.7l-3,3c-0.1,0.1-0.2,0.2-0.3,0.2c-0.2,0.1-0.5,0.1-0.8,0c-0.1,0-0.2-0.1-0.3-0.2l-3-3c0,0,0,0,0,0c-0.4-0.4-0.4-1,0-1.4c0,0,0,0,0,0c0.4-0.4,1-0.4,1.4,0l1.3,1.3V9c0-0.6,0.4-1,1-1s1,0.4,1,1v3.6l1.3-1.3c0.4-0.4,1-0.4,1.4,0C16.1,11.7,16.1,12.3,15.7,12.7z"/></symbol><symbol id="arrow-circle-left" viewBox="0 0 24 24"><path d="M12,2C6.5,2,2,6.5,2,12c0,5.5,4.5,10,10,10s10-4.5,10-10S17.5,2,12,2z M15,13h-3.6l1.3,1.3c0.4,0.4,0.4,1,0,1.4c-0.4,0.4-1,0.4-1.4,0l-3-3c-0.4-0.4-0.4-1,0-1.4c0,0,0,0,0,0l3-3c0.4-0.4,1-0.4,1.4,0c0,0,0,0,0,0c0.4,0.4,0.4,1,0,1.4c0,0,0,0,0,0L11.4,11H15c0.6,0,1,0.4,1,1S15.6,13,15,13z"/></symbol><symbol id="arrow-circle-right" viewBox="0 0 24 24"><path d="M12,2C6.5,2,2,6.5,2,12s4.5,10,10,10c5.5,0,10-4.5,10-10C22,6.5,17.5,2,12,2z M15.7,12.7C15.7,12.7,15.7,12.7,15.7,12.7l-3,3c-0.4,0.4-1,0.4-1.4,0c0,0,0,0,0,0c-0.4-0.4-0.4-1,0-1.4c0,0,0,0,0,0l1.3-1.3H9c-0.6,0-1-0.4-1-1s0.4-1,1-1h3.6l-1.3-1.3c-0.4-0.4-0.4-1,0-1.4c0.4-0.4,1-0.4,1.4,0l3,3C16.1,11.7,16.1,12.3,15.7,12.7z"/></symbol><symbol id="arrow-circle-up" viewBox="0 0 24 24"><path d="M12,2C6.5,2,2,6.5,2,12s4.5,10,10,10s10-4.5,10-10C22,6.5,17.5,2,12,2z M15.7,12.7C15.7,12.7,15.7,12.7,15.7,12.7c-0.4,0.4-1,0.4-1.4,0c0,0,0,0,0,0L13,11.4V15c0,0.6-0.4,1-1,1s-1-0.4-1-1v-3.6l-1.3,1.3c-0.4,0.4-1,0.4-1.4,0c-0.4-0.4-0.4-1,0-1.4l3-3c0.4-0.4,1-0.4,1.4,0c0,0,0,0,0,0l3,3C16.1,11.7,16.1,12.3,15.7,12.7z"/></symbol><symbol id="arrow-down-left" viewBox="0 0 24 24"><path d="M17,16H9.4l8.3-8.3c0.4-0.4,0.4-1,0-1.4c-0.4-0.4-1-0.4-1.4,0L8,14.6V7c0-0.6-0.4-1-1-1S6,6.4,6,7v10c0,0.1,0,0.3,0.1,0.4c0.1,0.2,0.3,0.4,0.5,0.5C6.7,18,6.9,18,7,18h10c0.6,0,1-0.4,1-1S17.6,16,17,16z"/></symbol><symbol id="arrow-down-right" viewBox="0 0 24 24"><path d="M17,6c-0.6,0-1,0.4-1,1v7.6L7.7,6.3c-0.4-0.4-1-0.4-1.4,0c-0.4,0.4-0.4,1,0,1.4l8.3,8.3H7c-0.6,0-1,0.4-1,1s0.4,1,1,1h10c0.6,0,1-0.4,1-1V7C18,6.4,17.6,6,17,6z"/></symbol><symbol id="arrow-up-left" viewBox="0 0 24 24"><path d="M9.4,8H17c0.6,0,1-0.4,1-1s-0.4-1-1-1H7C6.4,6,6,6.4,6,7v10c0,0.6,0.4,1,1,1s1-0.4,1-1V9.4l8.3,8.3c0.4,0.4,1,0.4,1.4,0c0.4-0.4,0.4-1,0-1.4L9.4,8z"/></symbol><symbol id="arrow-up-right" viewBox="0 0 24 24"><path d="M17,6H7C6.4,6,6,6.4,6,7s0.4,1,1,1h7.6l-8.3,8.3c-0.4,0.4-0.4,1,0,1.4c0.4,0.4,1,0.4,1.4,0L16,9.4V17c0,0.6,0.4,1,1,1s1-0.4,1-1V7C18,6.4,17.6,6,17,6z"/></symbol><symbol id="at" viewBox="0 0 24 24"><path d="M12,2C6.5,2,2,6.5,2,12s4.5,10,10,10c1.8,0,3.5-0.5,5-1.3c0.5-0.3,0.6-0.9,0.4-1.4c-0.3-0.5-0.9-0.6-1.4-0.4c0,0,0,0,0,0c-3.8,2.2-8.7,0.9-10.9-2.9C2.9,12.2,4.2,7.3,8,5.1c3.8-2.2,8.7-0.9,10.9,2.9c0.7,1.2,1.1,2.6,1.1,4v0.8c0,1-0.8,1.8-1.8,1.8s-1.8-0.8-1.8-1.8V8.5c0-0.6-0.4-1-1-1c-0.5,0-0.9,0.3-1,0.8c-2-1.4-4.9-0.9-6.3,1.1c-1.4,2-0.9,4.9,1.1,6.3c1.9,1.3,4.4,1,5.9-0.7c1.3,1.6,3.6,1.9,5.2,0.7c0.9-0.7,1.5-1.8,1.5-3V12C22,6.5,17.5,2,12,2z M12,14.5c-1.4,0-2.5-1.1-2.5-2.5s1.1-2.5,2.5-2.5s2.5,1.1,2.5,2.5C14.5,13.4,13.4,14.5,12,14.5z"/></symbol><symbol id="bag" viewBox="0 0 24 24"><path d="M19,6h-3V5c0-1.1-0.9-2-2-2h-4C8.9,3,8,3.9,8,5v1H5C3.3,6,2,7.3,2,9v9c0,1.7,1.3,3,3,3h14c1.7,0,3-1.3,3-3V9C22,7.3,20.7,6,19,6z M10,5h4v1h-4V5z M20,18c0,0.6-0.4,1-1,1H5c-0.6,0-1-0.4-1-1v-5.6l4.7,1.6C8.8,14,8.9,14,9,14h6c0.1,0,0.2,0,0.3-0.1l4.7-1.6V18z"/></symbol><symbol id="bars" viewBox="0 0 24 24"><path d="M20,11H4c-0.6,0-1,0.4-1,1s0.4,1,1,1h16c0.6,0,1-0.4,1-1S20.6,11,20,11z M4,8h16c0.6,0,1-0.4,1-1s-0.4-1-1-1H4C3.4,6,3,6.4,3,7S3.4,8,4,8z M20,16H4c-0.6,0-1,0.4-1,1s0.4,1,1,1h16c0.6,0,1-0.4,1-1S20.6,16,20,16z"/></symbol><symbol id="battery-bolt" viewBox="0 0 24 24"><path d="M17,7H4C2.9,7,2,7.9,2,9v6c0,1.1,0.9,2,2,2h6.7c-0.6,0-1-0.4-1-1c0-0.2,0-0.3,0.1-0.5l1.4-2.5H8l0,0l0,0c-0.1,0-0.2,0-0.3-0.1c0,0-0.1,0-0.1,0c0,0-0.1,0-0.1,0c0,0-0.1-0.1-0.1-0.1c-0.1,0-0.1-0.1-0.2-0.1c-0.1-0.1-0.1-0.2-0.2-0.3c0-0.1,0-0.1,0-0.2c0,0,0-0.1,0-0.1c0,0,0,0,0-0.1c0-0.1,0.1-0.3,0.1-0.4c0,0,0,0,0-0.1l2.3-4c0.3-0.5,0.9-0.6,1.4-0.4c0.5,0.3,0.6,0.9,0.4,1.4c0,0,0,0,0,0L9.7,11H13c0,0,0,0,0.1,0c0.1,0,0.3,0.1,0.4,0.1c0,0,0,0,0.1,0c0,0,0.1,0.1,0.1,0.1c0.1,0,0.1,0.1,0.2,0.1c0.1,0.1,0.1,0.2,0.2,0.3c0,0.1,0,0.1,0,0.2c0,0,0,0.1,0,0.1c0,0,0,0,0,0.1c0,0.1-0.1,0.3-0.1,0.4c0,0,0,0,0,0.1l-2.3,4C11.4,16.8,11,17,10.7,17H17c1.1,0,2-0.9,2-2V9C19,7.9,18.1,7,17,7z M21,10c-0.6,0-1,0.4-1,1v2c0,0.6,0.4,1,1,1s1-0.4,1-1v-2C22,10.4,21.6,10,21,10z"/></symbol><symbol id="battery-empty" viewBox="0 0 24 24"><path d="M21,10c-0.6,0-1,0.4-1,1v2c0,0.6,0.4,1,1,1h0c0.6,0,1-0.4,1-1v-2C22,10.4,21.6,10,21,10z M17,7H4C2.9,7,2,7.9,2,9v6c0,1.1,0.9,2,2,2h13c1.1,0,2-0.9,2-2V9C19,7.9,18.1,7,17,7z"/></symbol><symbol id="bookmark" viewBox="0 0 24 24"><path d="M16,2H8C6.3,2,5,3.3,5,5v16c0,0.2,0,0.3,0.1,0.5C5.4,22,6,22.1,6.5,21.9l5.5-3.2l5.5,3.2C17.7,22,17.8,22,18,22c0.6,0,1-0.4,1-1V5C19,3.3,17.7,2,16,2z"/></symbol><symbol id="border-alt" viewBox="0 0 24 24"><path d="M20.5,3.5c0-0.6-0.4-1-1-1h-16c-0.6,0-1,0.4-1,1v16c0,0.6,0.4,1,1,1h0c0.6,0,1-0.4,1-1v-15h15C20.1,4.5,20.5,4.1,20.5,3.5z M19.5,10.5c-0.6,0-1,0.4-1,1s0.4,1,1,1s1-0.4,1-1S20.1,10.5,19.5,10.5z M19.5,6.5c-0.6,0-1,0.4-1,1s0.4,1,1,1s1-0.4,1-1S20.1,6.5,19.5,6.5z M19.5,14.5c-0.6,0-1,0.4-1,1s0.4,1,1,1s1-0.4,1-1S20.1,14.5,19.5,14.5z M7.5,18.5c-0.6,0-1,0.4-1,1s0.4,1,1,1s1-0.4,1-1S8.1,18.5,7.5,18.5z M11.5,18.5c-0.6,0-1,0.4-1,1s0.4,1,1,1s1-0.4,1-1S12.1,18.5,11.5,18.5z M15.5,18.5c-0.6,0-1,0.4-1,1s0.4,1,1,1s1-0.4,1-1S16.1,18.5,15.5,18.5z M19.5,18.5c-0.6,0-1,0.4-1,1s0.4,1,1,1s1-0.4,1-1S20.1,18.5,19.5,18.5z"/></symbol><symbol id="border-bottom" viewBox="0 0 24 24"><path d="M12,9.5c0.6,0,1-0.4,1-1s-0.4-1-1-1s-1,0.4-1,1S11.4,9.5,12,9.5z M12,13.5c0.6,0,1-0.4,1-1s-0.4-1-1-1s-1,0.4-1,1S11.4,13.5,12,13.5z M12,17.5c0.6,0,1-0.4,1-1s-0.4-1-1-1s-1,0.4-1,1S11.4,17.5,12,17.5z M12,5.5c0.6,0,1-0.4,1-1s-0.4-1-1-1s-1,0.4-1,1S11.4,5.5,12,5.5z M20,5.5c0.6,0,1-0.4,1-1s-0.4-1-1-1s-1,0.4-1,1S19.4,5.5,20,5.5z M8,5.5c0.6,0,1-0.4,1-1s-0.4-1-1-1s-1,0.4-1,1S7.4,5.5,8,5.5z M16,5.5c0.6,0,1-0.4,1-1s-0.4-1-1-1s-1,0.4-1,1S15.4,5.5,16,5.5z M16,13.5c0.6,0,1-0.4,1-1s-0.4-1-1-1s-1,0.4-1,1S15.4,13.5,16,13.5z M4,9.5c0.6,0,1-0.4,1-1s-0.4-1-1-1s-1,0.4-1,1S3.4,9.5,4,9.5z M20,15.5c-0.6,0-1,0.4-1,1s0.4,1,1,1s1-0.4,1-1S20.6,15.5,20,15.5z M20,11.5c-0.6,0-1,0.4-1,1s0.4,1,1,1s1-0.4,1-1S20.6,11.5,20,11.5z M20,7.5c-0.6,0-1,0.4-1,1s0.4,1,1,1s1-0.4,1-1S20.6,7.5,20,7.5z M20,19.5H4c-0.6,0-1,0.4-1,1s0.4,1,1,1h16c0.6,0,1-0.4,1-1S20.6,19.5,20,19.5z M4,13.5c0.6,0,1-0.4,1-1s-0.4-1-1-1s-1,0.4-1,1S3.4,13.5,4,13.5z M4,5.5c0.6,0,1-0.4,1-1s-0.4-1-1-1s-1,0.4-1,1S3.4,5.5,4,5.5z M8,13.5c0.6,0,1-0.4,1-1s-0.4-1-1-1s-1,0.4-1,1S7.4,13.5,8,13.5z M4,17.5c0.6,0,1-0.4,1-1s-0.4-1-1-1s-1,0.4-1,1S3.4,17.5,4,17.5z"/></symbol><symbol id="border-clear" viewBox="0 0 24 24"><path d="M12,15c-0.6,0-1,0.4-1,1s0.4,1,1,1s1-0.4,1-1S12.6,15,12,15z M12,19c-0.6,0-1,0.4-1,1s0.4,1,1,1s1-0.4,1-1S12.6,19,12,19z M12,7c-0.6,0-1,0.4-1,1s0.4,1,1,1s1-0.4,1-1S12.6,7,12,7z M12,3c-0.6,0-1,0.4-1,1s0.4,1,1,1s1-0.4,1-1S12.6,3,12,3z M4,15c-0.6,0-1,0.4-1,1s0.4,1,1,1s1-0.4,1-1S4.6,15,4,15z M4,19c-0.6,0-1,0.4-1,1s0.4,1,1,1s1-0.4,1-1S4.6,19,4,19z M4,7C3.4,7,3,7.4,3,8s0.4,1,1,1s1-0.4,1-1S4.6,7,4,7z M4,3C3.4,3,3,3.4,3,4s0.4,1,1,1s1-0.4,1-1S4.6,3,4,3z M8,3C7.4,3,7,3.4,7,4s0.4,1,1,1s1-0.4,1-1S8.6,3,8,3z M16,3c-0.6,0-1,0.4-1,1s0.4,1,1,1s1-0.4,1-1S16.6,3,16,3z M8,19c-0.6,0-1,0.4-1,1s0.4,1,1,1s1-0.4,1-1S8.6,19,8,19z M16,19c-0.6,0-1,0.4-1,1s0.4,1,1,1s1-0.4,1-1S16.6,19,16,19z M8,11c-0.6,0-1,0.4-1,1s0.4,1,1,1s1-0.4,1-1S8.6,11,8,11z M16,11c-0.6,0-1,0.4-1,1s0.4,1,1,1s1-0.4,1-1S16.6,11,16,11z M20,15c-0.6,0-1,0.4-1,1s0.4,1,1,1s1-0.4,1-1S20.6,15,20,15z M20,19c-0.6,0-1,0.4-1,1s0.4,1,1,1s1-0.4,1-1S20.6,19,20,19z M20,7c-0.6,0-1,0.4-1,1s0.4,1,1,1s1-0.4,1-1S20.6,7,20,7z M12,11c-0.6,0-1,0.4-1,1s0.4,1,1,1s1-0.4,1-1S12.6,11,12,11z M4,11c-0.6,0-1,0.4-1,1s0.4,1,1,1s1-0.4,1-1S4.6,11,4,11z M20,11c-0.6,0-1,0.4-1,1s0.4,1,1,1s1-0.4,1-1S20.6,11,20,11z M20,5c0.6,0,1-0.4,1-1s-0.4-1-1-1s-1,0.4-1,1S19.4,5,20,5z"/></symbol><symbol id="border-horizontal" viewBox="0 0 24 24"><path d="M20,11H4c-0.6,0-1,0.4-1,1s0.4,1,1,1h16c0.6,0,1-0.4,1-1S20.6,11,20,11z M12,15c-0.6,0-1,0.4-1,1s0.4,1,1,1s1-0.4,1-1S12.6,15,12,15z M12,19c-0.6,0-1,0.4-1,1s0.4,1,1,1s1-0.4,1-1S12.6,19,12,19z M12,9c0.6,0,1-0.4,1-1s-0.4-1-1-1s-1,0.4-1,1S11.4,9,12,9z M12,5c0.6,0,1-0.4,1-1s-0.4-1-1-1s-1,0.4-1,1S11.4,5,12,5z M4,15c-0.6,0-1,0.4-1,1s0.4,1,1,1s1-0.4,1-1S4.6,15,4,15z M4,19c-0.6,0-1,0.4-1,1s0.4,1,1,1s1-0.4,1-1S4.6,19,4,19z M4,9c0.6,0,1-0.4,1-1S4.6,7,4,7S3,7.4,3,8S3.4,9,4,9z M4,5c0.6,0,1-0.4,1-1S4.6,3,4,3S3,3.4,3,4S3.4,5,4,5z M8,5c0.6,0,1-0.4,1-1S8.6,3,8,3S7,3.4,7,4S7.4,5,8,5z M16,5c0.6,0,1-0.4,1-1s-0.4-1-1-1s-1,0.4-1,1S15.4,5,16,5z M8,19c-0.6,0-1,0.4-1,1s0.4,1,1,1s1-0.4,1-1S8.6,19,8,19z M16,19c-0.6,0-1,0.4-1,1s0.4,1,1,1s1-0.4,1-1S16.6,19,16,19z M20,15c-0.6,0-1,0.4-1,1s0.4,1,1,1s1-0.4,1-1S20.6,15,20,15z M20,19c-0.6,0-1,0.4-1,1s0.4,1,1,1s1-0.4,1-1S20.6,19,20,19z M20,7c-0.6,0-1,0.4-1,1s0.4,1,1,1s1-0.4,1-1S20.6,7,20,7z M20,5c0.6,0,1-0.4,1-1s-0.4-1-1-1s-1,0.4-1,1S19.4,5,20,5z"/></symbol><symbol id="border-inner" viewBox="0 0 24 24"><path d="M21,12c0-0.6-0.4-1-1-1h-7V4c0-0.6-0.4-1-1-1s-1,0.4-1,1v7H4c-0.6,0-1,0.4-1,1s0.4,1,1,1h7v7c0,0.6,0.4,1,1,1h0c0.6,0,1-0.4,1-1v-7h7C20.5,13,21,12.6,21,12z M4,15c-0.6,0-1,0.4-1,1s0.4,1,1,1s1-0.4,1-1S4.5,15,4,15z M4,19c-0.6,0-1,0.4-1,1s0.4,1,1,1s1-0.4,1-1S4.5,19,4,19z M4,9c0.6,0,1-0.4,1-1S4.5,7,4,7S3,7.4,3,8S3.4,9,4,9z M4,5c0.6,0,1-0.4,1-1S4.5,3,4,3S3,3.4,3,4S3.4,5,4,5z M8,5c0.6,0,1-0.4,1-1S8.5,3,8,3S7,3.4,7,4S7.4,5,8,5z M16,5c0.6,0,1-0.4,1-1s-0.4-1-1-1s-1,0.4-1,1S15.4,5,16,5z M8,19c-0.6,0-1,0.4-1,1s0.4,1,1,1s1-0.4,1-1S8.5,19,8,19z M16,19c-0.6,0-1,0.4-1,1s0.4,1,1,1s1-0.4,1-1S16.5,19,16,19z M20,15c-0.6,0-1,0.4-1,1s0.4,1,1,1s1-0.4,1-1S20.5,15,20,15z M20,19c-0.6,0-1,0.4-1,1s0.4,1,1,1s1-0.4,1-1S20.5,19,20,19z M20,9c0.6,0,1-0.4,1-1s-0.4-1-1-1s-1,0.4-1,1S19.4,9,20,9z M20,5c0.6,0,1-0.4,1-1s-0.4-1-1-1s-1,0.4-1,1S19.4,5,20,5z"/></symbol><symbol id="border-left" viewBox="0 0 24 24"><path d="M3.5,3c-0.6,0-1,0.4-1,1v16c0,0.6,0.4,1,1,1h0c0.6,0,1-0.4,1-1V4C4.5,3.4,4.1,3,3.5,3z M7.5,11c-0.6,0-1,0.4-1,1s0.4,1,1,1s1-0.4,1-1S8.1,11,7.5,11z M11.5,11c-0.6,0-1,0.4-1,1s0.4,1,1,1s1-0.4,1-1S12.1,11,11.5,11z M15.5,11c-0.6,0-1,0.4-1,1s0.4,1,1,1s1-0.4,1-1S16.1,11,15.5,11z M19.5,11c-0.6,0-1,0.4-1,1s0.4,1,1,1s1-0.4,1-1S20.1,11,19.5,11z M7.5,3c-0.6,0-1,0.4-1,1s0.4,1,1,1s1-0.4,1-1S8.1,3,7.5,3z M11.5,3c-0.6,0-1,0.4-1,1s0.4,1,1,1s1-0.4,1-1S12.1,3,11.5,3z M15.5,3c-0.6,0-1,0.4-1,1s0.4,1,1,1s1-0.4,1-1S16.1,3,15.5,3z M19.5,5c0.6,0,1-0.4,1-1s-0.4-1-1-1s-1,0.4-1,1S18.9,5,19.5,5z M19.5,7c-0.6,0-1,0.4-1,1s0.4,1,1,1s1-0.4,1-1S20.1,7,19.5,7z M19.5,15c-0.6,0-1,0.4-1,1s0.4,1,1,1s1-0.4,1-1S20.1,15,19.5,15z M11.5,7c-0.6,0-1,0.4-1,1s0.4,1,1,1s1-0.4,1-1S12.1,7,11.5,7z M11.5,15c-0.6,0-1,0.4-1,1s0.4,1,1,1s1-0.4,1-1S12.1,15,11.5,15z M7.5,19c-0.6,0-1,0.4-1,1s0.4,1,1,1s1-0.4,1-1S8.1,19,7.5,19z M11.5,19c-0.6,0-1,0.4-1,1s0.4,1,1,1s1-0.4,1-1S12.1,19,11.5,19z M15.5,19c-0.6,0-1,0.4-1,1s0.4,1,1,1s1-0.4,1-1S16.1,19,15.5,19z M19.5,19c-0.6,0-1,0.4-1,1s0.4,1,1,1s1-0.4,1-1S20.1,19,19.5,19z"/></symbol><symbol id="border-out" viewBox="0 0 24 24"><path d="M20,3H4C3.4,3,3,3.4,3,4v16c0,0.6,0.4,1,1,1h16c0.6,0,1-0.4,1-1V4C21,3.4,20.6,3,20,3z M19,19H5V5h14V19z M12,13c0.6,0,1-0.4,1-1s-0.4-1-1-1s-1,0.4-1,1S11.4,13,12,13z M12,17c0.6,0,1-0.4,1-1s-0.4-1-1-1s-1,0.4-1,1S11.4,17,12,17z M12,9c0.6,0,1-0.4,1-1s-0.4-1-1-1s-1,0.4-1,1S11.4,9,12,9z M8,13c0.6,0,1-0.4,1-1s-0.4-1-1-1s-1,0.4-1,1S7.4,13,8,13z M16,13c0.6,0,1-0.4,1-1s-0.4-1-1-1s-1,0.4-1,1S15.4,13,16,13z"/></symbol><symbol id="border-right" viewBox="0 0 24 24"><path d="M20.5,3c-0.6,0-1,0.4-1,1v16c0,0.6,0.4,1,1,1h0c0.6,0,1-0.4,1-1V4C21.5,3.4,21.1,3,20.5,3z M16.5,11c-0.6,0-1,0.4-1,1s0.4,1,1,1s1-0.4,1-1S17.1,11,16.5,11z M12.5,11c-0.6,0-1,0.4-1,1s0.4,1,1,1s1-0.4,1-1S13.1,11,12.5,11z M8.5,11c-0.6,0-1,0.4-1,1s0.4,1,1,1s1-0.4,1-1S9.1,11,8.5,11z M4.5,11c-0.6,0-1,0.4-1,1s0.4,1,1,1s1-0.4,1-1S5.1,11,4.5,11z M16.5,19c-0.6,0-1,0.4-1,1s0.4,1,1,1s1-0.4,1-1S17.1,19,16.5,19z M12.5,19c-0.6,0-1,0.4-1,1s0.4,1,1,1s1-0.4,1-1S13.1,19,12.5,19z M8.5,19c-0.6,0-1,0.4-1,1s0.4,1,1,1s1-0.4,1-1S9.1,19,8.5,19z M4.5,19c-0.6,0-1,0.4-1,1s0.4,1,1,1s1-0.4,1-1S5.1,19,4.5,19z M4.5,15c-0.6,0-1,0.4-1,1s0.4,1,1,1s1-0.4,1-1S5.1,15,4.5,15z M4.5,7c-0.6,0-1,0.4-1,1s0.4,1,1,1s1-0.4,1-1S5.1,7,4.5,7z M12.5,15c-0.6,0-1,0.4-1,1s0.4,1,1,1s1-0.4,1-1S13.1,15,12.5,15z M12.5,7c-0.6,0-1,0.4-1,1s0.4,1,1,1s1-0.4,1-1S13.1,7,12.5,7z M16.5,3c-0.6,0-1,0.4-1,1s0.4,1,1,1s1-0.4,1-1S17.1,3,16.5,3z M12.5,3c-0.6,0-1,0.4-1,1s0.4,1,1,1s1-0.4,1-1S13.1,3,12.5,3z M8.5,3c-0.6,0-1,0.4-1,1s0.4,1,1,1s1-0.4,1-1S9.1,3,8.5,3z M4.5,3c-0.6,0-1,0.4-1,1s0.4,1,1,1s1-0.4,1-1S5.1,3,4.5,3z"/></symbol><symbol id="border-top" viewBox="0 0 24 24"><path d="M4,4.5h16c0.6,0,1-0.4,1-1s-0.4-1-1-1H4c-0.6,0-1,0.4-1,1S3.4,4.5,4,4.5z M12,6.5c-0.6,0-1,0.4-1,1s0.4,1,1,1s1-0.4,1-1S12.6,6.5,12,6.5z M12,10.5c-0.6,0-1,0.4-1,1s0.4,1,1,1s1-0.4,1-1S12.6,10.5,12,10.5z M12,14.5c-0.6,0-1,0.4-1,1s0.4,1,1,1s1-0.4,1-1S12.6,14.5,12,14.5z M12,18.5c-0.6,0-1,0.4-1,1s0.4,1,1,1s1-0.4,1-1S12.6,18.5,12,18.5z M20,6.5c-0.6,0-1,0.4-1,1s0.4,1,1,1s1-0.4,1-1S20.6,6.5,20,6.5z M20,10.5c-0.6,0-1,0.4-1,1s0.4,1,1,1s1-0.4,1-1S20.6,10.5,20,10.5z M20,14.5c-0.6,0-1,0.4-1,1s0.4,1,1,1s1-0.4,1-1S20.6,14.5,20,14.5z M20,18.5c-0.6,0-1,0.4-1,1s0.4,1,1,1s1-0.4,1-1S20.6,18.5,20,18.5z M16,18.5c-0.6,0-1,0.4-1,1s0.4,1,1,1s1-0.4,1-1S16.6,18.5,16,18.5z M8,18.5c-0.6,0-1,0.4-1,1s0.4,1,1,1s1-0.4,1-1S8.6,18.5,8,18.5z M16,10.5c-0.6,0-1,0.4-1,1s0.4,1,1,1s1-0.4,1-1S16.6,10.5,16,10.5z M8,10.5c-0.6,0-1,0.4-1,1s0.4,1,1,1s1-0.4,1-1S8.6,10.5,8,10.5z M4,6.5c-0.6,0-1,0.4-1,1s0.4,1,1,1s1-0.4,1-1S4.6,6.5,4,6.5z M4,10.5c-0.6,0-1,0.4-1,1s0.4,1,1,1s1-0.4,1-1S4.6,10.5,4,10.5z M4,14.5c-0.6,0-1,0.4-1,1s0.4,1,1,1s1-0.4,1-1S4.6,14.5,4,14.5z M4,18.5c-0.6,0-1,0.4-1,1s0.4,1,1,1s1-0.4,1-1S4.6,18.5,4,18.5z"/></symbol><symbol id="border-vertical" viewBox="0 0 24 24"><path d="M11,3c-0.6,0-1,0.4-1,1v16c0,0.6,0.4,1,1,1h0c0.6,0,1-0.4,1-1V4C12,3.4,11.6,3,11,3z M7,11c-0.6,0-1,0.4-1,1s0.4,1,1,1s1-0.4,1-1S7.6,11,7,11z M3,11c-0.6,0-1,0.4-1,1s0.4,1,1,1s1-0.4,1-1S3.6,11,3,11z M15,11c-0.6,0-1,0.4-1,1s0.4,1,1,1s1-0.4,1-1S15.6,11,15,11z M19,11c-0.6,0-1,0.4-1,1s0.4,1,1,1s1-0.4,1-1S19.6,11,19,11z M7,3C6.4,3,6,3.4,6,4s0.4,1,1,1s1-0.4,1-1S7.6,3,7,3z M3,3C2.4,3,2,3.4,2,4s0.4,1,1,1s1-0.4,1-1S3.6,3,3,3z M15,3c-0.6,0-1,0.4-1,1s0.4,1,1,1s1-0.4,1-1S15.6,3,15,3z M19,5c0.6,0,1-0.4,1-1s-0.4-1-1-1s-1,0.4-1,1S18.4,5,19,5z M19,7c-0.6,0-1,0.4-1,1s0.4,1,1,1s1-0.4,1-1S19.6,7,19,7z M19,15c-0.6,0-1,0.4-1,1s0.4,1,1,1s1-0.4,1-1S19.6,15,19,15z M3,7C2.4,7,2,7.4,2,8s0.4,1,1,1s1-0.4,1-1S3.6,7,3,7z M3,15c-0.6,0-1,0.4-1,1s0.4,1,1,1s1-0.4,1-1S3.6,15,3,15z M7,19c-0.6,0-1,0.4-1,1s0.4,1,1,1s1-0.4,1-1S7.6,19,7,19z M3,19c-0.6,0-1,0.4-1,1s0.4,1,1,1s1-0.4,1-1S3.6,19,3,19z M15,19c-0.6,0-1,0.4-1,1s0.4,1,1,1s1-0.4,1-1S15.6,19,15,19z M19,19c-0.6,0-1,0.4-1,1s0.4,1,1,1s1-0.4,1-1S19.6,19,19,19z"/></symbol><symbol id="briefcase" viewBox="0 0 24 24"><path d="M17,15.5V17c0,0.6-0.4,1-1,1s-1-0.4-1-1v-1.5H9V17c0,0.6-0.4,1-1,1s-1-0.4-1-1v-1.5H5c-0.7,0-1.4-0.2-2-0.5v4c0,1.7,1.3,3,3,3h12c1.7,0,3-1.3,3-3v-4c-0.6,0.3-1.3,0.5-2,0.5H17z M21,6h-4V5c0-1.7-1.3-3-3-3h-4C8.3,2,7,3.3,7,5v1H3C2.4,6,2,6.4,2,7v4c0,1.7,1.3,3,3,3h14c1.7,0,3-1.3,3-3V7C22,6.4,21.6,6,21,6z M15,6H9V5c0-0.6,0.4-1,1-1h4c0.6,0,1,0.4,1,1V6z"/></symbol><symbol id="calender" viewBox="0 0 24 24"><path d="M2,19c0,1.7,1.3,3,3,3h14c1.7,0,3-1.3,3-3v-8H2V19z M19,4h-2V3c0-0.6-0.4-1-1-1s-1,0.4-1,1v1H9V3c0-0.6-0.4-1-1-1S7,2.4,7,3v1H5C3.3,4,2,5.3,2,7v2h20V7C22,5.3,20.7,4,19,4z"/></symbol><symbol id="chart-pie" viewBox="0 0 24 24"><path d="M12,2C6.5,2,2,6.5,2,12s4.5,10,10,10s10-4.5,10-10C22,6.5,17.5,2,12,2z M12,4c4,0,7.4,3,7.9,7H12V4z M16,18.9L12.6,13h7.4C19.6,15.5,18.2,17.7,16,18.9z"/></symbol><symbol id="chart" viewBox="0 0 24 24"><path d="M19,2H5C3.3,2,2,3.3,2,5v14c0,1.7,1.3,3,3,3h14c1.7,0,3-1.3,3-3V5C22,3.3,20.7,2,19,2z M8,17c0,0.6-0.4,1-1,1s-1-0.4-1-1v-4c0-0.6,0.4-1,1-1s1,0.4,1,1V17z M13,17c0,0.6-0.4,1-1,1s-1-0.4-1-1V7c0-0.6,0.4-1,1-1s1,0.4,1,1V17z M18,17c0,0.6-0.4,1-1,1s-1-0.4-1-1v-6c0-0.6,0.4-1,1-1s1,0.4,1,1V17z"/></symbol><symbol id="check-circle" viewBox="0 0 24 24"><path d="M12,2C6.5,2,2,6.5,2,12s4.5,10,10,10s10-4.5,10-10C22,6.5,17.5,2,12,2z M16.2,10.3l-4.8,4.8c-0.4,0.4-1,0.4-1.4,0l0,0l-2.2-2.2c-0.4-0.4-0.4-1,0-1.4c0.4-0.4,1-0.4,1.4,0c0,0,0,0,0,0l1.5,1.5l4.1-4.1c0.4-0.4,1-0.4,1.4,0C16.6,9.3,16.6,9.9,16.2,10.3z"/></symbol><symbol id="check-square" viewBox="0 0 24 24"><path d="M21,2H3C2.4,2,2,2.4,2,3v18c0,0.6,0.4,1,1,1h18c0.6,0,1-0.4,1-1V3C22,2.4,21.6,2,21,2z M17.7,9.3l-6.8,6.8c-0.4,0.4-1,0.4-1.4,0l-3.2-3.2c-0.4-0.4-0.4-1,0-1.4c0.4-0.4,1-0.4,1.4,0l2.5,2.5l6.1-6.1c0.4-0.4,1-0.4,1.4,0C18.1,8.3,18.1,8.9,17.7,9.3z"/></symbol><symbol id="check" viewBox="0 0 24 24"><path d="M18.7,7.2c-0.4-0.4-1-0.4-1.4,0l-7.5,7.5l-3.1-3.1c0,0,0,0,0,0c-0.4-0.4-1-0.4-1.4,0c-0.4,0.4-0.4,1,0,1.4l3.8,3.8c0.2,0.2,0.4,0.3,0.7,0.3c0.3,0,0.5-0.1,0.7-0.3l8.2-8.2C19.1,8.2,19.1,7.6,18.7,7.2z"/></symbol><symbol id="circle-layer" viewBox="0 0 24 24"><path d="M7,12c-2.8,0-5,2.2-5,5s2.2,5,5,5s5-2.2,5-5S9.8,12,7,12z M11,7c-2.4,0-4.6,1.5-5.5,3.7c3.5-0.9,7,1.3,7.8,4.7c0.3,1,0.3,2.1,0,3.1c3.1-1.3,4.5-4.8,3.2-7.8C15.6,8.5,13.4,7,11,7z M21.2,5.8C20.1,3.5,17.6,2,15,2S9.9,3.5,8.8,5.8c4-1.2,8.2,1,9.4,4.9c0.5,1.5,0.5,3,0,4.5C21.6,13.5,23,9.3,21.2,5.8z"/></symbol><symbol id="clinic-medical" viewBox="0 0 24 24"><path d="M21.7,10.3l-9-8c-0.4-0.3-0.9-0.3-1.3,0l-9,8c-0.4,0.4-0.5,1-0.1,1.4s1,0.5,1.4,0.1L4,11.4V21c0,0.6,0.4,1,1,1h14c0.6,0,1-0.4,1-1v-9.6l0.3,0.3c0.4,0.4,1,0.3,1.4-0.1C22.1,11.3,22.1,10.6,21.7,10.3z M14,15h-1v1c0,0.6-0.4,1-1,1s-1-0.4-1-1v-1h-1c-0.6,0-1-0.4-1-1s0.4-1,1-1h1v-1c0-0.6,0.4-1,1-1s1,0.4,1,1v1h1c0.6,0,1,0.4,1,1S14.6,15,14,15z"/></symbol><symbol id="clock-eight" viewBox="0 0 24 24"><path d="M12,2C6.5,2,2,6.5,2,12s4.5,10,10,10s10-4.5,10-10S17.5,2,12,2z M13,12c0,0.4-0.2,0.7-0.5,0.9l-2.6,1.5c-0.5,0.3-1.1,0.1-1.4-0.4s-0.1-1.1,0.4-1.4l2.1-1.2V7c0-0.6,0.4-1,1-1s1,0.4,1,1V12z"/></symbol><symbol id="clock-five" viewBox="0 0 24 24"><path d="M12,2C6.5,2,2,6.5,2,12s4.5,10,10,10s10-4.5,10-10S17.5,2,12,2z M14,15.7c-0.5,0.3-1.1,0.1-1.4-0.4l-1.5-2.8C11,12.3,11,12.2,11,12V7c0-0.6,0.4-1,1-1s1,0.4,1,1v4.7l1.4,2.6C14.6,14.8,14.5,15.4,14,15.7z"/></symbol><symbol id="clock-nine" viewBox="0 0 24 24"><path d="M12,2C6.5,2,2,6.5,2,12s4.5,10,10,10s10-4.5,10-10S17.5,2,12,2z M13,12c0,0.6-0.4,1-1,1H9c-0.6,0-1-0.4-1-1s0.4-1,1-1h2V7c0-0.6,0.4-1,1-1s1,0.4,1,1V12z"/></symbol><symbol id="clock-seven" viewBox="0 0 24 24"><path d="M12,2C6.5,2,2,6.5,2,12s4.5,10,10,10s10-4.5,10-10S17.5,2,12,2z M13,12c0,0.2-0.1,0.3-0.1,0.4l-1.5,2.8c-0.3,0.5-0.9,0.7-1.4,0.4c-0.5-0.3-0.7-0.9-0.4-1.4l1.4-2.6V7c0-0.6,0.4-1,1-1s1,0.4,1,1V12z"/></symbol><symbol id="clock-ten" viewBox="0 0 24 24"><path d="M12,2C6.5,2,2,6.5,2,12s4.5,10,10,10s10-4.5,10-10S17.5,2,12,2z M13,12c0,0.6-0.4,1-1,1c-0.2,0-0.3,0-0.5-0.1l-2.6-1.5c-0.5-0.3-0.6-0.9-0.4-1.4c0.3-0.5,0.9-0.6,1.4-0.4l1.1,0.6V7c0-0.6,0.4-1,1-1s1,0.4,1,1V12z"/></symbol><symbol id="clock-three" viewBox="0 0 24 24"><path d="M12,2C6.5,2,2,6.5,2,12s4.5,10,10,10s10-4.5,10-10S17.5,2,12,2z M15,13h-3c-0.6,0-1-0.4-1-1V7c0-0.6,0.4-1,1-1s1,0.4,1,1v4h2c0.6,0,1,0.4,1,1S15.6,13,15,13z"/></symbol><symbol id="clock-two" viewBox="0 0 24 24"><path d="M12,2C6.5,2,2,6.5,2,12s4.5,10,10,10s10-4.5,10-10S17.5,2,12,2z M15.1,11.4l-2.6,1.5c-0.5,0.3-1.1,0.1-1.4-0.4C11,12.3,11,12.2,11,12V7c0-0.6,0.4-1,1-1s1,0.4,1,1v3.3l1.1-0.6c0.5-0.3,1.1-0.1,1.4,0.4S15.6,11.1,15.1,11.4z"/></symbol><symbol id="clock" viewBox="0 0 24 24"><path d="M12,2C6.5,2,2,6.5,2,12s4.5,10,10,10s10-4.5,10-10S17.5,2,12,2z M15.5,14c-0.3,0.5-0.9,0.6-1.4,0.4l-2.6-1.5C11.2,12.7,11,12.4,11,12V7c0-0.6,0.4-1,1-1s1,0.4,1,1v4.4l2.1,1.2C15.6,12.9,15.7,13.5,15.5,14z"/></symbol><symbol id="columns" viewBox="0 0 24 24"><path d="M2,3v18c0,0.6,0.4,1,1,1h8V2H3C2.4,2,2,2.4,2,3z M21,2h-8v20h8c0.6,0,1-0.4,1-1V3C22,2.4,21.6,2,21,2z"/></symbol><symbol id="comment-dots" viewBox="0 0 24 24"><path d="M12,2C6.5,2,2,6.5,2,12c0,2.3,0.8,4.5,2.3,6.3l-2,2c-0.4,0.4-0.4,1,0,1.4C2.5,21.9,2.7,22,3,22h9c5.5,0,10-4.5,10-10S17.5,2,12,2z M8,13c-0.6,0-1-0.4-1-1s0.4-1,1-1s1,0.4,1,1S8.6,13,8,13z M12,13c-0.6,0-1-0.4-1-1s0.4-1,1-1s1,0.4,1,1S12.6,13,12,13z M16,13c-0.6,0-1-0.4-1-1s0.4-1,1-1s1,0.4,1,1S16.6,13,16,13z"/></symbol><symbol id="compress" viewBox="0 0 24 24"><path d="M8,15H3c-0.6,0-1,0.4-1,1s0.4,1,1,1h4v4c0,0.6,0.4,1,1,1h0c0.6,0,1-0.4,1-1v-5C9,15.4,8.6,15,8,15z M8,2C7.4,2,7,2.4,7,3v4H3C2.4,7,2,7.4,2,8s0.4,1,1,1h5c0.6,0,1-0.4,1-1V3C9,2.4,8.6,2,8,2z M16,9h5c0.6,0,1-0.4,1-1s-0.4-1-1-1h-4V3c0-0.6-0.4-1-1-1s-1,0.4-1,1v5C15,8.6,15.4,9,16,9z M21,15h-5c-0.6,0-1,0.4-1,1v5c0,0.6,0.4,1,1,1h0c0.6,0,1-0.4,1-1v-4h4c0.6,0,1-0.4,1-1S21.6,15,21,15z"/></symbol><symbol id="corner-down-left" viewBox="0 0 24 24"><path d="M18.7,2c-0.6,0-1,0.4-1,1v10.4c0,1.1-0.9,2-2,2h-8l2.9-2.9c0.4-0.4,0.4-1,0-1.4s-1-0.4-1.4,0l-4.6,4.6l0,0c-0.4,0.4-0.4,1,0,1.4l4.6,4.6C9.4,21.9,9.7,22,9.9,22c0.3,0,0.5-0.1,0.7-0.3c0.4-0.4,0.4-1,0-1.4l-2.9-2.9h8c2.2,0,4-1.8,4-4V3C19.7,2.4,19.2,2,18.7,2z"/></symbol><symbol id="corner-down-right" viewBox="0 0 24 24"><path d="M19.4,15.7L14.8,11c-0.4-0.4-1-0.4-1.4,0c-0.4,0.4-0.4,1,0,1.4l2.9,2.9h-7c-1.7,0-3-1.3-3-3V3c0-0.6-0.4-1-1-1s-1,0.4-1,1v9.4c0,2.8,2.2,5,5,5h7l-2.9,2.9c-0.2,0.2-0.3,0.4-0.3,0.7c0,0.6,0.4,1,1,1c0.3,0,0.5-0.1,0.7-0.3l4.6-4.6c0,0,0,0,0,0C19.8,16.7,19.8,16.1,19.4,15.7z"/></symbol><symbol id="corner-left-down" viewBox="0 0 24 24"><path d="M21,4.3h-9.4c-2.8,0-5,2.2-5,5v7l-2.9-2.9c-0.4-0.4-1-0.4-1.4,0c-0.4,0.4-0.4,1,0,1.4l4.6,4.6c0.2,0.2,0.4,0.3,0.7,0.3c0.3,0,0.5-0.1,0.7-0.3l4.6-4.6c0.4-0.4,0.4-1,0-1.4c-0.4-0.4-1-0.4-1.4,0l-2.9,2.9v-7c0-1.7,1.3-3,3-3H21c0.6,0,1-0.4,1-1S21.6,4.3,21,4.3z"/></symbol><symbol id="corner-right-down" viewBox="0 0 24 24"><path d="M21.7,13.4c-0.4-0.4-1-0.4-1.4,0l-2.9,2.9v-8c0-2.2-1.8-4-4-4H3c-0.6,0-1,0.4-1,1s0.4,1,1,1h10.4c1.1,0,2,0.9,2,2v8l-2.9-2.9c-0.4-0.4-1-0.4-1.4,0c-0.4,0.4-0.4,1,0,1.4l4.6,4.6c0.2,0.2,0.4,0.3,0.7,0.3c0.3,0,0.5-0.1,0.7-0.3l4.6-4.6C22.1,14.4,22.1,13.7,21.7,13.4z"/></symbol><symbol id="corner-up-left" viewBox="0 0 24 24"><path d="M14.7,6.6h-7l2.9-2.9c0.4-0.4,0.4-1,0-1.4c-0.4-0.4-1-0.4-1.4,0L4.6,6.9l0,0c-0.4,0.4-0.4,1,0,1.4L9.2,13c0.2,0.2,0.4,0.3,0.7,0.3v0c0.3,0,0.5-0.1,0.7-0.3c0.4-0.4,0.4-1,0-1.4L7.7,8.6h7c1.7,0,3,1.3,3,3V21c0,0.6,0.4,1,1,1s1-0.4,1-1v-9.4C19.7,8.9,17.4,6.6,14.7,6.6z"/></symbol><symbol id="corner-up-right" viewBox="0 0 24 24"><path d="M19.4,6.9l-4.6-4.6c-0.4-0.4-1-0.4-1.4,0c-0.4,0.4-0.4,1,0,1.4l2.9,2.9h-8c-2.2,0-4,1.8-4,4V21c0,0.6,0.4,1,1,1c0.6,0,1-0.4,1-1V10.6c0-1.1,0.9-2,2-2h8l-2.9,2.9c-0.2,0.2-0.3,0.4-0.3,0.7c0,0.6,0.4,1,1,1c0.3,0,0.5-0.1,0.7-0.3l4.6-4.6c0,0,0,0,0,0C19.8,7.9,19.8,7.3,19.4,6.9z"/></symbol><symbol id="coronavirus" viewBox="0 0 24 24"><path d="M22,11h-1.1c-0.2-1.7-0.9-3.3-1.9-4.6l0.8-0.8c0.4-0.4,0.4-1,0-1.4c-0.4-0.4-1-0.4-1.4,0L17.6,5c-1.3-1.1-2.9-1.7-4.6-1.9V2c0-0.6-0.4-1-1-1s-1,0.4-1,1v1.1C9.3,3.2,7.7,3.9,6.4,5L5.6,4.2c-0.4-0.4-1-0.4-1.4,0c-0.4,0.4-0.4,1,0,1.4L5,6.4C3.9,7.7,3.2,9.3,3.1,11H2c-0.6,0-1,0.4-1,1s0.4,1,1,1h1.1c0.2,1.7,0.9,3.3,1.9,4.6l-0.8,0.8c-0.4,0.4-0.4,1,0,1.4c0.4,0.4,1,0.4,1.4,0L6.4,19c1.3,1.1,2.9,1.7,4.6,1.9V22c0,0.6,0.4,1,1,1s1-0.4,1-1v-1.1c1.7-0.2,3.3-0.9,4.6-1.9l0.8,0.8c0.4,0.4,1,0.4,1.4,0c0.4-0.4,0.4-1,0-1.4L19,17.6c1.1-1.3,1.7-2.9,1.9-4.6H22c0.6,0,1-0.4,1-1S22.6,11,22,11z M9,16c-0.6,0-1-0.4-1-1s0.4-1,1-1s1,0.4,1,1S9.6,16,9,16z M9.5,12C8.7,12,8,11.3,8,10.5S8.7,9,9.5,9S11,9.7,11,10.5S10.3,12,9.5,12z M14.5,15c-0.8,0-1.5-0.7-1.5-1.5s0.7-1.5,1.5-1.5s1.5,0.7,1.5,1.5S15.3,15,14.5,15z M15,10c-0.6,0-1-0.4-1-1s0.4-1,1-1s1,0.4,1,1S15.6,10,15,10z"/></symbol><symbol id="dialpad" viewBox="0 0 24 24"><path d="M14,9.2h-4c-0.4,0-0.8,0.3-0.8,0.8v4c0,0.4,0.3,0.8,0.8,0.8h4c0.4,0,0.8-0.3,0.8-0.8v-4C14.8,9.6,14.4,9.2,14,9.2z M14,16.2h-4c-0.4,0-0.8,0.3-0.8,0.8v4c0,0.4,0.3,0.8,0.8,0.8h4c0.4,0,0.8-0.3,0.8-0.8v-4C14.8,16.6,14.4,16.2,14,16.2z M7,2.2H3C2.6,2.2,2.2,2.6,2.2,3v4c0,0.4,0.3,0.8,0.8,0.8h4c0.4,0,0.8-0.3,0.8-0.8V3C7.8,2.6,7.4,2.2,7,2.2z M7,9.2H3c-0.4,0-0.8,0.3-0.8,0.8v4c0,0.4,0.3,0.8,0.8,0.8h4c0.4,0,0.8-0.3,0.8-0.8v-4C7.8,9.6,7.4,9.2,7,9.2z M21,2.2h-4c-0.4,0-0.8,0.3-0.8,0.8v4c0,0.4,0.3,0.8,0.8,0.8h4c0.4,0,0.8-0.3,0.8-0.8V3C21.8,2.6,21.4,2.2,21,2.2z M14,2.2h-4C9.6,2.2,9.2,2.6,9.2,3v4c0,0.4,0.3,0.8,0.8,0.8h4c0.4,0,0.8-0.3,0.8-0.8V3C14.8,2.6,14.4,2.2,14,2.2z M21,9.2h-4c-0.4,0-0.8,0.3-0.8,0.8v4c0,0.4,0.3,0.8,0.8,0.8h4c0.4,0,0.8-0.3,0.8-0.8v-4C21.8,9.6,21.4,9.2,21,9.2z"/></symbol><symbol id="direction" viewBox="0 0 24 24"><path d="M14.3,14.8L12,17.1l-2.3-2.3c-0.4-0.4-1-0.4-1.4,0c-0.4,0.4-0.4,1,0,1.4l3,3c0.2,0.2,0.4,0.3,0.7,0.3c0.3,0,0.5-0.1,0.7-0.3l3-3c0.4-0.4,0.4-1,0-1.4C15.3,14.4,14.7,14.4,14.3,14.8z M9.7,10.2L12,7.9l2.3,2.3c0.2,0.2,0.4,0.3,0.7,0.3c0.3,0,0.5-0.1,0.7-0.3c0.4-0.4,0.4-1,0-1.4l-3-3c0,0,0,0,0,0c-0.4-0.4-1-0.4-1.4,0l-3,3c-0.4,0.4-0.4,1,0,1.4C8.7,10.6,9.3,10.6,9.7,10.2z"/></symbol><symbol id="document-layout-center" viewBox="0 0 24 24"><path d="M19,8h2c0.6,0,1-0.4,1-1s-0.4-1-1-1h-2c-0.6,0-1,0.4-1,1S18.4,8,19,8z M21,10h-2c-0.6,0-1,0.4-1,1s0.4,1,1,1h2c0.6,0,1-0.4,1-1S21.6,10,21,10z M3,8h2c0.6,0,1-0.4,1-1S5.6,6,5,6H3C2.4,6,2,6.4,2,7S2.4,8,3,8z M3,12h2c0.6,0,1-0.4,1-1s-0.4-1-1-1H3c-0.6,0-1,0.4-1,1S2.4,12,3,12z M9,12h6c0.6,0,1-0.4,1-1V5c0-0.6-0.4-1-1-1H9C8.4,4,8,4.4,8,5v6C8,11.6,8.4,12,9,12z M21,14H3c-0.6,0-1,0.4-1,1s0.4,1,1,1h18c0.6,0,1-0.4,1-1S21.6,14,21,14z M13,18H3c-0.6,0-1,0.4-1,1s0.4,1,1,1h10c0.6,0,1-0.4,1-1S13.6,18,13,18z"/></symbol><symbol id="document-layout-left" viewBox="0 0 24 24"><path d="M13,8h8c0.6,0,1-0.4,1-1s-0.4-1-1-1h-8c-0.6,0-1,0.4-1,1S12.4,8,13,8z M21,10h-8c-0.6,0-1,0.4-1,1s0.4,1,1,1h8c0.6,0,1-0.4,1-1S21.6,10,21,10z M3,12h6c0.6,0,1-0.4,1-1V5c0-0.6-0.4-1-1-1H3C2.4,4,2,4.4,2,5v6C2,11.6,2.4,12,3,12z M21,14H3c-0.6,0-1,0.4-1,1s0.4,1,1,1h18c0.6,0,1-0.4,1-1S21.6,14,21,14z M13,18H3c-0.6,0-1,0.4-1,1s0.4,1,1,1h10c0.6,0,1-0.4,1-1S13.6,18,13,18z"/></symbol><symbol id="document-layout-right" viewBox="0 0 24 24"><path d="M13,18H3c-0.6,0-1,0.4-1,1s0.4,1,1,1h10c0.6,0,1-0.4,1-1S13.6,18,13,18z M3,8h8c0.6,0,1-0.4,1-1s-0.4-1-1-1H3C2.4,6,2,6.4,2,7S2.4,8,3,8z M3,12h8c0.6,0,1-0.4,1-1s-0.4-1-1-1H3c-0.6,0-1,0.4-1,1S2.4,12,3,12z M21,4h-6c-0.6,0-1,0.4-1,1v6c0,0.6,0.4,1,1,1h6c0.6,0,1-0.4,1-1V5C22,4.4,21.6,4,21,4z M21,14H3c-0.6,0-1,0.4-1,1s0.4,1,1,1h18c0.6,0,1-0.4,1-1S21.6,14,21,14z"/></symbol><symbol id="download-alt" viewBox="0 0 24 24"><path d="M18,9h-2c-0.6,0-1,0.4-1,1s0.4,1,1,1h2c0.6,0,1,0.4,1,1v7c0,0.6-0.4,1-1,1H6c-0.6,0-1-0.4-1-1v-7c0-0.6,0.4-1,1-1h2c0.6,0,1-0.4,1-1S8.6,9,8,9H6c-1.7,0-3,1.3-3,3v7c0,1.7,1.3,3,3,3h12c1.7,0,3-1.3,3-3v-7C21,10.3,19.7,9,18,9z M8.3,14.7l3,3c0.2,0.2,0.4,0.3,0.7,0.3c0.3,0,0.5-0.1,0.7-0.3l3-3c0.4-0.4,0.4-1,0-1.4c-0.4-0.4-1-0.4-1.4,0L13,14.6V3c0-0.6-0.4-1-1-1s-1,0.4-1,1v11.6l-1.3-1.3c-0.4-0.4-1-0.4-1.4,0C7.9,13.7,7.9,14.3,8.3,14.7z"/></symbol><symbol id="ellipsis-h" viewBox="0 0 24 24"><path d="M12,10c-1.1,0-2,0.9-2,2s0.9,2,2,2s2-0.9,2-2S13.1,10,12,10z M5,10c-1.1,0-2,0.9-2,2s0.9,2,2,2s2-0.9,2-2S6.1,10,5,10z M19,10c-1.1,0-2,0.9-2,2s0.9,2,2,2s2-0.9,2-2S20.1,10,19,10z"/></symbol><symbol id="ellipsis-v" viewBox="0 0 24 24"><path d="M12,10c-1.1,0-2,0.9-2,2s0.9,2,2,2s2-0.9,2-2S13.1,10,12,10z M12,7c1.1,0,2-0.9,2-2s-0.9-2-2-2s-2,0.9-2,2S10.9,7,12,7z M12,17c-1.1,0-2,0.9-2,2s0.9,2,2,2s2-0.9,2-2S13.1,17,12,17z"/></symbol><symbol id="exclamation-circle" viewBox="0 0 24 24"><path d="M12,2C12,2,12,2,12,2C6.5,2,2,6.5,2,12s4.5,10,10,10s10-4.5,10-10S17.5,2,12,2z M12,17c-0.6,0-1-0.4-1-1s0.4-1,1-1s1,0.4,1,1S12.6,17,12,17z M13,12c0,0.6-0.4,1-1,1s-1-0.4-1-1V8c0-0.6,0.4-1,1-1s1,0.4,1,1V12z"/></symbol><symbol id="exclamation-octagon" viewBox="0 0 24 24"><path d="M21.7,7.6l-5.3-5.3C16.2,2.1,16,2,15.7,2H8.3C8,2,7.8,2.1,7.6,2.3L2.3,7.6C2.1,7.8,2,8,2,8.3v7.5c0,0.3,0.1,0.5,0.3,0.7l5.3,5.3C7.8,21.9,8,22,8.3,22h7.5c0.3,0,0.5-0.1,0.7-0.3l5.3-5.3c0.2-0.2,0.3-0.4,0.3-0.7V8.3C22,8,21.9,7.8,21.7,7.6z M12,17c-0.6,0-1-0.4-1-1s0.4-1,1-1s1,0.4,1,1S12.6,17,12,17z M13,12c0,0.6-0.4,1-1,1s-1-0.4-1-1V8c0-0.6,0.4-1,1-1s1,0.4,1,1V12z"/></symbol><symbol id="exclamation-triangle" viewBox="0 0 24 24"><path d="M22.7,17.5l-8.1-14c-0.8-1.4-2.7-1.9-4.1-1.1C10,2.7,9.6,3.1,9.4,3.5l-8.1,14c-0.8,1.4-0.3,3.3,1.1,4.1c0.5,0.3,1,0.4,1.5,0.4h16.1c1.7,0,3-1.4,3-3C23.1,18.4,22.9,17.9,22.7,17.5z M12,18c-0.6,0-1-0.4-1-1s0.4-1,1-1s1,0.4,1,1S12.6,18,12,18z M13,13c0,0.6-0.4,1-1,1s-1-0.4-1-1V9c0-0.6,0.4-1,1-1s1,0.4,1,1V13z"/></symbol><symbol id="favorite" viewBox="0 0 24 24"><path d="M22,10.1c0.1-0.5-0.3-1.1-0.8-1.1l-5.7-0.8L12.9,3c-0.1-0.2-0.2-0.3-0.4-0.4C12,2.3,11.4,2.5,11.1,3L8.6,8.2L2.9,9C2.6,9,2.4,9.1,2.3,9.3c-0.4,0.4-0.4,1,0,1.4l4.1,4l-1,5.7c0,0.2,0,0.4,0.1,0.6c0.3,0.5,0.9,0.7,1.4,0.4l5.1-2.7l5.1,2.7c0.1,0.1,0.3,0.1,0.5,0.1l0,0c0.1,0,0.1,0,0.2,0c0.5-0.1,0.9-0.6,0.8-1.2l-1-5.7l4.1-4C21.9,10.5,22,10.3,22,10.1z"/></symbol><symbol id="flip-h-alt" viewBox="0 0 24 24"><path d="M7.4,7.2c0.1,0,0.2,0,0.2,0l1.9-0.5c0.5-0.1,0.9-0.7,0.7-1.2c-0.1-0.5-0.7-0.9-1.2-0.7L7.1,5.2c-0.4,0.1-0.8,0.5-0.8,1C6.4,6.7,6.8,7.2,7.4,7.2z M9.5,9h-2c-0.6,0-1,0.4-1,1s0.4,1,1,1h2c0.6,0,1-0.4,1-1S10.1,9,9.5,9z M13.2,5.7c0.1,0,0.2,0,0.2,0l1.9-0.5c0,0,0,0,0,0C15.9,5,16.3,4.5,16.1,4c-0.1-0.5-0.7-0.9-1.2-0.7L13,3.7c-0.4,0.1-0.8,0.5-0.8,1C12.2,5.2,12.7,5.7,13.2,5.7z M13.5,9c-0.6,0-1,0.4-1,1s0.4,1,1,1h2c0.6,0,1-0.4,1-1s-0.4-1-1-1H13.5z M21,2.8c-0.1-0.5-0.7-0.9-1.2-0.7l-1,0.2c-0.4,0.1-0.8,0.5-0.8,1c0,0.6,0.4,1,1,1C19.1,4.7,19.5,5,20,5h0c0.6,0,1-0.4,1-1V3C21,2.9,21,2.8,21,2.8z M4,10.5L4,10.5c0.6,0,1-0.4,1-1v-2c0-0.6-0.4-1-1-1S3,7,3,7.5v2C3,10.1,3.4,10.5,4,10.5z M20,7c-0.6,0-1,0.4-1,1v1.1c-0.3,0.2-0.5,0.5-0.5,0.9c0,0.6,0.4,1,1,1H20c0.6,0,1-0.4,1-1V8C21,7.4,20.6,7,20,7z M20,13H4c-0.6,0-1,0.4-1,1v3c0,0.5,0.3,0.9,0.8,1l16,4c0.1,0,0.2,0,0.2,0c0.6,0,1-0.4,1-1v-7C21,13.4,20.6,13,20,13z"/></symbol><symbol id="flip-h" viewBox="0 0 24 24"><path d="M21,11H3c-0.6,0-1,0.4-1,1s0.4,1,1,1h18c0.6,0,1-0.4,1-1S21.6,11,21,11z M17,15H7c-0.3,0-0.5,0.1-0.7,0.3c-0.4,0.4-0.4,1,0,1.4l5,5c0.2,0.2,0.4,0.3,0.7,0.3c0.3,0,0.5-0.1,0.7-0.3l5-5c0.2-0.2,0.3-0.4,0.3-0.7C18,15.4,17.6,15,17,15z M15.4,8c0,0.6,0.4,1,1,1H17c0.3,0,0.5-0.1,0.7-0.3c0.4-0.4,0.4-1,0-1.4l-0.7-0.7c-0.3-0.3-0.8-0.4-1.2-0.2c-0.5,0.2-0.7,0.8-0.4,1.3C15.4,7.9,15.4,7.9,15.4,8z M11.6,4.8L12,4.4l0.8,0.8c0.2,0.2,0.4,0.3,0.7,0.3h0c0.3,0,0.5-0.1,0.7-0.3c0.4-0.4,0.4-1,0-1.4l-1.1-1.1c-0.1-0.1-0.2-0.1-0.3-0.2c0-0.1-0.1-0.2-0.2-0.3c-0.4-0.4-1-0.4-1.4,0l-1.1,1.1c-0.4,0.4-0.4,1,0,1.4S11.3,5.2,11.6,4.8z M7.1,9c0.3,0,0.5-0.1,0.7-0.3l1.1-1.1c0.4-0.4,0.4-1,0-1.4c-0.4-0.4-1-0.4-1.4,0L6.3,7.2C6.2,7.4,6.1,7.7,6.1,7.9C6.1,8.5,6.5,8.9,7.1,9z M10.9,9h1.5c0.6,0,1-0.4,1-1s-0.4-1-1-1h-1.5c-0.6,0-1,0.4-1,1S10.4,9,10.9,9z"/></symbol><symbol id="flip-v-alt" viewBox="0 0 24 24"><path d="M4.9,12.2c-0.5-0.1-1.1,0.2-1.2,0.7l-0.5,1.9C3.1,15.4,3.4,16,4,16.1c0.1,0,0.2,0,0.2,0c0.5,0,0.9-0.3,1-0.8l0.5-1.9C5.8,12.9,5.5,12.4,4.9,12.2z M7.5,5h2c0.6,0,1-0.4,1-1s-0.4-1-1-1h-2c-0.6,0-1,0.4-1,1S7,5,7.5,5z M4.2,19c0-0.5-0.3-0.9-0.8-1c-0.5-0.1-1.1,0.2-1.2,0.7l-0.2,1c0,0.1,0,0.2,0,0.2c0,0.6,0.4,1,1,1h1c0.5,0,0.9-0.3,1-0.8C5.1,19.7,4.8,19.2,4.2,19z M6.4,6.4C5.9,6.3,5.3,6.6,5.2,7.1L4.7,9.1c0,0.1,0,0.2,0,0.2c0,0.6,0.4,1,1,1c0.5,0,0.9-0.3,1-0.8l0.5-1.9C7.3,7.1,6.9,6.6,6.4,6.4z M10,12.5c-0.6,0-1,0.4-1,1v2c0,0.6,0.4,1,1,1h0c0.6,0,1-0.4,1-1v-2C11,13,10.6,12.5,10,12.5z M10,6.5c-0.6,0-1,0.4-1,1v2c0,0.6,0.4,1,1,1h0c0.6,0,1-0.4,1-1v-2C11,7,10.6,6.5,10,6.5z M10.5,18.6C10,18.4,9.4,18.5,9.1,19H8c-0.6,0-1,0.4-1,1s0.4,1,1,1h2c0.6,0,1-0.4,1-1v-0.5C11,19.2,10.8,18.8,10.5,18.6z M22,19.8l-4-16C17.9,3.3,17.5,3,17,3h-3c-0.6,0-1,0.4-1,1v16c0,0.6,0.4,1,1,1h7c0.1,0,0.2,0,0.2,0C21.8,20.8,22.1,20.3,22,19.8z"/></symbol><symbol id="flip-v" viewBox="0 0 24 24"><path d="M12,2c-0.6,0-1,0.4-1,1v18c0,0.6,0.4,1,1,1h0c0.6,0,1-0.4,1-1V3C13,2.4,12.6,2,12,2z M21.7,11.3l-5-5C16.5,6.1,16.3,6,16,6c-0.6,0-1,0.4-1,1v10c0,0.6,0.4,1,1,1c0.3,0,0.5-0.1,0.7-0.3l5-5C22.1,12.3,22.1,11.7,21.7,11.3z M3.8,9.8l-1.1,1.1c-0.1,0.1-0.1,0.2-0.2,0.3c-0.1,0-0.2,0.1-0.3,0.2c-0.4,0.4-0.4,1,0,1.4l1.1,1.1c0.2,0.2,0.4,0.3,0.7,0.3h0c0.3,0,0.5-0.1,0.7-0.3c0.4-0.4,0.4-1,0-1.4L4.4,12l0.8-0.8c0.4-0.4,0.4-1,0-1.4S4.2,9.4,3.8,9.8z M7.6,15.2c-0.4-0.4-1-0.4-1.4,0c-0.4,0.4-0.4,1,0,1.4l1.1,1.1C7.4,17.8,7.7,18,7.9,18l0,0c0.3,0,0.5-0.1,0.7-0.3c0.4-0.4,0.4-1,0-1.4L7.6,15.2z M7.3,6.3L6.6,7C6.4,7.1,6.3,7.4,6.3,7.7c0,0.6,0.4,1,1,1c0.2,0,0.3,0,0.5-0.1c0.1,0,0.1,0,0.2,0c0.6,0,1-0.4,1-1V7c0-0.3-0.1-0.5-0.3-0.7C8.3,5.9,7.7,5.9,7.3,6.3z M8,10.6c-0.6,0-1,0.4-1,1v1.5c0,0.6,0.4,1,1,1h0c0.6,0,1-0.4,1-1v-1.5C9,11,8.6,10.6,8,10.6z"/></symbol><symbol id="graph-bar" viewBox="0 0 24 24"><path d="M6,13H2c-0.6,0-1,0.4-1,1c0,0,0,0,0,0v8c0,0.6,0.4,1,1,1c0,0,0,0,0,0h4c0.6,0,1-0.4,1-1c0,0,0,0,0,0v-8C7,13.4,6.6,13,6,13C6,13,6,13,6,13z M22,9h-4c-0.6,0-1,0.4-1,1c0,0,0,0,0,0v12c0,0.6,0.4,1,1,1c0,0,0,0,0,0h4c0.6,0,1-0.4,1-1c0,0,0,0,0,0V10C23,9.4,22.6,9,22,9C22,9,22,9,22,9z M14,1h-4C9.4,1,9,1.4,9,2c0,0,0,0,0,0v20c0,0.6,0.4,1,1,1c0,0,0,0,0,0h4c0.6,0,1-0.4,1-1c0,0,0,0,0,0V2C15,1.4,14.6,1,14,1C14,1,14,1,14,1z"/></symbol><symbol id="grid" viewBox="0 0 24 24"><path d="M21,2H3C2.4,2,2,2.4,2,3v4h20V3C22,2.4,21.6,2,21,2z M2,15h9V9H2V15z M2,21c0,0.6,0.4,1,1,1h8v-5H2V21z M13,15h9V9h-9V15z M13,22h8c0.6,0,1-0.4,1-1v-4h-9V22z"/></symbol><symbol id="grids" viewBox="0 0 24 24"><path d="M2,3.9v16.2c0,1,0.9,1.9,1.9,1.9H8V2H3.9C2.9,2,2,2.9,2,3.9z M20.1,2H16v20h4.1c1,0,1.9-0.9,1.9-1.9V3.9C22,2.9,21.1,2,20.1,2z M10,22h4V2h-4V22z"/></symbol><symbol id="grip-horizontal-line" viewBox="0 0 24 24"><path d="M3,11h18c0.6,0,1-0.4,1-1s-0.4-1-1-1H3c-0.6,0-1,0.4-1,1S2.4,11,3,11z M21,13H3c-0.6,0-1,0.4-1,1s0.4,1,1,1h18c0.6,0,1-0.4,1-1S21.6,13,21,13z"/></symbol><symbol id="head-side-cough" viewBox="0 0 24 24"><path d="M6,16c-0.6,0-1,0.4-1,1s0.4,1,1,1s1-0.4,1-1S6.6,16,6,16z M2,17c-0.6,0-1,0.4-1,1s0.4,1,1,1s1-0.4,1-1S2.6,17,2,17z M5,20c-0.6,0-1,0.4-1,1s0.4,1,1,1s1-0.4,1-1S5.6,20,5,20z M16.2,2C12.2,1.9,9,4.9,8.9,8.9c0,0.1,0,0.1,0,0.2v0l-1.8,3.8c-0.2,0.5,0,1.1,0.5,1.3c0.1,0.1,0.3,0.1,0.4,0.1h0.9v1.8c0,1.1,0.9,1.9,1.9,1.9h0.9v1.8c0,0.6,0.4,1,1,1h0c0.6,0,8,0,8.4,0c0.1,0,0.2,0,0.3,0c0.5-0.2,0.8-0.7,0.7-1.2l-0.9-3L23,9.8c0-0.1,0-0.2,0-0.3V9.3C23,5.4,20,2.2,16.2,2z"/></symbol><symbol id="head-side-mask" viewBox="0 0 24 24"><path d="M13.2,2c-2-0.1-4,0.7-5.5,2.1C6.3,5.5,5.5,7.4,5.5,9.5l-1.8,3c-0.1,0.2-0.2,0.3-0.2,0.5v0c0,0.1,0,0.2,0.1,0.3L5,17.2c0,0,0,0.1,0,0.1c0.5,1,1.5,1.7,2.7,1.7h0.8v2c0,0.6,0.4,1,1,1s1-0.4,1-1v-2h2l0,0c0.1,0,0.2,0,0.3-0.1l3.7-1.3c0,0,0,0.1,0,0.1l1,3.5c0.1,0.4,0.5,0.7,1,0.7c0.1,0,0.2,0,0.3,0c0.5-0.2,0.8-0.7,0.7-1.2l-0.9-3.2l1.9-7.3c0-0.1,0-0.2,0-0.3V9.8C20.5,5.7,17.3,2.2,13.2,2z M17,15.4l-3.5,1.2v-2.9l4.3-1.4L17,15.4z M18.4,10c-0.1,0-0.2,0-0.3,0L12.3,12h-6l1.1-1.7c0.1-0.2,0.2-0.4,0.1-0.6c0,0,0-0.2,0-0.2C7.5,6.5,10,4,13,4c0.1,0,0.1,0,0.2,0c3,0.2,5.4,2.7,5.3,5.8L18.4,10z"/></symbol><symbol id="head-side" viewBox="0 0 24 24"><path d="M13.2,2c-2-0.1-4,0.7-5.5,2.1C6.3,5.5,5.5,7.5,5.5,9.5v0l-1.9,4c-0.2,0.5,0,1.1,0.5,1.3C4.2,15,4.4,15,4.5,15h1v2c0,1.1,0.9,2,2,2h1v2c0,0.6,0.4,1,1,1h0c0.6,0,8.6,0,9,0c0.1,0,0.2,0,0.3,0c0.5-0.2,0.8-0.7,0.7-1.2l-0.9-3.2l1.9-7.3c0-0.1,0-0.2,0-0.3V9.8C20.5,5.7,17.3,2.2,13.2,2z"/></symbol><symbol id="history-alt" viewBox="0 0 24 24"><path d="M16.4,3.3C12.5,1.1,7.7,1.8,4.6,4.8V3c0-0.6-0.4-1-1-1s-1,0.4-1,1v4.5c0,0.6,0.4,1,1,1h4.5c0.6,0,1-0.4,1-1s-0.4-1-1-1H5.7C7.1,4.9,9.2,4,11.5,4c4.4,0,8,3.6,8,8s-3.6,8-8,8c-0.6,0-1,0.4-1,1s0.4,1,1,1c3.6,0,6.9-1.9,8.7-5C22.9,12.2,21.2,6.1,16.4,3.3z M11.4,8c-0.6,0-1,0.4-1,1v3c0,0.6,0.4,1,1,1h2c0.6,0,1-0.4,1-1s-0.4-1-1-1h-1V9C12.4,8.4,12,8,11.4,8z"/></symbol><symbol id="history" viewBox="0 0 24 24"><path d="M17,3.3C13.1,1.1,8.3,1.8,5.1,4.8V3c0-0.6-0.4-1-1-1s-1,0.4-1,1v4.5c0,0.6,0.4,1,1,1h4.5c0.6,0,1-0.4,1-1s-0.4-1-1-1H6.2C7.7,4.9,9.8,4,12,4c4.4,0,8,3.6,8,8s-3.6,8-8,8s-8-3.6-8-8c0-0.6-0.4-1-1-1s-1,0.4-1,1c0,5.5,4.5,10,10,10c3.6,0,6.9-1.9,8.7-5C23.4,12.2,21.8,6.1,17,3.3z M12,8c-0.6,0-1,0.4-1,1v3c0,0.6,0.4,1,1,1h2c0.6,0,1-0.4,1-1s-0.4-1-1-1h-1V9C13,8.4,12.6,8,12,8z"/></symbol><symbol id="horizontal-align-left" viewBox="0 0 24 24"><path d="M21,10h-5V7c0-0.6-0.4-1-1-1H4V3c0-0.6-0.4-1-1-1C2.5,2,2,2.4,2,3v18c0,0.6,0.4,1,1,1c0.6,0,1-0.4,1-1v-3h17c0.6,0,1-0.4,1-1v-6C22,10.4,21.6,10,21,10z M14,10H4V8h10V10z"/></symbol><symbol id="hospital-square-sign" viewBox="0 0 24 24"><path d="M19,2H5C3.3,2,2,3.3,2,5v14c0,1.7,1.3,3,3,3h14c1.7,0,3-1.3,3-3V5C22,3.3,20.7,2,19,2z M16,17c0,0.6-0.4,1-1,1s-1-0.4-1-1v-4h-4v4c0,0.6-0.4,1-1,1s-1-0.4-1-1V7c0-0.6,0.4-1,1-1s1,0.4,1,1v4h4V7c0-0.6,0.4-1,1-1s1,0.4,1,1V17z"/></symbol><symbol id="hospital-symbol" viewBox="0 0 24 24"><path d="M12,2C6.5,2,2,6.5,2,12s4.5,10,10,10s10-4.5,10-10C22,6.5,17.5,2,12,2z M16,16c0,0.6-0.4,1-1,1s-1-0.4-1-1v-3h-4v3c0,0.6-0.4,1-1,1s-1-0.4-1-1V8c0-0.6,0.4-1,1-1s1,0.4,1,1v3h4V8c0-0.6,0.4-1,1-1s1,0.4,1,1V16z"/></symbol><symbol id="hospital" viewBox="0 0 24 24"><path d="M21.5,6.5h-3v-4c0-0.6-0.4-1-1-1h-11c-0.6,0-1,0.4-1,1v4h-3c-0.6,0-1,0.4-1,1v14c0,0.6,0.4,1,1,1h19c0.6,0,1-0.4,1-1v-14C22.5,6.9,22.1,6.5,21.5,6.5z M7.5,18.5h-1c-0.6,0-1-0.4-1-1s0.4-1,1-1h1c0.6,0,1,0.4,1,1S8.1,18.5,7.5,18.5z M7.5,14.5h-1c-0.6,0-1-0.4-1-1s0.4-1,1-1h1c0.6,0,1,0.4,1,1S8.1,14.5,7.5,14.5z M12.5,18.5h-1c-0.6,0-1-0.4-1-1s0.4-1,1-1h1c0.6,0,1,0.4,1,1S13.1,18.5,12.5,18.5z M12.5,14.5h-1c-0.6,0-1-0.4-1-1s0.4-1,1-1h1c0.6,0,1,0.4,1,1S13.1,14.5,12.5,14.5z M13.5,9H13v0.5c0,0.6-0.4,1-1,1s-1-0.4-1-1V9h-0.5c-0.6,0-1-0.4-1-1s0.4-1,1-1H11V6.5c0-0.6,0.4-1,1-1s1,0.4,1,1V7h0.5c0.6,0,1,0.4,1,1S14.1,9,13.5,9z M17.5,18.5h-1c-0.6,0-1-0.4-1-1s0.4-1,1-1h1c0.6,0,1,0.4,1,1S18.1,18.5,17.5,18.5z M17.5,14.5h-1c-0.6,0-1-0.4-1-1s0.4-1,1-1h1c0.6,0,1,0.4,1,1S18.1,14.5,17.5,14.5z"/></symbol><symbol id="house-user" viewBox="0 0 24 24"><path d="M21.7,10.3l-9-8c-0.4-0.3-0.9-0.3-1.3,0l-9,8c-0.4,0.4-0.5,1-0.1,1.4s1,0.5,1.4,0.1L4,11.4V21c0,0.6,0.4,1,1,1h14c0.6,0,1-0.4,1-1v-9.6l0.3,0.3c0.4,0.4,1,0.3,1.4-0.1C22.1,11.3,22.1,10.6,21.7,10.3z M12,11c1.5,0,2.7,1.2,2.7,2.7c0,1.5-1.2,2.7-2.7,2.7c-1.5,0-2.7-1.2-2.7-2.7S10.5,11,12,11z M7,20c0-0.1,0-0.1,0.1-0.2c2.2-2.7,6.2-3.2,8.9-1c0.4,0.3,0.7,0.6,1,1c0,0,0,0.1,0.1,0.2H7z"/></symbol><symbol id="image-v" viewBox="0 0 24 24"><path d="M19,2H5C3.3,2,2,3.3,2,5v14c0,1.7,1.3,3,3,3h14c1.7,0,3-1.3,3-3V5C22,3.3,20.7,2,19,2z M20,13.9L18.1,12c-1.2-1.1-3.1-1.1-4.2,0L13,12.9L10.1,10c-1.2-1.1-3.1-1.1-4.2,0L4,11.9V5c0-0.6,0.4-1,1-1h14c0.6,0,1,0.4,1,1V13.9z"/></symbol><symbol id="key-skeleton-alt" viewBox="0 0 24 24"><path d="M20.3,5.1l1.4-1.4c0,0,0,0,0,0c0.4-0.4,0.4-1,0-1.4s-1-0.4-1.4,0L9.8,12.8C9,12.3,8,12,7,12c-2.8,0-5,2.2-5,5s2.2,5,5,5c2.8,0,5-2.2,5-5c0-1-0.3-2-0.8-2.8l4.9-4.9l1.4,1.4c0.4,0.4,1,0.4,1.4,0c0.4-0.4,0.4-1,0-1.4l-1.4-1.4l1.4-1.4l1.4,1.4c0.4,0.4,1,0.4,1.4,0c0.4-0.4,0.4-1,0-1.4L20.3,5.1z M7,20c-1.7,0-3-1.3-3-3s1.3-3,3-3c1.7,0,3,1.3,3,3C10,18.7,8.7,20,7,20z"/></symbol><symbol id="key-skeleton" viewBox="0 0 24 24"><path d="M21,4.4l0.7-0.7c0,0,0,0,0,0c0.4-0.4,0.4-1,0-1.4c-0.4-0.4-1-0.4-1.4,0L9.8,12.8C9,12.3,8,12,7,12c-2.8,0-5,2.2-5,5s2.2,5,5,5c2.8,0,5-2.2,5-5c0-1-0.3-2-0.8-2.8l5.6-5.6l2.1,2.1c0.4,0.4,1,0.4,1.4,0c0.4-0.4,0.4-1,0-1.4l-2.1-2.1l1.4-1.4l0.7,0.7c0.4,0.4,1,0.4,1.4,0s0.4-1,0-1.4L21,4.4z M7,20c-1.7,0-3-1.3-3-3s1.3-3,3-3c1.7,0,3,1.3,3,3C10,18.7,8.7,20,7,20z"/></symbol><symbol id="keyhole-circle" viewBox="0 0 24 24"><path d="M12,2C6.5,2,2,6.5,2,12s4.5,10,10,10s10-4.5,10-10S17.5,2,12,2z M13.7,11c-0.2,0.3-0.4,0.6-0.7,0.7V15c0,0.6-0.4,1-1,1s-1-0.4-1-1v-3.3c-1-0.6-1.3-1.8-0.7-2.7S12,7.7,13,8.3C14,8.8,14.3,10,13.7,11z"/></symbol><symbol id="keyhole-square-full" viewBox="0 0 24 24"><path d="M21,2H3C2.4,2,2,2.4,2,3v18c0,0.6,0.4,1,1,1h18c0.6,0,1-0.4,1-1V3C22,2.4,21.6,2,21,2z M13.7,11c-0.2,0.3-0.4,0.6-0.7,0.7V15c0,0.6-0.4,1-1,1s-1-0.4-1-1v-3.3c-1-0.6-1.3-1.8-0.7-2.7S12,7.7,13,8.3C14,8.8,14.3,10,13.7,11z"/></symbol><symbol id="keyhole-square" viewBox="0 0 24 24"><path d="M19,2H5C3.3,2,2,3.3,2,5v14c0,1.7,1.3,3,3,3h14c1.7,0,3-1.3,3-3V5C22,3.3,20.7,2,19,2z M13.7,11c-0.2,0.3-0.4,0.6-0.7,0.7V15c0,0.6-0.4,1-1,1s-1-0.4-1-1v-3.3c-1-0.6-1.3-1.8-0.7-2.7S12,7.7,13,8.3C14,8.8,14.3,10,13.7,11z"/></symbol><symbol id="layer-group" viewBox="0 0 24 24"><path d="M2.5,8.9l9,5.2c0.2,0.1,0.3,0.1,0.5,0.1c0.2,0,0.3,0,0.5-0.1l9-5.2c0.2-0.1,0.3-0.2,0.4-0.4C22.1,8,22,7.4,21.5,7.1l-9-5.2c-0.3-0.2-0.7-0.2-1,0l-9,5.2C2.3,7.2,2.2,7.3,2.1,7.5C1.9,8,2,8.6,2.5,8.9z M21.5,11.1L21.3,11l-8.8,5.1c-0.3,0.2-0.7,0.2-1,0L2.7,11l-0.2,0.1C2,11.4,1.9,12,2.1,12.5c0.1,0.2,0.2,0.3,0.4,0.4l9,5.2c0.3,0.2,0.7,0.2,1,0l9-5.2c0.5-0.3,0.6-0.9,0.4-1.4C21.8,11.3,21.7,11.2,21.5,11.1z M21.5,15.1L21.3,15l-8.8,5.1c-0.3,0.2-0.7,0.2-1,0L2.7,15l-0.2,0.1C2,15.4,1.9,16,2.1,16.5c0.1,0.2,0.2,0.3,0.4,0.4l9,5.2c0.3,0.2,0.7,0.2,1,0l9-5.2c0.5-0.3,0.6-0.9,0.4-1.4C21.8,15.3,21.7,15.2,21.5,15.1z"/></symbol><symbol id="layers-alt" viewBox="0 0 24 24"><path d="M16,7H6C5.4,7,5,7.4,5,8v2.5h7.5c0.6,0,1,0.4,1,1V19H16c0.6,0,1-0.4,1-1V8C17,7.4,16.6,7,16,7z M11,12H3c-0.6,0-1,0.4-1,1v8c0,0.6,0.4,1,1,1h8c0.6,0,1-0.4,1-1v-8C12,12.4,11.6,12,11,12z M21,2H9C8.4,2,8,2.4,8,3v2.5h9.5c0.6,0,1,0.4,1,1V16H21c0.6,0,1-0.4,1-1V3C22,2.4,21.6,2,21,2z"/></symbol><symbol id="left-indent-alt" viewBox="0 0 24 24"><path d="M21,17h-8c-0.6,0-1,0.4-1,1s0.4,1,1,1h8c0.6,0,1-0.4,1-1S21.6,17,21,17z M21,13h-8c-0.6,0-1,0.4-1,1s0.4,1,1,1h8c0.6,0,1-0.4,1-1S21.6,13,21,13z M13,7h8c0.6,0,1-0.4,1-1s-0.4-1-1-1h-8c-0.6,0-1,0.4-1,1S12.4,7,13,7z M21,9h-8c-0.6,0-1,0.4-1,1s0.4,1,1,1h8c0.6,0,1-0.4,1-1S21.6,9,21,9z M9,5C8.4,5,8,5.4,8,6v12c0,0.6,0.4,1,1,1h0c0.6,0,1-0.4,1-1V6C10,5.4,9.6,5,9,5z M4.6,12l1.1-0.9c0.4-0.4,0.5-1,0.1-1.4c-0.4-0.4-1-0.5-1.4-0.1l-2,1.7c0,0-0.1,0.1-0.1,0.1c-0.4,0.4-0.3,1.1,0.1,1.4l2,1.7c0.2,0.1,0.4,0.2,0.6,0.2c0.3,0,0.6-0.1,0.8-0.4c0.4-0.4,0.3-1.1-0.1-1.4L4.6,12z"/></symbol><symbol id="left-indent" viewBox="0 0 24 24"><path d="M3,7h18c0.6,0,1-0.4,1-1s-0.4-1-1-1H3C2.4,5,2,5.4,2,6S2.4,7,3,7z M3,11h10c0.6,0,1-0.4,1-1s-0.4-1-1-1H3c-0.6,0-1,0.4-1,1S2.4,11,3,11z M21,17H3c-0.6,0-1,0.4-1,1s0.4,1,1,1h18c0.6,0,1-0.4,1-1S21.6,17,21,17z M3,15h10c0.6,0,1-0.4,1-1s-0.4-1-1-1H3c-0.6,0-1,0.4-1,1S2.4,15,3,15z M21.8,9.7c-0.4-0.4-1-0.5-1.4-0.1l-2,1.7c0,0-0.1,0.1-0.1,0.1c-0.4,0.4-0.3,1.1,0.1,1.4l2,1.7c0.2,0.1,0.4,0.2,0.6,0.2c0.3,0,0.6-0.1,0.8-0.4c0.4-0.4,0.3-1.1-0.1-1.4L20.6,12l1.1-0.9C22.1,10.7,22.1,10.1,21.8,9.7z"/></symbol><symbol id="line-spacing" viewBox="0 0 24 24"><path d="M10,8h11c0.6,0,1-0.4,1-1s-0.4-1-1-1H10C9.4,6,9,6.4,9,7S9.4,8,10,8z M5.7,15.3V8.7C5.9,8.9,6.1,9,6.3,9C6.6,9,6.8,8.9,7,8.8c0.4-0.4,0.5-1,0.1-1.4l-1.7-2C5.2,5.1,5,5,4.7,5S4.1,5.1,3.9,5.4l-1.7,2c-0.3,0.4-0.3,1,0.2,1.4c0.4,0.3,0.9,0.3,1.3,0v6.6c-0.4-0.3-0.9-0.4-1.3,0c-0.4,0.4-0.5,1-0.1,1.4l1.7,2C4.1,18.9,4.4,19,4.7,19s0.6-0.1,0.8-0.4l1.7-2c0.4-0.4,0.3-1.1-0.1-1.4C6.6,14.9,6,14.9,5.7,15.3z M21,11H10c-0.6,0-1,0.4-1,1s0.4,1,1,1h11c0.6,0,1-0.4,1-1S21.6,11,21,11z M21,16H10c-0.6,0-1,0.4-1,1s0.4,1,1,1h11c0.6,0,1-0.4,1-1S21.6,16,21,16z"/></symbol><symbol id="link-h" viewBox="0 0 24 24"><path d="M10,15H7c-1.7,0-3-1.3-3-3s1.3-3,3-3h3c0.6,0,1-0.4,1-1s-0.4-1-1-1H7c-2.8,0-5,2.2-5,5s2.2,5,5,5h3c0.6,0,1-0.4,1-1S10.6,15,10,15z M17,7h-3c-0.6,0-1,0.4-1,1s0.4,1,1,1h3c1.7,0,3,1.3,3,3s-1.3,3-3,3h-3c-0.6,0-1,0.4-1,1s0.4,1,1,1h3c2.8,0,5-2.2,5-5S19.8,7,17,7z M8,12c0,0.6,0.4,1,1,1h6c0.6,0,1-0.4,1-1s-0.4-1-1-1H9C8.4,11,8,11.4,8,12z"/></symbol><symbol id="list-ui-alt" viewBox="0 0 24 24"><path d="M7.5,8h14c0.6,0,1-0.4,1-1s-0.4-1-1-1h-14c-0.6,0-1,0.4-1,1S6.9,8,7.5,8z M21.5,11h-10c-0.6,0-1,0.4-1,1s0.4,1,1,1h10c0.6,0,1-0.4,1-1S22.1,11,21.5,11z M21.5,16h-6c-0.6,0-1,0.4-1,1s0.4,1,1,1h6c0.6,0,1-0.4,1-1S22.1,16,21.5,16z M3.5,6c-0.6,0-1,0.4-1,1s0.4,1,1,1s1-0.4,1-1S4.1,6,3.5,6z M7.5,11c-0.6,0-1,0.4-1,1s0.4,1,1,1s1-0.4,1-1S8.1,11,7.5,11z M11.5,16c-0.6,0-1,0.4-1,1s0.4,1,1,1s1-0.4,1-1S12.1,16,11.5,16z"/></symbol><symbol id="list-ul" viewBox="0 0 24 24"><path d="M7,8h14c0.6,0,1-0.4,1-1s-0.4-1-1-1H7C6.4,6,6,6.4,6,7S6.4,8,7,8z M21,11H7c-0.6,0-1,0.4-1,1s0.4,1,1,1h14c0.6,0,1-0.4,1-1S21.6,11,21,11z M21,16H7c-0.6,0-1,0.4-1,1s0.4,1,1,1h14c0.6,0,1-0.4,1-1S21.6,16,21,16z M3.7,6.3C3.6,6.2,3.5,6.1,3.4,6.1C3,5.9,2.6,6,2.3,6.3C2.2,6.4,2.1,6.5,2.1,6.6C2,6.9,2,7.1,2.1,7.4c0.1,0.1,0.1,0.2,0.2,0.3c0.1,0.1,0.2,0.2,0.3,0.2C2.7,8,2.9,8,3,8c0.3,0,0.5-0.1,0.7-0.3c0.1-0.1,0.2-0.2,0.2-0.3C4,7.1,4,6.9,3.9,6.6C3.9,6.5,3.8,6.4,3.7,6.3z M3.7,11.3C3.4,11,3,10.9,2.6,11.1c-0.1,0.1-0.2,0.1-0.3,0.2c-0.1,0.1-0.2,0.2-0.2,0.3c-0.1,0.2-0.1,0.5,0,0.8c0.1,0.1,0.1,0.2,0.2,0.3c0.1,0.1,0.2,0.2,0.3,0.2C2.7,13,2.9,13,3,13c0.1,0,0.3,0,0.4-0.1c0.1-0.1,0.2-0.1,0.3-0.2c0.1-0.1,0.2-0.2,0.2-0.3c0.1-0.2,0.1-0.5,0-0.8C3.9,11.5,3.8,11.4,3.7,11.3z M3.7,16.3c-0.1-0.1-0.2-0.2-0.3-0.2c-0.2-0.1-0.5-0.1-0.8,0c-0.1,0-0.2,0.1-0.3,0.2c-0.1,0.1-0.2,0.2-0.2,0.3C1.9,17,2,17.4,2.3,17.7c0.1,0.1,0.2,0.2,0.3,0.2C2.7,18,2.9,18,3,18c0.1,0,0.3,0,0.4-0.1c0.1-0.1,0.2-0.1,0.3-0.2C4,17.4,4.1,17,3.9,16.6C3.9,16.5,3.8,16.4,3.7,16.3z"/></symbol><symbol id="lock-access" viewBox="0 0 24 24"><path d="M21,2h-6c-0.6,0-1,0.4-1,1s0.4,1,1,1h5v5c0,0.6,0.4,1,1,1h0c0.6,0,1-0.4,1-1V3C22,2.4,21.6,2,21,2z M3,10L3,10c0.6,0,1-0.4,1-1V4h5c0.6,0,1-0.4,1-1S9.6,2,9,2H3C2.4,2,2,2.4,2,3v6C2,9.6,2.4,10,3,10z M9,20H4v-5c0-0.6-0.4-1-1-1s-1,0.4-1,1v6c0,0.6,0.4,1,1,1h6c0.6,0,1-0.4,1-1S9.6,20,9,20z M21,14c-0.6,0-1,0.4-1,1v5h-5c-0.6,0-1,0.4-1,1s0.4,1,1,1h6c0.6,0,1-0.4,1-1v-6C22,14.4,21.6,14,21,14z M12,6c-1.7,0-3,1.3-3,3v1c-1.1,0-2,0.9-2,2v4c0,1.1,0.9,2,2,2h6c1.1,0,2-0.9,2-2v-4c0-1.1-0.9-2-2-2V9C15,7.3,13.7,6,12,6z M13,10h-2V9c0-0.6,0.4-1,1-1s1,0.4,1,1V10z"/></symbol><symbol id="lock-alt" viewBox="0 0 24 24"><path d="M17,9V7c0-2.8-2.2-5-5-5S7,4.2,7,7v2c-1.7,0-3,1.3-3,3v7c0,1.7,1.3,3,3,3h10c1.7,0,3-1.3,3-3v-7C20,10.3,18.7,9,17,9z M9,7c0-1.7,1.3-3,3-3s3,1.3,3,3v2H9V7z M13,17c0,0.6-0.4,1-1,1s-1-0.4-1-1v-3c0-0.6,0.4-1,1-1s1,0.4,1,1V17z"/></symbol><symbol id="lock-open-alt" viewBox="0 0 24 24"><path d="M17,9H9V7c0-0.8,0.3-1.5,0.9-2.1c1.2-1.2,3.1-1.2,4.2,0c0.4,0.4,0.6,0.9,0.8,1.4c0,0,0,0,0,0C15,6.8,15.6,7.1,16.1,7c0.5-0.1,0.9-0.7,0.7-1.2c-0.2-0.9-0.7-1.7-1.3-2.3C14.6,2.5,13.3,2,12,2C9.2,2,7,4.2,7,7v2c-1.7,0-3,1.3-3,3v7c0,1.7,1.3,3,3,3h10c1.7,0,3-1.3,3-3v-7C20,10.3,18.7,9,17,9z M13.1,15.5c0,0-0.1,0.1-0.1,0.1V17c0,0.6-0.4,1-1,1s-1-0.4-1-1v-1.4c-0.6-0.6-0.7-1.5-0.1-2.1c0.6-0.6,1.5-0.7,2.1-0.1C13.6,13.9,13.7,14.9,13.1,15.5z"/></symbol><symbol id="lock" viewBox="0 0 24 24"><path d="M17,9V7c0-2.8-2.2-5-5-5S7,4.2,7,7v2c-1.7,0-3,1.3-3,3v7c0,1.7,1.3,3,3,3h10c1.7,0,3-1.3,3-3v-7C20,10.3,18.7,9,17,9z M9,7c0-1.7,1.3-3,3-3s3,1.3,3,3v2H9V7z"/></symbol><symbol id="microscope" viewBox="0 0 24 24"><path d="M20,21h-5.2c0.1-0.2,0.1-0.4,0.1-0.6c3-1.2,5-4.1,5-7.4c0-2-0.8-3.9-2.1-5.4l0.6-0.6c0.1-0.1,0.2-0.2,0.2-0.4l0.7-2.1c0.1-0.4,0-0.8-0.2-1l-2.1-2.1c-0.3-0.3-0.7-0.4-1-0.2L14,1.8c-0.1,0-0.3,0.1-0.4,0.2L7.2,8.4c-0.4,0.4-0.4,1,0,1.4l0,0l-1.4,1.4c-0.4,0.4-0.4,1,0,1.4l0,0l2.1,2.1c0.4,0.4,1,0.4,1.4,0l1.4-1.4l0,0c0.4,0.4,1,0.4,1.4,0l0,0L16.5,9c1,1.1,1.5,2.5,1.5,4c0,2.3-1.4,4.4-3.5,5.4c-0.9-1.4-2.7-1.9-4.1-1c-0.4,0.3-0.8,0.6-1,1.1c-0.4-0.2-0.8-0.3-1.1-0.6C8.7,17.8,9,17.4,9,17c0-0.6-0.4-1-1-1H4c-0.6,0-1,0.4-1,1s0.4,1,1,1h1.3c1,1.1,2.3,2,3.7,2.5c0,0.2,0.1,0.4,0.1,0.5H4c-0.6,0-1,0.4-1,1c0,0.6,0.4,1,1,1h16c0.6,0,1-0.4,1-1C21,21.5,20.6,21,20,21z M8.6,12.6l-0.7-0.7l0.7-0.7l0.7,0.7L8.6,12.6z M12,21c-0.6,0-1-0.4-1-1s0.4-1,1-1s1,0.4,1,1C13,20.6,12.6,21,12,21z"/></symbol><symbol id="minus-square-full" viewBox="0 0 24 24"><path d="M21,2H3C2.4,2,2,2.4,2,3v18c0,0.6,0.4,1,1,1h18c0.6,0,1-0.4,1-1V3C22,2.4,21.6,2,21,2z M15,13H9c-0.6,0-1-0.4-1-1s0.4-1,1-1h6c0.6,0,1,0.4,1,1S15.6,13,15,13z"/></symbol><symbol id="multiply" viewBox="0 0 24 24"><path d="M13.4,12l6.3-6.3c0.4-0.4,0.4-1,0-1.4c-0.4-0.4-1-0.4-1.4,0L12,10.6L5.7,4.3c-0.4-0.4-1-0.4-1.4,0c-0.4,0.4-0.4,1,0,1.4l6.3,6.3l-6.3,6.3C4.1,18.5,4,18.7,4,19c0,0.6,0.4,1,1,1c0.3,0,0.5-0.1,0.7-0.3l6.3-6.3l6.3,6.3c0.2,0.2,0.4,0.3,0.7,0.3s0.5-0.1,0.7-0.3c0.4-0.4,0.4-1,0-1.4L13.4,12z"/></symbol><symbol id="object-group" viewBox="0 0 24 24"><path d="M21,18.3V5.7c0.6-0.3,1-1,1-1.7c0-1.1-0.9-2-2-2c-0.7,0-1.4,0.4-1.7,1H5.7C5.4,2.4,4.7,2,4,2C2.9,2,2,2.9,2,4c0,0.7,0.4,1.4,1,1.7v12.6c-0.6,0.3-1,1-1,1.7c0,1.1,0.9,2,2,2c0.7,0,1.4-0.4,1.7-1h12.6c0.3,0.6,1,1,1.7,1c1.1,0,2-0.9,2-2C22,19.3,21.6,18.6,21,18.3z M19,18.3c-0.3,0.2-0.5,0.4-0.7,0.7H5.7c-0.2-0.3-0.4-0.5-0.7-0.7V5.7C5.3,5.5,5.5,5.3,5.7,5h12.6c0.2,0.3,0.4,0.5,0.7,0.7V18.3z M14,9V8c0-0.6-0.4-1-1-1H8C7.4,7,7,7.4,7,8v5c0,0.6,0.4,1,1,1h1v-3c0-1.1,0.9-2,2-2H14z M16,10h-5c-0.6,0-1,0.4-1,1v5c0,0.6,0.4,1,1,1h5c0.6,0,1-0.4,1-1v-5C17,10.4,16.6,10,16,10z"/></symbol><symbol id="object-ungroup" viewBox="0 0 24 24"><path d="M21,18.3v-6.6c0.6-0.3,1-1,1-1.7c0-1.1-0.9-2-2-2c-0.7,0-1.4,0.4-1.7,1H15V5.7c0.6-0.3,1-1,1-1.7c0-1.1-0.9-2-2-2c-0.7,0-1.4,0.4-1.7,1H5.7C5.4,2.4,4.7,2,4,2C2.9,2,2,2.9,2,4c0,0.7,0.4,1.4,1,1.7v6.6c-0.6,0.3-1,1-1,1.7c0,1.1,0.9,2,2,2c0.7,0,1.4-0.4,1.7-1H9v3.3c-0.6,0.3-1,1-1,1.7c0,1.1,0.9,2,2,2c0.7,0,1.4-0.4,1.7-1h6.6c0.3,0.6,1,1,1.7,1c1.1,0,2-0.9,2-2C22,19.3,21.6,18.6,21,18.3z M5.7,13c-0.2-0.3-0.4-0.5-0.7-0.7V5.7C5.3,5.5,5.5,5.3,5.7,5h6.6c0.2,0.3,0.4,0.5,0.7,0.7V9h-1.3c-0.3-0.6-1-1-1.7-1c-1.1,0-2,0.9-2,2c0,0.7,0.4,1.4,1,1.7V13H5.7z M13,12.3c-0.3,0.2-0.5,0.4-0.7,0.7H11v-1.3c0.3-0.2,0.5-0.4,0.7-0.7H13V12.3z M12.3,15c0.3,0.6,1,1,1.7,1c1.1,0,2-0.9,2-2c0-0.7-0.4-1.4-1-1.7V11h3.3c0.2,0.3,0.4,0.5,0.7,0.7v6.6c-0.3,0.2-0.5,0.4-0.7,0.7h-6.6c-0.2-0.3-0.4-0.5-0.7-0.7V15H12.3z"/></symbol><symbol id="padlock" viewBox="0 0 24 24"><path d="M17,9V7c0-2.8-2.2-5-5-5S7,4.2,7,7v2c-1.7,0-3,1.3-3,3v7c0,1.7,1.3,3,3,3h10c1.7,0,3-1.3,3-3v-7C20,10.3,18.7,9,17,9z M9,7c0-1.7,1.3-3,3-3s3,1.3,3,3v2H9V7z M13.1,15.5c0,0-0.1,0.1-0.1,0.1V17c0,0.6-0.4,1-1,1s-1-0.4-1-1v-1.4c-0.6-0.6-0.7-1.5-0.1-2.1c0.6-0.6,1.5-0.7,2.1-0.1C13.6,13.9,13.7,14.9,13.1,15.5z"/></symbol><symbol id="paperclip" viewBox="0 0 24 24"><path d="M18.1,12.4l-6.2,6.2c-1.7,1.7-4.4,1.7-6,0c-1.7-1.7-1.7-4.4,0-6l8-8c1-0.9,2.5-0.9,3.5,0c1,1,1,2.6,0,3.5l-6.9,6.9c-0.3,0.3-0.8,0.3-1.1,0c0,0,0,0,0,0c-0.3-0.3-0.3-0.8,0-1.1l5.1-5.1c0.4-0.4,0.4-1,0-1.4c-0.4-0.4-1-0.4-1.4,0L8,12.6c-1.1,1.1-1.1,2.8,0,3.9c1.1,1,2.8,1,3.9,0l6.9-6.9c1.8-1.8,1.8-4.6,0-6.4c-1.8-1.8-4.6-1.8-6.4,0l-8,8c-1.2,1.2-1.8,2.8-1.8,4.4c0,3.5,2.8,6.2,6.3,6.2c1.7,0,3.2-0.7,4.4-1.8l6.2-6.2c0.4-0.4,0.4-1,0-1.4S18.5,12,18.1,12.4z"/></symbol><symbol id="paragraph" viewBox="0 0 24 24"><path d="M13,13.5H3c-0.6,0-1,0.4-1,1s0.4,1,1,1h10c0.6,0,1-0.4,1-1S13.6,13.5,13,13.5z M21,8.5H3c-0.6,0-1,0.4-1,1s0.4,1,1,1h18c0.6,0,1-0.4,1-1S21.6,8.5,21,8.5z"/></symbol><symbol id="pentagon" viewBox="0 0 24 24"><path d="M21.6,9.2l-9-6.5c-0.4-0.3-0.8-0.3-1.2,0l-9,6.5C2.1,9.4,1.9,9.9,2,10.3l3.4,10.6c0.1,0.4,0.5,0.7,1,0.7h11.1c0.4,0,0.8-0.3,1-0.7L22,10.3C22.1,9.9,21.9,9.4,21.6,9.2z"/></symbol><symbol id="polygon" viewBox="0 0 24 24"><path d="M21.9,11.5l-4.5-7.8c-0.2-0.3-0.5-0.5-0.9-0.5h-9c-0.4,0-0.7,0.2-0.9,0.5l-4.5,7.8c-0.2,0.3-0.2,0.7,0,1l4.5,7.8c0.2,0.3,0.5,0.5,0.9,0.5h9c0.4,0,0.7-0.2,0.9-0.5l4.5-7.8C22,12.2,22,11.8,21.9,11.5z"/></symbol><symbol id="previous" viewBox="0 0 24 24"><path d="M16.7,15.3L13.4,12l3.3-3.3c0.4-0.4,0.4-1,0-1.4c-0.4-0.4-1-0.4-1.4,0l-4,4c0,0,0,0,0,0c-0.4,0.4-0.4,1,0,1.4l4,4c0.2,0.2,0.4,0.3,0.7,0.3c0.3,0,0.5-0.1,0.7-0.3C17.1,16.3,17.1,15.7,16.7,15.3z M8,7C7.4,7,7,7.4,7,8v8c0,0.6,0.4,1,1,1s1-0.4,1-1V8C9,7.4,8.6,7,8,7z"/></symbol><symbol id="process" viewBox="0 0 24 24"><path d="M8.5,6H6.7C8.2,4.7,10,4,12,4c0.3,0,0.6,0,0.9,0.1c0,0,0,0,0,0c0.5,0.1,1-0.3,1.1-0.9c0.1-0.5-0.3-1-0.9-1.1C12.7,2,12.4,2,12,2C9.6,2,7.3,2.9,5.5,4.4V3c0-0.6-0.4-1-1-1s-1,0.4-1,1v4c0,0.6,0.4,1,1,1h4c0.6,0,1-0.4,1-1S9.1,6,8.5,6z M7,14.5c-0.6,0-1,0.4-1,1v1.8C4.7,15.8,4,14,4,12c0-0.3,0-0.6,0.1-0.9c0,0,0,0,0,0c0.1-0.5-0.3-1-0.9-1.1c-0.5-0.1-1,0.3-1.1,0.9C2,11.3,2,11.6,2,12c0,2.4,0.9,4.7,2.4,6.5H3c-0.6,0-1,0.4-1,1s0.4,1,1,1h4c0.3,0,0.6-0.2,0.8-0.4c0,0,0,0,0,0c0,0,0,0,0,0c0-0.1,0.1-0.2,0.1-0.3c0-0.1,0-0.1,0-0.2c0,0,0-0.1,0-0.1v-4C8,14.9,7.6,14.5,7,14.5z M21,5.5c0.6,0,1-0.4,1-1s-0.4-1-1-1h-4c-0.1,0-0.1,0-0.2,0c0,0,0,0,0,0c-0.1,0-0.2,0.1-0.3,0.1c0,0,0,0,0,0c-0.1,0.1-0.2,0.1-0.2,0.2c0,0,0,0,0,0c0,0,0,0,0,0c0,0.1-0.1,0.2-0.1,0.2c0,0.1,0,0.1,0,0.2c0,0,0,0.1,0,0.1v4c0,0.6,0.4,1,1,1s1-0.4,1-1V6.7c1.3,1.4,2,3.3,2,5.3c0,0.3,0,0.6-0.1,0.9c-0.1,0.5,0.3,1,0.9,1.1c0,0,0.1,0,0.1,0c0.5,0,0.9-0.4,1-0.9c0-0.4,0.1-0.7,0.1-1.1c0-2.4-0.9-4.7-2.4-6.5H21z M20.3,16.5c-0.1-0.1-0.2-0.2-0.3-0.3c0,0,0,0,0,0c0,0,0,0,0,0c-0.1-0.1-0.2-0.1-0.3-0.1c0,0-0.1,0-0.1,0c0,0-0.1,0-0.1,0h-4c-0.6,0-1,0.4-1,1s0.4,1,1,1h1.8c-1.4,1.3-3.3,2-5.3,2c-0.3,0-0.6,0-0.9-0.1c0,0,0,0,0,0c-0.5-0.1-1,0.3-1.1,0.9s0.3,1,0.9,1.1c0.4,0,0.7,0.1,1.1,0.1c2.4,0,4.7-0.9,6.5-2.4V21c0,0.6,0.4,1,1,1s1-0.4,1-1v-4C20.5,16.8,20.4,16.6,20.3,16.5C20.3,16.5,20.3,16.5,20.3,16.5z"/></symbol><symbol id="record-audio" viewBox="0 0 24 24"><path d="M12,2C6.5,2,2,6.5,2,12s4.5,10,10,10s10-4.5,10-10C22,6.5,17.5,2,12,2z M12,18c-3.3,0-6-2.7-6-6s2.7-6,6-6s6,2.7,6,6C18,15.3,15.3,18,12,18z"/></symbol><symbol id="redo" viewBox="0 0 24 24"><path d="M21,11c-0.6,0-1,0.4-1,1c0,2.9-1.5,5.5-4,6.9c-3.8,2.2-8.7,0.9-10.9-2.9C2.9,12.2,4.2,7.3,8,5.1c3.3-1.9,7.3-1.2,9.8,1.4h-2.4c-0.6,0-1,0.4-1,1s0.4,1,1,1h4.5c0.6,0,1-0.4,1-1V3c0-0.6-0.4-1-1-1s-1,0.4-1,1v1.8C17,3,14.6,2,12,2C6.5,2,2,6.5,2,12s4.5,10,10,10c5.5,0,10-4.5,10-10C22,11.4,21.6,11,21,11z"/></symbol><symbol id="refresh" viewBox="0 0 24 24"><path d="M15,12c0-1.7-1.3-3-3-3s-3,1.3-3,3s1.3,3,3,3S15,13.7,15,12z M17,3.3C13.1,1.1,8.3,1.8,5.1,4.7V3c0-0.6-0.4-1-1-1s-1,0.4-1,1v4.5c0,0.6,0.4,1,1,1h4.5c0.6,0,1-0.4,1-1s-0.4-1-1-1H6.2C7.7,4.9,9.8,4,12,4c4.4,0,8,3.6,8,8v0c0,0.6,0.4,1,1,1h0c0.6,0,1-0.4,1-1C22,8.4,20.1,5.1,17,3.3z M19.9,15.5h-4.5c-0.6,0-1,0.4-1,1s0.4,1,1,1h2.4C16.3,19.1,14.2,20,12,20c-4.4,0-8-3.6-8-8c0-0.6-0.4-1-1-1s-1,0.4-1,1c0,5.5,4.5,10,10,10c2.6,0,5-1,6.9-2.8V21c0,0.6,0.4,1,1,1h0c0.6,0,1-0.4,1-1v-4.5C20.9,15.9,20.4,15.5,19.9,15.5z"/></symbol><symbol id="repeat" viewBox="0 0 24 24"><path d="M5.5,17.5H4v-11h7.8L11,7.3c-0.2,0.2-0.3,0.4-0.3,0.7c0,0.6,0.4,1,1,1c0.3,0,0.5-0.1,0.7-0.3l2.5-2.5c0.4-0.4,0.4-1,0-1.4l-2.5-2.5c-0.4-0.4-1-0.4-1.4,0c-0.4,0.4-0.4,1,0,1.4l0.8,0.8H3c-0.6,0-1,0.4-1,1v13c0,0.6,0.4,1,1,1h2.5c0.6,0,1-0.4,1-1S6.1,17.5,5.5,17.5z M21,4.5h-2.5c-0.6,0-1,0.4-1,1s0.4,1,1,1H20v11h-8.4l0.8-0.8c0,0,0,0,0,0c0.4-0.4,0.4-1,0-1.4s-1-0.4-1.4,0l-2.5,2.5c0,0,0,0,0,0c-0.4,0.4-0.4,1,0,1.4l2.5,2.5c0.2,0.2,0.4,0.3,0.7,0.3c0.3,0,0.5-0.1,0.7-0.3c0.4-0.4,0.4-1,0-1.4l-0.8-0.8H21c0.6,0,1-0.4,1-1v-13C22,4.9,21.6,4.5,21,4.5z"/></symbol><symbol id="right-indent-alt" viewBox="0 0 24 24"><path d="M21,17h-8c-0.6,0-1,0.4-1,1s0.4,1,1,1h8c0.6,0,1-0.4,1-1S21.6,17,21,17z M21,13h-8c-0.6,0-1,0.4-1,1s0.4,1,1,1h8c0.6,0,1-0.4,1-1S21.6,13,21,13z M13,7h8c0.6,0,1-0.4,1-1s-0.4-1-1-1h-8c-0.6,0-1,0.4-1,1S12.4,7,13,7z M21,9h-8c-0.6,0-1,0.4-1,1s0.4,1,1,1h8c0.6,0,1-0.4,1-1S21.6,9,21,9z M9,5C8.4,5,8,5.4,8,6v12c0,0.6,0.4,1,1,1h0c0.6,0,1-0.4,1-1V6C10,5.4,9.6,5,9,5z M3.6,9.6C3.2,9.2,2.6,9.3,2.2,9.7c-0.4,0.4-0.3,1.1,0.1,1.4L3.4,12l-1.1,0.9C2.1,13.1,2,13.4,2,13.7c0,0.6,0.4,1,1,1c0.2,0,0.5-0.1,0.6-0.2l2-1.7c0,0,0.1-0.1,0.1-0.1c0.4-0.4,0.3-1.1-0.1-1.4L3.6,9.6z"/></symbol><symbol id="right-indent" viewBox="0 0 24 24"><path d="M3,7h18c0.6,0,1-0.4,1-1s-0.4-1-1-1H3C2.4,5,2,5.4,2,6S2.4,7,3,7z M3,11h10c0.6,0,1-0.4,1-1s-0.4-1-1-1H3c-0.6,0-1,0.4-1,1S2.4,11,3,11z M21,17H3c-0.6,0-1,0.4-1,1s0.4,1,1,1h18c0.6,0,1-0.4,1-1S21.6,17,21,17z M3,15h10c0.6,0,1-0.4,1-1s-0.4-1-1-1H3c-0.6,0-1,0.4-1,1S2.4,15,3,15z M18,13.7c0,0.6,0.4,1,1,1c0.2,0,0.5-0.1,0.6-0.2l2-1.7c0,0,0.1-0.1,0.1-0.1c0.4-0.4,0.3-1.1-0.1-1.4l-2-1.7c-0.4-0.4-1.1-0.3-1.4,0.1c-0.4,0.4-0.3,1.1,0.1,1.4l1.1,0.9l-1.1,0.9C18.1,13.1,18,13.4,18,13.7z"/></symbol><symbol id="rocket" viewBox="0 0 24 24"><path d="M22.6,2.1c-0.1-0.3-0.4-0.6-0.7-0.7C17.7,0.3,13.4,1.6,10.5,5L9.4,6.3L6.7,5.7C5.4,5.2,4,5.8,3.4,7l-2.2,3.9c-0.2,0.3-0.2,0.6,0,0.9c0.1,0.3,0.4,0.5,0.7,0.6l3.1,0.7c-0.3,0.8-0.4,1.6-0.6,2.4c0,0.3,0.1,0.6,0.3,0.8l3.1,3.1c0.2,0.2,0.4,0.3,0.7,0.3c0,0,0.1,0,0.1,0c0.9-0.1,1.7-0.2,2.5-0.5l0.6,3c0.1,0.3,0.3,0.6,0.6,0.7c0.1,0.1,0.3,0.1,0.4,0.1c0.2,0,0.3,0,0.5-0.1l3.9-2.2c1.1-0.6,1.7-2,1.4-3.3l-0.7-2.8l1.2-1.1C22.3,10.7,23.7,6.2,22.6,2.1z M7.3,8.8c-0.6,0.8-1.2,1.6-1.6,2.4l-2.1-0.5L5.1,8c0.2-0.4,0.6-0.5,1.1-0.4L7.9,8L7.3,8.8z M16,18.9l-2.7,1.5l-0.4-2c0.9-0.4,1.7-1,2.4-1.6l0.7-0.7l0.4,1.7C16.6,18.3,16.3,18.8,16,18.9z M16.7,8.8c-0.8,0-1.5-0.7-1.5-1.5c0-0.8,0.7-1.5,1.5-1.5s1.5,0.7,1.5,1.5C18.2,8.1,17.6,8.8,16.7,8.8z"/></symbol><symbol id="ruler-combined" viewBox="0 0 24 24"><path d="M21,2H3C2.4,2,2,2.4,2,3v18c0,0.6,0.4,1,1,1h6c0.6,0,1-0.4,1-1v-3H7c-0.6,0-1-0.4-1-1s0.4-1,1-1h3v-2H7c-0.6,0-1-0.4-1-1s0.4-1,1-1h3v-2H7c-0.6,0-1-0.4-1-1s0.4-1,1-1h1V7c0-0.6,0.4-1,1-1s1,0.4,1,1v3h2V7c0-0.6,0.4-1,1-1s1,0.4,1,1v3h2V7c0-0.6,0.4-1,1-1s1,0.4,1,1v3h3c0.6,0,1-0.4,1-1V3C22,2.4,21.6,2,21,2z"/></symbol><symbol id="ruler" viewBox="0 0 24 24"><path d="M22.6,7.1C22.6,7.1,22.6,7.1,22.6,7.1l-5.7-5.7c-0.4-0.4-1-0.4-1.4,0c0,0,0,0,0,0L1.4,15.5c-0.4,0.4-0.4,1,0,1.4l0,0l5.7,5.7c0.4,0.4,1,0.4,1.4,0c0,0,0,0,0,0l2.1-2.1l-3.5-3.5c-0.4-0.4-0.4-1,0-1.4c0.4-0.4,1-0.4,1.4,0l3.5,3.5l1.4-1.4l-2.1-2.1c-0.4-0.4-0.4-1,0-1.4c0.4-0.4,1-0.4,1.4,0l2.1,2.1l1.4-1.4l-3.5-3.5c-0.4-0.4-0.4-1,0-1.4c0.4-0.4,1-0.4,1.4,0l3.5,3.5l1.4-1.4l-2.1-2.1c-0.4-0.4-0.4-1,0-1.4s1-0.4,1.4,0l2.1,2.1l2.1-2.1C23,8.1,23,7.4,22.6,7.1z"/></symbol><symbol id="sanitizer-alt" viewBox="0 0 24 24"><path d="M16,8V5c0-0.6-0.4-1-1-1h-1V3h1c0.6,0,1-0.4,1-1s-0.4-1-1-1h-4.8C8.5,1,6.9,2,6.1,3.6C5.9,4,6.1,4.6,6.6,4.9c0.5,0.2,1.1,0,1.3-0.4C8.3,3.6,9.2,3,10.2,3H12v1h-1c-0.6,0-1,0.4-1,1v3c-1.7,0-3,1.3-3,3v9c0,1.7,1.3,3,3,3h6c1.7,0,3-1.3,3-3v-9C19,9.3,17.7,8,16,8z M12,6h2v2h-2V6z M14,17h-2c-0.6,0-1-0.4-1-1s0.4-1,1-1h2c0.6,0,1,0.4,1,1S14.6,17,14,17z"/></symbol><symbol id="sanitizer" viewBox="0 0 24 24"><path d="M18.8,7.6L16,5.5V3h1c0.6,0,1-0.4,1-1s-0.4-1-1-1H8.7C7.3,1,6.1,1.5,5.1,2.5L4.3,3.3c-0.4,0.4-0.4,1,0,1.4c0.4,0.4,1,0.4,1.4,0c0,0,0,0,0,0l0.8-0.8C7.1,3.3,7.9,3,8.7,3H10v2.5L7.2,7.6C6.4,8.2,6,9.1,6,10v12c0,0.6,0.4,1,1,1h12c0.6,0,1-0.4,1-1V10C20,9.1,19.6,8.2,18.8,7.6z M12,3h2v2h-2V3z M13,17c-1.1,0-2-0.9-2-2s0.9-2,2-2s2,0.9,2,2C15,16.1,14.1,17,13,17z"/></symbol><symbol id="scenery" viewBox="0 0 24 24"><path d="M13.5,6C12.7,6,12,6.7,12,7.5S12.7,9,13.5,9S15,8.3,15,7.5S14.3,6,13.5,6z M19,2H5C3.3,2,2,3.3,2,5v14c0,1.7,1.3,3,3,3h14c1.7,0,3-1.3,3-3V5C22,3.3,20.7,2,19,2z M20,13.9L18.1,12c-1.2-1.1-3.1-1.1-4.2,0L13,12.9L10.1,10c-1.2-1.1-3.1-1.1-4.2,0L4,11.9V5c0-0.6,0.4-1,1-1h14c0.6,0,1,0.4,1,1V13.9z"/></symbol><symbol id="schedule" viewBox="0 0 24 24"><path d="M19,4h-1V3c0-0.6-0.4-1-1-1s-1,0.4-1,1v1H8V3c0-0.6-0.4-1-1-1S6,2.4,6,3v1H5C3.3,4,2,5.3,2,7v1h20V7C22,5.3,20.7,4,19,4z M2,19c0,1.7,1.3,3,3,3h14c1.7,0,3-1.3,3-3v-9H2V19z M17,12c0.6,0,1,0.4,1,1s-0.4,1-1,1s-1-0.4-1-1S16.4,12,17,12z M17,16c0.6,0,1,0.4,1,1s-0.4,1-1,1s-1-0.4-1-1S16.4,16,17,16z M12,12c0.6,0,1,0.4,1,1s-0.4,1-1,1s-1-0.4-1-1S11.4,12,12,12z M12,16c0.6,0,1,0.4,1,1s-0.4,1-1,1s-1-0.4-1-1S11.4,16,12,16z M7,12c0.6,0,1,0.4,1,1s-0.4,1-1,1s-1-0.4-1-1S6.4,12,7,12z M7,16c0.6,0,1,0.4,1,1s-0.4,1-1,1s-1-0.4-1-1S6.4,16,7,16z"/></symbol><symbol id="shield-plus" viewBox="0 0 24 24"><path d="M19.6,3.6c-0.2-0.2-0.5-0.3-0.8-0.2c-2.2,0.5-4.4,0-6.2-1.3c-0.3-0.2-0.8-0.2-1.1,0C9.6,3.4,7.4,3.9,5.2,3.4C4.7,3.3,4.1,3.7,4,4.2c0,0.1,0,0.1,0,0.2v7.5c0,2.9,1.4,5.6,3.8,7.3l3.7,2.6c0.3,0.2,0.8,0.2,1.2,0l3.7-2.6c2.4-1.7,3.8-4.4,3.8-7.3V4.4C20,4.1,19.9,3.8,19.6,3.6z M14,13h-1v1c0,0.6-0.4,1-1,1s-1-0.4-1-1v-1h-1c-0.6,0-1-0.4-1-1s0.4-1,1-1h1v-1c0-0.6,0.4-1,1-1s1,0.4,1,1v1h1c0.6,0,1,0.4,1,1S14.6,13,14,13z"/></symbol><symbol id="signal-alt-3" viewBox="0 0 24 24"><path d="M6,15H2c-0.6,0-1,0.4-1,1v6c0,0.6,0.4,1,1,1h4c0.6,0,1-0.4,1-1v-6C7,15.4,6.6,15,6,15z M14,9h-4c-0.6,0-1,0.4-1,1v12c0,0.6,0.4,1,1,1h4c0.6,0,1-0.4,1-1V10C15,9.4,14.6,9,14,9z M22,1h-4c-0.6,0-1,0.4-1,1v20c0,0.6,0.4,1,1,1h4c0.6,0,1-0.4,1-1V2C23,1.4,22.6,1,22,1z"/></symbol><symbol id="signal-alt" viewBox="0 0 24 24"><path d="M5,18L5,18c-0.6,0-1,0.4-1,1v2c0,0.6,0.4,1,1,1s1-0.4,1-1v-2C6,18.4,5.6,18,5,18z M10,14L10,14c-0.6,0-1,0.4-1,1v6c0,0.6,0.4,1,1,1s1-0.4,1-1v-6C11,14.4,10.6,14,10,14z M20,2L20,2c-0.6,0-1,0.4-1,1v18c0,0.6,0.4,1,1,1s1-0.4,1-1V3C21,2.4,20.6,2,20,2z M15,9L15,9c-0.6,0-1,0.4-1,1v11c0,0.6,0.4,1,1,1s1-0.4,1-1V10C16,9.4,15.6,9,15,9z"/></symbol><symbol id="signout" viewBox="0 0 24 24"><path d="M17,2H7C5.3,2,4,3.3,4,5v6h8.6l-2.3-2.3c-0.4-0.4-0.4-1,0-1.4c0.4-0.4,1-0.4,1.4,0l4,4c0.4,0.4,0.4,1,0,1.4c0,0,0,0,0,0l-4,4c-0.4,0.4-1,0.4-1.4,0c-0.4-0.4-0.4-1,0-1.4l2.3-2.3H4v6c0,1.7,1.3,3,3,3h10c1.7,0,3-1.3,3-3V5C20,3.3,18.7,2,17,2z"/></symbol><symbol id="social-distancing" viewBox="0 0 24 24"><path d="M21.2,17.3l-2-2c-0.4-0.4-1-0.4-1.4,0c-0.4,0.4-0.4,1,0,1.4l0.3,0.3h-2.6c-0.6,0-1,0.4-1,1s0.4,1,1,1h2.6l-0.3,0.3c-0.2,0.2-0.3,0.4-0.3,0.7c0,0.6,0.4,1,1,1c0.3,0,0.5-0.1,0.7-0.3l2-2l0,0c0,0,0,0,0,0c0.1-0.1,0.2-0.2,0.2-0.3c0-0.1,0.1-0.2,0.1-0.4c0,0,0,0,0,0c0,0,0,0,0,0c0-0.1,0-0.3-0.1-0.4C21.4,17.5,21.3,17.4,21.2,17.3z M8.5,17H5.9l0.3-0.3c0.4-0.4,0.4-1,0-1.4c-0.4-0.4-1-0.4-1.4,0l-2,2c0,0,0,0,0,0l0,0c0,0,0,0,0,0c-0.1,0.1-0.2,0.2-0.2,0.3c0,0.1-0.1,0.2-0.1,0.4c0,0,0,0,0,0c0,0,0,0,0,0c0,0.1,0,0.3,0.1,0.4c0.1,0.1,0.1,0.2,0.2,0.3l2,2C5,20.9,5.2,21,5.5,21c0.3,0,0.5-0.1,0.7-0.3c0.4-0.4,0.4-1,0-1.4L5.9,19h2.6c0.6,0,1-0.4,1-1S9.1,17,8.5,17z M18,9.2c1.4,0,2.6-1.2,2.6-2.6S19.4,4,18,4c-1.4,0-2.6,1.2-2.6,2.6C15.4,8,16.6,9.2,18,9.2z M22.7,12.9c-2.1-2.6-5.9-3-8.5-0.9c-0.3,0.3-0.7,0.6-0.9,0.9c-0.4,0.6-0.4,1.4,0.2,1.8c0.2,0.2,0.5,0.3,0.8,0.3h1.9c0.1-0.3,0.3-0.5,0.5-0.8c1-1,2.6-1,3.5,0L21,15h0.6c0.7,0,1.3-0.6,1.3-1.3C23,13.4,22.9,13.1,22.7,12.9z M2.2,11.9c-0.3,0.3-0.7,0.6-0.9,0.9c-0.4,0.6-0.4,1.4,0.2,1.8C1.7,14.9,2,15,2.3,15H3l0.8-0.8c1-1,2.6-1,3.5,0c0.2,0.2,0.4,0.5,0.5,0.8h1.9c0.7,0,1.3-0.6,1.3-1.3c0-0.3-0.1-0.6-0.3-0.8C8.6,10.3,4.8,9.9,2.2,11.9z M6,9.2c1.4,0,2.6-1.2,2.6-2.6S7.4,4,6,4C4.6,4,3.4,5.2,3.4,6.6C3.4,8,4.6,9.2,6,9.2z"/></symbol><symbol id="sorting" viewBox="0 0 24 24"><path d="M15.7,17.8l-3-3c-0.4-0.4-1-0.4-1.4,0l-3,3c-0.4,0.4-0.4,1,0,1.4c0.4,0.4,1,0.4,1.4,0l2.3-2.3l2.3,2.3c0.2,0.2,0.4,0.3,0.7,0.3c0.3,0,0.5-0.1,0.7-0.3C16.1,18.8,16.1,18.2,15.7,17.8z M11.3,10.2c0.2,0.2,0.4,0.3,0.7,0.3c0.3,0,0.5-0.1,0.7-0.3l3-3c0.4-0.4,0.4-1,0-1.4c-0.4-0.4-1-0.4-1.4,0L12,8.1L9.7,5.8c-0.4-0.4-1-0.4-1.4,0c-0.4,0.4-0.4,1,0,1.4L11.3,10.2z"/></symbol><symbol id="space-key" viewBox="0 0 24 24"><path d="M21,9c-0.6,0-1,0.4-1,1v3H4v-3c0-0.6-0.4-1-1-1s-1,0.4-1,1v4c0,0.6,0.4,1,1,1h18c0.6,0,1-0.4,1-1v-4C22,9.4,21.6,9,21,9z"/></symbol><symbol id="square-full" viewBox="0 0 24 24"><path d="M21,2H3C2.4,2,2,2.4,2,3v18c0,0.6,0.4,1,1,1h18c0.6,0,1-0.4,1-1V3C22,2.4,21.6,2,21,2z M20,20H4V4h16V20z"/></symbol><symbol id="star-half-alt" viewBox="0 0 24 24"><path d="M22,10.1c0.1-0.5-0.3-1.1-0.8-1.1l-5.7-0.8L12.9,3c-0.1-0.2-0.2-0.3-0.4-0.4C12,2.3,11.4,2.5,11.1,3L8.6,8.2L2.9,9C2.6,9,2.4,9.1,2.3,9.3c-0.4,0.4-0.4,1,0,1.4l4.1,4l-1,5.7c0,0.2,0,0.4,0.1,0.6c0.3,0.5,0.9,0.7,1.4,0.4l5.1-2.7l5.1,2.7c0.1,0.1,0.3,0.1,0.5,0.1v0c0.1,0,0.1,0,0.2,0c0.5-0.1,0.9-0.6,0.8-1.2l-1-5.7l4.1-4C21.9,10.5,22,10.3,22,10.1z M15.8,13.6c-0.2,0.2-0.3,0.6-0.3,0.9l0.7,4.2l-3.8-2c-0.1-0.1-0.3-0.1-0.5-0.1V5.7l1.9,3.8c0.1,0.3,0.4,0.5,0.8,0.5l4.2,0.6L15.8,13.6z"/></symbol><symbol id="star" viewBox="0 0 24 24"><path d="M22,10.1c0.1-0.5-0.3-1.1-0.8-1.1l-5.7-0.8L12.9,3c-0.1-0.2-0.2-0.3-0.4-0.4C12,2.3,11.4,2.5,11.1,3L8.6,8.2L2.9,9C2.6,9,2.4,9.1,2.3,9.3c-0.4,0.4-0.4,1,0,1.4l4.1,4l-1,5.7c0,0.2,0,0.4,0.1,0.6c0.3,0.5,0.9,0.7,1.4,0.4l5.1-2.7l5.1,2.7c0.1,0.1,0.3,0.1,0.5,0.1v0c0.1,0,0.1,0,0.2,0c0.5-0.1,0.9-0.6,0.8-1.2l-1-5.7l4.1-4C21.9,10.5,22,10.3,22,10.1z"/></symbol><symbol id="step-forward" viewBox="0 0 24 24"><path d="M8.7,7.3c-0.4-0.4-1-0.4-1.4,0c-0.4,0.4-0.4,1,0,1.4l3.3,3.3l-3.3,3.3C7.1,15.5,7,15.7,7,16c0,0.6,0.4,1,1,1c0.3,0,0.5-0.1,0.7-0.3l4-4c0,0,0,0,0,0c0.4-0.4,0.4-1,0-1.4L8.7,7.3z M16,7c-0.6,0-1,0.4-1,1v8c0,0.6,0.4,1,1,1s1-0.4,1-1V8C17,7.4,16.6,7,16,7z"/></symbol><symbol id="stethoscope-alt" viewBox="0 0 24 24"><path d="M21.8,10c-0.4-1.2-1.6-2-2.8-2c-1.7,0-3,1.3-3,3c0,1.3,0.8,2.4,2,2.8v1.7c0,2.5-2,4.5-4.5,4.5S9,18,9,15.5v-1l3.1-2.5C13.3,11,14,9.6,14,8.1V3c0-0.6-0.4-1-1-1h-2c-0.6,0-1,0.4-1,1s0.4,1,1,1h1v4.1c0,0.9-0.4,1.8-1.1,2.3L8,12.7l-2.9-2.3C4.4,9.9,4,9,4,8.1V4h1c0.6,0,1-0.4,1-1S5.6,2,5,2H3C2.4,2,2,2.4,2,3v5.1c0,1.5,0.7,3,1.9,3.9L7,14.5v1c0,3.6,2.9,6.5,6.5,6.5s6.5-2.9,6.5-6.5v-1.7C21.6,13.3,22.4,11.6,21.8,10z"/></symbol><symbol id="stethoscope" viewBox="0 0 24 24"><path d="M21.8,10c-0.4-1.2-1.6-2-2.8-2c-1.7,0-3,1.3-3,3c0,1.3,0.8,2.4,2,2.8v1.7c0,2.5-2,4.5-4.5,4.5S9,18,9,15.5v-0.6c2.9-0.5,5-3,5-5.9V3c0-0.6-0.4-1-1-1h-2c-0.6,0-1,0.4-1,1s0.4,1,1,1h1v5c0,2.2-1.8,4-4,4s-4-1.8-4-4V4h1c0.6,0,1-0.4,1-1S5.6,2,5,2H3C2.4,2,2,2.4,2,3v6c0,2.9,2.1,5.4,5,5.9v0.6c0,3.6,2.9,6.5,6.5,6.5s6.5-2.9,6.5-6.5v-1.7C21.6,13.3,22.4,11.6,21.8,10z"/></symbol><symbol id="stopwatch" viewBox="0 0 24 24"><path d="M10,4.5h4c0.6,0,1-0.4,1-1s-0.4-1-1-1h-4c-0.6,0-1,0.4-1,1S9.4,4.5,10,4.5z M18.3,8.6l0.9-0.9c0.4-0.4,0.4-1,0-1.4c-0.4-0.4-1-0.4-1.4,0l-0.9,0.9C14,4.9,10,4.9,7.1,7.2L6.2,6.3c-0.4-0.4-1-0.4-1.4,0c-0.4,0.4-0.4,1,0,1.4l0.9,0.9C3,12.1,3.6,17.1,7.1,19.8c3.5,2.7,8.5,2.1,11.2-1.4C20.6,15.5,20.6,11.5,18.3,8.6z M13.7,14.5c-0.4,0.6-1,1-1.7,1c-1.1,0-2-0.9-2-2c0-0.7,0.4-1.4,1-1.7V9.5c0-0.6,0.4-1,1-1s1,0.4,1,1v2.3C14,12.3,14.3,13.5,13.7,14.5z"/></symbol><symbol id="store-slash" viewBox="0 0 24 24"><path d="M15,10.6c0.8,0.9,1.8,1.4,3,1.4v1.8l2,2v-4.3c1.2-0.7,2-2,2-3.4c0-0.1,0-0.3-0.1-0.4l-2-5C19.8,2.2,19.4,2,19,2H6.2L15,10.6C14.9,10.7,15,10.6,15,10.6z M22.7,21.3L20,18.6v0l-2-2v0l-4.8-4.8l0,0L4.1,2.6l0,0L2.7,1.3c-0.4-0.4-1-0.4-1.4,0c-0.4,0.4-0.4,1,0,1.4l2,2l-1.2,3C2,7.7,2,7.9,2,8c0,1.4,0.8,2.7,2,3.4V21c0,0.6,0.4,1,1,1h14c0.4,0,0.8-0.3,0.9-0.7l1.4,1.4c0.4,0.4,1,0.4,1.4,0C23.1,22.3,23.1,21.7,22.7,21.3z M10,14c-0.6,0-1,0.4-1,1v5H6v-8c1.2,0,2.2-0.5,3-1.4c0.3,0.3,0.6,0.6,1,0.8l2.6,2.6H10z M18,20h-3v-3.6l3,3V20z"/></symbol><symbol id="subject" viewBox="0 0 24 24"><path d="M3,8h18c0.6,0,1-0.4,1-1s-0.4-1-1-1H3C2.4,6,2,6.4,2,7S2.4,8,3,8z M13,16H3c-0.6,0-1,0.4-1,1s0.4,1,1,1h10c0.6,0,1-0.4,1-1S13.6,16,13,16z M21,11H3c-0.6,0-1,0.4-1,1s0.4,1,1,1h18c0.6,0,1-0.4,1-1S21.6,11,21,11z"/></symbol><symbol id="sync-exclamation" viewBox="0 0 24 24"><path d="M12,13L12,13c0.6,0,1-0.4,1-1V9c0-0.6-0.4-1-1-1s-1,0.4-1,1v3C11,12.6,11.4,13,12,13z M11,15c0,0.5,0.5,1,1,1c0,0,0,0,0,0c0.5,0,1-0.5,1-1c0-0.3-0.1-0.5-0.3-0.7c-0.3-0.3-0.7-0.4-1.1-0.2c-0.1,0-0.2,0.1-0.3,0.2C11.1,14.5,11,14.7,11,15C11,15,11,15,11,15z M17,3.3C13.1,1.1,8.3,1.8,5.1,4.7V3c0-0.6-0.4-1-1-1s-1,0.4-1,1v4.5c0,0.1,0,0.2,0.1,0.3c0,0,0,0.1,0,0.1c0.1,0.2,0.3,0.4,0.5,0.5c0,0,0,0,0,0C3.9,8.5,4,8.5,4.1,8.5h4.5c0.6,0,1-0.4,1-1s-0.4-1-1-1H6.2C7.7,4.9,9.8,4,12,4c4.4,0,8,3.6,8,8v0c0,0.6,0.4,1,1,1h0c0.6,0,1-0.4,1-1C22,8.4,20.1,5.1,17,3.3z M19.9,15.5h-4.5c-0.6,0-1,0.4-1,1s0.4,1,1,1h2.4C16.3,19.1,14.2,20,12,20c-4.4,0-8-3.6-8-8c0-0.6-0.4-1-1-1s-1,0.4-1,1c0,5.5,4.5,10,10,10c2.6,0,5-1,6.9-2.8V21c0,0.6,0.4,1,1,1h0c0.6,0,1-0.4,1-1v-4.5C20.9,15.9,20.4,15.5,19.9,15.5z"/></symbol><symbol id="sync-slash" viewBox="0 0 24 24"><path d="M18.3,7.1C18.3,7.1,18.3,7.1,18.3,7.1l1.4-1.4c0,0,0,0,0,0l2-2c0,0,0,0,0,0c0.4-0.4,0.4-1,0-1.4c-0.4-0.4-1-0.4-1.4,0l-2,2c-3.6-3-8.9-3.1-12.6,0C5.5,4.4,5.3,4.6,5.1,4.8V3c0-0.6-0.4-1-1-1s-1,0.4-1,1v4.5c0,0.6,0.4,1,1,1h4.5c0.6,0,1-0.4,1-1s-0.4-1-1-1H6.2c2.5-2.6,6.5-3.3,9.8-1.4c0.3,0.2,0.6,0.4,0.9,0.6L5.7,16.9C4.6,15.5,4,13.8,4,12c0-0.6-0.4-1-1-1s-1,0.4-1,1c0,2.3,0.8,4.6,2.3,6.3l-2,2C2.1,20.5,2,20.7,2,21c0,0.6,0.4,1,1,1c0.3,0,0.5-0.1,0.7-0.3l2-2c0,0,0,0,0,0l1.4-1.4c0,0,0,0,0,0L18.3,7.1z M19.9,15.5h-4.5c-0.6,0-1,0.4-1,1s0.4,1,1,1h2.4c-2.2,2.4-5.8,3.2-8.9,1.9l-1.5,1.5c1.4,0.7,3,1.1,4.6,1.1c2.6,0,5-1,6.9-2.8V21c0,0.6,0.4,1,1,1s1-0.4,1-1v-4.5C20.9,15.9,20.4,15.5,19.9,15.5z M19.4,8.9c0.4,1,0.6,2,0.6,3.1c0,0.6,0.4,1,1,1s1-0.4,1-1c0-1.6-0.4-3.2-1.1-4.6L19.4,8.9z"/></symbol><symbol id="table" viewBox="0 0 24 24"><path d="M21,2H3C2.4,2,2,2.4,2,3v18c0,0.6,0.4,1,1,1h18c0.6,0,1-0.4,1-1V3C22,2.4,21.6,2,21,2z M10,20v-4h4v4H10z M10,14v-4h4v4H10z M4,10h4v4H4V10z M10,8V4h4v4H10z M16,10h4v4h-4V10z M20,8h-4V4h4V8z M8,4v4H4V4H8z M4,16h4v4H4V16z M16,20v-4h4v4H16z"/></symbol><symbol id="th-large" viewBox="0 0 24 24"><path d="M20,3H4C3.4,3,3,3.4,3,4v16c0,0.6,0.4,1,1,1h16c0.6,0,1-0.4,1-1V4C21,3.4,20.6,3,20,3z M19,11h-6V5h6V11z M11,5v6H5V5H11z M5,13h6v6H5V13z M13,19v-6h6v6H13z"/></symbol><symbol id="times-circle" viewBox="0 0 24 24"><path d="M12,2C6.5,2,2,6.5,2,12s4.5,10,10,10s10-4.5,10-10S17.5,2,12,2z M15.7,14.3c0.4,0.4,0.4,1,0,1.4c-0.4,0.4-1,0.4-1.4,0L12,13.4l-2.3,2.3c-0.4,0.4-1,0.4-1.4,0c-0.4-0.4-0.4-1,0-1.4l2.3-2.3L8.3,9.7c-0.4-0.4-0.4-1,0-1.4c0.4-0.4,1-0.4,1.4,0l2.3,2.3l2.3-2.3c0.4-0.4,1-0.4,1.4,0c0.4,0.4,0.4,1,0,1.4L13.4,12L15.7,14.3z"/></symbol><symbol id="toggle-off" viewBox="0 0 24 24"><path d="M16.5,6.5h-9C4.5,6.5,2,9,2,12s2.5,5.5,5.5,5.5h9c3,0,5.5-2.5,5.5-5.5S19.5,6.5,16.5,6.5z M7.5,14.5C6.1,14.5,5,13.4,5,12s1.1-2.5,2.5-2.5S10,10.6,10,12S8.9,14.5,7.5,14.5z"/></symbol><symbol id="toggle-on" viewBox="0 0 24 24"><path d="M16.5,6.5h-9C4.5,6.5,2,9,2,12s2.5,5.5,5.5,5.5h9c3,0,5.5-2.5,5.5-5.5S19.5,6.5,16.5,6.5z M16.5,14.5c-1.4,0-2.5-1.1-2.5-2.5s1.1-2.5,2.5-2.5S19,10.6,19,12S17.9,14.5,16.5,14.5z"/></symbol><symbol id="toilet-paper" viewBox="0 0 24 24"><path d="M22.3,20.4c-1.2-1.4-1.8-3.1-1.8-4.9V8c0-3.3-2.2-6-5-6h-9c-2.8,0-5,2.7-5,6s2.2,6,5,6h3v1.5c0,2.3,0.8,4.5,2.2,6.2c0.2,0.2,0.5,0.3,0.8,0.3h9c0.6,0,1-0.4,1-1C22.5,20.8,22.4,20.5,22.3,20.4z M6.5,9.2C5.9,9.2,5.4,8.6,5.5,8c-0.1-0.6,0.4-1.2,1-1.2c0.6,0.1,1.1,0.6,1,1.2C7.6,8.6,7.1,9.2,6.5,9.2z M13,20c-1-1.3-1.5-2.9-1.5-4.6v-7c0,0,0-0.1,0-0.1c0-0.1,0-0.3,0-0.4c0-1.4-0.4-2.8-1.3-4h5.3c1.7,0,3,1.8,3,4v7.5c0,1.6,0.4,3.2,1.1,4.6H13z"/></symbol><symbol id="triangle" viewBox="0 0 24 24"><path d="M21.9,19.3l-9-15.6c-0.1-0.1-0.2-0.2-0.3-0.3c-0.5-0.3-1.1-0.2-1.4,0.3l-9,15.6C2,19.4,2,19.6,2,19.8c0,0.6,0.4,1,1,1h18c0.2,0,0.3,0,0.5-0.1C22,20.4,22.1,19.8,21.9,19.3z"/></symbol><symbol id="unlock-alt" viewBox="0 0 24 24"><path d="M17,9H9V7c0-0.8,0.3-1.5,0.9-2.1c1.2-1.2,3.1-1.2,4.2,0c0.4,0.4,0.6,0.9,0.8,1.4c0,0,0,0,0,0C15,6.8,15.6,7.1,16.1,7c0.5-0.1,0.9-0.7,0.7-1.2c-0.2-0.9-0.7-1.7-1.3-2.3C14.6,2.5,13.3,2,12,2C9.2,2,7,4.2,7,7v2c-1.7,0-3,1.3-3,3v7c0,1.7,1.3,3,3,3h10c1.7,0,3-1.3,3-3v-7C20,10.3,18.7,9,17,9z M13,17c0,0.6-0.4,1-1,1s-1-0.4-1-1v-3c0-0.6,0.4-1,1-1s1,0.4,1,1V17z"/></symbol><symbol id="unlock" viewBox="0 0 24 24"><path d="M17,9H9V7c0-0.8,0.3-1.5,0.9-2.1c1.2-1.2,3.1-1.2,4.2,0c0.4,0.4,0.6,0.9,0.8,1.4c0,0,0,0,0,0C15,6.8,15.6,7.1,16.1,7c0.5-0.1,0.9-0.7,0.7-1.2c-0.2-0.9-0.7-1.7-1.3-2.3C14.6,2.5,13.3,2,12,2C9.2,2,7,4.2,7,7v2c-1.7,0-3,1.3-3,3v7c0,1.7,1.3,3,3,3h10c1.7,0,3-1.3,3-3v-7C20,10.3,18.7,9,17,9z"/></symbol><symbol id="upload-alt" viewBox="0 0 24 24"><path d="M18,9h-2c-0.6,0-1,0.4-1,1s0.4,1,1,1h2c0.6,0,1,0.4,1,1v7c0,0.6-0.4,1-1,1H6c-0.6,0-1-0.4-1-1v-7c0-0.6,0.4-1,1-1h2c0.6,0,1-0.4,1-1S8.6,9,8,9H6c-1.7,0-3,1.3-3,3v7c0,1.7,1.3,3,3,3h12c1.7,0,3-1.3,3-3v-7C21,10.3,19.7,9,18,9z M9.7,6.7L11,5.4V17c0,0.6,0.4,1,1,1h0c0.6,0,1-0.4,1-1V5.4l1.3,1.3C14.5,6.9,14.7,7,15,7c0.3,0,0.5-0.1,0.7-0.3c0.4-0.4,0.4-1,0-1.4l-3-3c0,0,0,0,0,0c-0.4-0.4-1-0.4-1.4,0l-3,3c-0.4,0.4-0.4,1,0,1.4C8.7,7.1,9.3,7.1,9.7,6.7z"/></symbol><symbol id="user-arrows" viewBox="0 0 24 24"><path d="M6.6,6.9C6.6,7,6.7,7.1,6.8,7.2l2,2C9,9.4,9.2,9.5,9.5,9.5c0.3,0,0.5-0.1,0.7-0.3c0.4-0.4,0.4-1,0-1.4L9.9,7.5h4.2l-0.3,0.3c-0.2,0.2-0.3,0.4-0.3,0.7c0,0.6,0.4,1,1,1c0.3,0,0.5-0.1,0.7-0.3l2-2l0,0c0,0,0,0,0,0c0.1-0.1,0.2-0.2,0.2-0.3c0-0.1,0.1-0.2,0.1-0.4c0,0,0,0,0,0c0,0,0,0,0,0c0-0.1,0-0.3-0.1-0.4c-0.1-0.1-0.1-0.2-0.2-0.3l-2-2c-0.4-0.4-1-0.4-1.4,0c-0.4,0.4-0.4,1,0,1.4l0.3,0.3H9.9l0.3-0.3c0.4-0.4,0.4-1,0-1.4c-0.4-0.4-1-0.4-1.4,0l-2,2c0,0,0,0,0,0l0,0c0,0,0,0,0,0C6.7,5.9,6.6,6,6.6,6.1c0,0.1-0.1,0.2-0.1,0.4c0,0,0,0,0,0c0,0,0,0,0,0C6.5,6.6,6.5,6.8,6.6,6.9z M6,14.7c1.4,0,2.6-1.2,2.6-2.6c0-1.4-1.2-2.6-2.6-2.6c-1.4,0-2.6,1.2-2.6,2.6C3.4,13.5,4.6,14.7,6,14.7z M9.8,17.4c-2.6-2.1-6.4-1.7-8.5,0.9C1.1,18.6,1,18.9,1,19.2c0,0.7,0.6,1.3,1.3,1.3h7.4c0.5,0,1-0.3,1.2-0.7c0.2-0.4,0.2-1-0.2-1.4C10.4,18,10.1,17.7,9.8,17.4z M15.4,12.1c0,1.4,1.2,2.6,2.6,2.6s2.6-1.2,2.6-2.6c0-1.4-1.2-2.6-2.6-2.6C16.6,9.5,15.4,10.7,15.4,12.1z M22.7,18.4c-0.3-0.3-0.6-0.7-0.9-0.9c-2.6-2.1-6.4-1.7-8.5,0.9c-0.2,0.2-0.3,0.5-0.3,0.8c0,0.7,0.6,1.3,1.3,1.3h7.4c0.5,0,1-0.3,1.2-0.7C23.1,19.3,23,18.8,22.7,18.4z"/></symbol><symbol id="user-md" viewBox="0 0 24 24"><path d="M15.9,13.2L15.9,13.2c-0.1,0-0.1-0.1-0.2-0.1C17.2,12,18,10.3,18,8.4c0-0.2,0-0.4,0-0.6c0,0,0-0.1,0-0.1l0.3-2.4c0.2-1.6-0.9-3-2.4-3.3L15,1.8C13,1.5,11,1.5,9,1.8L8.2,2C6.6,2.3,5.5,3.7,5.7,5.3L6,7.7c0,0,0,0.1,0,0.1C6,8,6,8.2,6,8.4c0,1.8,0.8,3.6,2.3,4.7c-0.1,0-0.1,0.1-0.2,0.1l0,0c-3.3,1.4-5.6,4.5-6,8.1c-0.1,0.5,0.3,1,0.9,1.1c0.6,0.1,17.5,0,18,0c0,0,0.1,0,0.1,0c0.5-0.1,0.9-0.6,0.9-1.1C21.5,17.7,19.2,14.6,15.9,13.2z M12,16.3l-1.7-1.7c1.1-0.2,2.2-0.2,3.3,0L12,16.3z M12,12.4c-2.2,0-3.9-1.7-4-3.9h8C15.9,10.7,14.2,12.4,12,12.4z"/></symbol><symbol id="user-nurse" viewBox="0 0 24 24"><path d="M16.2,12.9C16.2,12.9,16.1,12.9,16.2,12.9c-0.2-0.1-0.3-0.2-0.5-0.2c2.6-2,3.1-5.8,1-8.4s-5.8-3.1-8.4-1s-3.1,5.8-1,8.4c0.3,0.4,0.6,0.7,1,1c-0.1,0.1-0.3,0.1-0.4,0.2c0,0,0,0-0.1,0c-3.2,1.5-5.4,4.5-5.8,8C2,21.4,2.4,21.9,3,22H21c0.5-0.1,0.9-0.6,0.9-1.1C21.6,17.4,19.4,14.4,16.2,12.9z M8,7.6c0.2-2.2,2.2-3.8,4.3-3.6c1.9,0.2,3.4,1.7,3.6,3.6H8z M12,16.2l-1.9-1.9c1.3-0.3,2.6-0.3,3.9,0L12,16.2z"/></symbol><symbol id="vector-square-alt" viewBox="0 0 24 24"><path d="M21,18.3V5.7c0.6-0.3,1-1,1-1.7c0-1.1-0.9-2-2-2c-0.7,0-1.4,0.4-1.7,1H5.7C5.4,2.4,4.7,2,4,2C2.9,2,2,2.9,2,4c0,0.7,0.4,1.4,1,1.7v12.6c-0.6,0.3-1,1-1,1.7c0,1.1,0.9,2,2,2c0.7,0,1.4-0.4,1.7-1h12.6c0.3,0.6,1,1,1.7,1c1.1,0,2-0.9,2-2C22,19.3,21.6,18.6,21,18.3z M19,18.3c-0.3,0.2-0.5,0.4-0.7,0.7H5.7c-0.2-0.3-0.4-0.5-0.7-0.7V5.7C5.3,5.5,5.5,5.3,5.7,5h12.6c0.2,0.3,0.4,0.5,0.7,0.7V18.3z M16,7H8C7.4,7,7,7.4,7,8v8c0,0.6,0.4,1,1,1h8c0.6,0,1-0.4,1-1V8C17,7.4,16.6,7,16,7z"/></symbol><symbol id="vector-square" viewBox="0 0 24 24"><path d="M20,16.2V7.8c1.2-0.4,2-1.5,2-2.8c0-1.7-1.3-3-3-3c-1.3,0-2.4,0.8-2.8,2H7.8C7.4,2.8,6.3,2,5,2C3.3,2,2,3.3,2,5c0,1.3,0.8,2.4,2,2.8v8.4c-1.2,0.4-2,1.5-2,2.8c0,1.7,1.3,3,3,3c1.3,0,2.4-0.8,2.8-2h8.4c0.4,1.2,1.5,2,2.8,2c1.7,0,3-1.3,3-3C22,17.7,21.2,16.6,20,16.2z M16.2,18H7.8c-0.3-0.8-1-1.5-1.8-1.8V7.8c0.8-0.3,1.5-1,1.8-1.8h8.4c0.3,0.8,1,1.5,1.8,1.8v8.4C17.2,16.5,16.5,17.2,16.2,18z M19,4c0.6,0,1,0.4,1,1c0,0.6-0.4,1-1,1s-1-0.4-1-1S18.4,4,19,4z M5,4c0.6,0,1,0.4,1,1c0,0.6-0.4,1-1,1S4,5.6,4,5S4.4,4,5,4z M5,20c-0.6,0-1-0.4-1-1s0.4-1,1-1c0.6,0,1,0.4,1,1C6,19.6,5.6,20,5,20z M19,20c-0.6,0-1-0.4-1-1s0.4-1,1-1c0.6,0,1,0.4,1,1C20,19.6,19.6,20,19,20z"/></symbol><symbol id="virus-slash" viewBox="0 0 24 24"><path d="M19.8,18.4C19.8,18.4,19.8,18.4,19.8,18.4l-4-4c0,0,0,0,0,0l-2.1-2.1l0,0l-8-8c0,0,0,0,0,0L2.7,1.3c-0.4-0.4-1-0.4-1.4,0c-0.4,0.4-0.4,1,0,1.4L5,6.4C3.9,7.7,3.2,9.3,3.1,11H2c-0.6,0-1,0.4-1,1s0.4,1,1,1h1.1c0.2,1.7,0.9,3.3,1.9,4.6l-0.8,0.8c-0.4,0.4-0.4,1,0,1.4c0.4,0.4,1,0.4,1.4,0L6.4,19c1.3,1.1,2.9,1.7,4.6,1.9V22c0,0.6,0.4,1,1,1s1-0.4,1-1v-1.1c1.7-0.2,3.3-0.9,4.6-1.9l3.7,3.7c0.2,0.2,0.4,0.3,0.7,0.3c0.3,0,0.5-0.1,0.7-0.3c0.4-0.4,0.4-1,0-1.4L19.8,18.4z M9,16c-0.6,0-1-0.4-1-1s0.4-1,1-1s1,0.4,1,1S9.6,16,9,16z M9.5,12C8.7,12,8,11.3,8,10.5c0-0.3,0.1-0.6,0.3-0.8l2.1,2.1C10.1,11.9,9.8,12,9.5,12z M20.9,13H22c0.6,0,1-0.4,1-1s-0.4-1-1-1h-1.1c-0.2-1.7-0.9-3.3-1.9-4.6l0.8-0.8c0.4-0.4,0.4-1,0-1.4c-0.4-0.4-1-0.4-1.4,0L17.6,5c-1.3-1.1-2.9-1.7-4.6-1.9V2c0-0.6-0.4-1-1-1s-1,0.4-1,1v1.1c-1,0.1-2,0.4-2.9,0.8l12,12C20.5,15,20.8,14,20.9,13z M15,10c-0.6,0-1-0.4-1-1s0.4-1,1-1s1,0.4,1,1S15.6,10,15,10z"/></symbol><symbol id="web-grid-alt" viewBox="0 0 24 24"><path d="M21,2H3C2.4,2,2,2.4,2,3v5h20V3C22,2.4,21.6,2,21,2z M2,21c0,0.6,0.4,1,1,1h8V10H2V21z M13,22h8c0.6,0,1-0.4,1-1V10h-9V22z"/></symbol><symbol id="web-grid" viewBox="0 0 24 24"><path d="M21,2h-5v20h5c0.6,0,1-0.4,1-1V3C22,2.4,21.6,2,21,2z M2,21c0,0.6,0.4,1,1,1h11v-9H2V21z M2,3v8h12V2H3C2.4,2,2,2.4,2,3z"/></symbol><symbol id="web-section-alt" viewBox="0 0 24 24"><path d="M2,3v18c0,0.6,0.4,1,1,1h5V2H3C2.4,2,2,2.4,2,3z M21,2H10v20h11c0.6,0,1-0.4,1-1V3C22,2.4,21.6,2,21,2z"/></symbol><symbol id="web-section" viewBox="0 0 24 24"><path d="M2,3v18c0,0.6,0.4,1,1,1h11V2H3C2.4,2,2,2.4,2,3z M21,2h-5v20h5c0.6,0,1-0.4,1-1V3C22,2.4,21.6,2,21,2z"/></symbol><symbol id="window-grid" viewBox="0 0 24 24"><path d="M2,3v18c0,0.6,0.4,1,1,1h5V2H3C2.4,2,2,2.4,2,3z M21,2H10v9h12V3C22,2.4,21.6,2,21,2z M10,22h11c0.6,0,1-0.4,1-1v-8H10V22z"/></symbol><symbol id="window-maximize" viewBox="0 0 24 24"><path d="M21,2H3C2.4,2,2,2.4,2,3v5h20V3C22,2.4,21.6,2,21,2z M2,21c0,0.6,0.4,1,1,1h18c0.6,0,1-0.4,1-1V10H2V21z"/></symbol><symbol id="window-section" viewBox="0 0 24 24"><path d="M2,21c0,0.6,0.4,1,1,1h5V10H2V21z M16,22h5c0.6,0,1-0.4,1-1V10h-6V22z M10,22h4V10h-4V22z M21,2H3C2.4,2,2,2.4,2,3v5h20V3C22,2.4,21.6,2,21,2z"/></symbol><symbol id="wrap-text" viewBox="0 0 24 24"><path d="M3,7.2h18c0.6,0,1-0.4,1-1s-0.4-1-1-1H3c-0.6,0-1,0.4-1,1S2.4,7.2,3,7.2z M9,15.2H3c-0.6,0-1,0.4-1,1s0.4,1,1,1h6c0.6,0,1-0.4,1-1S9.6,15.2,9,15.2z M18.5,10.2H3c-0.6,0-1,0.4-1,1s0.4,1,1,1h15.5c0.8,0,1.5,0.7,1.5,1.5s-0.7,1.5-1.5,1.5h-2.8c0.3-0.4,0.4-0.9,0-1.3c-0.4-0.4-1-0.5-1.4-0.1l-2,1.7c0,0-0.1,0.1-0.1,0.1c-0.4,0.4-0.3,1.1,0.1,1.4l2,1.7c0.2,0.1,0.4,0.2,0.6,0.2c0.3,0,0.6-0.1,0.8-0.4c0.3-0.4,0.3-0.9,0-1.3h2.8c1.9,0,3.5-1.6,3.5-3.5S20.4,10.2,18.5,10.2z"/></symbol></svg>