<?xml version="1.0" standalone="no"?>
<!DOCTYPE svg PUBLIC "-//W3C//DTD SVG 1.1//EN" "http://www.w3.org/Graphics/SVG/1.1/DTD/svg11.dtd">
<svg xmlns="http://www.w3.org/2000/svg">
<metadata>IconScout</metadata>
<defs>
<font id="unicons-thinline" horiz-adv-x="1000" >
<font-face font-family="unicons-thinline" font-weight="400" font-stretch="normal" units-per-em="1000" ascent="850" descent="-150" />
<missing-glyph horiz-adv-x="1000" />
<glyph glyph-name="clock-eight" unicode="&#xe800;" d="M500 579c-12 0-21-9-21-21v-195l-113-57c-7-3-11-11-11-18 0-12 9-21 21-21 3 0 6 0 9 2l124 62c7 4 12 11 12 19v208c0 12-9 21-21 21z m0 188c-230 0-417-187-417-417s187-417 417-417c230 1 416 187 417 417 0 230-187 417-417 417z m0-792c-207 0-375 168-375 375s168 375 375 375c207 0 375-168 375-375 0-207-168-375-375-375z" horiz-adv-x="1000" />

<glyph glyph-name="clock-eight" unicode="&#xe800;" d="M500 579c-12 0-21-9-21-21v-195l-113-57c-7-3-11-11-11-18 0-12 9-21 21-21 3 0 6 0 9 2l124 62c7 4 12 11 12 19v208c0 12-9 21-21 21z m0 188c-230 0-417-187-417-417s187-417 417-417c230 1 416 187 417 417 0 230-187 417-417 417z m0-792c-207 0-375 168-375 375s168 375 375 375c207 0 375-168 375-375 0-207-168-375-375-375z" horiz-adv-x="1000" />

<glyph glyph-name="laptop" unicode="&#xe801;" d="M896 225h-63v333c0 69-56 125-125 125h-416c-69 0-125-56-125-125v-333h-63c-11 0-21-9-21-21v-62c0-69 56-125 125-125h584c69 0 125 56 125 125v62c0 12-10 21-21 21z m-688 333c0 46 38 84 84 84h416c46 0 84-38 84-84v-333h-584v333z m667-416c0-46-37-84-83-84h-584c-46 0-83 38-83 84v41h750v-41z" horiz-adv-x="1000" />

<glyph glyph-name="laptop" unicode="&#xe801;" d="M896 225h-63v333c0 69-56 125-125 125h-416c-69 0-125-56-125-125v-333h-63c-11 0-21-9-21-21v-62c0-69 56-125 125-125h584c69 0 125 56 125 125v62c0 12-10 21-21 21z m-688 333c0 46 38 84 84 84h416c46 0 84-38 84-84v-333h-584v333z m667-416c0-46-37-84-83-84h-584c-46 0-83 38-83 84v41h750v-41z" horiz-adv-x="1000" />

<glyph glyph-name="head-side-mask" unicode="&#xe802;" d="M550 746c-4 0-4 0-8 0-163 0-292-129-292-292 0 0 0-4 0-4l-79-129c-4-4-4-8-4-13v0 0 0c0-4 0-4 0-8l62-162c17-34 54-59 92-59h54v-104c0 0 0 0 0 0 0-13 8-21 21-21 0 0 0 0 0 0 12 0 21 8 21 21v104h104c0 0 0 0 0 0 0 0 0 0 0 0 4 0 4 0 8 0l188 63-9-17c0-4 0-8 0-12l42-146c4-9 12-17 21-17 0 0 4 0 4 0 0 0 0 0 0 0 12 4 17 17 12 25l-41 138 83 308c0 0 0 4 0 4v17c4 162-116 296-279 304z m-50-625h-179c-25 0-46 12-54 33l-50 134h283v-167z m225 71l-183-63v163l233 79-50-179z m62 233l-270-96h-292l63 104c4 5 4 9 4 13 0 0 0 4 0 4l0 4c0 67 29 134 75 179 50 46 112 75 183 71 138-8 246-125 242-262l-5-17z" horiz-adv-x="1000" />

<glyph glyph-name="head-side-mask" unicode="&#xe802;" d="M550 746c-4 0-4 0-8 0-163 0-292-129-292-292 0 0 0-4 0-4l-79-129c-4-4-4-8-4-13v0 0 0c0-4 0-4 0-8l62-162c17-34 54-59 92-59h54v-104c0 0 0 0 0 0 0-13 8-21 21-21 0 0 0 0 0 0 12 0 21 8 21 21v104h104c0 0 0 0 0 0 0 0 0 0 0 0 4 0 4 0 8 0l188 63-9-17c0-4 0-8 0-12l42-146c4-9 12-17 21-17 0 0 4 0 4 0 0 0 0 0 0 0 12 4 17 17 12 25l-41 138 83 308c0 0 0 4 0 4v17c4 162-116 296-279 304z m-50-625h-179c-25 0-46 12-54 33l-50 134h283v-167z m225 71l-183-63v163l233 79-50-179z m62 233l-270-96h-292l63 104c4 5 4 9 4 13 0 0 0 4 0 4l0 4c0 67 29 134 75 179 50 46 112 75 183 71 138-8 246-125 242-262l-5-17z" horiz-adv-x="1000" />

<glyph glyph-name="stopwatch" unicode="&#xe803;" d="M417 683h166c12 0 21 10 21 21s-9 21-21 21h-166c-12 0-21-9-21-21s9-21 21-21z m333-196l56 57c8 8 8 20 0 29-8 8-21 8-29 0l-57-57c-58 52-135 84-220 84s-162-32-220-84l-57 57c-8 8-21 8-29 0-8-8-8-21 0-29l56-57c-52-59-83-136-83-220 0-184 149-334 333-334 184 1 333 150 333 334 0 84-31 161-83 220z m-250-512c-161 0-292 131-292 292 0 80 33 153 85 205 0 0 1 1 1 1 0 0 0 0 0 0 53 53 126 85 206 85 80 0 153-32 206-85 0 0 0 0 0 0 53-53 86-126 86-206 0-161-131-292-292-292z m21 350v88c0 11-9 20-21 20s-21-9-21-20v-88c-24-8-42-31-42-58 0-35 28-63 63-63s63 28 63 63c0 27-18 50-42 58z" horiz-adv-x="1000" />

<glyph glyph-name="stopwatch" unicode="&#xe803;" d="M417 683h166c12 0 21 10 21 21s-9 21-21 21h-166c-12 0-21-9-21-21s9-21 21-21z m333-196l56 57c8 8 8 20 0 29-8 8-21 8-29 0l-57-57c-58 52-135 84-220 84s-162-32-220-84l-57 57c-8 8-21 8-29 0-8-8-8-21 0-29l56-57c-52-59-83-136-83-220 0-184 149-334 333-334 184 1 333 150 333 334 0 84-31 161-83 220z m-250-512c-161 0-292 131-292 292 0 80 33 153 85 205 0 0 1 1 1 1 0 0 0 0 0 0 53 53 126 85 206 85 80 0 153-32 206-85 0 0 0 0 0 0 53-53 86-126 86-206 0-161-131-292-292-292z m21 350v88c0 11-9 20-21 20s-21-9-21-20v-88c-24-8-42-31-42-58 0-35 28-63 63-63s63 28 63 63c0 27-18 50-42 58z" horiz-adv-x="1000" />

<glyph glyph-name="clock" unicode="&#xe804;" d="M619 306l-98 56v196c0 12-9 21-21 21s-21-9-21-21v-208c0-7 4-14 11-18l108-63c3-1 7-2 10-2 8 0 15 4 18 10 6 10 3 23-7 29z m-119 461c-230 0-417-187-417-417s187-417 417-417c230 1 416 187 417 417 0 230-187 417-417 417z m0-792c-207 0-375 168-375 375s168 375 375 375c207 0 375-168 375-375 0-207-168-375-375-375z" horiz-adv-x="1000" />

<glyph glyph-name="clock" unicode="&#xe804;" d="M619 306l-98 56v196c0 12-9 21-21 21s-21-9-21-21v-208c0-7 4-14 11-18l108-63c3-1 7-2 10-2 8 0 15 4 18 10 6 10 3 23-7 29z m-119 461c-230 0-417-187-417-417s187-417 417-417c230 1 416 187 417 417 0 230-187 417-417 417z m0-792c-207 0-375 168-375 375s168 375 375 375c207 0 375-168 375-375 0-207-168-375-375-375z" horiz-adv-x="1000" />

<glyph glyph-name="mouse-alt-2" unicode="&#xe805;" d="M500 767c-161 0-292-131-292-292v-250c1-161 131-291 292-292 161 1 291 131 292 292v250c0 161-131 292-292 292z m250-542c0-138-112-250-250-250s-250 112-250 250v250c0 131 101 238 229 249v-395c0 0 0 0 0 0 0-11 9-21 21-21 0 0 0 0 0 0 12 0 21 10 21 21v395c128-11 229-118 229-249v-250z" horiz-adv-x="1000" />

<glyph glyph-name="mouse-alt-2" unicode="&#xe805;" d="M500 767c-161 0-292-131-292-292v-250c1-161 131-291 292-292 161 1 291 131 292 292v250c0 161-131 292-292 292z m250-542c0-138-112-250-250-250s-250 112-250 250v250c0 131 101 238 229 249v-395c0 0 0 0 0 0 0-11 9-21 21-21 0 0 0 0 0 0 12 0 21 10 21 21v395c128-11 229-118 229-249v-250z" horiz-adv-x="1000" />

<glyph glyph-name="shield-exclamation" unicode="&#xe806;" d="M500 308c0 0 0 0 0 0 12 0 21 10 21 21v125c0 12-9 21-21 21s-21-9-21-21v-125c0 0 0 0 0 0 0-11 9-21 21-21z m333 386c-2 11-14 18-25 16-103-22-210 0-296 60-7 5-17 5-24 0-86-60-193-82-296-60-2 0-3 0-4 0-12 0-21-9-21-21v-334c0-122 59-237 158-308l163-117c3-3 8-4 12-4 4 0 9 1 12 4l163 117c99 71 158 186 158 308v334c0 2 0 3 0 5z m-41-339c0-109-53-211-141-275l-151-108-151 108c-88 64-141 166-141 275v309c102-15 206 8 292 64 86-56 190-79 292-64v-309z m-292-83c-14 0-26-12-26-26s12-26 26-26 26 11 26 26-12 26-26 26z" horiz-adv-x="1000" />

<glyph glyph-name="shield-exclamation" unicode="&#xe806;" d="M500 308c0 0 0 0 0 0 12 0 21 10 21 21v125c0 12-9 21-21 21s-21-9-21-21v-125c0 0 0 0 0 0 0-11 9-21 21-21z m333 386c-2 11-14 18-25 16-103-22-210 0-296 60-7 5-17 5-24 0-86-60-193-82-296-60-2 0-3 0-4 0-12 0-21-9-21-21v-334c0-122 59-237 158-308l163-117c3-3 8-4 12-4 4 0 9 1 12 4l163 117c99 71 158 186 158 308v334c0 2 0 3 0 5z m-41-339c0-109-53-211-141-275l-151-108-151 108c-88 64-141 166-141 275v309c102-15 206 8 292 64 86-56 190-79 292-64v-309z m-292-83c-14 0-26-12-26-26s12-26 26-26 26 11 26 26-12 26-26 26z" horiz-adv-x="1000" />

<glyph glyph-name="print" unicode="&#xe807;" d="M292 454c-35 0-63-28-63-62s28-63 63-63c34 0 62 28 62 63 0 34-28 62-62 62z m0-83c-12 0-21 9-21 21s9 21 21 21c11-1 20-10 20-21 1-12-9-21-20-21z m521 229h-63v146c0 0 0 0 0 0 0 11-9 21-21 21h-458c0 0 0 0 0 0-12 0-21-10-21-21v-146h-62c-58 0-105-47-105-104v-271c0-69 56-125 125-125h42v-146c0 0 0 0 0 0 0-11 9-21 21-21h458c0 0 0 0 0 0 12 0 21 10 21 21v146h42c69 0 125 56 125 125v271c0 57-47 104-104 104z m-521 125h416v-125h-416v125z m416-750h-416v250h416v-250z m167 250c0-46-37-83-83-83h-42v104c0 0 0 0 0 0 0 11-9 21-21 21h-458c0 0 0 0 0 0-12 0-21-10-21-21v-104h-42c-46 0-83 37-83 83v271c0 34 28 62 63 62h83 458 0 84c34 0 62-28 62-62v-271z" horiz-adv-x="1000" />

<glyph glyph-name="print" unicode="&#xe807;" d="M292 454c-35 0-63-28-63-62s28-63 63-63c34 0 62 28 62 63 0 34-28 62-62 62z m0-83c-12 0-21 9-21 21s9 21 21 21c11-1 20-10 20-21 1-12-9-21-20-21z m521 229h-63v146c0 0 0 0 0 0 0 11-9 21-21 21h-458c0 0 0 0 0 0-12 0-21-10-21-21v-146h-62c-58 0-105-47-105-104v-271c0-69 56-125 125-125h42v-146c0 0 0 0 0 0 0-11 9-21 21-21h458c0 0 0 0 0 0 12 0 21 10 21 21v146h42c69 0 125 56 125 125v271c0 57-47 104-104 104z m-521 125h416v-125h-416v125z m416-750h-416v250h416v-250z m167 250c0-46-37-83-83-83h-42v104c0 0 0 0 0 0 0 11-9 21-21 21h-458c0 0 0 0 0 0-12 0-21-10-21-21v-104h-42c-46 0-83 37-83 83v271c0 34 28 62 63 62h83 458 0 84c34 0 62-28 62-62v-271z" horiz-adv-x="1000" />

<glyph glyph-name="web-grid-alt" unicode="&#xe808;" d="M896 767h-792c-11 0-21-10-21-21v-792c0-11 10-21 21-21h792c11 0 21 10 21 21v792c0 11-10 21-21 21z m-417-792h-354v479h354v-479z m396 0h-354v479h354v-479z m0 521h-750v229h750v-229z" horiz-adv-x="1000" />

<glyph glyph-name="web-grid-alt" unicode="&#xe808;" d="M896 767h-792c-11 0-21-10-21-21v-792c0-11 10-21 21-21h792c11 0 21 10 21 21v792c0 11-10 21-21 21z m-417-792h-354v479h354v-479z m396 0h-354v479h354v-479z m0 521h-750v229h750v-229z" horiz-adv-x="1000" />

<glyph glyph-name="shield-check" unicode="&#xe809;" d="M579 436l-127-127-52 52c-8 8-21 8-29 0-8-8-8-22 0-30l66-67c4-3 10-6 15-6 6 0 11 3 15 6l142 142c8 9 8 22-1 30s-21 8-29 0z m254 258c-2 11-14 18-25 16-103-22-210 0-296 60-7 5-17 5-24 0-86-60-193-82-296-60-2 0-3 0-4 0-12 0-21-9-21-21v-334c0-122 59-237 158-308l163-117c3-3 8-4 12-4 4 0 9 1 12 4l163 117c99 71 158 186 158 308v334c0 2 0 3 0 5z m-41-339c0-109-53-211-141-275l-151-108-151 108c-88 64-141 166-141 275v309c102-15 206 8 292 64 86-56 190-79 292-64v-309z" horiz-adv-x="1000" />

<glyph glyph-name="shield-check" unicode="&#xe809;" d="M579 436l-127-127-52 52c-8 8-21 8-29 0-8-8-8-22 0-30l66-67c4-3 10-6 15-6 6 0 11 3 15 6l142 142c8 9 8 22-1 30s-21 8-29 0z m254 258c-2 11-14 18-25 16-103-22-210 0-296 60-7 5-17 5-24 0-86-60-193-82-296-60-2 0-3 0-4 0-12 0-21-9-21-21v-334c0-122 59-237 158-308l163-117c3-3 8-4 12-4 4 0 9 1 12 4l163 117c99 71 158 186 158 308v334c0 2 0 3 0 5z m-41-339c0-109-53-211-141-275l-151-108-151 108c-88 64-141 166-141 275v309c102-15 206 8 292 64 86-56 190-79 292-64v-309z" horiz-adv-x="1000" />

<glyph glyph-name="clock-two" unicode="&#xe80a;" d="M598 431l-77-45v172c0 12-9 21-21 21s-21-9-21-21v-208c0-11 10-21 21-21 4 0 7 1 10 3l109 62c10 6 13 19 7 29s-18 13-28 8z m-98 336c-230 0-417-187-417-417s187-417 417-417c230 1 416 187 417 417 0 230-187 417-417 417z m0-792c-207 0-375 168-375 375s168 375 375 375c207 0 375-168 375-375 0-207-168-375-375-375z" horiz-adv-x="1000" />

<glyph glyph-name="clock-two" unicode="&#xe80a;" d="M598 431l-77-45v172c0 12-9 21-21 21s-21-9-21-21v-208c0-11 10-21 21-21 4 0 7 1 10 3l109 62c10 6 13 19 7 29s-18 13-28 8z m-98 336c-230 0-417-187-417-417s187-417 417-417c230 1 416 187 417 417 0 230-187 417-417 417z m0-792c-207 0-375 168-375 375s168 375 375 375c207 0 375-168 375-375 0-207-168-375-375-375z" horiz-adv-x="1000" />

<glyph glyph-name="clock-three" unicode="&#xe80b;" d="M646 371h-125v208c0 12-9 21-21 21s-21-9-21-21v-229c0 0 0 0 0 0 0-12 9-21 21-21h146c11 0 21 9 21 21s-10 21-21 21z m-146 396c-230 0-417-187-417-417s187-417 417-417c230 1 416 187 417 417 0 230-187 417-417 417z m0-792c-207 0-375 168-375 375s168 375 375 375c207 0 375-168 375-375 0-207-168-375-375-375z" horiz-adv-x="1000" />

<glyph glyph-name="clock-three" unicode="&#xe80b;" d="M646 371h-125v208c0 12-9 21-21 21s-21-9-21-21v-229c0 0 0 0 0 0 0-12 9-21 21-21h146c11 0 21 9 21 21s-10 21-21 21z m-146 396c-230 0-417-187-417-417s187-417 417-417c230 1 416 187 417 417 0 230-187 417-417 417z m0-792c-207 0-375 168-375 375s168 375 375 375c207 0 375-168 375-375 0-207-168-375-375-375z" horiz-adv-x="1000" />

<glyph glyph-name="shield" unicode="&#xe80c;" d="M833 694c-2 11-14 18-25 16-103-22-210 0-296 60-7 5-17 5-24 0-86-60-193-82-296-60-2 0-3 0-4 0-12 0-21-9-21-21v-334c0-122 59-237 158-308l163-117c3-3 8-4 12-4 4 0 9 1 12 4l163 117c99 71 158 186 158 308v334c0 2 0 3 0 5z m-41-339c0-109-53-211-141-275l-151-108-151 108c-88 64-141 166-141 275v309c102-15 206 8 292 64 86-56 190-79 292-64v-309z" horiz-adv-x="1000" />

<glyph glyph-name="shield" unicode="&#xe80c;" d="M833 694c-2 11-14 18-25 16-103-22-210 0-296 60-7 5-17 5-24 0-86-60-193-82-296-60-2 0-3 0-4 0-12 0-21-9-21-21v-334c0-122 59-237 158-308l163-117c3-3 8-4 12-4 4 0 9 1 12 4l163 117c99 71 158 186 158 308v334c0 2 0 3 0 5z m-41-339c0-109-53-211-141-275l-151-108-151 108c-88 64-141 166-141 275v309c102-15 206 8 292 64 86-56 190-79 292-64v-309z" horiz-adv-x="1000" />

<glyph glyph-name="clock-nine" unicode="&#xe80d;" d="M500 600c-12 0-21-9-21-21v-208h-125c-11 0-21-9-21-21s10-21 21-21h146c0 0 0 0 0 0 12 0 21 9 21 21v229c0 12-9 21-21 21z m0 167c-230 0-417-187-417-417s187-417 417-417c230 1 416 187 417 417 0 230-187 417-417 417z m0-792c-207 0-375 168-375 375s168 375 375 375c207 0 375-168 375-375 0-207-168-375-375-375z" horiz-adv-x="1000" />

<glyph glyph-name="clock-nine" unicode="&#xe80d;" d="M500 600c-12 0-21-9-21-21v-208h-125c-11 0-21-9-21-21s10-21 21-21h146c0 0 0 0 0 0 12 0 21 9 21 21v229c0 12-9 21-21 21z m0 167c-230 0-417-187-417-417s187-417 417-417c230 1 416 187 417 417 0 230-187 417-417 417z m0-792c-207 0-375 168-375 375s168 375 375 375c207 0 375-168 375-375 0-207-168-375-375-375z" horiz-adv-x="1000" />

<glyph glyph-name="user-arrows" unicode="&#xe80e;" d="M275 563l104-105c4-4 8-4 17-4 4 0 12 4 17 4 8 9 8 21 0 30l-71 70h316l-66-66c-4-4-9-13-9-17 0-12 9-21 21-21 4 0 13 4 17 4l104 105c0 0 0 0 0 0 8 8 8 20 0 29l-104 104c-9 8-21 8-29 0-9-8-9-21 0-29l66-67h-316l66 67c9 8 9 21 0 29-8 8-20 8-29 0l-104-100c0 0-4-4-4-8 0-5 0-5 0-9 0 0 0 0 0 0v0c0-4 0-4 0-8s4-4 4-8z m54-375c34 25 59 62 59 108-5 75-63 137-138 137s-133-62-133-133c0-46 21-83 58-108-79-34-133-109-133-196 0-13 8-21 21-21s20 8 20 21c0 92 75 167 167 167s167-75 167-167v0c0-13 8-21 20-21h0c13 0 21 8 21 21 0 87-54 162-129 192z m-79 16c-50 0-92 42-92 92s42 96 92 96c50 0 92-42 92-92 0-54-42-96-92-96z m579-16c33 25 58 62 58 108 0 75-62 133-133 133s-133-62-133-133c0-46 21-83 58-108-75-30-129-105-129-192 0-13 8-21 21-21s21 8 21 21c0 92 75 167 166 167s167-75 167-167v0c0-13 8-21 21-21h0c12 0 21 8 21 21-9 87-63 162-138 192z m-79 16c-50 0-92 42-92 92s42 92 92 92c50 0 92-42 92-92 0-50-42-92-92-92z" horiz-adv-x="1000" />

<glyph glyph-name="user-arrows" unicode="&#xe80e;" d="M275 563l104-105c4-4 8-4 17-4 4 0 12 4 17 4 8 9 8 21 0 30l-71 70h316l-66-66c-4-4-9-13-9-17 0-12 9-21 21-21 4 0 13 4 17 4l104 105c0 0 0 0 0 0 8 8 8 20 0 29l-104 104c-9 8-21 8-29 0-9-8-9-21 0-29l66-67h-316l66 67c9 8 9 21 0 29-8 8-20 8-29 0l-104-100c0 0-4-4-4-8 0-5 0-5 0-9 0 0 0 0 0 0v0c0-4 0-4 0-8s4-4 4-8z m54-375c34 25 59 62 59 108-5 75-63 137-138 137s-133-62-133-133c0-46 21-83 58-108-79-34-133-109-133-196 0-13 8-21 21-21s20 8 20 21c0 92 75 167 167 167s167-75 167-167v0c0-13 8-21 20-21h0c13 0 21 8 21 21 0 87-54 162-129 192z m-79 16c-50 0-92 42-92 92s42 96 92 96c50 0 92-42 92-92 0-54-42-96-92-96z m579-16c33 25 58 62 58 108 0 75-62 133-133 133s-133-62-133-133c0-46 21-83 58-108-75-30-129-105-129-192 0-13 8-21 21-21s21 8 21 21c0 92 75 167 166 167s167-75 167-167v0c0-13 8-21 21-21h0c12 0 21 8 21 21-9 87-63 162-138 192z m-79 16c-50 0-92 42-92 92s42 92 92 92c50 0 92-42 92-92 0-50-42-92-92-92z" horiz-adv-x="1000" />

<glyph glyph-name="circuit" unicode="&#xe80f;" d="M417 329c-35 0-63-28-63-62s28-63 63-63c34 0 62 28 62 63 0 34-28 62-62 62z m0-83c-12 0-21 9-21 21s9 21 21 21c11-1 20-10 20-21 1-12-9-21-20-21z m0 250c-35 0-63-28-63-63s28-62 63-62c34 0 62 28 62 62 0 35-28 63-62 63z m0-83c-12 0-21 9-21 20s9 21 21 21c11 0 20-9 20-21 1-11-9-20-20-20z m479-84c11 0 21 9 21 21s-10 21-21 21h-104v125h104c11 0 21 9 21 21s-10 21-21 21h-104c0 57-47 104-104 104v104c0 11-10 21-21 21s-21-10-21-21v-104h-125v104c0 11-9 21-21 21s-21-10-21-21v-104h-125v104c0 11-9 21-21 21s-20-10-20-21v-104c-58 0-105-47-105-104h-104c-11 0-21-10-21-21s10-21 21-21h104v-125h-104c-11 0-21-9-21-21s10-21 21-21h104v-125h-104c-11 0-21-9-21-21s10-20 21-20h104c0-58 47-105 105-105v-104c0-11 9-21 20-21h0c12 0 21 10 21 21v104h125v-104c0-11 9-21 21-21h0c12 0 21 10 21 21v104h125v-104c0-11 9-21 21-21h0c11 0 21 10 21 21v104c57 0 104 47 104 105h104c11 0 21 9 21 20s-10 21-21 21h-104v125h104z m-146-166c0-35-28-63-62-63h-375c-35 0-63 28-63 63v375c0 34 28 62 63 62h375c34 0 62-28 62-62v-375z m-167 333c-34 0-62-28-62-63s28-62 62-62c35 0 63 28 63 62 0 35-28 63-63 63z m0-83c-11 0-21 9-21 20s10 21 21 21c12 0 21-9 21-21 0-11-9-20-21-20z m0-84c-34 0-62-28-62-62s28-63 62-63c35 0 63 28 63 63 0 34-28 62-63 62z m0-83c-11 0-21 9-21 21s10 21 21 21c12-1 21-10 21-21 0-12-9-21-21-21z" horiz-adv-x="1000" />

<glyph glyph-name="circuit" unicode="&#xe80f;" d="M417 329c-35 0-63-28-63-62s28-63 63-63c34 0 62 28 62 63 0 34-28 62-62 62z m0-83c-12 0-21 9-21 21s9 21 21 21c11-1 20-10 20-21 1-12-9-21-20-21z m0 250c-35 0-63-28-63-63s28-62 63-62c34 0 62 28 62 62 0 35-28 63-62 63z m0-83c-12 0-21 9-21 20s9 21 21 21c11 0 20-9 20-21 1-11-9-20-20-20z m479-84c11 0 21 9 21 21s-10 21-21 21h-104v125h104c11 0 21 9 21 21s-10 21-21 21h-104c0 57-47 104-104 104v104c0 11-10 21-21 21s-21-10-21-21v-104h-125v104c0 11-9 21-21 21s-21-10-21-21v-104h-125v104c0 11-9 21-21 21s-20-10-20-21v-104c-58 0-105-47-105-104h-104c-11 0-21-10-21-21s10-21 21-21h104v-125h-104c-11 0-21-9-21-21s10-21 21-21h104v-125h-104c-11 0-21-9-21-21s10-20 21-20h104c0-58 47-105 105-105v-104c0-11 9-21 20-21h0c12 0 21 10 21 21v104h125v-104c0-11 9-21 21-21h0c12 0 21 10 21 21v104h125v-104c0-11 9-21 21-21h0c11 0 21 10 21 21v104c57 0 104 47 104 105h104c11 0 21 9 21 20s-10 21-21 21h-104v125h104z m-146-166c0-35-28-63-62-63h-375c-35 0-63 28-63 63v375c0 34 28 62 63 62h375c34 0 62-28 62-62v-375z m-167 333c-34 0-62-28-62-63s28-62 62-62c35 0 63 28 63 62 0 35-28 63-63 63z m0-83c-11 0-21 9-21 20s10 21 21 21c12 0 21-9 21-21 0-11-9-20-21-20z m0-84c-34 0-62-28-62-62s28-63 62-63c35 0 63 28 63 63 0 34-28 62-63 62z m0-83c-11 0-21 9-21 21s10 21 21 21c12-1 21-10 21-21 0-12-9-21-21-21z" horiz-adv-x="1000" />

<glyph glyph-name="clock-five" unicode="&#xe810;" d="M521 355v203c0 12-9 21-21 21s-21-9-21-21v-208c0-3 1-7 3-10l62-116c4-7 11-11 19-11 3 0 6 0 9 2 0 0 0 0 0 0 10 5 14 18 9 28l-60 112z m-21 412c-230 0-417-187-417-417s187-417 417-417c230 1 416 187 417 417 0 230-187 417-417 417z m0-792c-207 0-375 168-375 375s168 375 375 375c207 0 375-168 375-375 0-207-168-375-375-375z" horiz-adv-x="1000" />

<glyph glyph-name="clock-five" unicode="&#xe810;" d="M521 355v203c0 12-9 21-21 21s-21-9-21-21v-208c0-3 1-7 3-10l62-116c4-7 11-11 19-11 3 0 6 0 9 2 0 0 0 0 0 0 10 5 14 18 9 28l-60 112z m-21 412c-230 0-417-187-417-417s187-417 417-417c230 1 416 187 417 417 0 230-187 417-417 417z m0-792c-207 0-375 168-375 375s168 375 375 375c207 0 375-168 375-375 0-207-168-375-375-375z" horiz-adv-x="1000" />

<glyph glyph-name="stethoscope-alt" unicode="&#xe811;" d="M813 517c-59 0-105-46-105-104 0-50 38-92 84-100v-109c0-125-104-229-229-229-125 0-230 104-230 229v75l138 108c46 38 71 88 71 146v213c0 0 0 0 0 0 0 12-9 21-21 21h-84c-12 0-20-9-20-21s8-21 21-21h62v-192c0-45-21-87-54-112l-133-104-134 104c-33 29-54 71-54 112v192h63c12 0 20 8 20 21s-8 21-20 21h-84c0 0 0 0 0 0-12 0-21-9-21-21v-213c0-58 25-112 71-145l138-109v-75c0-150 120-271 271-271 150 0 270 121 270 271v109c46 8 84 50 84 100 0 58-46 104-104 104z m0-167c-34 0-63 29-63 63s29 62 63 62c33 0 62-29 62-62 0-34-29-63-62-63z" horiz-adv-x="1000" />

<glyph glyph-name="stethoscope-alt" unicode="&#xe811;" d="M813 517c-59 0-105-46-105-104 0-50 38-92 84-100v-109c0-125-104-229-229-229-125 0-230 104-230 229v75l138 108c46 38 71 88 71 146v213c0 0 0 0 0 0 0 12-9 21-21 21h-84c-12 0-20-9-20-21s8-21 21-21h62v-192c0-45-21-87-54-112l-133-104-134 104c-33 29-54 71-54 112v192h63c12 0 20 8 20 21s-8 21-20 21h-84c0 0 0 0 0 0-12 0-21-9-21-21v-213c0-58 25-112 71-145l138-109v-75c0-150 120-271 271-271 150 0 270 121 270 271v109c46 8 84 50 84 100 0 58-46 104-104 104z m0-167c-34 0-63 29-63 63s29 62 63 62c33 0 62-29 62-62 0-34-29-63-62-63z" horiz-adv-x="1000" />

<glyph glyph-name="window-grid" unicode="&#xe812;" d="M896 767h-792c-11 0-21-10-21-21v-792c0-11 10-21 21-21h792c11 0 21 10 21 21v792c0 11-10 21-21 21z m-542-792h-229v750h229v-750z m521 0h-479v354h479v-354z m0 396h-479v354h479v-354z" horiz-adv-x="1000" />

<glyph glyph-name="window-grid" unicode="&#xe812;" d="M896 767h-792c-11 0-21-10-21-21v-792c0-11 10-21 21-21h792c11 0 21 10 21 21v792c0 11-10 21-21 21z m-542-792h-229v750h229v-750z m521 0h-479v354h479v-354z m0 396h-479v354h479v-354z" horiz-adv-x="1000" />

<glyph glyph-name="store-slash" unicode="&#xe813;" d="M325 683h454l75-191c0-54-46-100-104-100-58 0-104 46-104 104 0 12-8 21-21 21s-21-9-21-21c0-21-8-42-16-58-5-5-5-9-5-13 0-12 9-21 21-21 9 0 13 4 17 9 4 4 4 4 4 8 25-42 71-71 125-71 12 0 29 4 42 8v-141c0 0 0 0 0 0 0-13 8-21 20-21 0 0 0 0 0 0 13 0 21 8 21 21v162c38 25 63 71 63 121 0 0 0 0 0 0 0 0 0 0 0 0 0 0 0 4 0 4 0 0 0 0 0 4l0 0c0 0 0 0 0 0l-84 209c-4 4-12 8-20 8h-467c-12 0-25-8-25-21s13-21 25-21z m629-754l-125 125c0 0 0 0 0 0l-208 209c0 0 0 0 0 0l-542 541c-8 4-21 4-29 0-8-8-8-25-4-33l121-117-63-150c0-4 0-4 0-8 0 0 0 0 0 0 0 0 0 0 0 0 0-50 25-92 63-121v-421c0 0 0 0 0 0 0-12 8-21 21-21h416 0 209c0 0 0 0 0 0 12 0 20 9 20 21v34l88-88c4-4 8-4 17-4 4 0 12 4 16 4 4 4 4 21 0 29z m-808 563l50 129 154-154c-13-42-54-75-100-75-58 0-104 46-104 100z m250-225c-13 0-21-9-21-21v-271h-167v383c13-4 30-8 42-8 54 0 100 29 125 71 21-33 54-58 92-67l87-87h-158c0 0 0 0 0 0z m187-292h-166v250h166v-250z m209 0h-167v221l167-167v-54z" horiz-adv-x="1000" />

<glyph glyph-name="store-slash" unicode="&#xe813;" d="M325 683h454l75-191c0-54-46-100-104-100-58 0-104 46-104 104 0 12-8 21-21 21s-21-9-21-21c0-21-8-42-16-58-5-5-5-9-5-13 0-12 9-21 21-21 9 0 13 4 17 9 4 4 4 4 4 8 25-42 71-71 125-71 12 0 29 4 42 8v-141c0 0 0 0 0 0 0-13 8-21 20-21 0 0 0 0 0 0 13 0 21 8 21 21v162c38 25 63 71 63 121 0 0 0 0 0 0 0 0 0 0 0 0 0 0 0 4 0 4 0 0 0 0 0 4l0 0c0 0 0 0 0 0l-84 209c-4 4-12 8-20 8h-467c-12 0-25-8-25-21s13-21 25-21z m629-754l-125 125c0 0 0 0 0 0l-208 209c0 0 0 0 0 0l-542 541c-8 4-21 4-29 0-8-8-8-25-4-33l121-117-63-150c0-4 0-4 0-8 0 0 0 0 0 0 0 0 0 0 0 0 0-50 25-92 63-121v-421c0 0 0 0 0 0 0-12 8-21 21-21h416 0 209c0 0 0 0 0 0 12 0 20 9 20 21v34l88-88c4-4 8-4 17-4 4 0 12 4 16 4 4 4 4 21 0 29z m-808 563l50 129 154-154c-13-42-54-75-100-75-58 0-104 46-104 100z m250-225c-13 0-21-9-21-21v-271h-167v383c13-4 30-8 42-8 54 0 100 29 125 71 21-33 54-58 92-67l87-87h-158c0 0 0 0 0 0z m187-292h-166v250h166v-250z m209 0h-167v221l167-167v-54z" horiz-adv-x="1000" />

<glyph glyph-name="social-distancing" unicode="&#xe814;" d="M375 121h-200l67 67c8 8 8 20 0 29-9 8-21 8-29 0l-105-104c0 0-4-5-4-9 0-4 0-4 0-8 0 0 0 0 0 0v0c0-4 0-4 0-9s4-4 4-8l105-104c4 4 12 0 16 0 4 0 13 4 17 4 8 8 8 21 0 29l-67 67h196c13 0 21 8 21 21s-8 25-21 25z m517-4l-105 104c-8 8-20 8-29 0-8-9-8-21 0-29l67-67h-200c-12 0-21-8-21-21s9-21 21-21h200l-67-66c-4-4-4-9-4-17 0-13 9-21 21-21 4 0 13 4 17 4l104 104c0 0 4 5 4 9 0 4 0 4 0 8 0 0 0 0 0 0 0 4 0 4 0 9-8 0-8 0-8 4z m-563 321c34 25 59 62 59 108-5 75-63 137-138 137s-133-62-133-133c0-46 21-83 58-108-79-34-133-109-133-196 0-13 8-21 21-21s20 8 20 21c0 92 75 167 167 167s167-75 167-167v0c0-13 8-21 20-21h0c13 0 21 8 21 21 0 87-54 162-129 192z m-79 16c-50 0-92 42-92 92s42 96 92 96c50 0 92-42 92-92 0-54-42-96-92-96z m579-16c33 25 58 62 58 108-4 75-62 137-137 137s-133-62-133-133c0-46 21-83 58-108-75-29-129-104-129-192 0-12 8-21 21-21s21 9 21 21c0 92 75 167 166 167s167-75 167-167v0c0-12 8-21 21-21h0c12 0 21 9 21 21-5 83-59 158-134 188z m-79 16c-50 0-92 42-92 92s42 96 92 96c50 0 92-42 92-92 0-54-42-96-92-96z" horiz-adv-x="1000" />

<glyph glyph-name="social-distancing" unicode="&#xe814;" d="M375 121h-200l67 67c8 8 8 20 0 29-9 8-21 8-29 0l-105-104c0 0-4-5-4-9 0-4 0-4 0-8 0 0 0 0 0 0v0c0-4 0-4 0-9s4-4 4-8l105-104c4 4 12 0 16 0 4 0 13 4 17 4 8 8 8 21 0 29l-67 67h196c13 0 21 8 21 21s-8 25-21 25z m517-4l-105 104c-8 8-20 8-29 0-8-9-8-21 0-29l67-67h-200c-12 0-21-8-21-21s9-21 21-21h200l-67-66c-4-4-4-9-4-17 0-13 9-21 21-21 4 0 13 4 17 4l104 104c0 0 4 5 4 9 0 4 0 4 0 8 0 0 0 0 0 0 0 4 0 4 0 9-8 0-8 0-8 4z m-563 321c34 25 59 62 59 108-5 75-63 137-138 137s-133-62-133-133c0-46 21-83 58-108-79-34-133-109-133-196 0-13 8-21 21-21s20 8 20 21c0 92 75 167 167 167s167-75 167-167v0c0-13 8-21 20-21h0c13 0 21 8 21 21 0 87-54 162-129 192z m-79 16c-50 0-92 42-92 92s42 96 92 96c50 0 92-42 92-92 0-54-42-96-92-96z m579-16c33 25 58 62 58 108-4 75-62 137-137 137s-133-62-133-133c0-46 21-83 58-108-75-29-129-104-129-192 0-12 8-21 21-21s21 9 21 21c0 92 75 167 166 167s167-75 167-167v0c0-12 8-21 21-21h0c12 0 21 9 21 21-5 83-59 158-134 188z m-79 16c-50 0-92 42-92 92s42 96 92 96c50 0 92-42 92-92 0-54-42-96-92-96z" horiz-adv-x="1000" />

<glyph glyph-name="clinic-medical" unicode="&#xe815;" d="M479 350v-62h-62c-13 0-21-9-21-21s8-21 21-21h62v-63c0-12 8-20 21-20h0c12 0 21 8 21 20v63h62c13 0 21 8 21 21s-8 21-21 21h-62v62c0 13-9 21-21 21s-21-8-21-21z m429 58l-395 350c-9 9-21 9-30 0l-395-350c-9-8-9-20 0-29 8-8 20-8 29 0l50 42v-467c0-12 8-21 21-21h625c12 0 20 9 20 21v467l50-42c5-4 9-4 13-4v0c4 0 12 4 17 8 8 5 4 21-5 25z m-116-433h-584v483l292 259 292-259v-483z" horiz-adv-x="1000" />

<glyph glyph-name="clinic-medical" unicode="&#xe815;" d="M479 350v-62h-62c-13 0-21-9-21-21s8-21 21-21h62v-63c0-12 8-20 21-20h0c12 0 21 8 21 20v63h62c13 0 21 8 21 21s-8 21-21 21h-62v62c0 13-9 21-21 21s-21-8-21-21z m429 58l-395 350c-9 9-21 9-30 0l-395-350c-9-8-9-20 0-29 8-8 20-8 29 0l50 42v-467c0-12 8-21 21-21h625c12 0 20 9 20 21v467l50-42c5-4 9-4 13-4v0c4 0 12 4 17 8 8 5 4 21-5 25z m-116-433h-584v483l292 259 292-259v-483z" horiz-adv-x="1000" />

<glyph glyph-name="clock-seven" unicode="&#xe816;" d="M500 579c-12 0-21-9-21-21v-203l-60-112c0 0 0 0 0 0-5-10-1-23 9-28 3-2 6-2 10-2 7 0 14 4 18 11l62 116c2 3 3 7 3 10v208c0 12-9 21-21 21z m0 188c-230 0-417-187-417-417s187-417 417-417c230 1 416 187 417 417 0 230-187 417-417 417z m0-792c-207 0-375 168-375 375s168 375 375 375c207 0 375-168 375-375 0-207-168-375-375-375z" horiz-adv-x="1000" />

<glyph glyph-name="clock-seven" unicode="&#xe816;" d="M500 579c-12 0-21-9-21-21v-203l-60-112c0 0 0 0 0 0-5-10-1-23 9-28 3-2 6-2 10-2 7 0 14 4 18 11l62 116c2 3 3 7 3 10v208c0 12-9 21-21 21z m0 188c-230 0-417-187-417-417s187-417 417-417c230 1 416 187 417 417 0 230-187 417-417 417z m0-792c-207 0-375 168-375 375s168 375 375 375c207 0 375-168 375-375 0-207-168-375-375-375z" horiz-adv-x="1000" />

<glyph glyph-name="sanitizer-alt" unicode="&#xe817;" d="M604 183h-125c-12 0-21-8-21-20s9-21 21-21h125c13 0 21 8 21 21s-8 20-21 20z m75 334h-12v146c0 0 0 0 0 0 0 12-9 20-21 20h-84v84h42c13 0 21 8 21 21s-8 20-21 20h-200c-67 0-125-37-154-95-4-9 0-21 13-25 0-5 4-5 8-5 8 0 17 5 17 13 25 42 70 71 116 71h117v-84h-84c0 0 0 0 0 0-12 0-20-8-20-20v-146h-13c-62 0-112-50-112-113v-400c0-62 50-112 112-112h275c63 0 113 50 113 112v400c0 63-50 113-113 113z m-221 125h84 0 83v-125h-167v125z m292-638c0-37-33-71-71-71h-275c-37 0-71 34-71 71v400c0 38 34 71 71 71h33 209 0 33c38 0 71-33 71-71v-400z" horiz-adv-x="1000" />

<glyph glyph-name="sanitizer-alt" unicode="&#xe817;" d="M604 183h-125c-12 0-21-8-21-20s9-21 21-21h125c13 0 21 8 21 21s-8 20-21 20z m75 334h-12v146c0 0 0 0 0 0 0 12-9 20-21 20h-84v84h42c13 0 21 8 21 21s-8 20-21 20h-200c-67 0-125-37-154-95-4-9 0-21 13-25 0-5 4-5 8-5 8 0 17 5 17 13 25 42 70 71 116 71h117v-84h-84c0 0 0 0 0 0-12 0-20-8-20-20v-146h-13c-62 0-112-50-112-113v-400c0-62 50-112 112-112h275c63 0 113 50 113 112v400c0 63-50 113-113 113z m-221 125h84 0 83v-125h-167v125z m292-638c0-37-33-71-71-71h-275c-37 0-71 34-71 71v400c0 38 34 71 71 71h33 209 0 33c38 0 71-33 71-71v-400z" horiz-adv-x="1000" />

<glyph glyph-name="head-side" unicode="&#xe818;" d="M854 458c0 167-133 305-300 309-171 4-312-134-316-300l-92-188c0-4 0-4 0-8 0-13 8-21 21-21h83v-108c0-46 38-84 83-84h42v-104c0 0 0 0 0 0 0-12 8-21 21-21 0 0 0 0 0 0 12 0 21 9 21 21v104h20c13 0 21 9 21 21s-8 21-20 21h-105c-25 0-41 17-41 42v125c0 0 0 0 0 0 0 12-9 21-21 21h-71l79 162c0 4 4 4 0 8 0 146 117 267 263 267 146 0 266-117 271-262l-88-330c0-4 0-8 0-12l46-175c4-9 12-17 21-17 0 0 4 0 4 0 12 4 17 13 17 25l-42 171 87 325c-4 4-4 8-4 8z" horiz-adv-x="1000" />

<glyph glyph-name="head-side" unicode="&#xe818;" d="M854 458c0 167-133 305-300 309-171 4-312-134-316-300l-92-188c0-4 0-4 0-8 0-13 8-21 21-21h83v-108c0-46 38-84 83-84h42v-104c0 0 0 0 0 0 0-12 8-21 21-21 0 0 0 0 0 0 12 0 21 9 21 21v104h20c13 0 21 9 21 21s-8 21-20 21h-105c-25 0-41 17-41 42v125c0 0 0 0 0 0 0 12-9 21-21 21h-71l79 162c0 4 4 4 0 8 0 146 117 267 263 267 146 0 266-117 271-262l-88-330c0-4 0-8 0-12l46-175c4-9 12-17 21-17 0 0 4 0 4 0 12 4 17 13 17 25l-42 171 87 325c-4 4-4 8-4 8z" horiz-adv-x="1000" />

<glyph glyph-name="shield-question" unicode="&#xe819;" d="M525 513c-56 15-113-19-127-74-3-12 4-23 15-26s22 4 25 15c6 21 21 37 41 44 33 11 68-7 79-40 11-32-7-68-39-79-26-9-42-33-41-60v-26c0-12 9-21 21-21h0c11 0 20 9 20 21v26c0 9 5 17 13 21 33 11 59 38 67 72 15 56-19 113-74 127z m-26-304c-15 0-27-11-27-26s12-26 27-26c14 0 26 12 26 26s-12 26-26 26z m334 485c-2 11-14 18-25 16-103-22-210 0-296 60-7 5-17 5-24 0-86-60-193-82-296-60-2 0-3 0-4 0-12 0-21-9-21-21v-334c0-122 59-237 158-308l163-117c3-3 8-4 12-4 4 0 9 1 12 4l163 117c99 71 158 186 158 308v334c0 2 0 3 0 5z m-41-339c0-109-53-211-141-275l-151-108-151 108c-88 64-141 166-141 275v309c102-15 206 8 292 64 86-56 190-79 292-64v-309z" horiz-adv-x="1000" />

<glyph glyph-name="shield-question" unicode="&#xe819;" d="M525 513c-56 15-113-19-127-74-3-12 4-23 15-26s22 4 25 15c6 21 21 37 41 44 33 11 68-7 79-40 11-32-7-68-39-79-26-9-42-33-41-60v-26c0-12 9-21 21-21h0c11 0 20 9 20 21v26c0 9 5 17 13 21 33 11 59 38 67 72 15 56-19 113-74 127z m-26-304c-15 0-27-11-27-26s12-26 27-26c14 0 26 12 26 26s-12 26-26 26z m334 485c-2 11-14 18-25 16-103-22-210 0-296 60-7 5-17 5-24 0-86-60-193-82-296-60-2 0-3 0-4 0-12 0-21-9-21-21v-334c0-122 59-237 158-308l163-117c3-3 8-4 12-4 4 0 9 1 12 4l163 117c99 71 158 186 158 308v334c0 2 0 3 0 5z m-41-339c0-109-53-211-141-275l-151-108-151 108c-88 64-141 166-141 275v309c102-15 206 8 292 64 86-56 190-79 292-64v-309z" horiz-adv-x="1000" />

<glyph glyph-name="columns" unicode="&#xe81a;" d="M896 767h-792c0 0 0 0 0 0-11 0-21-10-21-21v-792c0 0 0 0 0 0 0-11 10-21 21-21h792c0 0 0 0 0 0 11 0 21 10 21 21v792c0 0 0 0 0 0 0 11-10 21-21 21z m-417-792h-354v750h354v-750z m396 0h-354v750h354v-750z" horiz-adv-x="1000" />

<glyph glyph-name="columns" unicode="&#xe81a;" d="M896 767h-792c0 0 0 0 0 0-11 0-21-10-21-21v-792c0 0 0 0 0 0 0-11 10-21 21-21h792c0 0 0 0 0 0 11 0 21 10 21 21v792c0 0 0 0 0 0 0 11-10 21-21 21z m-417-792h-354v750h354v-750z m396 0h-354v750h354v-750z" horiz-adv-x="1000" />

<glyph glyph-name="hospital-symbol" unicode="&#xe81b;" d="M625 538c-12 0-21-9-21-21v-146h-208v146c0 12-8 21-21 21s-21-9-21-21v-334c0-12 8-20 21-20h0c12 0 21 8 21 20v146h208v-146c0-12 8-20 21-20h0c12 0 21 8 21 20v334c0 12-8 21-21 21z m-125 229c-229 0-417-188-417-417s188-417 417-417c229 0 417 188 417 417 0 229-188 417-417 417z m0-792c-208 0-375 167-375 375s167 375 375 375c208 0 375-167 375-375 0-208-167-375-375-375z" horiz-adv-x="1000" />

<glyph glyph-name="hospital-symbol" unicode="&#xe81b;" d="M625 538c-12 0-21-9-21-21v-146h-208v146c0 12-8 21-21 21s-21-9-21-21v-334c0-12 8-20 21-20h0c12 0 21 8 21 20v146h208v-146c0-12 8-20 21-20h0c12 0 21 8 21 20v334c0 12-8 21-21 21z m-125 229c-229 0-417-188-417-417s188-417 417-417c229 0 417 188 417 417 0 229-188 417-417 417z m0-792c-208 0-375 167-375 375s167 375 375 375c208 0 375-167 375-375 0-208-167-375-375-375z" horiz-adv-x="1000" />

<glyph glyph-name="polygon" unicode="&#xe81c;" d="M914 360l-198 344c-4 7-11 11-18 11h-396c-7 0-14-4-18-11l-198-344c-4-6-4-14 0-20l198-344c4-7 11-11 18-11h396c7 0 14 4 18 11l198 344c4 6 4 14 0 20z m-228-333h-372l-186 323 186 323h372l186-323-186-323z" horiz-adv-x="1000" />

<glyph glyph-name="polygon" unicode="&#xe81c;" d="M914 360l-198 344c-4 7-11 11-18 11h-396c-7 0-14-4-18-11l-198-344c-4-6-4-14 0-20l198-344c4-7 11-11 18-11h396c7 0 14 4 18 11l198 344c4 6 4 14 0 20z m-228-333h-372l-186 323 186 323h372l186-323-186-323z" horiz-adv-x="1000" />

<glyph glyph-name="covid-19" unicode="&#xe81d;" d="M362 654c38 17 75 25 117 29v-104c0-12 8-21 21-21h0c13 0 21 9 21 21v104c75-4 146-33 200-83l-13-12c-4-5-4-9-4-17 0-13 9-21 21-21 4 0 13 4 17 4l8 17c46-54 79-125 83-200h-104c-12 0-21-8-21-21 0-12 9-21 21-21h104c-4-41-12-79-29-116 0 0 0 0 0 0-4-13 0-21 9-30 4 0 4 0 8 0 8 0 17 5 21 13 21 42 29 87 33 133h63c12 0 20 9 20 21 0 13-8 21-20 21h-63c-4 87-42 167-96 229l42 42c0 0 0 0 0 0 8 8 8 21 0 29-8 8-21 8-29 0l-42-42c-62 54-142 92-229 96v63c0 12-8 20-21 20s-21-8-21-20v-63c-46-4-91-12-133-33-13-4-17-17-13-29 9-9 21-13 29-9z m13-366c-33 0-62-30-62-63s29-62 62-62c33 0 63 29 63 62 0 33-30 63-63 63z m0-84c-12 0-21 9-21 21 0 13 9 21 21 21 13 0 21-8 21-21 0-12-8-21-21-21z m-296 600c-8 4-25 4-29 0-8-8-8-25-4-33l175-171c-58-62-92-146-96-229h-62c-13 0-21-8-21-21 0-12 8-21 21-21h62c4-87 42-166 96-229l-42-42c-4-4-4-8-4-16 0-13 8-21 21-21 4 0 12 4 17 4l41 42c63-54 142-92 229-96v-63c0-12 9-21 21-21h0c13 0 21 9 21 21v67c83 4 167 38 229 96l175-175c4-4 9-4 17-4 4 0 12 4 16 4 9 8 9 21 0 29l-883 879z m296-358l58-58c-8-13-20-21-33-21-25 0-42 16-42 41-4 17 4 34 17 38z m146-429v146c0 12-9 20-21 20s-21-8-21-20v-146c-71 4-141 33-200 83l13 13c0 0 0 0 0 0 8 8 8 20 0 29-9 8-21 8-30 0l-12-13c-50 59-79 129-83 200h104c12 0 21 9 21 21 0 13-9 21-21 21h-104c4 71 33 142 83 200l96-96c-21-17-33-37-33-62 0-46 37-84 83-84 25 0 50 13 62 33l259-258c-54-54-125-83-196-87z m42 458c0-33 29-62 62-62 33 0 63 29 63 62 0 33-30 63-63 63s-62-30-62-63z m83 0c0-12-9-21-21-21s-21 9-21 21c0 13 9 21 21 21 13 0 21-8 21-21z" horiz-adv-x="1000" />

<glyph glyph-name="covid-19" unicode="&#xe81d;" d="M362 654c38 17 75 25 117 29v-104c0-12 8-21 21-21h0c13 0 21 9 21 21v104c75-4 146-33 200-83l-13-12c-4-5-4-9-4-17 0-13 9-21 21-21 4 0 13 4 17 4l8 17c46-54 79-125 83-200h-104c-12 0-21-8-21-21 0-12 9-21 21-21h104c-4-41-12-79-29-116 0 0 0 0 0 0-4-13 0-21 9-30 4 0 4 0 8 0 8 0 17 5 21 13 21 42 29 87 33 133h63c12 0 20 9 20 21 0 13-8 21-20 21h-63c-4 87-42 167-96 229l42 42c0 0 0 0 0 0 8 8 8 21 0 29-8 8-21 8-29 0l-42-42c-62 54-142 92-229 96v63c0 12-8 20-21 20s-21-8-21-20v-63c-46-4-91-12-133-33-13-4-17-17-13-29 9-9 21-13 29-9z m13-366c-33 0-62-30-62-63s29-62 62-62c33 0 63 29 63 62 0 33-30 63-63 63z m0-84c-12 0-21 9-21 21 0 13 9 21 21 21 13 0 21-8 21-21 0-12-8-21-21-21z m-296 600c-8 4-25 4-29 0-8-8-8-25-4-33l175-171c-58-62-92-146-96-229h-62c-13 0-21-8-21-21 0-12 8-21 21-21h62c4-87 42-166 96-229l-42-42c-4-4-4-8-4-16 0-13 8-21 21-21 4 0 12 4 17 4l41 42c63-54 142-92 229-96v-63c0-12 9-21 21-21h0c13 0 21 9 21 21v67c83 4 167 38 229 96l175-175c4-4 9-4 17-4 4 0 12 4 16 4 9 8 9 21 0 29l-883 879z m296-358l58-58c-8-13-20-21-33-21-25 0-42 16-42 41-4 17 4 34 17 38z m146-429v146c0 12-9 20-21 20s-21-8-21-20v-146c-71 4-141 33-200 83l13 13c0 0 0 0 0 0 8 8 8 20 0 29-9 8-21 8-30 0l-12-13c-50 59-79 129-83 200h104c12 0 21 9 21 21 0 13-9 21-21 21h-104c4 71 33 142 83 200l96-96c-21-17-33-37-33-62 0-46 37-84 83-84 25 0 50 13 62 33l259-258c-54-54-125-83-196-87z m42 458c0-33 29-62 62-62 33 0 63 29 63 62 0 33-30 63-63 63s-62-30-62-63z m83 0c0-12-9-21-21-21s-21 9-21 21c0 13 9 21 21 21 13 0 21-8 21-21z" horiz-adv-x="1000" />

<glyph glyph-name="pentagon" unicode="&#xe81e;" d="M908 456l-396 288c-7 6-17 6-24 0l-396-288c-7-5-10-15-8-23l152-467c2-9 10-14 19-14h490c9 0 17 5 19 14l152 467c2 8-1 18-8 23z m-179-463h-458l-142 438 371 271 371-271-142-438z" horiz-adv-x="1000" />

<glyph glyph-name="pentagon" unicode="&#xe81e;" d="M908 456l-396 288c-7 6-17 6-24 0l-396-288c-7-5-10-15-8-23l152-467c2-9 10-14 19-14h490c9 0 17 5 19 14l152 467c2 8-1 18-8 23z m-179-463h-458l-142 438 371 271 371-271-142-438z" horiz-adv-x="1000" />

<glyph glyph-name="shield-plus" unicode="&#xe81f;" d="M604 371h-83v83c0 13-8 21-21 21s-21-8-21-21v-83h-83c-13 0-21-8-21-21s8-21 21-21h83v-83c0 0 0 0 0 0 0-13 8-21 21-21 0 0 0 0 0 0 12 0 21 8 21 21v83h83c13 0 21 9 21 21s-8 21-21 21z m229 321c-4 12-12 16-25 16-104-20-208 0-295 63-9 4-17 4-25 0-88-58-192-83-296-63 0 0-4 0-4 0-13 0-21-8-21-20v-334c0-121 58-237 158-308l163-117c4-4 8-4 12-4 4 0 8 0 13 4l162 117c100 71 158 187 158 308v334c0 4 0 4 0 4z m-41-338c0-108-54-212-142-275l-150-108-150 108c-87 63-142 167-142 275v309c100-17 205 8 292 62 88-54 192-79 292-62v-309z" horiz-adv-x="1000" />

<glyph glyph-name="shield-plus" unicode="&#xe81f;" d="M604 371h-83v83c0 13-8 21-21 21s-21-8-21-21v-83h-83c-13 0-21-8-21-21s8-21 21-21h83v-83c0 0 0 0 0 0 0-13 8-21 21-21 0 0 0 0 0 0 12 0 21 8 21 21v83h83c13 0 21 9 21 21s-8 21-21 21z m229 321c-4 12-12 16-25 16-104-20-208 0-295 63-9 4-17 4-25 0-88-58-192-83-296-63 0 0-4 0-4 0-13 0-21-8-21-20v-334c0-121 58-237 158-308l163-117c4-4 8-4 12-4 4 0 8 0 13 4l162 117c100 71 158 187 158 308v334c0 4 0 4 0 4z m-41-338c0-108-54-212-142-275l-150-108-150 108c-87 63-142 167-142 275v309c100-17 205 8 292 62 88-54 192-79 292-62v-309z" horiz-adv-x="1000" />

<glyph glyph-name="web-section" unicode="&#xe820;" d="M896 767h-792c-11 0-21-10-21-21v-792c0-11 10-21 21-21h792c11 0 21 10 21 21v792c0 11-10 21-21 21z m-292-792h-479v750h479v-750z m271 0h-229v750h229v-750z" horiz-adv-x="1000" />

<glyph glyph-name="web-section" unicode="&#xe820;" d="M896 767h-792c-11 0-21-10-21-21v-792c0-11 10-21 21-21h792c11 0 21 10 21 21v792c0 11-10 21-21 21z m-292-792h-479v750h479v-750z m271 0h-229v750h229v-750z" horiz-adv-x="1000" />

<glyph glyph-name="triangle" unicode="&#xe821;" d="M914 16l-396 688c-2 3-4 5-6 6-10 7-23 4-30-6l-396-688c-2-3-3-6-3-10 0-11 10-21 21-21h792c3 0 7 1 10 3 10 6 14 18 8 28z m-774 11l360 625 360-625h-720z" horiz-adv-x="1000" />

<glyph glyph-name="triangle" unicode="&#xe821;" d="M914 16l-396 688c-2 3-4 5-6 6-10 7-23 4-30-6l-396-688c-2-3-3-6-3-10 0-11 10-21 21-21h792c3 0 7 1 10 3 10 6 14 18 8 28z m-774 11l360 625 360-625h-720z" horiz-adv-x="1000" />

<glyph glyph-name="microscope" unicode="&#xe822;" d="M854-67h-271c13 17 21 38 21 63 0 0 0 0 0 4 50 21 100 50 138 92 125 137 121 350-9 483l21 21c4 4 9 4 9 8l29 88c4 8 0 16-4 21l-88 87c-8 8-17 8-25 8l-88-29c-4 0-4-4-8-4l-262-267c0 0 0 0 0 0-9-8-9-20 0-29l16-16-79-71c0 0 0 0 0 0-8-9-8-21 0-29l88-88c8-8 12-8 16-8 4 0 13 0 17 4l75 75 17-17c4-4 8-4 16-4 5 0 13 4 17 4l213 213c33-34 58-75 70-121 50-158-29-325-183-383-21 37-58 62-100 62-46 0-87-29-100-75-50 13-96 38-133 75h45c13 0 21 8 21 21s-8 21-20 21h-167c-13 0-21-9-21-21s8-21 21-21h62c50-58 113-96 188-117 0-21 8-37 21-50h-271c-13 0-21-8-21-21s8-20 21-20h708c13 0 21 8 21 21s-8 20-21 20z m-496 384l-58 58 58 58 59-58-59-58z m334 271c0 0-4 0 0 0-4 0-4 0 0 0l-213-213-121 117 246 246 71 25 71-71-25-71-29-33z m-192-655c-33 0-62 29-62 63s29 62 62 62c33 0 63-29 63-62 0-34-30-63-63-63z" horiz-adv-x="1000" />

<glyph glyph-name="microscope" unicode="&#xe822;" d="M854-67h-271c13 17 21 38 21 63 0 0 0 0 0 4 50 21 100 50 138 92 125 137 121 350-9 483l21 21c4 4 9 4 9 8l29 88c4 8 0 16-4 21l-88 87c-8 8-17 8-25 8l-88-29c-4 0-4-4-8-4l-262-267c0 0 0 0 0 0-9-8-9-20 0-29l16-16-79-71c0 0 0 0 0 0-8-9-8-21 0-29l88-88c8-8 12-8 16-8 4 0 13 0 17 4l75 75 17-17c4-4 8-4 16-4 5 0 13 4 17 4l213 213c33-34 58-75 70-121 50-158-29-325-183-383-21 37-58 62-100 62-46 0-87-29-100-75-50 13-96 38-133 75h45c13 0 21 8 21 21s-8 21-20 21h-167c-13 0-21-9-21-21s8-21 21-21h62c50-58 113-96 188-117 0-21 8-37 21-50h-271c-13 0-21-8-21-21s8-20 21-20h708c13 0 21 8 21 21s-8 20-21 20z m-496 384l-58 58 58 58 59-58-59-58z m334 271c0 0-4 0 0 0-4 0-4 0 0 0l-213-213-121 117 246 246 71 25 71-71-25-71-29-33z m-192-655c-33 0-62 29-62 63s29 62 62 62c33 0 63-29 63-62 0-34-30-63-63-63z" horiz-adv-x="1000" />

<glyph glyph-name="window-maximize" unicode="&#xe823;" d="M896 767h-792c0 0 0 0 0 0-11 0-21-10-21-21v-792c0 0 0 0 0 0 0-11 10-21 21-21h792c0 0 0 0 0 0 11 0 21 10 21 21v792c0 0 0 0 0 0 0 11-10 21-21 21z m-21-792h-750v479h750v-479z m0 521h-750v229h750v-229z" horiz-adv-x="1000" />

<glyph glyph-name="window-maximize" unicode="&#xe823;" d="M896 767h-792c0 0 0 0 0 0-11 0-21-10-21-21v-792c0 0 0 0 0 0 0-11 10-21 21-21h792c0 0 0 0 0 0 11 0 21 10 21 21v792c0 0 0 0 0 0 0 11-10 21-21 21z m-21-792h-750v479h750v-479z m0 521h-750v229h750v-229z" horiz-adv-x="1000" />

<glyph glyph-name="modem" unicode="&#xe824;" d="M708 79c35 0 63 28 63 63 0 34-28 62-63 62s-62-28-62-62 28-63 62-63z m0 84c12-1 21-10 21-21 0-12-9-21-21-21s-21 9-21 21 10 21 21 21z m208 127c0 2 0 3-1 4 0 1-1 3-2 4 0 1-1 2-2 3-1 1-2 2-3 3-1 0-1 1-2 2l-649 375c-10 5-23 2-28-8s-3-23 7-29l582-336h-672c0 0 0 0 0 0-12 0-21-9-21-20v-209c0-57 47-104 104-104h583c58 0 105 47 105 104v209c0 0 0 0 0 0 0 0-1 1-1 2z m-41-211c0-34-28-62-62-62h-584c-34 0-62 28-62 62v188h708v-188z" horiz-adv-x="1000" />

<glyph glyph-name="modem" unicode="&#xe824;" d="M708 79c35 0 63 28 63 63 0 34-28 62-63 62s-62-28-62-62 28-63 62-63z m0 84c12-1 21-10 21-21 0-12-9-21-21-21s-21 9-21 21 10 21 21 21z m208 127c0 2 0 3-1 4 0 1-1 3-2 4 0 1-1 2-2 3-1 1-2 2-3 3-1 0-1 1-2 2l-649 375c-10 5-23 2-28-8s-3-23 7-29l582-336h-672c0 0 0 0 0 0-12 0-21-9-21-20v-209c0-57 47-104 104-104h583c58 0 105 47 105 104v209c0 0 0 0 0 0 0 0-1 1-1 2z m-41-211c0-34-28-62-62-62h-584c-34 0-62 28-62 62v188h708v-188z" horiz-adv-x="1000" />

<glyph glyph-name="window-section" unicode="&#xe825;" d="M896 767h-792c0 0 0 0 0 0-11 0-21-10-21-21v-792c0 0 0 0 0 0 0-11 10-21 21-21h792c0 0 0 0 0 0 11 0 21 10 21 21v792c0 0 0 0 0 0 0 11-10 21-21 21z m-542-792h-229v479h229v-479z m250 0h-208v479h208v-479z m271 0h-229v479h229v-479z m0 521h-750v229h750v-229z" horiz-adv-x="1000" />

<glyph glyph-name="window-section" unicode="&#xe825;" d="M896 767h-792c0 0 0 0 0 0-11 0-21-10-21-21v-792c0 0 0 0 0 0 0-11 10-21 21-21h792c0 0 0 0 0 0 11 0 21 10 21 21v792c0 0 0 0 0 0 0 11-10 21-21 21z m-542-792h-229v479h229v-479z m250 0h-208v479h208v-479z m271 0h-229v479h229v-479z m0 521h-750v229h750v-229z" horiz-adv-x="1000" />

<glyph glyph-name="grid" unicode="&#xe826;" d="M896 767h-792c0 0 0 0 0 0-11 0-21-10-21-21v-792c0 0 0 0 0 0 0-11 10-21 21-21h792c0 0 0 0 0 0 11 0 21 10 21 21v792c0 0 0 0 0 0 0 11-10 21-21 21z m-417-792h-354v229h354v-229z m0 271h-354v208h354v-208z m396-271h-354v229h354v-229z m0 271h-354v208h354v-208z m0 250h-750v229h750v-229z" horiz-adv-x="1000" />

<glyph glyph-name="grid" unicode="&#xe826;" d="M896 767h-792c0 0 0 0 0 0-11 0-21-10-21-21v-792c0 0 0 0 0 0 0-11 10-21 21-21h792c0 0 0 0 0 0 11 0 21 10 21 21v792c0 0 0 0 0 0 0 11-10 21-21 21z m-417-792h-354v229h354v-229z m0 271h-354v208h354v-208z m396-271h-354v229h354v-229z m0 271h-354v208h354v-208z m0 250h-750v229h750v-229z" horiz-adv-x="1000" />

<glyph glyph-name="hospital-square-sign" unicode="&#xe827;" d="M646 600c-13 0-21-8-21-21v-208h-250v208c0 13-8 21-21 21s-21-8-21-21v-458c0-13 9-21 21-21h0c13 0 21 8 21 21v208h250v-208c0-13 8-21 21-21h0c12 0 21 8 21 21v458c0 13-9 21-21 21z m167 167h-625c-59 0-105-46-105-104v-625c0-59 46-105 105-105h625c58 0 104 46 104 105v625c0 58-46 104-104 104z m62-729c0-34-29-63-62-63h-625c-34 0-63 29-63 63v625c0 33 29 62 63 62h625c33 0 62-29 62-62v-625z" horiz-adv-x="1000" />

<glyph glyph-name="hospital-square-sign" unicode="&#xe827;" d="M646 600c-13 0-21-8-21-21v-208h-250v208c0 13-8 21-21 21s-21-8-21-21v-458c0-13 9-21 21-21h0c13 0 21 8 21 21v208h250v-208c0-13 8-21 21-21h0c12 0 21 8 21 21v458c0 13-9 21-21 21z m167 167h-625c-59 0-105-46-105-104v-625c0-59 46-105 105-105h625c58 0 104 46 104 105v625c0 58-46 104-104 104z m62-729c0-34-29-63-62-63h-625c-34 0-63 29-63 63v625c0 33 29 62 63 62h625c33 0 62-29 62-62v-625z" horiz-adv-x="1000" />

<glyph glyph-name="hospital" unicode="&#xe828;" d="M521 142h-42c-12 0-21-9-21-21s9-21 21-21h42c12 0 21 8 21 21s-9 21-21 21z m-208 166h-42c-13 0-21-8-21-20s8-21 21-21h42c12 0 20 8 20 21s-8 20-20 20z m208 0h-42c-12 0-21-8-21-20s9-21 21-21h42c12 0 21 8 21 21s-9 20-21 20z m-208-166h-42c-13 0-21-9-21-21s8-21 21-21h42c12 0 20 8 20 21s-8 21-20 21z m250 396h-42v41c0 13-8 21-21 21s-21-8-21-21v-41h-41c-13 0-21-9-21-21s8-21 20-21h42v-42c0-12 8-21 21-21h0c12 0 21 9 21 21v42h41c13 0 21 8 21 21s-8 21-20 21z m333 20h-146v188c0 12-8 21-21 21h-458c-13 0-21-9-21-21v-188h-146c-12 0-21-8-21-20v-584c0-12 9-21 21-21h792c12 0 21 9 21 21v584c0 12-9 20-21 20z m-21-583h-750v542h146c12 0 21 8 21 21v187h416v-187c0-13 9-21 21-21h146v-542z m-146 167h-41c-13 0-21-9-21-21s8-21 21-21h41c13 0 21 8 21 21s-8 21-21 21z m-41 166c-13 0-21-8-21-20s8-21 21-21h41c13 0 21 8 21 21s-8 20-21 20h-41z" horiz-adv-x="1000" />

<glyph glyph-name="hospital" unicode="&#xe828;" d="M521 142h-42c-12 0-21-9-21-21s9-21 21-21h42c12 0 21 8 21 21s-9 21-21 21z m-208 166h-42c-13 0-21-8-21-20s8-21 21-21h42c12 0 20 8 20 21s-8 20-20 20z m208 0h-42c-12 0-21-8-21-20s9-21 21-21h42c12 0 21 8 21 21s-9 20-21 20z m-208-166h-42c-13 0-21-9-21-21s8-21 21-21h42c12 0 20 8 20 21s-8 21-20 21z m250 396h-42v41c0 13-8 21-21 21s-21-8-21-21v-41h-41c-13 0-21-9-21-21s8-21 20-21h42v-42c0-12 8-21 21-21h0c12 0 21 9 21 21v42h41c13 0 21 8 21 21s-8 21-20 21z m333 20h-146v188c0 12-8 21-21 21h-458c-13 0-21-9-21-21v-188h-146c-12 0-21-8-21-20v-584c0-12 9-21 21-21h792c12 0 21 9 21 21v584c0 12-9 20-21 20z m-21-583h-750v542h146c12 0 21 8 21 21v187h416v-187c0-13 9-21 21-21h146v-542z m-146 167h-41c-13 0-21-9-21-21s8-21 21-21h41c13 0 21 8 21 21s-8 21-21 21z m-41 166c-13 0-21-8-21-20s8-21 21-21h41c13 0 21 8 21 21s-8 20-21 20h-41z" horiz-adv-x="1000" />

<glyph glyph-name="star" unicode="&#xe829;" d="M916 436c2 12-6 22-17 24l-263 38-117 239c-2 3-5 6-8 7-10 7-24 3-30-7l-117-239-263-38c-4-1-9-3-12-6-8-8-8-22 1-30l190-186-45-262c-1-5 0-9 2-13 5-10 18-14 28-9l235 124 235-124c3-2 6-2 10-2 1 0 2 0 3 0 11 2 19 13 17 24l-45 262 190 186c4 3 6 8 6 12z m-233-175c-5-5-7-12-6-19l40-231-207 109c-3 1-7 2-10 2-3 0-7-1-10-2l-207-109 40 231c1 7-1 14-6 19l-168 164 232 33c6 1 12 6 15 12l104 210 104-210c3-6 9-11 15-12l232-33-168-164z" horiz-adv-x="1000" />

<glyph glyph-name="star" unicode="&#xe829;" d="M916 436c2 12-6 22-17 24l-263 38-117 239c-2 3-5 6-8 7-10 7-24 3-30-7l-117-239-263-38c-4-1-9-3-12-6-8-8-8-22 1-30l190-186-45-262c-1-5 0-9 2-13 5-10 18-14 28-9l235 124 235-124c3-2 6-2 10-2 1 0 2 0 3 0 11 2 19 13 17 24l-45 262 190 186c4 3 6 8 6 12z m-233-175c-5-5-7-12-6-19l40-231-207 109c-3 1-7 2-10 2-3 0-7-1-10-2l-207-109 40 231c1 7-1 14-6 19l-168 164 232 33c6 1 12 6 15 12l104 210 104-210c3-6 9-11 15-12l232-33-168-164z" horiz-adv-x="1000" />

<glyph glyph-name="web-section-alt" unicode="&#xe82a;" d="M896 767h-792c0 0 0 0 0 0-11 0-21-10-21-21v-792c0 0 0 0 0 0 0-11 10-21 21-21h792c0 0 0 0 0 0 11 0 21 10 21 21v792c0 0 0 0 0 0 0 11-10 21-21 21z m-542-792h-229v750h229v-750z m521 0h-479v750h479v-750z" horiz-adv-x="1000" />

<glyph glyph-name="web-section-alt" unicode="&#xe82a;" d="M896 767h-792c0 0 0 0 0 0-11 0-21-10-21-21v-792c0 0 0 0 0 0 0-11 10-21 21-21h792c0 0 0 0 0 0 11 0 21 10 21 21v792c0 0 0 0 0 0 0 11-10 21-21 21z m-542-792h-229v750h229v-750z m521 0h-479v750h479v-750z" horiz-adv-x="1000" />

<glyph glyph-name="clock-ten" unicode="&#xe82b;" d="M500 579c-12 0-21-9-21-21v-172l-77 45c-10 5-23 2-28-8s-3-23 7-29l109-62c3-2 6-3 10-3 11 0 21 10 21 21v208c0 12-9 21-21 21z m0 188c-230 0-417-187-417-417s187-417 417-417c230 1 416 187 417 417 0 230-187 417-417 417z m0-792c-207 0-375 168-375 375s168 375 375 375c207 0 375-168 375-375 0-207-168-375-375-375z" horiz-adv-x="1000" />

<glyph glyph-name="clock-ten" unicode="&#xe82b;" d="M500 579c-12 0-21-9-21-21v-172l-77 45c-10 5-23 2-28-8s-3-23 7-29l109-62c3-2 6-3 10-3 11 0 21 10 21 21v208c0 12-9 21-21 21z m0 188c-230 0-417-187-417-417s187-417 417-417c230 1 416 187 417 417 0 230-187 417-417 417z m0-792c-207 0-375 168-375 375s168 375 375 375c207 0 375-168 375-375 0-207-168-375-375-375z" horiz-adv-x="1000" />

<glyph glyph-name="toilet-paper" unicode="&#xe82c;" d="M933-33l-25 33c-46 54-71 125-71 200v338c0 125-104 229-229 229h-354c0 0-4 0-4 0-117 0-208-113-208-250 0-138 91-250 208-250 0 0 0 0 0 0h167v-67c0-83 29-162 83-225l25-33c4-4 8-9 17-9h375c4 0 8 0 12 4 9 9 13 21 4 30z m-516 341h-55c21 17 38 38 55 59v-59z m-167 0c-92 0-167 92-167 209 0 112 75 208 167 208 0 0 0 0 0 0h4c88 0 163-96 163-208 0-117-75-209-167-209z m300-333l-21 25c-46 54-71 125-71 200v317c0 0 0 0 0 0 0 87-37 162-91 204h237c104 4 188-79 188-183v-338c0-83 29-162 79-225h-321z m-300 617c-38-4-67-38-62-75-5-38 24-71 62-71 38 0 67 33 63 71 4 37-25 71-63 75z m0-104c-12 0-21 12-21 29s9 33 21 33 21-17 21-33-8-29-21-29z" horiz-adv-x="1000" />

<glyph glyph-name="toilet-paper" unicode="&#xe82c;" d="M933-33l-25 33c-46 54-71 125-71 200v338c0 125-104 229-229 229h-354c0 0-4 0-4 0-117 0-208-113-208-250 0-138 91-250 208-250 0 0 0 0 0 0h167v-67c0-83 29-162 83-225l25-33c4-4 8-9 17-9h375c4 0 8 0 12 4 9 9 13 21 4 30z m-516 341h-55c21 17 38 38 55 59v-59z m-167 0c-92 0-167 92-167 209 0 112 75 208 167 208 0 0 0 0 0 0h4c88 0 163-96 163-208 0-117-75-209-167-209z m300-333l-21 25c-46 54-71 125-71 200v317c0 0 0 0 0 0 0 87-37 162-91 204h237c104 4 188-79 188-183v-338c0-83 29-162 79-225h-321z m-300 617c-38-4-67-38-62-75-5-38 24-71 62-71 38 0 67 33 63 71 4 37-25 71-63 75z m0-104c-12 0-21 12-21 29s9 33 21 33 21-17 21-33-8-29-21-29z" horiz-adv-x="1000" />

<glyph glyph-name="comment-dots" unicode="&#xe82d;" d="M500 381c-17 0-31-14-31-31s14-31 31-31 31 14 31 31-14 31-31 31z m-125 0c-17 0-31-14-31-31s14-31 31-31 31 14 31 31-14 31-31 31z m250 0c-17 0-31-14-31-31s14-31 31-31 31 14 31 31-14 31-31 31z m184 249c-154 170-418 183-589 29-170-154-183-418-29-589l-102-101c-3-4-6-9-6-15 0-11 10-21 21-21h396c103 0 203 39 280 108 170 154 183 418 29 589z m-309-655h-346l81 80c0 0 0 0 0 0 8 9 8 22 0 30-70 70-110 165-110 265 0 207 168 375 375 375 207 0 375-168 375-375 0-207-168-375-375-375z" horiz-adv-x="1000" />

<glyph glyph-name="comment-dots" unicode="&#xe82d;" d="M500 381c-17 0-31-14-31-31s14-31 31-31 31 14 31 31-14 31-31 31z m-125 0c-17 0-31-14-31-31s14-31 31-31 31 14 31 31-14 31-31 31z m250 0c-17 0-31-14-31-31s14-31 31-31 31 14 31 31-14 31-31 31z m184 249c-154 170-418 183-589 29-170-154-183-418-29-589l-102-101c-3-4-6-9-6-15 0-11 10-21 21-21h396c103 0 203 39 280 108 170 154 183 418 29 589z m-309-655h-346l81 80c0 0 0 0 0 0 8 9 8 22 0 30-70 70-110 165-110 265 0 207 168 375 375 375 207 0 375-168 375-375 0-207-168-375-375-375z" horiz-adv-x="1000" />

<glyph glyph-name="stethoscope" unicode="&#xe82e;" d="M813 517c-59 0-105-46-105-104 0-50 38-92 84-100v-109c0-125-104-229-229-229-125 0-230 104-230 229v21c117 13 209 108 209 229v292c0 12-9 21-21 21h-84c-12 0-20-9-20-21s8-21 21-21h62v-271c0-104-83-187-187-187s-188 83-188 187v271h63c12 0 20 8 20 21s-8 21-20 21h-84c-12 0-21-9-21-21v-292c0-121 92-216 209-229v-21c0-150 120-271 271-271 150 0 270 121 270 271v109c46 8 84 50 84 100 0 58-46 104-104 104z m0-167c-34 0-63 29-63 63s29 62 63 62c33 0 62-29 62-62 0-34-29-63-62-63z" horiz-adv-x="1000" />

<glyph glyph-name="stethoscope" unicode="&#xe82e;" d="M813 517c-59 0-105-46-105-104 0-50 38-92 84-100v-109c0-125-104-229-229-229-125 0-230 104-230 229v21c117 13 209 108 209 229v292c0 12-9 21-21 21h-84c-12 0-20-9-20-21s8-21 21-21h62v-271c0-104-83-187-187-187s-188 83-188 187v271h63c12 0 20 8 20 21s-8 21-20 21h-84c-12 0-21-9-21-21v-292c0-121 92-216 209-229v-21c0-150 120-271 271-271 150 0 270 121 270 271v109c46 8 84 50 84 100 0 58-46 104-104 104z m0-167c-34 0-63 29-63 63s29 62 63 62c33 0 62-29 62-62 0-34-29-63-62-63z" horiz-adv-x="1000" />

<glyph glyph-name="web-grid" unicode="&#xe82f;" d="M896 767h-792c-11 0-21-10-21-21v-792c0-11 10-21 21-21h792c11 0 21 10 21 21v792c0 11-10 21-21 21z m-292-792h-479v354h479v-354z m0 396h-479v354h479v-354z m271-396h-229v750h229v-750z" horiz-adv-x="1000" />

<glyph glyph-name="web-grid" unicode="&#xe82f;" d="M896 767h-792c-11 0-21-10-21-21v-792c0-11 10-21 21-21h792c11 0 21 10 21 21v792c0 11-10 21-21 21z m-292-792h-479v354h479v-354z m0 396h-479v354h479v-354z m271-396h-229v750h229v-750z" horiz-adv-x="1000" />

<glyph glyph-name="head-side-cough" unicode="&#xe830;" d="M208 0c-12 0-25-12-25-25s13-25 25-25 25 13 25 25-12 25-25 25z m750 475c0 158-129 288-287 292-158 4-292-125-296-288l-87-183c0-4 0-4 0-8 0-13 8-21 20-21h67v-84c0-46 38-83 83-83h42v-104c0-13 8-21 21-21h0c12 0 21 8 21 21v104h21c12 0 20 8 20 21s-8 21-20 21h-105c-25 0-41 16-41 41v105c0 12-9 20-21 20h-54l75 159c0 4 0 4 0 8 0 138 108 250 246 250 137 0 250-108 254-246l-84-308c0-4 0-8 0-8l42-167c4-8 12-17 21-17 0 0 4 0 4 0 12 4 17 13 17 25l-42 163 83 308c0-4 0 0 0 0z m-875-350c-12 0-25-12-25-25s13-25 25-25 25 13 25 25-12 25-25 25z m167 42c-12 0-25-13-25-25s13-25 25-25 25 12 25 25-12 25-25 25z" horiz-adv-x="1000" />

<glyph glyph-name="head-side-cough" unicode="&#xe830;" d="M208 0c-12 0-25-12-25-25s13-25 25-25 25 13 25 25-12 25-25 25z m750 475c0 158-129 288-287 292-158 4-292-125-296-288l-87-183c0-4 0-4 0-8 0-13 8-21 20-21h67v-84c0-46 38-83 83-83h42v-104c0-13 8-21 21-21h0c12 0 21 8 21 21v104h21c12 0 20 8 20 21s-8 21-20 21h-105c-25 0-41 16-41 41v105c0 12-9 20-21 20h-54l75 159c0 4 0 4 0 8 0 138 108 250 246 250 137 0 250-108 254-246l-84-308c0-4 0-8 0-8l42-167c4-8 12-17 21-17 0 0 4 0 4 0 12 4 17 13 17 25l-42 163 83 308c0-4 0 0 0 0z m-875-350c-12 0-25-12-25-25s13-25 25-25 25 13 25 25-12 25-25 25z m167 42c-12 0-25-13-25-25s13-25 25-25 25 12 25 25-12 25-25 25z" horiz-adv-x="1000" />

<glyph glyph-name="house-user" unicode="&#xe831;" d="M908 408l-83 75c0 0 0 0 0 0l-313 280c-8 8-20 8-29 0l-308-280c0 0 0 0 0 0l-83-75c0 0 0 0 0 0-9-8-9-20 0-29 8-8 21-8 29 0l46 42v-467c0 0 0 0 0 0 0-12 12-21 21-21h620c0 0 0 0 0 0 13 0 21 9 21 21v467l50-46c4-4 9-4 13-4v0c4 0 12 4 16 8 13 9 9 21 0 29z m-571-433c17 67 75 117 142 125 84 8 159-46 179-125h-321z m59 271c0 58 46 104 104 104 58 0 104-46 104-104 0-58-46-104-104-104s-104 46-104 104z m396-271h-88c-12 67-58 125-121 150 38 25 67 71 67 121 0 79-67 146-146 146s-146-67-146-146c0-50 25-96 67-121-67-25-112-79-129-150h-88v483l292 259 292-259v-483z" horiz-adv-x="1000" />

<glyph glyph-name="house-user" unicode="&#xe831;" d="M908 408l-83 75c0 0 0 0 0 0l-313 280c-8 8-20 8-29 0l-308-280c0 0 0 0 0 0l-83-75c0 0 0 0 0 0-9-8-9-20 0-29 8-8 21-8 29 0l46 42v-467c0 0 0 0 0 0 0-12 12-21 21-21h620c0 0 0 0 0 0 13 0 21 9 21 21v467l50-46c4-4 9-4 13-4v0c4 0 12 4 16 8 13 9 9 21 0 29z m-571-433c17 67 75 117 142 125 84 8 159-46 179-125h-321z m59 271c0 58 46 104 104 104 58 0 104-46 104-104 0-58-46-104-104-104s-104 46-104 104z m396-271h-88c-12 67-58 125-121 150 38 25 67 71 67 121 0 79-67 146-146 146s-146-67-146-146c0-50 25-96 67-121-67-25-112-79-129-150h-88v483l292 259 292-259v-483z" horiz-adv-x="1000" />

<glyph glyph-name="shield-slash" unicode="&#xe832;" d="M345 667c55 9 108 30 155 61 86-56 190-78 292-64v-309c0-38-7-76-20-112-1-2-1-5-1-7v-1c0-11 9-20 21-20 9 0 17 6 19 14 15 41 22 83 22 126v334c0 2 0 3 0 4-2 12-13 19-25 17-103-21-210 1-296 60-7 5-17 5-24 0-45-31-96-53-150-62 0 0 0 0 0 0-11-2-19-13-17-24 2-11 13-19 24-17z m566-698l-792 792c-8 7-21 7-29 0-8-8-9-22-1-30l78-77v-299c0-122 59-237 158-308l163-117c3-3 8-4 12-4 4 0 9 1 12 4l163 117c19 13 36 29 52 46l154-154c4-3 9-6 15-6 5 0 11 3 15 6 8 9 8 22 0 30z m-260 112l-151-109-151 109c-88 63-141 165-141 274v257l490-489c-15-16-30-30-47-42z" horiz-adv-x="1000" />

<glyph glyph-name="shield-slash" unicode="&#xe832;" d="M345 667c55 9 108 30 155 61 86-56 190-78 292-64v-309c0-38-7-76-20-112-1-2-1-5-1-7v-1c0-11 9-20 21-20 9 0 17 6 19 14 15 41 22 83 22 126v334c0 2 0 3 0 4-2 12-13 19-25 17-103-21-210 1-296 60-7 5-17 5-24 0-45-31-96-53-150-62 0 0 0 0 0 0-11-2-19-13-17-24 2-11 13-19 24-17z m566-698l-792 792c-8 7-21 7-29 0-8-8-9-22-1-30l78-77v-299c0-122 59-237 158-308l163-117c3-3 8-4 12-4 4 0 9 1 12 4l163 117c19 13 36 29 52 46l154-154c4-3 9-6 15-6 5 0 11 3 15 6 8 9 8 22 0 30z m-260 112l-151-109-151 109c-88 63-141 165-141 274v257l490-489c-15-16-30-30-47-42z" horiz-adv-x="1000" />

<glyph glyph-name="sanitizer" unicode="&#xe833;" d="M521 329c-59 0-104-46-104-104s45-104 104-104c58 0 104 46 104 104 0 58-46 104-104 104z m0-166c-34 0-63 29-63 62s29 63 63 63c33 0 62-30 62-63 0-33-29-62-62-62z m212 387l-108 83v92h63c12 0 20 8 20 21s-8 21-20 21h-367c-38 0-75-17-100-42l-50-46c0-4-4-12-4-16 0-13 8-21 21-21 4 0 12 4 16 4l46 50c17 17 46 29 71 29h96v-92l-109-83c-37-29-58-71-58-117v-479c0-12 8-21 21-21h500c12 0 21 9 21 21v479c0 46-21 88-59 117z m-275 175h125v-83h-125v83z m292-750h-458v458c0 34 16 63 41 84l113 83h154l108-83c25-21 42-50 42-84v-458z" horiz-adv-x="1000" />

<glyph glyph-name="sanitizer" unicode="&#xe833;" d="M521 329c-59 0-104-46-104-104s45-104 104-104c58 0 104 46 104 104 0 58-46 104-104 104z m0-166c-34 0-63 29-63 62s29 63 63 63c33 0 62-30 62-63 0-33-29-62-62-62z m212 387l-108 83v92h63c12 0 20 8 20 21s-8 21-20 21h-367c-38 0-75-17-100-42l-50-46c0-4-4-12-4-16 0-13 8-21 21-21 4 0 12 4 16 4l46 50c17 17 46 29 71 29h96v-92l-109-83c-37-29-58-71-58-117v-479c0-12 8-21 21-21h500c12 0 21 9 21 21v479c0 46-21 88-59 117z m-275 175h125v-83h-125v83z m292-750h-458v458c0 34 16 63 41 84l113 83h154l108-83c25-21 42-50 42-84v-458z" horiz-adv-x="1000" />

<glyph glyph-name="snapchat-alt" unicode="&#xe834;" d="M163 383c0 0 0 0 0 0 12-4 20 5 25 17 4 4 12 8 16 8 17-8 34-16 50-16 13 0 29 4 38 16 4 5 8 9 8 17l0 25c-8 50-4 104 8 158 34 71 105 117 184 117l16 0c80 0 150-46 184-117 12-54 16-108 8-162l0-21c0-4 4-12 8-17 9-8 25-16 38-16 17 0 33 8 46 16 4 0 8 0 12 0 4-4 9-4 9-4 0-12 8-21 20-21l0 0h0c13 0 21 9 21 21-4 21-16 38-37 42-13 8-29 8-46 0-8-4-21-8-29-13l0 0 0 13c8 58 4 121-13 179-37 88-125 146-221 142l-16 0c-96 0-184-54-221-142-17-58-21-121-13-179l0-13c-12 0-25 5-37 13-4 0-13 4-17 4-25 0-50-17-58-37 0-13 4-25 17-30z m749-225c-58 13-108 50-137 100 0 0 0 0 0 0-8 9-21 13-29 4-9-8-13-20-4-29 33-54 83-91 146-112-25-9-50-17-80-21-20-4-25-25-29-42l0-8c0 0 0-4 0-4-4 0-4 0-8 0-29 8-58 8-88 4-25-4-50-17-70-38-30-25-63-37-100-41h-13c-37 0-71 16-100 41-21 17-46 30-71 38-29 4-58 4-87-4 0 0-4 0-9 0l0 4 0 8c-4 17-8 38-29 42-25 4-54 8-79 21 46 12 92 41 121 79 8 12 17 21 25 33 4 9 4 21-8 29-9 5-21 5-30-8-4-8-12-21-20-29-30-38-71-63-117-71-17-4-25-17-25-29 0-4 0-8 4-13 8-16 25-37 113-50 0-4 4-8 4-12l0-8c0-5 4-9 4-13 4-17 17-25 33-25 9 0 13 0 21 4 25 4 50 4 75 0 21-4 38-16 54-29 29-29 71-46 121-46h8c46 0 88 17 125 50 17 13 34 25 54 30 25 4 50 4 75-5 9 0 17-4 21-4 17 0 29 9 34 25 0 4 4 9 4 13l0 8c0 4 0 8 4 13 87 16 108 37 112 50 0 4 5 4 5 8 0 17-13 33-30 37z" horiz-adv-x="1000" />

<glyph glyph-name="snapchat-alt" unicode="&#xe834;" d="M163 383c0 0 0 0 0 0 12-4 20 5 25 17 4 4 12 8 16 8 17-8 34-16 50-16 13 0 29 4 38 16 4 5 8 9 8 17l0 25c-8 50-4 104 8 158 34 71 105 117 184 117l16 0c80 0 150-46 184-117 12-54 16-108 8-162l0-21c0-4 4-12 8-17 9-8 25-16 38-16 17 0 33 8 46 16 4 0 8 0 12 0 4-4 9-4 9-4 0-12 8-21 20-21l0 0h0c13 0 21 9 21 21-4 21-16 38-37 42-13 8-29 8-46 0-8-4-21-8-29-13l0 0 0 13c8 58 4 121-13 179-37 88-125 146-221 142l-16 0c-96 0-184-54-221-142-17-58-21-121-13-179l0-13c-12 0-25 5-37 13-4 0-13 4-17 4-25 0-50-17-58-37 0-13 4-25 17-30z m749-225c-58 13-108 50-137 100 0 0 0 0 0 0-8 9-21 13-29 4-9-8-13-20-4-29 33-54 83-91 146-112-25-9-50-17-80-21-20-4-25-25-29-42l0-8c0 0 0-4 0-4-4 0-4 0-8 0-29 8-58 8-88 4-25-4-50-17-70-38-30-25-63-37-100-41h-13c-37 0-71 16-100 41-21 17-46 30-71 38-29 4-58 4-87-4 0 0-4 0-9 0l0 4 0 8c-4 17-8 38-29 42-25 4-54 8-79 21 46 12 92 41 121 79 8 12 17 21 25 33 4 9 4 21-8 29-9 5-21 5-30-8-4-8-12-21-20-29-30-38-71-63-117-71-17-4-25-17-25-29 0-4 0-8 4-13 8-16 25-37 113-50 0-4 4-8 4-12l0-8c0-5 4-9 4-13 4-17 17-25 33-25 9 0 13 0 21 4 25 4 50 4 75 0 21-4 38-16 54-29 29-29 71-46 121-46h8c46 0 88 17 125 50 17 13 34 25 54 30 25 4 50 4 75-5 9 0 17-4 21-4 17 0 29 9 34 25 0 4 4 9 4 13l0 8c0 4 0 8 4 13 87 16 108 37 112 50 0 4 5 4 5 8 0 17-13 33-30 37z" horiz-adv-x="1000" />

<glyph glyph-name="arrow-circle-down" unicode="&#xe835;" d="M673 365l-152-152v325c0 11-9 20-21 20s-21-9-21-20v-325l-152 152c-8 8-21 8-29 0-8-8-8-21 0-30l187-187c2-2 4-4 7-5 2-1 5-1 8-1h0c0 0 1 0 1 0 3 0 5 0 7 1 3 1 5 3 7 5l187 187c8 8 8 21 0 29-8 8-21 9-29 1z m-173 402c-230 0-417-187-417-417s187-417 417-417c230 1 416 187 417 417 0 230-187 417-417 417z m0-792c-207 0-375 168-375 375s168 375 375 375c207 0 375-168 375-375 0-207-168-375-375-375z" horiz-adv-x="1000" />

<glyph glyph-name="arrow-circle-down" unicode="&#xe835;" d="M673 365l-152-152v325c0 11-9 20-21 20s-21-9-21-20v-325l-152 152c-8 8-21 8-29 0-8-8-8-21 0-30l187-187c2-2 4-4 7-5 2-1 5-1 8-1h0c0 0 1 0 1 0 3 0 5 0 7 1 3 1 5 3 7 5l187 187c8 8 8 21 0 29-8 8-21 9-29 1z m-173 402c-230 0-417-187-417-417s187-417 417-417c230 1 416 187 417 417 0 230-187 417-417 417z m0-792c-207 0-375 168-375 375s168 375 375 375c207 0 375-168 375-375 0-207-168-375-375-375z" horiz-adv-x="1000" />

<glyph glyph-name="paypal" unicode="&#xe836;" d="M819 534c-8 9-18 17-29 24 10 51-4 105-39 145-39 44-108 66-203 66h-245c-28 0-51-20-55-47l-103-650c-3-22 12-44 35-48 2 0 4 0 7 0h127l-7-43c-3-21 11-41 33-45 2 0 4 0 6 0h127c26 0 47 18 51 43l26 159 1 9c1 5 5 9 10 9h19c151 0 242 71 269 213 17 57 6 118-30 165z m-490-414l-9-55-134 1 103 650c1 7 7 12 14 11h245c83 0 141-17 171-52 30-34 40-81 29-125l0 0 0 0c-1-4-2-9-3-13l0 0c-27-140-113-208-264-208h-72c-27 0-51-20-55-47l-25-162z m479 257c-23-121-98-180-228-180h-19c-25 1-47-18-51-43l-25-161-2-7c-1-5-5-9-10-9l-125-2 25 160 23 141 0 0 0 0c1 7 6 12 13 12h72c165 0 267 75 302 224 1-2 3-4 5-6 27-37 34-85 20-129z" horiz-adv-x="1000" />

<glyph glyph-name="paypal" unicode="&#xe836;" d="M819 534c-8 9-18 17-29 24 10 51-4 105-39 145-39 44-108 66-203 66h-245c-28 0-51-20-55-47l-103-650c-3-22 12-44 35-48 2 0 4 0 7 0h127l-7-43c-3-21 11-41 33-45 2 0 4 0 6 0h127c26 0 47 18 51 43l26 159 1 9c1 5 5 9 10 9h19c151 0 242 71 269 213 17 57 6 118-30 165z m-490-414l-9-55-134 1 103 650c1 7 7 12 14 11h245c83 0 141-17 171-52 30-34 40-81 29-125l0 0 0 0c-1-4-2-9-3-13l0 0c-27-140-113-208-264-208h-72c-27 0-51-20-55-47l-25-162z m479 257c-23-121-98-180-228-180h-19c-25 1-47-18-51-43l-25-161-2-7c-1-5-5-9-10-9l-125-2 25 160 23 141 0 0 0 0c1 7 6 12 13 12h72c165 0 267 75 302 224 1-2 3-4 5-6 27-37 34-85 20-129z" horiz-adv-x="1000" />

<glyph glyph-name="corner-down-right" unicode="&#xe837;" d="M790 170c-1 3-3 5-4 7l-188 188c-8 8-21 8-29 0-8-8-8-21 0-30l152-152h-367c-57 0-104 47-104 105v416c0 12-9 21-21 21s-21-9-21-21v-416c0-81 66-146 146-146h367l-152-152c-4-4-6-9-6-15 0-12 9-21 20-21 6 0 11 2 15 6l188 188c1 2 3 4 4 7 1 2 2 5 2 7 0 0 0 0 0 1 0 2-1 5-2 7z" horiz-adv-x="1000" />

<glyph glyph-name="corner-down-right" unicode="&#xe837;" d="M790 170c-1 3-3 5-4 7l-188 188c-8 8-21 8-29 0-8-8-8-21 0-30l152-152h-367c-57 0-104 47-104 105v416c0 12-9 21-21 21s-21-9-21-21v-416c0-81 66-146 146-146h367l-152-152c-4-4-6-9-6-15 0-12 9-21 20-21 6 0 11 2 15 6l188 188c1 2 3 4 4 7 1 2 2 5 2 7 0 0 0 0 0 1 0 2-1 5-2 7z" horiz-adv-x="1000" />

<glyph glyph-name="twitter-alt" unicode="&#xe838;" d="M938 700c0 12-10 21-21 21-4 0-8-1-11-3-29-17-61-30-94-38-37 35-85 54-135 54-109 0-197-88-197-197 0-5 0-11 1-17-126 14-242 76-322 174-7 9-20 11-29 3-2-1-4-3-5-5-17-31-27-65-26-99-1-39 10-76 31-108-1 0-1 1-2 1-7 4-15 3-21-1-6-4-10-11-10-19 0-5 0-10 1-15 4-55 31-107 75-141-3-1-7-3-9-6-5-5-7-13-5-20 20-61 68-108 129-127-61-35-132-49-202-40-12 1-22-7-23-19-1-7 2-15 9-20 84-54 181-82 281-82 232-3 437 151 499 375 14 47 22 97 22 146 0 5 0 10 0 16 43 44 67 105 64 167z m-101-147c-4-4-6-9-5-14 0-8 0-15 0-22 0-45-7-91-20-134-55-207-245-350-459-345-64-1-127 12-185 37 69 8 134 34 188 77 9 7 11 21 4 30-4 5-10 7-16 8-54 0-104 30-131 77 17 0 35 2 52 7 11 3 17 15 14 26-2 7-8 13-16 14-61 13-109 60-121 121 18-6 36-9 55-9 9-1 18 5 20 14 3 9 0 19-8 24-43 28-69 77-69 129 0 17 3 34 8 50 93-100 221-159 356-166 7-1 13 2 17 7 5 5 6 12 5 18-3 12-4 23-5 35 1 86 70 155 156 155 43 1 84-17 113-49 5-5 12-7 19-6 29 6 58 15 85 28-7-42-27-81-57-112z" horiz-adv-x="1000" />

<glyph glyph-name="twitter-alt" unicode="&#xe838;" d="M938 700c0 12-10 21-21 21-4 0-8-1-11-3-29-17-61-30-94-38-37 35-85 54-135 54-109 0-197-88-197-197 0-5 0-11 1-17-126 14-242 76-322 174-7 9-20 11-29 3-2-1-4-3-5-5-17-31-27-65-26-99-1-39 10-76 31-108-1 0-1 1-2 1-7 4-15 3-21-1-6-4-10-11-10-19 0-5 0-10 1-15 4-55 31-107 75-141-3-1-7-3-9-6-5-5-7-13-5-20 20-61 68-108 129-127-61-35-132-49-202-40-12 1-22-7-23-19-1-7 2-15 9-20 84-54 181-82 281-82 232-3 437 151 499 375 14 47 22 97 22 146 0 5 0 10 0 16 43 44 67 105 64 167z m-101-147c-4-4-6-9-5-14 0-8 0-15 0-22 0-45-7-91-20-134-55-207-245-350-459-345-64-1-127 12-185 37 69 8 134 34 188 77 9 7 11 21 4 30-4 5-10 7-16 8-54 0-104 30-131 77 17 0 35 2 52 7 11 3 17 15 14 26-2 7-8 13-16 14-61 13-109 60-121 121 18-6 36-9 55-9 9-1 18 5 20 14 3 9 0 19-8 24-43 28-69 77-69 129 0 17 3 34 8 50 93-100 221-159 356-166 7-1 13 2 17 7 5 5 6 12 5 18-3 12-4 23-5 35 1 86 70 155 156 155 43 1 84-17 113-49 5-5 12-7 19-6 29 6 58 15 85 28-7-42-27-81-57-112z" horiz-adv-x="1000" />

<glyph glyph-name="linkedin-alt" unicode="&#xe839;" d="M313 475c0 0 0 0 0 0h-167c-12 0-21-9-21-21 0 0 0 0 0 0v-500c0-11 9-21 21-21 0 0 0 0 0 0h167c11 0 20 10 20 21 0 0 0 0 0 0v500c0 12-9 21-20 21z m-21-500h-125v458h125v-458z m458 500c-45 0-89-15-125-42v21c0 12-9 21-21 21 0 0 0 0 0 0h-166c-12 0-21-9-21-21 0 0 0 0 0 0v-500c0-11 9-21 20-21 0 0 0 0 1 0h166c12 0 21 10 21 21 0 0 0 0 0 0v229c0 35 28 63 63 63s62-28 62-63v-229c0-11 9-21 21-21 0 0 0 0 0 0h167c11 0 20 10 20 21 0 0 0 0 0 0v313c0 115-93 208-208 208z m167-500h-125v208c0 58-47 104-104 104s-105-46-105-104v-208h-125v458h125v-50c0-9 6-17 14-19 9-3 18-1 23 6 57 72 162 84 234 28 40-32 63-80 63-131v-292z m-673 792c-4 0-9 0-14 0-63 4-118-44-122-106 0-3 0-5 0-8-1-62 49-113 112-114 2 0 5 0 7 0h2c62-4 117 43 121 106s-43 117-106 122z m-1-186c-5-1-10-1-14 0h-2c-39-3-74 27-77 67-3 39 26 74 66 77 5 1 9 0 14 0 40 4 75-26 78-65 4-40-25-75-65-79z" horiz-adv-x="1000" />

<glyph glyph-name="linkedin-alt" unicode="&#xe839;" d="M313 475c0 0 0 0 0 0h-167c-12 0-21-9-21-21 0 0 0 0 0 0v-500c0-11 9-21 21-21 0 0 0 0 0 0h167c11 0 20 10 20 21 0 0 0 0 0 0v500c0 12-9 21-20 21z m-21-500h-125v458h125v-458z m458 500c-45 0-89-15-125-42v21c0 12-9 21-21 21 0 0 0 0 0 0h-166c-12 0-21-9-21-21 0 0 0 0 0 0v-500c0-11 9-21 20-21 0 0 0 0 1 0h166c12 0 21 10 21 21 0 0 0 0 0 0v229c0 35 28 63 63 63s62-28 62-63v-229c0-11 9-21 21-21 0 0 0 0 0 0h167c11 0 20 10 20 21 0 0 0 0 0 0v313c0 115-93 208-208 208z m167-500h-125v208c0 58-47 104-104 104s-105-46-105-104v-208h-125v458h125v-50c0-9 6-17 14-19 9-3 18-1 23 6 57 72 162 84 234 28 40-32 63-80 63-131v-292z m-673 792c-4 0-9 0-14 0-63 4-118-44-122-106 0-3 0-5 0-8-1-62 49-113 112-114 2 0 5 0 7 0h2c62-4 117 43 121 106s-43 117-106 122z m-1-186c-5-1-10-1-14 0h-2c-39-3-74 27-77 67-3 39 26 74 66 77 5 1 9 0 14 0 40 4 75-26 78-65 4-40-25-75-65-79z" horiz-adv-x="1000" />

<glyph glyph-name="skype-alt" unicode="&#xe83a;" d="M619 340l0 0c-15 10-31 17-48 23-11 3-23 6-36 9-11 4-26 7-43 11-22 4-43 11-63 19-14 5-25 13-34 25-8 10-12 23-11 36 0 14 4 27 12 37 10 13 24 22 39 27 21 8 44 11 66 11 18 0 36-3 53-8 12-3 24-9 34-17 8-5 14-12 19-20 5-10 18-14 28-9s14 18 9 29c-8 13-18 24-30 33-14 11-31 19-48 24-21 6-43 9-65 9-27 1-55-4-81-13-23-8-42-22-57-41-14-18-21-39-21-62-1-22 6-44 20-62 13-17 31-30 51-38 17-7 35-12 52-16 1-1 1-1 1-1 8-2 20-5 38-9 7-2 14-3 21-5 1 0 3-1 4-1 0 0 1 0 1 0 10-3 20-6 29-8 13-4 26-10 37-17 9-6 16-14 22-23 5-10 8-22 7-34 1-15-3-30-12-43-11-14-26-25-42-31-23-9-47-13-71-13-27 0-55 5-80 17-14 7-25 17-34 30-7 9-11 21-12 32 0 12-9 21-20 21s-21-9-21-21c0-20 7-39 19-56 13-18 29-33 49-43 31-15 65-22 99-21 30-1 59 4 87 15 24 9 44 25 59 46 15 20 22 44 21 68 1 37-17 71-48 90z m291-64c41 227-109 443-336 484-49 9-99 9-148 0-123 63-273 14-336-109-37-71-37-156 0-227-41-227 109-443 336-484 49-9 99-9 148 0 123-63 273-14 336 109 37 71 37 156 0 227z m-122-296c-31-17-65-26-100-26-36 0-70 9-101 26-3 2-6 3-10 3-1 0-3-1-4-1-24-5-49-7-73-7-207 0-375 168-375 374 0 25 2 50 7 74 1 5 0 10-2 14-55 101-19 227 82 283 63 34 138 34 201 0 4-2 9-3 14-2 203 40 400-92 441-295 5-24 7-48 7-73 0-24-2-49-7-73-1-5 0-10 2-14 55-101 19-228-82-283z" horiz-adv-x="1000" />

<glyph glyph-name="skype-alt" unicode="&#xe83a;" d="M619 340l0 0c-15 10-31 17-48 23-11 3-23 6-36 9-11 4-26 7-43 11-22 4-43 11-63 19-14 5-25 13-34 25-8 10-12 23-11 36 0 14 4 27 12 37 10 13 24 22 39 27 21 8 44 11 66 11 18 0 36-3 53-8 12-3 24-9 34-17 8-5 14-12 19-20 5-10 18-14 28-9s14 18 9 29c-8 13-18 24-30 33-14 11-31 19-48 24-21 6-43 9-65 9-27 1-55-4-81-13-23-8-42-22-57-41-14-18-21-39-21-62-1-22 6-44 20-62 13-17 31-30 51-38 17-7 35-12 52-16 1-1 1-1 1-1 8-2 20-5 38-9 7-2 14-3 21-5 1 0 3-1 4-1 0 0 1 0 1 0 10-3 20-6 29-8 13-4 26-10 37-17 9-6 16-14 22-23 5-10 8-22 7-34 1-15-3-30-12-43-11-14-26-25-42-31-23-9-47-13-71-13-27 0-55 5-80 17-14 7-25 17-34 30-7 9-11 21-12 32 0 12-9 21-20 21s-21-9-21-21c0-20 7-39 19-56 13-18 29-33 49-43 31-15 65-22 99-21 30-1 59 4 87 15 24 9 44 25 59 46 15 20 22 44 21 68 1 37-17 71-48 90z m291-64c41 227-109 443-336 484-49 9-99 9-148 0-123 63-273 14-336-109-37-71-37-156 0-227-41-227 109-443 336-484 49-9 99-9 148 0 123-63 273-14 336 109 37 71 37 156 0 227z m-122-296c-31-17-65-26-100-26-36 0-70 9-101 26-3 2-6 3-10 3-1 0-3-1-4-1-24-5-49-7-73-7-207 0-375 168-375 374 0 25 2 50 7 74 1 5 0 10-2 14-55 101-19 227 82 283 63 34 138 34 201 0 4-2 9-3 14-2 203 40 400-92 441-295 5-24 7-48 7-73 0-24-2-49-7-73-1-5 0-10 2-14 55-101 19-228-82-283z" horiz-adv-x="1000" />

<glyph glyph-name="corner-down-left" unicode="&#xe83b;" d="M771 725c-12 0-21-9-21-21v-416c0-58-47-105-104-105h-367l152 152c8 8 8 21 0 29-8 8-21 9-29 1l-188-188c-1-2-3-4-4-7-1-2-2-5-2-7 0 0 0 0 0 0v-1c0-2 1-5 2-7s3-5 4-7l188-188c4-4 9-6 15-6 5 0 10 2 14 6 9 8 9 22 0 30l-152 152h367c80 0 146 65 146 146v416c0 12-10 21-21 21z" horiz-adv-x="1000" />

<glyph glyph-name="corner-down-left" unicode="&#xe83b;" d="M771 725c-12 0-21-9-21-21v-416c0-58-47-105-104-105h-367l152 152c8 8 8 21 0 29-8 8-21 9-29 1l-188-188c-1-2-3-4-4-7-1-2-2-5-2-7 0 0 0 0 0 0v-1c0-2 1-5 2-7s3-5 4-7l188-188c4-4 9-6 15-6 5 0 10 2 14 6 9 8 9 22 0 30l-152 152h367c80 0 146 65 146 146v416c0 12-10 21-21 21z" horiz-adv-x="1000" />

<glyph glyph-name="facebook-f" unicode="&#xe83c;" d="M750 784c-42 4-85 6-127 6-140 0-227-89-227-233v-97h-118c-11 0-21-10-21-21v-161c0-11 10-21 21-21h118v-321c0-12 9-21 21-21h165c12 0 21 9 21 21v321h118c10 0 19 8 20 19l21 160c1 11-7 22-18 23-1 0-2 1-3 1h-138v81c0 41 8 57 59 57l85 0c11 0 21 10 21 21v144c0 10-8 19-18 21z m-24-144l-64 0c-90 0-100-56-100-99v-102c0-12 9-21 20-21h136l-16-119h-120c-11 0-20-9-20-21v-321h-124v321c0 12-10 21-21 21h-118v119h118c11 0 20 9 20 21v118c0 120 70 191 186 191 42 0 80-2 103-4v-104z" horiz-adv-x="1000" />

<glyph glyph-name="angle-double-right" unicode="&#xe83d;" d="M306 511c-8 7-20 7-29 0-8-8-8-22 0-30l131-131-131-131c-4-4-6-9-6-15 0-11 9-21 21-21 5 0 10 3 14 6l146 146c0 0 0 0 0 0 8 8 8 22 0 30l-146 146z m396-146l-146 146c-8 7-20 7-29 0-8-8-8-22 0-30l131-131-131-131c-4-4-6-9-6-15 0-11 9-21 21-21 5 0 10 3 14 6l146 146c0 0 0 0 0 0 8 8 8 22 0 30z" horiz-adv-x="1000" />

<glyph glyph-name="tumblr-alt" unicode="&#xe83e;" d="M707-11l-40 119c-4 11-16 16-26 13-1 0-2-1-3-1-19-8-38-12-59-13-15-1-30 3-42 13-11 14-17 31-16 49v202h146c12 0 21 9 21 21v162c0 12-9 21-21 21h-146v192c0 11-9 20-21 21h-122c-14-1-25-11-26-25-4-93-64-175-151-208-8-3-13-10-13-19v-149c-1-12 9-21 20-21h64v-210c1-65 27-126 72-172 52-48 122-74 193-72 2 0 4 0 6 1 66 1 141 28 162 57 3 6 4 13 2 19z m-164-35c-63-4-124 17-170 60-37 38-59 89-59 142v231c0 11-10 20-21 20h-64v115c91 40 153 125 162 224h89v-192c0-11 9-20 20-20h146v-121h-146c-12 0-21-10-21-21v-224c-1-29 9-57 29-78 20-18 46-26 73-24 18 1 36 3 53 8l29-86c-36-22-78-33-120-34z" horiz-adv-x="1000" />

<glyph glyph-name="google-play" unicode="&#xe83f;" d="M871 388c-17 8-167 95-167 95l0 0-512 296c-9 9-25 9-38 4 0 0 0 0 0 0 0 0-4 0-4-4-17-4-25-21-25-37v-792c0-13 8-29 17-33 0 0 4 0 4 0 0 0 0 0 0 0 4 0 8-5 12-5 9 0 17 5 25 9 17 8 517 300 517 300l167 96c16 8 25 21 25 37 4 13-4 29-21 34z m-213 75l-83-84-308 313 391-229z m-491-488l0 754 383-379-383-375z m100 42l308 308 83-79c-66-46-266-158-391-229z m583 333l-154-87-88 87 92 88c33-17 125-71 150-88l0 0z" horiz-adv-x="1000" />

<glyph glyph-name="slack-alt" unicode="&#xe840;" d="M883 350c34 21 54 63 54 104 0 71-54 125-125 125-33 0-62-12-83-33v117c0 70-54 125-125 125-42 0-83-21-104-55-21 34-62 55-104 55-71 0-125-55-125-125 0-34 12-63 33-84h-116c-71 0-125-54-125-125 0-41 20-83 54-104-34-21-55-62-55-104 0-71 55-125 126-125 33 0 62 12 83 33v-116c0-71 54-125 125-125 42 0 83 20 104 54 21-34 63-54 104-54 71 0 125 54 125 125 0 33-12 62-33 83h116c71 0 125 54 125 125 1 42-20 83-54 104z m-154 104c0 46 38 84 84 84s83-38 83-84-38-83-83-83h-84v83z m-208 209c0 45 37 83 83 83 46 0 84-38 84-83v-209c0-46-38-83-84-83s-83 37-83 83v209z m-125 83c46 0 83-38 83-83v-84h-83c-46 0-83 38-83 84s37 83 83 83z m-125-500c0-46-38-83-83-83s-84 37-84 83 38 83 84 83h83v-83z m-83 125c-46 0-84 37-84 83s38 84 84 84h208c46 0 83-38 83-84s-37-83-83-83h-208z m291-333c0-46-37-84-83-84s-83 38-83 84v208c0 46 37 83 83 83 46 0 83-37 83-83v-208z m21 279c-8 12-21 25-33 33 12 8 25 21 33 33 8-12 21-25 33-33-12-8-25-21-33-33z m104-363c-46 0-83 38-83 84v83h83c46 0 84-38 84-83s-38-84-84-84z m209 209h-209c-46 0-83 37-83 83s37 83 83 83h209c45 0 83-37 83-83s-38-83-83-83z" horiz-adv-x="1000" />

<glyph glyph-name="blogger-alt" unicode="&#xe841;" d="M583 288h-166c-12 0-21-10-21-21s9-21 21-21h166c12 0 21 9 21 21s-9 21-21 21z m-166 125h41c12 0 21 9 21 20s-9 21-21 21h-41c-12 0-21-9-21-21s9-20 21-20z m250 0c-12 0-21 9-21 20v42c0 81-65 146-146 146h-83c-104 0-188-84-188-188v-166c0-104 84-188 188-188h166c104 0 188 84 188 188v41c0 58-47 104-104 105z m62-146c0-81-65-146-146-146h-166c-81 0-146 65-146 146v166c0 81 65 146 146 146h83c58 0 104-46 104-104v-42c0-34 28-62 63-62s62-28 62-63v-41z m104 541h-666c-69 0-125-56-125-125v-666c0-69 56-125 125-125h666c69 0 125 56 125 125v666c0 69-56 125-125 125z m84-791c0-46-38-84-84-84h-666c-46 0-84 38-84 84v666c0 46 38 84 84 84h666c46 0 84-38 84-84v-666z" horiz-adv-x="1000" />

<glyph glyph-name="apple-alt" unicode="&#xe842;" d="M847 175c-60 25-99 84-99 149 1 58 31 111 80 141 10 6 13 19 7 28 0 1 0 1 0 1-39 55-101 89-168 92-7 1-14 1-21 1 42 50 63 116 58 182-1 11-10 19-21 19-120-11-216-104-232-223-26 12-54 18-83 19-79-2-152-46-190-115-75-129-28-324 53-442 32-46 80-114 146-114 1 0 3 0 4 0 23 1 46 7 67 17 21 11 45 16 69 17 22-1 44-6 64-16 23-11 48-17 73-17 69 1 111 62 145 111 26 38 46 80 60 124 3 11-2 22-12 26z m-303 498c31 36 73 60 120 70-2-48-20-94-52-131-16-20-36-36-58-49l-1 0-5-2c-14-6-28-11-42-13-5 0-10 1-14 2 4 46 22 89 52 123z m220-624c-37-55-66-93-110-94-20 1-39 5-56 14-25 13-53 19-81 19-30 0-59-7-85-19-17-9-34-13-53-15-1 0-1 0-2 0-41 0-76 46-111 97-64 92-122 276-52 397 31 57 90 92 154 94h2c27-2 52-8 76-20 6-2 11-4 17-6 1 0 2-1 3-1 12-5 26-8 40-9 19 2 39 8 57 16 32 16 66 23 101 22 47-1 92-22 124-57-51-39-81-99-81-163-1-75 41-144 107-179-13-34-29-67-50-96z" horiz-adv-x="1000" />

<glyph glyph-name="vuejs-alt" unicode="&#xe843;" d="M956 714c-4 7-11 11-18 11l-208 0-1 0-166 1h0c-8 0-15-4-18-10l-45-75-45 74c-3 6-10 10-17 10l-167 1h0c-2 0-3 0-4-1h-204c-12 0-21-9-21-21 0-4 1-7 3-10l437-750c6-10 19-14 28-8 4 2 6 5 8 8l437 749c4 7 4 15 1 21z m-530-31l56-94c4-6 11-10 18-10h0c7 0 14 4 18 10l56 95 118 0-125-205-67-110-192 315 118-1z m74-687l-401 687h160l223-365c2-2 4-4 6-6 1 0 1-1 2-1 10-5 22-2 28 7l223 365 160 0-401-687z" horiz-adv-x="1000" />

<glyph glyph-name="corner-up-left" unicode="&#xe844;" d="M630 538h-392l193 193c8 8 8 21 0 29-8 8-21 9-29 1l-229-230c0 0 0 0 0 0-8-8-8-21 0-29l229-229c4-4 9-6 15-6 5 0 11 2 14 6 9 8 9 21 0 29l-193 194h392c78 0 141-63 141-141v-401c0-11 9-21 21-21h0c11 0 21 10 21 21v401c-1 101-82 182-183 183z" horiz-adv-x="1000" />

<glyph glyph-name="opera-alt" unicode="&#xe845;" d="M500 621c-129 0-129-196-129-267 0-75 0-275 133-275 134 0 134 200 134 275-9 175-50 267-138 267z m0-500c-62 0-92 75-92 237 0 150 30 221 88 221h0c58 0 92-75 92-225 0-158-25-233-88-233z m0 667c-242 0-408-180-408-434 0-216 154-442 408-442 254 0 408 226 408 442 0 254-166 434-408 434z m0-834c-229 0-367 204-367 400 0 234 146 392 367 392 221 0 367-158 367-392 0-196-138-400-367-400z" horiz-adv-x="1000" />

<glyph glyph-name="github-alt" unicode="&#xe846;" d="M402-19c0 6-3 12-7 16-5 4-11 5-17 4-67-12-151-12-175 56-15 37-39 69-70 94-6 3-12 8-17 13-2 10-10 17-21 17h0c-11 0-20-9-20-20-1-24 29-42 38-47 22-19 39-44 51-71 14-41 59-104 197-87 0-15 0-23 0-29l0-12c0-12 10-21 21-21s21 9 21 21l0 13c0 9-1 21-1 53z m470 651c-2 2-3 4-4 5 3 9 5 18 6 27 7 45 1 91-16 132-3 6-7 10-13 12-6 2-60 17-172-57-94 24-193 24-287 0-112 73-166 59-172 57-6-1-11-6-13-12-18-42-23-88-16-134 1-8 3-16 6-24-2-2-3-4-4-6-36-45-55-100-54-157 0-13 1-26 2-39 14-194 140-248 248-267-7-12-12-26-16-40-2-11 4-22 16-25s22 4 25 15c4 19 13 37 27 50 9 8 10 21 2 30-3 4-8 6-13 7-115 13-234 51-247 234-2 12-2 23-2 35-1 48 15 94 45 132 3 4 6 8 10 12 5 6 7 14 4 21-4 10-7 19-8 29-5 34-2 68 9 100 50-7 97-27 136-58 5-3 11-4 17-3 93 25 190 25 283 0 6-1 12 0 17 3 39 31 86 51 135 58 12-31 15-65 10-98-2-10-5-21-8-31-3-7-2-15 4-21 3-4 7-9 10-13 30-37 46-83 45-131 0-12-1-24-2-36-13-182-133-220-248-233-12-2-20-12-19-23 1-6 4-10 7-14 15-13 24-31 28-51 3-13 5-27 5-42v-102c-1-28-1-49-1-59 0-12 10-21 21-21 12 0 21 9 21 21 0 10 0 30 0 59v102c1 18-1 36-6 53-3 14-8 28-15 40 109 19 235 73 249 266 1 14 2 27 1 40 1 57-18 113-53 157z" horiz-adv-x="1000" />

<glyph glyph-name="gold" unicode="&#xe847;" d="M313 392h375c0 0 4 0 4 0 12 0 21 12 16 25l-41 250c0 8-13 16-21 16h-292c-8 0-21-8-21-16l-41-250c0 0 0-5 0-5 0-12 8-20 21-20z m58 250h258l34-209h-326l34 209z m546-350c0 8-9 16-21 16h-292c-8 0-21-8-21-16l-41-250c0 0 0-4 0-4 0-13 8-21 21-21h375c0 0 4 0 4 0 12 0 21 12 16 25l-41 250z m-329-234l33 209h258l34-209h-325z m-192 250h-292c-8 0-21-8-21-16l-41-250c0 0 0-4 0-4 0-13 8-21 21-21h375c0 0 4 0 4 0 12 0 21 12 16 25l-41 250c0 8-13 16-21 16z m-308-250l33 209h258l33-209h-324z" horiz-adv-x="1000" />

<glyph glyph-name="arrow-up-left" unicode="&#xe848;" d="M328 554h399c13 0 23 11 23 23s-10 23-23 23h-454c0 0 0 0 0 0-13 0-23-10-23-23v-454c0 0 0 0 0 0 0-13 10-23 23-23 0 0 0 0 0 0 12 0 23 10 23 23v399l415-415c4-5 10-7 16-7 6 0 12 3 16 7 9 9 9 23 0 32l-415 415z" horiz-adv-x="1000" />

<glyph glyph-name="direction" unicode="&#xe849;" d="M369 439l131 132 131-132c4-3 9-6 15-6 5 0 11 3 15 6 8 9 8 22 0 30l-146 146c0 0 0 0 0 0-8 8-22 8-30 0l-146-146c-7-8-7-21 0-29 8-8 22-9 30-1z m262-178l-131-132-131 132c-8 7-21 7-29 0-8-8-9-22-1-30l146-146c4-4 9-6 15-6 6 0 11 2 15 6l146 146c7 8 7 21 0 29-8 8-22 9-30 1z" horiz-adv-x="1000" />

<glyph glyph-name="corner-left-down" unicode="&#xe84a;" d="M854 642h-379c-101 0-183-82-183-183v-371l-173 173c-8 7-21 7-29 0-8-8-9-22-1-30l209-208c2-2 4-4 6-5 3-1 6-1 9-1h0c0 0 0 0 1 0 2 0 4 0 7 1 2 1 4 3 6 5l209 208c7 8 7 21 0 29-8 8-22 9-30 1l-173-173v371c0 78 64 141 142 141h379c12 0 21 9 21 21s-9 21-21 21z" horiz-adv-x="1000" />

<glyph glyph-name="intercom-alt" unicode="&#xe84b;" d="M417 246h0c11 0 20 9 20 21v333c0 12-9 21-20 21s-21-9-21-21v-333c0-12 9-21 21-21z m166 0h0c12 0 21 9 21 21v333c0 12-9 21-21 21s-20-9-20-21v-333c-1-12 9-21 20-21z m250 562h-666c-69 0-125-56-125-125v-666c0-69 56-125 125-125h666c69 0 125 56 125 125v666c0 69-56 125-125 125z m84-791c0-46-38-84-84-84h-666c-46 0-84 38-84 84v666c0 46 38 84 84 84h666c46 0 84-38 84-84v-666z m-667 312h0c12 0 21 9 21 21v167c0 11-9 21-21 21s-21-10-21-21v-167c0-12 9-21 21-21z m500 209h0c-12 0-21-10-21-21v-167c0-12 9-21 21-21s21 9 21 21v167c0 11-9 20-21 21z m-13-346c-70-48-153-73-237-71-84-2-167 23-237 71-8 7-22 6-29-3-7-8-6-21 3-29 76-55 169-84 263-81 94-3 187 26 263 81 9 7 10 21 3 29s-21 10-29 3z" horiz-adv-x="1000" />

<glyph glyph-name="google" unicode="&#xe84c;" d="M922 432c-2 10-10 17-20 17h-393c-11 0-21-9-21-21 0 0 0 0 0 0v-161c0-11 10-21 21-21 0 0 0 0 0 0h198c-13-36-37-66-68-87-39-25-84-38-130-37-97 1-183 65-213 158l0 0c-16 47-16 98 0 145l0 0c30 93 116 157 213 158 54 0 106-20 145-57 8-8 21-8 29 0l120 120c8 8 8 21 0 29 0 1-1 1-1 1-79 74-184 115-293 114-165 0-317-93-391-241-62-124-62-269 0-393 74-148 226-241 391-241 107-3 210 35 290 106l0 0c87 84 135 201 131 322 0 30-3 60-8 89z m-413 316c91 1 179-30 249-88l-90-90c-45 36-101 55-159 54-105 0-200-63-242-159l-103 80c69 126 202 204 345 203z m-396-396c0 54 11 106 32 155l107-83c-13-47-13-96 0-143l-107-83c-21 49-32 101-32 154z m396-395c-143-1-276 77-345 203l103 80c42-96 137-159 242-159 49-1 97 11 140 35l5-4 98-76c-69-53-155-81-243-79z m274 107l-99 77c37 32 61 75 70 122 2 12-5 22-17 25-1 0-2 0-4 0h-203v119h354c3-21 4-42 4-64 3-103-34-203-105-279z" horiz-adv-x="1000" />

<glyph glyph-name="download-alt" unicode="&#xe84d;" d="M340 281c-8-8-8-21 0-29l145-146c4-4 9-6 15-6 6 0 11 2 15 6l145 146c8 8 8 21 0 29-8 8-21 8-29 0l-110-110v575c0 11-9 21-21 21s-21-10-21-21v-575l-110 110c-8 8-21 8-29 0z m410 194h-62c-12 0-21-9-21-21s9-21 21-21h62c46 0 83-37 83-83v-292c0-46-37-83-83-83h-500c-46 0-83 37-83 83v292c0 46 37 83 83 83h104c12 0 21 10 21 21s-9 21-21 21h-104c-69 0-125-56-125-125v-292c0-69 56-125 125-125h500c69 0 125 56 125 125v292c0 69-56 125-125 125z" horiz-adv-x="1000" />

<glyph glyph-name="arrow-down-right" unicode="&#xe84e;" d="M727 600c-12 0-23-10-23-23v-399l-415 415c-9 9-23 9-32 0-9-9-9-23 0-32l415-415h-399c-13 0-23-11-23-23 0-13 10-23 23-23h454c0 0 0 0 0 0 13 0 23 10 23 23v454c0 13-10 23-23 23z" horiz-adv-x="1000" />

<glyph glyph-name="arrow-down-left" unicode="&#xe84f;" d="M727 146h-399l415 415c9 9 9 23 0 32-9 9-23 9-32 0l-415-415v399c0 13-11 23-23 23s-23-10-23-23v-454c0 0 0 0 0 0 0-13 10-23 23-23h454c13 0 23 10 23 23 0 12-10 23-23 23z" horiz-adv-x="1000" />

<glyph glyph-name="html3-alt" unicode="&#xe850;" d="M870 760c-4 4-10 7-16 7h-708c-12 0-21-10-21-21 0-1 0-1 0-2l63-708c0-9 6-16 15-19l291-83c2 0 4-1 6-1 2 0 3 1 5 1l292 83c9 3 15 10 15 19l63 708c0 6-2 12-5 16z m-98-706l-272-78-272 78-59 671h662l-59-671z m-440 484h314l-12-125h-217c-12 0-21-10-21-21s9-21 21-21h214l-15-162-116-26-116 26-6 60c-1 11-11 19-22 18-12-1-20-11-19-22l6-75c1-9 8-16 17-18l135-31c3-1 7-1 10 0l135 31c9 2 16 9 17 18l17 200c0 1 1 1 1 2l-1 0 15 165c1 11-7 21-19 22 0 0-1 0-2 0h-336c-12 0-21-9-21-21s9-20 21-20z" horiz-adv-x="1000" />

<glyph glyph-name="angle-double-left" unicode="&#xe851;" d="M342 350l131 131c8 8 8 21 0 29-8 8-21 9-29 1l-146-146c0 0 0 0 0 0-8-8-8-22 0-30l146-146c4-3 9-6 14-6 6 0 11 3 15 6 8 9 8 22 0 30l-131 131z m381-131l-131 131 131 131c8 8 8 21 0 29-8 8-21 9-29 1l-146-146c0 0 0 0 0 0-8-8-8-22 0-30l146-146c4-3 9-6 14-6 6 0 11 3 15 6 8 9 8 22 0 30z" horiz-adv-x="1000" />

<glyph glyph-name="angle-double-down" unicode="&#xe852;" d="M485 398c4-4 9-6 15-6 6 0 11 2 15 6l146 146c7 8 7 20 0 29-8 8-22 8-30 0l-131-131-131 131c-8 8-21 8-29 0-8-8-9-21-1-29l146-146z m146-75l-131-131-131 131c-8 8-21 8-29 0-8-8-9-21-1-29l146-146c4-4 9-6 15-6 6 0 11 2 15 6l146 146c7 8 7 20 0 29-8 8-22 8-30 0z" horiz-adv-x="1000" />

<glyph glyph-name="angle-up" unicode="&#xe853;" d="M702 281l-187 188c0 0 0 0 0 0-8 8-22 8-30 0l-187-188c-8-8-8-20 0-29 8-8 21-8 29 0l173 173 173-173c4-4 9-6 15-6 5 0 10 2 14 6 8 8 8 21 0 29z" horiz-adv-x="1000" />

<glyph glyph-name="arrow-circle-left" unicode="&#xe854;" d="M688 371h-325l152 152c8 8 8 21 0 29-8 8-21 8-30 0l-187-187c-2-2-4-4-5-7-1-3-1-5-1-8 0 0 0 0 0 0v0c0-3 0-5 1-8s3-5 5-7l187-187c4-4 9-6 15-6 6 0 11 2 15 6 8 8 8 21 0 29l-152 152h325c11 0 20 9 20 21s-9 21-20 21z m-188 396c-230 0-417-187-417-417s187-417 417-417c230 1 416 187 417 417 0 230-187 417-417 417z m0-792c-207 0-375 168-375 375s168 375 375 375c207 0 375-168 375-375 0-207-168-375-375-375z" horiz-adv-x="1000" />

<glyph glyph-name="adobe-alt" unicode="&#xe855;" d="M413 757c-4 6-10 10-17 10h-333c-12 0-21-10-21-21v-792c0-10 7-18 16-20 2-1 3-1 5-1 8 0 15 5 19 13l333 792c3 6 2 14-2 19z m-330-700v668h281l-281-668z m855 710h-334c-11 0-21-10-21-21 0-3 1-6 2-8l333-792c4-8 11-13 20-13 1 0 2 0 4 1 9 2 16 10 16 20v792c0 11-9 21-20 21z m-21-710l-281 668h281v-668z m-398 404c-3 9-10 14-19 14h0c-9 0-16-5-19-13l-146-375c-4-11 1-23 12-27 2-1 5-2 7-2h133l57-113c3-7 11-12 19-12h125c11 0 20 10 20 21 0 3 0 5-1 7l-188 500z m56-486l-56 113c-4 8-11 12-19 12h-115l115 296 157-421h-82z" horiz-adv-x="1000" />

<glyph glyph-name="arrow-circle-up" unicode="&#xe856;" d="M515 552c-2 2-4 4-7 5-2 1-5 1-8 1 0 0 0 0 0 0 0 0 0 0 0 0-3 0-6 0-8-1-3-1-5-3-7-5l-187-187c-8-8-8-21 0-29 8-8 21-9 29-1l152 152v-325c0-11 9-20 21-20h0c12 0 21 9 21 21v324l152-152c4-4 9-6 15-6 5 0 10 2 14 6 8 8 8 22 0 30l-187 187z m-15 215c-230 0-417-187-417-417s187-417 417-417c230 1 416 187 417 417 0 230-187 417-417 417z m0-792c-207 0-375 168-375 375s168 375 375 375c207 0 375-168 375-375 0-207-168-375-375-375z" horiz-adv-x="1000" />

<glyph glyph-name="dropbox" unicode="&#xe857;" d="M888 329l-150 138 150 121c4 0 4 4 4 4 4 8 0 21-9 29l-208 112c-8 5-17 5-21 0l-154-116-154 116c-8 5-17 5-21 0l-208-112c-4 0-4-4-4-4-13-4-9-21 0-25l150-121-150-138c0 0-5-4-5-4-4-8 0-21 9-29l154-83v-104c0-9 4-13 8-17l208-125c5 0 9-4 13-4 4 0 8 0 12 4l209 125c8 4 8 12 8 17v104l154 83c0 0 4 4 4 4 13 4 9 17 1 25z m-221 367l171-92-130-112-170 100 129 104z m4-229l-171-113-171 113 171 100 171-100z m-508 137l170 92 134-100-175-104-129 112z m0-283l133 125 171-113-134-108-170 96z m525-204l-188-113-187 113v71l12-5c0 0 4 0 8 0 5 0 9 0 13 5l154 120 154-120c4-5 9-5 13-5 4 0 8 0 8 5l13 4v-75z m-21 108l-134 104 171 113 133-125-170-92z" horiz-adv-x="1000" />

<glyph glyph-name="corner-right-down" unicode="&#xe858;" d="M911 260c-8 8-22 9-30 1l-173-173v371c0 101-82 183-183 183h-379c-12 0-21-10-21-21s9-21 21-21h379c78 0 142-63 142-141v-371l-173 173c-8 7-21 7-29 0-8-8-9-22-1-30l209-208c2-2 4-4 6-5 3-1 6-1 9-1 0 0 0 0 0 0 0 0 0 0 1 0 2 0 4 0 7 1 2 1 4 3 6 5l209 208c7 8 7 21 0 29z" horiz-adv-x="1000" />

<glyph glyph-name="master-card" unicode="&#xe859;" d="M635 633c-47 0-94-12-135-35-41 23-88 35-135 35-157-1-283-129-282-285 1-155 127-280 282-281 47 0 94 12 135 35 41-23 88-35 135-35 157 1 283 129 282 285-1 155-127 280-282 281z m-270-524c-134 1-241 110-240 243 1 132 108 238 240 239 33 0 65-6 95-20-122-98-141-276-44-398 13-17 28-31 44-44-30-14-62-20-95-20z m135 42c-65 45-104 120-104 199 0 79 39 154 104 199 110-76 137-227 61-337-17-24-37-45-61-61z m135-42c-33 0-65 6-95 20 122 98 141 276 44 398-13 17-28 31-44 44 30 14 62 20 95 20 134-1 241-110 240-243-1-132-108-238-240-239z" horiz-adv-x="1000" />

<glyph glyph-name="vk-alt" unicode="&#xe85a;" d="M641 272c-19 20-41 36-65 47 70 43 120 113 138 193 3 11-4 22-16 25-11 3-22-5-25-16-18-82-75-151-153-184-4 0-9 1-14 1v179c0 1 0 3-1 5 0 1 0 2 0 3-1 2-3 4-4 6 0 0 0 0-1 0-1 2-3 3-5 4 0 0-1 1-1 1-2 0-3 0-5 1-1 0-2 0-3 0l-28 1h0c-11 0-21-10-21-21 0-12 10-21 21-21l7 0v-228c0 0 0 0 0 0v-42c-89 75-148 179-167 294-2 11-13 19-24 17-12-2-19-13-17-24 23-140 101-264 216-347 1 0 1 0 2 0 3-2 7-3 11-4 3 0 6 1 8 3l1 0c1 0 1 0 1 1 3 1 5 3 6 5 1 1 1 2 2 2 1 3 2 7 2 10v114c40-5 77-23 104-53l69-75c4-4 9-7 15-7 5 0 10 2 14 6 8 8 9 21 1 29l-68 75z m-13 516h-256c-246 0-309-64-309-310v-256c0-246 63-310 309-310h256c246 0 310 64 310 310v256c0 246-64 310-310 310z m268-566c0-223-45-268-268-268h-256c-223 0-268 45-268 268v256c0 223 45 268 268 268h256c223 0 268-45 268-268v-256z" horiz-adv-x="1000" />

<glyph glyph-name="corner-up-right" unicode="&#xe85b;" d="M827 531l-229 230c-8 8-21 8-29 0-8-8-9-22 0-30l193-193h-392c-101-1-182-82-182-183v-401c0 0 0 0 0 0 0-11 9-21 20-21 0 0 0 0 0 0 12 0 21 10 21 21v401c0 78 63 141 141 141h392l-193-194c-4-4-7-9-7-14 0-12 10-21 21-21 6 0 11 2 15 6l229 229c0 0 0 0 0 0 8 8 8 21 0 29z" horiz-adv-x="1000" />

<glyph glyph-name="behance-alt" unicode="&#xe85c;" d="M646 600h208c12 0 21 9 21 21s-9 21-21 21h-208c-12 0-21-10-21-21s9-21 21-21z m293-375c0 0 0 0 0 0-12 1-22-7-23-18 0 0 0 0 0-1-11-91-93-157-185-147-84 10-148 81-148 166v83h353c12 0 21 10 21 21 0 1 0 2 0 2-12 106-101 186-207 186-115 0-208-94-208-209v-83c0-115 93-208 208-208 106 0 195 79 207 185 1 11-7 22-18 23z m-189 250c76 0 142-52 161-125h-322c19 74 85 125 161 125z m-358-101c67 43 87 133 43 201-27 42-73 67-122 67h-250c-12 0-21-10-21-21v-583c0-12 9-21 20-21h251c103-1 187 83 187 186 0 73-42 140-108 171z m-309 226h230c57 0 104-47 104-104s-47-104-104-104h-230v208z m230-542h-230v292h230c80 0 145-65 145-146s-65-146-145-146z" horiz-adv-x="1000" />

<glyph glyph-name="upload-alt" unicode="&#xe85d;" d="M750 475h-62c-12 0-21-9-21-21s9-21 21-21h62c46 0 83-37 83-83v-292c0-46-37-83-83-83h-500c-46 0-83 37-83 83v292c0 46 37 83 83 83h104c12 0 21 10 21 21s-9 21-21 21h-104c-69 0-125-56-125-125v-292c0-69 56-125 125-125h500c69 0 125 56 125 125v292c0 69-56 125-125 125z m-381 111l110 110v-575c0-12 9-21 21-21h0c12 0 21 9 21 21v575l110-110c4-4 9-6 14-6 6 0 11 2 15 6 8 8 8 21 0 29l-145 146c-2 1-4 3-7 4-2 1-5 2-8 2 0 0 0 0 0 0 0 0 0 0 0 0-3 0-6-1-8-2-3-1-5-3-7-4l-145-146c0 0 0 0 0 0-9-8-8-22 0-30s21-8 29 1z" horiz-adv-x="1000" />

<glyph glyph-name="arrow-up-right" unicode="&#xe85e;" d="M727 600h-454c-13 0-23-10-23-23s10-23 23-23h399l-415-415c-5-4-7-10-7-16 0-13 10-23 23-23 6 0 12 2 16 7l415 415v-399c0-13 11-23 23-23h0c13 0 23 10 23 23v454c0 13-10 23-23 23z" horiz-adv-x="1000" />

<glyph glyph-name="youtube" unicode="&#xe85f;" d="M616 401l-152 88c-9 5-20 8-30 8-32 0-59-26-59-59v-176c0-21 11-41 29-51 9-5 20-8 30-8 10 0 21 3 30 8l152 88c9 5 17 13 22 22 16 28 7 64-22 80z m-20-66l-153-88c-6-3-12-3-18 0-5 3-8 9-8 15v176c0 6 3 12 8 15 3 1 6 2 9 2 3 0 6-1 9-2l153-88c2-2 4-4 6-7 5-8 2-18-6-23z m196 348h-584c-69 0-125-56-125-125v-416c0-69 56-125 125-125h584c69 0 125 56 125 125v416c0 69-56 125-125 125z m83-541c0-46-37-84-83-84h-584c-46 0-83 38-83 84v416c0 46 37 84 83 84h584c46 0 83-38 83-84v-416z" horiz-adv-x="1000" />

<glyph glyph-name="bitcoin-alt" unicode="&#xe860;" d="M655 369c65 56 71 155 15 219-30 34-73 54-118 54h-52v62c0 12-9 21-21 21s-21-9-21-21v-62h-125v62c0 12-9 21-20 21s-21-9-21-21v-62h-63c-11 0-21-10-21-21s10-21 21-21h63v-500h-63c-11 0-21-9-21-21s10-21 21-21h63v-62c0-12 9-21 21-21s20 9 20 21v62h125v-62c0-12 10-21 21-21s21 9 21 21v62h135c86 0 156 70 157 156 0 79-59 145-137 155z m-322 231h219c63 0 115-51 115-115s-52-114-115-114h-219v229z m302-500h-302v229h302c64 0 115-51 115-114s-51-115-115-115z" horiz-adv-x="1000" />

<glyph glyph-name="android-alt" unicode="&#xe861;" d="M146 475h0c-12 0-21-9-21-21v-208c0-12 9-21 21-21s21 9 21 21v208c0 12-10 21-21 21z m514 192l45 67c6 10 4 23-6 29s-23 4-29-6l-44-66c-78 45-174 45-252 0l-44 66c-6 10-19 13-29 6s-12-19-6-29l45-67c-57-48-90-118-90-192v-354c0-12 9-21 21-21h125v-146c0-11 9-21 21-21s20 10 20 21v146h126v-146c0-11 9-21 20-21s21 10 21 21v146h125c12 0 21 9 21 21v354c0 74-33 144-90 192z m48-525h-416v291h416v-291z m-416 333c0 115 93 208 208 208s208-93 208-208h-416z m562 0h0c-11 0-21-9-21-21v-208c0-12 10-21 21-21s21 9 21 21v208c0 12-9 21-21 21z" horiz-adv-x="1000" />

<glyph glyph-name="arrow-circle-right" unicode="&#xe862;" d="M707 358c-1 3-3 5-5 7l-187 187c-8 8-21 8-29 0-8-8-9-21-1-29l152-152h-324c-12 0-21-9-21-21s9-21 20-21h325l-152-152c-4-4-6-9-6-14 0-12 9-21 21-21 6 0 11 2 15 6l187 187c2 2 4 4 5 7 1 2 1 5 1 8 0 0 0 0 0 0 0 0 0 0 0 0 0 3 0 6-1 8z m-207 409c-230 0-417-187-417-417s187-417 417-417c230 1 416 187 417 417 0 230-187 417-417 417z m0-792c-207 0-375 168-375 375s168 375 375 375c207 0 375-168 375-375 0-207-168-375-375-375z" horiz-adv-x="1000" />

<glyph glyph-name="reddit-alien-alt" unicode="&#xe863;" d="M938 362c0 75-62 136-137 136-48 0-93-25-118-67-51 15-105 23-159 25l43 285 126-42c-1-4-1-8-2-12 0-58 46-105 104-105 57-1 104 45 105 103 0 1 0 1 0 2v0c-2 57-48 102-104 103-37 0-71-20-90-52l-149 51c-11 4-23-2-27-13 0-1 0-3-1-4l-47-316c-56-1-112-9-165-25-38 65-122 88-187 50-65-38-87-121-49-186 3-5 6-10 9-15-17-28-27-61-27-94 0-150 196-271 437-271s438 121 438 271c-1 33-11 66-28 94 17 24 27 52 28 82z m-205 324c0 35 28 62 63 62 34 0 62-28 62-62 0-35-28-63-62-63-35 0-63 28-63 63 0 0 0 0 0 0z m124-247c39-28 50-81 26-123-43 46-98 81-158 102 30 42 89 52 132 21z m-705 5c14 9 30 13 47 13h0c30-1 58-15 76-39-60-21-115-56-158-102-26 45-11 103 35 128z m348-487c-218 0-396 102-396 229 0 87 85 163 209 202 1 0 1 0 1 0l0 0c60 18 123 27 186 27 63 0 126-9 186-27l0 0 1 0c124-39 209-115 209-202 0-127-178-229-396-229z m133 375c-34 0-62-28-62-63s28-62 62-62c35 0 63 28 63 62 0 35-28 63-63 63z m21-63c0-11-9-21-21-21-11 0-20 10-20 21s9 21 20 21 21-9 21-21c0 0 0 0 0 0z m-271-62c35 0 63 28 63 62 0 35-28 63-63 63-34 0-62-28-62-63s28-62 62-62c0 0 0 0 0 0z m-20 62c-1 12 9 21 20 21 12 0 21-9 21-21s-9-21-21-21c0 0 0 0 0 0-11 0-20 10-20 21z m252-134h0c-32-25-73-37-113-33-41-4-81 8-114 33-8 8-21 8-29 0-8-8-8-21 0-30 40-33 91-49 143-44 51-5 103 11 143 44 8 9 8 22-1 30-8 8-21 8-29 0z" horiz-adv-x="1000" />

<glyph glyph-name="facebook-messenger-alt" unicode="&#xe864;" d="M672 479l-108-129-155 95c-9 6-20 4-27-4l-127-151c-8-9-6-22 2-30s22-6 30 3l115 137 155-95c9-5 20-3 27 5l119 142c8 9 7 22-2 29s-22 7-29-2z m-172 329c-262 0-459-191-459-445-2-125 51-246 144-329 3-3 5-6 5-10l3-78c1-30 25-54 56-54 7 0 15 1 22 4l87 39c3 1 6 1 9 0 44-11 88-17 133-17 262 0 459 191 459 445s-197 445-459 445z m0-848c-41-1-82 5-122 16-12 3-25 2-37-3l-87-38c-4-2-9-2-13 1-4 2-7 6-7 11l-2 78c-1 15-8 30-19 40-85 76-132 184-131 298 0 230 180 404 418 404s418-174 418-404-180-403-418-403z" horiz-adv-x="1000" />

<glyph glyph-name="google-hangouts-alt" unicode="&#xe865;" d="M625 517c-46 0-84-38-84-84s38-83 84-83c15 0 29 4 42 12v-12c0-23-19-42-42-42-11 0-21-9-21-20s10-21 21-21c46 0 84 37 84 83v83c0 3-1 5-2 7-3 43-39 77-82 77z m0-125c-23 0-42 18-42 41s19 42 42 42 41-19 41-42c0-23-18-41-41-41z m-69 413c-19 2-37 3-56 3-224 1-406-180-406-404-1-216 169-395 385-406v-86c0-11 9-20 21-20h0c2 0 3 0 5 0 217 54 377 238 398 461 29 221-127 423-347 452z m305-448c-18-195-153-360-340-417v79c0 11-9 20-21 20h0c-202 0-367 163-368 365 0 202 163 367 365 368 202 1 367-163 368-365 0-16-1-33-4-50z m-486 160c-46 0-84-38-84-84s38-83 84-83c15 0 29 4 42 12v-12c0-23-19-42-42-42-11 0-21-9-21-20s10-21 21-21c46 0 84 37 84 83v83c0 3-1 5-2 7-3 43-39 77-82 77z m0-125c-23 0-42 18-42 41s19 42 42 42 41-19 41-42c0-23-18-41-41-41z" horiz-adv-x="1000" />

<glyph glyph-name="google-drive-alt" unicode="&#xe866;" d="M905 219c0 2 0 3 0 4-1 2-1 3-2 4 0 1 0 1 0 1l-257 445c-3 6-10 10-18 10h-256c-4 0-8-1-11-2-3-2-5-5-7-7 0-1 0-1 0-1l-257-445c-4-6-4-14 0-20l128-223c1 0 1 0 2-1 1-2 3-4 5-5 1 0 1-1 2-1 3-2 6-3 9-3h514c7 0 14 4 18 10l128 223c0 0 0 1 0 1 1 3 2 5 2 7 0 1 1 1 1 2 0 0 0 1-1 1z m-289 423l233-403h-209l-232 403h208z m-24-403h-184l92 160 92-160z m-453-21l233 403 104-181-233-402-104 180z m606-201h-465l104 180h465l-104-180z" horiz-adv-x="1000" />

<glyph glyph-name="bag" unicode="&#xe867;" d="M813 600h-146v42c0 46-38 83-84 83h-166c-46 0-84-37-84-83v-42h-145c-58 0-105-47-105-104v-417c0-57 47-104 105-104h625c57 0 104 47 104 104v417c0 57-47 104-104 104z m-438 42c0 23 19 41 42 41h166c23 0 42-18 42-41v-42h-250v42z m500-563c0-34-28-62-62-62h-625c-35 0-63 28-63 62v270l243-81c3-1 5-1 7-1h250c2 0 4 0 7 1l243 81v-270z m0 312c-2 0-4 0-7 0l-246-83h-244l-246 83c-3 0-5 0-7 0v105c0 34 28 62 63 62h625c34 0 62-28 62-62v-105z" horiz-adv-x="1000" />

<glyph glyph-name="chart-growth" unicode="&#xe868;" d="M896-25h-63v688c0 11-9 20-20 20s-21-9-21-20v-688h-125v521c0 11-10 21-21 21s-21-10-21-21v-521h-125v354c0 12-9 21-21 21s-21-9-21-21v-354h-125v188c0 11-9 20-20 20s-21-9-21-20v-188h-167v771c0 11-9 21-21 21s-21-10-21-21v-792c0-11 10-21 21-21h792c11 0 21 10 21 21s-10 21-21 21z" horiz-adv-x="1000" />

<glyph glyph-name="telegram-alt" unicode="&#xe869;" d="M914 735c-18 15-43 19-65 10l-747-301c-33-14-48-52-35-84 7-17 21-31 39-37l161-56 87-288c0-1 1-1 1-2 1-2 2-4 4-6 0-1 1-1 2-2 2-2 4-3 7-4 1 0 1 0 1 0l1 0 0 0c1-1 2-1 4-1 2 0 4 0 5 1 1 0 1 0 1 0 3 1 6 3 8 5 1 1 1 1 1 1l126 138 183-141c11-9 25-14 39-14 31 0 57 22 63 51l136 668c5 23-3 47-22 62z m-515-522l-29-143-61 203 304 158-208-208c-3-3-5-6-6-10z m360-199c-1-8-7-14-14-17-7-3-15-1-21 4l-199 153c-8 7-21 6-28-2l-87-97 29 143 300 300c8 8 8 21 0 29-7 7-17 8-25 4l-432-225-163 57c-9 3-15 11-15 20 0 10 5 18 14 22l747 301c7 4 16 2 23-3 6-5 9-14 7-22l-136-667z" horiz-adv-x="1000" />

<glyph glyph-name="align-center" unicode="&#xe86a;" d="M271 433c-12 0-21-9-21-20s9-21 21-21h458c12 0 21 9 21 21s-9 20-21 20h-458z m-167 125h792c11 0 21 10 21 21s-10 21-21 21h-792c-11 0-21-9-21-21s10-21 21-21z m625-458h-458c-12 0-21-9-21-21s9-21 21-21h458c12 0 21 10 21 21s-9 21-21 21z m167 167h-792c-11 0-21-10-21-21s10-21 21-21h792c11 0 21 9 21 21s-10 21-21 21z" horiz-adv-x="1000" />

<glyph glyph-name="chart-pie" unicode="&#xe86b;" d="M500 767c-230 0-417-187-417-417s187-417 417-417 417 187 417 417-187 417-417 417z m21-43c190-11 342-164 352-354h-352v354z m-21-749c-207 0-375 168-375 375 0 200 157 363 354 374v-374c0-4 1-7 3-10l187-324c-51-26-108-41-169-41z m205 62l-169 292h337c-7-119-69-227-168-292z" horiz-adv-x="1000" />

<glyph glyph-name="signal-alt-3" unicode="&#xe86c;" d="M271 183h-167c-11 0-21-9-21-20v-251c0-11 10-20 21-20h167c11 0 21 9 21 20v251c0 11-10 20-21 20z m-21-250h-125v209h125v-209z m688 834h-167c-12 0-21-10-21-21v-834c0-11 9-20 21-20h167c11 0 20 9 20 20v834c0 11-9 21-20 21z m-21-834h-125v792h125v-792z m-313 500h-167c-11 0-20-9-20-20v-501c0-11 9-20 21-20h166c12 0 21 9 21 20v501c0 11-9 20-21 20z m-21-500h-125v459h125v-459z" horiz-adv-x="1000" />

<glyph glyph-name="document-layout-left" unicode="&#xe86d;" d="M104 350h292c0 0 0 0 0 0 11 0 21 9 21 21v292c0 0 0 0 0 0 0 11-10 20-21 20h-292c0 0 0 0 0 0-11 0-21-9-21-20v-292c0 0 0 0 0 0 0-12 10-21 21-21z m21 292h250v-250h-250v250z m396-125h375c11 0 21 9 21 21s-10 20-21 20h-375c-12 0-21-9-21-20s9-21 21-21z m375-292h-792c-11 0-21-9-21-21s10-21 21-21h792c11 0 21 10 21 21s-10 21-21 21z m-333-167h-459c-11 0-21-9-21-20s10-21 21-21h459c11 0 20 9 20 21s-9 20-20 20z m333 334h-375c-12 0-21-10-21-21s9-21 21-21h375c11 0 21 9 21 21s-10 21-21 21z" horiz-adv-x="1000" />

<glyph glyph-name="border-clear" unicode="&#xe86e;" d="M167 558c-35 0-63-28-63-62s28-63 63-63c34 0 62 28 62 63 0 34-28 62-62 62z m0-83c-12 0-21 9-21 21s9 21 21 21c11 0 20-10 21-21 0-12-10-21-21-21z m0-250c-35 0-63-28-63-62s28-63 63-63c34 0 62 28 62 63 0 34-28 62-62 62z m0-83c-12 0-21 9-21 21s9 20 21 20c11 0 20-9 21-20 0-12-10-21-21-21z m166-84c-34 0-62-28-62-62s28-63 62-63c35 0 63 28 63 63 0 34-28 62-63 62z m0-83c-11 0-20 9-20 21s9 21 20 21c12 0 21-10 21-21 0-12-9-21-21-21z m-166 83c-35 0-63-28-63-62s28-63 63-63c34 0 62 28 62 63 0 34-28 62-62 62z m0-83c-12 0-21 9-21 21s9 21 21 21c11 0 20-10 21-21 0-12-10-21-21-21z m0 750c-35 0-63-28-63-62s28-63 63-63c34 0 62 28 62 63 0 34-28 62-62 62z m0-83c-12 0-21 9-21 21s9 20 21 20c11 0 20-9 21-20 0-12-10-21-21-21z m0-250c-35 0-63-28-63-63s28-62 63-62c34 0 62 28 62 62 0 35-28 63-62 63z m0-84c-12 0-21 10-21 21s9 21 21 21c11 0 20-9 21-21 0-11-10-21-21-21z m666 292c35 0 63 28 63 63 0 34-28 62-63 62s-62-28-62-62 28-63 62-63z m0 83c12 0 21-9 21-20 0-12-9-21-21-21s-21 9-21 21 10 20 21 20z m-166 42c-35 0-63-28-63-62s28-63 63-63c34 0 62 28 62 63 0 34-28 62-62 62z m0-83c-12 0-21 9-21 21s9 20 21 20c11 0 20-9 21-20 0-12-10-21-21-21z m166-417c-34 0-62-28-62-62s28-63 62-63c35 0 63 28 63 63 0 34-28 62-63 62z m0-83c-11 0-21 9-21 21s10 20 21 20c12 0 21-9 21-20 0-12-9-21-21-21z m0-84c-34 0-62-28-62-62s28-63 62-63c35 0 63 28 63 63 0 34-28 62-63 62z m0-83c-11 0-21 9-21 21s10 21 21 21c12 0 21-10 21-21 0-12-9-21-21-21z m-166 417c-35 0-63-28-63-63s28-62 63-62c34 0 62 28 62 62 0 35-28 63-62 63z m0-84c-12 0-21 10-21 21s9 21 21 21c11 0 20-9 21-21 0-11-10-21-21-21z m166 84c-34 0-62-28-62-63s28-62 62-62c35 0 63 28 63 62 0 35-28 63-63 63z m0-84c-11 0-21 10-21 21s10 21 21 21c12 0 21-9 21-21 0-11-9-21-21-21z m-166-250c-35 0-63-28-63-62s28-63 63-63c34 0 62 28 62 63 0 34-28 62-62 62z m0-83c-12 0-21 9-21 21s9 21 21 21c11 0 20-10 21-21 0-12-10-21-21-21z m166 583c-34 0-62-28-62-62s28-63 62-63c35 0 63 28 63 63 0 34-28 62-63 62z m0-83c-11 0-21 9-21 21s10 21 21 21c12 0 21-10 21-21 0-12-9-21-21-21z m-500 250c-34 0-62-28-62-62s28-63 62-63c35 0 63 28 63 63 0 34-28 62-63 62z m0-83c-11 0-20 9-20 21s9 20 20 20c12 0 21-9 21-20 0-12-9-21-21-21z m167-584c-35 0-62-28-62-62s27-63 62-63c35 0 62 28 63 63 0 34-28 62-63 62z m0-83c-12 0-21 9-21 21s9 21 21 21c11 0 21-10 21-21 0-12-9-21-21-21z m-167 417c-34 0-62-28-62-63s28-62 62-62c35 0 63 28 63 62 0 35-28 63-63 63z m0-84c-11 0-20 10-20 21s9 21 20 21c12 0 21-9 21-21 0-11-9-21-21-21z m167 417c-35 0-62-28-62-62s27-63 62-63c35 0 62 28 63 63 0 34-28 62-63 62z m0-83c-12 0-21 9-21 21s9 20 21 20c11 0 21-9 21-20 0-12-9-21-21-21z m0-417c-35 0-62-28-62-62s27-63 62-63c35 0 62 28 63 63 0 34-28 62-63 62z m0-83c-12 0-21 9-21 21s9 20 21 20c11 0 21-9 21-20 0-12-9-21-21-21z m0 250c-35 0-62-28-62-63s27-62 62-62c35 0 62 28 63 62 0 35-28 63-63 63z m0-84c-12 0-21 10-21 21s9 21 21 21c11 0 21-9 21-21 0-11-9-21-21-21z m0 250c-35 0-62-28-62-62s27-63 62-63c35 0 62 28 63 63 0 34-28 62-63 62z m0-83c-12 0-21 9-21 21s9 21 21 21c11 0 21-10 21-21 0-12-9-21-21-21z" horiz-adv-x="1000" />

</font>
</defs>
</svg>
