<?xml version="1.0" standalone="no"?>
<!DOCTYPE svg PUBLIC "-//W3C//DTD SVG 1.1//EN" "http://www.w3.org/Graphics/SVG/1.1/DTD/svg11.dtd">
<svg xmlns="http://www.w3.org/2000/svg">
<metadata>IconScout</metadata>
<defs>
<font id="unicons-3" horiz-adv-x="1000" >
<font-face font-family="unicons-3" font-weight="400" font-stretch="normal" units-per-em="1000" ascent="850" descent="-150" />
<missing-glyph horiz-adv-x="1000" />
<glyph glyph-name="process" unicode="&#xe8b4;" d="M375 558h-161c67 92 173 146 286 146 20 0 40-1 59-5 11-1 22 6 24 18 2 11-6 22-17 24-22 3-44 5-66 5-122 0-237-57-312-153v153c0 11-10 21-21 21s-21-10-21-21v-208c0-12 9-21 21-21 0 0 0 0 0 0h208c12 0 21 9 21 21s-9 20-21 20z m-62-312c0 0 0 0 0 0-12 0-21-9-21-21 0 0 0 0 0 0v-161c-92 67-146 173-146 286 0 20 1 40 5 59 1 11-7 22-18 24-11 2-22-6-24-17-3-22-5-44-5-66 0-122 57-237 153-312h-153c-11 0-21-10-21-21s10-21 21-21h209c11 0 20 9 20 21 0 0 0 0 0 0v208c0 12-9 21-20 21z m520-63c0 0 0 0 0 0h-208c-12 0-21-9-21-20s9-21 21-21h161c-67-92-173-146-286-146-20 0-40 1-59 5-11 1-22-6-24-18-2-11 6-22 17-24 22-3 44-5 66-5 122 0 237 57 313 153v-153c0-11 9-21 20-21s21 10 21 21v209c0 11-9 20-21 20z m63 521h-208c-12 0-21-9-21-21 0 0 0 0 0 0v-208c0-12 9-21 21-21s20 9 20 21v161c40-29 74-66 99-109 31-54 47-115 47-177 0-20-1-40-5-59-1-11 6-22 18-24 0 0 0 0 0 0 1 0 2 0 3 0 10 0 19 7 21 17 3 22 5 44 5 66 0 69-18 138-53 198-26 44-60 83-100 115h153c11 0 21 9 21 20s-10 21-21 21z" horiz-adv-x="1000" />

<glyph glyph-name="paperclip" unicode="&#xe8b5;" d="M758 293l-251-251c-81-81-213-81-294 0s-82 213 0 295l353 353c49 49 128 49 177 0 49-48 49-128 0-176l-324-325c-16-15-42-15-59 0-16 17-16 43 0 59l221 221c0 0 0 1 0 1 8 8 8 21 0 29-8 8-21 8-29 0l-221-221c0 0 0 0 0 0-33-33-33-85 0-118 33-31 84-31 117 0l325 324c64 65 64 170 0 235-65 65-171 66-236 1l-354-354c-47-47-73-110-73-177 0-138 112-250 250-250 66 0 130 27 177 74l250 250c0 0 0 0 1 0 8 9 7 22-1 30-8 8-21 8-29 0z" horiz-adv-x="1000" />

<glyph glyph-name="desktop-alt-slash" unicode="&#xe8b6;" d="M325 683h446c33 0 62-29 62-62v-271h-133c-13 0-21-8-21-21s8-21 21-21h133v-62c0-17-4-29-12-42-4-4-4-8-4-12 0-13 8-21 21-21 4 0 12 4 16 8 17 17 25 42 25 67v375c-4 58-50 104-108 104h-446c-12 0-21-8-21-21s9-21 21-21z m587-712l-208 208c0 0 0 0 0 0l-167 167c0 0 0 0 0 0l-349 346c0 0-5 4-5 4 0 0-4 0-4 0l-58 67c-8 4-21 4-29 0-9-9-9-25-4-34l54-54c-13-12-17-33-17-54v-375c0-58 46-104 104-104h146v-125h-146c-12 0-21-9-21-21s9-21 21-21h167 0 208 0 167c12 0 21 8 21 21s-9 21-21 21h-146v125h54l204-204c4-5 9-5 17-5 4 0 12 5 17 5 0 8 0 24-5 33z m-745 650c0 8 4 17 8 25l296-296h-304v271z m416-604h-166v125h166v-125z m-354 166c-33 0-62 30-62 63v62h346l125-125h-409z" horiz-adv-x="1000" />

<glyph glyph-name="history" unicode="&#xe8b7;" d="M697 717c-184 99-409 45-530-117v104c0 12-10 21-21 21s-21-9-21-21v-166c0-1 0-1 0-1 0-11 9-20 21-20h167c11 0 20 9 20 21s-9 20-20 20h-125c69 103 184 167 309 167 207 1 374-166 375-372s-166-374-372-375c-206-1-374 166-375 372 0 7 0 13 0 20 0 0 0 0 0 0 1 11-8 21-19 22 0 0-1 0-1 0-11 0-21-9-21-20-1-7-1-15-1-22 1-230 187-416 417-417 153 0 294 85 367 220 109 203 33 456-170 564z m-197-200c-12 0-21-10-21-21v-146c0 0 0 0 0 0 0-12 9-21 21-21h104c12 0 21 9 21 21s-9 21-21 21h-83v125c0 11-9 21-21 21z" horiz-adv-x="1000" />

<glyph glyph-name="bookmark" unicode="&#xe8b8;" d="M667 767h-334c-69 0-125-56-125-125v-688c0-3 1-7 3-10 6-10 19-14 29-8l260 150 260-150c4-2 7-3 11-3 11 0 21 10 21 21v688c0 69-56 125-125 125z m83-777l-240 138c-3 2-6 3-10 3-4 0-7-1-10-3l-240-138v652c0 46 37 83 83 83h334c46 0 83-37 83-83v-652z" horiz-adv-x="1000" />

<glyph glyph-name="battery-bolt" unicode="&#xe8b9;" d="M313 183h-167c-12 0-21 10-21 21v292c0 11 9 21 21 21h125c11 0 21 9 21 21s-10 20-21 20h-125c-35 0-63-28-63-62v-292c0-34 28-62 63-62h167c11 0 20 9 20 21s-9 20-20 20z m248 174c0 1-1 2-2 3 0 1-1 3-2 4-1 1-2 2-3 2-1 1-1 2-2 2-1 0-1 0-1 1-1 0-3 0-4 1-1 0-3 1-4 1-1 0-1 0-1 0h-173l87 156c5 10 2 23-8 29s-23 2-29-8l-104-188c0 0 0-1 0-1-1-1-1-2-1-4-1-1-1-3-1-4 0 0 0-1 0-1 0-1 0-2 0-3 0-1 0-2 1-4 0-1 1-2 2-3 0-2 1-3 2-4 1-1 2-2 3-2 1-1 1-2 2-2 0 0 1 0 1 0 3-2 6-3 9-3h173l-87-156c-5-10-2-23 8-29 3-1 7-2 11-2 7 0 14 4 18 10l104 188c0 0 0 1 0 1 1 1 1 2 1 4 1 1 1 3 1 4 0 0 1 1 1 1 0 1-1 2-1 2 0 2 0 3-1 5z m168 201h-166c-12 0-21-9-21-20s9-21 21-21h166c12 0 21-10 21-21v-292c0-11-9-21-21-21h-125c-11 0-21-9-21-20s10-21 21-21h125c35 0 63 28 63 62v292c0 34-28 62-63 62z m167-125c-12 0-21-9-21-20v-126c0-11 9-20 21-20h0c11 0 21 9 21 21v125c0 11-10 20-21 20z" horiz-adv-x="1000" />

<glyph glyph-name="space-key" unicode="&#xe8ba;" d="M896 475c-12 0-21-9-21-21v-187h-750v187c0 12-9 21-21 21s-21-9-21-21v-208c0 0 0 0 0 0 0-12 10-21 21-21h792c0 0 0 0 0 0 11 0 21 9 21 21v208c0 12-10 21-21 21z" horiz-adv-x="1000" />

<glyph glyph-name="star-half-alt" unicode="&#xe8bb;" d="M913 428c4 23-12 44-35 47l-235 35-106 214c-3 7-9 12-15 16-21 12-47 5-59-16l-106-214-235-35c-9-1-17-5-24-12-16-16-16-43 1-59l170-167-40-236c0-2-1-4-1-7 0-23 19-41 42-42 7 0 14 2 20 5l210 112 210-112c8-4 18-5 27-4 23 4 38 25 34 48l-40 236 170 167c7 7 11 15 12 24z m-434-323l-209-111 42 247c1 7-1 14-6 18l-178 175 246 36c7 1 13 5 16 12l89 181v-558z m215 154c-5-4-7-11-6-18l42-247-209 111v558l89-181c3-7 9-11 16-12l246-36-178-175z" horiz-adv-x="1000" />

<glyph glyph-name="check-square" unicode="&#xe8bc;" d="M410 194c4-4 9-7 15-7 6 0 11 3 15 7l283 283c8 8 8 21 0 29-8 8-21 8-29 0l-269-268-119 118c-8 8-21 8-29 0-8-8-8-21 0-29l133-133z m486 573h-792c0 0 0 0 0 0-11 0-21-10-21-21v-792c0 0 0 0 0 0 0-11 10-21 21-21h792c0 0 0 0 0 0 11 0 21 10 21 21v792c0 0 0 0 0 0 0 11-10 21-21 21z m-21-792h-750v750h750v-750z" horiz-adv-x="1000" />

<glyph glyph-name="link-broken" unicode="&#xe8bd;" d="M218 424c10 0 18 7 21 16 3 11-4 22-15 25l-114 31c-11 2-22-4-25-15-3-11 3-23 14-26l114-30c2 0 4-1 5-1z m357-215c-8 8-21 8-29 0l-162-162c-52-50-135-50-187 0 0 0 0 0 0 0-51 52-51 135 0 187l162 162c8 8 8 21 0 29-8 8-21 8-29 0l-162-162c-33-32-51-76-51-123 0-95 78-173 173-173 47 0 91 18 123 51l162 162c8 8 8 21 0 29z m-330 366c4-3 9-6 15-6 5 0 11 3 15 6 8 9 8 22 0 30l-84 83c-8 8-21 8-29 0-8-8-8-21 0-29l83-84z m140 51c2-9 10-15 20-15 2 0 4 0 5 0 11 3 18 15 15 26l-30 114c-3 11-15 17-26 14-11-3-18-14-15-25l31-114z m447 56c-68 68-177 68-245 0l-162-162c-8-8-8-21 0-29 8-8 21-8 29 0l162 162c52 50 135 50 187 0l0 0c51-52 51-135 0-187l-162-162c-4-4-6-9-6-15 0-11 9-20 21-20 5 0 10 2 14 6l162 162c68 68 68 177 0 245z m69-437l-114 30c-11 3-22-4-26-15-3-11 4-22 15-25l114-31c1 0 3 0 5 0 10 0 18 6 20 15 3 11-3 23-14 26z m-146-120c0 0 0 0 0 0-9 8-22 8-30 0-8-9-8-22 0-30l84-83c3-4 9-6 14-6 6 0 11 2 15 6 8 8 8 21 0 29l-83 84z m-140-51c-3 11-14 18-25 15s-18-15-15-26l30-114c3-9 11-15 21-15 1 0 3 0 5 1 11 3 18 14 15 25l-31 114z" horiz-adv-x="1000" />

<glyph glyph-name="sim-card" unicode="&#xe8be;" d="M707 683h-415c-69 0-125-56-125-125v-415c0-70 56-126 126-126h103 0 208 0 104c69 0 125 56 125 125v415c0 70-56 126-126 126z m-290-41h166v-167h-166v167z m-42-584h-82c-47 0-85 38-85 85v82h167v-167z m208 0h-166v167h166v-167z m209 84c0-46-38-84-84-84h-83v167h167v-83z m0 125h-584v291c0 46 38 84 84 84h83v-188c0 0 0 0 0 0 0-11 9-21 21-21h0 208 0 188v-166z m0 208h-167v167h82c47 0 85-38 85-85v-82z" horiz-adv-x="1000" />

<glyph glyph-name="multiply" unicode="&#xe8bf;" d="M827 52l-298 298 298 298c8 8 8 21 0 29-8 8-21 8-29 0l-298-298-298 298c-8 8-21 8-29 0-8-8-8-21 0-29l298-298-298-298c-4-4-6-9-6-14 0-12 9-21 21-21 5 0 10 2 14 6l298 298 298-298c4-4 9-6 15-6 5 0 10 2 14 6 8 8 8 21 0 29z" horiz-adv-x="1000" />

<glyph glyph-name="ankh" unicode="&#xe8c0;" d="M771 308h-200c83 59 134 153 137 254-2 116-97 207-212 205-112-3-202-93-204-205 3-101 54-195 137-254h-200c-11 0-21-9-21-20s10-21 21-21h250v-313c0-11 9-21 21-21s21 10 21 21v313h250c11 0 21 9 21 21s-10 20-21 20z m-271 3c-36 21-167 106-167 251 3 93 79 165 171 163 89-2 160-74 163-163 0-145-131-230-167-251z" horiz-adv-x="1000" />

<glyph glyph-name="exclamation-octagon" unicode="&#xe8c1;" d="M500 308h0c12 0 21 10 21 21v167c0 11-9 21-21 21s-21-10-21-21v-167c0-11 9-21 21-21z m411 221l-232 232c-4 3-10 6-15 6h-328c-5 0-11-3-15-6l-232-232c-3-4-6-10-6-15v-328c0-5 3-11 6-15l232-232c4-3 10-6 15-6h328c5 0 11 3 15 6l232 232c3 4 6 10 6 15v328c0 5-3 11-6 15z m-36-334l-220-220h-310l-220 220v310l220 220h310l220-220v-310z m-375 56c-14 0-26-12-26-26s12-26 26-26 26 12 26 26-12 26-26 26z" horiz-adv-x="1000" />

<glyph glyph-name="create-dashboard" unicode="&#xe8c2;" d="M438 308h-292c-13 0-21-8-21-20v-292c0-13 8-21 21-21h291c13 0 21 8 21 21v292c0 12-8 20-20 20z m-21-291h-250v250h250v-250z m21 708h-292c-13 0-21-8-21-21v-291c0-13 8-21 21-21h291c13 0 21 8 21 21v291c0 13-8 21-20 21z m-21-292h-250v250h250v-250z m437 292h-291c-13 0-21-8-21-21v-291c0-13 8-21 21-21h291c13 0 21 8 21 21v291c0 13-8 21-21 21z m-21-292h-250v250h250v-250z m21-270h-125v125c0 12-8 20-21 20s-21-8-21-20v-125h-125c-12 0-20-9-20-21s8-21 20-21h125v-125c0-13 9-21 21-21h0c13 0 21 8 21 21v125h125c13 0 21 8 21 21s-8 21-21 21z" horiz-adv-x="1000" />

<glyph glyph-name="pump" unicode="&#xe8c3;" d="M862 559l-35 35c0 0 0 0 0 0l-124 124c-8 8-21 8-29 0s-8-21 0-30l73-72-39-104c-15-38-5-82 24-111l143-143v-200c0-46-37-83-83-83s-84 37-84 83v105c0 57-46 104-104 104h-21v396c0 57-46 104-104 104h-291c-58 0-105-47-105-104v-625c0-58 47-105 105-105h291c58 0 104 47 104 105v187h21c35 0 63-28 63-62v-105c0-69 56-125 125-125s125 56 125 125v369c0 49-20 97-55 132z m-320-521c0-35-28-63-63-63h-291c-35 0-63 28-63 63v354h417v-354z m0 395h-417v230c0 34 28 62 63 62h291c35 0 63-28 63-62v-230z m333-116l-114 114c-17 17-23 43-14 66l32 86 53-53c27-27 43-65 43-103v-110z" horiz-adv-x="1000" />

<glyph glyph-name="exclamation-circle" unicode="&#xe8c4;" d="M500 251c-14 0-26-12-26-26s12-26 26-26 26 12 26 26-12 26-26 26z m0 57h0c12 0 21 10 21 21v167c0 11-9 21-21 21s-21-10-21-21v-167c0-11 9-21 21-21z m0 459c-230 0-417-187-417-417s187-417 417-417c230 1 416 187 417 417 0 230-187 417-417 417z m0-792c-207 0-375 168-375 375s168 375 375 375c207 0 375-168 375-375 0-207-168-375-375-375z" horiz-adv-x="1000" />

<glyph glyph-name="exclamation-triangle" unicode="&#xe8c5;" d="M500 189c-14 0-26-12-26-26s12-27 26-27 26 12 26 27-12 26-26 26z m0 78h0c12 0 21 9 21 21v166c0 12-9 21-21 21s-21-9-21-21v-167c0-11 9-20 21-20z m446-148l-339 586c-11 19-26 34-45 45-59 34-135 14-169-45l-339-586c-11-19-17-40-17-62 0-68 55-124 123-124h679c22 0 44 6 62 17 59 34 80 110 45 169z m-107-144h-679c-14 0-28 4-40 11-40 23-53 73-30 112l339 586c15 26 42 41 71 41 29 0 56-15 71-41l339-586c8-13 11-27 11-41 0-45-36-82-82-82z" horiz-adv-x="1000" />

<glyph glyph-name="signal-alt" unicode="&#xe8c6;" d="M229 100c-11 0-21-9-21-21v-125c0-11 10-21 21-21h0c12 0 21 10 21 21v125c0 12-9 21-21 21z m209 167c-12 0-21-10-21-21v-292c0-11 9-21 21-21h0c11 0 20 10 20 21v292c0 11-9 21-20 21z m416 500c-11 0-21-10-21-21v-792c0-11 10-21 21-21h0c12 0 21 10 21 21v792c0 11-9 21-21 21z m-208-292c-12 0-21-9-21-21v-500c0-11 9-21 21-21h0c11 0 21 10 21 21v500c0 12-10 21-21 21z" horiz-adv-x="1000" />

<glyph glyph-name="key-skeleton" unicode="&#xe8c7;" d="M911 760c-8 8-22 9-30 1l-79-79c0-1-1-1-1-1 0 0 0-1-1-1l-413-413c-32 25-72 41-116 41-104 0-188-84-188-187s84-188 188-188c103 0 187 84 187 188 0 44-16 84-41 116l281 282 103-103c4-4 10-6 15-6 6 0 11 2 15 6 8 8 8 21 0 29l-103 103 88 89 44-44c4-4 9-7 15-7 6 0 11 3 15 7 8 8 8 21 0 29l-44 44 65 65c7 8 7 21 0 29z m-640-785c-81 0-146 65-146 146s65 146 146 146c80 0 146-66 146-146 0-81-66-146-146-146z" horiz-adv-x="1000" />

<glyph glyph-name="question-circle" unicode="&#xe8c8;" d="M525 512c-56 15-113-19-127-74-3-12 4-23 15-26s22 4 25 15c6 21 21 37 41 44 33 11 68-7 79-40 11-32-7-68-39-79-26-9-42-33-41-60v-26c0-12 9-21 21-21h0c11 0 20 9 20 21v26c0 9 5 17 13 21 33 11 59 38 67 72 15 56-19 113-74 127z m-26-304c-15 0-27-11-27-26s12-26 27-26c14 0 26 12 26 26s-12 26-26 26z m1 559c-230 0-417-187-417-417s187-417 417-417c230 1 416 187 417 417 0 230-187 417-417 417z m0-792c-207 0-375 168-375 375s168 375 375 375c207 0 375-168 375-375 0-207-168-375-375-375z" horiz-adv-x="1000" />

<glyph glyph-name="refresh" unicode="&#xe8c9;" d="M854 183h-166c-12 0-21-9-21-20s9-21 21-21h124c-70-103-186-167-311-167-208 0-376 168-376 375 0 20 2 40 5 59 2 11-6 22-17 24-12 2-23-6-24-17-4-22-6-44-6-66 1-230 187-416 417-417 132 0 255 63 333 167v-104c0-12 10-21 21-21h0c12 0 21 9 21 21v167c0 11-9 20-21 20z m-157 534c-184 99-409 45-530-117v104c0 12-10 21-21 21s-21-9-21-21v-167c0-11 9-20 21-20h167c11 0 20 9 20 21s-9 20-20 20h-125c70 103 186 167 311 167 208 0 376-168 376-375 0-20-2-40-5-59 0 0 0 0 0 0-2-12 6-22 17-24 2 0 3 0 4 0 10 0 19 7 20 17 4 22 6 44 6 66 0 153-85 294-220 367z m-72-367c0 69-56 125-125 125s-125-56-125-125 56-125 125-125c69 0 125 56 125 125z m-208 0c0 46 37 83 83 83 46 0 83-37 83-83 0-46-37-83-83-83s-83 37-83 83z" horiz-adv-x="1000" />

<glyph glyph-name="wallet" unicode="&#xe8ca;" d="M813 558h-63v42c0 69-56 125-125 125h-437c-58 0-105-47-105-104v-521c0-69 56-125 125-125h605c57 0 104 47 104 104v375c0 58-47 104-104 104z m-625 125h437c46 0 83-37 83-83v-42h-520c-35 0-63 28-63 63s28 62 63 62z m687-500h-83c-46 0-84 38-84 84s38 83 84 83h83v-167z m0 209h-83c-69 0-125-56-125-125s56-125 125-125h83v-63c0-34-28-62-62-62h-605c-46 0-83 37-83 83v438c18-14 40-21 63-21h625c34 0 62-28 62-63v-62z" horiz-adv-x="1000" />

<glyph glyph-name="key-skeleton-alt" unicode="&#xe8cb;" d="M911 760c-8 8-22 9-30 1l-226-227c-1 0-1 0-1 0-1-1-1-1-1-1l-266-266c-32 25-72 41-116 41-104 0-188-84-188-187s84-188 188-188c103 0 187 84 187 188 0 44-16 84-41 116l252 252 73-73c4-4 10-6 15-6v0c6 0 11 2 15 6 8 8 8 21 0 29l-74 74 89 88 73-73c4-4 10-7 15-7 6 0 11 3 15 7 8 8 8 21 0 29l-74 74 95 94c7 8 7 21 0 29z m-640-785c-81 0-146 65-146 146s65 146 146 146c80 0 146-66 146-146 0-81-66-146-146-146z" horiz-adv-x="1000" />

<glyph glyph-name="redo" unicode="&#xe8cc;" d="M896 371c-12 0-21-9-21-21 0-139-77-266-199-331-183-97-411-28-509 155-97 183-28 411 155 509 173 92 385 35 490-125h-124c-12 0-21-9-21-20s9-21 21-21h166c0 0 0 0 0 0 12 0 21 9 21 21v166c0 12-9 21-21 21s-21-9-21-21v-104c-78 104-200 167-332 167-230 0-417-186-417-416 0-231 186-417 416-418 230 1 416 187 417 417 0 12-10 21-21 21z" horiz-adv-x="1000" />

<glyph glyph-name="rocket" unicode="&#xe8cd;" d="M900 738c0 8-8 12-17 16-158 42-329-12-433-137l-54-63-113 29c-45 17-91-4-112-45l-88-155c0 0 0-4-4-4-4-12 4-21 17-25l142-29c-13-37-25-75-30-112 0-9 0-13 5-17l125-121c4-4 8-4 16-4 0 0 0 0 0 0 38 4 79 12 117 25l29-138c0-8 13-16 21-16 4 0 8 0 8 4l154 87c38 21 55 67 46 109l-29 121 58 54c130 96 184 262 142 421z m-767-350l71 129c13 25 38 33 63 25l95-25-41-50c-25-34-50-67-67-104l-121 25z m534-330l-129-75-25 121c37 17 70 42 104 67l54 50 25-96c0-25-8-54-29-67z m66 280l-145-134c-63-54-142-87-225-96l-109 109c13 83 46 162 100 225l67 75c0 0 4 4 4 4l58 67c92 108 242 158 380 129 29-142-17-288-130-379z m-50 279c-46 0-79-38-79-79s38-80 79-80c46 0 79 38 79 80 1 41-33 79-79 79z m0-121c-21 0-37 17-37 37 0 21 16 38 37 38 21 0 38-17 38-38 0-20-17-37-38-37z" horiz-adv-x="1000" />

<glyph glyph-name="anchor" unicode="&#xe8ce;" d="M813 288h-125c-12 0-21-10-21-21s9-21 21-21h103c-10-145-125-260-270-270 0 0 0 0 0 0v416h83c12 0 21 9 21 21s-9 20-21 20h-83v86c59 10 104 61 104 123 0 69-56 125-125 125s-125-56-125-125c0-62 45-113 104-123v-86h-83c-12 0-21-9-21-20s9-21 21-21h83v-416c-142 10-259 123-270 270h104c11 0 20 9 20 21s-9 21-20 21h-125c-1 0-1 0-1 0-11-1-20-10-20-21 0-184 149-333 333-334 184 1 333 150 333 334 0 0 0 0 0 0 0 11-9 21-20 21z m-396 354c0 46 37 83 83 83 46 0 83-37 83-83 0-46-37-84-83-84s-83 38-83 84z" horiz-adv-x="1000" />

<glyph glyph-name="ellipsis-h" unicode="&#xe8cf;" d="M208 433c-46 0-83-37-83-83s37-83 83-83c46 0 84 37 84 83 0 46-38 83-84 83z m0-125c-23 0-41 19-41 42s18 42 41 42c23 0 42-19 42-42 0-23-19-42-42-42z m292 125c-46 0-83-37-83-83s37-83 83-83c46 0 83 37 83 83 0 46-37 83-83 83z m0-125c-23 0-42 19-42 42s19 42 42 42c23 0 42-19 42-42 0-23-19-42-42-42z m292 125c-46 0-84-37-84-83s38-83 84-83c46 0 83 37 83 83 0 46-37 83-83 83z m0-125c-23 0-42 19-42 42s19 42 42 42c23 0 41-19 41-42 0-23-18-42-41-42z" horiz-adv-x="1000" />

<glyph glyph-name="sync-slash" unicode="&#xe8d0;" d="M911 760c-8 8-22 9-30 1l-102-103c-25 23-52 43-81 59-184 99-409 45-531-117v104c0 12-10 21-21 21s-21-9-21-21v-166c0-1 0-1 0-1 0-11 9-20 21-20h167c11 0 20 9 20 21s-9 20-20 20h-124c13 20 28 40 45 57 141 142 368 146 516 14l-529-529c-62 69-96 157-96 250 0 20 2 40 5 59 2 11-6 22-17 24-12 2-23-6-24-17-20-125 18-252 102-345l-102-102c-3-4-6-9-6-15 0-11 10-21 21-21 6 0 11 3 15 6l792 792c7 8 7 21 0 29z m-57-577h-166c-12 0-21-9-21-20s9-21 21-21h124c-108-161-323-215-495-119-10 5-23 2-28-8-6-10-3-23 7-29 63-34 133-53 204-53 132 0 255 63 333 167v-104c0 0 0 0 0 0 0-12 10-21 21-21 0 0 0 0 0 0 12 0 21 9 21 21v167c0 0 0 0 0 0 0 11-9 20-21 20z m10 371c-6 9-19 13-29 7-10-5-13-18-8-28 32-56 48-119 48-183 0-20-2-40-5-59 0 0 0 0 0 0-2-12 6-22 17-24 2 0 3 0 4 0 10 0 19 7 20 17 4 22 6 44 6 66 0 71-19 141-53 204z" horiz-adv-x="1000" />

<glyph glyph-name="history-alt" unicode="&#xe8d1;" d="M697 717c-184 99-409 45-530-117v104c0 12-10 21-21 21s-21-9-21-21v-167c0-11 9-20 21-20h167c11 0 20 9 20 21s-9 20-20 20h-125c70 103 185 167 311 167 207 0 375-167 375-374 1-208-167-376-374-376-12 0-21-9-21-21s9-21 21-21c153 0 294 85 367 220 109 203 33 456-170 564z m-197-200c-12 0-21-10-21-21v-146c0-12 9-21 21-21h104c12 0 21 9 21 21s-9 21-21 21h-83v125c0 11-9 21-21 21z" horiz-adv-x="1000" />

<glyph glyph-name="favorite" unicode="&#xe8d2;" d="M913 428c4 23-12 44-35 47l-235 35-106 214c-3 7-9 12-15 16-21 12-47 5-59-16l-106-214-235-35c-9-1-17-5-24-12-16-16-16-43 1-59l170-167-40-236c0-2-1-4-1-7 0-23 19-41 42-42 7 0 14 2 20 5l210 112 210-112c8-4 18-5 27-4 23 4 38 25 34 48l-40 236 170 167c7 7 11 15 12 24z m-219-169c-5-4-7-11-6-18l42-247-220 117c-6 3-14 3-20 0l-220-117 42 247c1 7-1 14-6 18l-178 175 246 36c7 1 13 5 16 12l110 224 110-224c3-7 9-11 16-12l246-36-178-175z" horiz-adv-x="1000" />

<glyph glyph-name="ellipsis-v" unicode="&#xe8d3;" d="M500 558c46 0 83 38 83 84 0 46-37 83-83 83s-83-37-83-83 37-84 83-84z m0 125c23 0 42-18 42-41 0-23-19-42-42-42s-42 19-42 42 19 41 42 41z m0-250c-46 0-83-37-83-83s37-83 83-83c46 0 83 37 83 83 0 46-37 83-83 83z m0-125c-23 0-42 19-42 42s19 42 42 42c23 0 42-19 42-42 0-23-19-42-42-42z m0-166c-46 0-83-38-83-84s37-83 83-83c46 0 83 37 83 83 0 46-37 84-83 84z m0-125c-23 0-42 18-42 41s19 42 42 42c23 0 42-19 42-42 0-23-19-41-42-41z" horiz-adv-x="1000" />

<glyph glyph-name="link-h" unicode="&#xe8d4;" d="M438 183h-146c-92 0-167 75-167 167s75 167 167 167h145c12 0 21 9 21 21s-9 20-20 20h-146c-115 0-209-93-209-208s94-208 209-208h145c12 0 21 9 21 21s-9 20-20 20z m-105 167c0-12 10-21 21-21h292c11 0 21 9 21 21s-10 21-21 21h-292c-11 0-21-9-21-21z m375 208h-145c-12 0-21-9-21-20s9-21 21-21h145c92 0 167-75 167-167s-75-167-167-167h-145c-12 0-21-9-21-20s9-21 21-21h145c115 0 209 93 209 208s-94 208-209 208z" horiz-adv-x="1000" />

<glyph glyph-name="sync-exclamation" unicode="&#xe8d5;" d="M500 199c14 0 26 12 26 26s-12 26-26 26-26-12-26-26 12-26 26-26z m354-16h-166c-12 0-21-9-21-20s9-21 21-21h124c-70-103-186-167-311-167-208 0-376 168-376 375 0 20 2 40 5 59 2 11-6 22-17 24-12 2-23-6-24-17-4-22-6-44-6-66 1-230 187-416 417-417 132 0 255 63 333 167v-104c0-12 10-21 21-21h0c12 0 21 9 21 21v167c0 11-9 20-21 20z m-354 125h0c12 0 21 10 21 21v125c0 12-9 21-21 21s-21-9-21-21v-125c0-11 9-21 21-21z m197 409c-184 99-409 45-530-117v104c0 12-10 21-21 21s-21-9-21-21v-167c0-11 9-20 21-20h167c11 0 20 9 20 21s-9 20-20 20h-125c70 103 186 167 311 167 208 0 376-168 376-375 0-20-2-40-5-59 0 0 0 0 0 0-2-12 6-22 17-24 2 0 3 0 4 0 10 0 19 7 20 17 4 22 6 44 6 66 0 153-85 294-220 367z" horiz-adv-x="1000" />
</font>
</defs>
</svg>
