<svg width="36" height="36" xmlns="http://www.w3.org/2000/svg"><g fill="none" fill-rule="evenodd"><circle fill="#00ADEF" cx="18" cy="18" r="18"/><path d="M25.992 15.007c-.072 1.463-1.16 3.466-3.263 6.01C20.554 23.671 18.713 25 17.207 25c-.932 0-1.72-.81-2.366-2.43l-1.291-4.457c-.478-1.62-.992-2.43-1.542-2.43-.12 0-.538.236-1.255.708L10 15.48c.782-.647 1.56-1.3 2.33-1.958 1.052-.855 1.841-1.305 2.367-1.35 1.243-.113 2.008.686 2.295 2.396.31 1.846.526 2.994.645 3.444.36 1.53.753 2.295 1.184 2.295.334 0 .836-.495 1.506-1.485.67-.99 1.028-1.744 1.075-2.262.096-.855-.262-1.283-1.075-1.283-.383 0-.777.08-1.184.237.79-2.408 2.295-3.579 4.518-3.511 1.65.045 2.427 1.046 2.331 3.004Z" fill="#FFF" fill-rule="nonzero"/></g></svg>