<svg width="36" height="36" viewBox="0 0 36 36" xmlns="http://www.w3.org/2000/svg">
    <circle fill="#6366F1" cx="18" cy="18" r="18" />
    <path d="M24.446 19.335a2.5 2.5 0 00-3.522 3.194c-.845.63-1.87.97-2.924.971a4.979 4.979 0 01-1.113-.135 4.436 4.436 0 01-1.343 1.682 6.91 6.91 0 006.9-1.165 2.5 2.5 0 002-4.547h.002zM20.431 11.938a2.5 2.5 0 10-.4 2.014 5.027 5.027 0 012.723 3.078c.148-.018.297-.028.446-.03a4.5 4.5 0 011.7.334 7.023 7.023 0 00-4.469-5.396zM14.969 20.25a2.49 2.49 0 00-1.932-1.234A4.624 4.624 0 0113 18.5a4.97 4.97 0 011.348-3.391 4.456 4.456 0 01-.788-2.016A6.989 6.989 0 0011 18.5c.003.391.04.781.11 1.166a2.5 2.5 0 103.859.584z" fill="#EEF2FF" />
</svg>