<?xml version="1.0" standalone="no"?>
<!DOCTYPE svg PUBLIC "-//W3C//DTD SVG 1.1//EN" "http://www.w3.org/Graphics/SVG/1.1/DTD/svg11.dtd">
<svg xmlns="http://www.w3.org/2000/svg">
<metadata>IconScout</metadata>
<defs>
<font id="unicons-solid" horiz-adv-x="1000" >
<font-face font-family="unicons-solid" font-weight="400" font-stretch="normal" units-per-em="1000" ascent="850" descent="-150" />
<missing-glyph horiz-adv-x="1000" />
<glyph glyph-name="web-section-alt" unicode="&#xe800;" d="M83 725v-750c0-25 17-42 42-42h208v834h-208c-25 0-42-17-42-42z m792 42h-458v-834h458c25 0 42 17 42 42v750c0 25-17 42-42 42z" horiz-adv-x="1000" />

<glyph glyph-name="web-section-alt" unicode="&#xe800;" d="M83 725v-750c0-25 17-42 42-42h208v834h-208c-25 0-42-17-42-42z m792 42h-458v-834h458c25 0 42 17 42 42v750c0 25-17 42-42 42z" horiz-adv-x="1000" />

<glyph glyph-name="corner-up-right" unicode="&#xe801;" d="M808 563l-191 191c-17 17-42 17-59 0-16-16-16-41 0-58l121-121h-333c-92 0-167-75-167-167v-433c0-25 17-42 42-42 25 0 42 17 42 42v433c0 46 37 84 83 84h333l-121-121c-8-8-12-17-12-29 0-25 16-42 41-42 13 0 21 4 30 13l191 191c0 0 0 0 0 0 17 17 17 42 0 59z" horiz-adv-x="1000" />

<glyph glyph-name="corner-up-right" unicode="&#xe801;" d="M808 563l-191 191c-17 17-42 17-59 0-16-16-16-41 0-58l121-121h-333c-92 0-167-75-167-167v-433c0-25 17-42 42-42 25 0 42 17 42 42v433c0 46 37 84 83 84h333l-121-121c-8-8-12-17-12-29 0-25 16-42 41-42 13 0 21 4 30 13l191 191c0 0 0 0 0 0 17 17 17 42 0 59z" horiz-adv-x="1000" />

<glyph glyph-name="corner-right-down" unicode="&#xe802;" d="M904 292c-16 16-41 16-58 0l-121-121v333c0 92-75 167-167 167h-433c-25 0-42-17-42-42s17-42 42-42h433c46 0 84-37 84-83v-333l-121 121c-17 16-42 16-59 0-16-17-16-42 0-59l192-191c8-9 17-13 29-13 13 0 21 4 29 13l192 191c17 17 17 46 0 59z" horiz-adv-x="1000" />

<glyph glyph-name="corner-right-down" unicode="&#xe802;" d="M904 292c-16 16-41 16-58 0l-121-121v333c0 92-75 167-167 167h-433c-25 0-42-17-42-42s17-42 42-42h433c46 0 84-37 84-83v-333l-121 121c-17 16-42 16-59 0-16-17-16-42 0-59l192-191c8-9 17-13 29-13 13 0 21 4 29 13l192 191c17 17 17 46 0 59z" horiz-adv-x="1000" />

<glyph glyph-name="download-alt" unicode="&#xe803;" d="M750 475h-83c-25 0-42-17-42-42s17-41 42-41h83c25 0 42-17 42-42v-292c0-25-17-41-42-41h-500c-25 0-42 16-42 41v292c0 25 17 42 42 42h83c25 0 42 16 42 41s-17 42-42 42h-83c-71 0-125-54-125-125v-292c0-71 54-125 125-125h500c71 0 125 54 125 125v292c0 71-54 125-125 125z m-404-237l125-125c8-9 17-13 29-13 13 0 21 4 29 13l125 125c17 16 17 41 0 58-16 17-41 17-58 0l-54-54v483c0 25-17 42-42 42s-42-17-42-42v-483l-54 54c-17 17-42 17-58 0-17-17-17-42 0-58z" horiz-adv-x="1000" />

<glyph glyph-name="download-alt" unicode="&#xe803;" d="M750 475h-83c-25 0-42-17-42-42s17-41 42-41h83c25 0 42-17 42-42v-292c0-25-17-41-42-41h-500c-25 0-42 16-42 41v292c0 25 17 42 42 42h83c25 0 42 16 42 41s-17 42-42 42h-83c-71 0-125-54-125-125v-292c0-71 54-125 125-125h500c71 0 125 54 125 125v292c0 71-54 125-125 125z m-404-237l125-125c8-9 17-13 29-13 13 0 21 4 29 13l125 125c17 16 17 41 0 58-16 17-41 17-58 0l-54-54v483c0 25-17 42-42 42s-42-17-42-42v-483l-54 54c-17 17-42 17-58 0-17-17-17-42 0-58z" horiz-adv-x="1000" />

<glyph glyph-name="arrow-circle-down" unicode="&#xe804;" d="M500 767c-229 0-417-188-417-417s188-417 417-417 417 188 417 417-188 417-417 417z m154-446l-125-125c-4-4-8-8-12-8-9-5-21-5-34 0-4 0-8 4-12 8l-125 125c0 0 0 0 0 0-17 17-17 42 0 58 0 0 0 0 0 0 17 17 42 17 58 0l54-54v150c0 25 17 42 42 42s42-17 42-42v-150l54 54c16 17 41 17 58 0 17-16 17-41 0-58z" horiz-adv-x="1000" />

<glyph glyph-name="arrow-circle-down" unicode="&#xe804;" d="M500 767c-229 0-417-188-417-417s188-417 417-417 417 188 417 417-188 417-417 417z m154-446l-125-125c-4-4-8-8-12-8-9-5-21-5-34 0-4 0-8 4-12 8l-125 125c0 0 0 0 0 0-17 17-17 42 0 58 0 0 0 0 0 0 17 17 42 17 58 0l54-54v150c0 25 17 42 42 42s42-17 42-42v-150l54 54c16 17 41 17 58 0 17-16 17-41 0-58z" horiz-adv-x="1000" />

<glyph glyph-name="corner-left-down" unicode="&#xe805;" d="M875 671h-392c-116 0-208-92-208-208v-292l-121 121c-16 16-41 16-58 0-17-17-17-42 0-59l192-191c8-9 16-13 29-13 12 0 21 4 29 13l192 191c16 17 16 42 0 59-17 16-42 16-59 0l-121-121v292c0 70 55 125 125 125h392c25 0 42 16 42 41s-17 42-42 42z" horiz-adv-x="1000" />

<glyph glyph-name="corner-left-down" unicode="&#xe805;" d="M875 671h-392c-116 0-208-92-208-208v-292l-121 121c-16 16-41 16-58 0-17-17-17-42 0-59l192-191c8-9 16-13 29-13 12 0 21 4 29 13l192 191c16 17 16 42 0 59-17 16-42 16-59 0l-121-121v292c0 70 55 125 125 125h392c25 0 42 16 42 41s-17 42-42 42z" horiz-adv-x="1000" />

<glyph glyph-name="angle-double-down" unicode="&#xe806;" d="M471 371c8-8 17-13 29-13 13 0 21 5 29 13l125 125c17 17 17 42 0 58-16 17-41 17-58 0l-96-91-96 95c-17 17-42 17-58 0-17-16-17-41 0-58l125-129z m125-42l-96-96-96 96c-16 17-41 17-58 0-17-16-17-41 0-58l125-125c8-8 17-13 29-13 13 0 21 5 29 13l125 125c17 17 17 42 0 58-16 13-42 13-58 0z" horiz-adv-x="1000" />

<glyph glyph-name="angle-double-down" unicode="&#xe806;" d="M471 371c8-8 17-13 29-13 13 0 21 5 29 13l125 125c17 17 17 42 0 58-16 17-41 17-58 0l-96-91-96 95c-17 17-42 17-58 0-17-16-17-41 0-58l125-129z m125-42l-96-96-96 96c-16 17-41 17-58 0-17-16-17-41 0-58l125-125c8-8 17-13 29-13 13 0 21 5 29 13l125 125c17 17 17 42 0 58-16 13-42 13-58 0z" horiz-adv-x="1000" />

<glyph glyph-name="corner-down-right" unicode="&#xe807;" d="M808 196l-191 196c-17 16-42 16-59 0-16-17-16-42 0-59l121-120h-291c-71 0-125 54-125 125v387c0 25-17 42-42 42s-42-17-42-42v-392c0-116 92-208 209-208h291l-121-121c-8-8-12-17-12-29 0-25 16-42 41-42 13 0 21 4 30 13l191 192c0 0 0 0 0 0 17 16 17 41 0 58z" horiz-adv-x="1000" />

<glyph glyph-name="corner-down-right" unicode="&#xe807;" d="M808 196l-191 196c-17 16-42 16-59 0-16-17-16-42 0-59l121-120h-291c-71 0-125 54-125 125v387c0 25-17 42-42 42s-42-17-42-42v-392c0-116 92-208 209-208h291l-121-121c-8-8-12-17-12-29 0-25 16-42 41-42 13 0 21 4 30 13l191 192c0 0 0 0 0 0 17 16 17 41 0 58z" horiz-adv-x="1000" />

<glyph glyph-name="bag" unicode="&#xe808;" d="M792 600h-125v42c0 46-38 83-84 83h-166c-46 0-84-37-84-83v-42h-125c-71 0-125-54-125-125v-375c0-71 55-125 125-125h584c70 0 125 54 125 125v375c0 71-55 125-125 125z m-375 42h166v-42h-166v42z m416-542c0-25-16-42-41-42h-584c-25 0-41 17-41 42v233l196-66c4 0 8 0 12 0h250c4 0 8 0 13 4l195 67v-238z" horiz-adv-x="1000" />

<glyph glyph-name="bag" unicode="&#xe808;" d="M792 600h-125v42c0 46-38 83-84 83h-166c-46 0-84-37-84-83v-42h-125c-71 0-125-54-125-125v-375c0-71 55-125 125-125h584c70 0 125 54 125 125v375c0 71-55 125-125 125z m-375 42h166v-42h-166v42z m416-542c0-25-16-42-41-42h-584c-25 0-41 17-41 42v233l196-66c4 0 8 0 12 0h250c4 0 8 0 13 4l195 67v-238z" horiz-adv-x="1000" />

<glyph glyph-name="web-grid" unicode="&#xe809;" d="M875 767h-208v-834h208c25 0 42 17 42 42v750c0 25-17 42-42 42z m-792-792c0-25 17-42 42-42h458v375h-500v-333z m0 750v-333h500v375h-458c-25 0-42-17-42-42z" horiz-adv-x="1000" />

<glyph glyph-name="web-grid" unicode="&#xe809;" d="M875 767h-208v-834h208c25 0 42 17 42 42v750c0 25-17 42-42 42z m-792-792c0-25 17-42 42-42h458v375h-500v-333z m0 750v-333h500v375h-458c-25 0-42-17-42-42z" horiz-adv-x="1000" />

<glyph glyph-name="briefcase" unicode="&#xe80a;" d="M708 204v-62c0-25-16-42-41-42s-42 17-42 42v62h-250v-62c0-25-17-42-42-42s-41 17-41 42v62h-84c-29 0-58 9-83 21v-167c0-70 54-125 125-125h500c71 0 125 55 125 125v167c-25-12-54-21-83-21h-84z m167 396h-167v42c0 71-54 125-125 125h-166c-71 0-125-54-125-125v-42h-167c-25 0-42-17-42-42v-166c0-71 55-125 125-125h584c70 0 125 54 125 125v166c0 25-17 42-42 42z m-250 0h-250v42c0 25 17 41 42 41h166c25 0 42-16 42-41v-42z" horiz-adv-x="1000" />

<glyph glyph-name="briefcase" unicode="&#xe80a;" d="M708 204v-62c0-25-16-42-41-42s-42 17-42 42v62h-250v-62c0-25-17-42-42-42s-41 17-41 42v62h-84c-29 0-58 9-83 21v-167c0-70 54-125 125-125h500c71 0 125 55 125 125v167c-25-12-54-21-83-21h-84z m167 396h-167v42c0 71-54 125-125 125h-166c-71 0-125-54-125-125v-42h-167c-25 0-42-17-42-42v-166c0-71 55-125 125-125h584c70 0 125 54 125 125v166c0 25-17 42-42 42z m-250 0h-250v42c0 25 17 41 42 41h166c25 0 42-16 42-41v-42z" horiz-adv-x="1000" />

<glyph glyph-name="direction" unicode="&#xe80b;" d="M596 233l-96-95-96 95c-16 17-41 17-58 0-17-16-17-41 0-58l125-125c8-8 17-13 29-13 13 0 21 5 29 13l125 125c17 17 17 42 0 58-16 17-42 17-58 0z m-192 192l96 96 96-96c8-8 16-12 29-12 12 0 21 4 29 12 17 17 17 42 0 58l-125 125c0 0 0 0 0 0-17 17-42 17-58 0l-125-125c-17-16-17-41 0-58 16-17 42-17 58 0z" horiz-adv-x="1000" />

<glyph glyph-name="direction" unicode="&#xe80b;" d="M596 233l-96-95-96 95c-16 17-41 17-58 0-17-16-17-41 0-58l125-125c8-8 17-13 29-13 13 0 21 5 29 13l125 125c17 17 17 42 0 58-16 17-42 17-58 0z m-192 192l96 96 96-96c8-8 16-12 29-12 12 0 21 4 29 12 17 17 17 42 0 58l-125 125c0 0 0 0 0 0-17 17-42 17-58 0l-125-125c-17-16-17-41 0-58 16-17 42-17 58 0z" horiz-adv-x="1000" />

<glyph glyph-name="upload-alt" unicode="&#xe80c;" d="M750 475h-83c-25 0-42-17-42-42s17-41 42-41h83c25 0 42-17 42-42v-292c0-25-17-41-42-41h-500c-25 0-42 16-42 41v292c0 25 17 42 42 42h83c25 0 42 16 42 41s-17 42-42 42h-83c-71 0-125-54-125-125v-292c0-71 54-125 125-125h500c71 0 125 54 125 125v292c0 71-54 125-125 125z m-346 96l54 54v-483c0-25 17-42 42-42h0c25 0 42 17 42 42v483l54-54c8-8 16-13 29-13 13 0 21 5 29 13 17 17 17 42 0 58l-125 125c0 0 0 0 0 0-16 17-42 17-58 0l-125-125c-17-16-17-41 0-58 16-17 42-17 58 0z" horiz-adv-x="1000" />

<glyph glyph-name="upload-alt" unicode="&#xe80c;" d="M750 475h-83c-25 0-42-17-42-42s17-41 42-41h83c25 0 42-17 42-42v-292c0-25-17-41-42-41h-500c-25 0-42 16-42 41v292c0 25 17 42 42 42h83c25 0 42 16 42 41s-17 42-42 42h-83c-71 0-125-54-125-125v-292c0-71 54-125 125-125h500c71 0 125 54 125 125v292c0 71-54 125-125 125z m-346 96l54 54v-483c0-25 17-42 42-42h0c25 0 42 17 42 42v483l54-54c8-8 16-13 29-13 13 0 21 5 29 13 17 17 17 42 0 58l-125 125c0 0 0 0 0 0-16 17-42 17-58 0l-125-125c-17-16-17-41 0-58 16-17 42-17 58 0z" horiz-adv-x="1000" />

<glyph glyph-name="arrow-circle-up" unicode="&#xe80d;" d="M500 767c-229 0-417-188-417-417s188-417 417-417 417 188 417 417c0 229-188 417-417 417z m154-446c0 0 0 0 0 0-16-17-41-17-58 0 0 0 0 0 0 0l-54 54v-150c0-25-17-42-42-42s-42 17-42 42v150l-54-54c-17-17-42-17-58 0-17 17-17 42 0 58l125 125c16 17 41 17 58 0 0 0 0 0 0 0l125-125c17-16 17-41 0-58z" horiz-adv-x="1000" />

<glyph glyph-name="arrow-circle-up" unicode="&#xe80d;" d="M500 767c-229 0-417-188-417-417s188-417 417-417 417 188 417 417c0 229-188 417-417 417z m154-446c0 0 0 0 0 0-16-17-41-17-58 0 0 0 0 0 0 0l-54 54v-150c0-25-17-42-42-42s-42 17-42 42v150l-54-54c-17-17-42-17-58 0-17 17-17 42 0 58l125 125c16 17 41 17 58 0 0 0 0 0 0 0l125-125c17-16 17-41 0-58z" horiz-adv-x="1000" />

<glyph glyph-name="signal-alt-3" unicode="&#xe80e;" d="M250 225h-167c-25 0-41-17-41-42v-250c0-25 16-41 41-41h167c25 0 42 16 42 41v250c0 25-17 42-42 42z m333 250h-166c-25 0-42-17-42-42v-500c0-25 17-41 42-41h166c25 0 42 16 42 41v500c0 25-17 42-42 42z m334 333h-167c-25 0-42-16-42-41v-834c0-25 17-41 42-41h167c25 0 41 16 41 41v834c0 25-16 41-41 41z" horiz-adv-x="1000" />

<glyph glyph-name="signal-alt-3" unicode="&#xe80e;" d="M250 225h-167c-25 0-41-17-41-42v-250c0-25 16-41 41-41h167c25 0 42 16 42 41v250c0 25-17 42-42 42z m333 250h-166c-25 0-42-17-42-42v-500c0-25 17-41 42-41h166c25 0 42 16 42 41v500c0 25-17 42-42 42z m334 333h-167c-25 0-42-16-42-41v-834c0-25 17-41 42-41h167c25 0 41 16 41 41v834c0 25-16 41-41 41z" horiz-adv-x="1000" />

<glyph glyph-name="sorting" unicode="&#xe80f;" d="M654 108l-125 125c-16 17-42 17-58 0l-125-125c-17-16-17-41 0-58 17-17 42-17 58 0l96 96 96-96c8-8 16-12 29-12 12 0 21 4 29 12 17 17 17 42 0 58z m-183 317c8-8 17-12 29-12 13 0 21 4 29 12l125 125c17 17 17 42 0 58-16 17-41 17-58 0l-96-95-96 95c-17 17-42 17-58 0-17-16-17-41 0-58l125-125z" horiz-adv-x="1000" />

<glyph glyph-name="sorting" unicode="&#xe80f;" d="M654 108l-125 125c-16 17-42 17-58 0l-125-125c-17-16-17-41 0-58 17-17 42-17 58 0l96 96 96-96c8-8 16-12 29-12 12 0 21 4 29 12 17 17 17 42 0 58z m-183 317c8-8 17-12 29-12 13 0 21 4 29 12l125 125c17 17 17 42 0 58-16 17-41 17-58 0l-96-95-96 95c-17 17-42 17-58 0-17-16-17-41 0-58l125-125z" horiz-adv-x="1000" />

<glyph glyph-name="window-section" unicode="&#xe810;" d="M83-25c0-25 17-42 42-42h208v500h-250v-458z m584-42h208c25 0 42 17 42 42v458h-250v-500z m-250 0h166v500h-166v-500z m458 834h-750c-25 0-42-17-42-42v-208h834v208c0 25-17 42-42 42z" horiz-adv-x="1000" />

<glyph glyph-name="window-section" unicode="&#xe810;" d="M83-25c0-25 17-42 42-42h208v500h-250v-458z m584-42h208c25 0 42 17 42 42v458h-250v-500z m-250 0h166v500h-166v-500z m458 834h-750c-25 0-42-17-42-42v-208h834v208c0 25-17 42-42 42z" horiz-adv-x="1000" />

<glyph glyph-name="corner-down-left" unicode="&#xe811;" d="M779 767c-25 0-41-17-41-42v-433c0-46-38-84-84-84h-333l121 121c16 17 16 42 0 59s-42 16-59 0l-191-192 0 0c-17-17-17-42 0-58l191-192c9-8 21-13 30-13 12 0 20 4 29 13 16 16 16 41 0 58l-121 121h333c92 0 167 75 167 167v433c0 25-21 42-42 42z" horiz-adv-x="1000" />

<glyph glyph-name="corner-down-left" unicode="&#xe811;" d="M779 767c-25 0-41-17-41-42v-433c0-46-38-84-84-84h-333l121 121c16 17 16 42 0 59s-42 16-59 0l-191-192 0 0c-17-17-17-42 0-58l191-192c9-8 21-13 30-13 12 0 20 4 29 13 16 16 16 41 0 58l-121 121h333c92 0 167 75 167 167v433c0 25-21 42-42 42z" horiz-adv-x="1000" />

<glyph glyph-name="align-center-justify" unicode="&#xe812;" d="M708 58h-416c-25 0-42-16-42-41s17-42 42-42h416c25 0 42 17 42 42s-17 41-42 41z m-583 584h750c25 0 42 16 42 41s-17 42-42 42h-750c-25 0-42-17-42-42s17-41 42-41z m750-417h-750c-25 0-42-17-42-42s17-41 42-41h750c25 0 42 16 42 41s-17 42-42 42z m0 167h-750c-25 0-42-17-42-42s17-42 42-42h750c25 0 42 17 42 42s-17 42-42 42z m0 166h-750c-25 0-42-16-42-41s17-42 42-42h750c25 0 42 17 42 42s-17 41-42 41z" horiz-adv-x="1000" />

<glyph glyph-name="align-center-justify" unicode="&#xe812;" d="M708 58h-416c-25 0-42-16-42-41s17-42 42-42h416c25 0 42 17 42 42s-17 41-42 41z m-583 584h750c25 0 42 16 42 41s-17 42-42 42h-750c-25 0-42-17-42-42s17-41 42-41z m750-417h-750c-25 0-42-17-42-42s17-41 42-41h750c25 0 42 16 42 41s-17 42-42 42z m0 167h-750c-25 0-42-17-42-42s17-42 42-42h750c25 0 42 17 42 42s-17 42-42 42z m0 166h-750c-25 0-42-16-42-41s17-42 42-42h750c25 0 42 17 42 42s-17 41-42 41z" horiz-adv-x="1000" />

<glyph glyph-name="dialpad" unicode="&#xe813;" d="M583 467h-166c-17 0-34-13-34-34v-166c0-17 13-34 34-34h166c17 0 34 13 34 34v166c0 17-17 34-34 34z m0-292h-166c-17 0-34-12-34-33v-167c0-17 13-33 34-33h166c17 0 34 12 34 33v167c0 16-17 33-34 33z m-291 583h-167c-17 0-33-16-33-33v-167c0-16 12-33 33-33h167c16 0 33 13 33 33v167c0 17-17 33-33 33z m0-291h-167c-17 0-33-13-33-34v-166c0-17 12-34 33-34h167c16 0 33 13 33 34v166c0 17-17 34-33 34z m583 291h-167c-16 0-33-12-33-33v-167c0-16 13-33 33-33h167c17 0 33 13 33 33v167c0 17-16 33-33 33z m-292 0h-166c-17 0-34-16-34-33v-167c0-16 13-33 34-33h166c17 0 34 13 34 33v167c0 17-17 33-34 33z m292-291h-167c-16 0-33-13-33-34v-166c0-17 13-34 33-34h167c17 0 33 13 33 34v166c0 17-16 34-33 34z" horiz-adv-x="1000" />

<glyph glyph-name="dialpad" unicode="&#xe813;" d="M583 467h-166c-17 0-34-13-34-34v-166c0-17 13-34 34-34h166c17 0 34 13 34 34v166c0 17-17 34-34 34z m0-292h-166c-17 0-34-12-34-33v-167c0-17 13-33 34-33h166c17 0 34 12 34 33v167c0 16-17 33-34 33z m-291 583h-167c-17 0-33-16-33-33v-167c0-16 12-33 33-33h167c16 0 33 13 33 33v167c0 17-17 33-33 33z m0-291h-167c-17 0-33-13-33-34v-166c0-17 12-34 33-34h167c16 0 33 13 33 34v166c0 17-17 34-33 34z m583 291h-167c-16 0-33-12-33-33v-167c0-16 13-33 33-33h167c17 0 33 13 33 33v167c0 17-16 33-33 33z m-292 0h-166c-17 0-34-16-34-33v-167c0-16 13-33 34-33h166c17 0 34 13 34 33v167c0 17-17 33-34 33z m292-291h-167c-16 0-33-13-33-34v-166c0-17 13-34 33-34h167c17 0 33 13 33 34v166c0 17-16 34-33 34z" horiz-adv-x="1000" />

<glyph glyph-name="window-grid" unicode="&#xe814;" d="M83 725v-750c0-25 17-42 42-42h208v834h-208c-25 0-42-17-42-42z m792 42h-458v-375h500v333c0 25-17 42-42 42z m-458-834h458c25 0 42 17 42 42v333h-500v-375z" horiz-adv-x="1000" />

<glyph glyph-name="window-grid" unicode="&#xe814;" d="M83 725v-750c0-25 17-42 42-42h208v834h-208c-25 0-42-17-42-42z m792 42h-458v-375h500v333c0 25-17 42-42 42z m-458-834h458c25 0 42 17 42 42v333h-500v-375z" horiz-adv-x="1000" />

<glyph glyph-name="angle-double-up" unicode="&#xe815;" d="M529 329c0 0 0 0 0 0-16 17-42 17-58 0l-125-125c-17-16-17-41 0-58 17-17 42-17 58 0l96 96 96-96c8-8 16-13 29-13 12 0 21 5 29 13 17 17 17 42 0 58l-125 125z m-125 42l96 96 96-96c8-8 16-13 29-13 12 0 21 5 29 13 17 17 17 42 0 58l-125 125c0 0 0 0 0 0-17 17-42 17-58 0l-125-125c-17-16-17-41 0-58 16-13 42-13 58 0z" horiz-adv-x="1000" />

<glyph glyph-name="angle-double-up" unicode="&#xe815;" d="M529 329c0 0 0 0 0 0-16 17-42 17-58 0l-125-125c-17-16-17-41 0-58 17-17 42-17 58 0l96 96 96-96c8-8 16-13 29-13 12 0 21 5 29 13 17 17 17 42 0 58l-125 125z m-125 42l96 96 96-96c8-8 16-13 29-13 12 0 21 5 29 13 17 17 17 42 0 58l-125 125c0 0 0 0 0 0-17 17-42 17-58 0l-125-125c-17-16-17-41 0-58 16-13 42-13 58 0z" horiz-adv-x="1000" />

<glyph glyph-name="corner-up-left" unicode="&#xe816;" d="M612 575h-291l121 121c16 17 16 42 0 58-17 17-42 17-59 0l-191-191 0 0c-17-17-17-42 0-59l191-196c9-8 17-12 29-12v0c13 0 21 4 30 12 16 17 16 42 0 59l-121 125h292c70 0 125-54 125-125v-392c0-25 16-42 41-42s42 17 42 42v392c0 112-96 208-209 208z" horiz-adv-x="1000" />

<glyph glyph-name="corner-up-left" unicode="&#xe816;" d="M612 575h-291l121 121c16 17 16 42 0 58-17 17-42 17-59 0l-191-191 0 0c-17-17-17-42 0-59l191-196c9-8 17-12 29-12v0c13 0 21 4 30 12 16 17 16 42 0 59l-121 125h292c70 0 125-54 125-125v-392c0-25 16-42 41-42s42 17 42 42v392c0 112-96 208-209 208z" horiz-adv-x="1000" />

<glyph glyph-name="angle-right" unicode="&#xe817;" d="M413 133c-25 0-42 17-42 42 0 13 4 21 12 29l146 146-146 146c-16 17-16 42 0 58 17 17 42 17 59 0l175-175c16-16 16-41 0-58 0 0 0 0 0 0l-175-175c-9-8-21-13-29-13z" horiz-adv-x="1000" />

<glyph glyph-name="angle-right" unicode="&#xe817;" d="M413 133c-25 0-42 17-42 42 0 13 4 21 12 29l146 146-146 146c-16 17-16 42 0 58 17 17 42 17 59 0l175-175c16-16 16-41 0-58 0 0 0 0 0 0l-175-175c-9-8-21-13-29-13z" horiz-adv-x="1000" />

<glyph glyph-name="schedule" unicode="&#xe818;" d="M792 683h-42v42c0 25-17 42-42 42s-41-17-41-42v-42h-334v42c0 25-16 42-41 42s-42-17-42-42v-42h-42c-71 0-125-54-125-125v-41h834v41c0 71-55 125-125 125z m-709-625c0-71 55-125 125-125h584c70 0 125 54 125 125v375h-834v-375z m625 292c25 0 42-17 42-42s-17-41-42-41-41 16-41 41 16 42 41 42z m0-167c25 0 42-16 42-41s-17-42-42-42-41 17-41 42 16 41 41 41z m-208 167c25 0 42-17 42-42s-17-41-42-41-42 16-42 41 17 42 42 42z m0-167c25 0 42-16 42-41s-17-42-42-42-42 17-42 42 17 41 42 41z m-208 167c25 0 41-17 41-42s-16-41-41-41-42 16-42 41 17 42 42 42z m0-167c25 0 41-16 41-41s-16-42-41-42-42 17-42 42 17 41 42 41z" horiz-adv-x="1000" />

<glyph glyph-name="schedule" unicode="&#xe818;" d="M792 683h-42v42c0 25-17 42-42 42s-41-17-41-42v-42h-334v42c0 25-16 42-41 42s-42-17-42-42v-42h-42c-71 0-125-54-125-125v-41h834v41c0 71-55 125-125 125z m-709-625c0-71 55-125 125-125h584c70 0 125 54 125 125v375h-834v-375z m625 292c25 0 42-17 42-42s-17-41-42-41-41 16-41 41 16 42 41 42z m0-167c25 0 42-16 42-41s-17-42-42-42-41 17-41 42 16 41 41 41z m-208 167c25 0 42-17 42-42s-17-41-42-41-42 16-42 41 17 42 42 42z m0-167c25 0 42-16 42-41s-17-42-42-42-42 17-42 42 17 41 42 41z m-208 167c25 0 41-17 41-42s-16-41-41-41-42 16-42 41 17 42 42 42z m0-167c25 0 41-16 41-41s-16-42-41-42-42 17-42 42 17 41 42 41z" horiz-adv-x="1000" />

<glyph glyph-name="comment-dots" unicode="&#xe819;" d="M500 767c-229 0-417-188-417-417 0-96 34-187 96-262l-83-84c-17-17-17-42 0-58 8-8 17-13 29-13h375c229 0 417 188 417 417s-188 417-417 417z m-167-459c-25 0-41 17-41 42s16 42 41 42 42-17 42-42-17-42-42-42z m167 0c-25 0-42 17-42 42s17 42 42 42 42-17 42-42-17-42-42-42z m167 0c-25 0-42 17-42 42s17 42 42 42 41-17 41-42-16-42-41-42z" horiz-adv-x="1000" />

<glyph glyph-name="comment-dots" unicode="&#xe819;" d="M500 767c-229 0-417-188-417-417 0-96 34-187 96-262l-83-84c-17-17-17-42 0-58 8-8 17-13 29-13h375c229 0 417 188 417 417s-188 417-417 417z m-167-459c-25 0-41 17-41 42s16 42 41 42 42-17 42-42-17-42-42-42z m167 0c-25 0-42 17-42 42s17 42 42 42 42-17 42-42-17-42-42-42z m167 0c-25 0-42 17-42 42s17 42 42 42 41-17 41-42-16-42-41-42z" horiz-adv-x="1000" />

<glyph glyph-name="graph-bar" unicode="&#xe81a;" d="M250 308h-167c-25 0-41-16-41-41 0 0 0 0 0 0v-334c0-25 16-41 41-41 0 0 0 0 0 0h167c25 0 42 16 42 41 0 0 0 0 0 0v334c0 25-17 41-42 41 0 0 0 0 0 0z m667 167h-167c-25 0-42-17-42-42 0 0 0 0 0 0v-500c0-25 17-41 42-41 0 0 0 0 0 0h167c25 0 41 16 41 41 0 0 0 0 0 0v500c0 25-16 42-41 42 0 0 0 0 0 0z m-334 333h-166c-25 0-42-16-42-41 0 0 0 0 0 0v-834c0-25 17-41 42-41 0 0 0 0 0 0h166c25 0 42 16 42 41 0 0 0 0 0 0v834c0 25-17 41-42 41 0 0 0 0 0 0z" horiz-adv-x="1000" />

<glyph glyph-name="graph-bar" unicode="&#xe81a;" d="M250 308h-167c-25 0-41-16-41-41 0 0 0 0 0 0v-334c0-25 16-41 41-41 0 0 0 0 0 0h167c25 0 42 16 42 41 0 0 0 0 0 0v334c0 25-17 41-42 41 0 0 0 0 0 0z m667 167h-167c-25 0-42-17-42-42 0 0 0 0 0 0v-500c0-25 17-41 42-41 0 0 0 0 0 0h167c25 0 41 16 41 41 0 0 0 0 0 0v500c0 25-16 42-41 42 0 0 0 0 0 0z m-334 333h-166c-25 0-42-16-42-41 0 0 0 0 0 0v-834c0-25 17-41 42-41 0 0 0 0 0 0h166c25 0 42 16 42 41 0 0 0 0 0 0v834c0 25-17 41-42 41 0 0 0 0 0 0z" horiz-adv-x="1000" />

<glyph glyph-name="angle-down" unicode="&#xe81b;" d="M704 467c-17 16-42 16-58 0l-146-146-146 146c-17 16-42 16-58 0s-17-42 0-59l175-175c8-8 17-12 29-12 13 0 21 4 29 12l175 175c17 17 17 42 0 59z" horiz-adv-x="1000" />

<glyph glyph-name="angle-down" unicode="&#xe81b;" d="M704 467c-17 16-42 16-58 0l-146-146-146 146c-17 16-42 16-58 0s-17-42 0-59l175-175c8-8 17-12 29-12 13 0 21 4 29 12l175 175c17 17 17 42 0 59z" horiz-adv-x="1000" />

<glyph glyph-name="arrow-circle-left" unicode="&#xe81c;" d="M500 767c-229 0-417-188-417-417 0-229 188-417 417-417s417 188 417 417-188 417-417 417z m125-459h-150l54-54c17-16 17-41 0-58-16-17-42-17-58 0l-125 125c-17 17-17 42 0 58 0 0 0 0 0 0l125 125c17 17 42 17 58 0 0 0 0 0 0 0 17-16 17-41 0-58 0 0 0 0 0 0l-54-54h150c25 0 42-17 42-42s-17-42-42-42z" horiz-adv-x="1000" />

<glyph glyph-name="arrow-circle-left" unicode="&#xe81c;" d="M500 767c-229 0-417-188-417-417 0-229 188-417 417-417s417 188 417 417-188 417-417 417z m125-459h-150l54-54c17-16 17-41 0-58-16-17-42-17-58 0l-125 125c-17 17-17 42 0 58 0 0 0 0 0 0l125 125c17 17 42 17 58 0 0 0 0 0 0 0 17-16 17-41 0-58 0 0 0 0 0 0l-54-54h150c25 0 42-17 42-42s-17-42-42-42z" horiz-adv-x="1000" />

<glyph glyph-name="arrow-circle-right" unicode="&#xe81d;" d="M500 767c-229 0-417-188-417-417s188-417 417-417c229 0 417 188 417 417 0 229-188 417-417 417z m154-446c0 0 0 0 0 0l-125-125c-16-17-42-17-58 0 0 0 0 0 0 0-17 17-17 42 0 58 0 0 0 0 0 0l54 54h-150c-25 0-42 17-42 42s17 42 42 42h150l-54 54c-17 17-17 42 0 58 17 17 42 17 58 0l125-125c17-16 17-41 0-58z" horiz-adv-x="1000" />

<glyph glyph-name="arrow-circle-right" unicode="&#xe81d;" d="M500 767c-229 0-417-188-417-417s188-417 417-417c229 0 417 188 417 417 0 229-188 417-417 417z m154-446c0 0 0 0 0 0l-125-125c-16-17-42-17-58 0 0 0 0 0 0 0-17 17-17 42 0 58 0 0 0 0 0 0l54 54h-150c-25 0-42 17-42 42s17 42 42 42h150l-54 54c-17 17-17 42 0 58 17 17 42 17 58 0l125-125c17-16 17-41 0-58z" horiz-adv-x="1000" />

<glyph glyph-name="chart-pie" unicode="&#xe81e;" d="M500 767c-229 0-417-188-417-417s188-417 417-417 417 188 417 417c0 229-188 417-417 417z m0-84c167 0 308-125 329-291h-329v291z m167-620l-142 245h308c-16-104-75-195-166-245z" horiz-adv-x="1000" />

<glyph glyph-name="chart-pie" unicode="&#xe81e;" d="M500 767c-229 0-417-188-417-417s188-417 417-417 417 188 417 417c0 229-188 417-417 417z m0-84c167 0 308-125 329-291h-329v291z m167-620l-142 245h308c-16-104-75-195-166-245z" horiz-adv-x="1000" />

<glyph glyph-name="arrow-down-left" unicode="&#xe81f;" d="M708 183h-316l346 346c16 17 16 42 0 59-17 16-42 16-59 0l-346-346v316c0 25-16 42-41 42s-42-17-42-42v-416c0-4 0-13 4-17 4-8 13-17 21-21 4-4 13-4 17-4h416c25 0 42 17 42 42s-17 41-42 41z" horiz-adv-x="1000" />

<glyph glyph-name="arrow-down-left" unicode="&#xe81f;" d="M708 183h-316l346 346c16 17 16 42 0 59-17 16-42 16-59 0l-346-346v316c0 25-16 42-41 42s-42-17-42-42v-416c0-4 0-13 4-17 4-8 13-17 21-21 4-4 13-4 17-4h416c25 0 42 17 42 42s-17 41-42 41z" horiz-adv-x="1000" />

<glyph glyph-name="arrow-up-right" unicode="&#xe820;" d="M708 600h-416c-25 0-42-17-42-42s17-41 42-41h316l-346-346c-16-17-16-42 0-59 17-16 42-16 59 0l346 346v-316c0-25 16-42 41-42s42 17 42 42v416c0 25-17 42-42 42z" horiz-adv-x="1000" />

<glyph glyph-name="arrow-up-right" unicode="&#xe820;" d="M708 600h-416c-25 0-42-17-42-42s17-41 42-41h316l-346-346c-16-17-16-42 0-59 17-16 42-16 59 0l346 346v-316c0-25 16-42 41-42s42 17 42 42v416c0 25-17 42-42 42z" horiz-adv-x="1000" />

<glyph glyph-name="columns" unicode="&#xe821;" d="M83 725v-750c0-25 17-42 42-42h333v834h-333c-25 0-42-17-42-42z m792 42h-333v-834h333c25 0 42 17 42 42v750c0 25-17 42-42 42z" horiz-adv-x="1000" />

<glyph glyph-name="columns" unicode="&#xe821;" d="M83 725v-750c0-25 17-42 42-42h333v834h-333c-25 0-42-17-42-42z m792 42h-333v-834h333c25 0 42 17 42 42v750c0 25-17 42-42 42z" horiz-adv-x="1000" />

<glyph glyph-name="web-section" unicode="&#xe822;" d="M83 725v-750c0-25 17-42 42-42h458v834h-458c-25 0-42-17-42-42z m792 42h-208v-834h208c25 0 42 17 42 42v750c0 25-17 42-42 42z" horiz-adv-x="1000" />

<glyph glyph-name="web-section" unicode="&#xe822;" d="M83 725v-750c0-25 17-42 42-42h458v834h-458c-25 0-42-17-42-42z m792 42h-208v-834h208c25 0 42 17 42 42v750c0 25-17 42-42 42z" horiz-adv-x="1000" />

<glyph glyph-name="analytics" unicode="&#xe823;" d="M417 767c-25 0-42-17-42-42 0 0 0 0 0 0v-750c0-25 17-42 42-42s41 17 41 42v750c0 25-16 42-41 42 0 0 0 0 0 0z m-209-417c-25 0-41-17-41-42 0 0 0 0 0 0v-333c0-25 16-42 41-42s42 17 42 42v333c0 25-17 42-42 42 0 0 0 0 0 0z m417 167c-25 0-42-17-42-42 0 0 0 0 0 0v-500c0-25 17-42 42-42s42 17 42 42v500c0 25-17 42-42 42 0 0 0 0 0 0z m208-334c-25 0-41-16-41-41 0 0 0 0 0 0v-167c0-25 16-42 41-42s42 17 42 42v167c0 25-17 41-42 41 0 0 0 0 0 0z" horiz-adv-x="1000" />

<glyph glyph-name="analytics" unicode="&#xe823;" d="M417 767c-25 0-42-17-42-42 0 0 0 0 0 0v-750c0-25 17-42 42-42s41 17 41 42v750c0 25-16 42-41 42 0 0 0 0 0 0z m-209-417c-25 0-41-17-41-42 0 0 0 0 0 0v-333c0-25 16-42 41-42s42 17 42 42v333c0 25-17 42-42 42 0 0 0 0 0 0z m417 167c-25 0-42-17-42-42 0 0 0 0 0 0v-500c0-25 17-42 42-42s42 17 42 42v500c0 25-17 42-42 42 0 0 0 0 0 0z m208-334c-25 0-41-16-41-41 0 0 0 0 0 0v-167c0-25 16-42 41-42s42 17 42 42v167c0 25-17 41-42 41 0 0 0 0 0 0z" horiz-adv-x="1000" />

<glyph glyph-name="grid" unicode="&#xe824;" d="M875 767h-750c-25 0-42-17-42-42v-167h834v167c0 25-17 42-42 42z m-792-542h375v250h-375v-250z m0-250c0-25 17-42 42-42h333v209h-375v-167z m459 250h375v250h-375v-250z m0-292h333c25 0 42 17 42 42v167h-375v-209z" horiz-adv-x="1000" />

<glyph glyph-name="grid" unicode="&#xe824;" d="M875 767h-750c-25 0-42-17-42-42v-167h834v167c0 25-17 42-42 42z m-792-542h375v250h-375v-250z m0-250c0-25 17-42 42-42h333v209h-375v-167z m459 250h375v250h-375v-250z m0-292h333c25 0 42 17 42 42v167h-375v-209z" horiz-adv-x="1000" />

<glyph glyph-name="angle-right-b" unicode="&#xe825;" d="M646 379l-233 238c-17 16-42 16-59 0s-16-42 0-59l204-204-204-204c-8-8-12-17-12-29 0-25 16-42 41-42 13 0 21 4 30 13l237 237c0 0 0 0 0 0 13 9 13 34-4 50z" horiz-adv-x="1000" />

<glyph glyph-name="angle-right-b" unicode="&#xe825;" d="M646 379l-233 238c-17 16-42 16-59 0s-16-42 0-59l204-204-204-204c-8-8-12-17-12-29 0-25 16-42 41-42 13 0 21 4 30 13l237 237c0 0 0 0 0 0 13 9 13 34-4 50z" horiz-adv-x="1000" />

<glyph glyph-name="chart" unicode="&#xe826;" d="M792 767h-584c-71 0-125-54-125-125v-584c0-70 55-125 125-125h584c70 0 125 55 125 125v584c0 71-55 125-125 125z m-459-625c0-25-16-42-41-42s-42 17-42 42v166c0 25 17 42 42 42s41-17 41-42v-166z m209 0c0-25-17-42-42-42s-42 17-42 42v416c0 25 17 42 42 42s42-17 42-42v-416z m208 0c0-25-17-42-42-42s-41 17-41 42v250c0 25 16 41 41 41s42-16 42-41v-250z" horiz-adv-x="1000" />

<glyph glyph-name="chart" unicode="&#xe826;" d="M792 767h-584c-71 0-125-54-125-125v-584c0-70 55-125 125-125h584c70 0 125 55 125 125v584c0 71-55 125-125 125z m-459-625c0-25-16-42-41-42s-42 17-42 42v166c0 25 17 42 42 42s41-17 41-42v-166z m209 0c0-25-17-42-42-42s-42 17-42 42v416c0 25 17 42 42 42s42-17 42-42v-416z m208 0c0-25-17-42-42-42s-41 17-41 42v250c0 25 16 41 41 41s42-16 42-41v-250z" horiz-adv-x="1000" />

<glyph glyph-name="window-maximize" unicode="&#xe827;" d="M875 767h-750c-25 0-42-17-42-42v-208h834v208c0 25-17 42-42 42z m-792-792c0-25 17-42 42-42h750c25 0 42 17 42 42v458h-834v-458z" horiz-adv-x="1000" />

<glyph glyph-name="window-maximize" unicode="&#xe827;" d="M875 767h-750c-25 0-42-17-42-42v-208h834v208c0 25-17 42-42 42z m-792-792c0-25 17-42 42-42h750c25 0 42 17 42 42v458h-834v-458z" horiz-adv-x="1000" />

<glyph glyph-name="list-ul" unicode="&#xe828;" d="M292 517h583c25 0 42 16 42 41s-17 42-42 42h-583c-25 0-42-17-42-42s17-41 42-41z m583-125h-583c-25 0-42-17-42-42s17-42 42-42h583c25 0 42 17 42 42s-17 42-42 42z m0-209h-583c-25 0-42-16-42-41s17-42 42-42h583c25 0 42 17 42 42s-17 41-42 41z m-721 405c-4 4-8 8-12 8-17 8-34 4-46-8-4-5-8-9-8-13-5-12-5-21 0-33 4-4 4-9 8-13 4-4 8-8 12-8 5-4 13-4 17-4 13 0 21 4 29 12 4 4 9 9 9 13 4 12 4 21 0 33 0 4-5 8-9 13z m0-209c-12 13-29 17-46 9-4-5-8-5-12-9-4-4-8-8-8-12-5-9-5-21 0-34 4-4 4-8 8-12 4-4 8-8 12-8 5-5 13-5 17-5 4 0 13 0 17 5 4 4 8 4 12 8 4 4 9 8 9 12 4 9 4 21 0 34 0 4-5 8-9 12z m0-208c-4 4-8 8-12 8-9 4-21 4-34 0-4 0-8-4-12-8-4-4-9-8-9-13-8-16-4-33 9-45 4-5 8-9 12-9 5-4 13-4 17-4 4 0 13 0 17 4 4 4 8 4 12 9 13 12 17 29 9 45 0 5-5 9-9 13z" horiz-adv-x="1000" />

<glyph glyph-name="list-ul" unicode="&#xe828;" d="M292 517h583c25 0 42 16 42 41s-17 42-42 42h-583c-25 0-42-17-42-42s17-41 42-41z m583-125h-583c-25 0-42-17-42-42s17-42 42-42h583c25 0 42 17 42 42s-17 42-42 42z m0-209h-583c-25 0-42-16-42-41s17-42 42-42h583c25 0 42 17 42 42s-17 41-42 41z m-721 405c-4 4-8 8-12 8-17 8-34 4-46-8-4-5-8-9-8-13-5-12-5-21 0-33 4-4 4-9 8-13 4-4 8-8 12-8 5-4 13-4 17-4 13 0 21 4 29 12 4 4 9 9 9 13 4 12 4 21 0 33 0 4-5 8-9 13z m0-209c-12 13-29 17-46 9-4-5-8-5-12-9-4-4-8-8-8-12-5-9-5-21 0-34 4-4 4-8 8-12 4-4 8-8 12-8 5-5 13-5 17-5 4 0 13 0 17 5 4 4 8 4 12 8 4 4 9 8 9 12 4 9 4 21 0 34 0 4-5 8-9 12z m0-208c-4 4-8 8-12 8-9 4-21 4-34 0-4 0-8-4-12-8-4-4-9-8-9-13-8-16-4-33 9-45 4-5 8-9 12-9 5-4 13-4 17-4 4 0 13 0 17 4 4 4 8 4 12 9 13 12 17 29 9 45 0 5-5 9-9 13z" horiz-adv-x="1000" />

<glyph glyph-name="angle-double-right" unicode="&#xe829;" d="M354 504c-17 17-42 17-58 0-17-17-17-42 0-58l92-96-96-96c-9-8-13-16-13-29 0-25 17-42 42-42 12 0 21 5 29 13l125 125c0 0 0 0 0 0 17 17 17 42 0 58l-121 125z m354-125l-125 125c-16 17-41 17-58 0-17-16-17-41 0-58l96-96-96-96c-8-8-12-16-12-29 0-25 16-42 41-42 13 0 21 5 29 13l125 125c13 17 13 42 0 58z" horiz-adv-x="1000" />

<glyph glyph-name="angle-double-right" unicode="&#xe829;" d="M354 504c-17 17-42 17-58 0-17-17-17-42 0-58l92-96-96-96c-9-8-13-16-13-29 0-25 17-42 42-42 12 0 21 5 29 13l125 125c0 0 0 0 0 0 17 17 17 42 0 58l-121 125z m354-125l-125 125c-16 17-41 17-58 0-17-16-17-41 0-58l96-96-96-96c-8-8-12-16-12-29 0-25 16-42 41-42 13 0 21 5 29 13l125 125c13 17 13 42 0 58z" horiz-adv-x="1000" />

<glyph glyph-name="analysis" unicode="&#xe82a;" d="M904 546c-16 17-41 17-58 0l-263-263-179 180c-8 8-16 12-29 12-13 0-21-4-29-12l-250-250c-8-9-13-17-13-30 0-25 17-41 42-41 13 0 21 4 29 12l221 221 179-179c4-4 9-8 13-8 4-5 12-5 16-5 9 0 21 5 25 13 0 0 0 0 4 0 0 0 0 0 0 0s0 0 0 0l292 292c17 16 17 41 0 58z" horiz-adv-x="1000" />

<glyph glyph-name="analysis" unicode="&#xe82a;" d="M904 546c-16 17-41 17-58 0l-263-263-179 180c-8 8-16 12-29 12-13 0-21-4-29-12l-250-250c-8-9-13-17-13-30 0-25 17-41 42-41 13 0 21 4 29 12l221 221 179-179c4-4 9-8 13-8 4-5 12-5 16-5 9 0 21 5 25 13 0 0 0 0 4 0 0 0 0 0 0 0s0 0 0 0l292 292c17 16 17 41 0 58z" horiz-adv-x="1000" />

<glyph glyph-name="arrow-up-left" unicode="&#xe82b;" d="M392 517h316c25 0 42 16 42 41s-17 42-42 42h-416c-25 0-42-17-42-42v-416c0-25 17-42 42-42s41 17 41 42v316l346-345c17-17 42-17 59 0 16 16 16 41 0 58l-346 346z" horiz-adv-x="1000" />

<glyph glyph-name="arrow-up-left" unicode="&#xe82b;" d="M392 517h316c25 0 42 16 42 41s-17 42-42 42h-416c-25 0-42-17-42-42v-416c0-25 17-42 42-42s41 17 41 42v316l346-345c17-17 42-17 59 0 16 16 16 41 0 58l-346 346z" horiz-adv-x="1000" />

<glyph glyph-name="web-grid-alt" unicode="&#xe82c;" d="M875 767h-750c-25 0-42-17-42-42v-208h834v208c0 25-17 42-42 42z m-792-792c0-25 17-42 42-42h333v500h-375v-458z m459-42h333c25 0 42 17 42 42v458h-375v-500z" horiz-adv-x="1000" />

<glyph glyph-name="web-grid-alt" unicode="&#xe82c;" d="M875 767h-750c-25 0-42-17-42-42v-208h834v208c0 25-17 42-42 42z m-792-792c0-25 17-42 42-42h333v500h-375v-458z m459-42h333c25 0 42 17 42 42v458h-375v-500z" horiz-adv-x="1000" />

<glyph glyph-name="angle-up" unicode="&#xe82d;" d="M704 292l-175 175 0 0c-17 16-42 16-58 0l-175-175c-17-17-17-42 0-59s41-16 58 0l146 146 146-146c8-8 16-12 29-12l0 0c12 0 21 4 29 12 17 17 17 42 0 59z" horiz-adv-x="1000" />

<glyph glyph-name="angle-up" unicode="&#xe82d;" d="M704 292l-175 175 0 0c-17 16-42 16-58 0l-175-175c-17-17-17-42 0-59s41-16 58 0l146 146 146-146c8-8 16-12 29-12l0 0c12 0 21 4 29 12 17 17 17 42 0 59z" horiz-adv-x="1000" />

<glyph glyph-name="arrow-down-right" unicode="&#xe82e;" d="M708 600c-25 0-41-17-41-42v-316l-346 346c-17 16-42 16-58 0-17-17-17-42 0-59l345-346h-316c-25 0-42-16-42-41s17-42 42-42h416c25 0 42 17 42 42v416c0 25-17 42-42 42z" horiz-adv-x="1000" />

<glyph glyph-name="arrow-down-right" unicode="&#xe82e;" d="M708 600c-25 0-41-17-41-42v-316l-346 346c-17 16-42 16-58 0-17-17-17-42 0-59l345-346h-316c-25 0-42-16-42-41s17-42 42-42h416c25 0 42 17 42 42v416c0 25-17 42-42 42z" horiz-adv-x="1000" />

<glyph glyph-name="angle-left" unicode="&#xe82f;" d="M471 350l146 146c16 17 16 42 0 58-17 17-42 17-59 0l-175-175 0 0c-16-17-16-41 0-58l175-175c9-9 17-13 29-13l0 0c13 0 21 4 30 13 16 16 16 41 0 58l-146 146z" horiz-adv-x="1000" />

<glyph glyph-name="angle-left" unicode="&#xe82f;" d="M471 350l146 146c16 17 16 42 0 58-17 17-42 17-59 0l-175-175 0 0c-16-17-16-41 0-58l175-175c9-9 17-13 29-13l0 0c13 0 21 4 30 13 16 16 16 41 0 58l-146 146z" horiz-adv-x="1000" />

<glyph glyph-name="document-layout-left" unicode="&#xe830;" d="M542 517h333c25 0 42 16 42 41s-17 42-42 42h-333c-25 0-42-17-42-42s17-41 42-41z m333-84h-333c-25 0-42-16-42-41s17-42 42-42h333c25 0 42 17 42 42s-17 41-42 41z m-750-83h250c25 0 42 17 42 42v250c0 25-17 41-42 41h-250c-25 0-42-16-42-41v-250c0-25 17-42 42-42z m750-83h-750c-25 0-42-17-42-42s17-42 42-42h750c25 0 42 17 42 42s-17 42-42 42z m-333-167h-417c-25 0-42-17-42-42s17-41 42-41h417c25 0 41 16 41 41s-16 42-41 42z" horiz-adv-x="1000" />

<glyph glyph-name="document-layout-left" unicode="&#xe830;" d="M542 517h333c25 0 42 16 42 41s-17 42-42 42h-333c-25 0-42-17-42-42s17-41 42-41z m333-84h-333c-25 0-42-16-42-41s17-42 42-42h333c25 0 42 17 42 42s-17 41-42 41z m-750-83h250c25 0 42 17 42 42v250c0 25-17 41-42 41h-250c-25 0-42-16-42-41v-250c0-25 17-42 42-42z m750-83h-750c-25 0-42-17-42-42s17-42 42-42h750c25 0 42 17 42 42s-17 42-42 42z m-333-167h-417c-25 0-42-17-42-42s17-41 42-41h417c25 0 41 16 41 41s-16 42-41 42z" horiz-adv-x="1000" />

<glyph glyph-name="angle-double-left" unicode="&#xe831;" d="M708 254l-96 96 96 96c17 17 17 42 0 58-16 17-41 17-58 0l-125-125c0 0 0 0 0 0-17-16-17-41 0-58l125-125c8-8 17-13 29-13 13 0 21 5 29 13 13 17 13 42 0 58z m-325 96l96 96c17 17 17 42 0 58-17 17-42 17-58 0l-125-125c0 0 0 0 0 0-17-17-17-41 0-58l125-125c8-9 16-13 29-13 12 0 21 4 29 13 17 16 17 41 0 58l-96 96z" horiz-adv-x="1000" />

<glyph glyph-name="angle-double-left" unicode="&#xe831;" d="M708 254l-96 96 96 96c17 17 17 42 0 58-16 17-41 17-58 0l-125-125c0 0 0 0 0 0-17-16-17-41 0-58l125-125c8-8 17-13 29-13 13 0 21 5 29 13 13 17 13 42 0 58z m-325 96l96 96c17 17 17 42 0 58-17 17-42 17-58 0l-125-125c0 0 0 0 0 0-17-17-17-41 0-58l125-125c8-9 16-13 29-13 12 0 21 4 29 13 17 16 17 41 0 58l-96 96z" horiz-adv-x="1000" />

<glyph glyph-name="border-top" unicode="&#xe832;" d="M167 663h666c25 0 42 16 42 41s-17 42-42 42h-666c-25 0-42-17-42-42s17-41 42-41z m333-84c-25 0-42-16-42-41s17-42 42-42 42 17 42 42-17 41-42 41z m0-166c-25 0-42-17-42-42s17-42 42-42 42 17 42 42-17 42-42 42z m0-167c-25 0-42-17-42-42s17-41 42-41 42 16 42 41-17 42-42 42z m0-167c-25 0-42-16-42-41s17-42 42-42 42 17 42 42-17 41-42 41z m333 500c-25 0-41-16-41-41s16-42 41-42 42 17 42 42-17 41-42 41z m0-166c-25 0-41-17-41-42s16-42 41-42 42 17 42 42-17 42-42 42z m0-167c-25 0-41-17-41-42s16-41 41-41 42 16 42 41-17 42-42 42z m0-167c-25 0-41-16-41-41s16-42 41-42 42 17 42 42-17 41-42 41z m-166 0c-25 0-42-16-42-41s17-42 42-42 41 17 41 42-16 41-41 41z m-334 0c-25 0-41-16-41-41s16-42 41-42 42 17 42 42-17 41-42 41z m334 334c-25 0-42-17-42-42s17-42 42-42 41 17 41 42-16 42-41 42z m-334 0c-25 0-41-17-41-42s16-42 41-42 42 17 42 42-17 42-42 42z m-166 166c-25 0-42-16-42-41s17-42 42-42 41 17 41 42-16 41-41 41z m0-166c-25 0-42-17-42-42s17-42 42-42 41 17 41 42-16 42-41 42z m0-167c-25 0-42-17-42-42s17-41 42-41 41 16 41 41-16 42-41 42z m0-167c-25 0-42-16-42-41s17-42 42-42 41 17 41 42-16 41-41 41z" horiz-adv-x="1000" />

<glyph glyph-name="border-top" unicode="&#xe832;" d="M167 663h666c25 0 42 16 42 41s-17 42-42 42h-666c-25 0-42-17-42-42s17-41 42-41z m333-84c-25 0-42-16-42-41s17-42 42-42 42 17 42 42-17 41-42 41z m0-166c-25 0-42-17-42-42s17-42 42-42 42 17 42 42-17 42-42 42z m0-167c-25 0-42-17-42-42s17-41 42-41 42 16 42 41-17 42-42 42z m0-167c-25 0-42-16-42-41s17-42 42-42 42 17 42 42-17 41-42 41z m333 500c-25 0-41-16-41-41s16-42 41-42 42 17 42 42-17 41-42 41z m0-166c-25 0-41-17-41-42s16-42 41-42 42 17 42 42-17 42-42 42z m0-167c-25 0-41-17-41-42s16-41 41-41 42 16 42 41-17 42-42 42z m0-167c-25 0-41-16-41-41s16-42 41-42 42 17 42 42-17 41-42 41z m-166 0c-25 0-42-16-42-41s17-42 42-42 41 17 41 42-16 41-41 41z m-334 0c-25 0-41-16-41-41s16-42 41-42 42 17 42 42-17 41-42 41z m334 334c-25 0-42-17-42-42s17-42 42-42 41 17 41 42-16 42-41 42z m-334 0c-25 0-41-17-41-42s16-42 41-42 42 17 42 42-17 42-42 42z m-166 166c-25 0-42-16-42-41s17-42 42-42 41 17 41 42-16 41-41 41z m0-166c-25 0-42-17-42-42s17-42 42-42 41 17 41 42-16 42-41 42z m0-167c-25 0-42-17-42-42s17-41 42-41 41 16 41 41-16 42-41 42z m0-167c-25 0-42-16-42-41s17-42 42-42 41 17 41 42-16 41-41 41z" horiz-adv-x="1000" />

<glyph glyph-name="align-justify" unicode="&#xe833;" d="M125 558h750c25 0 42 17 42 42s-17 42-42 42h-750c-25 0-42-17-42-42s17-42 42-42z m750-83h-750c-25 0-42-17-42-42s17-41 42-41h750c25 0 42 16 42 41s-17 42-42 42z m0-167h-750c-25 0-42-16-42-41s17-42 42-42h750c25 0 42 17 42 42s-17 41-42 41z m0-166h-750c-25 0-42-17-42-42s17-42 42-42h750c25 0 42 17 42 42s-17 42-42 42z" horiz-adv-x="1000" />

<glyph glyph-name="align-justify" unicode="&#xe833;" d="M125 558h750c25 0 42 17 42 42s-17 42-42 42h-750c-25 0-42-17-42-42s17-42 42-42z m750-83h-750c-25 0-42-17-42-42s17-41 42-41h750c25 0 42 16 42 41s-17 42-42 42z m0-167h-750c-25 0-42-16-42-41s17-42 42-42h750c25 0 42 17 42 42s-17 41-42 41z m0-166h-750c-25 0-42-17-42-42s17-42 42-42h750c25 0 42 17 42 42s-17 42-42 42z" horiz-adv-x="1000" />

<glyph glyph-name="right-indent" unicode="&#xe834;" d="M125 558h750c25 0 42 17 42 42s-17 42-42 42h-750c-25 0-42-17-42-42s17-42 42-42z m0-166h417c25 0 41 16 41 41s-16 42-41 42h-417c-25 0-42-17-42-42s17-41 42-41z m750-250h-750c-25 0-42-17-42-42s17-42 42-42h750c25 0 42 17 42 42s-17 42-42 42z m-750 83h417c25 0 41 17 41 42s-16 41-41 41h-417c-25 0-42-16-42-41s17-42 42-42z m625 54c0-25 17-41 42-41 8 0 21 4 25 8l83 71c0 0 4 4 4 4 17 17 13 46-4 58l-83 71c-17 17-46 13-59-4-16-17-12-46 4-58l46-38-46-37c-8-9-12-21-12-34z" horiz-adv-x="1000" />

<glyph glyph-name="right-indent" unicode="&#xe834;" d="M125 558h750c25 0 42 17 42 42s-17 42-42 42h-750c-25 0-42-17-42-42s17-42 42-42z m0-166h417c25 0 41 16 41 41s-16 42-41 42h-417c-25 0-42-17-42-42s17-41 42-41z m750-250h-750c-25 0-42-17-42-42s17-42 42-42h750c25 0 42 17 42 42s-17 42-42 42z m-750 83h417c25 0 41 17 41 42s-16 41-41 41h-417c-25 0-42-16-42-41s17-42 42-42z m625 54c0-25 17-41 42-41 8 0 21 4 25 8l83 71c0 0 4 4 4 4 17 17 13 46-4 58l-83 71c-17 17-46 13-59-4-16-17-12-46 4-58l46-38-46-37c-8-9-12-21-12-34z" horiz-adv-x="1000" />

<glyph glyph-name="left-indent-alt" unicode="&#xe835;" d="M875 142h-333c-25 0-42-17-42-42s17-42 42-42h333c25 0 42 17 42 42s-17 42-42 42z m0 166h-333c-25 0-42-16-42-41s17-42 42-42h333c25 0 42 17 42 42s-17 41-42 41z m-333 250h333c25 0 42 17 42 42s-17 42-42 42h-333c-25 0-42-17-42-42s17-42 42-42z m333-83h-333c-25 0-42-17-42-42s17-41 42-41h333c25 0 42 16 42 41s-17 42-42 42z m-500 167c-25 0-42-17-42-42v-500c0-25 17-42 42-42h0c25 0 42 17 42 42v500c0 25-17 42-42 42z m-183-292l45 38c17 16 21 41 5 58-17 17-42 21-59 4l-83-71c0 0-4-4-4-4-17-17-13-46 4-58l83-71c9-4 17-9 25-9 13 0 25 5 34 17 16 17 12 46-4 58l-46 38z" horiz-adv-x="1000" />

<glyph glyph-name="left-indent-alt" unicode="&#xe835;" d="M875 142h-333c-25 0-42-17-42-42s17-42 42-42h333c25 0 42 17 42 42s-17 42-42 42z m0 166h-333c-25 0-42-16-42-41s17-42 42-42h333c25 0 42 17 42 42s-17 41-42 41z m-333 250h333c25 0 42 17 42 42s-17 42-42 42h-333c-25 0-42-17-42-42s17-42 42-42z m333-83h-333c-25 0-42-17-42-42s17-41 42-41h333c25 0 42 16 42 41s-17 42-42 42z m-500 167c-25 0-42-17-42-42v-500c0-25 17-42 42-42h0c25 0 42 17 42 42v500c0 25-17 42-42 42z m-183-292l45 38c17 16 21 41 5 58-17 17-42 21-59 4l-83-71c0 0-4-4-4-4-17-17-13-46 4-58l83-71c9-4 17-9 25-9 13 0 25 5 34 17 16 17 12 46-4 58l-46 38z" horiz-adv-x="1000" />

<glyph glyph-name="subject" unicode="&#xe836;" d="M125 517h750c25 0 42 16 42 41s-17 42-42 42h-750c-25 0-42-17-42-42s17-41 42-41z m417-334h-417c-25 0-42-16-42-41s17-42 42-42h417c25 0 41 17 41 42s-16 41-41 41z m333 209h-750c-25 0-42-17-42-42s17-42 42-42h750c25 0 42 17 42 42s-17 42-42 42z" horiz-adv-x="1000" />

<glyph glyph-name="subject" unicode="&#xe836;" d="M125 517h750c25 0 42 16 42 41s-17 42-42 42h-750c-25 0-42-17-42-42s17-41 42-41z m417-334h-417c-25 0-42-16-42-41s17-42 42-42h417c25 0 41 17 41 42s-16 41-41 41z m333 209h-750c-25 0-42-17-42-42s17-42 42-42h750c25 0 42 17 42 42s-17 42-42 42z" horiz-adv-x="1000" />

<glyph glyph-name="align-right" unicode="&#xe837;" d="M125 558h750c25 0 42 17 42 42s-17 42-42 42h-750c-25 0-42-17-42-42s17-42 42-42z m750-83h-583c-25 0-42-17-42-42s17-41 42-41h583c25 0 42 16 42 41s-17 42-42 42z m0-167h-750c-25 0-42-16-42-41s17-42 42-42h750c25 0 42 17 42 42s-17 41-42 41z m0-166h-583c-25 0-42-17-42-42s17-42 42-42h583c25 0 42 17 42 42s-17 42-42 42z" horiz-adv-x="1000" />

<glyph glyph-name="align-right" unicode="&#xe837;" d="M125 558h750c25 0 42 17 42 42s-17 42-42 42h-750c-25 0-42-17-42-42s17-42 42-42z m750-83h-583c-25 0-42-17-42-42s17-41 42-41h583c25 0 42 16 42 41s-17 42-42 42z m0-167h-750c-25 0-42-16-42-41s17-42 42-42h750c25 0 42 17 42 42s-17 41-42 41z m0-166h-583c-25 0-42-17-42-42s17-42 42-42h583c25 0 42 17 42 42s-17 42-42 42z" horiz-adv-x="1000" />

<glyph glyph-name="wrap-text" unicode="&#xe838;" d="M125 550h750c25 0 42 17 42 42s-17 41-42 41h-750c-25 0-42-16-42-41s17-42 42-42z m250-333h-250c-25 0-42-17-42-42s17-42 42-42h250c25 0 42 17 42 42s-17 42-42 42z m396 208h-646c-25 0-42-17-42-42s17-41 42-41h646c33 0 62-29 62-63s-29-62-62-62h-117c13 16 17 37 0 54-16 17-41 21-58 4l-84-71c0 0-4-4-4-4-16-17-12-46 4-58l84-71c8-4 16-9 25-9 12 0 25 5 33 17 13 17 13 38 0 54h117c79 0 146 67 146 146s-67 146-146 146z" horiz-adv-x="1000" />

<glyph glyph-name="wrap-text" unicode="&#xe838;" d="M125 550h750c25 0 42 17 42 42s-17 41-42 41h-750c-25 0-42-16-42-41s17-42 42-42z m250-333h-250c-25 0-42-17-42-42s17-42 42-42h250c25 0 42 17 42 42s-17 42-42 42z m396 208h-646c-25 0-42-17-42-42s17-41 42-41h646c33 0 62-29 62-63s-29-62-62-62h-117c13 16 17 37 0 54-16 17-41 21-58 4l-84-71c0 0-4-4-4-4-16-17-12-46 4-58l84-71c8-4 16-9 25-9 12 0 25 5 33 17 13 17 13 38 0 54h117c79 0 146 67 146 146s-67 146-146 146z" horiz-adv-x="1000" />

<glyph glyph-name="list-ui-alt" unicode="&#xe839;" d="M313 517h583c25 0 41 16 41 41s-16 42-41 42h-583c-25 0-42-17-42-42s17-41 42-41z m583-125h-417c-25 0-42-17-42-42s17-42 42-42h417c25 0 41 17 41 42s-16 42-41 42z m0-209h-250c-25 0-42-16-42-41s17-42 42-42h250c25 0 41 17 41 42s-16 41-41 41z m-750 417c-25 0-42-17-42-42s17-41 42-41 41 16 41 41-16 42-41 42z m167-208c-25 0-42-17-42-42s17-42 42-42 41 17 41 42-17 42-41 42z m166-209c-25 0-42-16-42-41s17-42 42-42 42 17 42 42-17 41-42 41z" horiz-adv-x="1000" />

<glyph glyph-name="list-ui-alt" unicode="&#xe839;" d="M313 517h583c25 0 41 16 41 41s-16 42-41 42h-583c-25 0-42-17-42-42s17-41 42-41z m583-125h-417c-25 0-42-17-42-42s17-42 42-42h417c25 0 41 17 41 42s-16 42-41 42z m0-209h-250c-25 0-42-16-42-41s17-42 42-42h250c25 0 41 17 41 42s-16 41-41 41z m-750 417c-25 0-42-17-42-42s17-41 42-41 41 16 41 41-16 42-41 42z m167-208c-25 0-42-17-42-42s17-42 42-42 41 17 41 42-17 42-41 42z m166-209c-25 0-42-16-42-41s17-42 42-42 42 17 42 42-17 41-42 41z" horiz-adv-x="1000" />

<glyph glyph-name="paragraph" unicode="&#xe83a;" d="M542 288h-417c-25 0-42-17-42-42s17-42 42-42h417c25 0 41 17 41 42s-16 42-41 42z m333 208h-750c-25 0-42-17-42-42s17-41 42-41h750c25 0 42 16 42 41s-17 42-42 42z" horiz-adv-x="1000" />

<glyph glyph-name="paragraph" unicode="&#xe83a;" d="M542 288h-417c-25 0-42-17-42-42s17-42 42-42h417c25 0 41 17 41 42s-16 42-41 42z m333 208h-750c-25 0-42-17-42-42s17-41 42-41h750c25 0 42 16 42 41s-17 42-42 42z" horiz-adv-x="1000" />

<glyph glyph-name="border-right" unicode="&#xe83b;" d="M854 725c-25 0-41-17-41-42v-666c0-25 16-42 41-42h0c25 0 42 17 42 42v666c0 25-17 42-42 42z m-166-333c-25 0-42-17-42-42s17-42 42-42 41 17 41 42-16 42-41 42z m-167 0c-25 0-42-17-42-42s17-42 42-42 41 17 41 42-16 42-41 42z m-167 0c-25 0-42-17-42-42s17-42 42-42 42 17 42 42-17 42-42 42z m-166 0c-25 0-42-17-42-42s17-42 42-42 41 17 41 42-17 42-41 42z m500-334c-25 0-42-16-42-41s17-42 42-42 41 17 41 42-16 41-41 41z m-167 0c-25 0-42-16-42-41s17-42 42-42 41 17 41 42-16 41-41 41z m-167 0c-25 0-42-16-42-41s17-42 42-42 42 17 42 42-17 41-42 41z m-166 0c-25 0-42-16-42-41s17-42 42-42 41 17 41 42-17 41-41 41z m0 167c-25 0-42-17-42-42s17-41 42-41 41 16 41 41-17 42-41 42z m0 333c-25 0-42-16-42-41s17-42 42-42 41 17 41 42-17 41-41 41z m333-333c-25 0-42-17-42-42s17-41 42-41 41 16 41 41-16 42-41 42z m0 333c-25 0-42-16-42-41s17-42 42-42 41 17 41 42-16 41-41 41z m167 167c-25 0-42-17-42-42s17-41 42-41 41 16 41 41-16 42-41 42z m-167 0c-25 0-42-17-42-42s17-41 42-41 41 16 41 41-16 42-41 42z m-167 0c-25 0-42-17-42-42s17-41 42-41 42 16 42 41-17 42-42 42z m-166 0c-25 0-42-17-42-42s17-41 42-41 41 16 41 41-17 42-41 42z" horiz-adv-x="1000" />

<glyph glyph-name="border-right" unicode="&#xe83b;" d="M854 725c-25 0-41-17-41-42v-666c0-25 16-42 41-42h0c25 0 42 17 42 42v666c0 25-17 42-42 42z m-166-333c-25 0-42-17-42-42s17-42 42-42 41 17 41 42-16 42-41 42z m-167 0c-25 0-42-17-42-42s17-42 42-42 41 17 41 42-16 42-41 42z m-167 0c-25 0-42-17-42-42s17-42 42-42 42 17 42 42-17 42-42 42z m-166 0c-25 0-42-17-42-42s17-42 42-42 41 17 41 42-17 42-41 42z m500-334c-25 0-42-16-42-41s17-42 42-42 41 17 41 42-16 41-41 41z m-167 0c-25 0-42-16-42-41s17-42 42-42 41 17 41 42-16 41-41 41z m-167 0c-25 0-42-16-42-41s17-42 42-42 42 17 42 42-17 41-42 41z m-166 0c-25 0-42-16-42-41s17-42 42-42 41 17 41 42-17 41-41 41z m0 167c-25 0-42-17-42-42s17-41 42-41 41 16 41 41-17 42-41 42z m0 333c-25 0-42-16-42-41s17-42 42-42 41 17 41 42-17 41-41 41z m333-333c-25 0-42-17-42-42s17-41 42-41 41 16 41 41-16 42-41 42z m0 333c-25 0-42-16-42-41s17-42 42-42 41 17 41 42-16 41-41 41z m167 167c-25 0-42-17-42-42s17-41 42-41 41 16 41 41-16 42-41 42z m-167 0c-25 0-42-17-42-42s17-41 42-41 41 16 41 41-16 42-41 42z m-167 0c-25 0-42-17-42-42s17-41 42-41 42 16 42 41-17 42-42 42z m-166 0c-25 0-42-17-42-42s17-41 42-41 41 16 41 41-17 42-41 42z" horiz-adv-x="1000" />

<glyph glyph-name="align-right-justify" unicode="&#xe83c;" d="M125 642h750c25 0 42 16 42 41s-17 42-42 42h-750c-25 0-42-17-42-42s17-41 42-41z m750-584h-417c-25 0-41-16-41-41s16-42 41-42h417c25 0 42 17 42 42s-17 41-42 41z m0 334h-750c-25 0-42-17-42-42s17-42 42-42h750c25 0 42 17 42 42s-17 42-42 42z m0-167h-750c-25 0-42-17-42-42s17-41 42-41h750c25 0 42 16 42 41s-17 42-42 42z m0 333h-750c-25 0-42-16-42-41s17-42 42-42h750c25 0 42 17 42 42s-17 41-42 41z" horiz-adv-x="1000" />

<glyph glyph-name="bars" unicode="&#xe83d;" d="M833 392h-666c-25 0-42-17-42-42s17-42 42-42h666c25 0 42 17 42 42s-17 42-42 42z m-666 125h666c25 0 42 16 42 41s-17 42-42 42h-666c-25 0-42-17-42-42s17-41 42-41z m666-334h-666c-25 0-42-16-42-41s17-42 42-42h666c25 0 42 17 42 42s-17 41-42 41z" horiz-adv-x="1000" />

<glyph glyph-name="border-left" unicode="&#xe83e;" d="M146 725c-25 0-42-17-42-42v-666c0-25 17-42 42-42h0c25 0 41 17 41 42v666c1 25-16 42-41 42z m167-333c-25 0-42-17-42-42s17-42 42-42 41 17 41 42-17 42-41 42z m166 0c-25 0-42-17-42-42s17-42 42-42 42 17 42 42-17 42-42 42z m167 0c-25 0-42-17-42-42s17-42 42-42 41 17 41 42-16 42-41 42z m167 0c-25 0-42-17-42-42s17-42 42-42 41 17 41 42-16 42-41 42z m-500 333c-25 0-42-17-42-42s17-41 42-41 41 16 41 41-17 42-41 42z m166 0c-25 0-42-17-42-42s17-41 42-41 42 16 42 41-17 42-42 42z m167 0c-25 0-42-17-42-42s17-41 42-41 41 16 41 41-16 42-41 42z m167-83c25 0 41 16 41 41s-16 42-41 42-42-17-42-42 16-41 42-41z m0-84c-25 0-42-16-42-41s17-42 42-42 41 17 41 42-16 41-41 41z m0-333c-25 0-42-17-42-42s17-41 42-41 41 16 41 41-16 42-41 42z m-334 333c-25 0-42-16-42-41s17-42 42-42 42 17 42 42-17 41-42 41z m0-333c-25 0-42-17-42-42s17-41 42-41 42 16 42 41-17 42-42 42z m-166-167c-25 0-42-16-42-41s17-42 42-42 41 17 41 42-17 41-41 41z m166 0c-25 0-42-16-42-41s17-42 42-42 42 17 42 42-17 41-42 41z m167 0c-25 0-42-16-42-41s17-42 42-42 41 17 41 42-16 41-41 41z m167 0c-25 0-42-16-42-41s17-42 42-42 41 17 41 42-16 41-41 41z" horiz-adv-x="1000" />

<glyph glyph-name="border-inner" unicode="&#xe83f;" d="M875 350c0 25-17 42-42 42h-291v291c0 25-17 42-42 42s-42-17-42-42v-291h-291c-25 0-42-17-42-42s17-42 42-42h291v-291c0-25 17-42 42-42h0c25 0 42 17 42 42v291h291c21 0 42 17 42 42z m-708-125c-25 0-42-17-42-42s17-41 42-41 41 16 41 41-20 42-41 42z m0-167c-25 0-42-16-42-41s17-42 42-42 41 17 41 42-20 41-41 41z m0 417c25 0 41 17 41 42s-20 41-41 41-42-16-42-41 17-42 42-42z m0 167c25 0 41 16 41 41s-20 42-41 42-42-17-42-42 17-41 42-41z m166 0c25 0 42 16 42 41s-21 42-42 42-41-17-41-42 16-41 41-41z m334 0c25 0 41 16 41 41s-16 42-41 42-42-17-42-42 17-41 42-41z m-334-584c-25 0-41-16-41-41s16-42 41-42 42 17 42 42-21 41-42 41z m334 0c-25 0-42-16-42-41s17-42 42-42 41 17 41 42-20 41-41 41z m166 167c-25 0-41-17-41-42s16-41 41-41 42 16 42 41-21 42-42 42z m0-167c-25 0-41-16-41-41s16-42 41-42 42 17 42 42-21 41-42 41z m0 417c25 0 42 17 42 42s-17 41-42 41-41-16-41-41 16-42 41-42z m0 167c25 0 42 16 42 41s-17 42-42 42-41-17-41-42 16-41 41-41z" horiz-adv-x="1000" />

<glyph glyph-name="align-left-justify" unicode="&#xe840;" d="M875 225h-750c-25 0-42-17-42-42s17-41 42-41h750c25 0 42 16 42 41s-17 42-42 42z m-250-167h-500c-25 0-42-16-42-41s17-42 42-42h500c25 0 42 17 42 42s-17 41-42 41z m-500 584h750c25 0 42 16 42 41s-17 42-42 42h-750c-25 0-42-17-42-42s17-41 42-41z m750-84h-750c-25 0-42-16-42-41s17-42 42-42h750c25 0 42 17 42 42s-17 41-42 41z m0-166h-750c-25 0-42-17-42-42s17-42 42-42h750c25 0 42 17 42 42s-17 42-42 42z" horiz-adv-x="1000" />

<glyph glyph-name="border-clear" unicode="&#xe841;" d="M500 225c-25 0-42-17-42-42s17-41 42-41 42 16 42 41-17 42-42 42z m0-167c-25 0-42-16-42-41s17-42 42-42 42 17 42 42-17 41-42 41z m0 500c-25 0-42-16-42-41s17-42 42-42 42 17 42 42-17 41-42 41z m0 167c-25 0-42-17-42-42s17-41 42-41 42 16 42 41-17 42-42 42z m-333-500c-25 0-42-17-42-42s17-41 42-41 41 16 41 41-16 42-41 42z m0-167c-25 0-42-16-42-41s17-42 42-42 41 17 41 42-16 41-41 41z m0 500c-25 0-42-16-42-41s17-42 42-42 41 17 41 42-16 41-41 41z m0 167c-25 0-42-17-42-42s17-41 42-41 41 16 41 41-16 42-41 42z m166 0c-25 0-41-17-41-42s16-41 41-41 42 16 42 41-17 42-42 42z m334 0c-25 0-42-17-42-42s17-41 42-41 41 16 41 41-16 42-41 42z m-334-667c-25 0-41-16-41-41s16-42 41-42 42 17 42 42-17 41-42 41z m334 0c-25 0-42-16-42-41s17-42 42-42 41 17 41 42-16 41-41 41z m-334 334c-25 0-41-17-41-42s16-42 41-42 42 17 42 42-17 42-42 42z m334 0c-25 0-42-17-42-42s17-42 42-42 41 17 41 42-16 42-41 42z m166-167c-25 0-41-17-41-42s16-41 41-41 42 16 42 41-17 42-42 42z m0-167c-25 0-41-16-41-41s16-42 41-42 42 17 42 42-17 41-42 41z m0 500c-25 0-41-16-41-41s16-42 41-42 42 17 42 42-17 41-42 41z m-333-166c-25 0-42-17-42-42s17-42 42-42 42 17 42 42-17 42-42 42z m-333 0c-25 0-42-17-42-42s17-42 42-42 41 17 41 42-16 42-41 42z m666 0c-25 0-41-17-41-42s16-42 41-42 42 17 42 42-17 42-42 42z m0 250c25 0 42 16 42 41s-17 42-42 42-41-17-41-42 16-41 41-41z" horiz-adv-x="1000" />

<glyph glyph-name="border-vertical" unicode="&#xe842;" d="M458 725c-25 0-41-17-41-42v-666c0-25 16-42 41-42h0c25 0 42 17 42 42v666c0 25-17 42-42 42z m-166-333c-25 0-42-17-42-42s17-42 42-42 41 17 41 42-16 42-41 42z m-167 0c-25 0-42-17-42-42s17-42 42-42 42 17 42 42-17 42-42 42z m500 0c-25 0-42-17-42-42s17-42 42-42 42 17 42 42-17 42-42 42z m167 0c-25 0-42-17-42-42s17-42 42-42 41 17 41 42-16 42-41 42z m-500 333c-25 0-42-17-42-42s17-41 42-41 41 16 41 41-16 42-41 42z m-167 0c-25 0-42-17-42-42s17-41 42-41 42 16 42 41-17 42-42 42z m500 0c-25 0-42-17-42-42s17-41 42-41 42 16 42 41-17 42-42 42z m167-83c25 0 41 16 41 41s-16 42-41 42-42-17-42-42 17-41 42-41z m0-84c-25 0-42-16-42-41s17-42 42-42 41 17 41 42-16 41-41 41z m0-333c-25 0-42-17-42-42s17-41 42-41 41 16 41 41-16 42-41 42z m-667 333c-25 0-42-16-42-41s17-42 42-42 42 17 42 42-17 41-42 41z m0-333c-25 0-42-17-42-42s17-41 42-41 42 16 42 41-17 42-42 42z m167-167c-25 0-42-16-42-41s17-42 42-42 41 17 41 42-16 41-41 41z m-167 0c-25 0-42-16-42-41s17-42 42-42 42 17 42 42-17 41-42 41z m500 0c-25 0-42-16-42-41s17-42 42-42 42 17 42 42-17 41-42 41z m167 0c-25 0-42-16-42-41s17-42 42-42 41 17 41 42-16 41-41 41z" horiz-adv-x="1000" />

<glyph glyph-name="right-indent-alt" unicode="&#xe843;" d="M875 142h-333c-25 0-42-17-42-42s17-42 42-42h333c25 0 42 17 42 42s-17 42-42 42z m0 166h-333c-25 0-42-16-42-41s17-42 42-42h333c25 0 42 17 42 42s-17 41-42 41z m-333 250h333c25 0 42 17 42 42s-17 42-42 42h-333c-25 0-42-17-42-42s17-42 42-42z m333-83h-333c-25 0-42-17-42-42s17-41 42-41h333c25 0 42 16 42 41s-17 42-42 42z m-500 167c-25 0-42-17-42-42v-500c0-25 17-42 42-42h0c25 0 42 17 42 42v500c0 25-17 42-42 42z m-225-192c-17 17-42 13-58-4-17-17-13-46 4-58l46-38-46-37c-8-9-13-21-13-34 0-25 17-41 42-41 8 0 21 4 25 8l83 71c0 0 4 4 4 4 17 17 13 46-4 58l-83 71z" horiz-adv-x="1000" />

<glyph glyph-name="border-horizontal" unicode="&#xe844;" d="M833 392h-666c-25 0-42-17-42-42s17-42 42-42h666c25 0 42 17 42 42s-17 42-42 42z m-333-167c-25 0-42-17-42-42s17-41 42-41 42 16 42 41-17 42-42 42z m0-167c-25 0-42-16-42-41s17-42 42-42 42 17 42 42-17 41-42 41z m0 417c25 0 42 17 42 42s-17 41-42 41-42-16-42-41 17-42 42-42z m0 167c25 0 42 16 42 41s-17 42-42 42-42-17-42-42 17-41 42-41z m-333-417c-25 0-42-17-42-42s17-41 42-41 41 16 41 41-16 42-41 42z m0-167c-25 0-42-16-42-41s17-42 42-42 41 17 41 42-16 41-41 41z m0 417c25 0 41 17 41 42s-16 41-41 41-42-16-42-41 17-42 42-42z m0 167c25 0 41 16 41 41s-16 42-41 42-42-17-42-42 17-41 42-41z m166 0c25 0 42 16 42 41s-17 42-42 42-41-17-41-42 16-41 41-41z m334 0c25 0 41 16 41 41s-16 42-41 42-42-17-42-42 17-41 42-41z m-334-584c-25 0-41-16-41-41s16-42 41-42 42 17 42 42-17 41-42 41z m334 0c-25 0-42-16-42-41s17-42 42-42 41 17 41 42-16 41-41 41z m166 167c-25 0-41-17-41-42s16-41 41-41 42 16 42 41-17 42-42 42z m0-167c-25 0-41-16-41-41s16-42 41-42 42 17 42 42-17 41-42 41z m0 500c-25 0-41-16-41-41s16-42 41-42 42 17 42 42-17 41-42 41z m0 84c25 0 42 16 42 41s-17 42-42 42-41-17-41-42 16-41 41-41z" horiz-adv-x="1000" />

<glyph glyph-name="ruler-combined" unicode="&#xe845;" d="M875 767h-750c-25 0-42-17-42-42v-750c0-25 17-42 42-42h250c25 0 42 17 42 42v125h-125c-25 0-42 17-42 42s17 41 42 41h125v84h-125c-25 0-42 16-42 41s17 42 42 42h125v83h-125c-25 0-42 17-42 42s17 42 42 42h41v41c0 25 17 42 42 42s42-17 42-42v-125h83v125c0 25 17 42 42 42s41-17 41-42v-125h84v125c0 25 16 42 41 42s42-17 42-42v-125h125c25 0 42 17 42 42v250c0 25-17 42-42 42z" horiz-adv-x="1000" />

<glyph glyph-name="repeat" unicode="&#xe846;" d="M229 121h-62v458h325l-34-33c-8-8-12-17-12-29 0-25 17-42 42-42 12 0 20 4 29 13l104 104c16 16 16 41 0 58l-104 104c-17 17-42 17-59 0-16-17-16-41 0-58l34-34h-367c-25 0-42-16-42-41v-542c0-25 17-41 42-41h104c25 0 42 16 42 41s-17 42-42 42z m646 542h-104c-25 0-42-17-42-42s17-42 42-42h62v-458h-350l34 33c0 0 0 0 0 0 16 17 16 42 0 59s-42 16-59 0l-104-105c0 0 0 0 0 0-17-16-17-41 0-58l104-104c9-8 17-13 29-13 13 0 21 5 30 13 16 17 16 42 0 58l-34 34h392c25 0 42 16 42 41v542c0 25-17 42-42 42z" horiz-adv-x="1000" />

<glyph glyph-name="ruler" unicode="&#xe847;" d="M942 554c0 0 0 0 0 0l-238 238c-16 16-41 16-58 0 0 0 0 0 0 0l-588-588c-16-16-16-41 0-58l0 0 238-238c17-16 42-16 58 0 0 0 0 0 0 0l88 88-146 146c-17 16-17 41 0 58 17 17 42 17 58 0l146-146 58 59-87 87c-17 17-17 42 0 58 16 17 41 17 58 0l88-87 58 58-146 146c-16 17-16 42 0 58 17 17 42 17 59 0l145-145 59 58-88 87c-16 17-16 42 0 59s42 16 59 0l87-88 88 88c20 21 20 50 4 62z" horiz-adv-x="1000" />

<glyph glyph-name="square-full" unicode="&#xe848;" d="M875 767h-750c-25 0-42-17-42-42v-750c0-25 17-42 42-42h750c25 0 42 17 42 42v750c0 25-17 42-42 42z m-42-750h-666v666h666v-666z" horiz-adv-x="1000" />

<glyph glyph-name="border-bottom" unicode="&#xe849;" d="M500 454c25 0 42 17 42 42s-17 42-42 42-42-17-42-42 17-42 42-42z m0-166c25 0 42 16 42 41s-17 42-42 42-42-17-42-42 17-41 42-41z m0-167c25 0 42 17 42 42s-17 41-42 41-42-16-42-41 17-42 42-42z m0 500c25 0 42 17 42 42s-17 41-42 41-42-16-42-41 17-42 42-42z m333 0c25 0 42 17 42 42s-17 41-42 41-41-16-41-41 16-42 41-42z m-500 0c25 0 42 17 42 42s-17 41-42 41-41-16-41-41 16-42 41-42z m334 0c25 0 41 17 41 42s-16 41-41 41-42-16-42-41 17-42 42-42z m0-333c25 0 41 16 41 41s-16 42-41 42-42-17-42-42 17-41 42-41z m-500 166c25 0 41 17 41 42s-16 42-41 42-42-17-42-42 17-42 42-42z m666-250c-25 0-41-16-41-41s16-42 41-42 42 17 42 42-17 41-42 41z m0 167c-25 0-41-17-41-42s16-41 41-41 42 16 42 41-17 42-42 42z m0 167c-25 0-41-17-41-42s16-42 41-42 42 17 42 42-17 42-42 42z m0-500h-666c-25 0-42-17-42-42s17-42 42-42h666c25 0 42 17 42 42s-17 42-42 42z m-666 250c25 0 41 16 41 41s-16 42-41 42-42-17-42-42 17-41 42-41z m0 333c25 0 41 17 41 42s-16 41-41 41-42-16-42-41 17-42 42-42z m166-333c25 0 42 16 42 41s-17 42-42 42-41-17-41-42 16-41 41-41z m-166-167c25 0 41 17 41 42s-16 41-41 41-42-16-42-41 17-42 42-42z" horiz-adv-x="1000" />

<glyph glyph-name="horizontal-align-left" unicode="&#xe84a;" d="M875 433h-208v125c0 25-17 42-42 42h-458v125c0 25-17 42-42 42-21 0-42-17-42-42v-750c0-25 17-42 42-42 25 0 42 17 42 42v125h708c25 0 42 17 42 42v250c0 25-17 41-42 41z m-292 0h-416v84h416v-84z" horiz-adv-x="1000" />

<glyph glyph-name="flip-h-alt" unicode="&#xe84b;" d="M308 550c5 0 9 0 9 0l79 21c21 4 37 29 29 50-4 21-29 37-50 29l-79-17c-17-4-33-20-33-41 4-21 20-42 45-42z m88-75h-83c-25 0-42-17-42-42s17-41 42-41h83c25 0 42 16 42 41s-17 42-42 42z m154 138c4 0 8 0 8 0l79 20c0 0 0 0 0 0 26 9 42 30 34 50-4 21-29 38-50 30l-79-17c-17-4-34-21-34-42 0-21 21-41 42-41z m13-138c-25 0-42-17-42-42s17-41 42-41h83c25 0 42 16 42 41s-17 42-42 42h-83z m312 258c-4 21-29 38-50 30l-42-9c-16-4-33-21-33-41 0-25 17-42 42-42 4-17 21-29 41-29h0c25 0 42 16 42 41v42c0 4 0 8 0 8z m-708-320l0 0c25 0 41 16 41 41v84c0 25-16 41-41 41s-42-21-42-41v-84c0-25 17-41 42-41z m666 145c-25 0-41-16-41-41v-46c-13-8-21-21-21-38 0-25 16-41 41-41h21c25 0 42 16 42 41v84c0 25-17 41-42 41z m0-250h-666c-25 0-42-16-42-41v-125c0-21 13-38 33-42l667-167c4 0 8 0 8 0 25 0 42 17 42 42v292c0 25-17 41-42 41z" horiz-adv-x="1000" />

<glyph glyph-name="grip-horizontal-line" unicode="&#xe84c;" d="M125 392h750c25 0 42 16 42 41s-17 42-42 42h-750c-25 0-42-17-42-42s17-41 42-41z m750-84h-750c-25 0-42-16-42-41s17-42 42-42h750c25 0 42 17 42 42s-17 41-42 41z" horiz-adv-x="1000" />

<glyph glyph-name="vector-square-alt" unicode="&#xe84d;" d="M875 88v525c25 12 42 41 42 70 0 46-38 84-84 84-29 0-58-17-71-42h-524c-13 25-42 42-71 42-46 0-84-38-84-84 0-29 17-58 42-70v-525c-25-13-42-42-42-71 0-46 38-84 84-84 29 0 58 17 71 42h525c12-25 41-42 70-42 46 0 84 38 84 84 0 29-17 58-42 71z m-83 0c-13-9-21-17-29-30h-525c-9 13-17 21-30 30v525c13 8 21 16 30 29h525c8-13 16-21 29-29v-525z m-125 470h-334c-25 0-41-16-41-41v-334c0-25 16-41 41-41h334c25 0 41 16 41 41v334c0 25-16 41-41 41z" horiz-adv-x="1000" />

<glyph glyph-name="flip-h" unicode="&#xe84e;" d="M875 392h-750c-25 0-42-17-42-42s17-42 42-42h750c25 0 42 17 42 42s-17 42-42 42z m-167-167h-416c-13 0-21-4-30-12-16-17-16-42 0-59l209-208c8-9 16-13 29-13 12 0 21 4 29 13l209 208c8 8 12 17 12 29 0 25-17 42-42 42z m-66 292c0-25 16-42 41-42h25c13 0 21 4 29 13 17 16 17 41 0 58l-29 29c-12 13-33 17-50 8-21-8-29-33-16-54 0-8 0-8 0-12z m-159 133l17 17 33-34c9-8 17-12 30-12h0c12 0 20 4 29 12 16 17 16 42 0 59l-46 46c-4 4-9 4-13 8 0 4-4 8-8 12-17 17-42 17-58 0l-46-45c-17-17-17-42 0-59s50-21 62-4z m-187-175c12 0 21 4 29 13l46 45c17 17 17 42 0 59-17 16-42 16-58 0l-50-42c-5-8-9-21-9-29 0-25 17-42 42-46z m158 0h63c25 0 41 17 41 42s-16 41-41 41h-63c-25 0-42-16-42-41s21-42 42-42z" horiz-adv-x="1000" />

<glyph glyph-name="flip-v-alt" unicode="&#xe84f;" d="M204 342c-21 4-46-9-50-29l-21-80c-4-25 9-50 34-54 4 0 8 0 8 0 21 0 38 13 42 34l21 79c4 21-9 41-34 50z m109 300h83c25 0 42 16 42 41s-17 42-42 42h-83c-25 0-42-17-42-42s21-41 42-41z m-138-584c0 21-12 38-33 42-21 4-46-8-50-29l-9-42c0-4 0-8 0-8 0-25 17-42 42-42h42c21 0 37 13 41 34 4 16-8 37-33 45z m92 525c-21 5-46-8-50-29l-21-83c0-4 0-8 0-8 0-25 17-42 42-42 20 0 37 12 41 33l21 79c4 21-12 42-33 50z m150-254c-25 0-42-16-42-41v-84c0-25 17-41 42-41h0c25 0 41 16 41 41v84c0 20-16 41-41 41z m0 250c-25 0-42-16-42-41v-84c0-25 17-41 42-41h0c25 0 41 16 41 41v84c0 20-16 41-41 41z m21-504c-21 8-46 4-59-17h-46c-25 0-41-16-41-41s16-42 41-42h84c25 0 41 17 41 42v21c0 12-8 29-20 37z m479-50l-167 667c-4 21-21 33-42 33h-125c-25 0-41-17-41-42v-666c0-25 16-42 41-42h292c4 0 8 0 8 0 25 8 38 29 34 50z" horiz-adv-x="1000" />

<glyph glyph-name="align-letter-right" unicode="&#xe850;" d="M875 17h-750c-25 0-42-17-42-42s17-42 42-42h750c25 0 42 17 42 42s-17 42-42 42z m-458 666h458c25 0 42 17 42 42s-17 42-42 42h-458c-25 0-42-17-42-42s17-42 42-42z m458-500h-417c-25 0-41-16-41-41s16-42 41-42h417c25 0 42 17 42 42s-17 41-42 41z m0 250h-750c-25 0-42-16-42-41s17-42 42-42h750c25 0 42 17 42 42s-17 41-42 41z m0 167h-750c-25 0-42-17-42-42s17-41 42-41h750c25 0 42 16 42 41s-17 42-42 42z" horiz-adv-x="1000" />

<glyph glyph-name="align-alt" unicode="&#xe851;" d="M417 225h-292c-25 0-42-17-42-42s17-41 42-41h292c25 0 41 16 41 41s-16 42-41 42z m0 167h-292c-25 0-42-17-42-42s17-42 42-42h292c25 0 41 17 41 42s-16 42-41 42z m0 166h-292c-25 0-42-16-42-41s17-42 42-42h292c25 0 41 17 41 42s-16 41-41 41z m166 84h292c25 0 42 16 42 41s-17 42-42 42h-292c-25 0-41-17-41-42s16-41 41-41z m-166-584h-292c-25 0-42-16-42-41s17-42 42-42h292c25 0 41 17 41 42s-16 41-41 41z m458 167h-292c-25 0-41-17-41-42s16-41 41-41h292c25 0 42 16 42 41s-17 42-42 42z m0 333h-292c-25 0-41-16-41-41s16-42 41-42h292c25 0 42 17 42 42s-17 41-42 41z m-458 167h-125c-25 0-42-17-42-42s17-41 42-41h125c25 0 41 16 41 41s-16 42-41 42z m458-333h-292c-25 0-41-17-41-42s16-42 41-42h292c25 0 42 17 42 42s-17 42-42 42z m-167-334h-125c-25 0-41-16-41-41s16-42 41-42h125c25 0 42 17 42 42s-17 41-42 41z" horiz-adv-x="1000" />

<glyph glyph-name="align-center" unicode="&#xe852;" d="M292 475c-25 0-42-17-42-42s17-41 42-41h416c25 0 42 16 42 41s-17 42-42 42h-416z m-167 83h750c25 0 42 17 42 42s-17 42-42 42h-750c-25 0-42-17-42-42s17-42 42-42z m583-416h-416c-25 0-42-17-42-42s17-42 42-42h416c25 0 42 17 42 42s-17 42-42 42z m167 166h-750c-25 0-42-16-42-41s17-42 42-42h750c25 0 42 17 42 42s-17 41-42 41z" horiz-adv-x="1000" />

<glyph glyph-name="layers-alt" unicode="&#xe853;" d="M667 558h-417c-25 0-42-16-42-41v-104h313c25 0 41-17 41-42v-313h105c25 0 41 17 41 42v417c0 25-16 41-41 41z m-209-208h-333c-25 0-42-17-42-42v-333c0-25 17-42 42-42h333c25 0 42 17 42 42v333c0 25-17 42-42 42z m417 417h-500c-25 0-42-17-42-42v-104h396c25 0 42-17 42-42v-396h104c25 0 42 17 42 42v500c0 25-17 42-42 42z" horiz-adv-x="1000" />

<glyph glyph-name="flip-v" unicode="&#xe854;" d="M500 767c-25 0-42-17-42-42v-750c0-25 17-42 42-42h0c25 0 42 17 42 42v750c0 25-17 42-42 42z m404-388l-208 209c-8 8-17 12-29 12-25 0-42-17-42-42v-416c0-25 17-42 42-42 12 0 21 4 29 13l208 208c17 17 17 42 0 58z m-746 63l-46-46c-4-4-4-8-8-13-4 0-8-4-12-8-17-17-17-42 0-58l45-46c9-8 17-13 30-13h0c12 0 20 5 29 13 16 17 16 42 0 58l-13 21 34 33c16 17 16 42 0 59s-42 16-59 0z m159-225c-17 16-42 16-59 0-16-17-16-42 0-59l46-45c4-5 17-13 25-13l0 0c13 0 21 4 29 13 17 16 17 41 0 58l-41 46z m-13 371l-29-30c-8-4-12-16-12-29 0-25 16-41 41-41 9 0 13 0 21 4 4 0 4 0 8 0 25 0 42 16 42 41v25c0 13-4 21-12 30-17 16-42 16-59 0z m29-180c-25 0-41-16-41-41v-63c0-25 16-41 41-41h0c25 0 42 16 42 41v63c0 25-17 41-42 41z" horiz-adv-x="1000" />

<glyph glyph-name="compress" unicode="&#xe855;" d="M333 225h-208c-25 0-42-17-42-42s17-41 42-41h167v-167c0-25 16-42 41-42h0c25 0 42 17 42 42v208c0 25-17 42-42 42z m0 542c-25 0-41-17-41-42v-167h-167c-25 0-42-16-42-41s17-42 42-42h208c25 0 42 17 42 42v208c0 25-17 42-42 42z m334-292h208c25 0 42 17 42 42s-17 41-42 41h-167v167c0 25-16 42-41 42s-42-17-42-42v-208c0-25 17-42 42-42z m208-250h-208c-25 0-42-17-42-42v-208c0-25 17-42 42-42h0c25 0 41 17 41 42v167h167c25 0 42 16 42 41s-17 42-42 42z" horiz-adv-x="1000" />

<glyph glyph-name="vector-square" unicode="&#xe856;" d="M833 175v350c50 17 84 63 84 117 0 71-54 125-125 125-54 0-100-34-117-84h-350c-17 50-62 84-117 84-71 0-125-54-125-125 0-54 34-100 84-117v-350c-50-17-84-62-84-117 0-71 55-125 125-125 55 0 100 34 117 84h350c17-50 63-84 117-84 71 0 125 54 125 125 0 55-34 100-84 117z m-158-75h-350c-12 33-42 63-75 75v350c33 13 63 42 75 75h350c13-33 42-62 75-75v-350c-33-12-62-42-75-75z m117 583c25 0 41-16 41-41 0-25-16-42-41-42s-42 17-42 42 17 41 42 41z m-584 0c25 0 42-16 42-41 0-25-17-42-42-42s-41 17-41 42 16 41 41 41z m0-666c-25 0-41 16-41 41s16 42 41 42c25 0 42-17 42-42 0-25-17-41-42-41z m584 0c-25 0-42 16-42 41s17 42 42 42c25 0 41-17 41-42 0-25-16-41-41-41z" horiz-adv-x="1000" />

<glyph glyph-name="line-spacing" unicode="&#xe857;" d="M417 517h458c25 0 42 16 42 41s-17 42-42 42h-458c-25 0-42-17-42-42s17-41 42-41z m-179-304v275c8-9 16-13 25-13 12 0 20 4 29 8 16 17 20 42 4 59l-71 83c-8 13-17 17-29 17s-25-4-33-17l-71-83c-13-17-13-42 8-59 17-12 38-12 54 0v-275c-16 13-37 17-54 0-17-16-21-41-4-58l71-83c4-4 16-9 29-9s25 5 33 17l71 83c17 17 13 46-4 59-21 12-46 12-58-4z m637 179h-458c-25 0-42-17-42-42s17-42 42-42h458c25 0 42 17 42 42s-17 42-42 42z m0-209h-458c-25 0-42-16-42-41s17-42 42-42h458c25 0 42 17 42 42s-17 41-42 41z" horiz-adv-x="1000" />

<glyph glyph-name="border-alt" unicode="&#xe858;" d="M854 704c0 25-16 42-41 42h-667c-25 0-42-17-42-42v-666c0-25 17-42 42-42h0c25 0 42 17 42 42v625h625c25 0 41 16 41 41z m-41-291c-25 0-42-17-42-42s17-42 42-42 41 17 41 42-16 42-41 42z m0 166c-25 0-42-16-42-41s17-42 42-42 41 17 41 42-16 41-41 41z m0-333c-25 0-42-17-42-42s17-41 42-41 41 16 41 41-16 42-41 42z m-500-167c-25 0-42-16-42-41s17-42 42-42 41 17 41 42-17 41-41 41z m166 0c-25 0-42-16-42-41s17-42 42-42 42 17 42 42-17 41-42 41z m167 0c-25 0-42-16-42-41s17-42 42-42 41 17 41 42-16 41-41 41z m167 0c-25 0-42-16-42-41s17-42 42-42 41 17 41 42-16 41-41 41z" horiz-adv-x="1000" />

<glyph glyph-name="object-group" unicode="&#xe859;" d="M875 88v525c25 12 42 41 42 70 0 46-38 84-84 84-29 0-58-17-71-42h-524c-13 25-42 42-71 42-46 0-84-38-84-84 0-29 17-58 42-70v-525c-25-13-42-42-42-71 0-46 38-84 84-84 29 0 58 17 71 42h525c12-25 41-42 70-42 46 0 84 38 84 84 0 29-17 58-42 71z m-83 0c-13-9-21-17-29-30h-525c-9 13-17 21-30 30v525c13 8 21 16 30 29h525c8-13 16-21 29-29v-525z m-209 387v42c0 25-16 41-41 41h-209c-25 0-41-16-41-41v-209c0-25 16-41 41-41h42v125c0 46 38 83 83 83h125z m84-42h-209c-25 0-41-16-41-41v-209c0-25 16-41 41-41h209c25 0 41 16 41 41v209c0 25-16 41-41 41z" horiz-adv-x="1000" />

<glyph glyph-name="document-layout-center" unicode="&#xe85a;" d="M792 517h83c25 0 42 16 42 41s-17 42-42 42h-83c-25 0-42-17-42-42s17-41 42-41z m83-84h-83c-25 0-42-16-42-41s17-42 42-42h83c25 0 42 17 42 42s-17 41-42 41z m-750 84h83c25 0 42 16 42 41s-17 42-42 42h-83c-25 0-42-17-42-42s17-41 42-41z m0-167h83c25 0 42 17 42 42s-17 41-42 41h-83c-25 0-42-16-42-41s17-42 42-42z m250 0h250c25 0 42 17 42 42v250c0 25-17 41-42 41h-250c-25 0-42-16-42-41v-250c0-25 17-42 42-42z m500-83h-750c-25 0-42-17-42-42s17-42 42-42h750c25 0 42 17 42 42s-17 42-42 42z m-333-167h-417c-25 0-42-17-42-42s17-41 42-41h417c25 0 41 16 41 41s-16 42-41 42z" horiz-adv-x="1000" />

<glyph glyph-name="border-out" unicode="&#xe85b;" d="M833 725h-666c-25 0-42-17-42-42v-666c0-25 17-42 42-42h666c25 0 42 17 42 42v666c0 25-17 42-42 42z m-41-667h-584v584h584v-584z m-292 250c25 0 42 17 42 42s-17 42-42 42-42-17-42-42 17-42 42-42z m0-166c25 0 42 16 42 41s-17 42-42 42-42-17-42-42 17-41 42-41z m0 333c25 0 42 17 42 42s-17 41-42 41-42-16-42-41 17-42 42-42z m-167-167c25 0 42 17 42 42s-17 42-42 42-41-17-41-42 16-42 41-42z m334 0c25 0 41 17 41 42s-16 42-41 42-42-17-42-42 17-42 42-42z" horiz-adv-x="1000" />

<glyph glyph-name="object-ungroup" unicode="&#xe85c;" d="M875 88v274c25 13 42 42 42 71 0 46-38 84-84 84-29 0-58-17-71-42h-137v138c25 12 42 41 42 70 0 46-38 84-84 84-29 0-58-17-71-42h-274c-13 25-42 42-71 42-46 0-84-38-84-84 0-29 17-58 42-70v-275c-25-13-42-42-42-71 0-46 38-84 84-84 29 0 58 17 71 42h137v-138c-25-12-42-41-42-70 0-46 38-84 84-84 29 0 58 17 70 42h275c13-25 42-42 71-42 46 0 84 38 84 84 0 29-17 58-42 71z m-637 220c-9 13-17 21-30 30v275c13 8 21 16 30 29h275c8-13 16-21 29-29v-138h-55c-12 25-41 42-70 42-46 0-84-38-84-84 0-29 17-58 42-70v-55h-137z m304 30c-13-9-21-17-29-30h-55v55c13 8 21 16 30 29h54v-54z m-29-113c12-25 41-42 70-42 46 0 84 38 84 84 0 29-17 58-42 71v54h138c8-13 16-21 29-29v-275c-13-9-21-17-29-30h-275c-9 13-17 21-30 30v137h55z" horiz-adv-x="1000" />

<glyph glyph-name="table" unicode="&#xe85d;" d="M875 767h-750c-25 0-42-17-42-42v-750c0-25 17-42 42-42h750c25 0 42 17 42 42v750c0 25-17 42-42 42z m-458-750v166h166v-166h-166z m0 250v166h166v-166h-166z m-250 166h166v-166h-166v166z m250 84v166h166v-166h-166z m250-84h166v-166h-166v166z m166 84h-166v166h166v-166z m-500 166v-166h-166v166h166z m-166-500h166v-166h-166v166z m500-166v166h166v-166h-166z" horiz-adv-x="1000" />

<glyph glyph-name="circle-layer" unicode="&#xe85e;" d="M292 350c-117 0-209-92-209-208s92-209 209-209 208 92 208 209-92 208-208 208z m166 208c-100 0-191-62-229-154 146 38 292-54 325-196 13-41 13-87 0-129 129 54 188 200 134 325-38 92-130 154-230 154z m425 50c-45 96-150 159-258 159s-212-63-258-159c166 50 341-41 391-204 21-62 21-125 0-187 142 71 200 246 125 391z" horiz-adv-x="1000" />

<glyph glyph-name="apps" unicode="&#xe85f;" d="M417 767h-292c-25 0-42-17-42-42v-292c0-25 17-41 42-41h292c25 0 41 16 41 41v292c0 25-16 42-41 42z m0-459h-292c-25 0-42-16-42-41v-292c0-25 17-42 42-42h292c25 0 41 17 41 42v292c0 25-16 41-41 41z m458 459h-292c-25 0-41-17-41-42v-292c0-25 16-41 41-41h292c25 0 42 16 42 41v292c0 25-17 42-42 42z m0-459h-292c-25 0-41-16-41-41v-292c0-25 16-42 41-42h292c25 0 42 17 42 42v292c0 25-17 41-42 41z" horiz-adv-x="1000" />

<glyph glyph-name="document-layout-right" unicode="&#xe860;" d="M542 100h-417c-25 0-42-17-42-42s17-41 42-41h417c25 0 41 16 41 41s-16 42-41 42z m-417 417h333c25 0 42 16 42 41s-17 42-42 42h-333c-25 0-42-17-42-42s17-41 42-41z m0-167h333c25 0 42 17 42 42s-17 41-42 41h-333c-25 0-42-16-42-41s17-42 42-42z m750 333h-250c-25 0-42-16-42-41v-250c0-25 17-42 42-42h250c25 0 42 17 42 42v250c0 25-17 41-42 41z m0-416h-750c-25 0-42-17-42-42s17-42 42-42h750c25 0 42 17 42 42s-17 42-42 42z" horiz-adv-x="1000" />

<glyph glyph-name="grids" unicode="&#xe861;" d="M83 688v-675c0-42 38-80 80-80h170v834h-170c-42 0-80-38-80-79z m755 79h-171v-834h171c41 0 79 38 79 80v675c0 41-38 79-79 79z m-421-834h166v834h-166v-834z" horiz-adv-x="1000" />

<glyph glyph-name="align-left" unicode="&#xe862;" d="M125 558h750c25 0 42 17 42 42s-17 42-42 42h-750c-25 0-42-17-42-42s17-42 42-42z m0-166h583c25 0 42 16 42 41s-17 42-42 42h-583c-25 0-42-17-42-42s17-41 42-41z m750-84h-750c-25 0-42-16-42-41s17-42 42-42h750c25 0 42 17 42 42s-17 41-42 41z m-167-166h-583c-25 0-42-17-42-42s17-42 42-42h583c25 0 42 17 42 42s-17 42-42 42z" horiz-adv-x="1000" />

<glyph glyph-name="left-indent" unicode="&#xe863;" d="M125 558h750c25 0 42 17 42 42s-17 42-42 42h-750c-25 0-42-17-42-42s17-42 42-42z m0-166h417c25 0 41 16 41 41s-16 42-41 42h-417c-25 0-42-17-42-42s17-41 42-41z m750-250h-750c-25 0-42-17-42-42s17-42 42-42h750c25 0 42 17 42 42s-17 42-42 42z m-750 83h417c25 0 41 17 41 42s-16 41-41 41h-417c-25 0-42-16-42-41s17-42 42-42z m783 221c-16 17-41 21-58 4l-83-71c0 0-5-4-5-4-16-17-12-46 5-58l83-71c8-4 17-8 25-8 12 0 25 4 33 16 17 17 13 46-4 59l-46 37 46 38c17 16 17 41 4 58z" horiz-adv-x="1000" />

<glyph glyph-name="store-slash" unicode="&#xe864;" d="M625 408c33-37 75-58 125-58v-75l83-83v179c50 29 84 83 84 141 0 5 0 13-4 17l-84 208c-4 21-21 30-37 30h-534l367-359c-4-4 0 0 0 0z m321-446l-113 113v0l-83 83v0l-200 200 0 0-379 384 0 0-58 54c-17 17-42 17-59 0-16-17-16-42 0-58l84-84-50-125c-5 0-5-8-5-12 0-59 34-113 84-142v-400c0-25 16-42 41-42h584c16 0 33 13 37 29l58-58c17-17 42-17 59 0 17 17 17 42 0 58z m-529 305c-25 0-42-17-42-42v-208h-125v333c50 0 92 21 125 58 13-12 25-25 42-33l108-108h-108z m333-250h-125v150l125-125v-25z" horiz-adv-x="1000" />

<glyph glyph-name="user-arrows" unicode="&#xe865;" d="M275 563c0-5 4-9 8-13l84-83c8-9 16-13 29-13 12 0 21 4 29 13 17 16 17 41 0 58l-12 13h175l-13-13c-8-8-12-17-12-29 0-25 16-42 41-42 13 0 21 4 29 13l84 83 0 0c0 0 0 0 0 0 4 4 8 8 8 13 0 4 4 8 4 16 0 0 0 0 0 0 0 0 0 0 0 0 0 4 0 13-4 17-4 4-4 8-8 12l-84 84c-16 16-41 16-58 0-17-17-17-42 0-59l12-12h-174l12 12c17 17 17 42 0 59-17 16-42 16-58 0l-84-84c0 0 0 0 0 0l0 0c0 0 0 0 0 0-4-4-8-8-8-12 0-4-4-8-4-17 0 0 0 0 0 0 0 0 0 0 0 0 0-4 0-12 4-16z m-25-325c58 0 108 50 108 108 0 58-50 108-108 108-58 0-108-50-108-108 0-58 50-108 108-108z m158-113c-108 88-266 71-354-37-8-13-12-25-12-38 0-29 25-54 54-54h308c21 0 42 12 50 29 8 17 8 42-8 58-13 17-25 30-38 42z m234 221c0-58 50-108 108-108s108 50 108 108c0 58-50 108-108 108-58 0-108-50-108-108z m304-263c-13 13-25 30-38 38-108 87-266 71-354-38-8-8-12-20-12-33 0-29 25-54 54-54h308c21 0 42 12 50 29 9 21 4 42-8 58z" horiz-adv-x="1000" />

<glyph glyph-name="stethoscope-alt" unicode="&#xe866;" d="M908 433c-16 50-66 84-116 84-71 0-125-54-125-125 0-54 33-100 83-117v-71c0-104-83-187-187-187s-188 83-188 187v42l129 104c50 42 79 100 79 163v212c0 25-16 42-41 42h-84c-25 0-41-17-41-42s16-42 41-42h42v-170c0-38-17-75-46-96l-121-96-120 96c-30 21-46 58-46 96v170h41c25 0 42 17 42 42s-17 42-42 42h-83c-25 0-42-17-42-42v-212c0-63 30-125 80-163l129-104v-42c0-150 120-271 271-271s270 121 270 271v71c67 21 100 92 75 158z" horiz-adv-x="1000" />

<glyph glyph-name="head-side" unicode="&#xe867;" d="M550 767c-83 4-167-29-229-88-58-58-92-141-92-225v0l-79-166c-8-21 0-46 21-55 4-8 12-8 17-8h41v-83c0-46 38-84 84-84h41v-83c0-25 17-42 42-42h0c25 0 358 0 375 0 4 0 8 0 12 0 21 9 34 29 30 50l-38 134 79 304c0 4 0 8 0 12v9c0 171-133 316-304 325z" horiz-adv-x="1000" />

<glyph glyph-name="social-distancing" unicode="&#xe868;" d="M883 129l-83 84c-17 16-42 16-58 0-17-17-17-42 0-59l12-12h-108c-25 0-42-17-42-42s17-42 42-42h108l-12-12c-9-8-13-17-13-29 0-25 17-42 42-42 12 0 21 4 29 13l83 83 0 0c0 0 0 0 0 0 4 4 9 8 9 12 0 5 4 9 4 17 0 0 0 0 0 0 0 0 0 0 0 0 0 4 0 13-4 17 0 4-4 8-9 12z m-529 13h-108l12 12c17 17 17 42 0 59-16 16-41 16-58 0l-83-84c0 0 0 0 0 0l0 0c0 0 0 0 0 0-4-4-9-8-9-12 0-4-4-9-4-17 0 0 0 0 0 0 0 0 0 0 0 0 0-4 0-12 4-17 5-4 5-8 9-12l83-83c8-9 17-13 29-13 13 0 21 4 29 12 17 17 17 42 0 59l-12 12h108c25 0 42 17 42 42s-17 42-42 42z m396 325c58 0 108 50 108 108s-50 108-108 108c-58 0-108-50-108-108 0-58 50-108 108-108z m196-154c-88 108-246 125-354 37-13-12-29-25-38-37-16-25-16-59 9-75 8-9 20-13 33-13h79c4 13 13 21 21 33 42 42 108 42 146 0l33-33h25c29 0 54 25 54 54 4 13 0 25-8 34z m-854 41c-13-12-29-25-38-37-16-25-16-59 9-75 8-13 20-17 33-17h29l33 33c42 42 109 42 146 0 8-8 17-20 21-33h79c29 0 54 25 54 54 0 13-4 25-12 34-88 108-246 125-354 41z m158 113c58 0 108 50 108 108s-50 108-108 108c-58 0-108-50-108-108 0-58 50-108 108-108z" horiz-adv-x="1000" />

<glyph glyph-name="toilet-paper" unicode="&#xe869;" d="M929 0c-50 58-75 129-75 204v313c0 137-91 250-208 250h-375c-117 0-209-113-209-250s92-250 209-250h125v-63c0-96 33-187 91-258 9-8 21-13 34-13h375c25 0 41 17 41 42 1 8-4 21-8 25z m-658 467c-25 0-46 25-42 50-4 25 17 50 42 50 25-4 46-25 42-50 4-25-17-50-42-50z m271-450c-42 54-63 121-63 191v292c0 0 0 4 0 4 0 4 0 13 0 17 0 58-17 117-54 167h221c71 0 125-75 125-167v-313c0-66 16-133 46-191h-275z" horiz-adv-x="1000" />

<glyph glyph-name="virus-slash" unicode="&#xe86a;" d="M825 83c0 0 0 0 0 0l-167 167c0 0 0 0 0 0l-87 88 0 0-333 333c0 0 0 0 0 0l-125 125c-17 17-42 17-59 0-16-17-16-42 0-58l154-155c-45-54-75-120-79-191h-46c-25 0-41-17-41-42s16-42 41-42h46c9-70 38-137 79-191l-33-34c-17-16-17-41 0-58 17-17 42-17 58 0l34 33c54-45 121-71 191-79v-46c0-25 17-41 42-41s42 16 42 41v46c71 9 137 38 191 79l154-154c9-8 17-12 30-12 12 0 20 4 29 12 16 17 16 42 0 59l-121 120z m-450 100c-25 0-42 17-42 42s17 42 42 42 42-17 42-42-17-42-42-42z m21 167c-34 0-63 29-63 63 0 12 5 25 13 33l87-88c-12-4-25-8-37-8z m475-42h46c25 0 41 17 41 42s-16 42-41 42h-46c-9 71-38 137-79 191l33 34c17 16 17 41 0 58-17 17-42 17-58 0l-34-33c-54 46-120 71-191 79v46c0 25-17 41-42 41s-42-16-42-41v-46c-41-4-83-17-120-33l500-500c16 37 29 79 33 120z m-246 125c-25 0-42 17-42 42s17 42 42 42 42-17 42-42-17-42-42-42z" horiz-adv-x="1000" />

<glyph glyph-name="house-user" unicode="&#xe86b;" d="M904 421l-375 333c-16 13-37 13-54 0l-375-333c-17-17-21-42-4-58s41-21 58-5l13 17v-400c0-25 16-42 41-42h584c25 0 41 17 41 42v400l13-13c16-16 41-12 58 5 17 12 17 41 0 54z m-404-29c63 0 113-50 113-113 0-62-50-112-113-112-62 0-112 50-112 112s50 113 112 113z m-208-375c0 4 0 4 4 8 92 113 258 133 371 42 16-13 29-25 41-42 0 0 0-4 4-8h-420z" horiz-adv-x="1000" />

<glyph glyph-name="clinic-medical" unicode="&#xe86c;" d="M904 421l-375 333c-16 13-37 13-54 0l-375-333c-17-17-21-42-4-58s41-21 58-5l13 17v-400c0-25 16-42 41-42h584c25 0 41 17 41 42v400l13-13c16-16 41-12 58 5 17 12 17 41 0 54z m-321-196h-41v-42c0-25-17-41-42-41s-42 16-42 41v42h-41c-25 0-42 17-42 42s17 41 42 41h41v42c0 25 17 42 42 42s42-17 42-42v-42h41c25 0 42-16 42-41s-17-42-42-42z" horiz-adv-x="1000" />

<glyph glyph-name="hospital-square-sign" unicode="&#xe86d;" d="M792 767h-584c-71 0-125-54-125-125v-584c0-70 55-125 125-125h584c70 0 125 55 125 125v584c0 71-55 125-125 125z m-125-625c0-25-17-42-42-42s-42 17-42 42v166h-166v-166c0-25-17-42-42-42s-42 17-42 42v416c0 25 17 42 42 42s42-17 42-42v-166h166v166c0 25 17 42 42 42s42-17 42-42v-416z" horiz-adv-x="1000" />

<glyph glyph-name="image-v" unicode="&#xe86e;" d="M792 767h-584c-71 0-125-54-125-125v-584c0-70 55-125 125-125h584c70 0 125 55 125 125v584c0 71-55 125-125 125z m41-496l-79 79c-50 46-129 46-175 0l-37-37-121 120c-50 46-129 46-175 0l-79-79v288c0 25 16 41 41 41h584c25 0 41-16 41-41v-371z" horiz-adv-x="1000" />

<glyph glyph-name="hospital" unicode="&#xe86f;" d="M896 579h-125v167c0 25-17 42-42 42h-458c-25 0-42-17-42-42v-167h-125c-25 0-42-16-42-41v-584c0-25 17-41 42-41h792c25 0 41 16 41 41v584c1 25-16 41-41 41z m-583-500h-42c-25 0-42 17-42 42s17 42 42 42h42c25 0 41-17 41-42s-17-42-41-42z m0 167h-42c-25 0-42 17-42 42s17 41 42 41h42c25 0 41-16 41-41s-17-42-41-42z m208-167h-42c-25 0-42 17-42 42s17 42 42 42h42c25 0 41-17 41-42s-16-42-41-42z m0 167h-42c-25 0-42 17-42 42s17 41 42 41h42c25 0 41-16 41-41s-16-42-41-42z m42 229h-21v-21c0-25-17-41-42-41s-42 16-42 41v21h-21c-25 0-41 17-41 42s16 41 41 41h21v21c0 25 17 42 42 42s42-17 42-42v-21h21c25 0 41-16 41-41s-16-42-41-42z m166-396h-41c-25 0-42 17-42 42s17 42 42 42h41c25 0 42-17 42-42s-17-42-42-42z m0 167h-41c-25 0-42 17-42 42s17 41 42 41h41c25 0 42-16 42-41s-17-42-42-42z" horiz-adv-x="1000" />

<glyph glyph-name="sanitizer-alt" unicode="&#xe870;" d="M667 517v125c0 25-17 41-42 41h-42v42h42c25 0 42 17 42 42s-17 41-42 41h-200c-71 0-137-41-171-108-8-17 0-42 21-54 21-8 46 0 54 17 17 37 54 62 96 62h75v-42h-42c-25 0-41-16-41-41v-125c-71 0-125-54-125-125v-375c0-71 54-125 125-125h250c71 0 125 54 125 125v375c0 71-55 125-125 125z m-167 83h83v-83h-83v83z m83-458h-83c-25 0-42 16-42 41s17 42 42 42h83c25 0 42-17 42-42s-17-41-42-41z" horiz-adv-x="1000" />

<glyph glyph-name="user-nurse" unicode="&#xe871;" d="M675 313c0 0-4 0 0 0-8 4-13 8-21 8 108 83 129 242 42 350s-242 129-350 42-129-242-42-350c13-17 25-30 42-42-4-4-13-4-17-8 0 0 0 0-4 0-133-63-225-188-242-334 0-21 17-41 42-46h750c21 4 38 25 38 46-13 146-105 271-238 334z m-342 220c9 92 92 159 180 150 79-8 141-70 150-150h-330z m167-358l-79 79c54 13 108 13 162 0l-83-79z" horiz-adv-x="1000" />

<glyph glyph-name="head-side-mask" unicode="&#xe872;" d="M550 767c-83 4-167-29-229-88-58-58-92-137-92-225l-75-125c-4-8-8-12-8-21v0c0-4 0-8 4-12l58-163c0 0 0-4 0-4 21-41 63-71 113-71h33v-83c0-25 17-42 42-42s42 17 42 42v83h83l0 0c4 0 8 0 12 5l155 54c0 0 0-4 0-4l41-146c4-17 21-29 42-29 4 0 8 0 12 0 21 8 34 29 29 50l-37 133 79 304c0 4 0 8 0 13v4c0 171-133 316-304 325z m158-559l-145-50v121l179 59-34-130z m59 225c-5 0-9 0-13 0l-241-83h-250l45 71c5 8 9 17 5 25 0 0 0 8 0 8 0 125 104 229 229 229 4 0 4 0 8 0 125-8 225-112 221-241l-4-9z" horiz-adv-x="1000" />

<glyph glyph-name="microscope" unicode="&#xe873;" d="M833-25h-216c4 8 4 17 4 25 125 50 208 171 208 308 0 84-33 163-87 225l25 25c4 5 8 9 8 17l29 88c4 16 0 33-8 41l-88 88c-12 12-29 16-41 8l-84-25c-4 0-12-4-16-8l-267-267c-17-17-17-42 0-58l0 0-58-59c-17-16-17-41 0-58l0 0 87-87c17-17 42-17 59 0l58 58 0 0c17-17 42-17 58 0l0 0 184 179c41-46 62-104 62-167 0-95-58-183-146-225-37 59-112 80-171 42-16-12-33-25-41-46-17 9-34 13-46 25 16 4 29 21 29 38 0 25-17 41-42 41h-166c-25 0-42-16-42-41s17-42 42-42h54c42-46 96-83 154-104 0-8 4-17 4-21h-212c-25 0-42-17-42-42 0-25 17-41 42-41h666c25 0 42 16 42 41 0 21-17 42-42 42z m-475 350l-29 29 29 29 30-29-30-29z m142-350c-25 0-42 17-42 42s17 41 42 41 42-16 42-41c0-25-17-42-42-42z" horiz-adv-x="1000" />

<glyph glyph-name="head-side-cough" unicode="&#xe874;" d="M250 183c-25 0-42-16-42-41s17-42 42-42 42 17 42 42-17 41-42 41z m-167-41c-25 0-41-17-41-42s16-42 41-42 42 17 42 42-17 42-42 42z m125-125c-25 0-41-17-41-42s16-42 41-42 42 17 42 42-17 42-42 42z m467 750c-167 4-300-121-304-288 0-4 0-4 0-8v0l-75-158c-8-21 0-46 21-55 4-4 12-4 16-4h38v-75c0-46 37-79 79-79h38v-75c0-25 16-42 41-42h0c25 0 334 0 350 0 4 0 9 0 13 0 21 9 33 30 29 50l-38 125 75 284c0 4 0 8 0 12v9c0 162-125 295-283 304z" horiz-adv-x="1000" />

<glyph glyph-name="hospital-symbol" unicode="&#xe875;" d="M500 767c-229 0-417-188-417-417s188-417 417-417 417 188 417 417c0 229-188 417-417 417z m167-584c0-25-17-41-42-41s-42 16-42 41v125h-166v-125c0-25-17-41-42-41s-42 16-42 41v334c0 25 17 41 42 41s42-16 42-41v-125h166v125c0 25 17 41 42 41s42-16 42-41v-334z" horiz-adv-x="1000" />

<glyph glyph-name="user-md" unicode="&#xe876;" d="M663 300l0 0c-5 0-5 4-9 4 63 46 96 117 96 196 0 8 0 17 0 25 0 0 0 4 0 4l13 100c8 67-38 125-100 138l-38 8c-83 13-167 13-250 0l-33-8c-67-13-113-71-104-138l12-100c0 0 0-4 0-4 0-8 0-17 0-25 0-75 33-150 96-196-4 0-4-4-8-4l0 0c-138-58-234-187-250-338-5-20 12-41 37-45 25-5 729 0 750 0 0 0 4 0 4 0 21 4 38 25 38 45-21 151-117 280-254 338z m-163-129l-71 71c46 8 92 8 138 0l-67-71z m0 162c-92 0-162 71-167 163h334c-4-92-75-163-167-163z" horiz-adv-x="1000" />

<glyph glyph-name="stethoscope" unicode="&#xe877;" d="M908 433c-16 50-66 84-116 84-71 0-125-54-125-125 0-54 33-100 83-117v-71c0-104-83-187-187-187s-188 83-188 187v25c121 21 208 125 208 246v250c0 25-16 42-41 42h-84c-25 0-41-17-41-42s16-42 41-42h42v-208c0-92-75-167-167-167s-166 75-166 167v208h41c25 0 42 17 42 42s-17 42-42 42h-83c-25 0-42-17-42-42v-250c0-121 88-225 209-246v-25c0-150 120-271 271-271s270 121 270 271v71c67 21 100 92 75 158z" horiz-adv-x="1000" />

<glyph glyph-name="record-audio" unicode="&#xe878;" d="M500 767c-229 0-417-188-417-417s188-417 417-417 417 188 417 417c0 229-188 417-417 417z m0-667c-137 0-250 113-250 250s113 250 250 250 250-112 250-250c0-137-112-250-250-250z" horiz-adv-x="1000" />

<glyph glyph-name="lock-access" unicode="&#xe879;" d="M875 767h-250c-25 0-42-17-42-42s17-42 42-42h208v-208c0-25 17-42 42-42h0c25 0 42 17 42 42v250c0 25-17 42-42 42z m-750-334l0 0c25 0 42 17 42 42v208h208c25 0 42 17 42 42s-17 42-42 42h-250c-25 0-42-17-42-42v-250c0-25 17-42 42-42z m250-416h-208v208c0 25-17 42-42 42s-42-17-42-42v-250c0-25 17-42 42-42h250c25 0 42 17 42 42s-17 42-42 42z m500 250c-25 0-42-17-42-42v-208h-208c-25 0-42-17-42-42s17-42 42-42h250c25 0 42 17 42 42v250c0 25-17 42-42 42z m-375 333c-71 0-125-54-125-125v-42c-46 0-83-37-83-83v-167c0-45 37-83 83-83h250c46 0 83 38 83 83v167c0 46-37 83-83 83v42c0 71-54 125-125 125z m42-167h-84v42c0 25 17 42 42 42s42-17 42-42v-42z" horiz-adv-x="1000" />

<glyph glyph-name="previous" unicode="&#xe87a;" d="M696 213l-138 137 138 138c17 16 17 41 0 58-17 17-42 17-58 0l-167-167c0 0 0 0 0 0-17-17-17-41 0-58l167-167c8-8 16-12 29-12 12 0 21 4 29 12 17 17 17 42 0 59z m-363 345c-25 0-41-16-41-41v-334c0-25 16-41 41-41s42 16 42 41v334c0 25-17 41-42 41z" horiz-adv-x="1000" />

<glyph glyph-name="lock-alt" unicode="&#xe87b;" d="M708 475v83c0 117-91 209-208 209s-208-92-208-209v-83c-71 0-125-54-125-125v-292c0-70 54-125 125-125h416c71 0 125 55 125 125v292c0 71-54 125-125 125z m-333 83c0 71 54 125 125 125s125-54 125-125v-83h-250v83z m167-416c0-25-17-42-42-42s-42 17-42 42v125c0 25 17 41 42 41s42-16 42-41v-125z" horiz-adv-x="1000" />

<glyph glyph-name="coronavirus" unicode="&#xe87c;" d="M917 392h-46c-9 71-38 137-79 191l33 34c17 16 17 41 0 58-17 17-42 17-58 0l-34-33c-54 46-120 71-191 79v46c0 25-17 41-42 41s-42-16-42-41v-46c-70-4-137-33-191-79l-34 33c-16 17-41 17-58 0-17-17-17-42 0-58l33-34c-45-54-75-120-79-191h-46c-25 0-41-17-41-42s16-42 41-42h46c9-70 38-137 79-191l-33-34c-17-16-17-41 0-58 17-17 42-17 58 0l34 33c54-45 121-71 191-79v-46c0-25 17-41 42-41s42 16 42 41v46c71 9 137 38 191 79l34-33c16-17 41-17 58 0 17 17 17 42 0 58l-33 34c46 54 71 121 79 191h46c25 0 41 17 41 42s-16 42-41 42z m-542-209c-25 0-42 17-42 42s17 42 42 42 42-17 42-42-17-42-42-42z m21 167c-34 0-63 29-63 63s29 62 63 62 62-29 62-62-29-63-62-63z m208-125c-33 0-62 29-62 63s29 62 62 62 63-29 63-62-29-63-63-63z m21 208c-25 0-42 17-42 42s17 42 42 42 42-17 42-42-17-42-42-42z" horiz-adv-x="1000" />

<glyph glyph-name="sanitizer" unicode="&#xe87d;" d="M783 533l-116 88v104h41c25 0 42 17 42 42s-17 41-42 41h-346c-58 0-108-20-150-62l-33-33c-16-17-16-42 0-59 17-16 42-16 59 0 0 0 0 0 0 0l33 34c25 25 58 37 91 37h55v-104l-117-88c-33-25-50-62-50-100v-500c0-25 17-41 42-41h500c25 0 41 16 41 41v500c0 38-16 75-50 100z m-283 192h83v-83h-83v83z m42-583c-46 0-84 37-84 83s38 83 84 83 83-37 83-83c0-46-37-83-83-83z" horiz-adv-x="1000" />

<glyph glyph-name="airplay" unicode="&#xe87e;" d="M533 292c-4 4-4 8-8 8-21 13-46 8-62-8l-167-250c0-9-4-17-4-25 0-25 16-42 41-42h334c8 0 16 4 25 8 21 13 25 38 12 59l-171 250z m259 433h-584c-71 0-125-54-125-125v-375c0-71 55-125 125-125h34c25 0 41 17 41 42s-16 41-41 41h-34c-25 0-41 17-41 42v375c0 25 16 42 41 42h584c25 0 41-17 41-42v-375c0-25-16-42-41-42h-34c-25 0-41-16-41-41s16-42 41-42h34c71 0 125 54 125 125v375c0 71-55 125-125 125z" horiz-adv-x="1000" />

<glyph glyph-name="clock-seven" unicode="&#xe87f;" d="M500 767c-229 0-417-188-417-417s188-417 417-417 417 188 417 417-188 417-417 417z m42-417c0-8-4-12-4-17l-63-116c-12-21-37-29-58-17-21 13-29 38-17 58l58 109v191c0 25 17 42 42 42s42-17 42-42v-208z" horiz-adv-x="1000" />

<glyph glyph-name="keyhole-square-full" unicode="&#xe880;" d="M875 767h-750c-25 0-42-17-42-42v-750c0-25 17-42 42-42h750c25 0 42 17 42 42v750c0 25-17 42-42 42z m-304-375c-9-13-17-25-29-29v-138c0-25-17-42-42-42s-42 17-42 42v138c-41 25-54 75-29 112s71 54 113 29c41-21 54-71 29-112z" horiz-adv-x="1000" />

<glyph glyph-name="padlock" unicode="&#xe881;" d="M708 475v83c0 117-91 209-208 209s-208-92-208-209v-83c-71 0-125-54-125-125v-292c0-70 54-125 125-125h416c71 0 125 55 125 125v292c0 71-54 125-125 125z m-333 83c0 71 54 125 125 125s125-54 125-125v-83h-250v83z m171-354c0 0-4-4-4-4v-58c0-25-17-42-42-42s-42 17-42 42v58c-25 25-29 63-4 88 25 25 63 29 88 4 25-21 29-63 4-88z" horiz-adv-x="1000" />

<glyph glyph-name="scenery" unicode="&#xe882;" d="M563 600c-34 0-63-29-63-62s29-63 63-63 62 29 62 63-29 62-62 62z m229 167h-584c-71 0-125-54-125-125v-584c0-70 55-125 125-125h584c70 0 125 55 125 125v584c0 71-55 125-125 125z m41-496l-79 79c-50 46-129 46-175 0l-37-37-121 120c-50 46-129 46-175 0l-79-79v288c0 25 16 41 41 41h584c25 0 41-16 41-41v-371z" horiz-adv-x="1000" />

<glyph glyph-name="keyhole-circle" unicode="&#xe883;" d="M500 767c-229 0-417-188-417-417s188-417 417-417 417 188 417 417-188 417-417 417z m71-375c-9-13-17-25-29-29v-138c0-25-17-42-42-42s-42 17-42 42v138c-41 25-54 75-29 112s71 54 113 29c41-21 54-71 29-112z" horiz-adv-x="1000" />

<glyph glyph-name="pentagon" unicode="&#xe884;" d="M900 467l-375 271c-17 12-33 12-50 0l-375-271c-12-9-21-29-17-46l142-442c4-16 21-29 42-29h462c17 0 34 13 42 29l146 442c4 17-5 37-17 46z" horiz-adv-x="1000" />

<glyph glyph-name="triangle" unicode="&#xe885;" d="M912 46l-375 650c-4 4-8 8-12 12-21 13-46 9-58-12l-375-650c-9-4-9-13-9-21 0-25 17-42 42-42h750c8 0 13 0 21 4 21 13 25 38 16 59z" horiz-adv-x="1000" />

<glyph glyph-name="unlock" unicode="&#xe886;" d="M708 475h-333v83c0 34 13 63 38 88 50 50 129 50 175 0 16-17 25-38 33-58 0 0 0 0 0 0 4-21 29-34 50-30 21 5 37 30 29 50-8 38-29 71-54 96-38 42-92 63-146 63-117 0-208-92-208-209v-83c-71 0-125-54-125-125v-292c0-70 54-125 125-125h416c71 0 125 55 125 125v292c0 71-54 125-125 125z" horiz-adv-x="1000" />

<glyph glyph-name="clock-ten" unicode="&#xe887;" d="M500 767c-229 0-417-188-417-417s188-417 417-417 417 188 417 417-188 417-417 417z m42-417c0-25-17-42-42-42-8 0-13 0-21 5l-108 62c-21 13-25 38-17 58 13 21 38 25 58 17l46-25v133c0 25 17 42 42 42s42-17 42-42v-208z" horiz-adv-x="1000" />

<glyph glyph-name="lock" unicode="&#xe888;" d="M708 475v83c0 117-91 209-208 209s-208-92-208-209v-83c-71 0-125-54-125-125v-292c0-70 54-125 125-125h416c71 0 125 55 125 125v292c0 71-54 125-125 125z m-333 83c0 71 54 125 125 125s125-54 125-125v-83h-250v83z" horiz-adv-x="1000" />

<glyph glyph-name="unlock-alt" unicode="&#xe889;" d="M708 475h-333v83c0 34 13 63 38 88 50 50 129 50 175 0 16-17 25-38 33-58 0 0 0 0 0 0 4-21 29-34 50-30 21 5 37 30 29 50-8 38-29 71-54 96-38 42-92 63-146 63-117 0-208-92-208-209v-83c-71 0-125-54-125-125v-292c0-70 54-125 125-125h416c71 0 125 55 125 125v292c0 71-54 125-125 125z m-166-333c0-25-17-42-42-42s-42 17-42 42v125c0 25 17 41 42 41s42-16 42-41v-125z" horiz-adv-x="1000" />

<glyph glyph-name="keyhole-square" unicode="&#xe88a;" d="M792 767h-584c-71 0-125-54-125-125v-584c0-70 55-125 125-125h584c70 0 125 55 125 125v584c0 71-55 125-125 125z m-221-375c-9-13-17-25-29-29v-138c0-25-17-42-42-42s-42 17-42 42v138c-41 25-54 75-29 112s71 54 113 29c41-21 54-71 29-112z" horiz-adv-x="1000" />

<glyph glyph-name="clock-three" unicode="&#xe88b;" d="M500 767c-229 0-417-188-417-417s188-417 417-417 417 188 417 417-188 417-417 417z m125-459h-125c-25 0-42 17-42 42v208c0 25 17 42 42 42s42-17 42-42v-166h83c25 0 42-17 42-42s-17-42-42-42z" horiz-adv-x="1000" />

<glyph glyph-name="shield-plus" unicode="&#xe88c;" d="M817 700c-9 8-21 13-34 8-91-20-183 0-258 55-12 8-33 8-46 0-79-55-171-75-262-55-21 5-46-12-50-33 0-4 0-4 0-8v-313c0-121 58-233 158-304l154-108c13-9 34-9 50 0l154 108c100 71 159 183 159 304v313c-9 12-13 25-25 33z m-234-392h-41v-41c0-25-17-42-42-42s-42 17-42 42v41h-41c-25 0-42 17-42 42s17 42 42 42h41v41c0 25 17 42 42 42s42-17 42-42v-41h41c25 0 42-17 42-42s-17-42-42-42z" horiz-adv-x="1000" />

<glyph glyph-name="clock-five" unicode="&#xe88d;" d="M500 767c-229 0-417-188-417-417s188-417 417-417 417 188 417 417-188 417-417 417z m83-571c-21-13-46-4-58 17l-63 116c-4 9-4 13-4 21v208c0 25 17 42 42 42s42-17 42-42v-195l58-109c8-21 4-46-17-58z" horiz-adv-x="1000" />

<glyph glyph-name="star" unicode="&#xe88e;" d="M917 429c4 21-13 46-34 46l-237 33-108 217c-5 8-9 13-17 17-21 12-46 4-59-17l-104-217-237-33c-13 0-21-4-25-12-17-17-17-42 0-59l171-166-42-238c0-8 0-17 4-25 13-21 38-29 58-17l213 113 212-113c5-4 13-4 21-4v0c4 0 4 0 9 0 21 4 37 25 33 50l-42 238 171 166c8 5 13 13 13 21z" horiz-adv-x="1000" />

<glyph glyph-name="polygon" unicode="&#xe88f;" d="M912 371l-187 325c-8 12-21 21-38 21h-375c-16 0-29-9-37-21l-188-325c-8-13-8-29 0-42l188-325c8-12 21-21 37-21h375c17 0 30 9 38 21l187 325c5 13 5 29 0 42z" horiz-adv-x="1000" />

<glyph glyph-name="th-large" unicode="&#xe890;" d="M833 725h-666c-25 0-42-17-42-42v-666c0-25 17-42 42-42h666c25 0 42 17 42 42v666c0 25-17 42-42 42z m-41-333h-250v250h250v-250z m-334 250v-250h-250v250h250z m-250-334h250v-250h-250v250z m334-250v250h250v-250h-250z" horiz-adv-x="1000" />

<glyph glyph-name="clock-nine" unicode="&#xe891;" d="M500 767c-229 0-417-188-417-417s188-417 417-417 417 188 417 417-188 417-417 417z m42-417c0-25-17-42-42-42h-125c-25 0-42 17-42 42s17 42 42 42h83v166c0 25 17 42 42 42s42-17 42-42v-208z" horiz-adv-x="1000" />

<glyph glyph-name="step-forward" unicode="&#xe892;" d="M362 546c-16 17-41 17-58 0-17-17-17-42 0-58l138-138-138-137c-8-9-12-17-12-30 0-25 16-41 41-41 13 0 21 4 30 12l166 167c0 0 0 0 0 0 17 17 17 42 0 58l-167 167z m305 12c-25 0-42-16-42-41v-334c0-25 17-41 42-41s41 16 41 41v334c0 25-16 41-41 41z" horiz-adv-x="1000" />

<glyph glyph-name="clock" unicode="&#xe893;" d="M500 767c-229 0-417-188-417-417s188-417 417-417 417 188 417 417-188 417-417 417z m146-500c-13-21-38-25-59-17l-108 63c-12 8-21 20-21 37v208c0 25 17 42 42 42s42-17 42-42v-183l87-50c21-12 25-37 17-58z" horiz-adv-x="1000" />

<glyph glyph-name="clock-eight" unicode="&#xe894;" d="M500 767c-229 0-417-188-417-417s188-417 417-417 417 188 417 417-188 417-417 417z m42-417c0-17-9-29-21-37l-109-63c-20-12-45-4-58 17s-4 46 17 58l87 50v183c0 25 17 42 42 42s42-17 42-42v-208z" horiz-adv-x="1000" />

<glyph glyph-name="sync-slash" unicode="&#xe895;" d="M763 554c0 0 0 0 0 0l58 59c0 0 0 0 0 0l83 83c0 0 0 0 0 0 17 17 17 42 0 58-16 17-41 17-58 0l-83-83c-150 125-371 129-525 0-9-4-17-13-26-21v75c0 25-16 42-41 42s-42-17-42-42v-187c0-25 17-42 42-42h187c25 0 42 17 42 42s-17 41-42 41h-100c105 109 271 138 409 59 12-9 25-17 37-25l-466-467c-46 58-71 129-71 204 0 25-17 42-42 42s-42-17-42-42c0-96 34-192 96-262l-83-84c-8-8-13-16-13-29 0-25 17-42 42-42 13 0 21 4 29 13l84 83c0 0 0 0 0 0l58 59c0 0 0 0 0 0l467 466z m66-350h-187c-25 0-42-16-42-41s17-42 42-42h100c-92-100-242-133-371-79l-63-63c59-29 125-46 192-46 108 0 208 42 287 117v-75c0-25 17-42 42-42s42 17 42 42v188c0 25-21 41-42 41z m-21 275c17-41 25-83 25-129 0-25 17-42 42-42s42 17 42 42c0 67-17 133-46 192l-63-63z" horiz-adv-x="1000" />

<glyph glyph-name="star-half-alt" unicode="&#xe896;" d="M917 429c4 21-13 46-34 46l-237 33-108 217c-5 8-9 13-17 17-21 12-46 4-59-17l-104-217-237-33c-13 0-21-4-25-12-17-17-17-42 0-59l171-166-42-238c0-8 0-17 4-25 13-21 38-29 58-17l213 113 212-113c5-4 13-4 21-4v0c4 0 4 0 9 0 21 4 37 25 33 50l-42 238 171 166c8 5 13 13 13 21z m-259-146c-8-8-12-25-12-37l29-175-158 83c-4 4-13 4-21 4v455l79-159c4-12 17-21 33-21l175-25-125-125z" horiz-adv-x="1000" />

<glyph glyph-name="ellipsis-h" unicode="&#xe897;" d="M500 433c-46 0-83-37-83-83s37-83 83-83 83 37 83 83-37 83-83 83z m-292 0c-46 0-83-37-83-83s38-83 83-83 84 37 84 83-38 83-84 83z m584 0c-46 0-84-37-84-83s38-83 84-83 83 37 83 83-37 83-83 83z" horiz-adv-x="1000" />

<glyph glyph-name="sync-exclamation" unicode="&#xe898;" d="M500 308l0 0c25 0 42 17 42 42v125c0 25-17 42-42 42s-42-17-42-42v-125c0-25 17-42 42-42z m-42-83c0-21 21-42 42-42 0 0 0 0 0 0 21 0 42 21 42 42 0 13-4 21-13 29-12 13-29 17-46 9-4 0-8-5-12-9-9-8-13-16-13-29 0 0 0 0 0 0z m250 488c-162 91-362 62-496-59v71c0 25-16 42-41 42s-42-17-42-42v-187c0-5 0-9 4-13 0 0 0-4 0-4 4-8 13-17 21-21 0 0 0 0 0 0 9-4 13-4 17-4h187c25 0 42 17 42 42s-17 41-42 41h-100c63 67 150 104 242 104 183 0 333-150 333-333v0c0-25 17-42 42-42h0c25 0 42 17 42 42 0 150-79 288-209 363z m121-509h-187c-25 0-42-16-42-41s17-42 42-42h100c-63-67-150-104-242-104-183 0-333 150-333 333 0 25-17 42-42 42s-42-17-42-42c0-229 188-417 417-417 108 0 208 42 288 117v-75c0-25 16-42 41-42h0c25 0 42 17 42 42v188c0 25-21 41-42 41z" horiz-adv-x="1000" />

<glyph glyph-name="exclamation-triangle" unicode="&#xe899;" d="M946 121l-338 583c-33 59-112 79-171 46-20-12-37-29-45-46l-338-583c-33-58-12-138 46-171 21-12 42-17 63-17h670c71 0 125 59 125 125 5 25-4 46-12 63z m-446-21c-25 0-42 17-42 42s17 41 42 41 42-16 42-41-17-42-42-42z m42 208c0-25-17-41-42-41s-42 16-42 41v167c0 25 17 42 42 42s42-17 42-42v-167z" horiz-adv-x="1000" />

<glyph glyph-name="key-skeleton" unicode="&#xe89a;" d="M875 667l29 29c0 0 0 0 0 0 17 17 17 42 0 58-16 17-41 17-58 0l-438-437c-33 21-75 33-116 33-117 0-209-92-209-208s92-209 209-209c116 0 208 92 208 209 0 41-13 83-33 116l233 234 88-88c16-16 41-16 58 0 17 17 17 42 0 59l-88 87 59 58 29-29c17-16 42-16 58 0s17 42 0 59l-29 29z m-583-650c-71 0-125 54-125 125s54 125 125 125c70 0 125-54 125-125 0-71-55-125-125-125z" horiz-adv-x="1000" />

<glyph glyph-name="favorite" unicode="&#xe89b;" d="M917 429c4 21-13 46-34 46l-237 33-108 217c-5 8-9 13-17 17-21 12-46 4-59-17l-104-217-237-33c-13 0-21-4-25-12-17-17-17-42 0-59l171-166-42-238c0-8 0-17 4-25 13-21 38-29 58-17l213 113 212-113c5-4 13-4 21-4l0 0c4 0 4 0 9 0 21 4 37 25 33 50l-42 238 171 166c8 5 13 13 13 21z" horiz-adv-x="1000" />

<glyph glyph-name="check-square" unicode="&#xe89c;" d="M875 767h-750c-25 0-42-17-42-42v-750c0-25 17-42 42-42h750c25 0 42 17 42 42v750c0 25-17 42-42 42z m-138-304l-283-284c-17-16-42-16-58 0l-134 134c-16 16-16 41 0 58 17 17 42 17 59 0l104-104 254 254c17 17 42 17 58 0 17-17 17-42 0-58z" horiz-adv-x="1000" />

<glyph glyph-name="signout" unicode="&#xe89d;" d="M708 767h-416c-71 0-125-54-125-125v-250h358l-96 96c-16 16-16 41 0 58 17 17 42 17 59 0l166-167c17-17 17-41 0-58 0 0 0 0 0 0l-166-167c-17-16-42-16-59 0-16 17-16 42 0 59l96 95h-358v-250c0-71 54-125 125-125h416c71 0 125 54 125 125v584c0 71-54 125-125 125z" horiz-adv-x="1000" />

<glyph glyph-name="process" unicode="&#xe89e;" d="M354 600h-75c63 54 138 83 221 83 13 0 25 0 38-4 0 0 0 0 0 0 20-4 41 13 45 38 5 21-12 41-37 46-17 4-29 4-46 4-100 0-196-38-271-100v58c0 25-16 42-41 42s-42-17-42-42v-167c0-25 17-41 42-41h166c25 0 42 16 42 41s-17 42-42 42z m-62-354c-25 0-42-17-42-42v-75c-54 63-83 138-83 221 0 13 0 25 4 38 0 0 0 0 0 0 4 20-13 41-38 45-21 5-41-12-46-37-4-17-4-29-4-46 0-100 38-196 100-271h-58c-25 0-42-16-42-41s17-42 42-42h167c12 0 25 8 33 17 0 0 0 0 0 0 0 0 0 0 0 0 0 4 4 8 4 12 0 4 0 4 0 8 0 0 0 5 0 5v166c4 25-12 42-37 42z m583 375c25 0 42 17 42 42s-17 41-42 41h-167c-4 0-4 0-8 0 0 0 0 0 0 0-4 0-8-4-12-4 0 0 0 0 0 0-5-4-9-4-9-8 0 0 0 0 0 0 0 0 0 0 0 0 0-4-4-9-4-9 0-4 0-4 0-8 0 0 0-4 0-4v-167c0-25 17-42 42-42s41 17 41 42v67c54-58 84-138 84-221 0-12 0-25-4-37-5-21 12-42 37-46 0 0 4 0 4 0 21 0 38 16 42 37 0 17 4 29 4 46 0 100-38 196-100 271h50z m-29-458c-4 4-8 8-13 12 0 0 0 0 0 0 0 0 0 0 0 0-4 4-8 4-12 4 0 0-4 0-4 0 0 0-4 0-4 0h-167c-25 0-42-16-42-41s17-42 42-42h75c-58-54-138-83-221-83-12 0-25 0-37 4 0 0 0 0 0 0-21 4-42-13-46-38s12-42 37-46c17 0 29-4 46-4 100 0 196 38 271 100v-54c0-25 17-42 42-42s41 17 41 42v167c0 8-4 16-8 21 0 0 0 0 0 0z" horiz-adv-x="1000" />

<glyph glyph-name="exclamation-circle" unicode="&#xe89f;" d="M500 767c0 0 0 0 0 0-229 0-417-188-417-417s188-417 417-417 417 188 417 417-188 417-417 417z m0-625c-25 0-42 16-42 41s17 42 42 42 42-17 42-42-17-41-42-41z m42 208c0-25-17-42-42-42s-42 17-42 42v167c0 25 17 41 42 41s42-16 42-41v-167z" horiz-adv-x="1000" />

<glyph glyph-name="key-skeleton-alt" unicode="&#xe8a0;" d="M846 638l58 58c0 0 0 0 0 0 17 17 17 42 0 58s-41 17-58 0l-438-437c-33 21-75 33-116 33-117 0-209-92-209-208s92-209 209-209c116 0 208 92 208 209 0 41-13 83-33 116l204 205 58-59c17-16 42-16 59 0 16 17 16 42 0 59l-59 58 59 58 58-58c17-17 42-17 58 0 17 17 17 42 0 58l-58 59z m-554-621c-71 0-125 54-125 125s54 125 125 125c70 0 125-54 125-125 0-71-55-125-125-125z" horiz-adv-x="1000" />

<glyph glyph-name="minus-square-full" unicode="&#xe8a1;" d="M875 767h-750c-25 0-42-17-42-42v-750c0-25 17-42 42-42h750c25 0 42 17 42 42v750c0 25-17 42-42 42z m-250-459h-250c-25 0-42 17-42 42s17 42 42 42h250c25 0 42-17 42-42s-17-42-42-42z" horiz-adv-x="1000" />

</font>
</defs>
</svg>
